G04*
G04 #@! TF.GenerationSoftware,Altium Limited,Altium Designer,24.5.2 (23)*
G04*
G04 Layer_Color=16711935*
%FSLAX25Y25*%
%MOIN*%
G70*
G04*
G04 #@! TF.SameCoordinates,EC3A5082-E3F1-48C2-B4AC-E183049D0858*
G04*
G04*
G04 #@! TF.FilePolarity,Positive*
G04*
G01*
G75*
%ADD75C,0.03937*%
%ADD137C,0.01000*%
G36*
X314350Y281500D02*
Y305900D01*
X243450D01*
Y281500D01*
X314350D01*
D02*
G37*
G54D75*
X0Y0D02*
X550000D01*
X550000Y308000D01*
X-0D01*
X0Y0D01*
G54D137*
X103192Y13517D02*
X103472Y12552D01*
X103820Y11609D01*
X104233Y10692D01*
X104710Y9808D01*
X105248Y8958D01*
X105844Y8150D01*
X106496Y7385D01*
X107201Y6668D01*
X107954Y6002D01*
X108752Y5392D01*
X109592Y4839D01*
X110468Y4346D01*
X111377Y3917D01*
X112314Y3553D01*
X113274Y3256D01*
X114253Y3028D01*
X115245Y2868D01*
X116246Y2780D01*
X117251Y2762D01*
X118255Y2815D01*
X119252Y2939D01*
X120239Y3133D01*
X121209Y3396D01*
X122158Y3727D01*
X123081Y4124D01*
X123974Y4585D01*
X124833Y5108D01*
X125652Y5690D01*
X126428Y6328D01*
X127158Y7020D01*
X127836Y7761D01*
X128461Y8549D01*
X129029Y9378D01*
X129536Y10246D01*
X129982Y11147D01*
X130362Y12077D01*
X130676Y13032D01*
X130922Y14007D01*
X131098Y14996D01*
X131205Y15995D01*
X131240Y17000D01*
X131205Y18004D01*
X131098Y19004D01*
X130922Y19993D01*
X130676Y20968D01*
X130362Y21923D01*
X129982Y22853D01*
X129536Y23754D01*
X129029Y24622D01*
X128461Y25451D01*
X127836Y26239D01*
X127158Y26980D01*
X126428Y27672D01*
X125652Y28310D01*
X124833Y28892D01*
X123974Y29415D01*
X123081Y29876D01*
X122158Y30273D01*
X121209Y30604D01*
X120239Y30867D01*
X119252Y31061D01*
X118255Y31185D01*
X117251Y31238D01*
X116246Y31220D01*
X115245Y31132D01*
X114253Y30972D01*
X113274Y30744D01*
X112314Y30447D01*
X111377Y30083D01*
X110468Y29654D01*
X109592Y29161D01*
X108752Y28608D01*
X107954Y27998D01*
X107201Y27332D01*
X106496Y26615D01*
X105844Y25850D01*
X105248Y25041D01*
X104710Y24193D01*
X104233Y23308D01*
X103820Y22391D01*
X103472Y21448D01*
X103192Y20483D01*
X102981Y19500D01*
X102840Y18505D01*
X102769Y17503D01*
Y16498D01*
X102840Y15495D01*
X102981Y14500D01*
X103192Y13517D01*
X524701Y282668D02*
X525454Y282002D01*
X526252Y281392D01*
X527092Y280839D01*
X527968Y280346D01*
X528877Y279917D01*
X529814Y279553D01*
X530774Y279256D01*
X531753Y279028D01*
X532745Y278869D01*
X533746Y278780D01*
X534751Y278762D01*
X535755Y278815D01*
X536752Y278939D01*
X537739Y279133D01*
X538709Y279396D01*
X539658Y279727D01*
X540581Y280124D01*
X541474Y280585D01*
X542333Y281108D01*
X543152Y281690D01*
X543928Y282328D01*
X544658Y283020D01*
X545336Y283761D01*
X545961Y284549D01*
X546529Y285378D01*
X547036Y286246D01*
X547481Y287147D01*
X547862Y288077D01*
X548176Y289032D01*
X548422Y290007D01*
X548598Y290996D01*
X548705Y291996D01*
X548740Y293000D01*
X548705Y294005D01*
X548598Y295004D01*
X548422Y295993D01*
X548176Y296968D01*
X547862Y297923D01*
X547481Y298853D01*
X547036Y299754D01*
X546529Y300622D01*
X545961Y301451D01*
X545336Y302239D01*
X544658Y302980D01*
X543928Y303672D01*
X543152Y304310D01*
X542333Y304892D01*
X541474Y305415D01*
X540581Y305876D01*
X539658Y306273D01*
X538709Y306604D01*
X537739Y306867D01*
X536753Y307061D01*
X535755Y307185D01*
X534751Y307238D01*
X533746Y307220D01*
X532745Y307132D01*
X531753Y306973D01*
X530774Y306744D01*
X529814Y306447D01*
X528877Y306083D01*
X527968Y305654D01*
X527092Y305161D01*
X526252Y304608D01*
X525454Y303998D01*
X524701Y303332D01*
X523996Y302615D01*
X523344Y301850D01*
X522748Y301042D01*
X522210Y300192D01*
X521733Y299308D01*
X521320Y298391D01*
X520972Y297448D01*
X520692Y296483D01*
X520481Y295500D01*
X520340Y294505D01*
X520269Y293503D01*
Y292497D01*
X520340Y291495D01*
X520481Y290500D01*
X520692Y289517D01*
X520972Y288552D01*
X521320Y287609D01*
X521733Y286692D01*
X522210Y285808D01*
X522748Y284959D01*
X523344Y284150D01*
X523996Y283385D01*
X524701Y282668D01*
M02*
