G04*
G04 #@! TF.GenerationSoftware,Altium Limited,Altium Designer,24.5.2 (23)*
G04*
G04 Layer_Color=255*
%FSLAX25Y25*%
%MOIN*%
G70*
G04*
G04 #@! TF.SameCoordinates,6455B1CA-3022-4927-84EB-C38AD889BDF6*
G04*
G04*
G04 #@! TF.FilePolarity,Positive*
G04*
G01*
G75*
%ADD30R,0.04528X0.05906*%
%ADD36R,0.05906X0.04528*%
%ADD46O,0.05200X0.07087*%
%ADD47R,0.05200X0.07087*%
%ADD52R,0.05900X0.05900*%
%ADD57R,0.06181X0.06181*%
%ADD58C,0.06181*%
%ADD66C,0.05800*%
%ADD67R,0.05000X0.05000*%
%ADD68C,0.05000*%
%ADD72C,0.05400*%
%ADD85C,0.07480*%
%ADD86O,0.05906X0.07874*%
%ADD87C,0.08268*%
%ADD88R,0.08268X0.08268*%
%ADD89C,0.05900*%
%ADD90C,0.07874*%
%ADD91R,0.07087X0.09843*%
%ADD92O,0.07087X0.09843*%
%ADD93C,0.07677*%
%ADD94R,0.07677X0.07677*%
%ADD95R,0.07795X0.07795*%
%ADD96C,0.07618*%
%ADD97C,0.07795*%
%ADD98C,0.05512*%
%ADD99R,0.05512X0.05512*%
%ADD100O,0.07087X0.05100*%
%ADD101R,0.07087X0.05100*%
%ADD102R,0.03347X0.03347*%
%ADD103C,0.03347*%
%ADD104C,0.01968*%
%ADD105C,0.06000*%
%ADD140R,0.13400X0.17700*%
%ADD141O,0.05900X0.07874*%
G54D30*
X35366Y119000D02*
D03*
X43634D02*
D03*
G54D36*
X96166Y160428D02*
D03*
Y168696D02*
D03*
X119815Y167390D02*
D03*
Y175657D02*
D03*
G54D46*
X65264Y88000D02*
D03*
X75500D02*
D03*
X164264Y171500D02*
D03*
X174500D02*
D03*
G54D47*
X85736Y88000D02*
D03*
X184736Y171500D02*
D03*
G54D52*
X177000Y275500D02*
D03*
G54D57*
X404500Y256000D02*
D03*
G54D58*
X404500Y226000D02*
D03*
Y236000D02*
D03*
Y246000D02*
D03*
G54D66*
X136000Y13000D02*
D03*
X146000D02*
D03*
X156000D02*
D03*
G54D67*
X65130Y14500D02*
D03*
X78100Y49500D02*
D03*
G54D68*
X54500Y14500D02*
D03*
X86000Y49500D02*
D03*
G54D72*
X106000Y76000D02*
D03*
X125685D02*
D03*
G54D85*
X59000Y193000D02*
D03*
X69000D02*
D03*
X79000D02*
D03*
X49000D02*
D03*
X39000D02*
D03*
X29000D02*
D03*
X89000Y279102D02*
D03*
X79000D02*
D03*
X69000D02*
D03*
X59000D02*
D03*
X49000D02*
D03*
X39000D02*
D03*
G54D86*
X108815Y141579D02*
D03*
X118815D02*
D03*
X119815Y185579D02*
D03*
X109815D02*
D03*
G54D87*
X499500Y25000D02*
D03*
X490315Y256000D02*
D03*
G54D88*
X479815Y25000D02*
D03*
X510000Y256000D02*
D03*
G54D89*
X177000Y257784D02*
D03*
X202591D02*
D03*
Y275500D02*
D03*
G54D90*
X12000Y119000D02*
D03*
X39000Y165000D02*
D03*
X82525Y131579D02*
D03*
X142953Y185445D02*
D03*
X199000Y193000D02*
D03*
X230000Y206500D02*
D03*
X334500Y221000D02*
D03*
X370000Y240000D02*
D03*
X385500Y161000D02*
D03*
X110000Y243500D02*
D03*
Y228500D02*
D03*
X124693Y221193D02*
D03*
X126500Y36000D02*
D03*
X91500Y14500D02*
D03*
G54D91*
X131500Y263500D02*
D03*
X373500Y269000D02*
D03*
G54D92*
X145280Y263500D02*
D03*
X387280Y269000D02*
D03*
G54D93*
X195267Y47396D02*
D03*
Y136372D02*
D03*
X362590Y107238D02*
D03*
G54D94*
X362590Y76530D02*
D03*
G54D95*
X465122Y124516D02*
D03*
X533622D02*
D03*
G54D96*
X441500Y132390D02*
D03*
X510000D02*
D03*
G54D97*
X417878Y76484D02*
D03*
X465122D02*
D03*
X486378D02*
D03*
X533622D02*
D03*
X486378Y124516D02*
D03*
X417878D02*
D03*
G54D98*
X335500Y198500D02*
D03*
X345500D02*
D03*
X355500D02*
D03*
Y168500D02*
D03*
X345500D02*
D03*
G54D99*
X335500Y168500D02*
D03*
G54D100*
X24500Y59000D02*
D03*
Y69000D02*
D03*
X54500D02*
D03*
Y59000D02*
D03*
Y79000D02*
D03*
Y89000D02*
D03*
Y99000D02*
D03*
Y109000D02*
D03*
Y119000D02*
D03*
Y129000D02*
D03*
X24500Y119000D02*
D03*
Y109000D02*
D03*
Y99000D02*
D03*
Y89000D02*
D03*
Y79000D02*
D03*
G54D101*
X24500Y129000D02*
D03*
G54D102*
X36421Y24000D02*
D03*
G54D103*
X31500Y24000D02*
D03*
G54D104*
X94984Y149079D02*
D03*
X99315D02*
D03*
G54D105*
X145000Y47000D02*
D03*
X152500D02*
D03*
X160177Y46866D02*
D03*
X167677D02*
D03*
X175177D02*
D03*
X175354Y135709D02*
D03*
X167854D02*
D03*
X160354D02*
D03*
X153000Y135500D02*
D03*
X145500D02*
D03*
G54D140*
X317000Y76500D02*
D03*
Y137500D02*
D03*
G54D141*
X365000Y210000D02*
D03*
X375000D02*
D03*
X385000D02*
D03*
M02*
