G04*
G04 #@! TF.GenerationSoftware,Altium Limited,Altium Designer,24.5.2 (23)*
G04*
G04 Layer_Physical_Order=4*
G04 Layer_Color=16711680*
%FSLAX25Y25*%
%MOIN*%
G70*
G04*
G04 #@! TF.SameCoordinates,0F2894EB-3285-49A2-9E44-C4C41DE54E67*
G04*
G04*
G04 #@! TF.FilePolarity,Positive*
G04*
G01*
G75*
%ADD10C,0.00787*%
%ADD16C,0.01181*%
%ADD21C,0.01968*%
%ADD30R,0.04528X0.05906*%
%ADD36R,0.05906X0.04528*%
%ADD48O,0.05200X0.07087*%
%ADD49R,0.05200X0.07087*%
%ADD54R,0.05900X0.05900*%
%ADD59R,0.06181X0.06181*%
%ADD60C,0.06181*%
%ADD68C,0.05800*%
%ADD69R,0.05000X0.05000*%
%ADD70C,0.05000*%
%ADD74C,0.05400*%
%ADD78C,0.03937*%
%ADD79C,0.02362*%
%ADD80C,0.07874*%
%ADD81C,0.01575*%
%ADD86R,0.15000X0.10500*%
%ADD87R,0.07087X0.04449*%
%ADD88O,0.07087X0.04449*%
%ADD89C,0.07480*%
%ADD90O,0.05906X0.07874*%
%ADD91C,0.08268*%
%ADD92R,0.08268X0.08268*%
%ADD93C,0.05900*%
%ADD94C,0.07874*%
%ADD95R,0.07087X0.09843*%
%ADD96O,0.07087X0.09843*%
%ADD97C,0.07677*%
%ADD98R,0.07677X0.07677*%
%ADD99R,0.07795X0.07795*%
%ADD100C,0.07618*%
%ADD101C,0.07795*%
%ADD102C,0.05512*%
%ADD103R,0.05512X0.05512*%
%ADD104R,0.03347X0.03347*%
%ADD105C,0.03347*%
%ADD106C,0.01968*%
%ADD107C,0.06000*%
%ADD108C,0.02362*%
%ADD142R,0.13400X0.17700*%
%ADD143O,0.05900X0.07874*%
G36*
X414500Y156500D02*
X415500Y155500D01*
X406000Y146000D01*
X392000D01*
X357000Y181000D01*
Y181500D01*
X308500D01*
X304500Y177500D01*
X261500D01*
Y173000D01*
X277500Y157000D01*
Y2780D01*
X2780D01*
X2780Y305220D01*
X234500D01*
Y281500D01*
X242647D01*
X242708Y281193D01*
X242882Y280932D01*
X243143Y280758D01*
X243450Y280697D01*
X314350D01*
X314657Y280758D01*
X314918Y280932D01*
X315092Y281193D01*
X315153Y281500D01*
X323000D01*
Y305220D01*
X414500D01*
Y156500D01*
D02*
G37*
%LPC*%
G36*
X203776Y278651D02*
Y276685D01*
X205741D01*
X205712Y276793D01*
X205271Y277557D01*
X204647Y278181D01*
X203884Y278622D01*
X203776Y278651D01*
D02*
G37*
G36*
X201406D02*
X201297Y278622D01*
X200534Y278181D01*
X199910Y277557D01*
X199469Y276793D01*
X199440Y276685D01*
X201406D01*
Y278651D01*
D02*
G37*
G36*
X180350Y278850D02*
X178185D01*
Y276685D01*
X180350D01*
Y278850D01*
D02*
G37*
G36*
X175815D02*
X173650D01*
Y276685D01*
X175815D01*
Y278850D01*
D02*
G37*
G36*
X89596Y283630D02*
X88404D01*
X87252Y283321D01*
X86220Y282725D01*
X85377Y281882D01*
X84781Y280850D01*
X84472Y279698D01*
Y278506D01*
X84781Y277355D01*
X85377Y276322D01*
X86220Y275479D01*
X87252Y274883D01*
X88404Y274575D01*
X89596D01*
X90748Y274883D01*
X91780Y275479D01*
X92623Y276322D01*
X93219Y277355D01*
X93528Y278506D01*
Y279698D01*
X93219Y280850D01*
X92623Y281882D01*
X91780Y282725D01*
X90748Y283321D01*
X89596Y283630D01*
D02*
G37*
G36*
X79596D02*
X78404D01*
X77252Y283321D01*
X76220Y282725D01*
X75377Y281882D01*
X74781Y280850D01*
X74472Y279698D01*
Y278506D01*
X74781Y277355D01*
X75377Y276322D01*
X76220Y275479D01*
X77252Y274883D01*
X78404Y274575D01*
X79596D01*
X80748Y274883D01*
X81780Y275479D01*
X82623Y276322D01*
X83219Y277355D01*
X83527Y278506D01*
Y279698D01*
X83219Y280850D01*
X82623Y281882D01*
X81780Y282725D01*
X80748Y283321D01*
X79596Y283630D01*
D02*
G37*
G36*
X69596D02*
X68404D01*
X67252Y283321D01*
X66220Y282725D01*
X65377Y281882D01*
X64781Y280850D01*
X64472Y279698D01*
Y278506D01*
X64781Y277355D01*
X65377Y276322D01*
X66220Y275479D01*
X67252Y274883D01*
X68404Y274575D01*
X69596D01*
X70748Y274883D01*
X71780Y275479D01*
X72623Y276322D01*
X73219Y277355D01*
X73527Y278506D01*
Y279698D01*
X73219Y280850D01*
X72623Y281882D01*
X71780Y282725D01*
X70748Y283321D01*
X69596Y283630D01*
D02*
G37*
G36*
X59596D02*
X58404D01*
X57252Y283321D01*
X56220Y282725D01*
X55377Y281882D01*
X54781Y280850D01*
X54472Y279698D01*
Y278506D01*
X54781Y277355D01*
X55377Y276322D01*
X56220Y275479D01*
X57252Y274883D01*
X58404Y274575D01*
X59596D01*
X60748Y274883D01*
X61780Y275479D01*
X62623Y276322D01*
X63219Y277355D01*
X63528Y278506D01*
Y279698D01*
X63219Y280850D01*
X62623Y281882D01*
X61780Y282725D01*
X60748Y283321D01*
X59596Y283630D01*
D02*
G37*
G36*
X49596D02*
X48404D01*
X47252Y283321D01*
X46220Y282725D01*
X45377Y281882D01*
X44781Y280850D01*
X44472Y279698D01*
Y278506D01*
X44781Y277355D01*
X45377Y276322D01*
X46220Y275479D01*
X47252Y274883D01*
X48404Y274575D01*
X49596D01*
X50748Y274883D01*
X51780Y275479D01*
X52623Y276322D01*
X53219Y277355D01*
X53527Y278506D01*
Y279698D01*
X53219Y280850D01*
X52623Y281882D01*
X51780Y282725D01*
X50748Y283321D01*
X49596Y283630D01*
D02*
G37*
G36*
X39596D02*
X38404D01*
X37252Y283321D01*
X36220Y282725D01*
X35377Y281882D01*
X34781Y280850D01*
X34472Y279698D01*
Y278506D01*
X34781Y277355D01*
X35377Y276322D01*
X36220Y275479D01*
X37252Y274883D01*
X38404Y274575D01*
X39596D01*
X40748Y274883D01*
X41780Y275479D01*
X42623Y276322D01*
X43219Y277355D01*
X43527Y278506D01*
Y279698D01*
X43219Y280850D01*
X42623Y281882D01*
X41780Y282725D01*
X40748Y283321D01*
X39596Y283630D01*
D02*
G37*
G36*
X205741Y274315D02*
X203776D01*
Y272349D01*
X203884Y272378D01*
X204647Y272819D01*
X205271Y273443D01*
X205712Y274207D01*
X205741Y274315D01*
D02*
G37*
G36*
X201406D02*
X199440D01*
X199469Y274207D01*
X199910Y273443D01*
X200534Y272819D01*
X201297Y272378D01*
X201406Y272349D01*
Y274315D01*
D02*
G37*
G36*
X180350D02*
X178185D01*
Y272150D01*
X180350D01*
Y274315D01*
D02*
G37*
G36*
X175815D02*
X173650D01*
Y272150D01*
X175815D01*
Y274315D01*
D02*
G37*
G36*
X377831Y274709D02*
X369169D01*
Y263291D01*
X377831D01*
Y274709D01*
D02*
G37*
G36*
X387280Y274746D02*
X386149Y274597D01*
X385096Y274161D01*
X384191Y273467D01*
X383497Y272562D01*
X383060Y271509D01*
X382911Y270378D01*
Y267622D01*
X383060Y266492D01*
X383497Y265438D01*
X384191Y264533D01*
X385096Y263839D01*
X386149Y263403D01*
X387280Y263254D01*
X388410Y263403D01*
X389463Y263839D01*
X390368Y264533D01*
X391062Y265438D01*
X391499Y266492D01*
X391648Y267622D01*
Y270378D01*
X391499Y271509D01*
X391062Y272562D01*
X390368Y273467D01*
X389463Y274161D01*
X388410Y274597D01*
X387280Y274746D01*
D02*
G37*
G36*
X322892Y263469D02*
X322108D01*
X321385Y263169D01*
X320831Y262615D01*
X320532Y261892D01*
Y261108D01*
X320831Y260385D01*
X321385Y259831D01*
X322108Y259531D01*
X322892D01*
X323283Y259694D01*
X364752D01*
X365739Y258706D01*
X365573Y258306D01*
X323283D01*
X322892Y258469D01*
X322108D01*
X321385Y258169D01*
X320831Y257615D01*
X320532Y256892D01*
Y256108D01*
X320831Y255385D01*
X321385Y254831D01*
X322108Y254532D01*
X322892D01*
X323283Y254694D01*
X365114D01*
X385085Y234723D01*
X385671Y234331D01*
X386362Y234194D01*
X401065D01*
X401397Y233619D01*
X402119Y232897D01*
X403003Y232386D01*
X403989Y232122D01*
X405011D01*
X405997Y232386D01*
X406881Y232897D01*
X407603Y233619D01*
X408114Y234503D01*
X408378Y235490D01*
Y236510D01*
X408114Y237497D01*
X407603Y238381D01*
X406881Y239103D01*
X405997Y239614D01*
X405011Y239878D01*
X403989D01*
X403003Y239614D01*
X402119Y239103D01*
X401397Y238381D01*
X401065Y237806D01*
X387110D01*
X381123Y243794D01*
X381289Y244194D01*
X401065D01*
X401397Y243619D01*
X402119Y242897D01*
X403003Y242386D01*
X403989Y242122D01*
X405011D01*
X405997Y242386D01*
X406881Y242897D01*
X407603Y243619D01*
X408114Y244503D01*
X408378Y245490D01*
Y246511D01*
X408114Y247497D01*
X407603Y248381D01*
X406881Y249103D01*
X405997Y249614D01*
X405011Y249878D01*
X403989D01*
X403003Y249614D01*
X402119Y249103D01*
X401397Y248381D01*
X401065Y247806D01*
X381748D01*
X366777Y262777D01*
X366191Y263169D01*
X365500Y263306D01*
X323283D01*
X322892Y263469D01*
D02*
G37*
G36*
X135831Y269209D02*
X127169D01*
Y257791D01*
X135831D01*
Y269209D01*
D02*
G37*
G36*
X145280Y269246D02*
X144149Y269097D01*
X143096Y268661D01*
X142191Y267967D01*
X141497Y267062D01*
X141060Y266008D01*
X140911Y264878D01*
Y262122D01*
X141060Y260992D01*
X141497Y259938D01*
X142191Y259033D01*
X143096Y258339D01*
X144149Y257903D01*
X145280Y257754D01*
X146410Y257903D01*
X147464Y258339D01*
X148368Y259033D01*
X149062Y259938D01*
X149499Y260992D01*
X149648Y262122D01*
Y264878D01*
X149499Y266008D01*
X149062Y267062D01*
X148368Y267967D01*
X147464Y268661D01*
X146410Y269097D01*
X145280Y269246D01*
D02*
G37*
G36*
X203083Y261521D02*
X202098D01*
X201148Y261266D01*
X200296Y260774D01*
X199600Y260078D01*
X199108Y259226D01*
X198853Y258276D01*
Y257291D01*
X199108Y256341D01*
X199600Y255489D01*
X199814Y255275D01*
X199661Y254905D01*
X179930D01*
X179777Y255275D01*
X179991Y255489D01*
X180483Y256341D01*
X180737Y257291D01*
Y258276D01*
X180483Y259226D01*
X179991Y260078D01*
X179295Y260774D01*
X178443Y261266D01*
X177492Y261521D01*
X176508D01*
X175557Y261266D01*
X174705Y260774D01*
X174009Y260078D01*
X173517Y259226D01*
X173263Y258276D01*
Y257291D01*
X173517Y256341D01*
X174009Y255489D01*
X174223Y255275D01*
X174070Y254905D01*
X120000D01*
X119462Y254798D01*
X119007Y254493D01*
X112199Y247686D01*
X111824Y247902D01*
X110622Y248224D01*
X109378D01*
X108176Y247902D01*
X107099Y247281D01*
X106219Y246401D01*
X105597Y245324D01*
X105276Y244122D01*
Y242878D01*
X105597Y241676D01*
X106219Y240599D01*
X107099Y239720D01*
X108176Y239098D01*
X109378Y238776D01*
X110622D01*
X111824Y239098D01*
X112901Y239720D01*
X113780Y240599D01*
X114402Y241676D01*
X114724Y242878D01*
Y244122D01*
X114402Y245324D01*
X114186Y245699D01*
X120582Y252095D01*
X131156D01*
X131277Y251695D01*
X131069Y251556D01*
X112199Y232686D01*
X111824Y232902D01*
X110622Y233224D01*
X109378D01*
X108176Y232902D01*
X107099Y232280D01*
X106219Y231401D01*
X105597Y230324D01*
X105276Y229122D01*
Y227878D01*
X105597Y226676D01*
X106219Y225599D01*
X107099Y224720D01*
X108176Y224098D01*
X109378Y223776D01*
X110622D01*
X111824Y224098D01*
X112901Y224720D01*
X113780Y225599D01*
X114402Y226676D01*
X114724Y227878D01*
Y229122D01*
X114402Y230324D01*
X114186Y230699D01*
X132644Y249157D01*
X162421D01*
X162643Y248825D01*
X162531Y248556D01*
Y247772D01*
X162831Y247049D01*
X163385Y246495D01*
X164108Y246196D01*
X164892D01*
X165283Y246358D01*
X182588D01*
X186223Y242723D01*
X186809Y242331D01*
X187500Y242194D01*
X201704D01*
X228194Y215704D01*
Y210907D01*
X228176Y210902D01*
X227099Y210280D01*
X226220Y209401D01*
X225598Y208324D01*
X225276Y207122D01*
Y205878D01*
X225598Y204676D01*
X226220Y203599D01*
X227099Y202719D01*
X227322Y202591D01*
X227219Y202204D01*
X67000D01*
X67000Y202204D01*
X66539Y202113D01*
X66149Y201852D01*
X61235Y196938D01*
X60748Y197219D01*
X59596Y197528D01*
X58404D01*
X57252Y197219D01*
X56220Y196623D01*
X55377Y195780D01*
X54781Y194748D01*
X54472Y193596D01*
Y192404D01*
X54781Y191252D01*
X55377Y190220D01*
X56220Y189377D01*
X57252Y188781D01*
X58404Y188472D01*
X59596D01*
X60748Y188781D01*
X61780Y189377D01*
X62623Y190220D01*
X63219Y191252D01*
X63528Y192404D01*
Y193596D01*
X63219Y194748D01*
X62938Y195235D01*
X67499Y199796D01*
X73570D01*
X73723Y199426D01*
X71235Y196938D01*
X70748Y197219D01*
X69596Y197528D01*
X68404D01*
X67252Y197219D01*
X66220Y196623D01*
X65377Y195780D01*
X64781Y194748D01*
X64472Y193596D01*
Y192404D01*
X64781Y191252D01*
X65377Y190220D01*
X66220Y189377D01*
X67252Y188781D01*
X68404Y188472D01*
X69596D01*
X70748Y188781D01*
X71780Y189377D01*
X72623Y190220D01*
X73219Y191252D01*
X73527Y192404D01*
Y193596D01*
X73219Y194748D01*
X72938Y195235D01*
X75499Y197796D01*
X197099Y197796D01*
X197176Y197402D01*
X196099Y196781D01*
X195220Y195901D01*
X194597Y194824D01*
X194276Y193622D01*
Y192378D01*
X194597Y191176D01*
X195220Y190099D01*
X196099Y189219D01*
X197176Y188598D01*
X198378Y188276D01*
X199622D01*
X200824Y188598D01*
X201901Y189219D01*
X202781Y190099D01*
X203402Y191176D01*
X203724Y192378D01*
Y193622D01*
X203402Y194824D01*
X202781Y195901D01*
X201901Y196781D01*
X200824Y197402D01*
X200901Y197796D01*
X282180Y197796D01*
X282180Y197796D01*
X282641Y197887D01*
X283032Y198149D01*
X304325Y219442D01*
X304982D01*
X305705Y219741D01*
X306259Y220295D01*
X306558Y221018D01*
Y221802D01*
X306259Y222525D01*
X305705Y223079D01*
X304982Y223378D01*
X304198D01*
X303565Y223116D01*
X303338Y223455D01*
X304325Y224442D01*
X304982D01*
X305705Y224741D01*
X306259Y225295D01*
X306558Y226018D01*
Y226802D01*
X306259Y227525D01*
X305705Y228079D01*
X304982Y228379D01*
X304198D01*
X303475Y228079D01*
X302921Y227525D01*
X302622Y226802D01*
Y226145D01*
X278681Y202204D01*
X232781D01*
X232678Y202591D01*
X232901Y202719D01*
X233781Y203599D01*
X234402Y204676D01*
X234724Y205878D01*
Y207122D01*
X234402Y208324D01*
X233781Y209401D01*
X232901Y210280D01*
X231823Y210902D01*
X231806Y210907D01*
Y216452D01*
X231669Y217144D01*
X231277Y217730D01*
X203873Y245134D01*
X203777Y245277D01*
X203191Y245669D01*
X202500Y245806D01*
X188248D01*
X185267Y248788D01*
X185420Y249157D01*
X202356D01*
X221096Y230417D01*
X221552Y230112D01*
X222090Y230005D01*
X226031D01*
X226295Y229741D01*
X227018Y229441D01*
X227801D01*
X228525Y229741D01*
X229079Y230295D01*
X229379Y231018D01*
Y231802D01*
X229079Y232525D01*
X228525Y233079D01*
X227801Y233379D01*
X227018D01*
X226295Y233079D01*
X226031Y232815D01*
X222672D01*
X203931Y251556D01*
X203723Y251695D01*
X203844Y252095D01*
X207238D01*
X222941Y236392D01*
Y236018D01*
X223241Y235295D01*
X223795Y234741D01*
X224518Y234441D01*
X225302D01*
X226025Y234741D01*
X226579Y235295D01*
X226878Y236018D01*
Y236802D01*
X226579Y237525D01*
X226025Y238079D01*
X225302Y238379D01*
X224928D01*
X208813Y254493D01*
X208358Y254798D01*
X207820Y254905D01*
X205520D01*
X205367Y255275D01*
X205581Y255489D01*
X206073Y256341D01*
X206328Y257291D01*
Y258276D01*
X206073Y259226D01*
X205581Y260078D01*
X204885Y260774D01*
X204033Y261266D01*
X203083Y261521D01*
D02*
G37*
G36*
X408378Y259878D02*
X400622D01*
Y252122D01*
X408378D01*
Y259878D01*
D02*
G37*
G36*
X231132Y255709D02*
X230349D01*
X229625Y255409D01*
X229071Y254855D01*
X228772Y254132D01*
Y253349D01*
X229071Y252625D01*
X229625Y252071D01*
X230349Y251772D01*
X231132D01*
X231855Y252071D01*
X232409Y252625D01*
X232709Y253349D01*
Y254132D01*
X232409Y254855D01*
X231855Y255409D01*
X231132Y255709D01*
D02*
G37*
G36*
X338391Y252468D02*
X337608D01*
X336885Y252168D01*
X336331Y251615D01*
X336031Y250891D01*
Y250108D01*
X336331Y249385D01*
X336885Y248831D01*
X337608Y248531D01*
X338391D01*
X339115Y248831D01*
X339668Y249385D01*
X339968Y250108D01*
Y250891D01*
X339668Y251615D01*
X339115Y252168D01*
X338391Y252468D01*
D02*
G37*
G36*
X362891D02*
X362108D01*
X361385Y252168D01*
X360831Y251615D01*
X360669Y251223D01*
X352684Y243239D01*
X323216D01*
X322824Y243401D01*
X322041D01*
X321317Y243101D01*
X320764Y242548D01*
X320464Y241824D01*
Y241041D01*
X320764Y240317D01*
X321317Y239764D01*
X322041Y239464D01*
X322824D01*
X323216Y239626D01*
X353432D01*
X354124Y239764D01*
X354710Y240155D01*
X363223Y248669D01*
X363615Y248831D01*
X364169Y249385D01*
X364468Y250108D01*
Y250891D01*
X364169Y251615D01*
X363615Y252168D01*
X362891Y252468D01*
D02*
G37*
G36*
X370622Y244725D02*
X369378D01*
X368177Y244403D01*
X367099Y243781D01*
X366220Y242901D01*
X365598Y241824D01*
X365593Y241807D01*
X358500D01*
X357809Y241669D01*
X357223Y241278D01*
X354184Y238239D01*
X323216D01*
X322824Y238401D01*
X322041D01*
X321317Y238101D01*
X320764Y237548D01*
X320464Y236824D01*
Y236041D01*
X320764Y235317D01*
X320905Y235176D01*
X320752Y234806D01*
X246500D01*
X245809Y234669D01*
X245223Y234277D01*
X234276Y223331D01*
X233885Y223169D01*
X233331Y222615D01*
X233032Y221892D01*
Y221108D01*
X233331Y220385D01*
X233885Y219831D01*
X234608Y219531D01*
X235392D01*
X236115Y219831D01*
X236669Y220385D01*
X236831Y220776D01*
X247248Y231194D01*
X335252D01*
X357723Y208723D01*
X358309Y208331D01*
X359000Y208194D01*
X361338D01*
X361359Y208037D01*
X361735Y207128D01*
X362334Y206347D01*
X362546Y206185D01*
X362417Y205806D01*
X331748D01*
X325331Y212224D01*
X325169Y212615D01*
X324615Y213169D01*
X323892Y213469D01*
X323108D01*
X322385Y213169D01*
X321831Y212615D01*
X321532Y211892D01*
Y211108D01*
X321831Y210385D01*
X322385Y209831D01*
X322776Y209669D01*
X329723Y202723D01*
X330309Y202331D01*
X331000Y202194D01*
X334049D01*
X334132Y201802D01*
X333324Y201335D01*
X332665Y200676D01*
X332198Y199868D01*
X331957Y198967D01*
Y198033D01*
X332198Y197132D01*
X332665Y196324D01*
X333324Y195665D01*
X334132Y195198D01*
X335033Y194957D01*
X335966D01*
X336868Y195198D01*
X337676Y195665D01*
X338335Y196324D01*
X338802Y197132D01*
X339043Y198033D01*
Y198967D01*
X338802Y199868D01*
X338335Y200676D01*
X337676Y201335D01*
X336868Y201802D01*
X336951Y202194D01*
X344049D01*
X344132Y201802D01*
X343324Y201335D01*
X342665Y200676D01*
X342198Y199868D01*
X341957Y198967D01*
Y198033D01*
X342198Y197132D01*
X342665Y196324D01*
X343324Y195665D01*
X344132Y195198D01*
X345034Y194957D01*
X345967D01*
X346868Y195198D01*
X347676Y195665D01*
X348335Y196324D01*
X348802Y197132D01*
X349043Y198033D01*
Y198967D01*
X348802Y199868D01*
X348335Y200676D01*
X347676Y201335D01*
X346868Y201802D01*
X346951Y202194D01*
X379000D01*
X379691Y202331D01*
X380277Y202723D01*
X383248Y205693D01*
X384024Y205372D01*
X385000Y205243D01*
X385976Y205372D01*
X386885Y205748D01*
X387666Y206347D01*
X388265Y207128D01*
X388641Y208037D01*
X388770Y209013D01*
Y210987D01*
X388641Y211963D01*
X388265Y212872D01*
X387666Y213653D01*
X386885Y214252D01*
X385976Y214628D01*
X385000Y214757D01*
X384024Y214628D01*
X383115Y214252D01*
X382334Y213653D01*
X381735Y212872D01*
X381359Y211963D01*
X381230Y210987D01*
Y209013D01*
X381257Y208811D01*
X378252Y205806D01*
X376981D01*
X376845Y206206D01*
X377389Y206624D01*
X377926Y207324D01*
X378264Y208138D01*
X378353Y208815D01*
X375000D01*
X371647D01*
X371736Y208138D01*
X372074Y207324D01*
X372611Y206624D01*
X373155Y206206D01*
X373019Y205806D01*
X367583D01*
X367454Y206185D01*
X367666Y206347D01*
X368265Y207128D01*
X368641Y208037D01*
X368770Y209013D01*
Y210987D01*
X368641Y211963D01*
X368265Y212872D01*
X367666Y213653D01*
X366885Y214252D01*
X365976Y214628D01*
X365000Y214757D01*
X364024Y214628D01*
X363115Y214252D01*
X362334Y213653D01*
X361735Y212872D01*
X361359Y211963D01*
X361338Y211806D01*
X359748D01*
X337328Y234226D01*
X337401Y234626D01*
X354932D01*
X355624Y234764D01*
X356210Y235155D01*
X359248Y238194D01*
X365593D01*
X365598Y238177D01*
X366220Y237100D01*
X367099Y236220D01*
X368177Y235598D01*
X369378Y235276D01*
X370622D01*
X371824Y235598D01*
X372901Y236220D01*
X373781Y237100D01*
X374403Y238177D01*
X374725Y239378D01*
Y240622D01*
X374403Y241824D01*
X373781Y242901D01*
X372901Y243781D01*
X371824Y244403D01*
X370622Y244725D01*
D02*
G37*
G36*
X194514Y240133D02*
X193731D01*
X193008Y239833D01*
X192454Y239280D01*
X192154Y238556D01*
Y237773D01*
X192454Y237050D01*
X193008Y236496D01*
X193731Y236196D01*
X194514D01*
X195238Y236496D01*
X195791Y237050D01*
X196091Y237773D01*
Y238556D01*
X195791Y239280D01*
X195238Y239833D01*
X194514Y240133D01*
D02*
G37*
G36*
X144392Y236968D02*
X143608D01*
X142885Y236669D01*
X142331Y236115D01*
X142032Y235392D01*
Y234608D01*
X142331Y233885D01*
X142885Y233331D01*
X143608Y233032D01*
X144392D01*
X145115Y233331D01*
X145669Y233885D01*
X145968Y234608D01*
Y235392D01*
X145669Y236115D01*
X145115Y236669D01*
X144392Y236968D01*
D02*
G37*
G36*
X405685Y229296D02*
Y227185D01*
X407796D01*
X407753Y227347D01*
X407293Y228143D01*
X406643Y228793D01*
X405847Y229253D01*
X405685Y229296D01*
D02*
G37*
G36*
X403315D02*
X403153Y229253D01*
X402357Y228793D01*
X401707Y228143D01*
X401247Y227347D01*
X401204Y227185D01*
X403315D01*
Y229296D01*
D02*
G37*
G36*
X194514Y230319D02*
X193731D01*
X193008Y230019D01*
X192454Y229465D01*
X192154Y228742D01*
Y227959D01*
X192454Y227235D01*
X193008Y226681D01*
X193731Y226382D01*
X194514D01*
X195238Y226681D01*
X195791Y227235D01*
X196091Y227959D01*
Y228742D01*
X195791Y229465D01*
X195238Y230019D01*
X194514Y230319D01*
D02*
G37*
G36*
X181392Y223468D02*
X180608D01*
X179885Y223169D01*
X179500Y222784D01*
X179115Y223169D01*
X178392Y223468D01*
X177608D01*
X176885Y223169D01*
X176331Y222615D01*
X176031Y221892D01*
Y221108D01*
X176331Y220385D01*
X176885Y219831D01*
X177608Y219531D01*
X178392D01*
X179115Y219831D01*
X179500Y220216D01*
X179885Y219831D01*
X180608Y219531D01*
X181392D01*
X182115Y219831D01*
X182669Y220385D01*
X182968Y221108D01*
Y221892D01*
X182669Y222615D01*
X182115Y223169D01*
X181392Y223468D01*
D02*
G37*
G36*
X407796Y224815D02*
X405685D01*
Y222704D01*
X405847Y222747D01*
X406643Y223207D01*
X407293Y223857D01*
X407753Y224653D01*
X407796Y224815D01*
D02*
G37*
G36*
X403315D02*
X401204D01*
X401247Y224653D01*
X401707Y223857D01*
X402357Y223207D01*
X403153Y222747D01*
X403315Y222704D01*
Y224815D01*
D02*
G37*
G36*
X361526Y222969D02*
X360743D01*
X360019Y222669D01*
X359466Y222115D01*
X359166Y221392D01*
Y220608D01*
X359466Y219885D01*
X360019Y219331D01*
X360743Y219032D01*
X361526D01*
X362250Y219331D01*
X362803Y219885D01*
X363103Y220608D01*
Y221392D01*
X362803Y222115D01*
X362250Y222669D01*
X361526Y222969D01*
D02*
G37*
G36*
X181392Y218969D02*
X180608D01*
X179885Y218669D01*
X179500Y218284D01*
X179115Y218669D01*
X178392Y218969D01*
X177608D01*
X176885Y218669D01*
X176331Y218115D01*
X176031Y217392D01*
Y216608D01*
X176331Y215885D01*
X176885Y215331D01*
X177608Y215032D01*
X178392D01*
X179115Y215331D01*
X179500Y215716D01*
X179885Y215331D01*
X180608Y215032D01*
X181392D01*
X182115Y215331D01*
X182669Y215885D01*
X182968Y216608D01*
Y217392D01*
X182669Y218115D01*
X182115Y218669D01*
X181392Y218969D01*
D02*
G37*
G36*
X194496Y220452D02*
X193713D01*
X192990Y220153D01*
X192436Y219599D01*
X192136Y218875D01*
Y218092D01*
X192436Y217369D01*
X192990Y216815D01*
X193713Y216515D01*
X194496D01*
X195220Y216815D01*
X195774Y217369D01*
X196073Y218092D01*
Y218875D01*
X195774Y219599D01*
X195220Y220153D01*
X194496Y220452D01*
D02*
G37*
G36*
X125315Y225917D02*
X124071D01*
X122869Y225595D01*
X121792Y224973D01*
X120912Y224094D01*
X120290Y223016D01*
X119968Y221815D01*
Y220571D01*
X120290Y219369D01*
X120912Y218292D01*
X121792Y217412D01*
X122869Y216790D01*
X124071Y216469D01*
X125315D01*
X126516Y216790D01*
X127594Y217412D01*
X128473Y218292D01*
X129095Y219369D01*
X129417Y220571D01*
Y221815D01*
X129095Y223016D01*
X128473Y224094D01*
X127594Y224973D01*
X126516Y225595D01*
X125315Y225917D01*
D02*
G37*
G36*
X335122Y225724D02*
X333878D01*
X332676Y225402D01*
X331599Y224781D01*
X330719Y223901D01*
X330098Y222824D01*
X329776Y221622D01*
Y220378D01*
X330098Y219176D01*
X330719Y218099D01*
X331599Y217219D01*
X332676Y216598D01*
X333878Y216276D01*
X335122D01*
X336323Y216598D01*
X337401Y217219D01*
X338281Y218099D01*
X338902Y219176D01*
X339224Y220378D01*
Y221622D01*
X338902Y222824D01*
X338281Y223901D01*
X337401Y224781D01*
X336323Y225402D01*
X335122Y225724D01*
D02*
G37*
G36*
X181392Y214469D02*
X180608D01*
X179885Y214169D01*
X179500Y213784D01*
X179115Y214169D01*
X178392Y214469D01*
X177608D01*
X176885Y214169D01*
X176331Y213615D01*
X176031Y212892D01*
Y212108D01*
X176331Y211385D01*
X176885Y210831D01*
X177608Y210531D01*
X178392D01*
X179115Y210831D01*
X179500Y211216D01*
X179885Y210831D01*
X180608Y210531D01*
X181392D01*
X182115Y210831D01*
X182669Y211385D01*
X182968Y212108D01*
Y212892D01*
X182669Y213615D01*
X182115Y214169D01*
X181392Y214469D01*
D02*
G37*
G36*
X376185Y214122D02*
Y211185D01*
X378353D01*
X378264Y211861D01*
X377926Y212677D01*
X377389Y213376D01*
X376689Y213913D01*
X376185Y214122D01*
D02*
G37*
G36*
X373815D02*
X373310Y213913D01*
X372611Y213376D01*
X372074Y212677D01*
X371736Y211861D01*
X371647Y211185D01*
X373815D01*
Y214122D01*
D02*
G37*
G36*
X164892Y240139D02*
X164108D01*
X163385Y239839D01*
X162831Y239285D01*
X162531Y238562D01*
Y237779D01*
X162831Y237055D01*
X163385Y236501D01*
X164108Y236202D01*
X164892D01*
X165283Y236364D01*
X179327D01*
X179355Y236358D01*
X182847D01*
X186982Y232223D01*
X187568Y231831D01*
X188260Y231694D01*
X201752D01*
X222669Y210776D01*
X222831Y210385D01*
X223385Y209831D01*
X224108Y209531D01*
X224892D01*
X225615Y209831D01*
X226169Y210385D01*
X226468Y211108D01*
Y211892D01*
X226169Y212615D01*
X225615Y213169D01*
X225224Y213331D01*
X203777Y234777D01*
X203191Y235169D01*
X202500Y235306D01*
X189008D01*
X184872Y239442D01*
X184286Y239833D01*
X183595Y239971D01*
X179377D01*
X179349Y239977D01*
X165283D01*
X164892Y240139D01*
D02*
G37*
G36*
X356685Y201450D02*
Y199685D01*
X358450D01*
X358441Y199718D01*
X358025Y200438D01*
X357438Y201025D01*
X356718Y201441D01*
X356685Y201450D01*
D02*
G37*
G36*
X354315D02*
X354282Y201441D01*
X353562Y201025D01*
X352975Y200438D01*
X352559Y199718D01*
X352550Y199685D01*
X354315D01*
Y201450D01*
D02*
G37*
G36*
X370257Y199969D02*
X369474D01*
X368751Y199669D01*
X368197Y199115D01*
X367897Y198392D01*
Y197609D01*
X368197Y196885D01*
X368751Y196332D01*
X369474Y196032D01*
X370257D01*
X370981Y196332D01*
X371535Y196885D01*
X371834Y197609D01*
Y198392D01*
X371535Y199115D01*
X370981Y199669D01*
X370257Y199969D01*
D02*
G37*
G36*
X358450Y197315D02*
X356685D01*
Y195550D01*
X356718Y195559D01*
X357438Y195975D01*
X358025Y196562D01*
X358441Y197282D01*
X358450Y197315D01*
D02*
G37*
G36*
X354315D02*
X352550D01*
X352559Y197282D01*
X352975Y196562D01*
X353562Y195975D01*
X354282Y195559D01*
X354315Y195550D01*
Y197315D01*
D02*
G37*
G36*
X80185Y196969D02*
Y194185D01*
X82969D01*
X82858Y194598D01*
X82313Y195542D01*
X81542Y196313D01*
X80598Y196858D01*
X80185Y196969D01*
D02*
G37*
G36*
X77815D02*
X77402Y196858D01*
X76458Y196313D01*
X75687Y195542D01*
X75142Y194598D01*
X75031Y194185D01*
X77815D01*
Y196969D01*
D02*
G37*
G36*
X221864Y193709D02*
X221081D01*
X220357Y193409D01*
X219803Y192855D01*
X219504Y192132D01*
Y191348D01*
X219803Y190625D01*
X220357Y190071D01*
X221081Y189771D01*
X221864D01*
X222587Y190071D01*
X223141Y190625D01*
X223441Y191348D01*
Y192132D01*
X223141Y192855D01*
X222587Y193409D01*
X221864Y193709D01*
D02*
G37*
G36*
X82969Y191815D02*
X80185D01*
Y189031D01*
X80598Y189142D01*
X81542Y189687D01*
X82313Y190458D01*
X82858Y191402D01*
X82969Y191815D01*
D02*
G37*
G36*
X77815D02*
X75031D01*
X75142Y191402D01*
X75687Y190458D01*
X76458Y189687D01*
X77402Y189142D01*
X77815Y189031D01*
Y191815D01*
D02*
G37*
G36*
X49596Y197528D02*
X48404D01*
X47252Y197219D01*
X46220Y196623D01*
X45377Y195780D01*
X44781Y194748D01*
X44472Y193596D01*
Y192404D01*
X44781Y191252D01*
X45377Y190220D01*
X46220Y189377D01*
X47252Y188781D01*
X48404Y188472D01*
X49596D01*
X50748Y188781D01*
X51780Y189377D01*
X52623Y190220D01*
X53219Y191252D01*
X53527Y192404D01*
Y193596D01*
X53219Y194748D01*
X52623Y195780D01*
X51780Y196623D01*
X50748Y197219D01*
X49596Y197528D01*
D02*
G37*
G36*
X39596D02*
X38404D01*
X37252Y197219D01*
X36220Y196623D01*
X35377Y195780D01*
X34781Y194748D01*
X34472Y193596D01*
Y192404D01*
X34781Y191252D01*
X35377Y190220D01*
X36220Y189377D01*
X37252Y188781D01*
X38404Y188472D01*
X39596D01*
X40748Y188781D01*
X41780Y189377D01*
X42623Y190220D01*
X43219Y191252D01*
X43527Y192404D01*
Y193596D01*
X43219Y194748D01*
X42623Y195780D01*
X41780Y196623D01*
X40748Y197219D01*
X39596Y197528D01*
D02*
G37*
G36*
X29596D02*
X28404D01*
X27252Y197219D01*
X26220Y196623D01*
X25377Y195780D01*
X24781Y194748D01*
X24472Y193596D01*
Y192404D01*
X24781Y191252D01*
X25377Y190220D01*
X26220Y189377D01*
X27252Y188781D01*
X28404Y188472D01*
X29596D01*
X30748Y188781D01*
X31780Y189377D01*
X32623Y190220D01*
X33219Y191252D01*
X33527Y192404D01*
Y193596D01*
X33219Y194748D01*
X32623Y195780D01*
X31780Y196623D01*
X30748Y197219D01*
X29596Y197528D01*
D02*
G37*
G36*
X109815Y190335D02*
X108839Y190207D01*
X107929Y189830D01*
X107147Y189231D01*
X106548Y188449D01*
X106171Y187539D01*
X106043Y186563D01*
Y184595D01*
X106171Y183618D01*
X106548Y182708D01*
X107147Y181927D01*
X107929Y181327D01*
X108839Y180951D01*
X109815Y180822D01*
X110791Y180951D01*
X111701Y181327D01*
X112482Y181927D01*
X113082Y182708D01*
X113459Y183618D01*
X113587Y184595D01*
Y186563D01*
X113459Y187539D01*
X113082Y188449D01*
X112482Y189231D01*
X111701Y189830D01*
X110791Y190207D01*
X109815Y190335D01*
D02*
G37*
G36*
X143575Y190170D02*
X142331D01*
X141129Y189848D01*
X140052Y189226D01*
X139172Y188346D01*
X138550Y187269D01*
X138228Y186067D01*
Y184823D01*
X138550Y183622D01*
X139172Y182545D01*
X140052Y181665D01*
X141129Y181043D01*
X142331Y180721D01*
X143575D01*
X144776Y181043D01*
X145853Y181665D01*
X146733Y182545D01*
X147355Y183622D01*
X147677Y184823D01*
Y186067D01*
X147355Y187269D01*
X146733Y188346D01*
X145853Y189226D01*
X144776Y189848D01*
X143575Y190170D01*
D02*
G37*
G36*
X255955Y180209D02*
X255171D01*
X254448Y179909D01*
X253894Y179355D01*
X253594Y178632D01*
Y177848D01*
X253894Y177125D01*
X254448Y176571D01*
X255171Y176271D01*
X255955D01*
X256678Y176571D01*
X257232Y177125D01*
X257531Y177848D01*
Y178632D01*
X257232Y179355D01*
X256678Y179909D01*
X255955Y180209D01*
D02*
G37*
G36*
X119815Y190335D02*
X118839Y190207D01*
X117929Y189830D01*
X117147Y189231D01*
X116548Y188449D01*
X116171Y187539D01*
X116042Y186563D01*
Y184595D01*
X116171Y183618D01*
X116548Y182708D01*
X117147Y181927D01*
X117929Y181327D01*
X118009Y181294D01*
Y178709D01*
X116075D01*
Y172606D01*
X123555D01*
Y178709D01*
X121621D01*
Y181294D01*
X121701Y181327D01*
X122482Y181927D01*
X123082Y182708D01*
X123459Y183618D01*
X123587Y184595D01*
Y186563D01*
X123459Y187539D01*
X123082Y188449D01*
X122482Y189231D01*
X121701Y189830D01*
X120791Y190207D01*
X119815Y190335D01*
D02*
G37*
G36*
X71189Y171075D02*
X70406D01*
X69682Y170775D01*
X69309Y170401D01*
X69047Y170264D01*
X68786Y170401D01*
X68412Y170775D01*
X67689Y171075D01*
X66906D01*
X66182Y170775D01*
X65689Y170281D01*
X65234Y170736D01*
X64511Y171035D01*
X63728D01*
X63004Y170736D01*
X62635Y170367D01*
X62343Y170241D01*
X62113Y170367D01*
X61717Y170763D01*
X60993Y171063D01*
X60210D01*
X59486Y170763D01*
X59113Y170389D01*
X58851Y170252D01*
X58590Y170389D01*
X58217Y170763D01*
X57493Y171063D01*
X56710D01*
X55986Y170763D01*
X55433Y170209D01*
X55133Y169486D01*
Y168703D01*
X55433Y167979D01*
X55986Y167425D01*
X56710Y167126D01*
X57493D01*
X58217Y167425D01*
X58590Y167799D01*
X58851Y167936D01*
X59113Y167799D01*
X59486Y167425D01*
X60210Y167126D01*
X60993D01*
X61717Y167425D01*
X62085Y167794D01*
X62378Y167920D01*
X62608Y167794D01*
X63004Y167398D01*
X63728Y167098D01*
X64511D01*
X65234Y167398D01*
X65728Y167892D01*
X66182Y167437D01*
X66906Y167138D01*
X67689D01*
X68412Y167437D01*
X68786Y167811D01*
X69047Y167948D01*
X69309Y167811D01*
X69682Y167437D01*
X70406Y167138D01*
X71189D01*
X71912Y167437D01*
X72281Y167806D01*
X72573Y167932D01*
X72804Y167806D01*
X73200Y167410D01*
X73923Y167110D01*
X74707D01*
X75430Y167410D01*
X75804Y167783D01*
X76065Y167921D01*
X76326Y167783D01*
X76700Y167410D01*
X77423Y167110D01*
X78206D01*
X78930Y167410D01*
X79484Y167964D01*
X79783Y168687D01*
Y169470D01*
X79484Y170194D01*
X78930Y170748D01*
X78206Y171047D01*
X77423D01*
X76700Y170748D01*
X76326Y170374D01*
X76065Y170237D01*
X75804Y170374D01*
X75430Y170748D01*
X74707Y171047D01*
X73923D01*
X73200Y170748D01*
X72831Y170379D01*
X72539Y170253D01*
X72308Y170379D01*
X71912Y170775D01*
X71189Y171075D01*
D02*
G37*
G36*
X188124Y175831D02*
X181349D01*
Y167169D01*
X188124D01*
Y175831D01*
D02*
G37*
G36*
X164264Y175860D02*
X163380Y175743D01*
X162555Y175402D01*
X161848Y174859D01*
X161305Y174152D01*
X160964Y173328D01*
X160847Y172443D01*
Y170557D01*
X160964Y169672D01*
X161305Y168848D01*
X161848Y168141D01*
X162555Y167598D01*
X163380Y167256D01*
X164264Y167140D01*
X165148Y167256D01*
X165972Y167598D01*
X166680Y168141D01*
X167223Y168848D01*
X167564Y169672D01*
X167680Y170557D01*
Y172443D01*
X167564Y173328D01*
X167223Y174152D01*
X166680Y174859D01*
X165972Y175402D01*
X165148Y175743D01*
X164264Y175860D01*
D02*
G37*
G36*
X96166Y179145D02*
X95972Y179106D01*
X95774D01*
X95591Y179031D01*
X95398Y178992D01*
X95233Y178882D01*
X95051Y178807D01*
X94911Y178667D01*
X94746Y178557D01*
X94637Y178393D01*
X94497Y178253D01*
X94421Y178070D01*
X94311Y177906D01*
X94273Y177712D01*
X94197Y177529D01*
Y177332D01*
X94159Y177138D01*
Y171747D01*
X92426D01*
Y165645D01*
X99906D01*
Y171747D01*
X98173D01*
Y177138D01*
X98134Y177332D01*
Y177529D01*
X98058Y177712D01*
X98020Y177906D01*
X97910Y178070D01*
X97834Y178253D01*
X97695Y178393D01*
X97585Y178557D01*
X97421Y178667D01*
X97281Y178807D01*
X97098Y178882D01*
X96934Y178992D01*
X96740Y179031D01*
X96557Y179106D01*
X96360D01*
X96166Y179145D01*
D02*
G37*
G36*
X123555Y170441D02*
X116075D01*
Y164339D01*
X123555D01*
Y165583D01*
X127300D01*
X127691Y165421D01*
X128474D01*
X129198Y165721D01*
X129752Y166275D01*
X130051Y166998D01*
Y167781D01*
X129752Y168505D01*
X129198Y169059D01*
X128474Y169358D01*
X127691D01*
X127300Y169196D01*
X123555D01*
Y170441D01*
D02*
G37*
G36*
X39622Y169724D02*
X38378D01*
X37176Y169402D01*
X36099Y168781D01*
X35219Y167901D01*
X34598Y166824D01*
X34276Y165622D01*
Y164378D01*
X34598Y163176D01*
X35219Y162099D01*
X36099Y161220D01*
X37176Y160598D01*
X38378Y160276D01*
X39622D01*
X40824Y160598D01*
X41901Y161220D01*
X42781Y162099D01*
X43402Y163176D01*
X43724Y164378D01*
Y165622D01*
X43402Y166824D01*
X42781Y167901D01*
X41901Y168781D01*
X40824Y169402D01*
X39622Y169724D01*
D02*
G37*
G36*
X411132Y160728D02*
X410349D01*
X409625Y160429D01*
X409071Y159875D01*
X408772Y159151D01*
Y158368D01*
X409071Y157645D01*
X409625Y157091D01*
X410349Y156791D01*
X411132D01*
X411855Y157091D01*
X412409Y157645D01*
X412709Y158368D01*
Y159151D01*
X412409Y159875D01*
X411855Y160429D01*
X411132Y160728D01*
D02*
G37*
G36*
X386122Y165724D02*
X384878D01*
X383676Y165402D01*
X382599Y164780D01*
X381719Y163901D01*
X381098Y162824D01*
X380776Y161622D01*
Y160378D01*
X381098Y159176D01*
X381719Y158099D01*
X382599Y157220D01*
X383676Y156598D01*
X384878Y156276D01*
X386122D01*
X387323Y156598D01*
X388401Y157220D01*
X389281Y158099D01*
X389902Y159176D01*
X390224Y160378D01*
Y161622D01*
X389902Y162824D01*
X389281Y163901D01*
X388401Y164780D01*
X387323Y165402D01*
X386122Y165724D01*
D02*
G37*
G36*
X175853Y139496D02*
X174856D01*
X173892Y139238D01*
X173029Y138739D01*
X172324Y138034D01*
X171825Y137171D01*
X171804Y137093D01*
X171404D01*
X171384Y137171D01*
X170885Y138034D01*
X170180Y138739D01*
X169316Y139238D01*
X168353Y139496D01*
X167356D01*
X166392Y139238D01*
X165529Y138739D01*
X164824Y138034D01*
X164325Y137171D01*
X164304Y137093D01*
X163904D01*
X163884Y137171D01*
X163385Y138034D01*
X162680Y138739D01*
X161816Y139238D01*
X160853Y139496D01*
X159856D01*
X158892Y139238D01*
X158029Y138739D01*
X157324Y138034D01*
X156848Y137210D01*
X156686Y137170D01*
X156410Y137168D01*
X156031Y137826D01*
X155325Y138531D01*
X154462Y139029D01*
X153499Y139287D01*
X152501D01*
X151538Y139029D01*
X150674Y138531D01*
X149969Y137826D01*
X149471Y136962D01*
X149450Y136885D01*
X149050D01*
X149029Y136962D01*
X148531Y137826D01*
X147826Y138531D01*
X146962Y139029D01*
X145999Y139287D01*
X145001D01*
X144038Y139029D01*
X143175Y138531D01*
X142469Y137826D01*
X141971Y136962D01*
X141713Y135999D01*
Y135001D01*
X141971Y134038D01*
X142469Y133175D01*
X143175Y132469D01*
X144038Y131971D01*
X145001Y131713D01*
X145999D01*
X146962Y131971D01*
X147826Y132469D01*
X148531Y133175D01*
X149029Y134038D01*
X149050Y134115D01*
X149450D01*
X149471Y134038D01*
X149969Y133175D01*
X150674Y132469D01*
X151538Y131971D01*
X152501Y131713D01*
X153499D01*
X154462Y131971D01*
X155325Y132469D01*
X156031Y133175D01*
X156506Y133999D01*
X156668Y134039D01*
X156944Y134041D01*
X157324Y133383D01*
X158029Y132678D01*
X158892Y132179D01*
X159856Y131921D01*
X160853D01*
X161816Y132179D01*
X162680Y132678D01*
X163385Y133383D01*
X163884Y134247D01*
X163904Y134324D01*
X164304D01*
X164325Y134247D01*
X164824Y133383D01*
X165529Y132678D01*
X166392Y132179D01*
X167356Y131921D01*
X168353D01*
X169316Y132179D01*
X170180Y132678D01*
X170885Y133383D01*
X171384Y134247D01*
X171404Y134324D01*
X171804D01*
X171825Y134247D01*
X172324Y133383D01*
X173029Y132678D01*
X173892Y132179D01*
X174856Y131921D01*
X175853D01*
X176816Y132179D01*
X177680Y132678D01*
X178385Y133383D01*
X178884Y134247D01*
X179142Y135210D01*
Y136207D01*
X178884Y137171D01*
X178385Y138034D01*
X177680Y138739D01*
X176816Y139238D01*
X175853Y139496D01*
D02*
G37*
G36*
X99906Y163479D02*
X92426D01*
Y157377D01*
X99906D01*
Y159224D01*
X105467D01*
X117611Y147080D01*
Y146113D01*
X116929Y145830D01*
X116147Y145230D01*
X115548Y144449D01*
X115171Y143539D01*
X115042Y142563D01*
Y140594D01*
X115171Y139618D01*
X115548Y138708D01*
X116147Y137927D01*
X116929Y137328D01*
X117839Y136951D01*
X118815Y136822D01*
X119791Y136951D01*
X120701Y137328D01*
X121482Y137927D01*
X122082Y138708D01*
X122459Y139618D01*
X122587Y140594D01*
Y142563D01*
X122459Y143539D01*
X122082Y144449D01*
X121482Y145230D01*
X120701Y145830D01*
X120019Y146113D01*
Y147579D01*
X120019Y147579D01*
X119928Y148040D01*
X119667Y148430D01*
X119666Y148430D01*
X106817Y161280D01*
X106426Y161541D01*
X105965Y161632D01*
X105965Y161632D01*
X99906D01*
Y163479D01*
D02*
G37*
G36*
X108815Y146335D02*
X107839Y146207D01*
X106929Y145830D01*
X106147Y145230D01*
X105548Y144449D01*
X105171Y143539D01*
X105043Y142563D01*
Y140594D01*
X105171Y139618D01*
X105548Y138708D01*
X106147Y137927D01*
X106929Y137328D01*
X107839Y136951D01*
X108815Y136822D01*
X109791Y136951D01*
X110701Y137328D01*
X111482Y137927D01*
X112082Y138708D01*
X112459Y139618D01*
X112587Y140594D01*
Y142563D01*
X112459Y143539D01*
X112082Y144449D01*
X111482Y145230D01*
X110701Y145830D01*
X109791Y146207D01*
X108815Y146335D01*
D02*
G37*
G36*
X43194Y139885D02*
X42411D01*
X41688Y139586D01*
X41134Y139032D01*
X40835Y138309D01*
Y137525D01*
X41134Y136802D01*
X41688Y136248D01*
X42411Y135949D01*
X43194D01*
X43918Y136248D01*
X44472Y136802D01*
X44772Y137525D01*
Y138309D01*
X44472Y139032D01*
X43918Y139586D01*
X43194Y139885D01*
D02*
G37*
G36*
X197780Y142001D02*
X192780D01*
X190030Y139251D01*
Y133751D01*
X192780Y131001D01*
X197780D01*
X200530Y133751D01*
Y139251D01*
X197780Y142001D01*
D02*
G37*
G36*
X83147Y136303D02*
X81903D01*
X80701Y135981D01*
X79624Y135359D01*
X78744Y134480D01*
X78122Y133402D01*
X77800Y132201D01*
Y130957D01*
X78122Y129755D01*
X78744Y128678D01*
X79624Y127798D01*
X80701Y127176D01*
X81903Y126854D01*
X83147D01*
X84348Y127176D01*
X85426Y127798D01*
X86305Y128678D01*
X86927Y129755D01*
X87249Y130957D01*
Y132201D01*
X86927Y133402D01*
X86305Y134480D01*
X85426Y135359D01*
X84348Y135981D01*
X83147Y136303D01*
D02*
G37*
G36*
X28831Y132012D02*
X20169D01*
Y125988D01*
X28831D01*
Y132012D01*
D02*
G37*
G36*
X57079Y132038D02*
X54441D01*
X53655Y131934D01*
X52922Y131631D01*
X52293Y131148D01*
X51810Y130519D01*
X51507Y129786D01*
X51403Y129000D01*
X51507Y128214D01*
X51810Y127481D01*
X52293Y126852D01*
X52922Y126369D01*
X53655Y126066D01*
X54441Y125962D01*
X57079D01*
X57865Y126066D01*
X58598Y126369D01*
X59227Y126852D01*
X59710Y127481D01*
X60013Y128214D01*
X60116Y129000D01*
X60013Y129786D01*
X59710Y130519D01*
X59227Y131148D01*
X58598Y131631D01*
X57865Y131934D01*
X57079Y132038D01*
D02*
G37*
G36*
X38418Y122740D02*
X32315D01*
Y120606D01*
X28383D01*
X27967Y121148D01*
X27338Y121631D01*
X26605Y121934D01*
X25819Y122038D01*
X23181D01*
X22395Y121934D01*
X21662Y121631D01*
X21033Y121148D01*
X20550Y120519D01*
X20247Y119786D01*
X20143Y119000D01*
X20247Y118214D01*
X20550Y117481D01*
X21033Y116852D01*
X21662Y116369D01*
X22395Y116066D01*
X23181Y115962D01*
X25819D01*
X26605Y116066D01*
X27338Y116369D01*
X27967Y116852D01*
X28383Y117394D01*
X32315D01*
Y115260D01*
X38418D01*
Y122740D01*
D02*
G37*
G36*
X174500Y175860D02*
X173616Y175743D01*
X172792Y175402D01*
X172084Y174859D01*
X171541Y174152D01*
X171200Y173328D01*
X171083Y172443D01*
Y170557D01*
X171200Y169672D01*
X171541Y168848D01*
X172084Y168141D01*
X172792Y167598D01*
X173095Y167472D01*
Y160582D01*
X164418Y151905D01*
X141500D01*
X140962Y151798D01*
X140506Y151494D01*
X113918Y124905D01*
X52000D01*
X51462Y124798D01*
X51007Y124494D01*
X47085Y120572D01*
X46685Y120738D01*
Y122740D01*
X40583D01*
Y115260D01*
X46685D01*
Y117595D01*
X47500D01*
X48038Y117702D01*
X48494Y118007D01*
X52582Y122095D01*
X52998D01*
X53077Y121695D01*
X52922Y121631D01*
X52293Y121148D01*
X51810Y120519D01*
X51507Y119786D01*
X51403Y119000D01*
X51507Y118214D01*
X51810Y117481D01*
X52293Y116852D01*
X52922Y116369D01*
X53655Y116066D01*
X54441Y115962D01*
X57079D01*
X57865Y116066D01*
X58598Y116369D01*
X59227Y116852D01*
X59710Y117481D01*
X60013Y118214D01*
X60116Y119000D01*
X60013Y119786D01*
X59710Y120519D01*
X59227Y121148D01*
X58598Y121631D01*
X58442Y121695D01*
X58522Y122095D01*
X114500D01*
X115038Y122202D01*
X115493Y122506D01*
X142082Y149095D01*
X165000D01*
X165538Y149202D01*
X165993Y149506D01*
X175493Y159007D01*
X175798Y159462D01*
X175905Y160000D01*
Y167472D01*
X176208Y167598D01*
X176916Y168141D01*
X177459Y168848D01*
X177800Y169672D01*
X177917Y170557D01*
Y172443D01*
X177800Y173328D01*
X177459Y174152D01*
X176916Y174859D01*
X176208Y175402D01*
X175384Y175743D01*
X174500Y175860D01*
D02*
G37*
G36*
X12622Y123724D02*
X11378D01*
X10176Y123402D01*
X9099Y122781D01*
X8219Y121901D01*
X7598Y120824D01*
X7276Y119622D01*
Y118378D01*
X7598Y117176D01*
X8219Y116099D01*
X9099Y115219D01*
X10176Y114598D01*
X11378Y114276D01*
X12622D01*
X13824Y114598D01*
X14901Y115219D01*
X15780Y116099D01*
X16402Y117176D01*
X16724Y118378D01*
Y119622D01*
X16402Y120824D01*
X15780Y121901D01*
X14901Y122781D01*
X13824Y123402D01*
X12622Y123724D01*
D02*
G37*
G36*
X25819Y112038D02*
X23181D01*
X22395Y111934D01*
X21662Y111631D01*
X21033Y111148D01*
X20550Y110519D01*
X20247Y109786D01*
X20143Y109000D01*
X20247Y108214D01*
X20550Y107481D01*
X21033Y106852D01*
X21662Y106369D01*
X22395Y106066D01*
X23181Y105962D01*
X25819D01*
X26605Y106066D01*
X27338Y106369D01*
X27967Y106852D01*
X28450Y107481D01*
X28753Y108214D01*
X28857Y109000D01*
X28753Y109786D01*
X28450Y110519D01*
X27967Y111148D01*
X27338Y111631D01*
X26605Y111934D01*
X25819Y112038D01*
D02*
G37*
G36*
X57079Y101647D02*
X56945D01*
Y100185D01*
X59429D01*
X59371Y100323D01*
X58951Y100872D01*
X58402Y101292D01*
X57764Y101557D01*
X57079Y101647D01*
D02*
G37*
G36*
X54575D02*
X54441D01*
X53756Y101557D01*
X53117Y101292D01*
X52569Y100872D01*
X52148Y100323D01*
X52091Y100185D01*
X54575D01*
Y101647D01*
D02*
G37*
G36*
X59429Y97815D02*
X56945D01*
Y96353D01*
X57079D01*
X57764Y96443D01*
X58402Y96708D01*
X58951Y97128D01*
X59371Y97676D01*
X59429Y97815D01*
D02*
G37*
G36*
X54575D02*
X52091D01*
X52148Y97676D01*
X52569Y97128D01*
X53117Y96708D01*
X53756Y96443D01*
X54441Y96353D01*
X54575D01*
Y97815D01*
D02*
G37*
G36*
X25819Y102038D02*
X23181D01*
X22395Y101934D01*
X21662Y101631D01*
X21033Y101148D01*
X20550Y100519D01*
X20247Y99786D01*
X20143Y99000D01*
X20247Y98214D01*
X20550Y97481D01*
X21033Y96852D01*
X21662Y96369D01*
X22395Y96066D01*
X23181Y95962D01*
X25819D01*
X26605Y96066D01*
X27338Y96369D01*
X27967Y96852D01*
X28450Y97481D01*
X28753Y98214D01*
X28857Y99000D01*
X28753Y99786D01*
X28450Y100519D01*
X27967Y101148D01*
X27338Y101631D01*
X26605Y101934D01*
X25819Y102038D01*
D02*
G37*
G36*
X57079Y92038D02*
X54441D01*
X53655Y91934D01*
X52922Y91631D01*
X52293Y91148D01*
X51810Y90519D01*
X51507Y89786D01*
X51403Y89000D01*
X51507Y88214D01*
X51810Y87481D01*
X52293Y86852D01*
X52922Y86369D01*
X53655Y86066D01*
X54441Y85962D01*
X57079D01*
X57865Y86066D01*
X58598Y86369D01*
X59227Y86852D01*
X59710Y87481D01*
X60013Y88214D01*
X60116Y89000D01*
X60013Y89786D01*
X59710Y90519D01*
X59227Y91148D01*
X58598Y91631D01*
X57865Y91934D01*
X57079Y92038D01*
D02*
G37*
G36*
X25819D02*
X23181D01*
X22395Y91934D01*
X21662Y91631D01*
X21033Y91148D01*
X20550Y90519D01*
X20247Y89786D01*
X20143Y89000D01*
X20247Y88214D01*
X20550Y87481D01*
X21033Y86852D01*
X21662Y86369D01*
X22395Y86066D01*
X23181Y85962D01*
X25819D01*
X26605Y86066D01*
X27338Y86369D01*
X27967Y86852D01*
X28450Y87481D01*
X28753Y88214D01*
X28857Y89000D01*
X28753Y89786D01*
X28450Y90519D01*
X27967Y91148D01*
X27338Y91631D01*
X26605Y91934D01*
X25819Y92038D01*
D02*
G37*
G36*
X89124Y92331D02*
X82349D01*
Y83669D01*
X89124D01*
Y92331D01*
D02*
G37*
G36*
X75500Y92360D02*
X74616Y92243D01*
X73792Y91902D01*
X73084Y91359D01*
X72541Y90652D01*
X72200Y89828D01*
X72083Y88943D01*
Y87057D01*
X72200Y86172D01*
X72541Y85348D01*
X73084Y84641D01*
X73792Y84098D01*
X74616Y83757D01*
X75500Y83640D01*
X76384Y83757D01*
X77208Y84098D01*
X77916Y84641D01*
X78459Y85348D01*
X78800Y86172D01*
X78917Y87057D01*
Y88943D01*
X78800Y89828D01*
X78459Y90652D01*
X77916Y91359D01*
X77208Y91902D01*
X76384Y92243D01*
X75500Y92360D01*
D02*
G37*
G36*
X57079Y112038D02*
X54441D01*
X53655Y111934D01*
X52922Y111631D01*
X52293Y111148D01*
X51810Y110519D01*
X51507Y109786D01*
X51403Y109000D01*
X51507Y108214D01*
X51810Y107481D01*
X52293Y106852D01*
X52922Y106369D01*
X53655Y106066D01*
X54441Y105962D01*
X55693D01*
X63257Y98398D01*
Y91673D01*
X62848Y91359D01*
X62305Y90652D01*
X61964Y89828D01*
X61847Y88943D01*
Y87057D01*
X61964Y86172D01*
X62305Y85348D01*
X62848Y84641D01*
X63555Y84098D01*
X64380Y83757D01*
X65264Y83640D01*
X66148Y83757D01*
X66972Y84098D01*
X67680Y84641D01*
X68223Y85348D01*
X68564Y86172D01*
X68680Y87057D01*
Y88943D01*
X68564Y89828D01*
X68223Y90652D01*
X67680Y91359D01*
X67271Y91673D01*
Y99230D01*
X67118Y99998D01*
X66683Y100649D01*
X59751Y107581D01*
X60013Y108214D01*
X60116Y109000D01*
X60013Y109786D01*
X59710Y110519D01*
X59227Y111148D01*
X58598Y111631D01*
X57865Y111934D01*
X57079Y112038D01*
D02*
G37*
G36*
X126870Y78892D02*
Y77185D01*
X128577D01*
X128574Y77197D01*
X128166Y77903D01*
X127588Y78481D01*
X126882Y78889D01*
X126870Y78892D01*
D02*
G37*
G36*
X124500D02*
X124488Y78889D01*
X123782Y78481D01*
X123204Y77903D01*
X122796Y77197D01*
X122793Y77185D01*
X124500D01*
Y78892D01*
D02*
G37*
G36*
X57079Y82038D02*
X54441D01*
X53655Y81934D01*
X52922Y81631D01*
X52293Y81148D01*
X51810Y80519D01*
X51507Y79786D01*
X51403Y79000D01*
X51507Y78214D01*
X51810Y77481D01*
X52293Y76852D01*
X52922Y76369D01*
X53655Y76066D01*
X54441Y75962D01*
X57079D01*
X57865Y76066D01*
X58598Y76369D01*
X59227Y76852D01*
X59710Y77481D01*
X60013Y78214D01*
X60116Y79000D01*
X60013Y79786D01*
X59710Y80519D01*
X59227Y81148D01*
X58598Y81631D01*
X57865Y81934D01*
X57079Y82038D01*
D02*
G37*
G36*
X25819D02*
X23181D01*
X22395Y81934D01*
X21662Y81631D01*
X21033Y81148D01*
X20550Y80519D01*
X20247Y79786D01*
X20143Y79000D01*
X20247Y78214D01*
X20550Y77481D01*
X21033Y76852D01*
X21662Y76369D01*
X22395Y76066D01*
X23181Y75962D01*
X25819D01*
X26605Y76066D01*
X27338Y76369D01*
X27967Y76852D01*
X28450Y77481D01*
X28753Y78214D01*
X28857Y79000D01*
X28753Y79786D01*
X28450Y80519D01*
X27967Y81148D01*
X27338Y81631D01*
X26605Y81934D01*
X25819Y82038D01*
D02*
G37*
G36*
X128577Y74815D02*
X126870D01*
Y73108D01*
X126882Y73111D01*
X127588Y73519D01*
X128166Y74097D01*
X128574Y74803D01*
X128577Y74815D01*
D02*
G37*
G36*
X124500D02*
X122793D01*
X122796Y74803D01*
X123204Y74097D01*
X123782Y73519D01*
X124488Y73111D01*
X124500Y73108D01*
Y74815D01*
D02*
G37*
G36*
X106459Y79487D02*
X105541D01*
X104654Y79250D01*
X103859Y78791D01*
X103209Y78141D01*
X102750Y77346D01*
X102513Y76459D01*
Y75541D01*
X102750Y74654D01*
X103209Y73859D01*
X103859Y73209D01*
X104654Y72750D01*
X105541Y72513D01*
X106459D01*
X107346Y72750D01*
X108141Y73209D01*
X108791Y73859D01*
X109250Y74654D01*
X109487Y75541D01*
Y76459D01*
X109250Y77346D01*
X108791Y78141D01*
X108141Y78791D01*
X107346Y79250D01*
X106459Y79487D01*
D02*
G37*
G36*
X57079Y72038D02*
X54441D01*
X53655Y71934D01*
X52922Y71631D01*
X52293Y71148D01*
X51810Y70519D01*
X51507Y69786D01*
X51403Y69000D01*
X51507Y68214D01*
X51810Y67481D01*
X52293Y66852D01*
X52922Y66369D01*
X53655Y66066D01*
X54441Y65962D01*
X57079D01*
X57865Y66066D01*
X58598Y66369D01*
X59227Y66852D01*
X59710Y67481D01*
X60013Y68214D01*
X60116Y69000D01*
X60013Y69786D01*
X59710Y70519D01*
X59227Y71148D01*
X58598Y71631D01*
X57865Y71934D01*
X57079Y72038D01*
D02*
G37*
G36*
X25819D02*
X23181D01*
X22395Y71934D01*
X21662Y71631D01*
X21033Y71148D01*
X20550Y70519D01*
X20247Y69786D01*
X20143Y69000D01*
X20247Y68214D01*
X20550Y67481D01*
X21033Y66852D01*
X21662Y66369D01*
X22395Y66066D01*
X23181Y65962D01*
X25819D01*
X26605Y66066D01*
X27338Y66369D01*
X27967Y66852D01*
X28450Y67481D01*
X28753Y68214D01*
X28857Y69000D01*
X28753Y69786D01*
X28450Y70519D01*
X27967Y71148D01*
X27338Y71631D01*
X26605Y71934D01*
X25819Y72038D01*
D02*
G37*
G36*
Y61647D02*
X25685D01*
Y60185D01*
X28169D01*
X28111Y60324D01*
X27691Y60872D01*
X27142Y61292D01*
X26504Y61557D01*
X25819Y61647D01*
D02*
G37*
G36*
X23315D02*
X23181D01*
X22496Y61557D01*
X21858Y61292D01*
X21309Y60872D01*
X20889Y60324D01*
X20831Y60185D01*
X23315D01*
Y61647D01*
D02*
G37*
G36*
X28169Y57815D02*
X25685D01*
Y56353D01*
X25819D01*
X26504Y56443D01*
X27142Y56708D01*
X27691Y57128D01*
X28111Y57677D01*
X28169Y57815D01*
D02*
G37*
G36*
X23315D02*
X20831D01*
X20889Y57677D01*
X21309Y57128D01*
X21858Y56708D01*
X22496Y56443D01*
X23181Y56353D01*
X23315D01*
Y57815D01*
D02*
G37*
G36*
X57079Y62038D02*
X54441D01*
X53655Y61934D01*
X52922Y61631D01*
X52293Y61148D01*
X51810Y60519D01*
X51507Y59786D01*
X51403Y59000D01*
X51507Y58214D01*
X51810Y57481D01*
X52293Y56852D01*
X52922Y56369D01*
X53655Y56066D01*
X54441Y55962D01*
X57079D01*
X57865Y56066D01*
X58598Y56369D01*
X59227Y56852D01*
X59710Y57481D01*
X60013Y58214D01*
X60116Y59000D01*
X60013Y59786D01*
X59710Y60519D01*
X59227Y61148D01*
X58598Y61631D01*
X57865Y61934D01*
X57079Y62038D01*
D02*
G37*
G36*
X153685Y50202D02*
Y48185D01*
X155702D01*
X155668Y48312D01*
X155221Y49088D01*
X154588Y49721D01*
X153812Y50168D01*
X153685Y50202D01*
D02*
G37*
G36*
X146185D02*
Y48185D01*
X148202D01*
X148168Y48312D01*
X147721Y49088D01*
X147088Y49721D01*
X146312Y50168D01*
X146185Y50202D01*
D02*
G37*
G36*
X151315D02*
X151188Y50168D01*
X150412Y49721D01*
X149779Y49088D01*
X149332Y48312D01*
X149298Y48185D01*
X151315D01*
Y50202D01*
D02*
G37*
G36*
X143815D02*
X143688Y50168D01*
X142912Y49721D01*
X142279Y49088D01*
X141832Y48312D01*
X141798Y48185D01*
X143815D01*
Y50202D01*
D02*
G37*
G36*
X176362Y50068D02*
Y48051D01*
X178380D01*
X178346Y48178D01*
X177898Y48954D01*
X177265Y49587D01*
X176489Y50034D01*
X176362Y50068D01*
D02*
G37*
G36*
X168862D02*
Y48051D01*
X170880D01*
X170845Y48178D01*
X170398Y48954D01*
X169765Y49587D01*
X168990Y50034D01*
X168862Y50068D01*
D02*
G37*
G36*
X161362D02*
Y48051D01*
X163380D01*
X163346Y48178D01*
X162898Y48954D01*
X162265Y49587D01*
X161489Y50034D01*
X161362Y50068D01*
D02*
G37*
G36*
X173992D02*
X173865Y50034D01*
X173090Y49587D01*
X172457Y48954D01*
X172009Y48178D01*
X171975Y48051D01*
X173992D01*
Y50068D01*
D02*
G37*
G36*
X166492D02*
X166365Y50034D01*
X165589Y49587D01*
X164956Y48954D01*
X164509Y48178D01*
X164475Y48051D01*
X166492D01*
Y50068D01*
D02*
G37*
G36*
X158992D02*
X158865Y50034D01*
X158089Y49587D01*
X157457Y48954D01*
X157009Y48178D01*
X156975Y48051D01*
X158992D01*
Y50068D01*
D02*
G37*
G36*
X86433Y52787D02*
X85567D01*
X84731Y52563D01*
X83982Y52131D01*
X83369Y51518D01*
X82937Y50769D01*
X82713Y49933D01*
Y49067D01*
X82937Y48231D01*
X83369Y47482D01*
X83982Y46869D01*
X84731Y46437D01*
X85567Y46213D01*
X86433D01*
X87269Y46437D01*
X88019Y46869D01*
X88631Y47482D01*
X89063Y48231D01*
X89287Y49067D01*
Y49933D01*
X89063Y50769D01*
X88631Y51518D01*
X88019Y52131D01*
X87269Y52563D01*
X86433Y52787D01*
D02*
G37*
G36*
X81387D02*
X74813D01*
Y46213D01*
X81387D01*
Y52787D01*
D02*
G37*
G36*
X148202Y45815D02*
X146185D01*
Y43798D01*
X146312Y43832D01*
X147088Y44279D01*
X147721Y44912D01*
X148168Y45688D01*
X148202Y45815D01*
D02*
G37*
G36*
X155702D02*
X153685D01*
Y43798D01*
X153812Y43832D01*
X154588Y44279D01*
X155221Y44912D01*
X155668Y45688D01*
X155702Y45815D01*
D02*
G37*
G36*
X151315D02*
X149298D01*
X149332Y45688D01*
X149779Y44912D01*
X150412Y44279D01*
X151188Y43832D01*
X151315Y43798D01*
Y45815D01*
D02*
G37*
G36*
X143815D02*
X141798D01*
X141832Y45688D01*
X142279Y44912D01*
X142912Y44279D01*
X143688Y43832D01*
X143815Y43798D01*
Y45815D01*
D02*
G37*
G36*
X163380Y45681D02*
X161362D01*
Y43664D01*
X161489Y43698D01*
X162265Y44146D01*
X162898Y44778D01*
X163346Y45554D01*
X163380Y45681D01*
D02*
G37*
G36*
X178380D02*
X176362D01*
Y43664D01*
X176489Y43698D01*
X177265Y44146D01*
X177898Y44778D01*
X178346Y45554D01*
X178380Y45681D01*
D02*
G37*
G36*
X170880D02*
X168862D01*
Y43664D01*
X168990Y43698D01*
X169765Y44146D01*
X170398Y44778D01*
X170845Y45554D01*
X170880Y45681D01*
D02*
G37*
G36*
X173992D02*
X171975D01*
X172009Y45554D01*
X172457Y44778D01*
X173090Y44146D01*
X173865Y43698D01*
X173992Y43664D01*
Y45681D01*
D02*
G37*
G36*
X166492D02*
X164475D01*
X164509Y45554D01*
X164956Y44778D01*
X165589Y44146D01*
X166365Y43698D01*
X166492Y43664D01*
Y45681D01*
D02*
G37*
G36*
X158992D02*
X156975D01*
X157009Y45554D01*
X157457Y44778D01*
X158089Y44146D01*
X158865Y43698D01*
X158992Y43664D01*
Y45681D01*
D02*
G37*
G36*
X198000Y52500D02*
X192500D01*
X189750Y49750D01*
Y44750D01*
X192500Y42000D01*
X198000D01*
X200750Y44750D01*
Y49750D01*
X198000Y52500D01*
D02*
G37*
G36*
X127122Y40724D02*
X125878D01*
X124676Y40402D01*
X123599Y39781D01*
X122720Y38901D01*
X122098Y37824D01*
X121776Y36622D01*
Y35378D01*
X122098Y34176D01*
X122720Y33099D01*
X123599Y32219D01*
X124676Y31598D01*
X125878Y31276D01*
X127122D01*
X128324Y31598D01*
X129401Y32219D01*
X130280Y33099D01*
X130902Y34176D01*
X131224Y35378D01*
Y36622D01*
X130902Y37824D01*
X130280Y38901D01*
X129401Y39781D01*
X128324Y40402D01*
X127122Y40724D01*
D02*
G37*
G36*
X30315Y25747D02*
X29753Y25185D01*
X30315D01*
Y25747D01*
D02*
G37*
G36*
X50000Y33803D02*
X35000D01*
X34693Y33742D01*
X34432Y33568D01*
X34258Y33307D01*
X34197Y33000D01*
Y26461D01*
X33961D01*
Y24443D01*
X33573Y24412D01*
X33258Y25174D01*
X32685Y25747D01*
Y24000D01*
X31500D01*
D01*
X32685D01*
Y22253D01*
X33258Y22826D01*
X33573Y23588D01*
X33961Y23557D01*
Y21539D01*
X38882D01*
Y21697D01*
X50000D01*
X50307Y21758D01*
X50568Y21932D01*
X50742Y22193D01*
X50803Y22500D01*
Y33000D01*
X50742Y33307D01*
X50568Y33568D01*
X50307Y33742D01*
X50000Y33803D01*
D02*
G37*
G36*
X30315Y22815D02*
X29753D01*
X30315Y22253D01*
Y22815D01*
D02*
G37*
G36*
X98624Y120236D02*
X97841D01*
X97117Y119937D01*
X96564Y119383D01*
X96264Y118659D01*
Y118002D01*
X90113Y111852D01*
X89852Y111461D01*
X89760Y111000D01*
X89760Y111000D01*
Y80463D01*
X59649Y50352D01*
X59387Y49961D01*
X59296Y49500D01*
X59296Y49500D01*
Y20999D01*
X55827Y17530D01*
X55769Y17563D01*
X54933Y17787D01*
X54067D01*
X53231Y17563D01*
X52482Y17131D01*
X51869Y16519D01*
X51437Y15769D01*
X51213Y14933D01*
Y14067D01*
X51437Y13231D01*
X51869Y12482D01*
X52482Y11869D01*
X53231Y11437D01*
X54067Y11213D01*
X54933D01*
X55769Y11437D01*
X56519Y11869D01*
X57131Y12482D01*
X57563Y13231D01*
X57787Y14067D01*
Y14933D01*
X57563Y15769D01*
X57530Y15827D01*
X61352Y19648D01*
X61613Y20039D01*
X61704Y20500D01*
Y49001D01*
X91816Y79113D01*
X91816Y79113D01*
X92077Y79504D01*
X92169Y79965D01*
Y110501D01*
X97967Y116299D01*
X98624D01*
X99347Y116599D01*
X99901Y117153D01*
X100201Y117876D01*
Y118659D01*
X99901Y119383D01*
X99347Y119937D01*
X98624Y120236D01*
D02*
G37*
G36*
X68030Y17400D02*
X66315D01*
Y15685D01*
X68030D01*
Y17400D01*
D02*
G37*
G36*
X63945D02*
X62230D01*
Y15685D01*
X63945D01*
Y17400D01*
D02*
G37*
G36*
X147185Y16099D02*
Y14185D01*
X149099D01*
X149075Y14274D01*
X148641Y15026D01*
X148026Y15641D01*
X147274Y16075D01*
X147185Y16099D01*
D02*
G37*
G36*
X144815D02*
X144726Y16075D01*
X143974Y15641D01*
X143359Y15026D01*
X142925Y14274D01*
X142901Y14185D01*
X144815D01*
Y16099D01*
D02*
G37*
G36*
X68030Y13315D02*
X66315D01*
Y11600D01*
X68030D01*
Y13315D01*
D02*
G37*
G36*
X63945D02*
X62230D01*
Y11600D01*
X63945D01*
Y13315D01*
D02*
G37*
G36*
X149099Y11815D02*
X147185D01*
Y9901D01*
X147274Y9925D01*
X148026Y10359D01*
X148641Y10974D01*
X149075Y11726D01*
X149099Y11815D01*
D02*
G37*
G36*
X144815D02*
X142901D01*
X142925Y11726D01*
X143359Y10974D01*
X143974Y10359D01*
X144726Y9925D01*
X144815Y9901D01*
Y11815D01*
D02*
G37*
G36*
X92122Y19224D02*
X90878D01*
X89676Y18902D01*
X88599Y18281D01*
X87720Y17401D01*
X87098Y16324D01*
X86776Y15122D01*
Y13878D01*
X87098Y12676D01*
X87720Y11599D01*
X88599Y10719D01*
X89676Y10097D01*
X90878Y9776D01*
X92122D01*
X93324Y10097D01*
X94401Y10719D01*
X95280Y11599D01*
X95902Y12676D01*
X96224Y13878D01*
Y15122D01*
X95902Y16324D01*
X95280Y17401D01*
X94401Y18281D01*
X93324Y18902D01*
X92122Y19224D01*
D02*
G37*
G36*
X156485Y16687D02*
X155515D01*
X154577Y16436D01*
X153736Y15951D01*
X153049Y15264D01*
X152564Y14423D01*
X152313Y13486D01*
Y12515D01*
X152564Y11577D01*
X153049Y10736D01*
X153736Y10049D01*
X154577Y9564D01*
X155515Y9313D01*
X156485D01*
X157423Y9564D01*
X158264Y10049D01*
X158951Y10736D01*
X159436Y11577D01*
X159687Y12515D01*
Y13486D01*
X159436Y14423D01*
X158951Y15264D01*
X158264Y15951D01*
X157423Y16436D01*
X156485Y16687D01*
D02*
G37*
G36*
X136485D02*
X135514D01*
X134577Y16436D01*
X133736Y15951D01*
X133049Y15264D01*
X132564Y14423D01*
X132313Y13486D01*
Y12515D01*
X132564Y11577D01*
X133049Y10736D01*
X133736Y10049D01*
X134577Y9564D01*
X135514Y9313D01*
X136485D01*
X137423Y9564D01*
X138264Y10049D01*
X138951Y10736D01*
X139436Y11577D01*
X139687Y12515D01*
Y13486D01*
X139436Y14423D01*
X138951Y15264D01*
X138264Y15951D01*
X137423Y16436D01*
X136485Y16687D01*
D02*
G37*
%LPD*%
G54D10*
X54500Y14500D02*
X60500Y20500D01*
Y49500D01*
X90965Y79965D01*
Y111000D01*
X98232Y118268D01*
X118815Y141579D02*
Y147579D01*
X105965Y160428D01*
X96166D01*
X69000Y193000D02*
X75000Y199000D01*
X282180Y199000D01*
X304590Y221410D01*
Y226410D02*
X279180Y201000D01*
X67000D01*
X59000Y193000D01*
G54D16*
X43634Y119000D02*
X47500D01*
X52000Y123500D01*
X114500D01*
X141500Y150500D01*
X165000D01*
X174500Y160000D01*
Y171500D01*
X222090Y231410D02*
X227410D01*
X224910Y236410D02*
X207820Y253500D01*
X120000D01*
X110000Y243500D01*
Y228500D02*
X132062Y250562D01*
X202938D01*
X222090Y231410D01*
G54D21*
X119815Y167390D02*
X128083D01*
X119815Y175657D02*
Y185579D01*
X164500Y238170D02*
X179349D01*
X179355Y238165D01*
X183595D01*
X188260Y233500D01*
X202500D01*
X224500Y211500D01*
X230000Y216452D02*
X202500Y243952D01*
Y244000D01*
X187500D01*
X183336Y248164D01*
X164500D01*
X230000Y216452D02*
Y206500D01*
X235000Y221500D02*
X246500Y233000D01*
X336000D01*
X359000Y210000D01*
X365000D01*
X379000Y204000D02*
X385000Y210000D01*
X379000Y204000D02*
X331000D01*
X323500Y211500D01*
X354932Y236433D02*
X358500Y240000D01*
X370000D01*
X386362Y236000D02*
X404500D01*
Y246000D02*
X381000D01*
X365500Y261500D01*
X322500D01*
Y256500D02*
X365862D01*
X386362Y236000D01*
X362500Y250500D02*
X353432Y241432D01*
X322432D01*
Y236433D02*
X354932D01*
G54D30*
X35366Y119000D02*
D03*
X43634D02*
D03*
G54D36*
X96166Y160428D02*
D03*
Y168696D02*
D03*
X119815Y167390D02*
D03*
Y175657D02*
D03*
G54D48*
X65264Y88000D02*
D03*
X75500D02*
D03*
X164264Y171500D02*
D03*
X174500D02*
D03*
G54D49*
X85736Y88000D02*
D03*
X184736Y171500D02*
D03*
G54D54*
X177000Y275500D02*
D03*
G54D59*
X404500Y256000D02*
D03*
G54D60*
X404500Y226000D02*
D03*
Y236000D02*
D03*
Y246000D02*
D03*
G54D68*
X136000Y13000D02*
D03*
X146000D02*
D03*
X156000D02*
D03*
G54D69*
X65130Y14500D02*
D03*
X78100Y49500D02*
D03*
G54D70*
X54500Y14500D02*
D03*
X86000Y49500D02*
D03*
G54D74*
X106000Y76000D02*
D03*
X125685D02*
D03*
G54D78*
X317000Y137500D02*
Y158500D01*
X327000Y168500D01*
X335500D01*
G54D79*
X54500Y109000D02*
X55493D01*
X65264Y99230D01*
Y88000D01*
X96166Y168696D02*
Y177138D01*
G54D80*
X317000Y76500D02*
X317030Y76530D01*
X362590D01*
G54D81*
X24500Y119000D02*
X35366D01*
G54D86*
X42500Y27750D02*
D03*
G54D87*
X24500Y129000D02*
D03*
G54D88*
X24500Y59000D02*
D03*
Y69000D02*
D03*
Y79000D02*
D03*
Y89000D02*
D03*
Y99000D02*
D03*
Y109000D02*
D03*
Y119000D02*
D03*
X55760Y69000D02*
D03*
Y59000D02*
D03*
Y79000D02*
D03*
Y89000D02*
D03*
Y99000D02*
D03*
Y109000D02*
D03*
Y119000D02*
D03*
Y129000D02*
D03*
G54D89*
X59000Y193000D02*
D03*
X69000D02*
D03*
X79000D02*
D03*
X49000D02*
D03*
X39000D02*
D03*
X29000D02*
D03*
X89000Y279102D02*
D03*
X79000D02*
D03*
X69000D02*
D03*
X59000D02*
D03*
X49000D02*
D03*
X39000D02*
D03*
G54D90*
X108815Y141579D02*
D03*
X118815D02*
D03*
X119815Y185579D02*
D03*
X109815D02*
D03*
G54D91*
X499500Y25000D02*
D03*
X490315Y256000D02*
D03*
G54D92*
X479815Y25000D02*
D03*
X510000Y256000D02*
D03*
G54D93*
X177000Y257784D02*
D03*
X202591D02*
D03*
Y275500D02*
D03*
G54D94*
X12000Y119000D02*
D03*
X39000Y165000D02*
D03*
X82525Y131579D02*
D03*
X142953Y185445D02*
D03*
X199000Y193000D02*
D03*
X230000Y206500D02*
D03*
X334500Y221000D02*
D03*
X370000Y240000D02*
D03*
X385500Y161000D02*
D03*
X110000Y243500D02*
D03*
Y228500D02*
D03*
X124693Y221193D02*
D03*
X126500Y36000D02*
D03*
X91500Y14500D02*
D03*
G54D95*
X131500Y263500D02*
D03*
X373500Y269000D02*
D03*
G54D96*
X145280Y263500D02*
D03*
X387280Y269000D02*
D03*
G54D97*
X195267Y47396D02*
D03*
Y136372D02*
D03*
X362590Y107238D02*
D03*
G54D98*
X362590Y76530D02*
D03*
G54D99*
X465122Y124516D02*
D03*
X533622D02*
D03*
G54D100*
X441500Y132390D02*
D03*
X510000D02*
D03*
G54D101*
X417878Y76484D02*
D03*
X465122D02*
D03*
X486378D02*
D03*
X533622D02*
D03*
X486378Y124516D02*
D03*
X417878D02*
D03*
G54D102*
X335500Y198500D02*
D03*
X345500D02*
D03*
X355500D02*
D03*
Y168500D02*
D03*
X345500D02*
D03*
G54D103*
X335500Y168500D02*
D03*
G54D104*
X36421Y24000D02*
D03*
G54D105*
X31500Y24000D02*
D03*
G54D106*
X94984Y149079D02*
D03*
X99315D02*
D03*
G54D107*
X145000Y47000D02*
D03*
X152500D02*
D03*
X160177Y46866D02*
D03*
X167677D02*
D03*
X175177D02*
D03*
X175354Y135709D02*
D03*
X167854D02*
D03*
X160354D02*
D03*
X153000Y135500D02*
D03*
X145500D02*
D03*
G54D108*
X12000Y76500D02*
D03*
X39500Y30500D02*
D03*
X43500D02*
D03*
Y26500D02*
D03*
X40000D02*
D03*
X47500D02*
D03*
Y30500D02*
D03*
X98232Y118268D02*
D03*
X102000Y127500D02*
D03*
X75112Y153293D02*
D03*
X64119Y169067D02*
D03*
X96166Y177138D02*
D03*
X104449Y172213D02*
D03*
X128083Y167390D02*
D03*
X176147Y196835D02*
D03*
X178000Y212500D02*
D03*
X181000D02*
D03*
Y217000D02*
D03*
X178000D02*
D03*
X194112Y208537D02*
D03*
X221472Y191740D02*
D03*
X224500Y211500D02*
D03*
X255563Y178240D02*
D03*
X304590Y221410D02*
D03*
Y226410D02*
D03*
X323500Y211500D02*
D03*
X345366Y230634D02*
D03*
X361135Y221000D02*
D03*
X369866Y198000D02*
D03*
X393634Y188259D02*
D03*
X403260Y161740D02*
D03*
X410740Y158760D02*
D03*
X439500Y161500D02*
D03*
X439000Y166500D02*
D03*
X439495Y153891D02*
D03*
X440000Y146500D02*
D03*
X442500Y141500D02*
D03*
X442610Y150816D02*
D03*
X443500Y157500D02*
D03*
X441500Y174500D02*
D03*
X453500Y191000D02*
D03*
X459000Y192000D02*
D03*
X465000Y190500D02*
D03*
X467500Y193500D02*
D03*
X470500Y196000D02*
D03*
X473500Y199500D02*
D03*
X476000Y202000D02*
D03*
X467500Y209000D02*
D03*
X509500Y184500D02*
D03*
Y172000D02*
D03*
Y159500D02*
D03*
Y148000D02*
D03*
X510000Y195000D02*
D03*
Y205500D02*
D03*
Y215500D02*
D03*
Y225000D02*
D03*
Y235000D02*
D03*
Y244000D02*
D03*
X465000Y206500D02*
D03*
X462000Y203000D02*
D03*
X459000Y200500D02*
D03*
X456500Y197500D02*
D03*
X452500D02*
D03*
X448500D02*
D03*
X444500D02*
D03*
X440500D02*
D03*
X436500D02*
D03*
X438390Y192000D02*
D03*
X437500Y178500D02*
D03*
X435000Y170500D02*
D03*
X410756Y196256D02*
D03*
X362500Y250500D02*
D03*
X321500Y276500D02*
D03*
X322500Y261500D02*
D03*
Y256500D02*
D03*
X338000Y250500D02*
D03*
X322432Y241432D02*
D03*
Y236433D02*
D03*
X282000Y251500D02*
D03*
X275666Y246023D02*
D03*
X273000Y255000D02*
D03*
X272980Y237020D02*
D03*
X281980Y240490D02*
D03*
X264000Y246020D02*
D03*
Y251530D02*
D03*
Y240510D02*
D03*
X230740Y253740D02*
D03*
X224910Y236410D02*
D03*
X227410Y231410D02*
D03*
X235000Y221500D02*
D03*
X223260Y253260D02*
D03*
X215020Y271500D02*
D03*
X194454Y248200D02*
D03*
X194123Y238165D02*
D03*
X194123Y228350D02*
D03*
X194105Y218484D02*
D03*
X187240Y222000D02*
D03*
X181000Y221500D02*
D03*
X178000D02*
D03*
X164500Y248164D02*
D03*
Y238170D02*
D03*
X144000Y235000D02*
D03*
X149533Y224967D02*
D03*
X129827Y228673D02*
D03*
X134732Y214768D02*
D03*
X77815Y169079D02*
D03*
X74315D02*
D03*
X70797Y169106D02*
D03*
X67297D02*
D03*
X60601Y169094D02*
D03*
X57101D02*
D03*
X42803Y137917D02*
D03*
X250090Y276410D02*
D03*
X422077Y70781D02*
D03*
X426500Y70500D02*
D03*
Y66000D02*
D03*
X431000D02*
D03*
Y61500D02*
D03*
X435500Y62000D02*
D03*
Y57500D02*
D03*
X439000D02*
D03*
Y53500D02*
D03*
X447500Y45000D02*
D03*
X451500D02*
D03*
Y40000D02*
D03*
X456000Y41000D02*
D03*
Y36000D02*
D03*
X461500Y34500D02*
D03*
Y29500D02*
D03*
X466000Y31500D02*
D03*
X467000Y25500D02*
D03*
X472000Y27000D02*
D03*
X501000Y34000D02*
D03*
X497644Y37928D02*
D03*
X501500Y42000D02*
D03*
X498000Y46000D02*
D03*
Y53500D02*
D03*
X501500Y50500D02*
D03*
Y58000D02*
D03*
X497500Y61500D02*
D03*
X498500Y67500D02*
D03*
X494000Y67000D02*
D03*
X443500Y54000D02*
D03*
Y49500D02*
D03*
X447500D02*
D03*
G54D142*
X317000Y76500D02*
D03*
Y137500D02*
D03*
G54D143*
X365000Y210000D02*
D03*
X375000D02*
D03*
X385000D02*
D03*
M02*
