G04*
G04 #@! TF.GenerationSoftware,Altium Limited,Altium Designer,24.5.2 (23)*
G04*
G04 Layer_Color=8421504*
%FSLAX25Y25*%
%MOIN*%
G70*
G04*
G04 #@! TF.SameCoordinates,6455B1CA-3022-4927-84EB-C38AD889BDF6*
G04*
G04*
G04 #@! TF.FilePolarity,Positive*
G04*
G01*
G75*
%ADD25R,0.02000X0.05200*%
%ADD26R,0.05900X0.03500*%
%ADD27R,0.03500X0.05900*%
%ADD28R,0.03500X0.03500*%
%ADD29R,0.00984X0.01968*%
%ADD30R,0.04528X0.05906*%
%ADD31R,0.05118X0.05906*%
%ADD32R,0.03500X0.03200*%
G04:AMPARAMS|DCode=33|XSize=77.56mil|YSize=23.62mil|CornerRadius=2.95mil|HoleSize=0mil|Usage=FLASHONLY|Rotation=180.000|XOffset=0mil|YOffset=0mil|HoleType=Round|Shape=RoundedRectangle|*
%AMROUNDEDRECTD33*
21,1,0.07756,0.01772,0,0,180.0*
21,1,0.07165,0.02362,0,0,180.0*
1,1,0.00591,-0.03583,0.00886*
1,1,0.00591,0.03583,0.00886*
1,1,0.00591,0.03583,-0.00886*
1,1,0.00591,-0.03583,-0.00886*
%
%ADD33ROUNDEDRECTD33*%
%ADD34R,0.03200X0.03500*%
%ADD35R,0.04750X0.02000*%
%ADD36R,0.05906X0.04528*%
%ADD37R,0.03740X0.04724*%
G36*
X96601Y147311D02*
X96563Y147307D01*
X94193D01*
X94155Y147311D01*
X94119Y147322D01*
X94086Y147340D01*
X94056Y147364D01*
X94033Y147393D01*
X94015Y147426D01*
X94004Y147462D01*
X94000Y147500D01*
Y150657D01*
X94004Y150695D01*
X94015Y150731D01*
X94033Y150765D01*
X94056Y150794D01*
X94086Y150818D01*
X94119Y150836D01*
X94155Y150847D01*
X94193Y150850D01*
X96563D01*
X96601Y150847D01*
X96637Y150836D01*
X96670Y150818D01*
X96699Y150794D01*
X96723Y150765D01*
X96741Y150731D01*
X96752Y150695D01*
X96756Y150657D01*
Y147500D01*
X96752Y147462D01*
X96741Y147426D01*
X96723Y147393D01*
X96699Y147364D01*
X96670Y147340D01*
X96637Y147322D01*
X96601Y147311D01*
D02*
G37*
G36*
X100144D02*
X100106Y147307D01*
X97736D01*
X97699Y147311D01*
X97662Y147322D01*
X97629Y147340D01*
X97600Y147364D01*
X97576Y147393D01*
X97558Y147426D01*
X97547Y147462D01*
X97543Y147500D01*
Y150657D01*
X97547Y150695D01*
X97558Y150731D01*
X97576Y150765D01*
X97600Y150794D01*
X97629Y150818D01*
X97662Y150836D01*
X97699Y150847D01*
X97736Y150850D01*
X100106D01*
X100144Y150847D01*
X100180Y150836D01*
X100214Y150818D01*
X100243Y150794D01*
X100267Y150765D01*
X100285Y150731D01*
X100295Y150695D01*
X100299Y150657D01*
Y147500D01*
X100295Y147462D01*
X100285Y147426D01*
X100267Y147393D01*
X100243Y147364D01*
X100214Y147340D01*
X100180Y147322D01*
X100144Y147311D01*
D02*
G37*
G54D25*
X152949Y195949D02*
D03*
X158067D02*
D03*
X155508Y204649D02*
D03*
G54D26*
X244450Y211410D02*
D03*
Y216410D02*
D03*
Y221410D02*
D03*
Y226410D02*
D03*
Y231410D02*
D03*
Y236410D02*
D03*
Y241410D02*
D03*
Y246410D02*
D03*
Y251410D02*
D03*
Y256410D02*
D03*
Y261410D02*
D03*
Y266410D02*
D03*
Y271410D02*
D03*
Y276410D02*
D03*
X313350Y216410D02*
D03*
Y211410D02*
D03*
Y221410D02*
D03*
Y226410D02*
D03*
Y231410D02*
D03*
Y236410D02*
D03*
Y241410D02*
D03*
Y246410D02*
D03*
Y251410D02*
D03*
Y256410D02*
D03*
Y261410D02*
D03*
Y266410D02*
D03*
Y271410D02*
D03*
Y276410D02*
D03*
G54D27*
X256400Y206485D02*
D03*
X261400D02*
D03*
X266400D02*
D03*
X271400D02*
D03*
X276400D02*
D03*
X281400D02*
D03*
X286400D02*
D03*
X291400D02*
D03*
X296400D02*
D03*
X301400D02*
D03*
G54D28*
X267480Y240500D02*
D03*
X272990D02*
D03*
X278500D02*
D03*
Y246010D02*
D03*
Y251520D02*
D03*
X272990D02*
D03*
Y246010D02*
D03*
X267480D02*
D03*
Y251520D02*
D03*
G54D29*
X94197Y145339D02*
D03*
X96165D02*
D03*
X98134D02*
D03*
X100102D02*
D03*
Y152819D02*
D03*
X98134D02*
D03*
X96165D02*
D03*
X94197D02*
D03*
G54D30*
X93681Y134078D02*
D03*
X101949D02*
D03*
X104449Y164578D02*
D03*
X96181D02*
D03*
X134685Y195949D02*
D03*
X142953D02*
D03*
X143000Y206500D02*
D03*
X134732D02*
D03*
X167866Y204500D02*
D03*
X176134D02*
D03*
X200612Y208537D02*
D03*
X208880D02*
D03*
X227972Y191740D02*
D03*
X236240D02*
D03*
X208873Y218484D02*
D03*
X200605D02*
D03*
X200623Y228350D02*
D03*
X208890D02*
D03*
X208890Y238165D02*
D03*
X200623D02*
D03*
X187623Y248164D02*
D03*
X179356D02*
D03*
X179355Y238165D02*
D03*
X187623D02*
D03*
X114268Y49500D02*
D03*
X106000D02*
D03*
X345500Y221000D02*
D03*
X353768D02*
D03*
X353634Y240000D02*
D03*
X345366D02*
D03*
X376732Y198000D02*
D03*
X385000D02*
D03*
X385366Y182000D02*
D03*
Y171500D02*
D03*
X393634D02*
D03*
Y182000D02*
D03*
X353634Y250500D02*
D03*
X345366D02*
D03*
G54D31*
X75112Y145339D02*
D03*
X75075Y160079D02*
D03*
X82555D02*
D03*
X82593Y145339D02*
D03*
X39000Y178500D02*
D03*
X31520D02*
D03*
X136520Y228673D02*
D03*
X144000D02*
D03*
X179760Y228500D02*
D03*
X187240D02*
D03*
X200954Y248200D02*
D03*
X208434D02*
D03*
X223260Y261500D02*
D03*
X230740D02*
D03*
Y271500D02*
D03*
X223260D02*
D03*
X345500Y210000D02*
D03*
X352980D02*
D03*
X403260Y168000D02*
D03*
X410740D02*
D03*
X410756Y202516D02*
D03*
X403275D02*
D03*
G54D32*
X35323Y146303D02*
D03*
X42803D02*
D03*
X39063Y154177D02*
D03*
G54D33*
X410756Y177000D02*
D03*
Y182000D02*
D03*
Y187000D02*
D03*
Y192000D02*
D03*
X430244D02*
D03*
Y187000D02*
D03*
Y182000D02*
D03*
Y177000D02*
D03*
G54D34*
X255563Y184260D02*
D03*
Y191740D02*
D03*
X263437Y188000D02*
D03*
G54D35*
X155508Y221193D02*
D03*
Y224933D02*
D03*
Y228673D02*
D03*
X167358D02*
D03*
Y221193D02*
D03*
G54D36*
X12000Y100232D02*
D03*
Y108500D02*
D03*
X65500Y109000D02*
D03*
Y100732D02*
D03*
G54D37*
X12000Y82233D02*
D03*
Y90500D02*
D03*
M02*
