G04*
G04 #@! TF.GenerationSoftware,Altium Limited,Altium Designer,24.5.2 (23)*
G04*
G04 Layer_Color=32896*
%FSLAX25Y25*%
%MOIN*%
G70*
G04*
G04 #@! TF.SameCoordinates,6455B1CA-3022-4927-84EB-C38AD889BDF6*
G04*
G04*
G04 #@! TF.FilePolarity,Positive*
G04*
G01*
G75*
%ADD11C,0.00600*%
%ADD13C,0.00787*%
%ADD14C,0.02000*%
%ADD18C,0.00500*%
%ADD19C,0.00669*%
%ADD21C,0.01968*%
G36*
X413112Y39686D02*
X413255D01*
Y39542D01*
X413399D01*
Y39399D01*
X413543D01*
Y39255D01*
X413686D01*
Y38968D01*
X413830D01*
Y38681D01*
X413973D01*
Y38537D01*
X414117D01*
Y38250D01*
X414261D01*
Y37963D01*
X414404D01*
Y37819D01*
X414548D01*
Y37532D01*
X414691D01*
Y37245D01*
X414835D01*
Y36957D01*
X414979D01*
Y36814D01*
X415122D01*
Y36527D01*
X415266D01*
Y36239D01*
X415410D01*
Y35952D01*
X415553D01*
Y35809D01*
X415697D01*
Y35521D01*
X415840D01*
Y35234D01*
X415984D01*
Y34947D01*
X416128D01*
Y34660D01*
X416271D01*
Y34516D01*
X416415D01*
Y34229D01*
X416559D01*
Y33942D01*
X416702D01*
Y33654D01*
X416846D01*
Y33511D01*
X416989D01*
Y33223D01*
X417133D01*
Y32936D01*
X417277D01*
Y32649D01*
X417420D01*
Y32505D01*
X417564D01*
Y32218D01*
X417707D01*
Y31931D01*
X417851D01*
Y31787D01*
X417995D01*
Y31500D01*
X418138D01*
Y31213D01*
X418282D01*
Y30926D01*
X418426D01*
Y30638D01*
X418569D01*
Y30495D01*
X418713D01*
Y30207D01*
X418856D01*
Y29920D01*
X419000D01*
Y29633D01*
X419144D01*
Y29489D01*
X419287D01*
Y29202D01*
X419431D01*
Y28915D01*
X419574D01*
Y28628D01*
X419718D01*
Y28484D01*
X419862D01*
Y28197D01*
X420005D01*
Y27910D01*
X420149D01*
Y27622D01*
X420293D01*
Y27479D01*
X420436D01*
Y27191D01*
X420580D01*
Y26904D01*
X420723D01*
Y26617D01*
X420867D01*
Y26473D01*
X421011D01*
Y26186D01*
X421154D01*
Y25899D01*
X421298D01*
Y25755D01*
X421442D01*
Y25468D01*
X421585D01*
Y25181D01*
X421729D01*
Y24894D01*
X421872D01*
Y24606D01*
X422016D01*
Y24463D01*
X422160D01*
Y24175D01*
X422303D01*
Y23888D01*
X422447D01*
Y23745D01*
X422590D01*
Y23458D01*
X422734D01*
Y23170D01*
X422878D01*
Y22883D01*
X423021D01*
Y22596D01*
X423165D01*
Y22452D01*
X423309D01*
Y22165D01*
X423452D01*
Y21878D01*
X423596D01*
Y21590D01*
X423739D01*
Y21447D01*
X423883D01*
Y21160D01*
X424027D01*
Y20872D01*
X424170D01*
Y20729D01*
X424314D01*
Y20441D01*
X424457D01*
Y20154D01*
X424601D01*
Y19867D01*
X424745D01*
Y19723D01*
X424888D01*
Y19436D01*
X425032D01*
Y19149D01*
X425176D01*
Y18862D01*
X425319D01*
Y18575D01*
X425463D01*
Y18431D01*
X425606D01*
Y18144D01*
X425750D01*
Y17856D01*
X425894D01*
Y17569D01*
X426037D01*
Y17425D01*
X426181D01*
Y17138D01*
X426325D01*
Y16851D01*
X426468D01*
Y16564D01*
X426612D01*
Y16420D01*
X426755D01*
Y16133D01*
X426899D01*
Y15846D01*
X427043D01*
Y15559D01*
X427186D01*
Y15415D01*
X427330D01*
Y15128D01*
X427473D01*
Y14840D01*
X427617D01*
Y14553D01*
X427761D01*
Y14410D01*
X427904D01*
Y14122D01*
X428048D01*
Y13835D01*
X428192D01*
Y13548D01*
X428335D01*
Y13404D01*
X428479D01*
Y13117D01*
X428622D01*
Y12830D01*
X428766D01*
Y12542D01*
X428910D01*
Y12399D01*
X429053D01*
Y11968D01*
X429197D01*
Y11537D01*
X429053D01*
Y11250D01*
X428910D01*
Y10963D01*
X428766D01*
Y10819D01*
X428622D01*
Y10676D01*
X396739D01*
Y10819D01*
X396452D01*
Y10963D01*
X396308D01*
Y11106D01*
X396165D01*
Y11394D01*
X396021D01*
Y11968D01*
X396165D01*
Y12399D01*
X396308D01*
Y12686D01*
X396452D01*
Y12973D01*
X396596D01*
Y13117D01*
X396739D01*
Y13404D01*
X396883D01*
Y13691D01*
X397027D01*
Y13979D01*
X397170D01*
Y14122D01*
X397314D01*
Y14410D01*
X397458D01*
Y14697D01*
X397601D01*
Y14840D01*
X397745D01*
Y15128D01*
X397888D01*
Y15415D01*
X398032D01*
Y15702D01*
X398176D01*
Y15846D01*
X398319D01*
Y16133D01*
X398463D01*
Y16420D01*
X398606D01*
Y16707D01*
X398750D01*
Y16851D01*
X398894D01*
Y17138D01*
X399037D01*
Y17425D01*
X399181D01*
Y17713D01*
X399324D01*
Y17856D01*
X399468D01*
Y18144D01*
X399612D01*
Y18431D01*
X399755D01*
Y18718D01*
X399899D01*
Y18862D01*
X400042D01*
Y19149D01*
X400186D01*
Y19436D01*
X400330D01*
Y19723D01*
X400473D01*
Y19867D01*
X400617D01*
Y20154D01*
X400761D01*
Y20441D01*
X400904D01*
Y20729D01*
X401048D01*
Y20872D01*
X401192D01*
Y21160D01*
X401335D01*
Y21447D01*
X401479D01*
Y21734D01*
X401622D01*
Y21878D01*
X401766D01*
Y22165D01*
X401910D01*
Y22452D01*
X402053D01*
Y22739D01*
X402197D01*
Y22883D01*
X402340D01*
Y23170D01*
X402484D01*
Y23458D01*
X402628D01*
Y23745D01*
X402771D01*
Y24032D01*
X402915D01*
Y24175D01*
X403058D01*
Y24463D01*
X403202D01*
Y24750D01*
X403346D01*
Y24894D01*
X403489D01*
Y25181D01*
X403633D01*
Y25468D01*
X403777D01*
Y25755D01*
X403920D01*
Y25899D01*
X404064D01*
Y26186D01*
X404208D01*
Y26473D01*
X404351D01*
Y26761D01*
X404495D01*
Y27048D01*
X404638D01*
Y27191D01*
X404782D01*
Y27479D01*
X404925D01*
Y27766D01*
X405069D01*
Y27910D01*
X405213D01*
Y28197D01*
X405356D01*
Y28484D01*
X405500D01*
Y28771D01*
X405644D01*
Y28915D01*
X405787D01*
Y29202D01*
X405931D01*
Y29489D01*
X406074D01*
Y29777D01*
X406218D01*
Y29920D01*
X406362D01*
Y30207D01*
X406505D01*
Y30495D01*
X406649D01*
Y30782D01*
X406792D01*
Y30926D01*
X406936D01*
Y31213D01*
X407080D01*
Y31500D01*
X407223D01*
Y31787D01*
X407367D01*
Y31931D01*
X407511D01*
Y32218D01*
X407654D01*
Y32505D01*
X407798D01*
Y32792D01*
X407941D01*
Y32936D01*
X408085D01*
Y33223D01*
X408229D01*
Y33511D01*
X408372D01*
Y33798D01*
X408516D01*
Y33942D01*
X408660D01*
Y34229D01*
X408803D01*
Y34516D01*
X408947D01*
Y34803D01*
X409090D01*
Y34947D01*
X409234D01*
Y35234D01*
X409378D01*
Y35521D01*
X409521D01*
Y35809D01*
X409665D01*
Y35952D01*
X409808D01*
Y36239D01*
X409952D01*
Y36527D01*
X410096D01*
Y36814D01*
X410239D01*
Y37101D01*
X410383D01*
Y37245D01*
X410527D01*
Y37532D01*
X410670D01*
Y37819D01*
X410814D01*
Y38106D01*
X410957D01*
Y38250D01*
X411101D01*
Y38537D01*
X411245D01*
Y38824D01*
X411388D01*
Y38968D01*
X411532D01*
Y39255D01*
X411676D01*
Y39542D01*
X411963D01*
Y39686D01*
X412106D01*
Y39830D01*
X413112D01*
Y39686D01*
D02*
G37*
G36*
X461298Y270995D02*
X461585D01*
Y270851D01*
X461729D01*
Y270708D01*
X461872D01*
Y270420D01*
X462016D01*
Y269846D01*
X461872D01*
Y269415D01*
X461729D01*
Y269128D01*
X461585D01*
Y268840D01*
X461442D01*
Y268697D01*
X461298D01*
Y268410D01*
X461154D01*
Y268122D01*
X461011D01*
Y267835D01*
X460867D01*
Y267691D01*
X460723D01*
Y267404D01*
X460580D01*
Y267117D01*
X460436D01*
Y266973D01*
X460293D01*
Y266686D01*
X460149D01*
Y266399D01*
X460005D01*
Y266112D01*
X459862D01*
Y265968D01*
X459718D01*
Y265681D01*
X459575D01*
Y265394D01*
X459431D01*
Y265106D01*
X459287D01*
Y264963D01*
X459144D01*
Y264675D01*
X459000D01*
Y264388D01*
X458856D01*
Y264101D01*
X458713D01*
Y263958D01*
X458569D01*
Y263670D01*
X458426D01*
Y263383D01*
X458282D01*
Y263096D01*
X458138D01*
Y262952D01*
X457995D01*
Y262665D01*
X457851D01*
Y262378D01*
X457707D01*
Y262090D01*
X457564D01*
Y261947D01*
X457420D01*
Y261660D01*
X457277D01*
Y261372D01*
X457133D01*
Y261085D01*
X456989D01*
Y260942D01*
X456846D01*
Y260654D01*
X456702D01*
Y260367D01*
X456559D01*
Y260080D01*
X456415D01*
Y259936D01*
X456271D01*
Y259649D01*
X456128D01*
Y259362D01*
X455984D01*
Y259074D01*
X455840D01*
Y258931D01*
X455697D01*
Y258644D01*
X455553D01*
Y258356D01*
X455410D01*
Y258069D01*
X455266D01*
Y257782D01*
X455122D01*
Y257638D01*
X454979D01*
Y257351D01*
X454835D01*
Y257064D01*
X454692D01*
Y256920D01*
X454548D01*
Y256633D01*
X454404D01*
Y256346D01*
X454261D01*
Y256059D01*
X454117D01*
Y255915D01*
X453973D01*
Y255628D01*
X453830D01*
Y255340D01*
X453686D01*
Y255053D01*
X453543D01*
Y254766D01*
X453399D01*
Y254622D01*
X453255D01*
Y254335D01*
X453112D01*
Y254048D01*
X452968D01*
Y253904D01*
X452824D01*
Y253617D01*
X452681D01*
Y253330D01*
X452537D01*
Y253043D01*
X452394D01*
Y252899D01*
X452250D01*
Y252612D01*
X452106D01*
Y252325D01*
X451963D01*
Y252037D01*
X451819D01*
Y251894D01*
X451676D01*
Y251606D01*
X451532D01*
Y251319D01*
X451388D01*
Y251032D01*
X451245D01*
Y250888D01*
X451101D01*
Y250601D01*
X450957D01*
Y250314D01*
X450814D01*
Y250027D01*
X450670D01*
Y249883D01*
X450527D01*
Y249596D01*
X450383D01*
Y249308D01*
X450239D01*
Y249021D01*
X450096D01*
Y248878D01*
X449952D01*
Y248590D01*
X449809D01*
Y248303D01*
X449665D01*
Y248016D01*
X449521D01*
Y247872D01*
X449378D01*
Y247585D01*
X449234D01*
Y247298D01*
X449090D01*
Y247011D01*
X448947D01*
Y246867D01*
X448803D01*
Y246580D01*
X448660D01*
Y246292D01*
X448516D01*
Y246005D01*
X448372D01*
Y245862D01*
X448229D01*
Y245574D01*
X448085D01*
Y245287D01*
X447941D01*
Y245000D01*
X447798D01*
Y244713D01*
X447654D01*
Y244569D01*
X447511D01*
Y244282D01*
X447367D01*
Y243995D01*
X447223D01*
Y243707D01*
X447080D01*
Y243564D01*
X446936D01*
Y243277D01*
X446793D01*
Y242989D01*
X446649D01*
Y242846D01*
X446505D01*
Y242559D01*
X446362D01*
Y242271D01*
X446074D01*
Y242128D01*
X445931D01*
Y241984D01*
X444925D01*
Y242128D01*
X444782D01*
Y242271D01*
X444638D01*
Y242415D01*
X444495D01*
Y242559D01*
X444351D01*
Y242846D01*
X444207D01*
Y243133D01*
X444064D01*
Y243277D01*
X443920D01*
Y243564D01*
X443777D01*
Y243851D01*
X443633D01*
Y243995D01*
X443489D01*
Y244282D01*
X443346D01*
Y244569D01*
X443202D01*
Y244856D01*
X443058D01*
Y245000D01*
X442915D01*
Y245287D01*
X442771D01*
Y245574D01*
X442628D01*
Y245862D01*
X442484D01*
Y246005D01*
X442340D01*
Y246292D01*
X442197D01*
Y246580D01*
X442053D01*
Y246867D01*
X441910D01*
Y247154D01*
X441766D01*
Y247298D01*
X441622D01*
Y247585D01*
X441479D01*
Y247872D01*
X441335D01*
Y248160D01*
X441191D01*
Y248303D01*
X441048D01*
Y248590D01*
X440904D01*
Y248878D01*
X440761D01*
Y249165D01*
X440617D01*
Y249308D01*
X440473D01*
Y249596D01*
X440330D01*
Y249883D01*
X440186D01*
Y250027D01*
X440043D01*
Y250314D01*
X439899D01*
Y250601D01*
X439755D01*
Y250888D01*
X439612D01*
Y251175D01*
X439468D01*
Y251319D01*
X439325D01*
Y251606D01*
X439181D01*
Y251894D01*
X439037D01*
Y252181D01*
X438894D01*
Y252325D01*
X438750D01*
Y252612D01*
X438606D01*
Y252899D01*
X438463D01*
Y253186D01*
X438319D01*
Y253330D01*
X438175D01*
Y253617D01*
X438032D01*
Y253904D01*
X437888D01*
Y254191D01*
X437745D01*
Y254335D01*
X437601D01*
Y254622D01*
X437457D01*
Y254910D01*
X437314D01*
Y255197D01*
X437170D01*
Y255340D01*
X437027D01*
Y255628D01*
X436883D01*
Y255915D01*
X436739D01*
Y256059D01*
X436596D01*
Y256346D01*
X436452D01*
Y256633D01*
X436308D01*
Y256920D01*
X436165D01*
Y257207D01*
X436021D01*
Y257351D01*
X435878D01*
Y257638D01*
X435734D01*
Y257926D01*
X435590D01*
Y258069D01*
X435447D01*
Y258356D01*
X435303D01*
Y258644D01*
X435160D01*
Y258931D01*
X435016D01*
Y259218D01*
X434872D01*
Y259362D01*
X434729D01*
Y259649D01*
X434585D01*
Y259936D01*
X434442D01*
Y260223D01*
X434298D01*
Y260367D01*
X434154D01*
Y260654D01*
X434011D01*
Y260942D01*
X433867D01*
Y261085D01*
X433723D01*
Y261372D01*
X433580D01*
Y261660D01*
X433436D01*
Y261947D01*
X433293D01*
Y262090D01*
X433149D01*
Y262378D01*
X433005D01*
Y262665D01*
X432862D01*
Y262952D01*
X432718D01*
Y263239D01*
X432575D01*
Y263383D01*
X432431D01*
Y263670D01*
X432287D01*
Y263958D01*
X432144D01*
Y264245D01*
X432000D01*
Y264388D01*
X431856D01*
Y264675D01*
X431713D01*
Y264963D01*
X431569D01*
Y265250D01*
X431426D01*
Y265394D01*
X431282D01*
Y265681D01*
X431138D01*
Y265968D01*
X430995D01*
Y266255D01*
X430851D01*
Y266399D01*
X430707D01*
Y266686D01*
X430564D01*
Y266973D01*
X430420D01*
Y267261D01*
X430277D01*
Y267404D01*
X430133D01*
Y267691D01*
X429989D01*
Y267979D01*
X429846D01*
Y268266D01*
X429702D01*
Y268410D01*
X429559D01*
Y268697D01*
X429415D01*
Y268984D01*
X429271D01*
Y269271D01*
X429128D01*
Y269415D01*
X428984D01*
Y269846D01*
X428840D01*
Y270277D01*
X428984D01*
Y270564D01*
X429128D01*
Y270851D01*
X429271D01*
Y270995D01*
X429415D01*
Y271138D01*
X461298D01*
Y270995D01*
D02*
G37*
%LPC*%
G36*
X412681Y36814D02*
X412537D01*
Y36670D01*
X412394D01*
Y36383D01*
X412250D01*
Y36096D01*
X412106D01*
Y35809D01*
X411963D01*
Y35665D01*
X411819D01*
Y35378D01*
X411676D01*
Y35090D01*
X411532D01*
Y34803D01*
X411388D01*
Y34660D01*
X411245D01*
Y34372D01*
X411101D01*
Y34085D01*
X410957D01*
Y33798D01*
X410814D01*
Y33654D01*
X410670D01*
Y33367D01*
X410527D01*
Y33080D01*
X410383D01*
Y32792D01*
X410239D01*
Y32649D01*
X410096D01*
Y32362D01*
X409952D01*
Y32074D01*
X409808D01*
Y31787D01*
X409665D01*
Y31644D01*
X409521D01*
Y31356D01*
X409378D01*
Y31069D01*
X409234D01*
Y30782D01*
X409090D01*
Y30495D01*
X408947D01*
Y30351D01*
X408803D01*
Y30064D01*
X408660D01*
Y29777D01*
X408516D01*
Y29489D01*
X408372D01*
Y29346D01*
X408229D01*
Y29059D01*
X408085D01*
Y28771D01*
X407941D01*
Y28484D01*
X407798D01*
Y28197D01*
X407654D01*
Y28053D01*
X407511D01*
Y27766D01*
X407367D01*
Y27479D01*
X407223D01*
Y27191D01*
X407080D01*
Y27048D01*
X406936D01*
Y26761D01*
X406792D01*
Y26473D01*
X406649D01*
Y26186D01*
X406505D01*
Y26043D01*
X406362D01*
Y25755D01*
X406218D01*
Y25468D01*
X406074D01*
Y25181D01*
X405931D01*
Y25037D01*
X405787D01*
Y24750D01*
X405644D01*
Y24463D01*
X405500D01*
Y24175D01*
X405356D01*
Y24032D01*
X405213D01*
Y23745D01*
X405069D01*
Y23458D01*
X404925D01*
Y23170D01*
X404782D01*
Y23027D01*
X404638D01*
Y22739D01*
X404495D01*
Y22452D01*
X404351D01*
Y22165D01*
X404208D01*
Y22021D01*
X404064D01*
Y21734D01*
X403920D01*
Y21447D01*
X403777D01*
Y21160D01*
X403633D01*
Y21016D01*
X403489D01*
Y20729D01*
X403346D01*
Y20441D01*
X403202D01*
Y20154D01*
X403058D01*
Y19867D01*
X402915D01*
Y19723D01*
X402771D01*
Y19436D01*
X402628D01*
Y19149D01*
X402484D01*
Y18862D01*
X402340D01*
Y18718D01*
X402197D01*
Y18431D01*
X402053D01*
Y18144D01*
X401910D01*
Y17856D01*
X401766D01*
Y17569D01*
X401622D01*
Y17425D01*
X401479D01*
Y17138D01*
X401335D01*
Y16851D01*
X401192D01*
Y16564D01*
X401048D01*
Y16420D01*
X400904D01*
Y16133D01*
X400761D01*
Y15846D01*
X400617D01*
Y15559D01*
X400473D01*
Y15271D01*
X400330D01*
Y15128D01*
X400186D01*
Y14840D01*
X400042D01*
Y14553D01*
X399899D01*
Y14266D01*
X399755D01*
Y14122D01*
X399612D01*
Y13835D01*
X399468D01*
Y13548D01*
X399324D01*
Y13404D01*
X399181D01*
Y13117D01*
X399037D01*
Y12830D01*
X426037D01*
Y12686D01*
X426181D01*
Y13117D01*
X426037D01*
Y13261D01*
X425894D01*
Y13548D01*
X425750D01*
Y13835D01*
X425606D01*
Y14122D01*
X425463D01*
Y14266D01*
X425319D01*
Y14553D01*
X425176D01*
Y14840D01*
X425032D01*
Y15128D01*
X424888D01*
Y15415D01*
X424745D01*
Y15559D01*
X424601D01*
Y15846D01*
X424457D01*
Y16133D01*
X424314D01*
Y16420D01*
X424170D01*
Y16564D01*
X424027D01*
Y16851D01*
X423883D01*
Y17138D01*
X423739D01*
Y17425D01*
X423596D01*
Y17569D01*
X423452D01*
Y17856D01*
X423309D01*
Y18144D01*
X423165D01*
Y18431D01*
X423021D01*
Y18575D01*
X422878D01*
Y18862D01*
X422734D01*
Y19149D01*
X422590D01*
Y19436D01*
X422447D01*
Y19580D01*
X422303D01*
Y19867D01*
X422160D01*
Y20154D01*
X422016D01*
Y20441D01*
X421872D01*
Y20585D01*
X421729D01*
Y20872D01*
X421585D01*
Y21160D01*
X421442D01*
Y21447D01*
X421298D01*
Y21590D01*
X421154D01*
Y21878D01*
X421011D01*
Y22165D01*
X420867D01*
Y22452D01*
X420723D01*
Y22739D01*
X420580D01*
Y22883D01*
X420436D01*
Y23170D01*
X420293D01*
Y23458D01*
X420149D01*
Y23745D01*
X420005D01*
Y23888D01*
X419862D01*
Y24175D01*
X419718D01*
Y24463D01*
X419574D01*
Y24606D01*
X419431D01*
Y24894D01*
X419287D01*
Y25181D01*
X419144D01*
Y25468D01*
X419000D01*
Y25755D01*
X418856D01*
Y25899D01*
X418713D01*
Y26186D01*
X418569D01*
Y26473D01*
X418426D01*
Y26761D01*
X418282D01*
Y27048D01*
X418138D01*
Y27191D01*
X417995D01*
Y27479D01*
X417851D01*
Y27766D01*
X417707D01*
Y28053D01*
X417564D01*
Y28197D01*
X417420D01*
Y28484D01*
X417277D01*
Y28771D01*
X417133D01*
Y29059D01*
X416989D01*
Y29346D01*
X416846D01*
Y29489D01*
X416702D01*
Y29777D01*
X416559D01*
Y30064D01*
X416415D01*
Y30207D01*
X416271D01*
Y30495D01*
X416128D01*
Y30782D01*
X415984D01*
Y31069D01*
X415840D01*
Y31356D01*
X415697D01*
Y31500D01*
X415553D01*
Y31787D01*
X415410D01*
Y32074D01*
X415266D01*
Y32362D01*
X415122D01*
Y32505D01*
X414979D01*
Y32792D01*
X414835D01*
Y33080D01*
X414691D01*
Y33367D01*
X414548D01*
Y33511D01*
X414404D01*
Y33798D01*
X414261D01*
Y34085D01*
X414117D01*
Y34372D01*
X413973D01*
Y34516D01*
X413830D01*
Y34803D01*
X413686D01*
Y35090D01*
X413543D01*
Y35378D01*
X413399D01*
Y35521D01*
X413255D01*
Y35809D01*
X413112D01*
Y36096D01*
X412968D01*
Y36383D01*
X412824D01*
Y36527D01*
X412681D01*
Y36814D01*
D02*
G37*
%LPD*%
G36*
X413686Y31069D02*
X413973D01*
Y30638D01*
X414117D01*
Y30064D01*
X414261D01*
Y29633D01*
X414404D01*
Y29059D01*
X414548D01*
Y28628D01*
X414691D01*
Y28053D01*
X414835D01*
Y27622D01*
X414979D01*
Y27048D01*
X415122D01*
Y26617D01*
X415266D01*
Y26043D01*
X415410D01*
Y25612D01*
X415553D01*
Y25037D01*
X415697D01*
Y24606D01*
X415840D01*
Y24032D01*
X415984D01*
Y23601D01*
X416128D01*
Y23027D01*
X416271D01*
Y22596D01*
X416415D01*
Y22165D01*
X416559D01*
Y21590D01*
X416702D01*
Y21303D01*
X416415D01*
Y21447D01*
X416128D01*
Y21590D01*
X415840D01*
Y21734D01*
X415553D01*
Y21878D01*
X415266D01*
Y22021D01*
X414979D01*
Y22165D01*
X414835D01*
Y22309D01*
X414548D01*
Y22452D01*
X414261D01*
Y22596D01*
X413973D01*
Y22739D01*
X413686D01*
Y22883D01*
X413399D01*
Y23027D01*
X413255D01*
Y23170D01*
X412968D01*
Y23314D01*
X412681D01*
Y23458D01*
X412537D01*
Y22452D01*
X412681D01*
Y21590D01*
X412824D01*
Y20585D01*
X412968D01*
Y19580D01*
X413112D01*
Y18575D01*
X413255D01*
Y17569D01*
X413399D01*
Y17138D01*
X413686D01*
Y17425D01*
X413830D01*
Y17569D01*
X413973D01*
Y17856D01*
X414261D01*
Y17282D01*
X414117D01*
Y16420D01*
X413973D01*
Y15415D01*
X413830D01*
Y14553D01*
X413686D01*
Y13979D01*
X413543D01*
Y14122D01*
X413399D01*
Y14266D01*
X413255D01*
Y14553D01*
X413112D01*
Y14697D01*
X412968D01*
Y14840D01*
X412824D01*
Y15128D01*
X412681D01*
Y15271D01*
X412537D01*
Y15559D01*
X412394D01*
Y15702D01*
X412250D01*
Y15989D01*
X412106D01*
Y16133D01*
X411963D01*
Y16420D01*
X411819D01*
Y16564D01*
X411676D01*
Y16851D01*
X411532D01*
Y16995D01*
X411388D01*
Y17138D01*
X411245D01*
Y17425D01*
X411388D01*
Y17282D01*
X411676D01*
Y17138D01*
X411819D01*
Y16995D01*
X412106D01*
Y16851D01*
X412250D01*
Y17425D01*
X412106D01*
Y17856D01*
X411963D01*
Y18431D01*
X411819D01*
Y18862D01*
X411676D01*
Y19436D01*
X411532D01*
Y20011D01*
X411388D01*
Y20441D01*
X411245D01*
Y21016D01*
X411101D01*
Y21590D01*
X410957D01*
Y22021D01*
X410814D01*
Y22596D01*
X410670D01*
Y23027D01*
X410527D01*
Y23745D01*
X410383D01*
Y24175D01*
X410239D01*
Y24750D01*
X410096D01*
Y25181D01*
X409952D01*
Y25755D01*
X409808D01*
Y25899D01*
X410239D01*
Y25755D01*
X410527D01*
Y25612D01*
X410814D01*
Y25468D01*
X411101D01*
Y25324D01*
X411245D01*
Y25181D01*
X411532D01*
Y25037D01*
X411819D01*
Y24894D01*
X412106D01*
Y24750D01*
X412250D01*
Y24606D01*
X412537D01*
Y24463D01*
X412824D01*
Y24319D01*
X413112D01*
Y24175D01*
X413399D01*
Y24032D01*
X413543D01*
Y23888D01*
X413830D01*
Y23745D01*
X414117D01*
Y23601D01*
X414404D01*
Y23745D01*
X414261D01*
Y24175D01*
X414117D01*
Y24463D01*
X413973D01*
Y24750D01*
X413830D01*
Y25037D01*
X413686D01*
Y25324D01*
X413543D01*
Y25755D01*
X413399D01*
Y26043D01*
X413255D01*
Y26330D01*
X413112D01*
Y26617D01*
X412968D01*
Y27048D01*
X412824D01*
Y27335D01*
X412681D01*
Y27622D01*
X412537D01*
Y27910D01*
X412394D01*
Y28340D01*
X412250D01*
Y28628D01*
X412106D01*
Y28915D01*
X411963D01*
Y29202D01*
X411819D01*
Y29633D01*
X411676D01*
Y29920D01*
X411532D01*
Y30207D01*
X411388D01*
Y30638D01*
X411245D01*
Y30926D01*
X411101D01*
Y31069D01*
X411245D01*
Y31213D01*
X413686D01*
Y31069D01*
D02*
G37*
%LPC*%
G36*
X432000Y269128D02*
X431856D01*
Y268697D01*
X432000D01*
Y268553D01*
X432144D01*
Y268266D01*
X432287D01*
Y267979D01*
X432431D01*
Y267691D01*
X432575D01*
Y267548D01*
X432718D01*
Y267261D01*
X432862D01*
Y266973D01*
X433005D01*
Y266686D01*
X433149D01*
Y266399D01*
X433293D01*
Y266255D01*
X433436D01*
Y265968D01*
X433580D01*
Y265681D01*
X433723D01*
Y265394D01*
X433867D01*
Y265250D01*
X434011D01*
Y264963D01*
X434154D01*
Y264675D01*
X434298D01*
Y264388D01*
X434442D01*
Y264245D01*
X434585D01*
Y263958D01*
X434729D01*
Y263670D01*
X434872D01*
Y263383D01*
X435016D01*
Y263239D01*
X435160D01*
Y262952D01*
X435303D01*
Y262665D01*
X435447D01*
Y262378D01*
X435590D01*
Y262234D01*
X435734D01*
Y261947D01*
X435878D01*
Y261660D01*
X436021D01*
Y261372D01*
X436165D01*
Y261229D01*
X436308D01*
Y260942D01*
X436452D01*
Y260654D01*
X436596D01*
Y260367D01*
X436739D01*
Y260223D01*
X436883D01*
Y259936D01*
X437027D01*
Y259649D01*
X437170D01*
Y259362D01*
X437314D01*
Y259074D01*
X437457D01*
Y258931D01*
X437601D01*
Y258644D01*
X437745D01*
Y258356D01*
X437888D01*
Y258069D01*
X438032D01*
Y257926D01*
X438175D01*
Y257638D01*
X438319D01*
Y257351D01*
X438463D01*
Y257207D01*
X438606D01*
Y256920D01*
X438750D01*
Y256633D01*
X438894D01*
Y256346D01*
X439037D01*
Y256059D01*
X439181D01*
Y255915D01*
X439325D01*
Y255628D01*
X439468D01*
Y255340D01*
X439612D01*
Y255053D01*
X439755D01*
Y254766D01*
X439899D01*
Y254622D01*
X440043D01*
Y254335D01*
X440186D01*
Y254048D01*
X440330D01*
Y253761D01*
X440473D01*
Y253617D01*
X440617D01*
Y253330D01*
X440761D01*
Y253043D01*
X440904D01*
Y252755D01*
X441048D01*
Y252468D01*
X441191D01*
Y252325D01*
X441335D01*
Y252037D01*
X441479D01*
Y251750D01*
X441622D01*
Y251606D01*
X441766D01*
Y251319D01*
X441910D01*
Y251032D01*
X442053D01*
Y250745D01*
X442197D01*
Y250458D01*
X442340D01*
Y250314D01*
X442484D01*
Y250027D01*
X442628D01*
Y249739D01*
X442771D01*
Y249452D01*
X442915D01*
Y249308D01*
X443058D01*
Y249021D01*
X443202D01*
Y248734D01*
X443346D01*
Y248447D01*
X443489D01*
Y248303D01*
X443633D01*
Y248016D01*
X443777D01*
Y247729D01*
X443920D01*
Y247442D01*
X444064D01*
Y247298D01*
X444207D01*
Y247011D01*
X444351D01*
Y246723D01*
X444495D01*
Y246436D01*
X444638D01*
Y246292D01*
X444782D01*
Y246005D01*
X444925D01*
Y245718D01*
X445069D01*
Y245431D01*
X445213D01*
Y245287D01*
X445356D01*
Y245000D01*
X445500D01*
Y245144D01*
X445644D01*
Y245431D01*
X445787D01*
Y245718D01*
X445931D01*
Y246005D01*
X446074D01*
Y246149D01*
X446218D01*
Y246436D01*
X446362D01*
Y246723D01*
X446505D01*
Y247011D01*
X446649D01*
Y247154D01*
X446793D01*
Y247442D01*
X446936D01*
Y247729D01*
X447080D01*
Y248016D01*
X447223D01*
Y248160D01*
X447367D01*
Y248447D01*
X447511D01*
Y248734D01*
X447654D01*
Y249021D01*
X447798D01*
Y249165D01*
X447941D01*
Y249452D01*
X448085D01*
Y249739D01*
X448229D01*
Y250027D01*
X448372D01*
Y250170D01*
X448516D01*
Y250458D01*
X448660D01*
Y250745D01*
X448803D01*
Y251032D01*
X448947D01*
Y251319D01*
X449090D01*
Y251463D01*
X449234D01*
Y251750D01*
X449378D01*
Y252037D01*
X449521D01*
Y252325D01*
X449665D01*
Y252468D01*
X449809D01*
Y252755D01*
X449952D01*
Y253043D01*
X450096D01*
Y253330D01*
X450239D01*
Y253617D01*
X450383D01*
Y253761D01*
X450527D01*
Y254048D01*
X450670D01*
Y254335D01*
X450814D01*
Y254622D01*
X450957D01*
Y254766D01*
X451101D01*
Y255053D01*
X451245D01*
Y255340D01*
X451388D01*
Y255628D01*
X451532D01*
Y255771D01*
X451676D01*
Y256059D01*
X451819D01*
Y256346D01*
X451963D01*
Y256633D01*
X452106D01*
Y256777D01*
X452250D01*
Y257064D01*
X452394D01*
Y257351D01*
X452537D01*
Y257638D01*
X452681D01*
Y257782D01*
X452824D01*
Y258069D01*
X452968D01*
Y258356D01*
X453112D01*
Y258644D01*
X453255D01*
Y258787D01*
X453399D01*
Y259074D01*
X453543D01*
Y259362D01*
X453686D01*
Y259649D01*
X453830D01*
Y259792D01*
X453973D01*
Y260080D01*
X454117D01*
Y260367D01*
X454261D01*
Y260654D01*
X454404D01*
Y260798D01*
X454548D01*
Y261085D01*
X454692D01*
Y261372D01*
X454835D01*
Y261660D01*
X454979D01*
Y261947D01*
X455122D01*
Y262090D01*
X455266D01*
Y262378D01*
X455410D01*
Y262665D01*
X455553D01*
Y262952D01*
X455697D01*
Y263096D01*
X455840D01*
Y263383D01*
X455984D01*
Y263670D01*
X456128D01*
Y263958D01*
X456271D01*
Y264245D01*
X456415D01*
Y264388D01*
X456559D01*
Y264675D01*
X456702D01*
Y264963D01*
X456846D01*
Y265250D01*
X456989D01*
Y265394D01*
X457133D01*
Y265681D01*
X457277D01*
Y265968D01*
X457420D01*
Y266255D01*
X457564D01*
Y266543D01*
X457707D01*
Y266686D01*
X457851D01*
Y266973D01*
X457995D01*
Y267261D01*
X458138D01*
Y267548D01*
X458282D01*
Y267691D01*
X458426D01*
Y267979D01*
X458569D01*
Y268266D01*
X458713D01*
Y268410D01*
X458856D01*
Y268697D01*
X459000D01*
Y268984D01*
X432000D01*
Y269128D01*
D02*
G37*
%LPD*%
G36*
X444495Y267691D02*
X444638D01*
Y267548D01*
X444782D01*
Y267261D01*
X444925D01*
Y267117D01*
X445069D01*
Y266973D01*
X445213D01*
Y266686D01*
X445356D01*
Y266543D01*
X445500D01*
Y266255D01*
X445644D01*
Y266112D01*
X445787D01*
Y265825D01*
X445931D01*
Y265681D01*
X446074D01*
Y265394D01*
X446218D01*
Y265250D01*
X446362D01*
Y264963D01*
X446505D01*
Y264819D01*
X446649D01*
Y264675D01*
X446793D01*
Y264388D01*
X446649D01*
Y264532D01*
X446362D01*
Y264675D01*
X446218D01*
Y264819D01*
X445931D01*
Y264963D01*
X445787D01*
Y264388D01*
X445931D01*
Y263958D01*
X446074D01*
Y263383D01*
X446218D01*
Y262952D01*
X446362D01*
Y262378D01*
X446505D01*
Y261803D01*
X446649D01*
Y261372D01*
X446793D01*
Y260798D01*
X446936D01*
Y260223D01*
X447080D01*
Y259792D01*
X447223D01*
Y259218D01*
X447367D01*
Y258787D01*
X447511D01*
Y258069D01*
X447654D01*
Y257638D01*
X447798D01*
Y257064D01*
X447941D01*
Y256633D01*
X448085D01*
Y256059D01*
X448229D01*
Y255915D01*
X447798D01*
Y256059D01*
X447511D01*
Y256202D01*
X447223D01*
Y256346D01*
X446936D01*
Y256489D01*
X446793D01*
Y256633D01*
X446505D01*
Y256777D01*
X446218D01*
Y256920D01*
X445931D01*
Y257064D01*
X445787D01*
Y257207D01*
X445500D01*
Y257351D01*
X445213D01*
Y257495D01*
X444925D01*
Y257638D01*
X444638D01*
Y257782D01*
X444495D01*
Y257926D01*
X444207D01*
Y258069D01*
X443920D01*
Y258213D01*
X443633D01*
Y258069D01*
X443777D01*
Y257638D01*
X443920D01*
Y257351D01*
X444064D01*
Y257064D01*
X444207D01*
Y256777D01*
X444351D01*
Y256489D01*
X444495D01*
Y256059D01*
X444638D01*
Y255771D01*
X444782D01*
Y255484D01*
X444925D01*
Y255197D01*
X445069D01*
Y254766D01*
X445213D01*
Y254479D01*
X445356D01*
Y254191D01*
X445500D01*
Y253904D01*
X445644D01*
Y253473D01*
X445787D01*
Y253186D01*
X445931D01*
Y252899D01*
X446074D01*
Y252612D01*
X446218D01*
Y252181D01*
X446362D01*
Y251894D01*
X446505D01*
Y251606D01*
X446649D01*
Y251175D01*
X446793D01*
Y250888D01*
X446936D01*
Y250745D01*
X446793D01*
Y250601D01*
X444351D01*
Y250745D01*
X444064D01*
Y251175D01*
X443920D01*
Y251750D01*
X443777D01*
Y252181D01*
X443633D01*
Y252755D01*
X443489D01*
Y253186D01*
X443346D01*
Y253761D01*
X443202D01*
Y254191D01*
X443058D01*
Y254766D01*
X442915D01*
Y255197D01*
X442771D01*
Y255771D01*
X442628D01*
Y256202D01*
X442484D01*
Y256777D01*
X442340D01*
Y257207D01*
X442197D01*
Y257782D01*
X442053D01*
Y258213D01*
X441910D01*
Y258787D01*
X441766D01*
Y259218D01*
X441622D01*
Y259649D01*
X441479D01*
Y260223D01*
X441335D01*
Y260511D01*
X441622D01*
Y260367D01*
X441910D01*
Y260223D01*
X442197D01*
Y260080D01*
X442484D01*
Y259936D01*
X442771D01*
Y259792D01*
X443058D01*
Y259649D01*
X443202D01*
Y259505D01*
X443489D01*
Y259362D01*
X443777D01*
Y259218D01*
X444064D01*
Y259074D01*
X444351D01*
Y258931D01*
X444638D01*
Y258787D01*
X444782D01*
Y258644D01*
X445069D01*
Y258500D01*
X445356D01*
Y258356D01*
X445500D01*
Y259362D01*
X445356D01*
Y260223D01*
X445213D01*
Y261229D01*
X445069D01*
Y262234D01*
X444925D01*
Y263239D01*
X444782D01*
Y264245D01*
X444638D01*
Y264675D01*
X444351D01*
Y264388D01*
X444207D01*
Y264245D01*
X444064D01*
Y263958D01*
X443777D01*
Y264532D01*
X443920D01*
Y265394D01*
X444064D01*
Y266399D01*
X444207D01*
Y267261D01*
X444351D01*
Y267835D01*
X444495D01*
Y267691D01*
D02*
G37*
G54D11*
X301550Y79900D02*
Y134100D01*
X308990D01*
X325010D02*
X332450D01*
Y79900D01*
X325010D01*
X308990D02*
X301550D01*
G54D13*
X32000Y114800D02*
Y123200D01*
X35300D01*
X43700D02*
X47000D01*
Y114800D01*
X43700D01*
X35300D02*
X32000D01*
X91966Y157062D02*
Y160362D01*
Y157062D02*
X100366D01*
Y160362D01*
Y168762D02*
Y172062D01*
X91966D01*
Y168762D01*
X115615Y167324D02*
Y164024D01*
X124015D01*
Y167324D01*
Y175724D02*
Y179024D01*
X115615D01*
Y175724D01*
G54D14*
X397350Y208701D02*
X398360Y208523D01*
X399249Y209036D01*
X399600Y210000D01*
X399249Y210964D01*
X398360Y211477D01*
X397350Y211299D01*
X396691Y210513D01*
Y209487D01*
X397350Y208701D01*
G54D18*
X25594Y6480D02*
X42327D01*
Y28134D01*
X25594D01*
Y6480D01*
X43508Y24000D02*
X45476Y25181D01*
Y22819D01*
X43508Y24000D01*
G54D19*
X15322Y28926D02*
X15847D01*
Y32074D01*
X16372Y31550D01*
X17421Y32074D02*
X18471D01*
X17946D01*
Y29451D01*
X18471Y28926D01*
X18995D01*
X19520Y29451D01*
X16372Y28926D02*
X15322D01*
X70901Y16074D02*
Y12926D01*
X72475D01*
X73000Y13451D01*
Y14500D01*
X72475Y15025D01*
X70901D01*
X71951D02*
X73000Y16074D01*
X74050D02*
X75099D01*
X74574D01*
Y12926D01*
X74050Y13451D01*
X39436Y109926D02*
Y113074D01*
X37861D01*
X37337Y112549D01*
Y111500D01*
X37861Y110975D01*
X39436D01*
X38386D02*
X37337Y109926D01*
X36287D02*
X35238D01*
X35762D01*
Y113074D01*
X36287Y112549D01*
X33663D02*
X33138Y113074D01*
X32089D01*
X31564Y112549D01*
Y110450D01*
X32089Y109926D01*
X33138D01*
X33663Y110450D01*
Y112549D01*
X87591Y156804D02*
Y158903D01*
X89166D01*
X88641Y157854D01*
Y157329D01*
X89166Y156804D01*
X90215D01*
X90740Y157329D01*
Y158379D01*
X90215Y158903D01*
X90740Y159953D02*
X89690Y161003D01*
Y160478D02*
Y162052D01*
X90740D02*
X87591D01*
Y160478D01*
X88116Y159953D01*
X89166D01*
X89690Y160478D01*
X125241Y174293D02*
X128389D01*
Y175868D01*
X127865Y176393D01*
X126815D01*
X126290Y175868D01*
Y174293D01*
Y175343D02*
X125241Y176393D01*
Y179016D02*
X128389D01*
X126815Y177442D01*
Y179541D01*
X301953Y153449D02*
X303528Y151874D01*
X301429D01*
X301953Y153449D02*
Y150300D01*
X305102D02*
X305627D01*
Y153449D01*
X306151Y152924D01*
X307201D02*
Y151874D01*
X307726Y151349D01*
X309300D01*
Y150300D02*
Y153449D01*
X307726D01*
X307201Y152924D01*
X308250Y151349D02*
X307201Y150300D01*
X306151D02*
X305102D01*
G54D21*
X442784Y11468D02*
X448032D01*
Y19340D01*
X523394Y19358D02*
Y11487D01*
X528641Y19358D01*
Y11487D01*
X526469Y267660D02*
X531716Y275532D01*
Y267660D01*
X526469D02*
Y275532D01*
X470716Y277031D02*
X465469D01*
Y269160D01*
M02*
