G04*
G04 #@! TF.GenerationSoftware,Altium Limited,Altium Designer,24.5.2 (23)*
G04*
G04 Layer_Color=8388736*
%FSLAX25Y25*%
%MOIN*%
G70*
G04*
G04 #@! TF.SameCoordinates,6455B1CA-3022-4927-84EB-C38AD889BDF6*
G04*
G04*
G04 #@! TF.FilePolarity,Negative*
G04*
G01*
G75*
%ADD25R,0.02000X0.05200*%
%ADD26R,0.05900X0.03500*%
%ADD27R,0.03500X0.05900*%
%ADD28R,0.03500X0.03500*%
%ADD32R,0.03500X0.03200*%
%ADD34R,0.03200X0.03500*%
%ADD35R,0.04750X0.02000*%
%ADD38R,0.06699X0.03943*%
%ADD39R,0.01384X0.02368*%
%ADD40R,0.05118X0.06496*%
%ADD41R,0.05709X0.06496*%
G04:AMPARAMS|DCode=42|XSize=83.46mil|YSize=29.53mil|CornerRadius=5.91mil|HoleSize=0mil|Usage=FLASHONLY|Rotation=180.000|XOffset=0mil|YOffset=0mil|HoleType=Round|Shape=RoundedRectangle|*
%AMROUNDEDRECTD42*
21,1,0.08346,0.01772,0,0,180.0*
21,1,0.07165,0.02953,0,0,180.0*
1,1,0.01181,-0.03583,0.00886*
1,1,0.01181,0.03583,0.00886*
1,1,0.01181,0.03583,-0.00886*
1,1,0.01181,-0.03583,-0.00886*
%
%ADD42ROUNDEDRECTD42*%
%ADD43R,0.06496X0.05118*%
%ADD44R,0.04331X0.05315*%
%ADD45C,0.08071*%
%ADD46O,0.05200X0.07087*%
%ADD47R,0.05200X0.07087*%
%ADD48O,0.06496X0.08465*%
%ADD49O,0.06535X0.08504*%
%ADD50C,0.08858*%
%ADD51R,0.08858X0.08858*%
%ADD52R,0.05900X0.05900*%
%ADD53C,0.08465*%
%ADD54R,0.07677X0.10433*%
%ADD55O,0.07677X0.10433*%
%ADD56O,0.05906X0.07874*%
%ADD57R,0.06181X0.06181*%
%ADD58C,0.06181*%
%ADD59C,0.08268*%
%ADD60R,0.08268X0.08268*%
%ADD61R,0.08386X0.08386*%
%ADD62C,0.08209*%
%ADD63C,0.08386*%
%ADD64C,0.06102*%
%ADD65R,0.06102X0.06102*%
%ADD66C,0.05800*%
%ADD67R,0.05000X0.05000*%
%ADD68C,0.05000*%
%ADD69R,0.03947X0.03947*%
%ADD70C,0.03947*%
%ADD71C,0.02568*%
%ADD72C,0.05400*%
%ADD73C,0.06591*%
%ADD74C,0.02953*%
G54D25*
X152949Y195949D02*
D03*
X158067D02*
D03*
X155508Y204649D02*
D03*
G54D26*
X244450Y211410D02*
D03*
Y216410D02*
D03*
Y221410D02*
D03*
Y226410D02*
D03*
Y231410D02*
D03*
Y236410D02*
D03*
Y241410D02*
D03*
Y246410D02*
D03*
Y251410D02*
D03*
Y256410D02*
D03*
Y261410D02*
D03*
Y266410D02*
D03*
Y271410D02*
D03*
Y276410D02*
D03*
X313350Y216410D02*
D03*
Y211410D02*
D03*
Y221410D02*
D03*
Y226410D02*
D03*
Y231410D02*
D03*
Y236410D02*
D03*
Y241410D02*
D03*
Y246410D02*
D03*
Y251410D02*
D03*
Y256410D02*
D03*
Y261410D02*
D03*
Y266410D02*
D03*
Y271410D02*
D03*
Y276410D02*
D03*
G54D27*
X256400Y206485D02*
D03*
X261400D02*
D03*
X266400D02*
D03*
X271400D02*
D03*
X276400D02*
D03*
X281400D02*
D03*
X286400D02*
D03*
X291400D02*
D03*
X296400D02*
D03*
X301400D02*
D03*
G54D28*
X267480Y240500D02*
D03*
X272990D02*
D03*
X278500D02*
D03*
Y246010D02*
D03*
Y251520D02*
D03*
X272990D02*
D03*
Y246010D02*
D03*
X267480D02*
D03*
Y251520D02*
D03*
G54D32*
X35323Y146303D02*
D03*
X42803D02*
D03*
X39063Y154177D02*
D03*
G54D34*
X255563Y184260D02*
D03*
Y191740D02*
D03*
X263437Y188000D02*
D03*
G54D35*
X155508Y221193D02*
D03*
Y224933D02*
D03*
Y228673D02*
D03*
X167358D02*
D03*
Y221193D02*
D03*
G54D38*
X97150Y149079D02*
D03*
G54D39*
X94197Y145339D02*
D03*
X96165D02*
D03*
X98134D02*
D03*
X100102D02*
D03*
Y152819D02*
D03*
X98134D02*
D03*
X96165D02*
D03*
X94197D02*
D03*
G54D40*
X93681Y134078D02*
D03*
X101949D02*
D03*
X104449Y164578D02*
D03*
X96181D02*
D03*
X134685Y195949D02*
D03*
X142953D02*
D03*
X143000Y206500D02*
D03*
X134732D02*
D03*
X167866Y204500D02*
D03*
X176134D02*
D03*
X200612Y208537D02*
D03*
X208880D02*
D03*
X227972Y191740D02*
D03*
X236240D02*
D03*
X208873Y218484D02*
D03*
X200605D02*
D03*
X200623Y228350D02*
D03*
X208890D02*
D03*
X208890Y238165D02*
D03*
X200623D02*
D03*
X187623Y248164D02*
D03*
X179356D02*
D03*
X179355Y238165D02*
D03*
X187623D02*
D03*
X114268Y49500D02*
D03*
X106000D02*
D03*
X345500Y221000D02*
D03*
X353768D02*
D03*
X353634Y240000D02*
D03*
X345366D02*
D03*
X376732Y198000D02*
D03*
X385000D02*
D03*
X385366Y182000D02*
D03*
Y171500D02*
D03*
X393634D02*
D03*
Y182000D02*
D03*
X353634Y250500D02*
D03*
X345366D02*
D03*
G54D41*
X75112Y145339D02*
D03*
X75075Y160079D02*
D03*
X82555D02*
D03*
X82593Y145339D02*
D03*
X39000Y178500D02*
D03*
X31520D02*
D03*
X136520Y228673D02*
D03*
X144000D02*
D03*
X179760Y228500D02*
D03*
X187240D02*
D03*
X200954Y248200D02*
D03*
X208434D02*
D03*
X223260Y261500D02*
D03*
X230740D02*
D03*
Y271500D02*
D03*
X223260D02*
D03*
X345500Y210000D02*
D03*
X352980D02*
D03*
X403260Y168000D02*
D03*
X410740D02*
D03*
X410756Y202516D02*
D03*
X403275D02*
D03*
G54D42*
X410756Y177000D02*
D03*
Y182000D02*
D03*
Y187000D02*
D03*
Y192000D02*
D03*
X430244D02*
D03*
Y187000D02*
D03*
Y182000D02*
D03*
Y177000D02*
D03*
G54D43*
X12000Y100232D02*
D03*
Y108500D02*
D03*
X65500Y109000D02*
D03*
Y100732D02*
D03*
G54D44*
X12000Y82233D02*
D03*
Y90500D02*
D03*
G54D45*
X59000Y193000D02*
D03*
X69000D02*
D03*
X79000D02*
D03*
X49000D02*
D03*
X39000D02*
D03*
X29000D02*
D03*
X89000Y279102D02*
D03*
X79000D02*
D03*
X69000D02*
D03*
X59000D02*
D03*
X49000D02*
D03*
X39000D02*
D03*
G54D46*
X65264Y88000D02*
D03*
X75500D02*
D03*
X164264Y171500D02*
D03*
X174500D02*
D03*
G54D47*
X85736Y88000D02*
D03*
X184736Y171500D02*
D03*
G54D48*
X108815Y141579D02*
D03*
X118815D02*
D03*
G54D49*
X109815Y185579D02*
D03*
X119815D02*
D03*
G54D50*
X499500Y25000D02*
D03*
X490315Y256000D02*
D03*
G54D51*
X479815Y25000D02*
D03*
X510000Y256000D02*
D03*
G54D52*
X177000Y275500D02*
D03*
G54D53*
X12000Y119000D02*
D03*
X39000Y165000D02*
D03*
X82525Y131579D02*
D03*
X142953Y185445D02*
D03*
X199000Y193000D02*
D03*
X230000Y206500D02*
D03*
X334500Y221000D02*
D03*
X370000Y240000D02*
D03*
X385500Y161000D02*
D03*
X110000Y243500D02*
D03*
Y228500D02*
D03*
X124693Y221193D02*
D03*
X126500Y36000D02*
D03*
X91500Y14500D02*
D03*
G54D54*
X131500Y263500D02*
D03*
X373500Y269000D02*
D03*
G54D55*
X145280Y263500D02*
D03*
X387280Y269000D02*
D03*
G54D56*
X365000Y210000D02*
D03*
X375000D02*
D03*
X385000D02*
D03*
G54D57*
X404500Y256000D02*
D03*
G54D58*
X404500Y226000D02*
D03*
Y236000D02*
D03*
Y246000D02*
D03*
G54D59*
X195267Y47396D02*
D03*
Y136372D02*
D03*
X362590Y107238D02*
D03*
G54D60*
X362590Y76530D02*
D03*
G54D61*
X465122Y124516D02*
D03*
X533622D02*
D03*
G54D62*
X441500Y132390D02*
D03*
X510000D02*
D03*
G54D63*
X417878Y76484D02*
D03*
X465122D02*
D03*
X486378D02*
D03*
X533622D02*
D03*
X486378Y124516D02*
D03*
X417878D02*
D03*
G54D64*
X335500Y198500D02*
D03*
X345500D02*
D03*
X355500D02*
D03*
Y168500D02*
D03*
X345500D02*
D03*
G54D65*
X335500Y168500D02*
D03*
G54D66*
X136000Y13000D02*
D03*
X146000D02*
D03*
X156000D02*
D03*
G54D67*
X65130Y14500D02*
D03*
X78100Y49500D02*
D03*
G54D68*
X54500Y14500D02*
D03*
X86000Y49500D02*
D03*
G54D69*
X36421Y24000D02*
D03*
G54D70*
X31500Y24000D02*
D03*
G54D71*
X94984Y149079D02*
D03*
X99315D02*
D03*
G54D72*
X106000Y76000D02*
D03*
X125685D02*
D03*
G54D73*
X145000Y47000D02*
D03*
X152500D02*
D03*
X160177Y46866D02*
D03*
X167677D02*
D03*
X175177D02*
D03*
X175354Y135709D02*
D03*
X167854D02*
D03*
X160354D02*
D03*
X153000Y135500D02*
D03*
X145500D02*
D03*
G54D74*
X12000Y76500D02*
D03*
X39500Y30500D02*
D03*
X43500D02*
D03*
Y26500D02*
D03*
X40000D02*
D03*
X47500D02*
D03*
Y30500D02*
D03*
X98232Y118268D02*
D03*
X128083Y167390D02*
D03*
X104449Y172213D02*
D03*
X134732Y214768D02*
D03*
X164500Y238170D02*
D03*
X178000Y217000D02*
D03*
X181000D02*
D03*
Y212500D02*
D03*
X178000D02*
D03*
X176147Y196835D02*
D03*
X194112Y208537D02*
D03*
X221472Y191740D02*
D03*
X224500Y211500D02*
D03*
X255563Y178240D02*
D03*
X304590Y221410D02*
D03*
Y226410D02*
D03*
X323500Y211500D02*
D03*
X345366Y230634D02*
D03*
X361135Y221000D02*
D03*
X369866Y198000D02*
D03*
X393634Y188259D02*
D03*
X403260Y161740D02*
D03*
X410740Y158760D02*
D03*
X439500Y161500D02*
D03*
X439000Y166500D02*
D03*
X439495Y153891D02*
D03*
X440000Y146500D02*
D03*
X442500Y141500D02*
D03*
X442610Y150816D02*
D03*
X443500Y157500D02*
D03*
X441500Y174500D02*
D03*
X453500Y191000D02*
D03*
X459000Y192000D02*
D03*
X465000Y190500D02*
D03*
X467500Y193500D02*
D03*
X470500Y196000D02*
D03*
X473500Y199500D02*
D03*
X476000Y202000D02*
D03*
X467500Y209000D02*
D03*
X509500Y184500D02*
D03*
Y172000D02*
D03*
Y159500D02*
D03*
Y148000D02*
D03*
X510000Y195000D02*
D03*
Y205500D02*
D03*
Y215500D02*
D03*
Y225000D02*
D03*
Y235000D02*
D03*
Y244000D02*
D03*
X465000Y206500D02*
D03*
X462000Y203000D02*
D03*
X459000Y200500D02*
D03*
X456500Y197500D02*
D03*
X452500D02*
D03*
X448500D02*
D03*
X444500D02*
D03*
X440500D02*
D03*
X436500D02*
D03*
X438390Y192000D02*
D03*
X437500Y178500D02*
D03*
X435000Y170500D02*
D03*
X410756Y196256D02*
D03*
X362500Y250500D02*
D03*
X321500Y276500D02*
D03*
X322500Y261500D02*
D03*
Y256500D02*
D03*
X338000Y250500D02*
D03*
X322432Y241432D02*
D03*
Y236433D02*
D03*
X282000Y251500D02*
D03*
X275666Y246023D02*
D03*
X273000Y255000D02*
D03*
X272980Y237020D02*
D03*
X281980Y240490D02*
D03*
X264000Y246020D02*
D03*
Y251530D02*
D03*
Y240510D02*
D03*
X230740Y253740D02*
D03*
X224910Y236410D02*
D03*
X227410Y231410D02*
D03*
X235000Y221500D02*
D03*
X223260Y253260D02*
D03*
X194454Y248200D02*
D03*
X194123Y238165D02*
D03*
X194123Y228350D02*
D03*
X194105Y218484D02*
D03*
X187240Y222000D02*
D03*
X181000Y221500D02*
D03*
X178000D02*
D03*
X164500Y248164D02*
D03*
X144000Y235000D02*
D03*
X149533Y224967D02*
D03*
X129827Y228673D02*
D03*
X96166Y177138D02*
D03*
X77815Y169079D02*
D03*
X74315D02*
D03*
X70797Y169106D02*
D03*
X67297D02*
D03*
X60601Y169094D02*
D03*
X57101D02*
D03*
X64119Y169067D02*
D03*
X75112Y153293D02*
D03*
X42803Y137917D02*
D03*
X250090Y276410D02*
D03*
X422077Y70781D02*
D03*
X426500Y70500D02*
D03*
Y66000D02*
D03*
X431000D02*
D03*
Y61500D02*
D03*
X435500Y62000D02*
D03*
Y57500D02*
D03*
X439000D02*
D03*
Y53500D02*
D03*
X447500Y45000D02*
D03*
X451500D02*
D03*
Y40000D02*
D03*
X456000Y41000D02*
D03*
Y36000D02*
D03*
X461500Y34500D02*
D03*
Y29500D02*
D03*
X466000Y31500D02*
D03*
X467000Y25500D02*
D03*
X472000Y27000D02*
D03*
X501000Y34000D02*
D03*
X497644Y37928D02*
D03*
X501500Y42000D02*
D03*
X498000Y46000D02*
D03*
Y53500D02*
D03*
X501500Y50500D02*
D03*
Y58000D02*
D03*
X497500Y61500D02*
D03*
X498500Y67500D02*
D03*
X494000Y67000D02*
D03*
X443500Y54000D02*
D03*
Y49500D02*
D03*
X447500D02*
D03*
M02*
