G04*
G04 #@! TF.GenerationSoftware,Altium Limited,Altium Designer,24.5.2 (23)*
G04*
G04 Layer_Color=255*
%FSLAX25Y25*%
%MOIN*%
G70*
G04*
G04 #@! TF.SameCoordinates,3B6B5729-B230-409A-876F-4F857109EF60*
G04*
G04*
G04 #@! TF.FilePolarity,Positive*
G04*
G01*
G75*
%ADD25C,0.06000*%
%ADD26R,0.04528X0.05906*%
%ADD36R,0.05906X0.04528*%
%ADD48O,0.05200X0.07087*%
%ADD49R,0.05200X0.07087*%
%ADD59R,0.05900X0.05900*%
%ADD64R,0.06181X0.06181*%
%ADD65C,0.06181*%
%ADD73C,0.05800*%
%ADD74R,0.05000X0.05000*%
%ADD75C,0.05000*%
%ADD77C,0.05400*%
%ADD90R,0.06693X0.06693*%
%ADD91C,0.06693*%
%ADD92O,0.07087X0.04449*%
%ADD93R,0.07087X0.04449*%
%ADD94C,0.07480*%
%ADD95O,0.05906X0.07874*%
%ADD96C,0.08268*%
%ADD97R,0.08268X0.08268*%
%ADD98C,0.05900*%
%ADD99C,0.07874*%
%ADD100R,0.07087X0.09843*%
%ADD101O,0.07087X0.09843*%
%ADD102C,0.07677*%
%ADD103R,0.07677X0.07677*%
%ADD104R,0.07795X0.07795*%
%ADD105C,0.07618*%
%ADD106C,0.07795*%
%ADD107C,0.05512*%
%ADD108R,0.05512X0.05512*%
%ADD109C,0.01968*%
%ADD145R,0.13400X0.17700*%
%ADD146O,0.05900X0.07874*%
G54D25*
X145000Y47000D02*
D03*
X152500D02*
D03*
X160177Y46866D02*
D03*
X167677D02*
D03*
X175177D02*
D03*
X175354Y135709D02*
D03*
X167854D02*
D03*
X160354D02*
D03*
X153000Y135500D02*
D03*
X145500D02*
D03*
G54D26*
X35366Y119000D02*
D03*
X43634D02*
D03*
G54D36*
X96166Y160428D02*
D03*
Y168696D02*
D03*
X119815Y167390D02*
D03*
Y175657D02*
D03*
G54D48*
X65264Y88000D02*
D03*
X75500D02*
D03*
X164264Y171500D02*
D03*
X174500D02*
D03*
G54D49*
X85736Y88000D02*
D03*
X184736Y171500D02*
D03*
G54D59*
X177000Y275500D02*
D03*
G54D64*
X404500Y256000D02*
D03*
G54D65*
X404500Y226000D02*
D03*
Y236000D02*
D03*
Y246000D02*
D03*
G54D73*
X136000Y13000D02*
D03*
X146000D02*
D03*
X156000D02*
D03*
G54D74*
X65130Y14500D02*
D03*
X78100Y49500D02*
D03*
G54D75*
X54500Y14500D02*
D03*
X86000Y49500D02*
D03*
G54D77*
X106000Y76000D02*
D03*
X125685D02*
D03*
G54D90*
X32500Y13500D02*
D03*
G54D91*
X22658Y13500D02*
D03*
G54D92*
X24500Y59000D02*
D03*
Y69000D02*
D03*
Y79000D02*
D03*
Y89000D02*
D03*
Y99000D02*
D03*
Y109000D02*
D03*
Y119000D02*
D03*
X55760Y69000D02*
D03*
Y59000D02*
D03*
Y79000D02*
D03*
Y89000D02*
D03*
Y99000D02*
D03*
Y109000D02*
D03*
Y119000D02*
D03*
Y129000D02*
D03*
G54D93*
X24500Y129000D02*
D03*
G54D94*
X59000Y193000D02*
D03*
X69000D02*
D03*
X79000D02*
D03*
X49000D02*
D03*
X39000D02*
D03*
X29000D02*
D03*
X89000Y279102D02*
D03*
X79000D02*
D03*
X69000D02*
D03*
X59000D02*
D03*
X49000D02*
D03*
X39000D02*
D03*
G54D95*
X108815Y141579D02*
D03*
X118815D02*
D03*
X119815Y185579D02*
D03*
X109815D02*
D03*
G54D96*
X499500Y25000D02*
D03*
X490315Y256000D02*
D03*
G54D97*
X479815Y25000D02*
D03*
X510000Y256000D02*
D03*
G54D98*
X177000Y257784D02*
D03*
X202591D02*
D03*
Y275500D02*
D03*
G54D99*
X12000Y119000D02*
D03*
X39000Y165000D02*
D03*
X82525Y131579D02*
D03*
X142953Y185445D02*
D03*
X199000Y193000D02*
D03*
X230000Y206500D02*
D03*
X334500Y221000D02*
D03*
X370000Y240000D02*
D03*
X385500Y161000D02*
D03*
X110000Y243500D02*
D03*
Y228500D02*
D03*
X124693Y221193D02*
D03*
X126500Y36000D02*
D03*
X91500Y14500D02*
D03*
G54D100*
X131500Y263500D02*
D03*
X373500Y269000D02*
D03*
G54D101*
X145280Y263500D02*
D03*
X387280Y269000D02*
D03*
G54D102*
X195267Y47396D02*
D03*
Y136372D02*
D03*
X362590Y107238D02*
D03*
G54D103*
X362590Y76530D02*
D03*
G54D104*
X465122Y124516D02*
D03*
X533622D02*
D03*
G54D105*
X441500Y132390D02*
D03*
X510000D02*
D03*
G54D106*
X417878Y76484D02*
D03*
X465122D02*
D03*
X486378D02*
D03*
X533622D02*
D03*
X486378Y124516D02*
D03*
X417878D02*
D03*
G54D107*
X335500Y198500D02*
D03*
X345500D02*
D03*
X355500D02*
D03*
Y168500D02*
D03*
X345500D02*
D03*
G54D108*
X335500Y168500D02*
D03*
G54D109*
X94984Y149079D02*
D03*
X99315D02*
D03*
G54D145*
X317000Y76500D02*
D03*
Y137500D02*
D03*
G54D146*
X365000Y210000D02*
D03*
X375000D02*
D03*
X385000D02*
D03*
M02*
