G04*
G04 #@! TF.GenerationSoftware,Altium Limited,Altium Designer,24.5.2 (23)*
G04*
G04 Layer_Color=8421504*
%FSLAX25Y25*%
%MOIN*%
G70*
G04*
G04 #@! TF.SameCoordinates,5A7CA482-B8EE-4E14-9011-BDAD66A85337*
G04*
G04*
G04 #@! TF.FilePolarity,Positive*
G04*
G01*
G75*
%ADD21R,0.05118X0.05906*%
%ADD22R,0.03500X0.03500*%
%ADD23R,0.05900X0.03500*%
%ADD24R,0.03500X0.05900*%
%ADD25R,0.04528X0.05906*%
%ADD26R,0.05906X0.04528*%
%ADD27R,0.03500X0.03200*%
%ADD28R,0.03740X0.04724*%
%ADD29C,0.06000*%
%ADD30R,0.05700X0.09100*%
%ADD31R,0.02000X0.05200*%
G04:AMPARAMS|DCode=32|XSize=77.56mil|YSize=23.62mil|CornerRadius=2.95mil|HoleSize=0mil|Usage=FLASHONLY|Rotation=180.000|XOffset=0mil|YOffset=0mil|HoleType=Round|Shape=RoundedRectangle|*
%AMROUNDEDRECTD32*
21,1,0.07756,0.01772,0,0,180.0*
21,1,0.07165,0.02362,0,0,180.0*
1,1,0.00591,-0.03583,0.00886*
1,1,0.00591,0.03583,0.00886*
1,1,0.00591,0.03583,-0.00886*
1,1,0.00591,-0.03583,-0.00886*
%
%ADD32ROUNDEDRECTD32*%
%ADD33R,0.04750X0.02000*%
G54D21*
X31520Y178500D02*
D03*
X39000D02*
D03*
X136520Y228673D02*
D03*
X144000D02*
D03*
X179760Y228500D02*
D03*
X187240D02*
D03*
X200954Y248200D02*
D03*
X208434D02*
D03*
X223260Y261500D02*
D03*
X230740D02*
D03*
Y271500D02*
D03*
X223260D02*
D03*
X345500Y210000D02*
D03*
X352980D02*
D03*
X403260Y168000D02*
D03*
X410740D02*
D03*
X410740Y203500D02*
D03*
X403260D02*
D03*
G54D22*
X267480Y240500D02*
D03*
X272990D02*
D03*
X278500D02*
D03*
Y246010D02*
D03*
X272990D02*
D03*
Y251520D02*
D03*
X278500D02*
D03*
X267480D02*
D03*
Y246010D02*
D03*
G54D23*
X244450Y211410D02*
D03*
Y216410D02*
D03*
Y221410D02*
D03*
Y226410D02*
D03*
Y231410D02*
D03*
Y236410D02*
D03*
Y241410D02*
D03*
Y246410D02*
D03*
Y251410D02*
D03*
Y256410D02*
D03*
Y261410D02*
D03*
Y266410D02*
D03*
Y271410D02*
D03*
Y276410D02*
D03*
X313350Y216410D02*
D03*
Y211410D02*
D03*
Y221410D02*
D03*
Y226410D02*
D03*
Y231410D02*
D03*
Y236410D02*
D03*
Y241410D02*
D03*
Y246410D02*
D03*
Y251410D02*
D03*
Y256410D02*
D03*
Y261410D02*
D03*
Y266410D02*
D03*
Y271410D02*
D03*
Y276410D02*
D03*
G54D24*
X256400Y206485D02*
D03*
X261400D02*
D03*
X266400D02*
D03*
X271400D02*
D03*
X276400D02*
D03*
X281400D02*
D03*
X286400D02*
D03*
X291400D02*
D03*
X296400D02*
D03*
X301400D02*
D03*
G54D25*
X58366Y146500D02*
D03*
X66634D02*
D03*
X134685Y195949D02*
D03*
X142953D02*
D03*
X143000Y206500D02*
D03*
X134732D02*
D03*
X167866Y204500D02*
D03*
X176134D02*
D03*
X200612Y208537D02*
D03*
X208880D02*
D03*
X208873Y218484D02*
D03*
X200605D02*
D03*
X200623Y238165D02*
D03*
X208890D02*
D03*
X187623Y248164D02*
D03*
X179356D02*
D03*
X179355Y238165D02*
D03*
X187623D02*
D03*
X273715Y190850D02*
D03*
X281983D02*
D03*
X345500Y221000D02*
D03*
X353768D02*
D03*
X353634Y240000D02*
D03*
X345366D02*
D03*
X376732Y226500D02*
D03*
X385000D02*
D03*
X353634Y250500D02*
D03*
X345366D02*
D03*
X385366Y182000D02*
D03*
Y171500D02*
D03*
X393634D02*
D03*
Y182000D02*
D03*
X114268Y49500D02*
D03*
X106000D02*
D03*
G54D26*
X12000Y89232D02*
D03*
Y97500D02*
D03*
X70000Y100366D02*
D03*
Y108634D02*
D03*
X195000Y168366D02*
D03*
X207000D02*
D03*
Y176634D02*
D03*
X195000D02*
D03*
G54D27*
X35323Y146303D02*
D03*
X42803D02*
D03*
X39063Y154177D02*
D03*
X281500Y168563D02*
D03*
X277760Y176437D02*
D03*
X285240D02*
D03*
G54D28*
X12000Y71233D02*
D03*
Y79500D02*
D03*
G54D29*
X9500Y32000D02*
D03*
X58000Y298500D02*
D03*
X508500Y292500D02*
D03*
G54D30*
X219500Y156650D02*
D03*
X229500D02*
D03*
X250500Y156150D02*
D03*
X260500D02*
D03*
Y190850D02*
D03*
X250500D02*
D03*
X229500Y191350D02*
D03*
X219500D02*
D03*
G54D31*
X152949Y195949D02*
D03*
X158067D02*
D03*
X155508Y204649D02*
D03*
G54D32*
X410756Y177000D02*
D03*
Y182000D02*
D03*
Y187000D02*
D03*
Y192000D02*
D03*
X430244D02*
D03*
Y187000D02*
D03*
Y182000D02*
D03*
Y177000D02*
D03*
G54D33*
X155508Y221193D02*
D03*
Y224933D02*
D03*
Y228673D02*
D03*
X167358D02*
D03*
Y221193D02*
D03*
M02*
