G04*
G04 #@! TF.GenerationSoftware,Altium Limited,Altium Designer,24.5.2 (23)*
G04*
G04 Layer_Color=65535*
%FSLAX25Y25*%
%MOIN*%
G70*
G04*
G04 #@! TF.SameCoordinates,B8CE7D74-02EB-4A57-BDCD-CCA5CBEBB7DD*
G04*
G04*
G04 #@! TF.FilePolarity,Positive*
G04*
G01*
G75*
%ADD10C,0.00472*%
%ADD11C,0.00600*%
%ADD12C,0.00591*%
%ADD13C,0.00787*%
%ADD14C,0.02000*%
%ADD15C,0.00984*%
%ADD16C,0.01181*%
%ADD17C,0.00276*%
%ADD18C,0.00500*%
%ADD19C,0.00669*%
%ADD20C,0.01000*%
%ADD21C,0.00394*%
%ADD22C,0.01968*%
%ADD23C,0.01394*%
%ADD24C,0.00300*%
G36*
X463085Y272495D02*
X463229D01*
Y272351D01*
X463372D01*
Y272064D01*
X463516D01*
Y271777D01*
X463660D01*
Y271346D01*
X463516D01*
Y270915D01*
X463372D01*
Y270771D01*
X463229D01*
Y270484D01*
X463085D01*
Y270197D01*
X462942D01*
Y269910D01*
X462798D01*
Y269766D01*
X462654D01*
Y269479D01*
X462511D01*
Y269192D01*
X462367D01*
Y268904D01*
X462223D01*
Y268761D01*
X462080D01*
Y268473D01*
X461936D01*
Y268186D01*
X461793D01*
Y267899D01*
X461649D01*
Y267755D01*
X461505D01*
Y267468D01*
X461362D01*
Y267181D01*
X461218D01*
Y266894D01*
X461074D01*
Y266750D01*
X460931D01*
Y266463D01*
X460787D01*
Y266176D01*
X460644D01*
Y265888D01*
X460500D01*
Y265745D01*
X460356D01*
Y265458D01*
X460213D01*
Y265170D01*
X460069D01*
Y264883D01*
X459926D01*
Y264739D01*
X459782D01*
Y264452D01*
X459638D01*
Y264165D01*
X459495D01*
Y263878D01*
X459351D01*
Y263590D01*
X459207D01*
Y263447D01*
X459064D01*
Y263160D01*
X458920D01*
Y262872D01*
X458777D01*
Y262585D01*
X458633D01*
Y262441D01*
X458489D01*
Y262154D01*
X458346D01*
Y261867D01*
X458202D01*
Y261723D01*
X458059D01*
Y261436D01*
X457915D01*
Y261149D01*
X457771D01*
Y260862D01*
X457628D01*
Y260718D01*
X457484D01*
Y260431D01*
X457340D01*
Y260144D01*
X457197D01*
Y259856D01*
X457053D01*
Y259569D01*
X456910D01*
Y259425D01*
X456766D01*
Y259138D01*
X456622D01*
Y258851D01*
X456479D01*
Y258707D01*
X456335D01*
Y258420D01*
X456191D01*
Y258133D01*
X456048D01*
Y257846D01*
X455904D01*
Y257558D01*
X455761D01*
Y257415D01*
X455617D01*
Y257128D01*
X455473D01*
Y256840D01*
X455330D01*
Y256697D01*
X455186D01*
Y256410D01*
X455043D01*
Y256122D01*
X454899D01*
Y255835D01*
X454755D01*
Y255692D01*
X454612D01*
Y255404D01*
X454468D01*
Y255117D01*
X454324D01*
Y254830D01*
X454181D01*
Y254686D01*
X454037D01*
Y254399D01*
X453894D01*
Y254112D01*
X453750D01*
Y253824D01*
X453606D01*
Y253681D01*
X453463D01*
Y253394D01*
X453319D01*
Y253106D01*
X453175D01*
Y252819D01*
X453032D01*
Y252676D01*
X452888D01*
Y252388D01*
X452745D01*
Y252101D01*
X452601D01*
Y251814D01*
X452457D01*
Y251527D01*
X452314D01*
Y251383D01*
X452170D01*
Y251096D01*
X452027D01*
Y250809D01*
X451883D01*
Y250665D01*
X451739D01*
Y250378D01*
X451596D01*
Y250090D01*
X451452D01*
Y249803D01*
X451308D01*
Y249660D01*
X451165D01*
Y249372D01*
X451021D01*
Y249085D01*
X450878D01*
Y248798D01*
X450734D01*
Y248654D01*
X450590D01*
Y248367D01*
X450447D01*
Y248080D01*
X450303D01*
Y247793D01*
X450160D01*
Y247505D01*
X450016D01*
Y247362D01*
X449872D01*
Y247075D01*
X449729D01*
Y246787D01*
X449585D01*
Y246500D01*
X449441D01*
Y246356D01*
X449298D01*
Y246069D01*
X449154D01*
Y245782D01*
X449011D01*
Y245495D01*
X448867D01*
Y245351D01*
X448723D01*
Y245064D01*
X448580D01*
Y244777D01*
X448436D01*
Y244633D01*
X448293D01*
Y244346D01*
X448149D01*
Y244058D01*
X448005D01*
Y243915D01*
X447862D01*
Y243771D01*
X447718D01*
Y243628D01*
X447575D01*
Y243484D01*
X446569D01*
Y243628D01*
X446425D01*
Y243771D01*
X446138D01*
Y244058D01*
X445995D01*
Y244346D01*
X445851D01*
Y244489D01*
X445707D01*
Y244777D01*
X445564D01*
Y245064D01*
X445420D01*
Y245208D01*
X445277D01*
Y245495D01*
X445133D01*
Y245782D01*
X444989D01*
Y246069D01*
X444846D01*
Y246213D01*
X444702D01*
Y246500D01*
X444558D01*
Y246787D01*
X444415D01*
Y247075D01*
X444271D01*
Y247362D01*
X444128D01*
Y247505D01*
X443984D01*
Y247793D01*
X443840D01*
Y248080D01*
X443697D01*
Y248367D01*
X443553D01*
Y248511D01*
X443410D01*
Y248798D01*
X443266D01*
Y249085D01*
X443122D01*
Y249372D01*
X442979D01*
Y249516D01*
X442835D01*
Y249803D01*
X442692D01*
Y250090D01*
X442548D01*
Y250378D01*
X442404D01*
Y250521D01*
X442261D01*
Y250809D01*
X442117D01*
Y251096D01*
X441973D01*
Y251383D01*
X441830D01*
Y251527D01*
X441686D01*
Y251814D01*
X441543D01*
Y252101D01*
X441399D01*
Y252388D01*
X441255D01*
Y252532D01*
X441112D01*
Y252819D01*
X440968D01*
Y253106D01*
X440825D01*
Y253394D01*
X440681D01*
Y253537D01*
X440537D01*
Y253824D01*
X440394D01*
Y254112D01*
X440250D01*
Y254399D01*
X440106D01*
Y254542D01*
X439963D01*
Y254830D01*
X439819D01*
Y255117D01*
X439676D01*
Y255404D01*
X439532D01*
Y255548D01*
X439388D01*
Y255835D01*
X439245D01*
Y256122D01*
X439101D01*
Y256266D01*
X438957D01*
Y256553D01*
X438814D01*
Y256840D01*
X438670D01*
Y257128D01*
X438527D01*
Y257415D01*
X438383D01*
Y257558D01*
X438239D01*
Y257846D01*
X438096D01*
Y258133D01*
X437952D01*
Y258420D01*
X437809D01*
Y258564D01*
X437665D01*
Y258851D01*
X437521D01*
Y259138D01*
X437378D01*
Y259282D01*
X437234D01*
Y259569D01*
X437090D01*
Y259856D01*
X436947D01*
Y260144D01*
X436803D01*
Y260431D01*
X436660D01*
Y260575D01*
X436516D01*
Y260862D01*
X436372D01*
Y261149D01*
X436229D01*
Y261436D01*
X436085D01*
Y261580D01*
X435942D01*
Y261867D01*
X435798D01*
Y262154D01*
X435654D01*
Y262441D01*
X435511D01*
Y262585D01*
X435367D01*
Y262872D01*
X435223D01*
Y263160D01*
X435080D01*
Y263447D01*
X434936D01*
Y263590D01*
X434793D01*
Y263878D01*
X434649D01*
Y264165D01*
X434505D01*
Y264452D01*
X434362D01*
Y264596D01*
X434218D01*
Y264883D01*
X434074D01*
Y265170D01*
X433931D01*
Y265458D01*
X433787D01*
Y265601D01*
X433644D01*
Y265888D01*
X433500D01*
Y266176D01*
X433356D01*
Y266463D01*
X433213D01*
Y266606D01*
X433069D01*
Y266894D01*
X432926D01*
Y267181D01*
X432782D01*
Y267468D01*
X432638D01*
Y267612D01*
X432495D01*
Y267899D01*
X432351D01*
Y268186D01*
X432207D01*
Y268473D01*
X432064D01*
Y268617D01*
X431920D01*
Y268904D01*
X431777D01*
Y269192D01*
X431633D01*
Y269335D01*
X431489D01*
Y269622D01*
X431346D01*
Y269910D01*
X431202D01*
Y270197D01*
X431059D01*
Y270340D01*
X430915D01*
Y270628D01*
X430771D01*
Y270915D01*
X430628D01*
Y271346D01*
X430484D01*
Y271920D01*
X430628D01*
Y272207D01*
X430771D01*
Y272351D01*
X430915D01*
Y272495D01*
X431202D01*
Y272638D01*
X463085D01*
Y272495D01*
D02*
G37*
G36*
X94596Y143746D02*
X94817Y143525D01*
X94937Y143235D01*
Y143079D01*
Y142922D01*
X94817Y142633D01*
X94596Y142411D01*
X94306Y142291D01*
X93993D01*
X93704Y142411D01*
X93482Y142633D01*
X93362Y142922D01*
Y143079D01*
Y143235D01*
X93482Y143525D01*
X93704Y143746D01*
X93993Y143866D01*
X94306D01*
X94596Y143746D01*
D02*
G37*
G36*
X412894Y39686D02*
X413037D01*
Y39542D01*
X413324D01*
Y39255D01*
X413468D01*
Y38968D01*
X413612D01*
Y38824D01*
X413755D01*
Y38537D01*
X413899D01*
Y38250D01*
X414043D01*
Y38106D01*
X414186D01*
Y37819D01*
X414330D01*
Y37532D01*
X414473D01*
Y37245D01*
X414617D01*
Y37101D01*
X414761D01*
Y36814D01*
X414904D01*
Y36527D01*
X415048D01*
Y36239D01*
X415192D01*
Y35952D01*
X415335D01*
Y35809D01*
X415479D01*
Y35521D01*
X415622D01*
Y35234D01*
X415766D01*
Y34947D01*
X415910D01*
Y34803D01*
X416053D01*
Y34516D01*
X416197D01*
Y34229D01*
X416340D01*
Y33942D01*
X416484D01*
Y33798D01*
X416628D01*
Y33511D01*
X416771D01*
Y33223D01*
X416915D01*
Y32936D01*
X417059D01*
Y32792D01*
X417202D01*
Y32505D01*
X417346D01*
Y32218D01*
X417489D01*
Y31931D01*
X417633D01*
Y31787D01*
X417777D01*
Y31500D01*
X417920D01*
Y31213D01*
X418064D01*
Y30926D01*
X418207D01*
Y30782D01*
X418351D01*
Y30495D01*
X418495D01*
Y30207D01*
X418638D01*
Y29920D01*
X418782D01*
Y29777D01*
X418926D01*
Y29489D01*
X419069D01*
Y29202D01*
X419213D01*
Y28915D01*
X419356D01*
Y28771D01*
X419500D01*
Y28484D01*
X419644D01*
Y28197D01*
X419787D01*
Y27910D01*
X419931D01*
Y27766D01*
X420075D01*
Y27479D01*
X420218D01*
Y27191D01*
X420362D01*
Y27048D01*
X420505D01*
Y26761D01*
X420649D01*
Y26473D01*
X420793D01*
Y26186D01*
X420936D01*
Y25899D01*
X421080D01*
Y25755D01*
X421223D01*
Y25468D01*
X421367D01*
Y25181D01*
X421511D01*
Y24894D01*
X421654D01*
Y24750D01*
X421798D01*
Y24463D01*
X421942D01*
Y24175D01*
X422085D01*
Y24032D01*
X422229D01*
Y23745D01*
X422372D01*
Y23458D01*
X422516D01*
Y23170D01*
X422660D01*
Y22883D01*
X422803D01*
Y22739D01*
X422947D01*
Y22452D01*
X423090D01*
Y22165D01*
X423234D01*
Y21878D01*
X423378D01*
Y21734D01*
X423521D01*
Y21447D01*
X423665D01*
Y21160D01*
X423808D01*
Y20872D01*
X423952D01*
Y20729D01*
X424096D01*
Y20441D01*
X424239D01*
Y20154D01*
X424383D01*
Y19867D01*
X424527D01*
Y19723D01*
X424670D01*
Y19436D01*
X424814D01*
Y19149D01*
X424957D01*
Y18862D01*
X425101D01*
Y18718D01*
X425245D01*
Y18431D01*
X425388D01*
Y18144D01*
X425532D01*
Y17856D01*
X425675D01*
Y17713D01*
X425819D01*
Y17425D01*
X425963D01*
Y17138D01*
X426106D01*
Y16851D01*
X426250D01*
Y16707D01*
X426394D01*
Y16420D01*
X426537D01*
Y16133D01*
X426681D01*
Y15846D01*
X426825D01*
Y15702D01*
X426968D01*
Y15415D01*
X427112D01*
Y15128D01*
X427255D01*
Y14840D01*
X427399D01*
Y14697D01*
X427543D01*
Y14410D01*
X427686D01*
Y14122D01*
X427830D01*
Y13979D01*
X427973D01*
Y13691D01*
X428117D01*
Y13404D01*
X428261D01*
Y13117D01*
X428404D01*
Y12973D01*
X428548D01*
Y12686D01*
X428691D01*
Y12399D01*
X428835D01*
Y11968D01*
X428979D01*
Y11394D01*
X428835D01*
Y11106D01*
X428691D01*
Y10963D01*
X428548D01*
Y10819D01*
X428261D01*
Y10676D01*
X396378D01*
Y10819D01*
X396234D01*
Y10963D01*
X396090D01*
Y11250D01*
X395947D01*
Y11537D01*
X395803D01*
Y11968D01*
X395947D01*
Y12399D01*
X396090D01*
Y12542D01*
X396234D01*
Y12830D01*
X396378D01*
Y13117D01*
X396521D01*
Y13404D01*
X396665D01*
Y13548D01*
X396809D01*
Y13835D01*
X396952D01*
Y14122D01*
X397096D01*
Y14410D01*
X397239D01*
Y14553D01*
X397383D01*
Y14840D01*
X397527D01*
Y15128D01*
X397670D01*
Y15415D01*
X397814D01*
Y15559D01*
X397957D01*
Y15846D01*
X398101D01*
Y16133D01*
X398245D01*
Y16420D01*
X398388D01*
Y16564D01*
X398532D01*
Y16851D01*
X398675D01*
Y17138D01*
X398819D01*
Y17425D01*
X398963D01*
Y17569D01*
X399106D01*
Y17856D01*
X399250D01*
Y18144D01*
X399394D01*
Y18431D01*
X399537D01*
Y18575D01*
X399681D01*
Y18862D01*
X399825D01*
Y19149D01*
X399968D01*
Y19436D01*
X400112D01*
Y19723D01*
X400255D01*
Y19867D01*
X400399D01*
Y20154D01*
X400542D01*
Y20441D01*
X400686D01*
Y20729D01*
X400830D01*
Y20872D01*
X400973D01*
Y21160D01*
X401117D01*
Y21447D01*
X401261D01*
Y21590D01*
X401404D01*
Y21878D01*
X401548D01*
Y22165D01*
X401691D01*
Y22452D01*
X401835D01*
Y22596D01*
X401979D01*
Y22883D01*
X402122D01*
Y23170D01*
X402266D01*
Y23458D01*
X402410D01*
Y23745D01*
X402553D01*
Y23888D01*
X402697D01*
Y24175D01*
X402840D01*
Y24463D01*
X402984D01*
Y24606D01*
X403128D01*
Y24894D01*
X403271D01*
Y25181D01*
X403415D01*
Y25468D01*
X403558D01*
Y25755D01*
X403702D01*
Y25899D01*
X403846D01*
Y26186D01*
X403989D01*
Y26473D01*
X404133D01*
Y26617D01*
X404277D01*
Y26904D01*
X404420D01*
Y27191D01*
X404564D01*
Y27479D01*
X404707D01*
Y27622D01*
X404851D01*
Y27910D01*
X404995D01*
Y28197D01*
X405138D01*
Y28484D01*
X405282D01*
Y28628D01*
X405426D01*
Y28915D01*
X405569D01*
Y29202D01*
X405713D01*
Y29489D01*
X405856D01*
Y29633D01*
X406000D01*
Y29920D01*
X406144D01*
Y30207D01*
X406287D01*
Y30495D01*
X406431D01*
Y30638D01*
X406574D01*
Y30926D01*
X406718D01*
Y31213D01*
X406862D01*
Y31500D01*
X407005D01*
Y31787D01*
X407149D01*
Y31931D01*
X407293D01*
Y32218D01*
X407436D01*
Y32505D01*
X407580D01*
Y32649D01*
X407723D01*
Y32936D01*
X407867D01*
Y33223D01*
X408011D01*
Y33511D01*
X408154D01*
Y33654D01*
X408298D01*
Y33942D01*
X408441D01*
Y34229D01*
X408585D01*
Y34516D01*
X408729D01*
Y34660D01*
X408872D01*
Y34947D01*
X409016D01*
Y35234D01*
X409160D01*
Y35521D01*
X409303D01*
Y35809D01*
X409447D01*
Y35952D01*
X409590D01*
Y36239D01*
X409734D01*
Y36527D01*
X409878D01*
Y36814D01*
X410021D01*
Y36957D01*
X410165D01*
Y37245D01*
X410309D01*
Y37532D01*
X410452D01*
Y37819D01*
X410596D01*
Y37963D01*
X410739D01*
Y38250D01*
X410883D01*
Y38537D01*
X411027D01*
Y38681D01*
X411170D01*
Y38968D01*
X411314D01*
Y39255D01*
X411457D01*
Y39399D01*
X411601D01*
Y39542D01*
X411745D01*
Y39686D01*
X411888D01*
Y39830D01*
X412894D01*
Y39686D01*
D02*
G37*
%LPC*%
G36*
X460644Y270628D02*
X460500D01*
Y270484D01*
X433500D01*
Y270197D01*
X433644D01*
Y269910D01*
X433787D01*
Y269766D01*
X433931D01*
Y269479D01*
X434074D01*
Y269192D01*
X434218D01*
Y269048D01*
X434362D01*
Y268761D01*
X434505D01*
Y268473D01*
X434649D01*
Y268186D01*
X434793D01*
Y268042D01*
X434936D01*
Y267755D01*
X435080D01*
Y267468D01*
X435223D01*
Y267181D01*
X435367D01*
Y266894D01*
X435511D01*
Y266750D01*
X435654D01*
Y266463D01*
X435798D01*
Y266176D01*
X435942D01*
Y265888D01*
X436085D01*
Y265745D01*
X436229D01*
Y265458D01*
X436372D01*
Y265170D01*
X436516D01*
Y264883D01*
X436660D01*
Y264596D01*
X436803D01*
Y264452D01*
X436947D01*
Y264165D01*
X437090D01*
Y263878D01*
X437234D01*
Y263590D01*
X437378D01*
Y263447D01*
X437521D01*
Y263160D01*
X437665D01*
Y262872D01*
X437809D01*
Y262585D01*
X437952D01*
Y262298D01*
X438096D01*
Y262154D01*
X438239D01*
Y261867D01*
X438383D01*
Y261580D01*
X438527D01*
Y261293D01*
X438670D01*
Y261149D01*
X438814D01*
Y260862D01*
X438957D01*
Y260575D01*
X439101D01*
Y260287D01*
X439245D01*
Y260144D01*
X439388D01*
Y259856D01*
X439532D01*
Y259569D01*
X439676D01*
Y259282D01*
X439819D01*
Y259138D01*
X439963D01*
Y258851D01*
X440106D01*
Y258564D01*
X440250D01*
Y258277D01*
X440394D01*
Y258133D01*
X440537D01*
Y257846D01*
X440681D01*
Y257558D01*
X440825D01*
Y257271D01*
X440968D01*
Y257128D01*
X441112D01*
Y256840D01*
X441255D01*
Y256553D01*
X441399D01*
Y256266D01*
X441543D01*
Y256122D01*
X441686D01*
Y255835D01*
X441830D01*
Y255548D01*
X441973D01*
Y255261D01*
X442117D01*
Y255117D01*
X442261D01*
Y254830D01*
X442404D01*
Y254542D01*
X442548D01*
Y254255D01*
X442692D01*
Y253968D01*
X442835D01*
Y253824D01*
X442979D01*
Y253537D01*
X443122D01*
Y253250D01*
X443266D01*
Y252963D01*
X443410D01*
Y252819D01*
X443553D01*
Y252532D01*
X443697D01*
Y252245D01*
X443840D01*
Y251958D01*
X443984D01*
Y251670D01*
X444128D01*
Y251527D01*
X444271D01*
Y251239D01*
X444415D01*
Y250952D01*
X444558D01*
Y250665D01*
X444702D01*
Y250521D01*
X444846D01*
Y250234D01*
X444989D01*
Y249947D01*
X445133D01*
Y249660D01*
X445277D01*
Y249516D01*
X445420D01*
Y249229D01*
X445564D01*
Y248941D01*
X445707D01*
Y248654D01*
X445851D01*
Y248511D01*
X445995D01*
Y248223D01*
X446138D01*
Y247936D01*
X446282D01*
Y247649D01*
X446425D01*
Y247505D01*
X446569D01*
Y247218D01*
X446713D01*
Y246931D01*
X446856D01*
Y246644D01*
X447000D01*
Y246500D01*
X447144D01*
Y246787D01*
X447287D01*
Y246931D01*
X447431D01*
Y247218D01*
X447575D01*
Y247505D01*
X447718D01*
Y247793D01*
X447862D01*
Y247936D01*
X448005D01*
Y248223D01*
X448149D01*
Y248511D01*
X448293D01*
Y248798D01*
X448436D01*
Y248941D01*
X448580D01*
Y249229D01*
X448723D01*
Y249516D01*
X448867D01*
Y249803D01*
X449011D01*
Y249947D01*
X449154D01*
Y250234D01*
X449298D01*
Y250521D01*
X449441D01*
Y250809D01*
X449585D01*
Y250952D01*
X449729D01*
Y251239D01*
X449872D01*
Y251527D01*
X450016D01*
Y251814D01*
X450160D01*
Y251958D01*
X450303D01*
Y252245D01*
X450447D01*
Y252532D01*
X450590D01*
Y252819D01*
X450734D01*
Y253106D01*
X450878D01*
Y253250D01*
X451021D01*
Y253537D01*
X451165D01*
Y253824D01*
X451308D01*
Y253968D01*
X451452D01*
Y254255D01*
X451596D01*
Y254542D01*
X451739D01*
Y254830D01*
X451883D01*
Y255117D01*
X452027D01*
Y255261D01*
X452170D01*
Y255548D01*
X452314D01*
Y255835D01*
X452457D01*
Y256122D01*
X452601D01*
Y256266D01*
X452745D01*
Y256553D01*
X452888D01*
Y256840D01*
X453032D01*
Y257128D01*
X453175D01*
Y257415D01*
X453319D01*
Y257558D01*
X453463D01*
Y257846D01*
X453606D01*
Y258133D01*
X453750D01*
Y258420D01*
X453894D01*
Y258707D01*
X454037D01*
Y258851D01*
X454181D01*
Y259138D01*
X454324D01*
Y259425D01*
X454468D01*
Y259569D01*
X454612D01*
Y259856D01*
X454755D01*
Y260144D01*
X454899D01*
Y260431D01*
X455043D01*
Y260575D01*
X455186D01*
Y260862D01*
X455330D01*
Y261149D01*
X455473D01*
Y261436D01*
X455617D01*
Y261723D01*
X455761D01*
Y261867D01*
X455904D01*
Y262154D01*
X456048D01*
Y262441D01*
X456191D01*
Y262729D01*
X456335D01*
Y262872D01*
X456479D01*
Y263160D01*
X456622D01*
Y263447D01*
X456766D01*
Y263734D01*
X456910D01*
Y263878D01*
X457053D01*
Y264165D01*
X457197D01*
Y264452D01*
X457340D01*
Y264739D01*
X457484D01*
Y264883D01*
X457628D01*
Y265170D01*
X457771D01*
Y265458D01*
X457915D01*
Y265745D01*
X458059D01*
Y265888D01*
X458202D01*
Y266176D01*
X458346D01*
Y266463D01*
X458489D01*
Y266750D01*
X458633D01*
Y266894D01*
X458777D01*
Y267181D01*
X458920D01*
Y267468D01*
X459064D01*
Y267755D01*
X459207D01*
Y267899D01*
X459351D01*
Y268186D01*
X459495D01*
Y268473D01*
X459638D01*
Y268761D01*
X459782D01*
Y269048D01*
X459926D01*
Y269192D01*
X460069D01*
Y269479D01*
X460213D01*
Y269766D01*
X460356D01*
Y270053D01*
X460500D01*
Y270197D01*
X460644D01*
Y270628D01*
D02*
G37*
%LPD*%
G36*
X448149Y268761D02*
X448293D01*
Y267899D01*
X448436D01*
Y266894D01*
X448580D01*
Y266032D01*
X448723D01*
Y265458D01*
X448436D01*
Y265745D01*
X448293D01*
Y265888D01*
X448149D01*
Y266176D01*
X447862D01*
Y265745D01*
X447718D01*
Y264739D01*
X447575D01*
Y263734D01*
X447431D01*
Y262729D01*
X447287D01*
Y261723D01*
X447144D01*
Y260862D01*
X447000D01*
Y259856D01*
X447144D01*
Y260000D01*
X447431D01*
Y260144D01*
X447718D01*
Y260287D01*
X447862D01*
Y260431D01*
X448149D01*
Y260575D01*
X448436D01*
Y260718D01*
X448723D01*
Y260862D01*
X449011D01*
Y261005D01*
X449298D01*
Y261149D01*
X449441D01*
Y261293D01*
X449729D01*
Y261436D01*
X450016D01*
Y261580D01*
X450303D01*
Y261723D01*
X450590D01*
Y261867D01*
X450878D01*
Y262011D01*
X451165D01*
Y261723D01*
X451021D01*
Y261149D01*
X450878D01*
Y260718D01*
X450734D01*
Y260287D01*
X450590D01*
Y259713D01*
X450447D01*
Y259282D01*
X450303D01*
Y258707D01*
X450160D01*
Y258277D01*
X450016D01*
Y257702D01*
X449872D01*
Y257271D01*
X449729D01*
Y256697D01*
X449585D01*
Y256266D01*
X449441D01*
Y255692D01*
X449298D01*
Y255261D01*
X449154D01*
Y254686D01*
X449011D01*
Y254255D01*
X448867D01*
Y253681D01*
X448723D01*
Y253250D01*
X448580D01*
Y252676D01*
X448436D01*
Y252245D01*
X448149D01*
Y252101D01*
X445707D01*
Y252245D01*
X445564D01*
Y252388D01*
X445707D01*
Y252676D01*
X445851D01*
Y253106D01*
X445995D01*
Y253394D01*
X446138D01*
Y253681D01*
X446282D01*
Y254112D01*
X446425D01*
Y254399D01*
X446569D01*
Y254686D01*
X446713D01*
Y254973D01*
X446856D01*
Y255404D01*
X447000D01*
Y255692D01*
X447144D01*
Y255979D01*
X447287D01*
Y256266D01*
X447431D01*
Y256697D01*
X447575D01*
Y256984D01*
X447718D01*
Y257271D01*
X447862D01*
Y257558D01*
X448005D01*
Y257989D01*
X448149D01*
Y258277D01*
X448293D01*
Y258564D01*
X448436D01*
Y258851D01*
X448580D01*
Y259138D01*
X448723D01*
Y259569D01*
X448867D01*
Y259713D01*
X448580D01*
Y259569D01*
X448293D01*
Y259425D01*
X448005D01*
Y259282D01*
X447862D01*
Y259138D01*
X447575D01*
Y258995D01*
X447287D01*
Y258851D01*
X447000D01*
Y258707D01*
X446713D01*
Y258564D01*
X446569D01*
Y258420D01*
X446282D01*
Y258277D01*
X445995D01*
Y258133D01*
X445707D01*
Y257989D01*
X445564D01*
Y257846D01*
X445277D01*
Y257702D01*
X444989D01*
Y257558D01*
X444702D01*
Y257415D01*
X444271D01*
Y257558D01*
X444415D01*
Y258133D01*
X444558D01*
Y258564D01*
X444702D01*
Y259138D01*
X444846D01*
Y259569D01*
X444989D01*
Y260287D01*
X445133D01*
Y260718D01*
X445277D01*
Y261293D01*
X445420D01*
Y261723D01*
X445564D01*
Y262298D01*
X445707D01*
Y262872D01*
X445851D01*
Y263303D01*
X445995D01*
Y263878D01*
X446138D01*
Y264452D01*
X446282D01*
Y264883D01*
X446425D01*
Y265458D01*
X446569D01*
Y265888D01*
X446713D01*
Y266463D01*
X446569D01*
Y266319D01*
X446282D01*
Y266176D01*
X446138D01*
Y266032D01*
X445851D01*
Y265888D01*
X445707D01*
Y266176D01*
X445851D01*
Y266319D01*
X445995D01*
Y266463D01*
X446138D01*
Y266750D01*
X446282D01*
Y266894D01*
X446425D01*
Y267181D01*
X446569D01*
Y267324D01*
X446713D01*
Y267612D01*
X446856D01*
Y267755D01*
X447000D01*
Y268042D01*
X447144D01*
Y268186D01*
X447287D01*
Y268473D01*
X447431D01*
Y268617D01*
X447575D01*
Y268761D01*
X447718D01*
Y269048D01*
X447862D01*
Y269192D01*
X448005D01*
Y269335D01*
X448149D01*
Y268761D01*
D02*
G37*
%LPC*%
G36*
X412463Y36814D02*
X412319D01*
Y36527D01*
X412176D01*
Y36383D01*
X412032D01*
Y36096D01*
X411888D01*
Y35809D01*
X411745D01*
Y35521D01*
X411601D01*
Y35378D01*
X411457D01*
Y35090D01*
X411314D01*
Y34803D01*
X411170D01*
Y34516D01*
X411027D01*
Y34372D01*
X410883D01*
Y34085D01*
X410739D01*
Y33798D01*
X410596D01*
Y33511D01*
X410452D01*
Y33367D01*
X410309D01*
Y33080D01*
X410165D01*
Y32792D01*
X410021D01*
Y32505D01*
X409878D01*
Y32362D01*
X409734D01*
Y32074D01*
X409590D01*
Y31787D01*
X409447D01*
Y31500D01*
X409303D01*
Y31356D01*
X409160D01*
Y31069D01*
X409016D01*
Y30782D01*
X408872D01*
Y30495D01*
X408729D01*
Y30207D01*
X408585D01*
Y30064D01*
X408441D01*
Y29777D01*
X408298D01*
Y29489D01*
X408154D01*
Y29346D01*
X408011D01*
Y29059D01*
X407867D01*
Y28771D01*
X407723D01*
Y28484D01*
X407580D01*
Y28197D01*
X407436D01*
Y28053D01*
X407293D01*
Y27766D01*
X407149D01*
Y27479D01*
X407005D01*
Y27191D01*
X406862D01*
Y27048D01*
X406718D01*
Y26761D01*
X406574D01*
Y26473D01*
X406431D01*
Y26186D01*
X406287D01*
Y25899D01*
X406144D01*
Y25755D01*
X406000D01*
Y25468D01*
X405856D01*
Y25181D01*
X405713D01*
Y24894D01*
X405569D01*
Y24606D01*
X405426D01*
Y24463D01*
X405282D01*
Y24175D01*
X405138D01*
Y23888D01*
X404995D01*
Y23745D01*
X404851D01*
Y23458D01*
X404707D01*
Y23170D01*
X404564D01*
Y22883D01*
X404420D01*
Y22739D01*
X404277D01*
Y22452D01*
X404133D01*
Y22165D01*
X403989D01*
Y21878D01*
X403846D01*
Y21590D01*
X403702D01*
Y21447D01*
X403558D01*
Y21160D01*
X403415D01*
Y20872D01*
X403271D01*
Y20585D01*
X403128D01*
Y20441D01*
X402984D01*
Y20154D01*
X402840D01*
Y19867D01*
X402697D01*
Y19580D01*
X402553D01*
Y19436D01*
X402410D01*
Y19149D01*
X402266D01*
Y18862D01*
X402122D01*
Y18575D01*
X401979D01*
Y18431D01*
X401835D01*
Y18144D01*
X401691D01*
Y17856D01*
X401548D01*
Y17569D01*
X401404D01*
Y17425D01*
X401261D01*
Y17138D01*
X401117D01*
Y16851D01*
X400973D01*
Y16564D01*
X400830D01*
Y16420D01*
X400686D01*
Y16133D01*
X400542D01*
Y15846D01*
X400399D01*
Y15559D01*
X400255D01*
Y15415D01*
X400112D01*
Y15128D01*
X399968D01*
Y14840D01*
X399825D01*
Y14553D01*
X399681D01*
Y14266D01*
X399537D01*
Y14122D01*
X399394D01*
Y13835D01*
X399250D01*
Y13548D01*
X399106D01*
Y13261D01*
X398963D01*
Y13117D01*
X398819D01*
Y12686D01*
X398963D01*
Y12830D01*
X425963D01*
Y13117D01*
X425819D01*
Y13404D01*
X425675D01*
Y13548D01*
X425532D01*
Y13835D01*
X425388D01*
Y14122D01*
X425245D01*
Y14266D01*
X425101D01*
Y14553D01*
X424957D01*
Y14840D01*
X424814D01*
Y15128D01*
X424670D01*
Y15271D01*
X424527D01*
Y15559D01*
X424383D01*
Y15846D01*
X424239D01*
Y16133D01*
X424096D01*
Y16420D01*
X423952D01*
Y16564D01*
X423808D01*
Y16851D01*
X423665D01*
Y17138D01*
X423521D01*
Y17425D01*
X423378D01*
Y17569D01*
X423234D01*
Y17856D01*
X423090D01*
Y18144D01*
X422947D01*
Y18431D01*
X422803D01*
Y18718D01*
X422660D01*
Y18862D01*
X422516D01*
Y19149D01*
X422372D01*
Y19436D01*
X422229D01*
Y19723D01*
X422085D01*
Y19867D01*
X421942D01*
Y20154D01*
X421798D01*
Y20441D01*
X421654D01*
Y20729D01*
X421511D01*
Y21016D01*
X421367D01*
Y21160D01*
X421223D01*
Y21447D01*
X421080D01*
Y21734D01*
X420936D01*
Y22021D01*
X420793D01*
Y22165D01*
X420649D01*
Y22452D01*
X420505D01*
Y22739D01*
X420362D01*
Y23027D01*
X420218D01*
Y23170D01*
X420075D01*
Y23458D01*
X419931D01*
Y23745D01*
X419787D01*
Y24032D01*
X419644D01*
Y24175D01*
X419500D01*
Y24463D01*
X419356D01*
Y24750D01*
X419213D01*
Y25037D01*
X419069D01*
Y25181D01*
X418926D01*
Y25468D01*
X418782D01*
Y25755D01*
X418638D01*
Y26043D01*
X418495D01*
Y26186D01*
X418351D01*
Y26473D01*
X418207D01*
Y26761D01*
X418064D01*
Y27048D01*
X417920D01*
Y27191D01*
X417777D01*
Y27479D01*
X417633D01*
Y27766D01*
X417489D01*
Y28053D01*
X417346D01*
Y28197D01*
X417202D01*
Y28484D01*
X417059D01*
Y28771D01*
X416915D01*
Y29059D01*
X416771D01*
Y29346D01*
X416628D01*
Y29489D01*
X416484D01*
Y29777D01*
X416340D01*
Y30064D01*
X416197D01*
Y30351D01*
X416053D01*
Y30495D01*
X415910D01*
Y30782D01*
X415766D01*
Y31069D01*
X415622D01*
Y31356D01*
X415479D01*
Y31644D01*
X415335D01*
Y31787D01*
X415192D01*
Y32074D01*
X415048D01*
Y32362D01*
X414904D01*
Y32649D01*
X414761D01*
Y32792D01*
X414617D01*
Y33080D01*
X414473D01*
Y33367D01*
X414330D01*
Y33654D01*
X414186D01*
Y33798D01*
X414043D01*
Y34085D01*
X413899D01*
Y34372D01*
X413755D01*
Y34660D01*
X413612D01*
Y34803D01*
X413468D01*
Y35090D01*
X413324D01*
Y35378D01*
X413181D01*
Y35665D01*
X413037D01*
Y35809D01*
X412894D01*
Y36096D01*
X412750D01*
Y36383D01*
X412606D01*
Y36670D01*
X412463D01*
Y36814D01*
D02*
G37*
%LPD*%
G36*
X413755Y31069D02*
X413899D01*
Y30926D01*
X413755D01*
Y30638D01*
X413612D01*
Y30207D01*
X413468D01*
Y29920D01*
X413324D01*
Y29633D01*
X413181D01*
Y29202D01*
X413037D01*
Y28915D01*
X412894D01*
Y28628D01*
X412750D01*
Y28340D01*
X412606D01*
Y27910D01*
X412463D01*
Y27622D01*
X412319D01*
Y27335D01*
X412176D01*
Y27048D01*
X412032D01*
Y26617D01*
X411888D01*
Y26330D01*
X411745D01*
Y26043D01*
X411601D01*
Y25755D01*
X411457D01*
Y25324D01*
X411314D01*
Y25037D01*
X411170D01*
Y24750D01*
X411027D01*
Y24463D01*
X410883D01*
Y24175D01*
X410739D01*
Y23745D01*
X410596D01*
Y23601D01*
X410883D01*
Y23745D01*
X411170D01*
Y23888D01*
X411457D01*
Y24032D01*
X411601D01*
Y24175D01*
X411888D01*
Y24319D01*
X412176D01*
Y24463D01*
X412463D01*
Y24606D01*
X412750D01*
Y24750D01*
X412894D01*
Y24894D01*
X413181D01*
Y25037D01*
X413468D01*
Y25181D01*
X413755D01*
Y25324D01*
X413899D01*
Y25468D01*
X414186D01*
Y25612D01*
X414473D01*
Y25755D01*
X414761D01*
Y25899D01*
X415192D01*
Y25755D01*
X415048D01*
Y25181D01*
X414904D01*
Y24750D01*
X414761D01*
Y24175D01*
X414617D01*
Y23745D01*
X414473D01*
Y23027D01*
X414330D01*
Y22596D01*
X414186D01*
Y22021D01*
X414043D01*
Y21590D01*
X413899D01*
Y21016D01*
X413755D01*
Y20441D01*
X413612D01*
Y20011D01*
X413468D01*
Y19436D01*
X413324D01*
Y18862D01*
X413181D01*
Y18431D01*
X413037D01*
Y17856D01*
X412894D01*
Y17425D01*
X412750D01*
Y16851D01*
X412894D01*
Y16995D01*
X413181D01*
Y17138D01*
X413324D01*
Y17282D01*
X413612D01*
Y17425D01*
X413755D01*
Y17138D01*
X413612D01*
Y16995D01*
X413468D01*
Y16851D01*
X413324D01*
Y16564D01*
X413181D01*
Y16420D01*
X413037D01*
Y16133D01*
X412894D01*
Y15989D01*
X412750D01*
Y15702D01*
X412606D01*
Y15559D01*
X412463D01*
Y15271D01*
X412319D01*
Y15128D01*
X412176D01*
Y14840D01*
X412032D01*
Y14697D01*
X411888D01*
Y14553D01*
X411745D01*
Y14266D01*
X411601D01*
Y14122D01*
X411457D01*
Y13979D01*
X411314D01*
Y14553D01*
X411170D01*
Y15415D01*
X411027D01*
Y16420D01*
X410883D01*
Y17282D01*
X410739D01*
Y17856D01*
X411027D01*
Y17569D01*
X411170D01*
Y17425D01*
X411314D01*
Y17138D01*
X411601D01*
Y17569D01*
X411745D01*
Y18575D01*
X411888D01*
Y19580D01*
X412032D01*
Y20585D01*
X412176D01*
Y21590D01*
X412319D01*
Y22452D01*
X412463D01*
Y23458D01*
X412319D01*
Y23314D01*
X412032D01*
Y23170D01*
X411745D01*
Y23027D01*
X411601D01*
Y22883D01*
X411314D01*
Y22739D01*
X411027D01*
Y22596D01*
X410739D01*
Y22452D01*
X410452D01*
Y22309D01*
X410165D01*
Y22165D01*
X410021D01*
Y22021D01*
X409734D01*
Y21878D01*
X409447D01*
Y21734D01*
X409160D01*
Y21590D01*
X408872D01*
Y21447D01*
X408585D01*
Y21303D01*
X408298D01*
Y21590D01*
X408441D01*
Y22165D01*
X408585D01*
Y22596D01*
X408729D01*
Y23027D01*
X408872D01*
Y23601D01*
X409016D01*
Y24032D01*
X409160D01*
Y24606D01*
X409303D01*
Y25037D01*
X409447D01*
Y25612D01*
X409590D01*
Y26043D01*
X409734D01*
Y26617D01*
X409878D01*
Y27048D01*
X410021D01*
Y27622D01*
X410165D01*
Y28053D01*
X410309D01*
Y28628D01*
X410452D01*
Y29059D01*
X410596D01*
Y29633D01*
X410739D01*
Y30064D01*
X410883D01*
Y30638D01*
X411027D01*
Y31069D01*
X411314D01*
Y31213D01*
X413755D01*
Y31069D01*
D02*
G37*
G54D10*
X99866Y185913D02*
Y193000D01*
Y263866D01*
Y285126D01*
X9315D01*
Y283551D01*
Y271740D01*
Y193000D01*
Y185913D01*
X71520D01*
X99866D01*
X21480Y193989D02*
X21591Y194968D01*
X21480Y195948D01*
X21155Y196878D01*
X20630Y197713D01*
X19933Y198410D01*
X19099Y198934D01*
X18168Y199260D01*
X17189Y199370D01*
X16209Y199260D01*
X15279Y198934D01*
X14445Y198410D01*
X13748Y197713D01*
X13223Y196878D01*
X12898Y195948D01*
X12787Y194968D01*
X12898Y193989D01*
X13223Y193059D01*
X13748Y192224D01*
X14445Y191527D01*
X15279Y191003D01*
X16209Y190677D01*
X17189Y190567D01*
X18169Y190677D01*
X19099Y191003D01*
X19933Y191527D01*
X20630Y192224D01*
X21155Y193059D01*
X21480Y193989D01*
X23095Y200874D02*
X11283D01*
Y189063D01*
X23095D01*
Y200874D01*
G54D11*
X26500Y55250D02*
X52500D01*
Y62301D02*
Y65699D01*
Y72301D02*
Y75699D01*
Y82301D02*
Y85699D01*
Y92301D02*
Y95699D01*
X66200Y49500D02*
X71200D01*
X71712Y50000D02*
Y49000D01*
X71809Y48004D01*
X72001Y47023D01*
X72287Y46065D01*
X72664Y45138D01*
X73129Y44253D01*
X73677Y43416D01*
X74303Y42637D01*
X75002Y41921D01*
X75766Y41276D01*
X76589Y40708D01*
X77463Y40222D01*
X78380Y39823D01*
X79331Y39513D01*
X80308Y39298D01*
X81300Y39177D01*
X82300Y39153D01*
X83298Y39226D01*
X84283Y39394D01*
X85248Y39657D01*
X86183Y40011D01*
X87080Y40454D01*
X87929Y40982D01*
X88724Y41589D01*
X89456Y42270D01*
X90120Y43019D01*
X90707Y43828D01*
X91215Y44690D01*
X91636Y45597D01*
X91968Y46540D01*
X92207Y47512D01*
X92352Y48501D01*
X92400Y49500D01*
Y49500D02*
X92352Y50499D01*
X92207Y51489D01*
X91968Y52460D01*
X91636Y53403D01*
X91215Y54310D01*
X90707Y55172D01*
X90120Y55981D01*
X89456Y56730D01*
X88724Y57411D01*
X87929Y58018D01*
X87080Y58546D01*
X86183Y58989D01*
X85248Y59343D01*
X84283Y59606D01*
X83298Y59775D01*
X82300Y59847D01*
X81300Y59823D01*
X80308Y59702D01*
X79331Y59487D01*
X78380Y59177D01*
X77463Y58778D01*
X76589Y58292D01*
X75766Y57724D01*
X75002Y57079D01*
X74303Y56363D01*
X73677Y55584D01*
X73129Y54747D01*
X72664Y53861D01*
X72287Y52935D01*
X72001Y51977D01*
X71809Y50995D01*
X71712Y50000D01*
X68700Y52000D02*
Y47000D01*
X101296Y61984D02*
X102007Y61282D01*
X102752Y60615D01*
X103529Y59987D01*
X104336Y59398D01*
X105171Y58849D01*
X106032Y58342D01*
X106918Y57879D01*
X107825Y57459D01*
X108751Y57086D01*
X109695Y56758D01*
X110654Y56478D01*
X111626Y56245D01*
X112609Y56061D01*
X113599Y55925D01*
X114594Y55839D01*
X115593Y55801D01*
X116592Y55814D01*
X117589Y55876D01*
X118582Y55987D01*
X119569Y56147D01*
X120546Y56355D01*
X121512Y56612D01*
X122464Y56916D01*
X123399Y57267D01*
X124316Y57663D01*
X125213Y58105D01*
X126086Y58590D01*
X126935Y59118D01*
X127756Y59687D01*
X128548Y60296D01*
X129309Y60944D01*
X130037Y61628D01*
X130731Y62348D01*
X131388Y63101D01*
X132007Y63885D01*
X132586Y64700D01*
X133124Y65542D01*
X133620Y66409D01*
X134073Y67300D01*
X134481Y68212D01*
X134843Y69143D01*
X135159Y70091D01*
X135428Y71054D01*
X135648Y72029D01*
X135820Y73013D01*
X135944Y74005D01*
X136018Y75001D01*
X136042Y76000D01*
X136018Y76999D01*
X135944Y77996D01*
X135820Y78987D01*
X135648Y79971D01*
X135428Y80946D01*
X135159Y81909D01*
X134843Y82857D01*
X134481Y83788D01*
X134073Y84700D01*
X133620Y85591D01*
X133124Y86458D01*
X132586Y87300D01*
X132007Y88115D01*
X131388Y88899D01*
X130731Y89652D01*
X130037Y90372D01*
X129309Y91056D01*
X128548Y91704D01*
X127756Y92313D01*
X126935Y92882D01*
X126086Y93410D01*
X125213Y93895D01*
X124317Y94337D01*
X123399Y94733D01*
X122464Y95084D01*
X121512Y95388D01*
X120546Y95645D01*
X119569Y95853D01*
X118582Y96013D01*
X117589Y96124D01*
X116592Y96186D01*
X115593Y96198D01*
X114594Y96161D01*
X113599Y96075D01*
X112609Y95939D01*
X111626Y95755D01*
X110655Y95522D01*
X109695Y95242D01*
X108751Y94914D01*
X107825Y94541D01*
X106918Y94121D01*
X106032Y93658D01*
X105171Y93151D01*
X104336Y92602D01*
X103529Y92013D01*
X102752Y91385D01*
X102007Y90718D01*
X101296Y90016D01*
X100621Y89280D01*
X99983Y88511D01*
X99384Y87711D01*
X98825Y86883D01*
X98307Y86028D01*
X97833Y85148D01*
X97403Y84246D01*
X97017Y83324D01*
X96678Y82385D01*
X96386Y81429D01*
X96141Y80460D01*
X95945Y79480D01*
X95797Y78492D01*
X95698Y77498D01*
X95649Y76500D01*
Y75500D01*
X95698Y74502D01*
X95797Y73508D01*
X95945Y72520D01*
X96141Y71540D01*
X96386Y70571D01*
X96678Y69616D01*
X97017Y68676D01*
X97402Y67753D01*
X97833Y66852D01*
X98307Y65972D01*
X98825Y65117D01*
X99384Y64289D01*
X99983Y63489D01*
X100621Y62720D01*
X101296Y61984D01*
X92642Y73500D02*
Y78500D01*
X90143Y76000D02*
X95143D01*
X93750Y88000D02*
X93000Y88433D01*
Y87567D01*
X93750Y88000D01*
X85063Y92911D02*
X84579Y93757D01*
X84020Y94555D01*
X83624Y94750D02*
X67376D01*
X66980Y94555D02*
X66534Y93931D01*
X66134Y93276D01*
X67257Y81099D02*
X67925Y80372D01*
X68657Y79709D01*
X69447Y79116D01*
X70288Y78598D01*
X71172Y78160D01*
X72093Y77804D01*
X73043Y77535D01*
X74014Y77353D01*
X74997Y77262D01*
X75984Y77261D01*
X76968Y77351D01*
X77938Y77530D01*
X78889Y77798D01*
X79811Y78152D01*
X80696Y78589D01*
X81538Y79106D01*
X82328Y79697D01*
X83061Y80359D01*
X83731Y81085D01*
X135650Y27674D02*
X156350D01*
Y17195D01*
Y8805D02*
Y7774D01*
X135650D01*
Y8805D01*
X136150Y7774D02*
X155850D01*
X163100Y12567D02*
X163850Y13000D01*
X163100Y13433D01*
Y12567D01*
X135650Y27674D02*
Y17195D01*
X52500Y102301D02*
Y105699D01*
Y112301D02*
Y115699D01*
Y122301D02*
Y125699D01*
Y132750D02*
X27575D01*
X26500Y125140D02*
Y122301D01*
Y115699D02*
Y112301D01*
Y105699D02*
Y102301D01*
Y95699D02*
Y92301D01*
Y85699D02*
Y82301D01*
Y75699D02*
Y72301D01*
Y65699D02*
Y62301D01*
X38651Y131902D02*
X39500Y131550D01*
X40349Y131902D01*
X40700Y132750D01*
X38300D02*
X38651Y131902D01*
X35623Y139813D02*
X35023D01*
X35623D01*
X38233Y147190D02*
X39893D01*
X45263Y149041D02*
Y151439D01*
X39829Y156339D02*
X38169D01*
X32863Y151439D02*
Y149041D01*
X150658Y198772D02*
Y203449D01*
X153198D01*
X157818D02*
X160358D01*
Y198772D01*
X153508Y191299D02*
X152758Y191732D01*
Y190866D01*
X153508Y191299D01*
X165980Y178055D02*
X165534Y177431D01*
X165134Y176776D01*
X166376Y178250D02*
X182624D01*
X183020Y178055D02*
X183579Y177257D01*
X184063Y176411D01*
X192000Y171933D02*
Y171067D01*
X192750Y171500D01*
X192000Y171933D01*
X182730Y164585D02*
X182061Y163859D01*
X181328Y163197D01*
X180538Y162606D01*
X179696Y162089D01*
X178811Y161652D01*
X177889Y161298D01*
X176938Y161030D01*
X175968Y160851D01*
X174984Y160761D01*
X173997Y160762D01*
X173014Y160853D01*
X172043Y161035D01*
X171093Y161304D01*
X170172Y161660D01*
X169287Y162098D01*
X168447Y162616D01*
X167657Y163209D01*
X166925Y163872D01*
X166257Y164599D01*
X242950Y205000D02*
X253340D01*
X258301Y194200D02*
X260699D01*
X256450Y188830D02*
Y187170D01*
X258301Y181800D02*
X260699D01*
X265599Y187234D02*
Y188894D01*
X249373Y191740D02*
X248773D01*
X249373D01*
X242950Y205000D02*
Y208350D01*
X200080Y254342D02*
X179510D01*
X177495Y262015D02*
Y271240D01*
X181164Y278942D02*
X200080D01*
X202095Y271269D02*
Y262015D01*
X242950Y279470D02*
Y306400D01*
X314850D01*
Y279470D01*
Y208350D02*
Y205000D01*
X304460D01*
X358900Y204500D02*
X391100D01*
Y215500D01*
X358900D01*
Y204500D01*
X165483Y218333D02*
X157383D01*
Y231533D02*
X165483D01*
Y226363D02*
Y223503D01*
G54D12*
X105605Y136850D02*
X107147Y136857D01*
X107786Y136050D01*
X108521Y135329D01*
X109340Y134704D01*
X110230Y134187D01*
X111177Y133784D01*
X112167Y133502D01*
X113185Y133345D01*
X114214Y133316D01*
X115239Y133415D01*
X116243Y133640D01*
X117212Y133989D01*
X118130Y134455D01*
X118983Y135032D01*
X119757Y135711D01*
X120441Y136480D01*
X120196Y146976D02*
X119496Y147695D01*
X118713Y148324D01*
X117860Y148854D01*
X116950Y149276D01*
X115995Y149585D01*
X115009Y149776D01*
X114008Y149846D01*
X113005Y149794D01*
X112016Y149621D01*
X111056Y149330D01*
X110138Y148924D01*
X109276Y148410D01*
X108482Y147795D01*
X107769Y147089D01*
X107147Y146301D01*
X105010Y146303D01*
X107014Y180898D02*
X108147Y180857D01*
X108786Y180050D01*
X109521Y179329D01*
X110340Y178705D01*
X111230Y178187D01*
X112177Y177784D01*
X113167Y177502D01*
X114185Y177345D01*
X115214Y177316D01*
X116239Y177415D01*
X117243Y177640D01*
X118212Y177989D01*
X119130Y178455D01*
X119983Y179032D01*
X120757Y179710D01*
X121441Y180480D01*
X121441Y190678D02*
X120757Y191447D01*
X119983Y192125D01*
X119130Y192702D01*
X118212Y193168D01*
X117243Y193517D01*
X116239Y193743D01*
X115214Y193842D01*
X114185Y193813D01*
X113167Y193656D01*
X112177Y193374D01*
X111230Y192971D01*
X110340Y192453D01*
X109521Y191829D01*
X108786Y191108D01*
X108147Y190301D01*
X106699Y190302D01*
G54D13*
X9244Y80362D02*
Y90697D01*
X14756D02*
Y82036D01*
X16200Y96866D02*
Y100166D01*
Y96866D02*
X7800D01*
Y100166D01*
Y108566D02*
Y111866D01*
X16200D01*
Y108566D01*
X61300Y109066D02*
Y112366D01*
X69700D01*
Y109066D01*
Y100666D02*
Y97366D01*
X61300D01*
Y100666D01*
X90315Y129878D02*
X93615D01*
X90315D02*
Y138278D01*
X93615D01*
X102015D02*
X105315D01*
Y129878D01*
X102015D01*
X86334Y141145D02*
Y149531D01*
X71372D01*
Y141145D01*
X86334D01*
X104515Y160378D02*
X107815D01*
Y168778D01*
X104515D01*
X131319Y191749D02*
X134619D01*
X131319D02*
Y200149D01*
X134619D01*
X134666Y202300D02*
X131366D01*
Y210700D01*
X134666D01*
X143066D02*
X146366D01*
Y202300D01*
X143066D01*
X143019Y200149D02*
X146319D01*
Y191749D01*
X143019D01*
X164500Y200300D02*
X167800D01*
X164500D02*
Y208700D01*
X167800D01*
X176200D02*
X179500D01*
Y200300D01*
X176200D01*
X197246Y204337D02*
X200546D01*
X208946D02*
X212246D01*
Y212737D01*
X208946D01*
X208939Y214284D02*
X212239D01*
Y222684D01*
X208939D01*
X208956Y224150D02*
X212256D01*
Y232550D01*
X208956D01*
X208957Y233965D02*
X212257D01*
Y242365D01*
X208957D01*
X212175Y244006D02*
Y252393D01*
X197213D01*
Y244006D01*
X212175D01*
X200556Y242365D02*
X197257D01*
Y233965D01*
X200556D01*
X200556Y232550D02*
X197256D01*
Y224150D01*
X200556D01*
X200539Y222684D02*
X197239D01*
Y214284D01*
X200539D01*
X200546Y212737D02*
X197246D01*
Y204337D01*
X190980Y224307D02*
Y232694D01*
X176019D01*
Y224307D01*
X190980D01*
X190989Y233965D02*
Y242365D01*
X187689D01*
X187689Y243964D02*
X190989D01*
Y252364D01*
X187689D01*
X179289D02*
X175989D01*
Y243964D01*
X179289D01*
X179289Y242365D02*
X175989D01*
Y233965D01*
X179289D01*
X187689D02*
X190989D01*
X219520Y257306D02*
Y265693D01*
X234481D01*
Y257306D01*
X219520D01*
X234481Y267306D02*
Y275693D01*
X219520D01*
Y267306D01*
X234481D01*
X236306Y195940D02*
X239606D01*
Y187540D01*
X236306D01*
X227906D02*
X224606D01*
Y195940D01*
X227906D01*
X330146Y168539D02*
X330933D01*
X330146D01*
X359870Y172476D02*
Y194524D01*
X331130D01*
Y172476D01*
X359870D01*
X382000Y167300D02*
X385300D01*
X382000D02*
Y175700D01*
X385300D01*
Y177800D02*
X382000D01*
Y186200D01*
X385300D01*
X393700Y167300D02*
X397000D01*
Y175700D01*
X393700D01*
Y177800D02*
X397000D01*
Y186200D01*
X393700D01*
X399520Y172193D02*
X414481D01*
Y163806D01*
X399520D01*
Y172193D01*
X437606Y174638D02*
X438394D01*
X437606D01*
X414496Y198323D02*
Y206709D01*
X399535D01*
Y198323D01*
X414496D01*
X409539Y220705D02*
Y261295D01*
X399461D01*
Y220705D01*
X409539D01*
X409559Y250941D02*
X399480D01*
X388366Y202200D02*
Y193800D01*
X385066D01*
Y202200D02*
X388366D01*
X376666D02*
X373366D01*
Y193800D01*
X376666D01*
X357134Y225200D02*
X353834D01*
X357134D02*
Y216800D01*
X353834D01*
X356720Y214194D02*
X341759D01*
Y205807D01*
X356720D01*
Y214194D01*
X345434Y216800D02*
X342134D01*
Y225200D01*
X345434D01*
X345300Y235800D02*
X342000D01*
Y244200D01*
X345300D01*
X345300Y246300D02*
X342000D01*
Y254700D01*
X345300D01*
X353700D02*
X357000D01*
Y246300D01*
X353700D01*
X353700Y244200D02*
X357000D01*
Y235800D01*
X353700D01*
X335564Y177284D02*
X334622Y177499D01*
X333867Y176897D01*
Y175930D01*
X334622Y175328D01*
X335564Y175543D01*
X335984Y176413D01*
X335564Y177284D01*
X335658Y176807D02*
X335264Y175626D01*
X334870Y176413D01*
Y177201D02*
X335658Y176807D01*
X334870Y177201D02*
X334083Y176413D01*
X335264Y175626D01*
X378417Y82041D02*
X379204D01*
X378417D01*
X479421Y43898D02*
X480209D01*
X479421D01*
X509606Y237102D02*
X510394D01*
X509606D01*
X364051Y269000D02*
X363264D01*
X364051D01*
X147741Y232866D02*
Y224480D01*
X132780D01*
Y232866D01*
X147741D01*
X122051Y263500D02*
X121264D01*
X122051D01*
X42741Y182693D02*
X27779D01*
Y174306D01*
X42741D01*
Y182693D01*
X71335Y164272D02*
X86296D01*
Y155885D01*
X71335D01*
Y164272D01*
X92815Y160378D02*
X96115D01*
X92815D02*
Y168778D01*
X96115D01*
X102634Y53700D02*
X105934D01*
X114334D02*
X117634D01*
Y45300D01*
X114334D01*
X105934D02*
X102634D01*
Y53700D01*
G54D14*
X-75814Y-153928D02*
X-69149Y-143931D01*
X-75814D02*
X-69149Y-153928D01*
X397350Y208701D02*
X398360Y208523D01*
X399249Y209036D01*
X399600Y210000D01*
X399249Y210964D01*
X398360Y211477D01*
X397350Y211299D01*
X396691Y210513D01*
Y209487D01*
X397350Y208701D01*
G54D15*
X404254Y263231D02*
X404992Y263657D01*
X404254Y264084D01*
Y263231D01*
G54D16*
X465197Y140657D02*
X465984D01*
X465197D01*
X533697D02*
X534484D01*
X533697D01*
G54D17*
X93513Y142616D02*
X94393Y142330D01*
X94937Y143079D01*
X94393Y143828D01*
X93513Y143542D01*
Y142616D01*
G54D18*
X152169Y247752D02*
Y275508D01*
X124610D01*
Y247752D01*
X152169D01*
X185425Y147986D02*
X372433D01*
Y35781D01*
X185425D01*
Y147986D01*
X366610Y253252D02*
Y281008D01*
X394169D01*
Y253252D01*
X366610D01*
X412626Y194441D02*
X428374D01*
Y174559D02*
X412626D01*
X410988Y138098D02*
X472012D01*
Y62902D01*
X410988D01*
Y138098D01*
X479488Y62902D02*
Y138098D01*
X540512D01*
Y62902D01*
X479488D01*
X469972Y39961D02*
X509342D01*
Y9252D01*
X469972D01*
Y39961D01*
X519842Y241039D02*
Y271748D01*
X480472D01*
Y241039D01*
X519842D01*
G54D19*
X10426Y62228D02*
X13574D01*
Y64327D01*
Y65376D02*
Y67475D01*
Y68525D02*
Y70099D01*
X13049Y70624D01*
X10950D01*
X10426Y70099D01*
Y68525D01*
X13574D01*
Y65376D02*
X10426D01*
Y67475D01*
X12000Y66426D02*
Y65376D01*
X10950Y71673D02*
X10426Y72198D01*
Y73248D01*
X10950Y73772D01*
X11475D01*
X12000Y73248D01*
Y72723D01*
Y73248D01*
X12525Y73772D01*
X13049D01*
X13574Y73248D01*
Y72198D01*
X13049Y71673D01*
X70426Y97376D02*
Y98950D01*
X70951Y99475D01*
X72000D01*
X72525Y98950D01*
Y97376D01*
X73574D02*
X70426D01*
X72525Y98426D02*
X73574Y99475D01*
Y101049D02*
X73049Y100525D01*
X72525D01*
X72000Y101049D01*
X71475Y100525D01*
X70951D01*
X70426Y101049D01*
Y102099D01*
X70951Y102624D01*
X71475D01*
X72000Y102099D01*
X72525Y102624D01*
X73049D01*
X73574Y102099D01*
Y101049D01*
X72000D02*
Y102099D01*
X82426Y96426D02*
X83475D01*
X84000Y96951D01*
Y99050D01*
X83475Y99574D01*
X82426D01*
X81901Y99050D01*
Y96951D01*
X82426Y96426D01*
X84000D02*
X82951Y97475D01*
X85049Y99050D02*
X85574Y99574D01*
Y96426D01*
X86099D01*
X85049D01*
X94876Y59549D02*
Y57450D01*
X95401Y56926D01*
X96451D01*
X96975Y57450D01*
X98025D02*
X98549Y56926D01*
X99599D01*
X100124Y57450D01*
Y58500D01*
X99599Y59025D01*
X99074D01*
X98025Y58500D01*
Y60074D01*
X100124D01*
X96975Y59549D02*
X96451Y60074D01*
X95401D01*
X94876Y59549D01*
X118644Y47926D02*
Y51074D01*
X120218D01*
X120743Y50550D01*
Y49500D01*
X120218Y48975D01*
X118644D01*
X119694D02*
X120743Y47926D01*
X121792D02*
Y48450D01*
X123892Y50550D01*
Y51074D01*
X121792D01*
X121198Y37074D02*
X119099D01*
Y35500D01*
X120149Y36025D01*
X120673D01*
X121198Y35500D01*
Y34451D01*
X120673Y33926D01*
X119624D01*
X119099Y34451D01*
X117525Y34975D02*
X115951D01*
Y33926D02*
Y37074D01*
X117525D01*
X118050Y36549D01*
Y35500D01*
X117525Y34975D01*
X114901Y37074D02*
X113851D01*
Y33926D01*
X112802Y37074D02*
X114901D01*
X105698Y16049D02*
X105173Y16574D01*
X104124D01*
X103599Y16049D01*
X105698D02*
Y15525D01*
X103599Y13426D01*
X105698D01*
X102025Y14475D02*
X100451D01*
Y13426D02*
Y16574D01*
X102025D01*
X102550Y16049D01*
Y15000D01*
X102025Y14475D01*
X99401Y16574D02*
X98351D01*
Y13426D01*
X97302Y16574D02*
X99401D01*
X158589Y23426D02*
X159639D01*
X159114D02*
X158589D01*
X159114D02*
Y26574D01*
X159639D01*
X158589D01*
X161213D02*
X162787D01*
X163312Y26050D01*
Y25000D01*
X162787Y24475D01*
X161213D01*
X162262D02*
X163312Y23426D01*
X164361D02*
X165411D01*
X164886D01*
Y26574D01*
X164361Y26050D01*
X161213Y26574D02*
Y23426D01*
X141599Y92926D02*
X142124Y93450D01*
Y93975D01*
X141599Y94500D01*
X140025D01*
Y93450D01*
X140550Y92926D01*
X141599D01*
X138451D02*
X138975Y93450D01*
X138451Y92926D02*
X137401D01*
X136876Y93450D01*
Y95549D01*
X137401Y96074D01*
X138451D01*
X138975Y95549D01*
X141074D02*
X140025Y94500D01*
X141074Y95549D02*
X142124Y96074D01*
X120063Y128004D02*
X119538D01*
Y131153D01*
X119013Y130628D01*
X117964D02*
X117439Y131153D01*
X115865D01*
Y128004D01*
X117439D01*
X117964Y128529D01*
Y130628D01*
X114815Y131153D02*
X112716D01*
Y128004D01*
X114815D01*
X113765Y129579D02*
X112716D01*
X111666Y128004D02*
X109567D01*
Y131153D01*
X119013Y128004D02*
X120063D01*
X107939Y147504D02*
X105840D01*
X107939Y149603D01*
Y150128D01*
X107414Y150653D01*
X106365D01*
X105840Y150128D01*
X104790Y150653D02*
Y148029D01*
X104265Y147504D01*
X103216D01*
X102691Y148029D01*
Y150653D01*
X101677Y152622D02*
Y153311D01*
Y145535D02*
Y144846D01*
X92622D02*
Y147406D01*
Y152622D02*
Y153311D01*
X91765Y127653D02*
X92290Y127128D01*
Y126079D01*
X91765Y125554D01*
X90191D01*
Y124504D02*
Y127653D01*
X91765D01*
X93340Y127128D02*
X93865Y127653D01*
X94914D01*
X95439Y127128D01*
Y126603D01*
X93340Y124504D01*
X95439D01*
X92290D02*
X91241Y125554D01*
X84964Y126653D02*
X84439Y126128D01*
X83389D02*
Y125079D01*
X82864Y124554D01*
X81290D01*
Y123504D02*
Y126653D01*
X82864D01*
X83389Y126128D01*
X84964Y126653D02*
Y123504D01*
X85488D01*
X84439D01*
X79191D02*
Y126653D01*
X80241D01*
X78142D01*
X69452Y141264D02*
X68927D01*
Y144413D01*
X68402Y143888D01*
X67352D02*
X66828Y144413D01*
X65778D01*
X65254Y143888D01*
Y141789D01*
X65778Y141264D01*
X66828D01*
X67352Y141789D01*
X68402Y141264D02*
X69452D01*
X69939Y155504D02*
X67840D01*
X69939Y157604D01*
Y158128D01*
X69414Y158653D01*
X68365D01*
X67840Y158128D01*
X66790D02*
X66265Y158653D01*
X65216D01*
X64691Y158128D01*
Y156029D01*
X65216Y155504D01*
X66265D01*
X66790Y156029D01*
X32485Y163426D02*
Y166574D01*
X30911Y165000D01*
X33010D01*
X25411Y174426D02*
X24361D01*
X23837Y174951D01*
Y177050D02*
X24361Y177574D01*
X25411D01*
X25936Y177050D01*
Y176525D01*
X25411Y176000D01*
X24886D01*
X25411D01*
X25936Y175475D01*
Y174951D01*
X25411Y174426D01*
X22262D02*
X21738D01*
Y177574D01*
X21213Y177050D01*
X20163D02*
X19639Y177574D01*
X18589D01*
X18064Y177050D01*
Y174951D01*
X18589Y174426D01*
X19639D01*
X20163Y174951D01*
X21213Y174426D02*
X22262D01*
X21990Y166574D02*
X24089D01*
X23040D01*
Y163426D01*
X25139D02*
Y166574D01*
X26713D01*
X27238Y166050D01*
Y165000D01*
X26713Y164475D01*
X25139D01*
X28287Y163426D02*
X29337D01*
X28812D01*
Y166574D01*
X28287Y166050D01*
X28099Y149574D02*
X26525Y148000D01*
X28624D01*
X28099Y149574D02*
Y146426D01*
X25475D02*
X24426Y147475D01*
X25475Y146950D02*
Y149049D01*
X24950Y149574D01*
X23901D01*
X23376Y149049D01*
Y146950D01*
X23901Y146426D01*
X24950D01*
X25475Y146950D01*
X22099Y136074D02*
X20525Y134500D01*
X22624D01*
X22099Y136074D02*
Y132926D01*
X18950D02*
X19475Y133450D01*
Y136074D01*
X17376D02*
Y133450D01*
X17901Y132926D01*
X18950D01*
X16198Y127574D02*
X15149Y127050D01*
X14099Y126000D01*
Y124951D01*
X14624Y124426D01*
X15673D01*
X16198Y124951D01*
Y125475D01*
X15673Y126000D01*
X14099D01*
X13049D02*
X12525Y125475D01*
X10950D01*
Y124426D02*
Y127574D01*
X12525D01*
X13049Y127050D01*
Y126000D01*
X9901Y127574D02*
X8851D01*
Y124426D01*
X7802Y127574D02*
X9901D01*
X6574Y101599D02*
X6050Y102124D01*
X3951D01*
X3426Y101599D01*
Y100549D01*
X3951Y100025D01*
X4475D01*
X5000Y100549D01*
Y102124D01*
X6574Y101599D02*
Y100549D01*
X6050Y100025D01*
X6574Y98975D02*
X5525Y97926D01*
Y98450D02*
Y96876D01*
X6574D02*
X3426D01*
Y98450D01*
X3951Y98975D01*
X5000D01*
X5525Y98450D01*
X109191Y160504D02*
Y163653D01*
X110765D01*
X111290Y163128D01*
Y162079D01*
X110765Y161554D01*
X109191D01*
X110241D02*
X111290Y160504D01*
X112864D02*
X112340Y161029D01*
X112864Y160504D02*
X113914D01*
X114439Y161029D01*
Y161554D01*
X113914Y162079D01*
X113389D01*
X113914D01*
X114439Y162603D01*
Y163128D01*
X113914Y163653D01*
X112864D01*
X112340Y163128D01*
X148851Y183426D02*
Y186574D01*
X149901D01*
X147802D01*
X150951D02*
X152525D01*
X153050Y186049D01*
Y185000D01*
X152525Y184475D01*
X150951D01*
Y183426D02*
Y186574D01*
X153876Y165050D02*
Y162951D01*
X154401Y162426D01*
X155450D01*
X155975Y162951D01*
Y165050D01*
X155450Y165574D01*
X154401D01*
X153876Y165050D01*
X154926Y163475D02*
X155975Y162426D01*
X157025D02*
X159124Y164525D01*
Y165050D01*
X158599Y165574D01*
X157550D01*
X157025Y165050D01*
Y162426D02*
X159124D01*
X154099Y183426D02*
Y183950D01*
X156198Y186049D01*
Y186574D01*
X154099D01*
X180742Y200426D02*
Y203575D01*
X182316D01*
X182841Y203050D01*
Y202000D01*
X182316Y201476D01*
X180742D01*
X181791D02*
X182841Y200426D01*
X183891Y200951D02*
X184415Y200426D01*
X185465D01*
X185990Y200951D01*
Y201476D01*
X185465Y202000D01*
X183891D01*
Y200951D01*
Y202000D02*
X184940Y203050D01*
X185990Y203575D01*
X202802Y188074D02*
X204901D01*
X203851D01*
Y184926D01*
X205950D02*
Y188074D01*
X207525D01*
X208050Y187549D01*
Y186500D01*
X207525Y185975D01*
X205950D01*
X209099D02*
X209624Y186500D01*
X209099Y187025D01*
Y187549D01*
X209624Y188074D01*
X210673D01*
X211198Y187549D01*
Y187025D01*
X210673Y186500D01*
X211198Y185975D01*
Y185450D01*
X210673Y184926D01*
X209624D01*
X209099Y185450D01*
Y185975D01*
X209624Y186500D02*
X210673D01*
X240802Y187426D02*
Y190574D01*
X242376D01*
X242901Y190050D01*
Y189000D01*
X242376Y188475D01*
X240802D01*
X241851D02*
X242901Y187426D01*
X243951D02*
X246049Y189525D01*
Y190050D01*
X245525Y190574D01*
X244475D01*
X243951Y190050D01*
Y187426D02*
X246049D01*
X247099Y189000D02*
X249198D01*
X248673Y190574D02*
X247099Y189000D01*
X248673Y190574D02*
Y187426D01*
X249100Y199125D02*
X249625Y198600D01*
X250674D01*
X251199Y199125D01*
Y201224D01*
X250674Y201749D01*
X249625D01*
X249100Y201224D01*
Y199125D01*
X250149Y199650D02*
X251199Y198600D01*
X252773D02*
X252249Y199125D01*
X252773Y198600D02*
X253823D01*
X254348Y199125D01*
Y199650D01*
X253823Y200174D01*
X253298D01*
X253823D01*
X254348Y200699D01*
Y201224D01*
X253823Y201749D01*
X252773D01*
X252249Y201224D01*
X232010Y199549D02*
X231485Y200074D01*
X230436D01*
X229911Y199549D01*
X232010D02*
Y199025D01*
X229911Y196926D01*
X232010D01*
X228337D02*
X227812D01*
Y200074D01*
X227287Y199549D01*
X226238D02*
Y198500D01*
X225713Y197975D01*
X224138D01*
Y196926D02*
Y200074D01*
X225713D01*
X226238Y199549D01*
X227287Y196926D02*
X228337D01*
X221350Y217598D02*
X219775D01*
Y216549D01*
X220300Y216024D01*
X221350D01*
X221874Y216549D01*
Y217073D01*
X221350Y217598D01*
X220825Y218648D02*
X219775Y217598D01*
X220825Y218648D02*
X221874Y219172D01*
X217676D02*
X217152Y218648D01*
X216102D02*
Y217598D01*
X215577Y217073D01*
X214003D01*
Y216024D02*
Y219172D01*
X215577D01*
X216102Y218648D01*
X217676Y219172D02*
Y216024D01*
X218201D01*
X217152D01*
X216102D02*
X215053Y217073D01*
X214876Y210574D02*
X215401Y210050D01*
Y209000D01*
X214876Y208475D01*
X213302D01*
Y207426D02*
Y210574D01*
X214876D01*
X216451Y210050D02*
X216975Y210574D01*
X218025D01*
X218549Y210050D01*
Y209525D01*
X216451Y207426D01*
X218549D01*
X220124D02*
X219599Y207950D01*
Y209000D02*
X220649Y209525D01*
X221173D01*
X221698Y209000D01*
Y207950D01*
X221173Y207426D01*
X220124D01*
X219599Y209000D02*
Y210574D01*
X221698D01*
X214351Y208475D02*
X215401Y207426D01*
X220990Y200074D02*
X223089D01*
X222040D01*
Y196926D01*
X221667Y225276D02*
X220618D01*
X220093Y225801D01*
Y226326D01*
X220618Y226851D01*
X220093Y227375D01*
Y227900D01*
X220618Y228425D01*
X221667D01*
X222192Y227900D01*
Y227375D01*
X221667Y226851D01*
X222192Y226326D01*
Y225801D01*
X221667Y225276D01*
Y226851D02*
X220618D01*
X218518Y225276D02*
X217994D01*
Y228425D01*
X217469Y227900D01*
X216419D02*
Y226851D01*
X215895Y226326D01*
X214320D01*
Y225276D02*
Y228425D01*
X215895D01*
X216419Y227900D01*
X215370Y226326D02*
X216419Y225276D01*
X217469D02*
X218518D01*
X219293Y234390D02*
Y234915D01*
X221392Y237014D01*
Y237539D01*
X219293D01*
X217194D02*
X216669Y237014D01*
X215620D02*
Y235965D01*
X215095Y235440D01*
X213521D01*
Y234390D02*
Y237539D01*
X215095D01*
X215620Y237014D01*
X217194Y237539D02*
Y234390D01*
X217719D01*
X216669D01*
X215620D02*
X214570Y235440D01*
X214589Y243926D02*
X215638D01*
X216163Y244450D01*
X217213Y243926D02*
X218262D01*
X217738D01*
Y247074D01*
X217213Y246550D01*
X216163D02*
X215638Y247074D01*
X214589D01*
X214064Y246550D01*
Y244450D01*
X214589Y243926D01*
X219837D02*
X221936Y246025D01*
Y246550D01*
X221411Y247074D01*
X220361D01*
X219837Y246550D01*
Y243926D02*
X221936D01*
X217911Y257426D02*
X216861D01*
X216337Y257950D01*
Y260050D01*
X216861Y260574D01*
X217911D01*
X218436Y260050D01*
Y257950D01*
X217911Y257426D01*
X214762D02*
X214238D01*
Y260574D01*
X213713Y260050D01*
X212663D02*
X212139Y260574D01*
X211089D01*
X210564Y260050D01*
Y257950D01*
X211089Y257426D01*
X212139D01*
X212663Y257950D01*
X213713Y257426D02*
X214762D01*
X214287Y269926D02*
X213762D01*
Y273074D01*
X213238Y272550D01*
X212188D02*
X211663Y273074D01*
X210614D01*
X210089Y272550D01*
Y270450D01*
X210614Y269926D01*
X211663D01*
X212188Y270450D01*
X213238Y269926D02*
X214287D01*
X215861D02*
X216911D01*
X216386D01*
Y273074D01*
X215861Y272550D01*
X180747Y286100D02*
X180222D01*
Y289249D01*
X179697Y288724D01*
X178648Y289249D02*
Y286100D01*
X177598Y287150D01*
X176549Y286100D01*
Y289249D01*
X179697Y286100D02*
X180747D01*
X174974D02*
X173925D01*
X173400Y286625D01*
Y288199D02*
X173925Y287674D01*
X174974D01*
X175499Y287150D01*
Y286625D01*
X174974Y286100D01*
X175499Y288724D02*
X174974Y289249D01*
X173925D01*
X173400Y288724D01*
Y288199D01*
X173638Y249739D02*
X173113Y249214D01*
X172063D02*
X171539Y249739D01*
X170489D01*
X169964Y249214D01*
X168915D02*
Y248164D01*
X168390Y247640D01*
X166816D01*
Y246590D02*
Y249739D01*
X168390D01*
X168915Y249214D01*
X167865Y247640D02*
X168915Y246590D01*
X169964D02*
X172063Y248689D01*
Y249214D01*
X173638Y249739D02*
Y246590D01*
X174162D01*
X173113D01*
X172063D02*
X169964D01*
X169975Y242074D02*
X169450Y241549D01*
X168401D02*
Y240500D01*
X167876Y239975D01*
X166302D01*
Y238926D02*
Y242074D01*
X167876D01*
X168401Y241549D01*
X169975Y242074D02*
X171025D01*
X171549Y241549D01*
Y241025D01*
X169450Y238926D01*
X171549D01*
X173124D02*
X172599Y239451D01*
Y241549D01*
X173124Y242074D01*
X174173D01*
X174698Y241549D01*
Y239451D01*
X174173Y238926D01*
X173124D01*
X168401D02*
X167351Y239975D01*
X169876Y232550D02*
Y230451D01*
X170401Y229926D01*
X171450D01*
X171975Y230451D01*
Y232550D02*
X171450Y233074D01*
X170401D01*
X169876Y232550D01*
X173025Y231500D02*
X175124D01*
X174599Y233074D02*
X173025Y231500D01*
X174599Y233074D02*
Y229926D01*
X166599Y216074D02*
X167124Y215549D01*
Y215025D01*
X166599Y214500D01*
X166074D01*
X166599D01*
X167124Y213975D01*
Y213451D01*
X166599Y212926D01*
X165550D01*
X165025Y213451D01*
X163975D02*
Y216074D01*
X165025Y215549D02*
X165550Y216074D01*
X166599D01*
X161876D02*
Y213451D01*
X162401Y212926D01*
X163451D01*
X163975Y213451D01*
X164475Y200074D02*
X162901D01*
Y196926D01*
X164475D01*
X165000Y197450D01*
Y199549D01*
X164475Y200074D01*
X166050Y199549D02*
X166574Y200074D01*
Y196926D01*
X167099D01*
X166050D01*
X137599Y233926D02*
X136549D01*
X136025Y234451D01*
X134975D02*
X134450Y233926D01*
X133401D01*
X132876Y234451D01*
Y236549D01*
X133401Y237074D01*
X134450D01*
X134975Y236549D01*
X136025D02*
X136549Y237074D01*
X137599D01*
X138124Y236549D01*
Y236025D01*
X137599Y235500D01*
X137074D01*
X137599D01*
X138124Y234975D01*
Y234451D01*
X137599Y233926D01*
X130198Y208074D02*
X129149Y207550D01*
X128099Y206500D01*
Y205451D01*
X128624Y204926D01*
X129673D01*
X130198Y205451D01*
Y205975D01*
X129673Y206500D01*
X128099D01*
X128386Y197574D02*
X127861Y197049D01*
X128386Y197574D02*
Y194426D01*
X128911D01*
X127861D01*
X118866Y219619D02*
X119391Y220143D01*
Y222242D01*
X118866Y222767D01*
X117817D01*
X117292Y222242D01*
Y221718D01*
X117817Y221193D01*
X119391D01*
X118866Y219619D02*
X117817D01*
X117292Y220143D01*
X115718Y220668D02*
X114143D01*
Y219619D02*
Y222767D01*
X115718D01*
X116242Y222242D01*
Y221193D01*
X115718Y220668D01*
X113094Y222767D02*
X112044D01*
Y219619D01*
X110995Y222767D02*
X113094D01*
X113540Y231926D02*
Y235074D01*
X114589D01*
X112490D01*
X115639D02*
X117213D01*
X117738Y234549D01*
Y233500D01*
X117213Y232975D01*
X115639D01*
Y231926D02*
Y235074D01*
X118787Y234549D02*
X119312Y235074D01*
Y231926D01*
X119837D01*
X118787D01*
X121936D02*
X121411Y232451D01*
Y234549D01*
X121936Y235074D01*
X122985D01*
X123510Y234549D01*
Y232451D01*
X122985Y231926D01*
X121936D01*
X121802Y208074D02*
X123376D01*
X123901Y207550D01*
Y206500D01*
X123376Y205975D01*
X121802D01*
Y204926D02*
Y208074D01*
X122851Y205975D02*
X123901Y204926D01*
X124951D02*
X127050Y207025D01*
Y207550D01*
X126525Y208074D01*
X125475D01*
X124951Y207550D01*
Y204926D02*
X127050D01*
X125762Y197574D02*
X125238Y197049D01*
X124188D02*
Y196000D01*
X123663Y195475D01*
X122089D01*
Y194426D02*
Y197574D01*
X123663D01*
X124188Y197049D01*
X125762Y197574D02*
Y194426D01*
X126287D01*
X125238D01*
X124188D02*
X123139Y195475D01*
X120587Y174628D02*
X120063Y175153D01*
X119013D01*
X118488Y174628D01*
X117439D02*
X116914Y175153D01*
X115340D01*
Y172004D01*
X116914D01*
X117439Y172529D01*
Y174628D01*
X120587D02*
Y174103D01*
X118488Y172004D01*
X120587D01*
X114290D02*
X112191D01*
Y175153D01*
X114290D01*
X113241Y173579D02*
X112191D01*
X111142Y172004D02*
X109043D01*
Y175153D01*
X109549Y250400D02*
Y253549D01*
X111123D01*
X111648Y253024D01*
Y251974D01*
X111123Y251449D01*
X109549D01*
X108499Y253549D02*
X107449D01*
Y250400D01*
X106400Y253549D02*
X108499D01*
X112697Y253024D02*
X113222Y253549D01*
Y250400D01*
X113747D01*
X112697D01*
X115321D02*
X116370D01*
X115846D01*
Y253549D01*
X115321Y253024D01*
X122025Y279300D02*
X121500Y279825D01*
X122025Y279300D02*
X122549D01*
X123074Y279825D01*
Y282449D01*
X122549D01*
X123599D01*
X124649Y280874D02*
X126748D01*
X126223Y282449D02*
X124649Y280874D01*
X126223Y282449D02*
Y279300D01*
X328302Y215574D02*
X330401D01*
X329351D01*
Y212426D01*
X331451D02*
Y215574D01*
X333025D01*
X333549Y215050D01*
Y214000D01*
X333025Y213475D01*
X331451D01*
X334599Y214000D02*
X336698D01*
X336173Y215574D02*
X334599Y214000D01*
X336173Y215574D02*
Y212426D01*
X335950Y209574D02*
X334901D01*
X334376Y209050D01*
Y206950D01*
X334901Y206426D01*
X335950D01*
X336475Y206950D01*
X337525D02*
X338050Y206426D01*
X339099D01*
X339624Y206950D01*
Y209050D01*
X339099Y209574D01*
X338050D01*
X337525Y209050D01*
Y208525D01*
X338050Y208000D01*
X339624D01*
X336475Y209050D02*
X335950Y209574D01*
X363930Y193075D02*
X365504D01*
X366029Y192550D01*
Y191500D01*
X365504Y190976D01*
X363930D01*
Y189926D02*
Y193075D01*
X364980Y190976D02*
X366029Y189926D01*
X367079D02*
X368128D01*
X367603D01*
Y193075D01*
X367079Y192550D01*
X367574Y174549D02*
X366525Y173500D01*
Y172450D01*
X367050Y171926D01*
X368099D01*
X368624Y172450D01*
Y172975D01*
X368099Y173500D01*
X366525D01*
X365475Y172450D02*
Y175074D01*
X363376D02*
Y172450D01*
X363901Y171926D01*
X364950D01*
X365475Y172450D01*
X367574Y174549D02*
X368624Y175074D01*
X371302Y162574D02*
X373401D01*
X372351D01*
Y159426D01*
X374450D02*
Y162574D01*
X376025D01*
X376550Y162049D01*
Y161000D01*
X376025Y160475D01*
X374450D01*
X377599Y159950D02*
X378124Y159426D01*
X379173D01*
X379698Y159950D01*
Y160475D01*
X379173Y161000D01*
X378649D01*
X379173D01*
X379698Y161525D01*
Y162049D01*
X379173Y162574D01*
X378124D01*
X377599Y162049D01*
X399800Y175825D02*
X400325Y175300D01*
X401374D01*
X401899Y175825D01*
X402949D02*
Y175300D01*
Y175825D02*
X405048Y177924D01*
Y178449D01*
X402949D01*
X401899Y177924D02*
X401374Y178449D01*
X400325D01*
X399800Y177924D01*
Y175825D01*
X417451Y199426D02*
X417975Y199951D01*
X419025D02*
Y200475D01*
X419550Y201000D01*
X419025Y201525D01*
Y202049D01*
X419550Y202574D01*
X420599D01*
X421124Y202049D01*
Y201525D01*
X420599Y201000D01*
X421124Y200475D01*
Y199951D01*
X420599Y199426D01*
X419550D01*
X419025Y199951D01*
X419550Y201000D02*
X420599D01*
X417975Y202049D02*
X417451Y202574D01*
X416401D01*
X415876Y202049D01*
Y199951D01*
X416401Y199426D01*
X417451D01*
X428376Y200074D02*
Y197450D01*
X428901Y196926D01*
X429951D01*
X430475Y197450D01*
Y200074D01*
X431525D02*
Y198500D01*
X432574Y199025D01*
X433099D01*
X433624Y198500D01*
Y197450D01*
X433099Y196926D01*
X432050D01*
X431525Y197450D01*
Y200074D02*
X433624D01*
X397099Y213926D02*
X397624Y214451D01*
Y214975D01*
X397099Y215500D01*
X395525D01*
Y214451D01*
X396049Y213926D01*
X397099D01*
X396574Y216549D02*
X395525Y215500D01*
X396574Y216549D02*
X397624Y217074D01*
X394475D02*
X393426D01*
X393951D01*
Y214451D01*
X393426Y213926D01*
X392901D01*
X392376Y214451D01*
X371801Y192550D02*
X371277Y193075D01*
X370227D01*
X369703Y192550D01*
Y192025D01*
X370227Y191500D01*
X371801D01*
Y190451D02*
Y192550D01*
Y190451D02*
X371277Y189926D01*
X370227D01*
X369703Y190451D01*
X372564Y182574D02*
X374138D01*
X374663Y182050D01*
Y181000D01*
X374138Y180475D01*
X372564D01*
Y179426D02*
Y182574D01*
X373614Y180475D02*
X374663Y179426D01*
X375713D02*
X376762D01*
X376238D01*
Y182574D01*
X375713Y182050D01*
X378337D02*
X378861Y182574D01*
X379911D01*
X380436Y182050D01*
Y181525D01*
X379911Y181000D01*
X379386D01*
X379911D01*
X380436Y180475D01*
Y179950D01*
X379911Y179426D01*
X378861D01*
X378337Y179950D01*
Y172549D02*
X378861Y173074D01*
X379911D01*
X380436Y172549D01*
Y172025D01*
X378337Y169926D01*
X380436D01*
X376762D02*
X376238D01*
Y173074D01*
X375713Y172549D01*
X374663D02*
Y171500D01*
X374138Y170975D01*
X372564D01*
Y169926D02*
Y173074D01*
X374138D01*
X374663Y172549D01*
X373614Y170975D02*
X374663Y169926D01*
X375713D02*
X376762D01*
X376040Y238926D02*
Y242074D01*
X377089D01*
X374990D01*
X378138D02*
X379713D01*
X380238Y241549D01*
Y240500D01*
X379713Y239975D01*
X378138D01*
Y238926D02*
Y242074D01*
X381287Y241549D02*
X381812Y242074D01*
Y238926D01*
X382337D01*
X381287D01*
X384436D02*
X383911Y239451D01*
X384436Y238926D02*
X385485D01*
X386010Y239451D01*
Y239975D01*
X385485Y240500D01*
X384961D01*
X385485D01*
X386010Y241025D01*
Y241549D01*
X385485Y242074D01*
X384436D01*
X383911Y241549D01*
X398426Y263926D02*
Y264451D01*
X401050D01*
X401574Y263926D01*
Y263401D01*
X401050Y262876D01*
X398426Y263926D02*
Y264975D01*
Y266025D02*
Y268124D01*
X398951D01*
X401050Y266025D01*
X401574D01*
X365099Y276926D02*
X364050D01*
X363525Y277450D01*
Y278500D02*
X364574Y279025D01*
X365099D01*
X365624Y278500D01*
Y277450D01*
X365099Y276926D01*
X363525Y278500D02*
Y280074D01*
X365624D01*
X362475D02*
X361426D01*
X361950D01*
Y277450D01*
X361426Y276926D01*
X360901D01*
X360376Y277450D01*
X350698Y259050D02*
X350173Y259574D01*
X349124D01*
X348599Y259050D01*
X347550D02*
X347025Y259574D01*
X345975D01*
X345450Y259050D01*
X347550D02*
Y258525D01*
X345450Y256426D01*
X347550D01*
X348599D02*
X350698Y258525D01*
Y259050D01*
Y256426D02*
X348599D01*
X349564Y229574D02*
X351138D01*
X351663Y229049D01*
Y228000D01*
X351138Y227475D01*
X349564D01*
Y226426D02*
Y229574D01*
X350614Y227475D02*
X351663Y226426D01*
X352713D02*
X353762D01*
X353238D01*
Y229574D01*
X352713Y229049D01*
X355337Y229574D02*
Y228000D01*
X356386Y228525D01*
X356911D01*
X357436Y228000D01*
Y226951D01*
X356911Y226426D01*
X355861D01*
X355337Y226951D01*
Y229574D02*
X357436D01*
X344401Y256426D02*
X343351Y257475D01*
X343876D02*
X342302D01*
Y256426D02*
Y259574D01*
X343876D01*
X344401Y259050D01*
Y258000D01*
X343876Y257475D01*
X340173Y239074D02*
X340698Y238549D01*
Y238025D01*
X340173Y237500D01*
X339649D01*
X340173D01*
X340698Y236975D01*
Y236451D01*
X340173Y235926D01*
X339124D01*
X338599Y236451D01*
X337549Y235926D02*
X335451D01*
X337549Y238025D01*
Y238549D01*
X337025Y239074D01*
X335975D01*
X335451Y238549D01*
X334401D02*
Y237500D01*
X333876Y236975D01*
X332302D01*
Y235926D02*
Y239074D01*
X333876D01*
X334401Y238549D01*
X333351Y236975D02*
X334401Y235926D01*
X338599Y238549D02*
X339124Y239074D01*
X340173D01*
X328025Y280426D02*
Y280950D01*
X330124Y283050D01*
Y283574D01*
X328025D01*
X326975D02*
Y280950D01*
X326450Y280426D01*
X325401D01*
X324876Y280950D01*
Y283574D01*
X481149Y278649D02*
X481674D01*
Y276025D01*
X481149Y275500D01*
X480625D01*
X480100Y276025D01*
X483249D02*
X483773Y275500D01*
X484823D01*
X485348Y276025D01*
Y276550D01*
X484823Y277074D01*
X484298D01*
X484823D01*
X485348Y277599D01*
Y278124D01*
X484823Y278649D01*
X483773D01*
X483249Y278124D01*
X482199Y278649D02*
X481149D01*
X464901Y56074D02*
X465426Y55550D01*
Y54500D01*
X464901Y53975D01*
X463327D01*
Y52926D02*
Y56074D01*
X464901D01*
X464376Y53975D02*
X465426Y52926D01*
X466475D02*
X468574D01*
X469624D02*
X470673D01*
X470149D01*
Y56074D01*
X469624Y55550D01*
X466475Y56074D02*
Y52926D01*
X512360Y53198D02*
X512885Y52674D01*
X513410D01*
X513935Y53198D01*
Y55822D01*
X513410D01*
X514460D01*
X515509Y55298D02*
X516034Y55822D01*
X517083D01*
X517608Y55298D01*
Y54773D01*
X515509Y52674D01*
X517608D01*
X531180Y55804D02*
Y58952D01*
X532754D01*
X533279Y58428D01*
Y57378D01*
X532754Y56853D01*
X531180D01*
X532229D02*
X533279Y55804D01*
X534328D02*
X536427D01*
X537477D02*
X539576Y57903D01*
Y58428D01*
X539051Y58952D01*
X538002D01*
X537477Y58428D01*
Y55804D02*
X539576D01*
X534328D02*
Y58952D01*
X372074Y32574D02*
X371550Y32050D01*
X372074Y32574D02*
Y29426D01*
X372599D01*
X371550D01*
X369975D02*
X370500Y29950D01*
Y32574D01*
X369975Y29426D02*
X368926D01*
X368401Y29950D01*
Y32574D01*
X333398Y13318D02*
X332873Y12793D01*
X331824D02*
Y10694D01*
X331299Y10169D01*
X330250D01*
X329725Y10694D01*
Y12793D01*
X330250Y13318D01*
X331299D01*
X331824Y12793D01*
X333398Y13318D02*
Y10169D01*
X333923D01*
X332873D01*
X328675Y11744D02*
X326576D01*
X325527D02*
X323428D01*
Y12268D02*
X324477Y13318D01*
X325527Y12268D01*
Y10169D01*
Y11744D01*
X323428Y12268D02*
Y10169D01*
X322378Y11744D02*
X320279D01*
X319230D02*
X318705Y11219D01*
X317130D01*
Y10169D02*
Y13318D01*
X318705D01*
X319230Y12793D01*
Y11744D01*
X318180Y11219D02*
X319230Y10169D01*
X316081D02*
Y11744D01*
X313982D01*
Y12268D02*
X315031Y13318D01*
X316081Y12268D01*
Y10169D01*
X313982D02*
Y12268D01*
X312932Y11744D02*
Y13318D01*
Y10169D01*
Y11744D02*
X310833D01*
Y10169D01*
Y13318D01*
X309784Y11744D02*
X307685D01*
X306635Y12268D02*
Y12793D01*
X306110Y13318D01*
X305061D01*
X304536Y12793D01*
X303486Y11744D02*
X301388D01*
X299813Y10169D02*
X299288D01*
Y13318D01*
X298764Y12793D01*
X297714D02*
Y10694D01*
X297189Y10169D01*
X296140D01*
X295615Y10694D01*
Y12793D01*
X296140Y13318D01*
X297189D01*
X297714Y12793D01*
X298764Y10169D02*
X299813D01*
X304536D02*
X306635Y12268D01*
Y10169D02*
X304536D01*
X294041D02*
X292991D01*
X292466Y10694D01*
Y12793D01*
X292991Y13318D01*
X294041D01*
X294566Y12793D01*
Y10694D01*
X294041Y10169D01*
X290892D02*
X289843D01*
X289318Y10694D01*
Y12793D01*
X289843Y13318D01*
X290892D01*
X291417Y12793D01*
Y10694D01*
X290892Y10169D01*
X287744D02*
X286694D01*
X286169Y10694D01*
Y12793D01*
X286694Y13318D01*
X287744D01*
X288268Y12793D01*
Y10694D01*
X287744Y10169D01*
G54D20*
X9700Y289400D02*
X10700Y288400D01*
X12699D01*
X13699Y289400D01*
Y294398D01*
X15698Y293398D02*
X16698Y294398D01*
X18697D01*
X19697Y293398D01*
Y292399D01*
X18697Y291399D01*
X19697Y290399D01*
Y289400D01*
X18697Y288400D01*
X16698D01*
X15698Y289400D01*
Y290399D01*
X16698Y291399D01*
X15698Y292399D01*
Y293398D01*
X16698Y291399D02*
X18697D01*
X9700Y294398D02*
Y289400D01*
G54D21*
X124473Y140258D02*
Y142957D01*
X125823Y141607D02*
X123124D01*
X125473Y184258D02*
Y186957D01*
X126823Y185607D02*
X124124D01*
G54D22*
X447469Y11969D02*
X452716D01*
X447469D02*
Y19840D01*
X523468Y18840D02*
X528716Y10968D01*
Y18840D01*
X523468D02*
Y10968D01*
X526284Y268660D02*
Y276532D01*
X531531Y268660D01*
Y276532D01*
X473032Y277532D02*
X467784D01*
X473032D02*
Y269660D01*
G54D23*
X286394Y19894D02*
X289018D01*
X287893D02*
Y27766D01*
X287518D02*
Y19894D01*
X287893Y24017D02*
X290142D01*
Y22518D02*
Y25517D01*
X292392D02*
X292017Y27766D01*
X292392D02*
Y25517D01*
Y27766D02*
X286394D01*
X293479D02*
X296103D01*
X294978D02*
Y19894D01*
X294603D02*
Y27766D01*
X293479Y19894D02*
X296103D01*
X297527D02*
X299777D01*
X298652D02*
Y27766D01*
X299027D02*
X303525Y20643D01*
Y19894D02*
X299027Y27016D01*
Y27766D02*
X297527D01*
X302401D02*
X304650D01*
X305625D02*
X307124D01*
X311623Y20643D01*
Y19894D02*
X307124Y27016D01*
X306749Y27766D02*
Y19894D01*
X305625D02*
X307874D01*
X311623D02*
Y27766D01*
X310498D02*
X312747D01*
X313722D02*
X316346D01*
X315221D02*
Y19894D01*
X314847D02*
Y27766D01*
X317771D02*
X320020D01*
X318895D02*
X323769Y19894D01*
X323394D02*
X318520Y27766D01*
X303525D02*
Y19894D01*
X313722D02*
X316346D01*
X317771D02*
X320020D01*
X318520D02*
X323769Y27766D01*
X324518D02*
X322269D01*
Y19894D02*
X324518D01*
G54D24*
X23250Y132883D02*
X26582Y136215D01*
Y134549D02*
X23250D01*
Y136215D02*
X26582Y132883D01*
X24916D02*
Y136215D01*
X153258Y231006D02*
X156590Y234338D01*
Y232672D02*
X153258D01*
Y234338D02*
X156590Y231006D01*
X154924D02*
Y234338D01*
X175750Y279783D02*
X179082Y283115D01*
Y281449D02*
X175750D01*
Y283115D02*
X179082Y279783D01*
X177416D02*
Y283115D01*
X237750Y278075D02*
X241082Y274743D01*
X239416D02*
Y278075D01*
X241082D02*
X237750Y274743D01*
Y276409D02*
X241082D01*
M02*
