G04*
G04 #@! TF.GenerationSoftware,Altium Limited,Altium Designer,24.5.2 (23)*
G04*
G04 Layer_Color=16711935*
%FSLAX25Y25*%
%MOIN*%
G70*
G04*
G04 #@! TF.SameCoordinates,5A7CA482-B8EE-4E14-9011-BDAD66A85337*
G04*
G04*
G04 #@! TF.FilePolarity,Negative*
G04*
G01*
G75*
%ADD36R,0.06496X0.05118*%
%ADD40C,0.08465*%
%ADD41C,0.10433*%
%ADD42R,0.10433X0.10433*%
%ADD43C,0.00591*%
%ADD44O,0.07087X0.05200*%
%ADD45R,0.07087X0.05200*%
%ADD46R,0.07293X0.07293*%
%ADD47C,0.07293*%
%ADD48O,0.07677X0.05039*%
%ADD49R,0.07677X0.05039*%
%ADD50C,0.08071*%
%ADD51C,0.08858*%
%ADD52R,0.08858X0.08858*%
%ADD53R,0.05900X0.05900*%
%ADD54R,0.07677X0.10433*%
%ADD55O,0.07677X0.10433*%
%ADD57R,0.06181X0.06181*%
%ADD58C,0.06181*%
%ADD59C,0.08268*%
%ADD60R,0.08268X0.08268*%
%ADD61R,0.08386X0.08386*%
%ADD62C,0.08209*%
%ADD63C,0.08386*%
%ADD64C,0.06102*%
%ADD65R,0.06102X0.06102*%
%ADD66C,0.05800*%
%ADD67C,0.05400*%
%ADD68C,0.06591*%
%ADD69R,0.05000X0.05000*%
%ADD70C,0.05000*%
%ADD71C,0.02953*%
%ADD134R,0.13400X0.17700*%
%ADD136O,0.05900X0.07874*%
G54D36*
X40500Y119000D02*
D03*
Y127268D02*
D03*
G54D40*
X12000Y119000D02*
D03*
X73500Y123000D02*
D03*
X39000Y165000D02*
D03*
X112500Y208000D02*
D03*
X121000Y222500D02*
D03*
X110000Y228500D02*
D03*
Y243500D02*
D03*
X192500Y191500D02*
D03*
X232125Y206125D02*
D03*
X296500Y182500D02*
D03*
X329500Y221000D02*
D03*
X370000Y240000D02*
D03*
X126500Y36000D02*
D03*
X91500Y14500D02*
D03*
G54D41*
X152500Y96598D02*
D03*
X151906Y184000D02*
D03*
G54D42*
X96000Y96598D02*
D03*
Y184000D02*
D03*
G54D43*
X117000Y17000D02*
D03*
X534500Y293000D02*
D03*
G54D44*
X73000Y76000D02*
D03*
Y86236D02*
D03*
X175000Y165264D02*
D03*
Y175500D02*
D03*
G54D45*
X73000Y65764D02*
D03*
X175000Y185736D02*
D03*
G54D46*
X32500Y13500D02*
D03*
G54D47*
X22658Y13500D02*
D03*
G54D48*
X24500Y59000D02*
D03*
Y69000D02*
D03*
Y79000D02*
D03*
Y89000D02*
D03*
Y99000D02*
D03*
Y109000D02*
D03*
Y119000D02*
D03*
X55760Y69000D02*
D03*
Y59000D02*
D03*
Y79000D02*
D03*
Y89000D02*
D03*
Y99000D02*
D03*
Y109000D02*
D03*
Y119000D02*
D03*
Y129000D02*
D03*
G54D49*
X24500Y129000D02*
D03*
G54D50*
X59000Y198500D02*
D03*
X69000D02*
D03*
X79000D02*
D03*
X49000D02*
D03*
X39000D02*
D03*
X29000D02*
D03*
X89000Y284602D02*
D03*
X79000D02*
D03*
X69000D02*
D03*
X59000D02*
D03*
X49000D02*
D03*
X39000D02*
D03*
G54D51*
X499500Y25000D02*
D03*
X490315Y256000D02*
D03*
G54D52*
X479815Y25000D02*
D03*
X510000Y256000D02*
D03*
G54D53*
X177000Y275500D02*
D03*
G54D54*
X131500Y263500D02*
D03*
X373500Y269000D02*
D03*
G54D55*
X145280Y263500D02*
D03*
X387280Y269000D02*
D03*
G54D57*
X404500Y256000D02*
D03*
G54D58*
X404500Y226000D02*
D03*
Y236000D02*
D03*
Y246000D02*
D03*
G54D59*
X195267Y47396D02*
D03*
Y136372D02*
D03*
X362590Y107238D02*
D03*
G54D60*
X362590Y76530D02*
D03*
G54D61*
X465122Y124516D02*
D03*
X533622D02*
D03*
G54D62*
X441500Y132390D02*
D03*
X510000D02*
D03*
G54D63*
X417878Y76484D02*
D03*
X465122D02*
D03*
X486378D02*
D03*
X533622D02*
D03*
X486378Y124516D02*
D03*
X417878D02*
D03*
G54D64*
X335500Y198500D02*
D03*
X345500D02*
D03*
X355500D02*
D03*
Y168500D02*
D03*
X345500D02*
D03*
G54D65*
X335500Y168500D02*
D03*
G54D66*
X136000Y13000D02*
D03*
X146000D02*
D03*
X156000D02*
D03*
G54D67*
X106000Y76000D02*
D03*
X125685D02*
D03*
G54D68*
X145000Y47000D02*
D03*
X152500D02*
D03*
X160177Y46866D02*
D03*
X167677D02*
D03*
X175177D02*
D03*
X180000Y136000D02*
D03*
X172000D02*
D03*
X164000D02*
D03*
X153000Y135500D02*
D03*
X145500D02*
D03*
G54D69*
X78100Y49500D02*
D03*
G54D70*
X86000Y49500D02*
D03*
G54D71*
X12000Y65500D02*
D03*
X51000Y16000D02*
D03*
X51500Y12000D02*
D03*
X55000D02*
D03*
X59000D02*
D03*
Y16000D02*
D03*
X55000D02*
D03*
X207000Y159500D02*
D03*
X219500Y165000D02*
D03*
X239500Y162500D02*
D03*
X277760Y183760D02*
D03*
X282180Y199000D02*
D03*
X304590Y221410D02*
D03*
Y226410D02*
D03*
X323500Y211500D02*
D03*
X345366Y230634D02*
D03*
X361135Y221000D02*
D03*
X369866Y226500D02*
D03*
X393634Y197866D02*
D03*
X410756Y196256D02*
D03*
X438390Y192000D02*
D03*
X437500Y178500D02*
D03*
X435000Y170500D02*
D03*
X441500Y166000D02*
D03*
Y156000D02*
D03*
Y148000D02*
D03*
X443000Y172500D02*
D03*
X453500Y191000D02*
D03*
X459000Y192000D02*
D03*
X465000Y190500D02*
D03*
X470500Y196000D02*
D03*
X476000Y202000D02*
D03*
X467500Y209000D02*
D03*
X509500Y184500D02*
D03*
Y172000D02*
D03*
Y159500D02*
D03*
Y148000D02*
D03*
X510000Y195000D02*
D03*
Y205500D02*
D03*
Y215500D02*
D03*
Y225000D02*
D03*
Y244000D02*
D03*
X464000Y205000D02*
D03*
X459000Y200500D02*
D03*
X452500Y197500D02*
D03*
X444500D02*
D03*
X438000D02*
D03*
X410740Y158760D02*
D03*
X403260Y158366D02*
D03*
X322432Y236433D02*
D03*
Y241432D02*
D03*
X362500Y250500D02*
D03*
X321500Y276500D02*
D03*
X322500Y261500D02*
D03*
Y256500D02*
D03*
X338000Y250500D02*
D03*
X282000Y251500D02*
D03*
X275666Y246023D02*
D03*
X273000Y255000D02*
D03*
X272980Y237020D02*
D03*
X281980Y240490D02*
D03*
X264000Y246020D02*
D03*
Y251530D02*
D03*
Y240510D02*
D03*
X230740Y253740D02*
D03*
X224910Y236410D02*
D03*
X235000Y221500D02*
D03*
X244000Y202000D02*
D03*
X221500Y231500D02*
D03*
X200623Y228623D02*
D03*
X218000Y204000D02*
D03*
X192500Y218500D02*
D03*
X187240Y220293D02*
D03*
X181000Y221500D02*
D03*
X178000D02*
D03*
Y217000D02*
D03*
X181000D02*
D03*
Y212500D02*
D03*
X178000D02*
D03*
X183799Y204514D02*
D03*
X192507Y208554D02*
D03*
X161500Y225000D02*
D03*
X157771Y238165D02*
D03*
X187623Y257377D02*
D03*
X223260Y253260D02*
D03*
X250090Y276410D02*
D03*
X157000Y248000D02*
D03*
X144000Y236500D02*
D03*
X129827Y228673D02*
D03*
X126464Y206500D02*
D03*
X123418Y180929D02*
D03*
X119918D02*
D03*
X116400Y180956D02*
D03*
X113222Y180917D02*
D03*
X109722D02*
D03*
X106204Y180944D02*
D03*
X102704D02*
D03*
X50244Y146303D02*
D03*
X187634Y168366D02*
D03*
X435500Y57500D02*
D03*
X439000Y53500D02*
D03*
X447500Y45000D02*
D03*
X451500Y40000D02*
D03*
X456000Y36000D02*
D03*
X461500Y29500D02*
D03*
X466000Y31500D02*
D03*
X501500Y50500D02*
D03*
Y58000D02*
D03*
X493500Y69000D02*
D03*
X443500Y49500D02*
D03*
G54D134*
X317000Y76500D02*
D03*
Y137500D02*
D03*
G54D136*
X365000Y210000D02*
D03*
X375000D02*
D03*
X385000D02*
D03*
M02*
