G04*
G04 #@! TF.GenerationSoftware,Altium Limited,Altium Designer,24.5.2 (23)*
G04*
G04 Layer_Color=16711935*
%FSLAX25Y25*%
%MOIN*%
G70*
G04*
G04 #@! TF.SameCoordinates,EC3A5082-E3F1-48C2-B4AC-E183049D0858*
G04*
G04*
G04 #@! TF.FilePolarity,Negative*
G04*
G01*
G75*
%ADD35R,0.05118X0.06496*%
%ADD40C,0.10433*%
%ADD41R,0.10433X0.10433*%
%ADD42C,0.00591*%
%ADD43O,0.07087X0.05200*%
%ADD44R,0.07087X0.05200*%
%ADD45R,0.07293X0.07293*%
%ADD46C,0.07293*%
%ADD47O,0.07677X0.05039*%
%ADD48R,0.07677X0.05039*%
%ADD49C,0.08071*%
%ADD50C,0.08858*%
%ADD51R,0.08858X0.08858*%
%ADD52R,0.05900X0.05900*%
%ADD53C,0.08465*%
%ADD54R,0.07677X0.10433*%
%ADD55O,0.07677X0.10433*%
%ADD57R,0.06181X0.06181*%
%ADD58C,0.06181*%
%ADD59C,0.08268*%
%ADD60R,0.08268X0.08268*%
%ADD61R,0.08386X0.08386*%
%ADD62C,0.08209*%
%ADD63C,0.08386*%
%ADD64C,0.06102*%
%ADD65R,0.06102X0.06102*%
%ADD66C,0.05800*%
%ADD67C,0.05400*%
%ADD68C,0.06591*%
%ADD69R,0.05000X0.05000*%
%ADD70C,0.05000*%
%ADD71C,0.02953*%
%ADD134R,0.13400X0.17700*%
%ADD135O,0.05900X0.07874*%
G54D35*
X35366Y119000D02*
D03*
X43634D02*
D03*
G54D40*
X152500Y96598D02*
D03*
X151906Y184000D02*
D03*
G54D41*
X96000Y96598D02*
D03*
Y184000D02*
D03*
G54D42*
X117000Y17000D02*
D03*
X534500Y293000D02*
D03*
G54D43*
X73000Y76000D02*
D03*
Y86236D02*
D03*
X175000Y165264D02*
D03*
Y175500D02*
D03*
G54D44*
X73000Y65764D02*
D03*
X175000Y185736D02*
D03*
G54D45*
X32500Y13500D02*
D03*
G54D46*
X22658Y13500D02*
D03*
G54D47*
X24500Y59000D02*
D03*
Y69000D02*
D03*
Y79000D02*
D03*
Y89000D02*
D03*
Y99000D02*
D03*
Y109000D02*
D03*
Y119000D02*
D03*
X55760Y69000D02*
D03*
Y59000D02*
D03*
Y79000D02*
D03*
Y89000D02*
D03*
Y99000D02*
D03*
Y109000D02*
D03*
Y119000D02*
D03*
Y129000D02*
D03*
G54D48*
X24500Y129000D02*
D03*
G54D49*
X59000Y198500D02*
D03*
X69000D02*
D03*
X79000D02*
D03*
X49000D02*
D03*
X39000D02*
D03*
X29000D02*
D03*
X89000Y284602D02*
D03*
X79000D02*
D03*
X69000D02*
D03*
X59000D02*
D03*
X49000D02*
D03*
X39000D02*
D03*
G54D50*
X499500Y25000D02*
D03*
X490315Y256000D02*
D03*
G54D51*
X479815Y25000D02*
D03*
X510000Y256000D02*
D03*
G54D52*
X177000Y275500D02*
D03*
G54D53*
X12000Y119000D02*
D03*
X79000Y111500D02*
D03*
X39000Y165000D02*
D03*
X110000Y228500D02*
D03*
X124693Y221193D02*
D03*
X143000Y217004D02*
D03*
X199000Y193000D02*
D03*
X230000Y206500D02*
D03*
X334500Y221000D02*
D03*
X370000Y240000D02*
D03*
X385500Y161000D02*
D03*
X110000Y243500D02*
D03*
X126500Y36000D02*
D03*
X91500Y14500D02*
D03*
G54D54*
X131500Y263500D02*
D03*
X373500Y269000D02*
D03*
G54D55*
X145280Y263500D02*
D03*
X387280Y269000D02*
D03*
G54D57*
X404500Y256000D02*
D03*
G54D58*
X404500Y226000D02*
D03*
Y236000D02*
D03*
Y246000D02*
D03*
G54D59*
X195267Y47396D02*
D03*
Y136372D02*
D03*
X362590Y107238D02*
D03*
G54D60*
X362590Y76530D02*
D03*
G54D61*
X465122Y124516D02*
D03*
X533622D02*
D03*
G54D62*
X441500Y132390D02*
D03*
X510000D02*
D03*
G54D63*
X417878Y76484D02*
D03*
X465122D02*
D03*
X486378D02*
D03*
X533622D02*
D03*
X486378Y124516D02*
D03*
X417878D02*
D03*
G54D64*
X335500Y198500D02*
D03*
X345500D02*
D03*
X355500D02*
D03*
Y168500D02*
D03*
X345500D02*
D03*
G54D65*
X335500Y168500D02*
D03*
G54D66*
X136000Y13000D02*
D03*
X146000D02*
D03*
X156000D02*
D03*
G54D67*
X106000Y76000D02*
D03*
X125685D02*
D03*
G54D68*
X145000Y47000D02*
D03*
X152500D02*
D03*
X160177Y46866D02*
D03*
X167677D02*
D03*
X175177D02*
D03*
X180000Y136000D02*
D03*
X172000D02*
D03*
X164000D02*
D03*
X153000Y135500D02*
D03*
X145500D02*
D03*
G54D69*
X78100Y49500D02*
D03*
G54D70*
X86000Y49500D02*
D03*
G54D71*
X12000Y76500D02*
D03*
X38000Y16500D02*
D03*
X42000D02*
D03*
X46000D02*
D03*
Y12500D02*
D03*
X42000D02*
D03*
X38500D02*
D03*
X50244Y146303D02*
D03*
X102704Y180944D02*
D03*
X106204D02*
D03*
X109722Y180917D02*
D03*
X113222D02*
D03*
X116400Y180956D02*
D03*
X119918Y180929D02*
D03*
X123418D02*
D03*
X134732Y214768D02*
D03*
X164500Y238170D02*
D03*
X178000Y217000D02*
D03*
X181000D02*
D03*
Y212500D02*
D03*
X178000D02*
D03*
X183799Y204514D02*
D03*
X194112Y208537D02*
D03*
X221500Y231500D02*
D03*
X224500Y211500D02*
D03*
X239000Y204500D02*
D03*
X264000Y240510D02*
D03*
X282180Y199000D02*
D03*
X277760Y183760D02*
D03*
X323500Y211500D02*
D03*
X345366Y230634D02*
D03*
X361135Y221000D02*
D03*
X369866Y198000D02*
D03*
X393634Y188259D02*
D03*
X403260Y161740D02*
D03*
X410740Y158760D02*
D03*
X439500Y161500D02*
D03*
X439000Y166500D02*
D03*
X439495Y153891D02*
D03*
X440000Y146500D02*
D03*
X442500Y141500D02*
D03*
X442610Y150816D02*
D03*
X443500Y157500D02*
D03*
X441500Y174500D02*
D03*
X453500Y191000D02*
D03*
X459000Y192000D02*
D03*
X465000Y190500D02*
D03*
X467500Y193500D02*
D03*
X470500Y196000D02*
D03*
X473500Y199500D02*
D03*
X476000Y202000D02*
D03*
X467500Y209000D02*
D03*
X509500Y184500D02*
D03*
Y172000D02*
D03*
Y159500D02*
D03*
Y148000D02*
D03*
X510000Y195000D02*
D03*
Y205500D02*
D03*
Y215500D02*
D03*
Y225000D02*
D03*
Y235000D02*
D03*
Y244000D02*
D03*
X465000Y206500D02*
D03*
X462000Y203000D02*
D03*
X459000Y200500D02*
D03*
X456500Y197500D02*
D03*
X452500D02*
D03*
X448500D02*
D03*
X444500D02*
D03*
X440500D02*
D03*
X436500D02*
D03*
X438390Y192000D02*
D03*
X437500Y178500D02*
D03*
X435000Y170500D02*
D03*
X410756Y196256D02*
D03*
X362500Y250500D02*
D03*
X321500Y276500D02*
D03*
X322500Y261500D02*
D03*
Y256500D02*
D03*
X338000Y250500D02*
D03*
X322432Y241432D02*
D03*
Y236433D02*
D03*
X304590Y226410D02*
D03*
Y221410D02*
D03*
X282000Y251500D02*
D03*
X275666Y246023D02*
D03*
X273000Y255000D02*
D03*
X272980Y237020D02*
D03*
X281980Y240490D02*
D03*
X264000Y246020D02*
D03*
Y251530D02*
D03*
X250090Y276410D02*
D03*
X230740Y253740D02*
D03*
X224910Y236410D02*
D03*
X235000Y221500D02*
D03*
X223260Y253260D02*
D03*
X194454Y248200D02*
D03*
X194123Y238165D02*
D03*
X194105Y218484D02*
D03*
X187240Y222000D02*
D03*
X181000Y221500D02*
D03*
X178000D02*
D03*
X164500Y248164D02*
D03*
X144000Y235000D02*
D03*
X149533Y224967D02*
D03*
X129827Y228673D02*
D03*
X207000Y159500D02*
D03*
X219500Y165000D02*
D03*
X239500Y162500D02*
D03*
X422077Y70781D02*
D03*
X426500Y70500D02*
D03*
Y66000D02*
D03*
X431000D02*
D03*
Y61500D02*
D03*
X435500Y62000D02*
D03*
Y57500D02*
D03*
X439000D02*
D03*
Y53500D02*
D03*
X447500Y45000D02*
D03*
X451500D02*
D03*
Y40000D02*
D03*
X456000Y41000D02*
D03*
Y36000D02*
D03*
X461500Y34500D02*
D03*
Y29500D02*
D03*
X466000Y31500D02*
D03*
X467000Y25500D02*
D03*
X472000Y27000D02*
D03*
X501000Y34000D02*
D03*
X497644Y37928D02*
D03*
X501500Y42000D02*
D03*
X498000Y46000D02*
D03*
Y53500D02*
D03*
X501500Y50500D02*
D03*
Y58000D02*
D03*
X497500Y61500D02*
D03*
X498500Y67500D02*
D03*
X494000Y67000D02*
D03*
X443500Y54000D02*
D03*
Y49500D02*
D03*
X447500D02*
D03*
G54D134*
X317000Y76500D02*
D03*
Y137500D02*
D03*
G54D135*
X365000Y210000D02*
D03*
X375000D02*
D03*
X385000D02*
D03*
M02*
