G04*
G04 #@! TF.GenerationSoftware,Altium Limited,Altium Designer,24.5.2 (23)*
G04*
G04 Layer_Color=65535*
%FSLAX25Y25*%
%MOIN*%
G70*
G04*
G04 #@! TF.SameCoordinates,EC3A5082-E3F1-48C2-B4AC-E183049D0858*
G04*
G04*
G04 #@! TF.FilePolarity,Positive*
G04*
G01*
G75*
%ADD10C,0.00600*%
%ADD11C,0.00787*%
%ADD12C,0.00472*%
%ADD13C,0.02000*%
%ADD14C,0.00984*%
%ADD15C,0.01181*%
%ADD16C,0.00500*%
%ADD17C,0.00300*%
%ADD18C,0.01968*%
%ADD19C,0.00669*%
%ADD20C,0.01394*%
G36*
X112063Y300897D02*
X112127D01*
Y300833D01*
X112190D01*
Y300707D01*
X112253D01*
Y300580D01*
X112317D01*
Y300453D01*
X112380D01*
Y300390D01*
X112443D01*
Y300263D01*
X112507D01*
Y300137D01*
X112570D01*
Y300010D01*
X112633D01*
Y299947D01*
X112697D01*
Y299820D01*
X112760D01*
Y299693D01*
X112823D01*
Y299630D01*
X112887D01*
Y299503D01*
X112950D01*
Y299377D01*
X113013D01*
Y299250D01*
X113077D01*
Y299187D01*
X113140D01*
Y299060D01*
X113203D01*
Y298933D01*
X113267D01*
Y298807D01*
X113330D01*
Y298743D01*
X113393D01*
Y298617D01*
X113457D01*
Y298490D01*
X113520D01*
Y298363D01*
X113583D01*
Y298300D01*
X113647D01*
Y298173D01*
X113710D01*
Y298047D01*
X113773D01*
Y297920D01*
X113837D01*
Y297857D01*
X113900D01*
Y297730D01*
X113963D01*
Y297603D01*
X114027D01*
Y297540D01*
X114090D01*
Y297413D01*
X114153D01*
Y297287D01*
X114217D01*
Y297160D01*
X114280D01*
Y297097D01*
X114343D01*
Y296970D01*
X114407D01*
Y296843D01*
X114470D01*
Y296717D01*
X114533D01*
Y296653D01*
X114597D01*
Y296527D01*
X114660D01*
Y296400D01*
X114723D01*
Y296273D01*
X114787D01*
Y296147D01*
X114660D01*
Y296083D01*
X114533D01*
Y296020D01*
X114470D01*
Y295957D01*
X114343D01*
Y295893D01*
X114217D01*
Y295830D01*
X114027D01*
Y295767D01*
X113900D01*
Y295703D01*
X113710D01*
Y295640D01*
X113583D01*
Y295577D01*
X113330D01*
Y295513D01*
X113140D01*
Y295450D01*
X112823D01*
Y295387D01*
X112507D01*
Y295323D01*
X112127D01*
Y295260D01*
X111683D01*
Y295197D01*
X111177D01*
Y295133D01*
X110797D01*
Y295070D01*
X110480D01*
Y295007D01*
X110290D01*
Y294943D01*
X110100D01*
Y294880D01*
X109910D01*
Y294817D01*
X109847D01*
Y294753D01*
X109720D01*
Y294690D01*
X109657D01*
Y294627D01*
X109593D01*
Y294563D01*
X109530D01*
Y294500D01*
X109467D01*
Y294437D01*
X109403D01*
Y294373D01*
Y294310D01*
X109340D01*
Y294247D01*
X109213D01*
Y294310D01*
X109087D01*
Y294373D01*
X108960D01*
Y294437D01*
X108897D01*
Y294500D01*
X108770D01*
Y294563D01*
X108643D01*
Y294627D01*
X108580D01*
Y294690D01*
X108453D01*
Y294753D01*
X108390D01*
Y294880D01*
X108453D01*
Y295007D01*
X108517D01*
Y295070D01*
X108580D01*
Y295197D01*
X108643D01*
Y295323D01*
X108707D01*
Y295450D01*
X108770D01*
Y295513D01*
X108833D01*
Y295640D01*
X108897D01*
Y295767D01*
X108960D01*
Y295893D01*
X109023D01*
Y295957D01*
X109087D01*
Y296083D01*
X109150D01*
Y296210D01*
X109213D01*
Y296337D01*
X109277D01*
Y296400D01*
X109340D01*
Y296527D01*
X109403D01*
Y296653D01*
X109467D01*
Y296717D01*
X109530D01*
Y296843D01*
X109593D01*
Y296970D01*
X109657D01*
Y297097D01*
X109720D01*
Y297160D01*
X109783D01*
Y297287D01*
X109847D01*
Y297413D01*
X109910D01*
Y297540D01*
X109973D01*
Y297603D01*
X110037D01*
Y297730D01*
X110100D01*
Y297857D01*
X110163D01*
Y297983D01*
X110227D01*
Y298047D01*
X110290D01*
Y298173D01*
X110353D01*
Y298300D01*
X110417D01*
Y298363D01*
X110480D01*
Y298490D01*
X110543D01*
Y298617D01*
X110607D01*
Y298743D01*
X110670D01*
Y298807D01*
X110733D01*
Y298933D01*
X110797D01*
Y299060D01*
X110860D01*
Y299187D01*
X110923D01*
Y299250D01*
X110987D01*
Y299377D01*
X111050D01*
Y299503D01*
X111113D01*
Y299630D01*
X111177D01*
Y299693D01*
X111240D01*
Y299820D01*
X111303D01*
Y299947D01*
X111367D01*
Y300010D01*
X111430D01*
Y300137D01*
X111493D01*
Y300263D01*
X111557D01*
Y300390D01*
X111620D01*
Y300453D01*
X111683D01*
Y300580D01*
X111747D01*
Y300707D01*
X111810D01*
Y300833D01*
X111873D01*
Y300897D01*
X111937D01*
Y301023D01*
X112063D01*
Y300897D01*
D02*
G37*
G36*
X116307Y293550D02*
X116370D01*
Y293423D01*
X116433D01*
Y293360D01*
X116497D01*
Y293233D01*
X116560D01*
Y293107D01*
X116623D01*
Y293043D01*
X116687D01*
Y292917D01*
X116750D01*
Y292790D01*
X116813D01*
Y292663D01*
X116877D01*
Y292600D01*
X116940D01*
Y292473D01*
X117003D01*
Y292347D01*
X117067D01*
Y292220D01*
X117130D01*
Y292157D01*
X117193D01*
Y292030D01*
X117257D01*
Y291903D01*
X117320D01*
Y291777D01*
X117383D01*
Y291713D01*
X117447D01*
Y291587D01*
X117510D01*
Y291523D01*
Y291460D01*
X117573D01*
Y291397D01*
X117637D01*
Y291270D01*
X117700D01*
Y291143D01*
X117763D01*
Y291017D01*
X117827D01*
Y290953D01*
X117890D01*
Y290827D01*
X117953D01*
Y290700D01*
X118017D01*
Y290573D01*
X118080D01*
Y290510D01*
X118143D01*
Y290383D01*
X118207D01*
Y290257D01*
X118270D01*
Y290130D01*
X118333D01*
Y290067D01*
X118397D01*
Y289940D01*
X118460D01*
Y289813D01*
X118523D01*
Y289750D01*
X118587D01*
Y289623D01*
X118650D01*
Y289497D01*
X118713D01*
Y289370D01*
X118777D01*
Y289307D01*
X118840D01*
Y289180D01*
X118903D01*
Y289053D01*
X118967D01*
Y288927D01*
X119030D01*
Y288863D01*
X119093D01*
Y288737D01*
X119157D01*
Y288610D01*
X119220D01*
Y288547D01*
X119093D01*
Y288610D01*
X118967D01*
Y288673D01*
X118840D01*
Y288737D01*
X118777D01*
Y288800D01*
X118650D01*
Y288863D01*
X118523D01*
Y288927D01*
X118397D01*
Y288990D01*
X118333D01*
Y289053D01*
X118207D01*
Y289117D01*
X118080D01*
Y289180D01*
X117953D01*
Y289243D01*
X117890D01*
Y289307D01*
X117763D01*
Y289370D01*
X117637D01*
Y289433D01*
X117573D01*
Y289497D01*
X117447D01*
Y289560D01*
X117320D01*
Y289623D01*
X117193D01*
Y289687D01*
X117130D01*
Y289750D01*
X117003D01*
Y289813D01*
X116877D01*
Y289877D01*
X116750D01*
Y289940D01*
X116687D01*
Y290003D01*
X116560D01*
Y290067D01*
X116433D01*
Y290130D01*
X116307D01*
Y290193D01*
X116243D01*
Y290257D01*
X116117D01*
Y290320D01*
X115990D01*
Y290383D01*
X115927D01*
Y290447D01*
X115800D01*
Y290510D01*
X115673D01*
Y290573D01*
X115547D01*
Y290637D01*
X115483D01*
Y290700D01*
X115357D01*
Y290763D01*
X115230D01*
Y290827D01*
X115103D01*
Y290890D01*
X115040D01*
Y290953D01*
X114913D01*
Y291017D01*
X114787D01*
Y291080D01*
X114723D01*
Y291143D01*
X114597D01*
Y291207D01*
X114470D01*
Y291270D01*
X114343D01*
Y291333D01*
X114280D01*
Y291397D01*
X114153D01*
Y291460D01*
X114217D01*
Y291523D01*
X114280D01*
Y291587D01*
X114343D01*
Y291650D01*
X114407D01*
Y291713D01*
X114470D01*
Y291777D01*
X114533D01*
Y291840D01*
X114597D01*
Y291967D01*
X114660D01*
Y292030D01*
X114723D01*
Y292093D01*
X114787D01*
Y292157D01*
X114850D01*
Y292220D01*
X114913D01*
Y292283D01*
X114977D01*
Y292347D01*
X115040D01*
Y292410D01*
X115103D01*
Y292473D01*
X115167D01*
Y292537D01*
X115230D01*
Y292600D01*
X115293D01*
Y292663D01*
X115357D01*
Y292790D01*
X115420D01*
Y292853D01*
X115483D01*
Y292917D01*
X115547D01*
Y292980D01*
X115610D01*
Y293043D01*
X115673D01*
Y293107D01*
X115737D01*
Y293170D01*
X115800D01*
Y293233D01*
X115863D01*
Y293297D01*
X115927D01*
Y293360D01*
X115990D01*
Y293423D01*
X116053D01*
Y293487D01*
X116117D01*
Y293550D01*
X116180D01*
Y293613D01*
X116243D01*
Y293677D01*
X116307D01*
Y293550D01*
D02*
G37*
G36*
X107693Y293423D02*
X107820D01*
Y293360D01*
X107947D01*
Y293297D01*
X108010D01*
Y293233D01*
X108137D01*
Y293170D01*
X108263D01*
Y293107D01*
X108390D01*
Y293043D01*
X108453D01*
Y292853D01*
X108390D01*
Y292727D01*
X108327D01*
Y292663D01*
X108263D01*
Y292537D01*
X108200D01*
Y292410D01*
X108137D01*
Y292347D01*
X108073D01*
Y292220D01*
X108010D01*
Y292157D01*
X107947D01*
Y292030D01*
X107883D01*
Y291903D01*
X107820D01*
Y291840D01*
X107757D01*
Y291713D01*
X107693D01*
Y291650D01*
X107630D01*
Y291080D01*
X107693D01*
Y290827D01*
X107757D01*
Y290573D01*
X107820D01*
Y290320D01*
X107883D01*
Y290003D01*
X107947D01*
Y289750D01*
X108010D01*
Y289560D01*
X108073D01*
Y289370D01*
X108137D01*
Y289307D01*
X108200D01*
Y289243D01*
X108263D01*
Y289180D01*
X108707D01*
Y289117D01*
X108770D01*
Y288990D01*
X108833D01*
Y288800D01*
X108897D01*
Y288610D01*
X108960D01*
Y288357D01*
X109023D01*
Y288167D01*
X109087D01*
Y288040D01*
X109213D01*
Y288103D01*
X109277D01*
Y288230D01*
X109340D01*
Y288293D01*
X109403D01*
Y288420D01*
X109467D01*
Y288610D01*
X109530D01*
Y289307D01*
X109467D01*
Y289497D01*
X109403D01*
Y289560D01*
X109340D01*
Y289687D01*
X109277D01*
Y289750D01*
X109213D01*
Y289813D01*
X109150D01*
Y289940D01*
X109087D01*
Y290003D01*
X109150D01*
Y291207D01*
X109087D01*
Y291397D01*
X109150D01*
Y291523D01*
X109213D01*
Y291650D01*
X109277D01*
Y291777D01*
X109340D01*
Y291840D01*
X109403D01*
Y291967D01*
X109467D01*
Y292030D01*
X109530D01*
Y292093D01*
X109593D01*
Y292220D01*
X109657D01*
Y292283D01*
X109783D01*
Y292220D01*
X109910D01*
Y292157D01*
X109973D01*
Y292093D01*
X109910D01*
Y292030D01*
X109847D01*
Y291967D01*
X109783D01*
Y291840D01*
X109720D01*
Y291777D01*
X109657D01*
Y291713D01*
X109593D01*
Y291650D01*
X109530D01*
Y291587D01*
X109467D01*
Y291460D01*
X109403D01*
Y290827D01*
X109467D01*
Y290573D01*
X109403D01*
Y290257D01*
X109340D01*
Y290003D01*
X109403D01*
Y289813D01*
X109467D01*
Y289687D01*
X109530D01*
Y289623D01*
X109657D01*
Y289687D01*
X109783D01*
Y289750D01*
X109847D01*
Y289877D01*
X109910D01*
Y289940D01*
X109973D01*
Y290130D01*
X110037D01*
Y290320D01*
X109973D01*
Y290510D01*
X109910D01*
Y290700D01*
X109847D01*
Y290827D01*
X109783D01*
Y290953D01*
X109720D01*
Y291333D01*
X109783D01*
Y291460D01*
X109847D01*
Y291587D01*
X109910D01*
Y291713D01*
X109973D01*
Y291840D01*
X110037D01*
Y291903D01*
X110100D01*
Y292030D01*
X110227D01*
Y291967D01*
X110353D01*
Y291903D01*
X110417D01*
Y291840D01*
X110290D01*
Y291777D01*
X110227D01*
Y291713D01*
X110163D01*
Y291650D01*
X110100D01*
Y291523D01*
X110037D01*
Y291397D01*
X109973D01*
Y290763D01*
X110037D01*
Y290573D01*
X110100D01*
Y290447D01*
X110163D01*
Y290383D01*
X110290D01*
Y290447D01*
X110353D01*
Y291080D01*
X110290D01*
Y291460D01*
X110353D01*
Y291523D01*
X110417D01*
Y291587D01*
X110480D01*
Y291840D01*
X110543D01*
Y291777D01*
X110670D01*
Y291650D01*
X110607D01*
Y291587D01*
X110543D01*
Y291460D01*
X110480D01*
Y291017D01*
X110543D01*
Y290890D01*
X110607D01*
Y290827D01*
X110733D01*
Y290890D01*
X110797D01*
Y290953D01*
X110860D01*
Y291080D01*
X110797D01*
Y291207D01*
X110733D01*
Y291397D01*
X110797D01*
Y291460D01*
X110860D01*
Y291587D01*
X110987D01*
Y291523D01*
X111113D01*
Y291460D01*
X111240D01*
Y291397D01*
X111303D01*
Y291333D01*
X111430D01*
Y291270D01*
X111367D01*
Y291207D01*
X111303D01*
Y291080D01*
X111240D01*
Y291017D01*
X111177D01*
Y290953D01*
X111113D01*
Y290890D01*
X111050D01*
Y290827D01*
X110987D01*
Y290763D01*
X110923D01*
Y290700D01*
X110860D01*
Y290637D01*
X110797D01*
Y290573D01*
X110733D01*
Y290510D01*
X110670D01*
Y290447D01*
X110607D01*
Y290383D01*
X110543D01*
Y290320D01*
X110480D01*
Y290257D01*
X110417D01*
Y290130D01*
X110353D01*
Y290067D01*
X110290D01*
Y289940D01*
X110227D01*
Y289813D01*
X110163D01*
Y289687D01*
X110100D01*
Y288990D01*
X110037D01*
Y288610D01*
X110163D01*
Y288673D01*
X110227D01*
Y288800D01*
X110290D01*
Y288927D01*
X110353D01*
Y288990D01*
X110417D01*
Y289117D01*
X110480D01*
Y289180D01*
X110543D01*
Y289243D01*
X110607D01*
Y289307D01*
X110733D01*
Y289370D01*
X111177D01*
Y289307D01*
X111303D01*
Y289243D01*
X111367D01*
Y289117D01*
X111430D01*
Y289053D01*
X111557D01*
Y289117D01*
X111620D01*
Y289180D01*
X111683D01*
Y289243D01*
X111747D01*
Y289307D01*
X111810D01*
Y289433D01*
X111873D01*
Y289497D01*
X111937D01*
Y289560D01*
X112000D01*
Y289623D01*
X112063D01*
Y289687D01*
X112127D01*
Y289750D01*
X112190D01*
Y289813D01*
X112253D01*
Y289877D01*
X112317D01*
Y289940D01*
X112380D01*
Y290003D01*
X112443D01*
Y290067D01*
X112507D01*
Y290130D01*
X112570D01*
Y290193D01*
X112633D01*
Y290257D01*
X112697D01*
Y290320D01*
X112760D01*
Y290383D01*
X112823D01*
Y290447D01*
X112950D01*
Y290383D01*
X113077D01*
Y290320D01*
X113203D01*
Y290257D01*
X113330D01*
Y290193D01*
X113393D01*
Y290130D01*
X113520D01*
Y290067D01*
X113647D01*
Y290003D01*
X113773D01*
Y289940D01*
X113837D01*
Y289877D01*
X113963D01*
Y289813D01*
X114090D01*
Y289750D01*
X114153D01*
Y289687D01*
X114280D01*
Y289623D01*
X114407D01*
Y289560D01*
X114533D01*
Y289497D01*
X114597D01*
Y289433D01*
X114723D01*
Y289370D01*
X114850D01*
Y289307D01*
X114977D01*
Y289243D01*
X115040D01*
Y289180D01*
X115167D01*
Y289117D01*
X115293D01*
Y289053D01*
X115420D01*
Y288990D01*
X115483D01*
Y288927D01*
X115610D01*
Y288863D01*
X115737D01*
Y288800D01*
X115800D01*
Y288737D01*
X115927D01*
Y288673D01*
X116053D01*
Y288610D01*
X116180D01*
Y288547D01*
X116243D01*
Y288483D01*
X116370D01*
Y288420D01*
X116497D01*
Y288357D01*
X116623D01*
Y288293D01*
X116687D01*
Y288230D01*
X116813D01*
Y288167D01*
X116940D01*
Y288103D01*
X117003D01*
Y288040D01*
X117130D01*
Y287977D01*
X117257D01*
Y287913D01*
X117383D01*
Y287850D01*
X117447D01*
Y287787D01*
X117573D01*
Y287723D01*
X117700D01*
Y287660D01*
X117827D01*
Y287597D01*
X117890D01*
Y287533D01*
X118017D01*
Y287470D01*
X118143D01*
Y287407D01*
X118270D01*
Y287343D01*
X118333D01*
Y287280D01*
X118460D01*
Y287217D01*
X118587D01*
Y287153D01*
X103957D01*
Y287217D01*
X104020D01*
Y287280D01*
X104083D01*
Y287407D01*
X104147D01*
Y287533D01*
X104210D01*
Y287660D01*
X104273D01*
Y287723D01*
X104337D01*
Y287850D01*
X104400D01*
Y287977D01*
X104463D01*
Y288103D01*
X104527D01*
Y288167D01*
X104590D01*
Y288293D01*
X104653D01*
Y288420D01*
X104717D01*
Y288483D01*
X104780D01*
Y288610D01*
X104843D01*
Y288737D01*
X104907D01*
Y288863D01*
X104970D01*
Y288927D01*
X105033D01*
Y289053D01*
X105097D01*
Y289180D01*
X105160D01*
Y289307D01*
X105223D01*
Y289370D01*
X105287D01*
Y289497D01*
X105350D01*
Y289623D01*
X105413D01*
Y289750D01*
X105477D01*
Y289813D01*
X105540D01*
Y289940D01*
X105603D01*
Y290067D01*
X105667D01*
Y290130D01*
X105730D01*
Y290257D01*
X105793D01*
Y290383D01*
X105857D01*
Y290510D01*
X105920D01*
Y290573D01*
X105983D01*
Y290700D01*
X106047D01*
Y290827D01*
X106110D01*
Y290953D01*
X106173D01*
Y291017D01*
X106237D01*
Y291143D01*
X106300D01*
Y291270D01*
X106363D01*
Y291397D01*
X106427D01*
Y291460D01*
X106490D01*
Y291587D01*
X106553D01*
Y291713D01*
X106617D01*
Y291777D01*
X106680D01*
Y291903D01*
X106743D01*
Y292030D01*
X106807D01*
Y292157D01*
X106870D01*
Y292220D01*
X106933D01*
Y292347D01*
X106997D01*
Y292473D01*
X107060D01*
Y292600D01*
X107123D01*
Y292663D01*
X107187D01*
Y292790D01*
X107250D01*
Y292917D01*
X107313D01*
Y293043D01*
X107377D01*
Y293107D01*
X107440D01*
Y293233D01*
X107503D01*
Y293360D01*
X107567D01*
Y293423D01*
X107630D01*
Y293487D01*
X107693D01*
Y293423D01*
D02*
G37*
G36*
X412894Y39686D02*
X413037D01*
Y39542D01*
X413324D01*
Y39255D01*
X413468D01*
Y38968D01*
X413612D01*
Y38824D01*
X413755D01*
Y38537D01*
X413899D01*
Y38250D01*
X414043D01*
Y38106D01*
X414186D01*
Y37819D01*
X414330D01*
Y37532D01*
X414473D01*
Y37245D01*
X414617D01*
Y37101D01*
X414761D01*
Y36814D01*
X414904D01*
Y36527D01*
X415048D01*
Y36239D01*
X415192D01*
Y35952D01*
X415335D01*
Y35809D01*
X415479D01*
Y35521D01*
X415622D01*
Y35234D01*
X415766D01*
Y34947D01*
X415910D01*
Y34803D01*
X416053D01*
Y34516D01*
X416197D01*
Y34229D01*
X416340D01*
Y33942D01*
X416484D01*
Y33798D01*
X416628D01*
Y33511D01*
X416771D01*
Y33223D01*
X416915D01*
Y32936D01*
X417059D01*
Y32792D01*
X417202D01*
Y32505D01*
X417346D01*
Y32218D01*
X417489D01*
Y31931D01*
X417633D01*
Y31787D01*
X417777D01*
Y31500D01*
X417920D01*
Y31213D01*
X418064D01*
Y30926D01*
X418207D01*
Y30782D01*
X418351D01*
Y30495D01*
X418495D01*
Y30207D01*
X418638D01*
Y29920D01*
X418782D01*
Y29777D01*
X418926D01*
Y29489D01*
X419069D01*
Y29202D01*
X419213D01*
Y28915D01*
X419356D01*
Y28771D01*
X419500D01*
Y28484D01*
X419644D01*
Y28197D01*
X419787D01*
Y27910D01*
X419931D01*
Y27766D01*
X420075D01*
Y27479D01*
X420218D01*
Y27191D01*
X420362D01*
Y27048D01*
X420505D01*
Y26761D01*
X420649D01*
Y26473D01*
X420793D01*
Y26186D01*
X420936D01*
Y25899D01*
X421080D01*
Y25755D01*
X421223D01*
Y25468D01*
X421367D01*
Y25181D01*
X421511D01*
Y24894D01*
X421654D01*
Y24750D01*
X421798D01*
Y24463D01*
X421942D01*
Y24175D01*
X422085D01*
Y24032D01*
X422229D01*
Y23745D01*
X422372D01*
Y23458D01*
X422516D01*
Y23170D01*
X422660D01*
Y22883D01*
X422803D01*
Y22739D01*
X422947D01*
Y22452D01*
X423090D01*
Y22165D01*
X423234D01*
Y21878D01*
X423378D01*
Y21734D01*
X423521D01*
Y21447D01*
X423665D01*
Y21160D01*
X423808D01*
Y20872D01*
X423952D01*
Y20729D01*
X424096D01*
Y20441D01*
X424239D01*
Y20154D01*
X424383D01*
Y19867D01*
X424527D01*
Y19723D01*
X424670D01*
Y19436D01*
X424814D01*
Y19149D01*
X424957D01*
Y18862D01*
X425101D01*
Y18718D01*
X425245D01*
Y18431D01*
X425388D01*
Y18144D01*
X425532D01*
Y17856D01*
X425675D01*
Y17713D01*
X425819D01*
Y17425D01*
X425963D01*
Y17138D01*
X426106D01*
Y16851D01*
X426250D01*
Y16707D01*
X426394D01*
Y16420D01*
X426537D01*
Y16133D01*
X426681D01*
Y15846D01*
X426825D01*
Y15702D01*
X426968D01*
Y15415D01*
X427112D01*
Y15128D01*
X427255D01*
Y14840D01*
X427399D01*
Y14697D01*
X427543D01*
Y14410D01*
X427686D01*
Y14122D01*
X427830D01*
Y13979D01*
X427973D01*
Y13691D01*
X428117D01*
Y13404D01*
X428261D01*
Y13117D01*
X428404D01*
Y12973D01*
X428548D01*
Y12686D01*
X428691D01*
Y12399D01*
X428835D01*
Y11968D01*
X428979D01*
Y11394D01*
X428835D01*
Y11106D01*
X428691D01*
Y10963D01*
X428548D01*
Y10819D01*
X428261D01*
Y10676D01*
X396378D01*
Y10819D01*
X396234D01*
Y10963D01*
X396090D01*
Y11250D01*
X395947D01*
Y11537D01*
X395803D01*
Y11968D01*
X395947D01*
Y12399D01*
X396090D01*
Y12542D01*
X396234D01*
Y12830D01*
X396378D01*
Y13117D01*
X396521D01*
Y13404D01*
X396665D01*
Y13548D01*
X396809D01*
Y13835D01*
X396952D01*
Y14122D01*
X397096D01*
Y14410D01*
X397239D01*
Y14553D01*
X397383D01*
Y14840D01*
X397527D01*
Y15128D01*
X397670D01*
Y15415D01*
X397814D01*
Y15559D01*
X397957D01*
Y15846D01*
X398101D01*
Y16133D01*
X398245D01*
Y16420D01*
X398388D01*
Y16564D01*
X398532D01*
Y16851D01*
X398675D01*
Y17138D01*
X398819D01*
Y17425D01*
X398963D01*
Y17569D01*
X399106D01*
Y17856D01*
X399250D01*
Y18144D01*
X399394D01*
Y18431D01*
X399537D01*
Y18575D01*
X399681D01*
Y18862D01*
X399825D01*
Y19149D01*
X399968D01*
Y19436D01*
X400112D01*
Y19723D01*
X400255D01*
Y19867D01*
X400399D01*
Y20154D01*
X400542D01*
Y20441D01*
X400686D01*
Y20729D01*
X400830D01*
Y20872D01*
X400973D01*
Y21160D01*
X401117D01*
Y21447D01*
X401261D01*
Y21590D01*
X401404D01*
Y21878D01*
X401548D01*
Y22165D01*
X401691D01*
Y22452D01*
X401835D01*
Y22596D01*
X401979D01*
Y22883D01*
X402122D01*
Y23170D01*
X402266D01*
Y23458D01*
X402410D01*
Y23745D01*
X402553D01*
Y23888D01*
X402697D01*
Y24175D01*
X402840D01*
Y24463D01*
X402984D01*
Y24606D01*
X403128D01*
Y24894D01*
X403271D01*
Y25181D01*
X403415D01*
Y25468D01*
X403558D01*
Y25755D01*
X403702D01*
Y25899D01*
X403846D01*
Y26186D01*
X403989D01*
Y26473D01*
X404133D01*
Y26617D01*
X404277D01*
Y26904D01*
X404420D01*
Y27191D01*
X404564D01*
Y27479D01*
X404707D01*
Y27622D01*
X404851D01*
Y27910D01*
X404995D01*
Y28197D01*
X405138D01*
Y28484D01*
X405282D01*
Y28628D01*
X405426D01*
Y28915D01*
X405569D01*
Y29202D01*
X405713D01*
Y29489D01*
X405856D01*
Y29633D01*
X406000D01*
Y29920D01*
X406144D01*
Y30207D01*
X406287D01*
Y30495D01*
X406431D01*
Y30638D01*
X406574D01*
Y30926D01*
X406718D01*
Y31213D01*
X406862D01*
Y31500D01*
X407005D01*
Y31787D01*
X407149D01*
Y31931D01*
X407293D01*
Y32218D01*
X407436D01*
Y32505D01*
X407580D01*
Y32649D01*
X407723D01*
Y32936D01*
X407867D01*
Y33223D01*
X408011D01*
Y33511D01*
X408154D01*
Y33654D01*
X408298D01*
Y33942D01*
X408441D01*
Y34229D01*
X408585D01*
Y34516D01*
X408729D01*
Y34660D01*
X408872D01*
Y34947D01*
X409016D01*
Y35234D01*
X409160D01*
Y35521D01*
X409303D01*
Y35809D01*
X409447D01*
Y35952D01*
X409590D01*
Y36239D01*
X409734D01*
Y36527D01*
X409878D01*
Y36814D01*
X410021D01*
Y36957D01*
X410165D01*
Y37245D01*
X410309D01*
Y37532D01*
X410452D01*
Y37819D01*
X410596D01*
Y37963D01*
X410739D01*
Y38250D01*
X410883D01*
Y38537D01*
X411027D01*
Y38681D01*
X411170D01*
Y38968D01*
X411314D01*
Y39255D01*
X411457D01*
Y39399D01*
X411601D01*
Y39542D01*
X411745D01*
Y39686D01*
X411888D01*
Y39830D01*
X412894D01*
Y39686D01*
D02*
G37*
G36*
X476352Y176518D02*
X476453D01*
Y176417D01*
X476555D01*
Y176213D01*
X476657D01*
Y176010D01*
X476758D01*
Y175807D01*
X476860D01*
Y175705D01*
X476962D01*
Y175502D01*
X477063D01*
Y175298D01*
X477165D01*
Y175095D01*
X477267D01*
Y174993D01*
X477368D01*
Y174790D01*
X477470D01*
Y174587D01*
X477572D01*
Y174485D01*
X477673D01*
Y174282D01*
X477775D01*
Y174078D01*
X477877D01*
Y173875D01*
X477978D01*
Y173773D01*
X478080D01*
Y173570D01*
X478182D01*
Y173367D01*
X478283D01*
Y173163D01*
X478385D01*
Y173062D01*
X478487D01*
Y172858D01*
X478588D01*
Y172655D01*
X478690D01*
Y172452D01*
X478792D01*
Y172350D01*
X478893D01*
Y172147D01*
X478995D01*
Y171943D01*
X479097D01*
Y171740D01*
X479198D01*
Y171638D01*
X479300D01*
Y171435D01*
X479402D01*
Y171232D01*
X479503D01*
Y171130D01*
X479605D01*
Y170927D01*
X479707D01*
Y170723D01*
X479808D01*
Y170520D01*
X479910D01*
Y170418D01*
X480012D01*
Y170215D01*
X480113D01*
Y170012D01*
X480215D01*
Y169808D01*
X480317D01*
Y169707D01*
X480418D01*
Y169503D01*
X480520D01*
Y169300D01*
X480622D01*
Y169097D01*
X480723D01*
Y168893D01*
X480520D01*
Y168792D01*
X480317D01*
Y168690D01*
X480215D01*
Y168588D01*
X480012D01*
Y168487D01*
X479808D01*
Y168385D01*
X479503D01*
Y168283D01*
X479300D01*
Y168182D01*
X478995D01*
Y168080D01*
X478792D01*
Y167978D01*
X478385D01*
Y167877D01*
X478080D01*
Y167775D01*
X477572D01*
Y167673D01*
X477063D01*
Y167572D01*
X476453D01*
Y167470D01*
X475742D01*
Y167368D01*
X474928D01*
Y167267D01*
X474318D01*
Y167165D01*
X473810D01*
Y167063D01*
X473505D01*
Y166962D01*
X473200D01*
Y166860D01*
X472895D01*
Y166758D01*
X472793D01*
Y166657D01*
X472590D01*
Y166555D01*
X472488D01*
Y166453D01*
X472387D01*
Y166352D01*
X472285D01*
Y166250D01*
X472183D01*
Y166148D01*
X472082D01*
Y166047D01*
Y165945D01*
X471980D01*
Y165843D01*
X471777D01*
Y165945D01*
X471573D01*
Y166047D01*
X471370D01*
Y166148D01*
X471268D01*
Y166250D01*
X471065D01*
Y166352D01*
X470862D01*
Y166453D01*
X470760D01*
Y166555D01*
X470557D01*
Y166657D01*
X470455D01*
Y166860D01*
X470557D01*
Y167063D01*
X470658D01*
Y167165D01*
X470760D01*
Y167368D01*
X470862D01*
Y167572D01*
X470963D01*
Y167775D01*
X471065D01*
Y167877D01*
X471167D01*
Y168080D01*
X471268D01*
Y168283D01*
X471370D01*
Y168487D01*
X471472D01*
Y168588D01*
X471573D01*
Y168792D01*
X471675D01*
Y168995D01*
X471777D01*
Y169198D01*
X471878D01*
Y169300D01*
X471980D01*
Y169503D01*
X472082D01*
Y169707D01*
X472183D01*
Y169808D01*
X472285D01*
Y170012D01*
X472387D01*
Y170215D01*
X472488D01*
Y170418D01*
X472590D01*
Y170520D01*
X472692D01*
Y170723D01*
X472793D01*
Y170927D01*
X472895D01*
Y171130D01*
X472997D01*
Y171232D01*
X473098D01*
Y171435D01*
X473200D01*
Y171638D01*
X473302D01*
Y171842D01*
X473403D01*
Y171943D01*
X473505D01*
Y172147D01*
X473607D01*
Y172350D01*
X473708D01*
Y172452D01*
X473810D01*
Y172655D01*
X473912D01*
Y172858D01*
X474013D01*
Y173062D01*
X474115D01*
Y173163D01*
X474217D01*
Y173367D01*
X474318D01*
Y173570D01*
X474420D01*
Y173773D01*
X474522D01*
Y173875D01*
X474623D01*
Y174078D01*
X474725D01*
Y174282D01*
X474827D01*
Y174485D01*
X474928D01*
Y174587D01*
X475030D01*
Y174790D01*
X475132D01*
Y174993D01*
X475233D01*
Y175095D01*
X475335D01*
Y175298D01*
X475437D01*
Y175502D01*
X475538D01*
Y175705D01*
X475640D01*
Y175807D01*
X475742D01*
Y176010D01*
X475843D01*
Y176213D01*
X475945D01*
Y176417D01*
X476047D01*
Y176518D01*
X476148D01*
Y176722D01*
X476352D01*
Y176518D01*
D02*
G37*
G36*
X483163Y164725D02*
X483265D01*
Y164522D01*
X483367D01*
Y164420D01*
X483468D01*
Y164217D01*
X483570D01*
Y164013D01*
X483672D01*
Y163912D01*
X483773D01*
Y163708D01*
X483875D01*
Y163505D01*
X483977D01*
Y163302D01*
X484078D01*
Y163200D01*
X484180D01*
Y162997D01*
X484282D01*
Y162793D01*
X484383D01*
Y162590D01*
X484485D01*
Y162488D01*
X484587D01*
Y162285D01*
X484688D01*
Y162082D01*
X484790D01*
Y161878D01*
X484892D01*
Y161777D01*
X484993D01*
Y161573D01*
X485095D01*
Y161472D01*
Y161370D01*
X485197D01*
Y161268D01*
X485298D01*
Y161065D01*
X485400D01*
Y160862D01*
X485502D01*
Y160658D01*
X485603D01*
Y160557D01*
X485705D01*
Y160353D01*
X485807D01*
Y160150D01*
X485908D01*
Y159947D01*
X486010D01*
Y159845D01*
X486112D01*
Y159642D01*
X486213D01*
Y159438D01*
X486315D01*
Y159235D01*
X486417D01*
Y159133D01*
X486518D01*
Y158930D01*
X486620D01*
Y158727D01*
X486722D01*
Y158625D01*
X486823D01*
Y158422D01*
X486925D01*
Y158218D01*
X487027D01*
Y158015D01*
X487128D01*
Y157913D01*
X487230D01*
Y157710D01*
X487332D01*
Y157507D01*
X487433D01*
Y157303D01*
X487535D01*
Y157202D01*
X487637D01*
Y156998D01*
X487738D01*
Y156795D01*
X487840D01*
Y156693D01*
X487637D01*
Y156795D01*
X487433D01*
Y156897D01*
X487230D01*
Y156998D01*
X487128D01*
Y157100D01*
X486925D01*
Y157202D01*
X486722D01*
Y157303D01*
X486518D01*
Y157405D01*
X486417D01*
Y157507D01*
X486213D01*
Y157608D01*
X486010D01*
Y157710D01*
X485807D01*
Y157812D01*
X485705D01*
Y157913D01*
X485502D01*
Y158015D01*
X485298D01*
Y158117D01*
X485197D01*
Y158218D01*
X484993D01*
Y158320D01*
X484790D01*
Y158422D01*
X484587D01*
Y158523D01*
X484485D01*
Y158625D01*
X484282D01*
Y158727D01*
X484078D01*
Y158828D01*
X483875D01*
Y158930D01*
X483773D01*
Y159032D01*
X483570D01*
Y159133D01*
X483367D01*
Y159235D01*
X483163D01*
Y159337D01*
X483062D01*
Y159438D01*
X482858D01*
Y159540D01*
X482655D01*
Y159642D01*
X482553D01*
Y159743D01*
X482350D01*
Y159845D01*
X482147D01*
Y159947D01*
X481943D01*
Y160048D01*
X481842D01*
Y160150D01*
X481638D01*
Y160252D01*
X481435D01*
Y160353D01*
X481232D01*
Y160455D01*
X481130D01*
Y160557D01*
X480927D01*
Y160658D01*
X480723D01*
Y160760D01*
X480622D01*
Y160862D01*
X480418D01*
Y160963D01*
X480215D01*
Y161065D01*
X480012D01*
Y161167D01*
X479910D01*
Y161268D01*
X479707D01*
Y161370D01*
X479808D01*
Y161472D01*
X479910D01*
Y161573D01*
X480012D01*
Y161675D01*
X480113D01*
Y161777D01*
X480215D01*
Y161878D01*
X480317D01*
Y161980D01*
X480418D01*
Y162183D01*
X480520D01*
Y162285D01*
X480622D01*
Y162387D01*
X480723D01*
Y162488D01*
X480825D01*
Y162590D01*
X480927D01*
Y162692D01*
X481028D01*
Y162793D01*
X481130D01*
Y162895D01*
X481232D01*
Y162997D01*
X481333D01*
Y163098D01*
X481435D01*
Y163200D01*
X481537D01*
Y163302D01*
X481638D01*
Y163505D01*
X481740D01*
Y163607D01*
X481842D01*
Y163708D01*
X481943D01*
Y163810D01*
X482045D01*
Y163912D01*
X482147D01*
Y164013D01*
X482248D01*
Y164115D01*
X482350D01*
Y164217D01*
X482452D01*
Y164318D01*
X482553D01*
Y164420D01*
X482655D01*
Y164522D01*
X482757D01*
Y164623D01*
X482858D01*
Y164725D01*
X482960D01*
Y164827D01*
X483062D01*
Y164928D01*
X483163D01*
Y164725D01*
D02*
G37*
G36*
X469337Y164522D02*
X469540D01*
Y164420D01*
X469743D01*
Y164318D01*
X469845D01*
Y164217D01*
X470048D01*
Y164115D01*
X470252D01*
Y164013D01*
X470455D01*
Y163912D01*
X470557D01*
Y163607D01*
X470455D01*
Y163403D01*
X470353D01*
Y163302D01*
X470252D01*
Y163098D01*
X470150D01*
Y162895D01*
X470048D01*
Y162793D01*
X469947D01*
Y162590D01*
X469845D01*
Y162488D01*
X469743D01*
Y162285D01*
X469642D01*
Y162082D01*
X469540D01*
Y161980D01*
X469438D01*
Y161777D01*
X469337D01*
Y161675D01*
X469235D01*
Y160760D01*
X469337D01*
Y160353D01*
X469438D01*
Y159947D01*
X469540D01*
Y159540D01*
X469642D01*
Y159032D01*
X469743D01*
Y158625D01*
X469845D01*
Y158320D01*
X469947D01*
Y158015D01*
X470048D01*
Y157913D01*
X470150D01*
Y157812D01*
X470252D01*
Y157710D01*
X470963D01*
Y157608D01*
X471065D01*
Y157405D01*
X471167D01*
Y157100D01*
X471268D01*
Y156795D01*
X471370D01*
Y156388D01*
X471472D01*
Y156083D01*
X471573D01*
Y155880D01*
X471777D01*
Y155982D01*
X471878D01*
Y156185D01*
X471980D01*
Y156287D01*
X472082D01*
Y156490D01*
X472183D01*
Y156795D01*
X472285D01*
Y157913D01*
X472183D01*
Y158218D01*
X472082D01*
Y158320D01*
X471980D01*
Y158523D01*
X471878D01*
Y158625D01*
X471777D01*
Y158727D01*
X471675D01*
Y158930D01*
X471573D01*
Y159032D01*
X471675D01*
Y160963D01*
X471573D01*
Y161268D01*
X471675D01*
Y161472D01*
X471777D01*
Y161675D01*
X471878D01*
Y161878D01*
X471980D01*
Y161980D01*
X472082D01*
Y162183D01*
X472183D01*
Y162285D01*
X472285D01*
Y162387D01*
X472387D01*
Y162590D01*
X472488D01*
Y162692D01*
X472692D01*
Y162590D01*
X472895D01*
Y162488D01*
X472997D01*
Y162387D01*
X472895D01*
Y162285D01*
X472793D01*
Y162183D01*
X472692D01*
Y161980D01*
X472590D01*
Y161878D01*
X472488D01*
Y161777D01*
X472387D01*
Y161675D01*
X472285D01*
Y161573D01*
X472183D01*
Y161370D01*
X472082D01*
Y160353D01*
X472183D01*
Y159947D01*
X472082D01*
Y159438D01*
X471980D01*
Y159032D01*
X472082D01*
Y158727D01*
X472183D01*
Y158523D01*
X472285D01*
Y158422D01*
X472488D01*
Y158523D01*
X472692D01*
Y158625D01*
X472793D01*
Y158828D01*
X472895D01*
Y158930D01*
X472997D01*
Y159235D01*
X473098D01*
Y159540D01*
X472997D01*
Y159845D01*
X472895D01*
Y160150D01*
X472793D01*
Y160353D01*
X472692D01*
Y160557D01*
X472590D01*
Y161167D01*
X472692D01*
Y161370D01*
X472793D01*
Y161573D01*
X472895D01*
Y161777D01*
X472997D01*
Y161980D01*
X473098D01*
Y162082D01*
X473200D01*
Y162285D01*
X473403D01*
Y162183D01*
X473607D01*
Y162082D01*
X473708D01*
Y161980D01*
X473505D01*
Y161878D01*
X473403D01*
Y161777D01*
X473302D01*
Y161675D01*
X473200D01*
Y161472D01*
X473098D01*
Y161268D01*
X472997D01*
Y160252D01*
X473098D01*
Y159947D01*
X473200D01*
Y159743D01*
X473302D01*
Y159642D01*
X473505D01*
Y159743D01*
X473607D01*
Y160760D01*
X473505D01*
Y161370D01*
X473607D01*
Y161472D01*
X473708D01*
Y161573D01*
X473810D01*
Y161980D01*
X473912D01*
Y161878D01*
X474115D01*
Y161675D01*
X474013D01*
Y161573D01*
X473912D01*
Y161370D01*
X473810D01*
Y160658D01*
X473912D01*
Y160455D01*
X474013D01*
Y160353D01*
X474217D01*
Y160455D01*
X474318D01*
Y160557D01*
X474420D01*
Y160760D01*
X474318D01*
Y160963D01*
X474217D01*
Y161268D01*
X474318D01*
Y161370D01*
X474420D01*
Y161573D01*
X474623D01*
Y161472D01*
X474827D01*
Y161370D01*
X475030D01*
Y161268D01*
X475132D01*
Y161167D01*
X475335D01*
Y161065D01*
X475233D01*
Y160963D01*
X475132D01*
Y160760D01*
X475030D01*
Y160658D01*
X474928D01*
Y160557D01*
X474827D01*
Y160455D01*
X474725D01*
Y160353D01*
X474623D01*
Y160252D01*
X474522D01*
Y160150D01*
X474420D01*
Y160048D01*
X474318D01*
Y159947D01*
X474217D01*
Y159845D01*
X474115D01*
Y159743D01*
X474013D01*
Y159642D01*
X473912D01*
Y159540D01*
X473810D01*
Y159438D01*
X473708D01*
Y159235D01*
X473607D01*
Y159133D01*
X473505D01*
Y158930D01*
X473403D01*
Y158727D01*
X473302D01*
Y158523D01*
X473200D01*
Y157405D01*
X473098D01*
Y156795D01*
X473302D01*
Y156897D01*
X473403D01*
Y157100D01*
X473505D01*
Y157303D01*
X473607D01*
Y157405D01*
X473708D01*
Y157608D01*
X473810D01*
Y157710D01*
X473912D01*
Y157812D01*
X474013D01*
Y157913D01*
X474217D01*
Y158015D01*
X474928D01*
Y157913D01*
X475132D01*
Y157812D01*
X475233D01*
Y157608D01*
X475335D01*
Y157507D01*
X475538D01*
Y157608D01*
X475640D01*
Y157710D01*
X475742D01*
Y157812D01*
X475843D01*
Y157913D01*
X475945D01*
Y158117D01*
X476047D01*
Y158218D01*
X476148D01*
Y158320D01*
X476250D01*
Y158422D01*
X476352D01*
Y158523D01*
X476453D01*
Y158625D01*
X476555D01*
Y158727D01*
X476657D01*
Y158828D01*
X476758D01*
Y158930D01*
X476860D01*
Y159032D01*
X476962D01*
Y159133D01*
X477063D01*
Y159235D01*
X477165D01*
Y159337D01*
X477267D01*
Y159438D01*
X477368D01*
Y159540D01*
X477470D01*
Y159642D01*
X477572D01*
Y159743D01*
X477775D01*
Y159642D01*
X477978D01*
Y159540D01*
X478182D01*
Y159438D01*
X478385D01*
Y159337D01*
X478487D01*
Y159235D01*
X478690D01*
Y159133D01*
X478893D01*
Y159032D01*
X479097D01*
Y158930D01*
X479198D01*
Y158828D01*
X479402D01*
Y158727D01*
X479605D01*
Y158625D01*
X479707D01*
Y158523D01*
X479910D01*
Y158422D01*
X480113D01*
Y158320D01*
X480317D01*
Y158218D01*
X480418D01*
Y158117D01*
X480622D01*
Y158015D01*
X480825D01*
Y157913D01*
X481028D01*
Y157812D01*
X481130D01*
Y157710D01*
X481333D01*
Y157608D01*
X481537D01*
Y157507D01*
X481740D01*
Y157405D01*
X481842D01*
Y157303D01*
X482045D01*
Y157202D01*
X482248D01*
Y157100D01*
X482350D01*
Y156998D01*
X482553D01*
Y156897D01*
X482757D01*
Y156795D01*
X482960D01*
Y156693D01*
X483062D01*
Y156592D01*
X483265D01*
Y156490D01*
X483468D01*
Y156388D01*
X483672D01*
Y156287D01*
X483773D01*
Y156185D01*
X483977D01*
Y156083D01*
X484180D01*
Y155982D01*
X484282D01*
Y155880D01*
X484485D01*
Y155778D01*
X484688D01*
Y155677D01*
X484892D01*
Y155575D01*
X484993D01*
Y155473D01*
X485197D01*
Y155372D01*
X485400D01*
Y155270D01*
X485603D01*
Y155168D01*
X485705D01*
Y155067D01*
X485908D01*
Y154965D01*
X486112D01*
Y154863D01*
X486315D01*
Y154762D01*
X486417D01*
Y154660D01*
X486620D01*
Y154558D01*
X486823D01*
Y154457D01*
X463338D01*
Y154558D01*
X463440D01*
Y154660D01*
X463542D01*
Y154863D01*
X463643D01*
Y155067D01*
X463745D01*
Y155270D01*
X463847D01*
Y155372D01*
X463948D01*
Y155575D01*
X464050D01*
Y155778D01*
X464152D01*
Y155982D01*
X464253D01*
Y156083D01*
X464355D01*
Y156287D01*
X464457D01*
Y156490D01*
X464558D01*
Y156592D01*
X464660D01*
Y156795D01*
X464762D01*
Y156998D01*
X464863D01*
Y157202D01*
X464965D01*
Y157303D01*
X465067D01*
Y157507D01*
X465168D01*
Y157710D01*
X465270D01*
Y157913D01*
X465372D01*
Y158015D01*
X465473D01*
Y158218D01*
X465575D01*
Y158422D01*
X465677D01*
Y158625D01*
X465778D01*
Y158727D01*
X465880D01*
Y158930D01*
X465982D01*
Y159133D01*
X466083D01*
Y159235D01*
X466185D01*
Y159438D01*
X466287D01*
Y159642D01*
X466388D01*
Y159845D01*
X466490D01*
Y159947D01*
X466592D01*
Y160150D01*
X466693D01*
Y160353D01*
X466795D01*
Y160557D01*
X466897D01*
Y160658D01*
X466998D01*
Y160862D01*
X467100D01*
Y161065D01*
X467202D01*
Y161268D01*
X467303D01*
Y161370D01*
X467405D01*
Y161573D01*
X467507D01*
Y161777D01*
X467608D01*
Y161878D01*
X467710D01*
Y162082D01*
X467812D01*
Y162285D01*
X467913D01*
Y162488D01*
X468015D01*
Y162590D01*
X468117D01*
Y162793D01*
X468218D01*
Y162997D01*
X468320D01*
Y163200D01*
X468422D01*
Y163302D01*
X468523D01*
Y163505D01*
X468625D01*
Y163708D01*
X468727D01*
Y163912D01*
X468828D01*
Y164013D01*
X468930D01*
Y164217D01*
X469032D01*
Y164420D01*
X469133D01*
Y164522D01*
X469235D01*
Y164623D01*
X469337D01*
Y164522D01*
D02*
G37*
G36*
X463085Y272495D02*
X463229D01*
Y272351D01*
X463372D01*
Y272064D01*
X463516D01*
Y271777D01*
X463660D01*
Y271346D01*
X463516D01*
Y270915D01*
X463372D01*
Y270771D01*
X463229D01*
Y270484D01*
X463085D01*
Y270197D01*
X462942D01*
Y269910D01*
X462798D01*
Y269766D01*
X462654D01*
Y269479D01*
X462511D01*
Y269192D01*
X462367D01*
Y268904D01*
X462223D01*
Y268761D01*
X462080D01*
Y268473D01*
X461936D01*
Y268186D01*
X461793D01*
Y267899D01*
X461649D01*
Y267755D01*
X461505D01*
Y267468D01*
X461362D01*
Y267181D01*
X461218D01*
Y266894D01*
X461074D01*
Y266750D01*
X460931D01*
Y266463D01*
X460787D01*
Y266176D01*
X460644D01*
Y265888D01*
X460500D01*
Y265745D01*
X460356D01*
Y265458D01*
X460213D01*
Y265170D01*
X460069D01*
Y264883D01*
X459926D01*
Y264739D01*
X459782D01*
Y264452D01*
X459638D01*
Y264165D01*
X459495D01*
Y263878D01*
X459351D01*
Y263590D01*
X459207D01*
Y263447D01*
X459064D01*
Y263160D01*
X458920D01*
Y262872D01*
X458777D01*
Y262585D01*
X458633D01*
Y262441D01*
X458489D01*
Y262154D01*
X458346D01*
Y261867D01*
X458202D01*
Y261723D01*
X458059D01*
Y261436D01*
X457915D01*
Y261149D01*
X457771D01*
Y260862D01*
X457628D01*
Y260718D01*
X457484D01*
Y260431D01*
X457340D01*
Y260144D01*
X457197D01*
Y259856D01*
X457053D01*
Y259569D01*
X456910D01*
Y259425D01*
X456766D01*
Y259138D01*
X456622D01*
Y258851D01*
X456479D01*
Y258707D01*
X456335D01*
Y258420D01*
X456191D01*
Y258133D01*
X456048D01*
Y257846D01*
X455904D01*
Y257558D01*
X455761D01*
Y257415D01*
X455617D01*
Y257128D01*
X455473D01*
Y256840D01*
X455330D01*
Y256697D01*
X455186D01*
Y256410D01*
X455043D01*
Y256122D01*
X454899D01*
Y255835D01*
X454755D01*
Y255692D01*
X454612D01*
Y255404D01*
X454468D01*
Y255117D01*
X454324D01*
Y254830D01*
X454181D01*
Y254686D01*
X454037D01*
Y254399D01*
X453894D01*
Y254112D01*
X453750D01*
Y253824D01*
X453606D01*
Y253681D01*
X453463D01*
Y253394D01*
X453319D01*
Y253106D01*
X453175D01*
Y252819D01*
X453032D01*
Y252676D01*
X452888D01*
Y252388D01*
X452745D01*
Y252101D01*
X452601D01*
Y251814D01*
X452457D01*
Y251527D01*
X452314D01*
Y251383D01*
X452170D01*
Y251096D01*
X452027D01*
Y250809D01*
X451883D01*
Y250665D01*
X451739D01*
Y250378D01*
X451596D01*
Y250090D01*
X451452D01*
Y249803D01*
X451308D01*
Y249660D01*
X451165D01*
Y249372D01*
X451021D01*
Y249085D01*
X450878D01*
Y248798D01*
X450734D01*
Y248654D01*
X450590D01*
Y248367D01*
X450447D01*
Y248080D01*
X450303D01*
Y247793D01*
X450160D01*
Y247505D01*
X450016D01*
Y247362D01*
X449872D01*
Y247075D01*
X449729D01*
Y246787D01*
X449585D01*
Y246500D01*
X449441D01*
Y246356D01*
X449298D01*
Y246069D01*
X449154D01*
Y245782D01*
X449011D01*
Y245495D01*
X448867D01*
Y245351D01*
X448723D01*
Y245064D01*
X448580D01*
Y244777D01*
X448436D01*
Y244633D01*
X448293D01*
Y244346D01*
X448149D01*
Y244058D01*
X448005D01*
Y243915D01*
X447862D01*
Y243771D01*
X447718D01*
Y243628D01*
X447575D01*
Y243484D01*
X446569D01*
Y243628D01*
X446425D01*
Y243771D01*
X446138D01*
Y244058D01*
X445995D01*
Y244346D01*
X445851D01*
Y244489D01*
X445707D01*
Y244777D01*
X445564D01*
Y245064D01*
X445420D01*
Y245208D01*
X445277D01*
Y245495D01*
X445133D01*
Y245782D01*
X444989D01*
Y246069D01*
X444846D01*
Y246213D01*
X444702D01*
Y246500D01*
X444558D01*
Y246787D01*
X444415D01*
Y247075D01*
X444271D01*
Y247362D01*
X444128D01*
Y247505D01*
X443984D01*
Y247793D01*
X443840D01*
Y248080D01*
X443697D01*
Y248367D01*
X443553D01*
Y248511D01*
X443410D01*
Y248798D01*
X443266D01*
Y249085D01*
X443122D01*
Y249372D01*
X442979D01*
Y249516D01*
X442835D01*
Y249803D01*
X442692D01*
Y250090D01*
X442548D01*
Y250378D01*
X442404D01*
Y250521D01*
X442261D01*
Y250809D01*
X442117D01*
Y251096D01*
X441973D01*
Y251383D01*
X441830D01*
Y251527D01*
X441686D01*
Y251814D01*
X441543D01*
Y252101D01*
X441399D01*
Y252388D01*
X441255D01*
Y252532D01*
X441112D01*
Y252819D01*
X440968D01*
Y253106D01*
X440825D01*
Y253394D01*
X440681D01*
Y253537D01*
X440537D01*
Y253824D01*
X440394D01*
Y254112D01*
X440250D01*
Y254399D01*
X440106D01*
Y254542D01*
X439963D01*
Y254830D01*
X439819D01*
Y255117D01*
X439676D01*
Y255404D01*
X439532D01*
Y255548D01*
X439388D01*
Y255835D01*
X439245D01*
Y256122D01*
X439101D01*
Y256266D01*
X438957D01*
Y256553D01*
X438814D01*
Y256840D01*
X438670D01*
Y257128D01*
X438527D01*
Y257415D01*
X438383D01*
Y257558D01*
X438239D01*
Y257846D01*
X438096D01*
Y258133D01*
X437952D01*
Y258420D01*
X437809D01*
Y258564D01*
X437665D01*
Y258851D01*
X437521D01*
Y259138D01*
X437378D01*
Y259282D01*
X437234D01*
Y259569D01*
X437090D01*
Y259856D01*
X436947D01*
Y260144D01*
X436803D01*
Y260431D01*
X436660D01*
Y260575D01*
X436516D01*
Y260862D01*
X436372D01*
Y261149D01*
X436229D01*
Y261436D01*
X436085D01*
Y261580D01*
X435942D01*
Y261867D01*
X435798D01*
Y262154D01*
X435654D01*
Y262441D01*
X435511D01*
Y262585D01*
X435367D01*
Y262872D01*
X435223D01*
Y263160D01*
X435080D01*
Y263447D01*
X434936D01*
Y263590D01*
X434793D01*
Y263878D01*
X434649D01*
Y264165D01*
X434505D01*
Y264452D01*
X434362D01*
Y264596D01*
X434218D01*
Y264883D01*
X434074D01*
Y265170D01*
X433931D01*
Y265458D01*
X433787D01*
Y265601D01*
X433644D01*
Y265888D01*
X433500D01*
Y266176D01*
X433356D01*
Y266463D01*
X433213D01*
Y266606D01*
X433069D01*
Y266894D01*
X432926D01*
Y267181D01*
X432782D01*
Y267468D01*
X432638D01*
Y267612D01*
X432495D01*
Y267899D01*
X432351D01*
Y268186D01*
X432207D01*
Y268473D01*
X432064D01*
Y268617D01*
X431920D01*
Y268904D01*
X431777D01*
Y269192D01*
X431633D01*
Y269335D01*
X431489D01*
Y269622D01*
X431346D01*
Y269910D01*
X431202D01*
Y270197D01*
X431059D01*
Y270340D01*
X430915D01*
Y270628D01*
X430771D01*
Y270915D01*
X430628D01*
Y271346D01*
X430484D01*
Y271920D01*
X430628D01*
Y272207D01*
X430771D01*
Y272351D01*
X430915D01*
Y272495D01*
X431202D01*
Y272638D01*
X463085D01*
Y272495D01*
D02*
G37*
%LPC*%
G36*
X108580Y289053D02*
X108327D01*
Y288990D01*
X108263D01*
Y288800D01*
X108327D01*
Y288610D01*
X108390D01*
Y288483D01*
X108453D01*
Y288420D01*
X108517D01*
Y288293D01*
X108580D01*
Y288230D01*
X108643D01*
Y288167D01*
X108707D01*
Y288103D01*
X108770D01*
Y288040D01*
X108833D01*
Y288103D01*
X108897D01*
Y288420D01*
X108833D01*
Y288673D01*
X108770D01*
Y288863D01*
X108707D01*
Y288927D01*
X108643D01*
Y288990D01*
X108580D01*
Y289053D01*
D02*
G37*
G36*
X111050Y289243D02*
X110797D01*
Y289180D01*
X110733D01*
Y289117D01*
X110670D01*
Y289053D01*
X110607D01*
Y288990D01*
X110543D01*
Y288927D01*
X110480D01*
Y288863D01*
X110417D01*
Y288737D01*
X110353D01*
Y288673D01*
X110290D01*
Y288420D01*
X110227D01*
Y288293D01*
X110290D01*
Y288103D01*
X110353D01*
Y288040D01*
X110417D01*
Y287977D01*
X110670D01*
Y288040D01*
X110733D01*
Y288103D01*
X110797D01*
Y288167D01*
X110923D01*
Y288230D01*
X110987D01*
Y288293D01*
X111050D01*
Y288420D01*
X111113D01*
Y288483D01*
X111177D01*
Y288610D01*
X111240D01*
Y288800D01*
X111303D01*
Y288927D01*
X111240D01*
Y289053D01*
X111177D01*
Y289117D01*
X111113D01*
Y289180D01*
X111050D01*
Y289243D01*
D02*
G37*
G36*
X412463Y36814D02*
X412319D01*
Y36527D01*
X412176D01*
Y36383D01*
X412032D01*
Y36096D01*
X411888D01*
Y35809D01*
X411745D01*
Y35521D01*
X411601D01*
Y35378D01*
X411457D01*
Y35090D01*
X411314D01*
Y34803D01*
X411170D01*
Y34516D01*
X411027D01*
Y34372D01*
X410883D01*
Y34085D01*
X410739D01*
Y33798D01*
X410596D01*
Y33511D01*
X410452D01*
Y33367D01*
X410309D01*
Y33080D01*
X410165D01*
Y32792D01*
X410021D01*
Y32505D01*
X409878D01*
Y32362D01*
X409734D01*
Y32074D01*
X409590D01*
Y31787D01*
X409447D01*
Y31500D01*
X409303D01*
Y31356D01*
X409160D01*
Y31069D01*
X409016D01*
Y30782D01*
X408872D01*
Y30495D01*
X408729D01*
Y30207D01*
X408585D01*
Y30064D01*
X408441D01*
Y29777D01*
X408298D01*
Y29489D01*
X408154D01*
Y29346D01*
X408011D01*
Y29059D01*
X407867D01*
Y28771D01*
X407723D01*
Y28484D01*
X407580D01*
Y28197D01*
X407436D01*
Y28053D01*
X407293D01*
Y27766D01*
X407149D01*
Y27479D01*
X407005D01*
Y27191D01*
X406862D01*
Y27048D01*
X406718D01*
Y26761D01*
X406574D01*
Y26473D01*
X406431D01*
Y26186D01*
X406287D01*
Y25899D01*
X406144D01*
Y25755D01*
X406000D01*
Y25468D01*
X405856D01*
Y25181D01*
X405713D01*
Y24894D01*
X405569D01*
Y24606D01*
X405426D01*
Y24463D01*
X405282D01*
Y24175D01*
X405138D01*
Y23888D01*
X404995D01*
Y23745D01*
X404851D01*
Y23458D01*
X404707D01*
Y23170D01*
X404564D01*
Y22883D01*
X404420D01*
Y22739D01*
X404277D01*
Y22452D01*
X404133D01*
Y22165D01*
X403989D01*
Y21878D01*
X403846D01*
Y21590D01*
X403702D01*
Y21447D01*
X403558D01*
Y21160D01*
X403415D01*
Y20872D01*
X403271D01*
Y20585D01*
X403128D01*
Y20441D01*
X402984D01*
Y20154D01*
X402840D01*
Y19867D01*
X402697D01*
Y19580D01*
X402553D01*
Y19436D01*
X402410D01*
Y19149D01*
X402266D01*
Y18862D01*
X402122D01*
Y18575D01*
X401979D01*
Y18431D01*
X401835D01*
Y18144D01*
X401691D01*
Y17856D01*
X401548D01*
Y17569D01*
X401404D01*
Y17425D01*
X401261D01*
Y17138D01*
X401117D01*
Y16851D01*
X400973D01*
Y16564D01*
X400830D01*
Y16420D01*
X400686D01*
Y16133D01*
X400542D01*
Y15846D01*
X400399D01*
Y15559D01*
X400255D01*
Y15415D01*
X400112D01*
Y15128D01*
X399968D01*
Y14840D01*
X399825D01*
Y14553D01*
X399681D01*
Y14266D01*
X399537D01*
Y14122D01*
X399394D01*
Y13835D01*
X399250D01*
Y13548D01*
X399106D01*
Y13261D01*
X398963D01*
Y13117D01*
X398819D01*
Y12686D01*
X398963D01*
Y12830D01*
X425963D01*
Y13117D01*
X425819D01*
Y13404D01*
X425675D01*
Y13548D01*
X425532D01*
Y13835D01*
X425388D01*
Y14122D01*
X425245D01*
Y14266D01*
X425101D01*
Y14553D01*
X424957D01*
Y14840D01*
X424814D01*
Y15128D01*
X424670D01*
Y15271D01*
X424527D01*
Y15559D01*
X424383D01*
Y15846D01*
X424239D01*
Y16133D01*
X424096D01*
Y16420D01*
X423952D01*
Y16564D01*
X423808D01*
Y16851D01*
X423665D01*
Y17138D01*
X423521D01*
Y17425D01*
X423378D01*
Y17569D01*
X423234D01*
Y17856D01*
X423090D01*
Y18144D01*
X422947D01*
Y18431D01*
X422803D01*
Y18718D01*
X422660D01*
Y18862D01*
X422516D01*
Y19149D01*
X422372D01*
Y19436D01*
X422229D01*
Y19723D01*
X422085D01*
Y19867D01*
X421942D01*
Y20154D01*
X421798D01*
Y20441D01*
X421654D01*
Y20729D01*
X421511D01*
Y21016D01*
X421367D01*
Y21160D01*
X421223D01*
Y21447D01*
X421080D01*
Y21734D01*
X420936D01*
Y22021D01*
X420793D01*
Y22165D01*
X420649D01*
Y22452D01*
X420505D01*
Y22739D01*
X420362D01*
Y23027D01*
X420218D01*
Y23170D01*
X420075D01*
Y23458D01*
X419931D01*
Y23745D01*
X419787D01*
Y24032D01*
X419644D01*
Y24175D01*
X419500D01*
Y24463D01*
X419356D01*
Y24750D01*
X419213D01*
Y25037D01*
X419069D01*
Y25181D01*
X418926D01*
Y25468D01*
X418782D01*
Y25755D01*
X418638D01*
Y26043D01*
X418495D01*
Y26186D01*
X418351D01*
Y26473D01*
X418207D01*
Y26761D01*
X418064D01*
Y27048D01*
X417920D01*
Y27191D01*
X417777D01*
Y27479D01*
X417633D01*
Y27766D01*
X417489D01*
Y28053D01*
X417346D01*
Y28197D01*
X417202D01*
Y28484D01*
X417059D01*
Y28771D01*
X416915D01*
Y29059D01*
X416771D01*
Y29346D01*
X416628D01*
Y29489D01*
X416484D01*
Y29777D01*
X416340D01*
Y30064D01*
X416197D01*
Y30351D01*
X416053D01*
Y30495D01*
X415910D01*
Y30782D01*
X415766D01*
Y31069D01*
X415622D01*
Y31356D01*
X415479D01*
Y31644D01*
X415335D01*
Y31787D01*
X415192D01*
Y32074D01*
X415048D01*
Y32362D01*
X414904D01*
Y32649D01*
X414761D01*
Y32792D01*
X414617D01*
Y33080D01*
X414473D01*
Y33367D01*
X414330D01*
Y33654D01*
X414186D01*
Y33798D01*
X414043D01*
Y34085D01*
X413899D01*
Y34372D01*
X413755D01*
Y34660D01*
X413612D01*
Y34803D01*
X413468D01*
Y35090D01*
X413324D01*
Y35378D01*
X413181D01*
Y35665D01*
X413037D01*
Y35809D01*
X412894D01*
Y36096D01*
X412750D01*
Y36383D01*
X412606D01*
Y36670D01*
X412463D01*
Y36814D01*
D02*
G37*
%LPD*%
G36*
X413755Y31069D02*
X413899D01*
Y30926D01*
X413755D01*
Y30638D01*
X413612D01*
Y30207D01*
X413468D01*
Y29920D01*
X413324D01*
Y29633D01*
X413181D01*
Y29202D01*
X413037D01*
Y28915D01*
X412894D01*
Y28628D01*
X412750D01*
Y28340D01*
X412606D01*
Y27910D01*
X412463D01*
Y27622D01*
X412319D01*
Y27335D01*
X412176D01*
Y27048D01*
X412032D01*
Y26617D01*
X411888D01*
Y26330D01*
X411745D01*
Y26043D01*
X411601D01*
Y25755D01*
X411457D01*
Y25324D01*
X411314D01*
Y25037D01*
X411170D01*
Y24750D01*
X411027D01*
Y24463D01*
X410883D01*
Y24175D01*
X410739D01*
Y23745D01*
X410596D01*
Y23601D01*
X410883D01*
Y23745D01*
X411170D01*
Y23888D01*
X411457D01*
Y24032D01*
X411601D01*
Y24175D01*
X411888D01*
Y24319D01*
X412176D01*
Y24463D01*
X412463D01*
Y24606D01*
X412750D01*
Y24750D01*
X412894D01*
Y24894D01*
X413181D01*
Y25037D01*
X413468D01*
Y25181D01*
X413755D01*
Y25324D01*
X413899D01*
Y25468D01*
X414186D01*
Y25612D01*
X414473D01*
Y25755D01*
X414761D01*
Y25899D01*
X415192D01*
Y25755D01*
X415048D01*
Y25181D01*
X414904D01*
Y24750D01*
X414761D01*
Y24175D01*
X414617D01*
Y23745D01*
X414473D01*
Y23027D01*
X414330D01*
Y22596D01*
X414186D01*
Y22021D01*
X414043D01*
Y21590D01*
X413899D01*
Y21016D01*
X413755D01*
Y20441D01*
X413612D01*
Y20011D01*
X413468D01*
Y19436D01*
X413324D01*
Y18862D01*
X413181D01*
Y18431D01*
X413037D01*
Y17856D01*
X412894D01*
Y17425D01*
X412750D01*
Y16851D01*
X412894D01*
Y16995D01*
X413181D01*
Y17138D01*
X413324D01*
Y17282D01*
X413612D01*
Y17425D01*
X413755D01*
Y17138D01*
X413612D01*
Y16995D01*
X413468D01*
Y16851D01*
X413324D01*
Y16564D01*
X413181D01*
Y16420D01*
X413037D01*
Y16133D01*
X412894D01*
Y15989D01*
X412750D01*
Y15702D01*
X412606D01*
Y15559D01*
X412463D01*
Y15271D01*
X412319D01*
Y15128D01*
X412176D01*
Y14840D01*
X412032D01*
Y14697D01*
X411888D01*
Y14553D01*
X411745D01*
Y14266D01*
X411601D01*
Y14122D01*
X411457D01*
Y13979D01*
X411314D01*
Y14553D01*
X411170D01*
Y15415D01*
X411027D01*
Y16420D01*
X410883D01*
Y17282D01*
X410739D01*
Y17856D01*
X411027D01*
Y17569D01*
X411170D01*
Y17425D01*
X411314D01*
Y17138D01*
X411601D01*
Y17569D01*
X411745D01*
Y18575D01*
X411888D01*
Y19580D01*
X412032D01*
Y20585D01*
X412176D01*
Y21590D01*
X412319D01*
Y22452D01*
X412463D01*
Y23458D01*
X412319D01*
Y23314D01*
X412032D01*
Y23170D01*
X411745D01*
Y23027D01*
X411601D01*
Y22883D01*
X411314D01*
Y22739D01*
X411027D01*
Y22596D01*
X410739D01*
Y22452D01*
X410452D01*
Y22309D01*
X410165D01*
Y22165D01*
X410021D01*
Y22021D01*
X409734D01*
Y21878D01*
X409447D01*
Y21734D01*
X409160D01*
Y21590D01*
X408872D01*
Y21447D01*
X408585D01*
Y21303D01*
X408298D01*
Y21590D01*
X408441D01*
Y22165D01*
X408585D01*
Y22596D01*
X408729D01*
Y23027D01*
X408872D01*
Y23601D01*
X409016D01*
Y24032D01*
X409160D01*
Y24606D01*
X409303D01*
Y25037D01*
X409447D01*
Y25612D01*
X409590D01*
Y26043D01*
X409734D01*
Y26617D01*
X409878D01*
Y27048D01*
X410021D01*
Y27622D01*
X410165D01*
Y28053D01*
X410309D01*
Y28628D01*
X410452D01*
Y29059D01*
X410596D01*
Y29633D01*
X410739D01*
Y30064D01*
X410883D01*
Y30638D01*
X411027D01*
Y31069D01*
X411314D01*
Y31213D01*
X413755D01*
Y31069D01*
D02*
G37*
%LPC*%
G36*
X470760Y157507D02*
X470353D01*
Y157405D01*
X470252D01*
Y157100D01*
X470353D01*
Y156795D01*
X470455D01*
Y156592D01*
X470557D01*
Y156490D01*
X470658D01*
Y156287D01*
X470760D01*
Y156185D01*
X470862D01*
Y156083D01*
X470963D01*
Y155982D01*
X471065D01*
Y155880D01*
X471167D01*
Y155982D01*
X471268D01*
Y156490D01*
X471167D01*
Y156897D01*
X471065D01*
Y157202D01*
X470963D01*
Y157303D01*
X470862D01*
Y157405D01*
X470760D01*
Y157507D01*
D02*
G37*
G36*
X474725Y157812D02*
X474318D01*
Y157710D01*
X474217D01*
Y157608D01*
X474115D01*
Y157507D01*
X474013D01*
Y157405D01*
X473912D01*
Y157303D01*
X473810D01*
Y157202D01*
X473708D01*
Y156998D01*
X473607D01*
Y156897D01*
X473505D01*
Y156490D01*
X473403D01*
Y156287D01*
X473505D01*
Y155982D01*
X473607D01*
Y155880D01*
X473708D01*
Y155778D01*
X474115D01*
Y155880D01*
X474217D01*
Y155982D01*
X474318D01*
Y156083D01*
X474522D01*
Y156185D01*
X474623D01*
Y156287D01*
X474725D01*
Y156490D01*
X474827D01*
Y156592D01*
X474928D01*
Y156795D01*
X475030D01*
Y157100D01*
X475132D01*
Y157303D01*
X475030D01*
Y157507D01*
X474928D01*
Y157608D01*
X474827D01*
Y157710D01*
X474725D01*
Y157812D01*
D02*
G37*
G36*
X460644Y270628D02*
X460500D01*
Y270484D01*
X433500D01*
Y270197D01*
X433644D01*
Y269910D01*
X433787D01*
Y269766D01*
X433931D01*
Y269479D01*
X434074D01*
Y269192D01*
X434218D01*
Y269048D01*
X434362D01*
Y268761D01*
X434505D01*
Y268473D01*
X434649D01*
Y268186D01*
X434793D01*
Y268042D01*
X434936D01*
Y267755D01*
X435080D01*
Y267468D01*
X435223D01*
Y267181D01*
X435367D01*
Y266894D01*
X435511D01*
Y266750D01*
X435654D01*
Y266463D01*
X435798D01*
Y266176D01*
X435942D01*
Y265888D01*
X436085D01*
Y265745D01*
X436229D01*
Y265458D01*
X436372D01*
Y265170D01*
X436516D01*
Y264883D01*
X436660D01*
Y264596D01*
X436803D01*
Y264452D01*
X436947D01*
Y264165D01*
X437090D01*
Y263878D01*
X437234D01*
Y263590D01*
X437378D01*
Y263447D01*
X437521D01*
Y263160D01*
X437665D01*
Y262872D01*
X437809D01*
Y262585D01*
X437952D01*
Y262298D01*
X438096D01*
Y262154D01*
X438239D01*
Y261867D01*
X438383D01*
Y261580D01*
X438527D01*
Y261293D01*
X438670D01*
Y261149D01*
X438814D01*
Y260862D01*
X438957D01*
Y260575D01*
X439101D01*
Y260287D01*
X439245D01*
Y260144D01*
X439388D01*
Y259856D01*
X439532D01*
Y259569D01*
X439676D01*
Y259282D01*
X439819D01*
Y259138D01*
X439963D01*
Y258851D01*
X440106D01*
Y258564D01*
X440250D01*
Y258277D01*
X440394D01*
Y258133D01*
X440537D01*
Y257846D01*
X440681D01*
Y257558D01*
X440825D01*
Y257271D01*
X440968D01*
Y257128D01*
X441112D01*
Y256840D01*
X441255D01*
Y256553D01*
X441399D01*
Y256266D01*
X441543D01*
Y256122D01*
X441686D01*
Y255835D01*
X441830D01*
Y255548D01*
X441973D01*
Y255261D01*
X442117D01*
Y255117D01*
X442261D01*
Y254830D01*
X442404D01*
Y254542D01*
X442548D01*
Y254255D01*
X442692D01*
Y253968D01*
X442835D01*
Y253824D01*
X442979D01*
Y253537D01*
X443122D01*
Y253250D01*
X443266D01*
Y252963D01*
X443410D01*
Y252819D01*
X443553D01*
Y252532D01*
X443697D01*
Y252245D01*
X443840D01*
Y251958D01*
X443984D01*
Y251670D01*
X444128D01*
Y251527D01*
X444271D01*
Y251239D01*
X444415D01*
Y250952D01*
X444558D01*
Y250665D01*
X444702D01*
Y250521D01*
X444846D01*
Y250234D01*
X444989D01*
Y249947D01*
X445133D01*
Y249660D01*
X445277D01*
Y249516D01*
X445420D01*
Y249229D01*
X445564D01*
Y248941D01*
X445707D01*
Y248654D01*
X445851D01*
Y248511D01*
X445995D01*
Y248223D01*
X446138D01*
Y247936D01*
X446282D01*
Y247649D01*
X446425D01*
Y247505D01*
X446569D01*
Y247218D01*
X446713D01*
Y246931D01*
X446856D01*
Y246644D01*
X447000D01*
Y246500D01*
X447144D01*
Y246787D01*
X447287D01*
Y246931D01*
X447431D01*
Y247218D01*
X447575D01*
Y247505D01*
X447718D01*
Y247793D01*
X447862D01*
Y247936D01*
X448005D01*
Y248223D01*
X448149D01*
Y248511D01*
X448293D01*
Y248798D01*
X448436D01*
Y248941D01*
X448580D01*
Y249229D01*
X448723D01*
Y249516D01*
X448867D01*
Y249803D01*
X449011D01*
Y249947D01*
X449154D01*
Y250234D01*
X449298D01*
Y250521D01*
X449441D01*
Y250809D01*
X449585D01*
Y250952D01*
X449729D01*
Y251239D01*
X449872D01*
Y251527D01*
X450016D01*
Y251814D01*
X450160D01*
Y251958D01*
X450303D01*
Y252245D01*
X450447D01*
Y252532D01*
X450590D01*
Y252819D01*
X450734D01*
Y253106D01*
X450878D01*
Y253250D01*
X451021D01*
Y253537D01*
X451165D01*
Y253824D01*
X451308D01*
Y253968D01*
X451452D01*
Y254255D01*
X451596D01*
Y254542D01*
X451739D01*
Y254830D01*
X451883D01*
Y255117D01*
X452027D01*
Y255261D01*
X452170D01*
Y255548D01*
X452314D01*
Y255835D01*
X452457D01*
Y256122D01*
X452601D01*
Y256266D01*
X452745D01*
Y256553D01*
X452888D01*
Y256840D01*
X453032D01*
Y257128D01*
X453175D01*
Y257415D01*
X453319D01*
Y257558D01*
X453463D01*
Y257846D01*
X453606D01*
Y258133D01*
X453750D01*
Y258420D01*
X453894D01*
Y258707D01*
X454037D01*
Y258851D01*
X454181D01*
Y259138D01*
X454324D01*
Y259425D01*
X454468D01*
Y259569D01*
X454612D01*
Y259856D01*
X454755D01*
Y260144D01*
X454899D01*
Y260431D01*
X455043D01*
Y260575D01*
X455186D01*
Y260862D01*
X455330D01*
Y261149D01*
X455473D01*
Y261436D01*
X455617D01*
Y261723D01*
X455761D01*
Y261867D01*
X455904D01*
Y262154D01*
X456048D01*
Y262441D01*
X456191D01*
Y262729D01*
X456335D01*
Y262872D01*
X456479D01*
Y263160D01*
X456622D01*
Y263447D01*
X456766D01*
Y263734D01*
X456910D01*
Y263878D01*
X457053D01*
Y264165D01*
X457197D01*
Y264452D01*
X457340D01*
Y264739D01*
X457484D01*
Y264883D01*
X457628D01*
Y265170D01*
X457771D01*
Y265458D01*
X457915D01*
Y265745D01*
X458059D01*
Y265888D01*
X458202D01*
Y266176D01*
X458346D01*
Y266463D01*
X458489D01*
Y266750D01*
X458633D01*
Y266894D01*
X458777D01*
Y267181D01*
X458920D01*
Y267468D01*
X459064D01*
Y267755D01*
X459207D01*
Y267899D01*
X459351D01*
Y268186D01*
X459495D01*
Y268473D01*
X459638D01*
Y268761D01*
X459782D01*
Y269048D01*
X459926D01*
Y269192D01*
X460069D01*
Y269479D01*
X460213D01*
Y269766D01*
X460356D01*
Y270053D01*
X460500D01*
Y270197D01*
X460644D01*
Y270628D01*
D02*
G37*
%LPD*%
G36*
X448149Y268761D02*
X448293D01*
Y267899D01*
X448436D01*
Y266894D01*
X448580D01*
Y266032D01*
X448723D01*
Y265458D01*
X448436D01*
Y265745D01*
X448293D01*
Y265888D01*
X448149D01*
Y266176D01*
X447862D01*
Y265745D01*
X447718D01*
Y264739D01*
X447575D01*
Y263734D01*
X447431D01*
Y262729D01*
X447287D01*
Y261723D01*
X447144D01*
Y260862D01*
X447000D01*
Y259856D01*
X447144D01*
Y260000D01*
X447431D01*
Y260144D01*
X447718D01*
Y260287D01*
X447862D01*
Y260431D01*
X448149D01*
Y260575D01*
X448436D01*
Y260718D01*
X448723D01*
Y260862D01*
X449011D01*
Y261005D01*
X449298D01*
Y261149D01*
X449441D01*
Y261293D01*
X449729D01*
Y261436D01*
X450016D01*
Y261580D01*
X450303D01*
Y261723D01*
X450590D01*
Y261867D01*
X450878D01*
Y262011D01*
X451165D01*
Y261723D01*
X451021D01*
Y261149D01*
X450878D01*
Y260718D01*
X450734D01*
Y260287D01*
X450590D01*
Y259713D01*
X450447D01*
Y259282D01*
X450303D01*
Y258707D01*
X450160D01*
Y258277D01*
X450016D01*
Y257702D01*
X449872D01*
Y257271D01*
X449729D01*
Y256697D01*
X449585D01*
Y256266D01*
X449441D01*
Y255692D01*
X449298D01*
Y255261D01*
X449154D01*
Y254686D01*
X449011D01*
Y254255D01*
X448867D01*
Y253681D01*
X448723D01*
Y253250D01*
X448580D01*
Y252676D01*
X448436D01*
Y252245D01*
X448149D01*
Y252101D01*
X445707D01*
Y252245D01*
X445564D01*
Y252388D01*
X445707D01*
Y252676D01*
X445851D01*
Y253106D01*
X445995D01*
Y253394D01*
X446138D01*
Y253681D01*
X446282D01*
Y254112D01*
X446425D01*
Y254399D01*
X446569D01*
Y254686D01*
X446713D01*
Y254973D01*
X446856D01*
Y255404D01*
X447000D01*
Y255692D01*
X447144D01*
Y255979D01*
X447287D01*
Y256266D01*
X447431D01*
Y256697D01*
X447575D01*
Y256984D01*
X447718D01*
Y257271D01*
X447862D01*
Y257558D01*
X448005D01*
Y257989D01*
X448149D01*
Y258277D01*
X448293D01*
Y258564D01*
X448436D01*
Y258851D01*
X448580D01*
Y259138D01*
X448723D01*
Y259569D01*
X448867D01*
Y259713D01*
X448580D01*
Y259569D01*
X448293D01*
Y259425D01*
X448005D01*
Y259282D01*
X447862D01*
Y259138D01*
X447575D01*
Y258995D01*
X447287D01*
Y258851D01*
X447000D01*
Y258707D01*
X446713D01*
Y258564D01*
X446569D01*
Y258420D01*
X446282D01*
Y258277D01*
X445995D01*
Y258133D01*
X445707D01*
Y257989D01*
X445564D01*
Y257846D01*
X445277D01*
Y257702D01*
X444989D01*
Y257558D01*
X444702D01*
Y257415D01*
X444271D01*
Y257558D01*
X444415D01*
Y258133D01*
X444558D01*
Y258564D01*
X444702D01*
Y259138D01*
X444846D01*
Y259569D01*
X444989D01*
Y260287D01*
X445133D01*
Y260718D01*
X445277D01*
Y261293D01*
X445420D01*
Y261723D01*
X445564D01*
Y262298D01*
X445707D01*
Y262872D01*
X445851D01*
Y263303D01*
X445995D01*
Y263878D01*
X446138D01*
Y264452D01*
X446282D01*
Y264883D01*
X446425D01*
Y265458D01*
X446569D01*
Y265888D01*
X446713D01*
Y266463D01*
X446569D01*
Y266319D01*
X446282D01*
Y266176D01*
X446138D01*
Y266032D01*
X445851D01*
Y265888D01*
X445707D01*
Y266176D01*
X445851D01*
Y266319D01*
X445995D01*
Y266463D01*
X446138D01*
Y266750D01*
X446282D01*
Y266894D01*
X446425D01*
Y267181D01*
X446569D01*
Y267324D01*
X446713D01*
Y267612D01*
X446856D01*
Y267755D01*
X447000D01*
Y268042D01*
X447144D01*
Y268186D01*
X447287D01*
Y268473D01*
X447431D01*
Y268617D01*
X447575D01*
Y268761D01*
X447718D01*
Y269048D01*
X447862D01*
Y269192D01*
X448005D01*
Y269335D01*
X448149D01*
Y268761D01*
D02*
G37*
G54D10*
X35023Y139813D02*
X35623D01*
X35023D01*
X38233Y147190D02*
X39893D01*
X45263Y149041D02*
Y151439D01*
X39829Y156339D02*
X38169D01*
X32863Y151439D02*
Y149041D01*
X65372Y83575D02*
X64709Y82843D01*
X64116Y82053D01*
X63598Y81213D01*
X63160Y80328D01*
X62804Y79407D01*
X62534Y78457D01*
X62353Y77486D01*
X62262Y76503D01*
X62261Y75516D01*
X62351Y74532D01*
X62530Y73562D01*
X62798Y72611D01*
X63152Y71689D01*
X63589Y70804D01*
X64106Y69962D01*
X64697Y69172D01*
X65359Y68439D01*
X66085Y67769D01*
X77911Y66437D02*
X78756Y66921D01*
X79555Y67480D01*
X79750Y67876D02*
Y84124D01*
X79555Y84520D02*
X78931Y84966D01*
X78276Y85366D01*
X66099Y84243D02*
X65372Y83575D01*
X72750Y58683D02*
Y57817D01*
X73500Y58250D01*
X72750Y58683D01*
X75002Y57079D02*
X74303Y56363D01*
X73677Y55584D01*
X73129Y54747D01*
X72664Y53861D01*
X72287Y52935D01*
X72001Y51977D01*
X71809Y50995D01*
X71712Y50000D01*
Y49000D01*
X71809Y48004D01*
X72001Y47023D01*
X72287Y46065D01*
X72664Y45138D01*
X73129Y44253D01*
X73677Y43416D01*
X74303Y42637D01*
X75002Y41921D01*
X75766Y41276D01*
X76589Y40708D01*
X77463Y40222D01*
X78380Y39823D01*
X79331Y39513D01*
X80308Y39298D01*
X81300Y39177D01*
X82300Y39153D01*
X83298Y39226D01*
X84283Y39394D01*
X85248Y39657D01*
X86183Y40011D01*
X87080Y40454D01*
X87929Y40982D01*
X88724Y41589D01*
X89456Y42270D01*
X90120Y43019D01*
X90707Y43828D01*
X91215Y44690D01*
X91636Y45597D01*
X91968Y46540D01*
X92207Y47512D01*
X92352Y48501D01*
X92400Y49500D01*
Y49500D02*
X92352Y50499D01*
X92207Y51489D01*
X91968Y52460D01*
X91636Y53403D01*
X91215Y54310D01*
X90707Y55172D01*
X90120Y55981D01*
X89456Y56730D01*
X88724Y57411D01*
X87929Y58018D01*
X87080Y58546D01*
X86183Y58989D01*
X85248Y59343D01*
X84283Y59606D01*
X83298Y59775D01*
X82300Y59847D01*
X81300Y59823D01*
X80308Y59702D01*
X79331Y59487D01*
X78380Y59177D01*
X77463Y58778D01*
X76589Y58292D01*
X75766Y57724D01*
X75002Y57079D01*
X71200Y49500D02*
X66200D01*
X68700Y52000D02*
Y47000D01*
X101296Y61984D02*
X102007Y61282D01*
X102752Y60615D01*
X103529Y59987D01*
X104336Y59398D01*
X105171Y58849D01*
X106032Y58342D01*
X106918Y57879D01*
X107825Y57459D01*
X108751Y57086D01*
X109695Y56758D01*
X110654Y56478D01*
X111626Y56245D01*
X112609Y56061D01*
X113599Y55925D01*
X114594Y55839D01*
X115593Y55801D01*
X116592Y55814D01*
X117589Y55876D01*
X118582Y55987D01*
X119569Y56147D01*
X120546Y56355D01*
X121512Y56612D01*
X122464Y56916D01*
X123399Y57267D01*
X124316Y57663D01*
X125213Y58105D01*
X126086Y58590D01*
X126935Y59118D01*
X127756Y59687D01*
X128548Y60296D01*
X129309Y60944D01*
X130037Y61628D01*
X130731Y62348D01*
X131388Y63101D01*
X132007Y63885D01*
X132586Y64700D01*
X133124Y65542D01*
X133620Y66409D01*
X134073Y67300D01*
X134481Y68212D01*
X134843Y69143D01*
X135159Y70091D01*
X135428Y71054D01*
X135648Y72029D01*
X135820Y73013D01*
X135944Y74005D01*
X136018Y75001D01*
X136042Y76000D01*
X136018Y76999D01*
X135944Y77996D01*
X135820Y78987D01*
X135648Y79971D01*
X135428Y80946D01*
X135159Y81909D01*
X134843Y82857D01*
X134481Y83788D01*
X134073Y84700D01*
X133620Y85591D01*
X133124Y86458D01*
X132586Y87300D01*
X132007Y88115D01*
X131388Y88899D01*
X130731Y89652D01*
X130037Y90372D01*
X129309Y91056D01*
X128548Y91704D01*
X127756Y92313D01*
X126935Y92882D01*
X126086Y93410D01*
X125213Y93895D01*
X124317Y94337D01*
X123399Y94733D01*
X122464Y95084D01*
X121512Y95388D01*
X120546Y95645D01*
X119569Y95853D01*
X118582Y96013D01*
X117589Y96124D01*
X116592Y96186D01*
X115593Y96198D01*
X114594Y96161D01*
X113599Y96075D01*
X112609Y95939D01*
X111626Y95755D01*
X110655Y95522D01*
X109695Y95242D01*
X108751Y94914D01*
X107825Y94541D01*
X106918Y94121D01*
X106032Y93658D01*
X105171Y93151D01*
X104336Y92602D01*
X103529Y92013D01*
X102752Y91385D01*
X102007Y90718D01*
X101296Y90016D01*
X100621Y89280D01*
X99983Y88511D01*
X99384Y87711D01*
X98825Y86883D01*
X98307Y86028D01*
X97833Y85148D01*
X97403Y84246D01*
X97017Y83324D01*
X96678Y82385D01*
X96386Y81429D01*
X96141Y80460D01*
X95945Y79480D01*
X95797Y78492D01*
X95698Y77498D01*
X95649Y76500D01*
Y75500D01*
X95698Y74502D01*
X95797Y73508D01*
X95945Y72520D01*
X96141Y71540D01*
X96386Y70571D01*
X96678Y69616D01*
X97017Y68676D01*
X97402Y67753D01*
X97833Y66852D01*
X98307Y65972D01*
X98825Y65117D01*
X99384Y64289D01*
X99983Y63489D01*
X100621Y62720D01*
X101296Y61984D01*
X92642Y73500D02*
Y78500D01*
X90143Y76000D02*
X95143D01*
X135650Y27674D02*
X156350D01*
Y17195D01*
Y8805D02*
Y7774D01*
X135650D01*
Y8805D01*
X136150Y7774D02*
X155850D01*
X163100Y12567D02*
X163850Y13000D01*
X163100Y13433D01*
Y12567D01*
X135650Y27674D02*
Y17195D01*
X280734Y166401D02*
X282394D01*
X282330Y175550D02*
X280670D01*
X275300Y173699D02*
Y171301D01*
X287700D02*
Y173699D01*
X285540Y182927D02*
X284940D01*
X285540D01*
X304460Y205000D02*
X314850D01*
Y208350D01*
X358900Y204500D02*
X391100D01*
Y215500D01*
X358900D01*
Y204500D01*
X314850Y279470D02*
Y306400D01*
X242950D01*
Y279470D01*
X200080Y278942D02*
X181164D01*
X177495Y271240D02*
Y262015D01*
X179510Y254342D02*
X200080D01*
X202095Y262015D02*
Y271269D01*
X165483Y231533D02*
X157383D01*
Y218333D02*
X165483D01*
Y223503D02*
Y226363D01*
X160358Y203449D02*
Y198772D01*
Y203449D02*
X157818D01*
X153198D02*
X150658D01*
Y198772D01*
X152758Y191732D02*
Y190866D01*
X153508Y191299D01*
X152758Y191732D01*
X174750Y192817D02*
X175500Y193250D01*
X174750Y193683D01*
Y192817D01*
X170089Y185063D02*
X169244Y184579D01*
X168445Y184020D01*
X168250Y183624D02*
Y167376D01*
X168445Y166980D02*
X169069Y166534D01*
X169724Y166134D01*
X181901Y167257D02*
X182628Y167925D01*
X183291Y168657D01*
X183884Y169447D01*
X184402Y170288D01*
X184840Y171172D01*
X185196Y172093D01*
X185466Y173043D01*
X185647Y174014D01*
X185738Y174997D01*
X185739Y175984D01*
X185649Y176968D01*
X185470Y177938D01*
X185202Y178889D01*
X184848Y179811D01*
X184411Y180696D01*
X183894Y181538D01*
X183303Y182328D01*
X182641Y183061D01*
X181915Y183730D01*
X214250Y159700D02*
X215340D01*
X214250D02*
Y188300D01*
X215340D01*
X223660D02*
X225340D01*
X233660D02*
X234750D01*
Y159700D01*
X233660D01*
X225340D02*
X223660D01*
X245250Y159200D02*
X246340D01*
X245250D02*
Y187800D01*
X246340D01*
X254660Y159200D02*
X256340D01*
X264660D02*
X265750D01*
Y187800D01*
X264660D01*
X256340D02*
X254660D01*
X253340Y205000D02*
X242950D01*
Y208350D01*
G54D11*
X9244Y80362D02*
Y90697D01*
X14756D02*
Y82036D01*
X16200Y96866D02*
Y100166D01*
Y96866D02*
X7800D01*
Y100166D01*
Y108566D02*
Y111866D01*
X16200D01*
Y108566D01*
X18736Y129000D02*
X19524D01*
X18736D01*
X61300Y112366D02*
X69700D01*
Y109066D01*
X61300D02*
Y112366D01*
Y100666D02*
Y97366D01*
X69700D01*
Y100666D01*
X70000Y142300D02*
Y150700D01*
X66700D01*
X58300D02*
X55000D01*
Y142300D01*
X58300D01*
X66700D02*
X70000D01*
X42741Y174306D02*
Y182693D01*
X27779D01*
Y174306D01*
X42741D01*
X121264Y263500D02*
X122051D01*
X121264D01*
X132780Y232866D02*
X147741D01*
Y224480D01*
X132780D01*
Y232866D01*
X131366Y210700D02*
X134666D01*
X131366D02*
Y202300D01*
X134666D01*
X134619Y200149D02*
X131319D01*
Y191749D01*
X134619D01*
X143019D02*
X146319D01*
Y200149D01*
X143019D01*
X143066Y202300D02*
X146366D01*
Y210700D01*
X143066D01*
X164500Y208700D02*
X167800D01*
X164500D02*
Y200300D01*
X167800D01*
X187500Y188200D02*
X190800D01*
X187500D02*
Y179800D01*
X190800D01*
X199200D02*
X202500D01*
Y188200D01*
X199200D01*
X202800Y166800D02*
Y163500D01*
X211200D01*
Y166800D01*
Y175200D02*
Y178500D01*
X202800D01*
Y175200D01*
X200546Y204337D02*
X197246D01*
Y212737D01*
X200546D01*
X200539Y214284D02*
X197239D01*
Y222684D01*
X200539D01*
X208939D02*
X212239D01*
Y214284D01*
X208939D01*
X208946Y212737D02*
X212246D01*
Y204337D01*
X208946D01*
X208957Y233965D02*
X212257D01*
Y242365D01*
X208957D01*
X212175Y244006D02*
Y252393D01*
X197213D01*
Y244006D01*
X212175D01*
X200556Y242365D02*
X197257D01*
Y233965D01*
X200556D01*
X234481Y257306D02*
Y265693D01*
X219520D01*
Y257306D01*
X234481D01*
Y267306D02*
Y275693D01*
X219520D01*
Y267306D01*
X234481D01*
X190989Y252364D02*
Y243964D01*
X187689D01*
X187689Y242365D02*
X190989D01*
Y233965D01*
X187689D01*
X190980Y232694D02*
Y224307D01*
X176019D01*
Y232694D01*
X190980D01*
X179289Y233965D02*
X175989D01*
Y242365D01*
X179289D01*
X179289Y243964D02*
X175989D01*
Y252364D01*
X179289D01*
X187689D02*
X190989D01*
X179500Y208700D02*
X176200D01*
X179500D02*
Y200300D01*
X176200D01*
X270349Y186650D02*
Y195050D01*
X273649D01*
X282049D02*
X285349D01*
Y186650D01*
X282049D01*
X273649D02*
X270349D01*
X330146Y168539D02*
X330933D01*
X330146D01*
X359870Y172476D02*
Y194524D01*
X331130D01*
Y172476D01*
X359870D01*
X382000Y167300D02*
X385300D01*
X382000D02*
Y175700D01*
X385300D01*
Y177800D02*
X382000D01*
Y186200D01*
X385300D01*
X393700Y167300D02*
X397000D01*
Y175700D01*
X393700D01*
Y177800D02*
X397000D01*
Y186200D01*
X393700D01*
X399520Y172193D02*
X414481D01*
Y163806D01*
X399520D01*
Y172193D01*
X437606Y174638D02*
X438394D01*
X437606D01*
X414496Y198323D02*
Y206709D01*
X399535D01*
Y198323D01*
X414496D01*
X409539Y220705D02*
Y261295D01*
X399461D01*
Y220705D01*
X409539D01*
X409559Y250941D02*
X399480D01*
X388366Y202200D02*
Y193800D01*
X385066D01*
Y202200D02*
X388366D01*
X376666D02*
X373366D01*
Y193800D01*
X376666D01*
X357134Y225200D02*
X353834D01*
X357134D02*
Y216800D01*
X353834D01*
X356720Y214194D02*
X341759D01*
Y205807D01*
X356720D01*
Y214194D01*
X345434Y216800D02*
X342134D01*
Y225200D01*
X345434D01*
X345300Y235800D02*
X342000D01*
Y244200D01*
X345300D01*
X345300Y246300D02*
X342000D01*
Y254700D01*
X345300D01*
X353700D02*
X357000D01*
Y246300D01*
X353700D01*
X353700Y244200D02*
X357000D01*
Y235800D01*
X353700D01*
X335564Y177284D02*
X334622Y177499D01*
X333867Y176897D01*
Y175930D01*
X334622Y175328D01*
X335564Y175543D01*
X335984Y176413D01*
X335564Y177284D01*
X335658Y176807D02*
X335264Y175626D01*
X334870Y176413D01*
Y177201D02*
X335658Y176807D01*
X334870Y177201D02*
X334083Y176413D01*
X335264Y175626D01*
X378417Y82041D02*
X379204D01*
X378417D01*
X479421Y43898D02*
X480209D01*
X479421D01*
X509606Y237102D02*
X510394D01*
X509606D01*
X364051Y269000D02*
X363264D01*
X364051D01*
X117634Y53700D02*
X114334D01*
X117634D02*
Y45300D01*
X114334D01*
X105934D02*
X102634D01*
Y53700D01*
X105934D01*
G54D12*
X99866Y191413D02*
Y198500D01*
Y269366D01*
Y290626D01*
X9315D01*
Y289051D01*
Y277240D01*
Y198500D01*
Y191413D01*
X71520D01*
X99866D01*
X23095Y194563D02*
Y206374D01*
X11283D01*
Y194563D01*
X23095D01*
X20630Y197724D02*
X21155Y198559D01*
X21480Y199489D01*
X21591Y200468D01*
X21480Y201448D01*
X21155Y202378D01*
X20630Y203213D01*
X19933Y203910D01*
X19099Y204434D01*
X18169Y204760D01*
X17189Y204870D01*
X16209Y204760D01*
X15279Y204434D01*
X14445Y203910D01*
X13748Y203213D01*
X13223Y202378D01*
X12898Y201448D01*
X12787Y200468D01*
X12898Y199489D01*
X13223Y198559D01*
X13748Y197724D01*
X14445Y197027D01*
X15279Y196503D01*
X16209Y196177D01*
X17189Y196067D01*
X18169Y196177D01*
X19099Y196503D01*
X19933Y197027D01*
X20630Y197724D01*
G54D13*
X397350Y208701D02*
X398360Y208523D01*
X399249Y209036D01*
X399600Y210000D01*
X399249Y210964D01*
X398360Y211477D01*
X397350Y211299D01*
X396691Y210513D01*
Y209487D01*
X397350Y208701D01*
G54D14*
X404254Y263231D02*
X404992Y263657D01*
X404254Y264084D01*
Y263231D01*
G54D15*
X465197Y140657D02*
X465984D01*
X465197D01*
X533697D02*
X534484D01*
X533697D01*
G54D16*
X27630Y55516D02*
X52630D01*
Y132484D02*
X27630D01*
X124610Y247752D02*
Y275508D01*
X152169D01*
Y247752D01*
X124610D01*
X185425Y147986D02*
X372433D01*
Y35781D01*
X185425D01*
Y147986D01*
X366610Y253252D02*
Y281008D01*
X394169D01*
Y253252D01*
X366610D01*
X412626Y194441D02*
X428374D01*
Y174559D02*
X412626D01*
X410988Y138098D02*
X472012D01*
Y62902D01*
X410988D01*
Y138098D01*
X479488Y62902D02*
Y138098D01*
X540512D01*
Y62902D01*
X479488D01*
X469972Y39961D02*
X509342D01*
Y9252D01*
X469972D01*
Y39961D01*
X519842Y241039D02*
Y271748D01*
X480472D01*
Y241039D01*
X519842D01*
G54D17*
X153258Y231006D02*
X156590Y234338D01*
Y232672D02*
X153258D01*
Y234338D02*
X156590Y231006D01*
X154924D02*
Y234338D01*
X175750Y279783D02*
X179082Y283115D01*
Y281449D02*
X175750D01*
Y283115D02*
X179082Y279783D01*
X177416D02*
Y283115D01*
X237750Y278075D02*
X241082Y274743D01*
X239416D02*
Y278075D01*
X241082D02*
X237750Y274743D01*
Y276409D02*
X241082D01*
X238865Y193600D02*
X235533Y190268D01*
Y191934D02*
X238865D01*
Y190268D02*
X235533Y193600D01*
X237199D02*
Y190268D01*
X266533Y189768D02*
X269865Y193100D01*
X268199D02*
Y189768D01*
X269865D02*
X266533Y193100D01*
Y191434D02*
X269865D01*
G54D18*
X447469Y11969D02*
X452716D01*
X447469D02*
Y19840D01*
X523468Y18840D02*
X528716Y10968D01*
Y18840D01*
X523468D02*
Y10968D01*
X526284Y268660D02*
Y276532D01*
X531531Y268660D01*
Y276532D01*
X473032Y277532D02*
X467784D01*
X473032D02*
Y269660D01*
G54D19*
X10426Y62228D02*
X13574D01*
Y64327D01*
Y65376D02*
Y67475D01*
Y68525D02*
Y70099D01*
X13049Y70624D01*
X10950D01*
X10426Y70099D01*
Y68525D01*
X13574D01*
Y65376D02*
X10426D01*
Y67475D01*
X12000Y66426D02*
Y65376D01*
X10950Y71673D02*
X10426Y72198D01*
Y73248D01*
X10950Y73772D01*
X11475D01*
X12000Y73248D01*
Y72723D01*
Y73248D01*
X12525Y73772D01*
X13049D01*
X13574Y73248D01*
Y72198D01*
X13049Y71673D01*
X77302Y12074D02*
X79401D01*
X78351D01*
Y8926D01*
X80450D02*
Y12074D01*
X82025D01*
X82550Y11549D01*
Y10500D01*
X82025Y9975D01*
X80450D01*
X83599Y8926D02*
X85698Y11025D01*
Y11549D01*
X85173Y12074D01*
X84124D01*
X83599Y11549D01*
Y8926D02*
X85698D01*
X113851Y33926D02*
Y37074D01*
X114901D01*
X112802D01*
X115951D02*
X117525D01*
X118050Y36549D01*
Y35500D01*
X117525Y34975D01*
X115951D01*
Y33926D02*
Y37074D01*
X119099D02*
Y35500D01*
X120149Y36025D01*
X120673D01*
X121198Y35500D01*
Y34451D01*
X120673Y33926D01*
X119624D01*
X119099Y34451D01*
Y37074D02*
X121198D01*
X120743Y47926D02*
X119694Y48975D01*
X120218D02*
X118644D01*
X120218D02*
X120743Y49500D01*
Y50550D01*
X120218Y51074D01*
X118644D01*
Y47926D01*
X121792D02*
Y48450D01*
X123892Y50550D01*
Y51074D01*
X121792D01*
X136876Y93450D02*
X137401Y92926D01*
X138451D01*
X138975Y93450D01*
X140025D02*
X140550Y92926D01*
X141599D01*
X142124Y93450D01*
Y93975D01*
X141599Y94500D01*
X140025D01*
Y93450D01*
Y94500D02*
X141074Y95549D01*
X142124Y96074D01*
X138975Y95549D02*
X138451Y96074D01*
X137401D01*
X136876Y95549D01*
Y93450D01*
X158589Y26574D02*
X159639D01*
X159114D01*
Y23426D01*
X158589D01*
X159639D01*
X161213D02*
Y26574D01*
X162787D01*
X163312Y26050D01*
Y25000D01*
X162787Y24475D01*
X161213D01*
X162262D02*
X163312Y23426D01*
X164361D02*
X165411D01*
X164886D01*
Y26574D01*
X164361Y26050D01*
X81964Y103426D02*
X81439D01*
Y106574D01*
X80914Y106050D01*
X79865D02*
Y105000D01*
X79340Y104475D01*
X77766D01*
Y103426D02*
Y106574D01*
X79340D01*
X79865Y106050D01*
X80914Y103426D02*
X81964D01*
X75666D02*
Y106574D01*
X76716D01*
X74617D01*
X73574Y102099D02*
Y101049D01*
X73049Y100525D01*
X72525D01*
X72000Y101049D01*
X71475Y100525D01*
X70951D01*
X70426Y101049D01*
Y102099D01*
X70951Y102624D01*
X71475D01*
X72000Y102099D01*
X72525Y102624D01*
X73049D01*
X73574Y102099D01*
X72000D02*
Y101049D01*
Y99475D02*
X72525Y98950D01*
Y97376D01*
X73574D02*
X70426D01*
Y98950D01*
X70951Y99475D01*
X72000D01*
X72525Y98426D02*
X73574Y99475D01*
X81950Y69599D02*
X81426Y69074D01*
Y68025D01*
X81950Y67500D01*
X84049D01*
X84574Y68025D01*
Y69074D01*
X84049Y69599D01*
X81950D01*
X82475Y68550D02*
X81426Y67500D01*
Y66451D02*
Y65401D01*
Y65926D01*
X84574D01*
X84049Y66451D01*
X94876Y59549D02*
Y57450D01*
X95401Y56926D01*
X96451D01*
X96975Y57450D01*
X98025D02*
X98549Y56926D01*
X99599D01*
X100124Y57450D01*
Y58500D01*
X99599Y59025D01*
X99074D01*
X98025Y58500D01*
Y60074D01*
X100124D01*
X96975Y59549D02*
X96451Y60074D01*
X95401D01*
X94876Y59549D01*
X15673Y124426D02*
X16198Y124951D01*
Y125475D01*
X15673Y126000D01*
X14099D01*
Y124951D01*
X14624Y124426D01*
X15673D01*
X15149Y127050D02*
X14099Y126000D01*
X13049D02*
X12525Y125475D01*
X10950D01*
Y124426D02*
Y127574D01*
X12525D01*
X13049Y127050D01*
Y126000D01*
X15149Y127050D02*
X16198Y127574D01*
X9901D02*
X8851D01*
Y124426D01*
X7802Y127574D02*
X9901D01*
X21376Y136451D02*
X21901Y135926D01*
X22951D01*
X23475Y136451D01*
Y139074D01*
X21376D02*
Y136451D01*
X24525Y137500D02*
X26624D01*
X26099Y139074D02*
X24525Y137500D01*
X26099Y139074D02*
Y135926D01*
X32485Y163426D02*
Y166574D01*
X30911Y165000D01*
X33010D01*
X72064Y149074D02*
X73639D01*
X74163Y148549D01*
Y147500D01*
X73639Y146975D01*
X72064D01*
Y145926D02*
Y149074D01*
X73114Y146975D02*
X74163Y145926D01*
X75213D02*
X76262D01*
X75738D01*
Y149074D01*
X75213Y148549D01*
X77837D02*
X78361Y149074D01*
X79411D01*
X79936Y148549D01*
Y148025D01*
X79411Y147500D01*
X79936Y146975D01*
Y146450D01*
X79411Y145926D01*
X78361D01*
X77837Y146450D01*
Y146975D01*
X78361Y147500D01*
X77837Y148025D01*
Y148549D01*
X78361Y147500D02*
X79411D01*
X127861Y194426D02*
X128911D01*
X128386D01*
Y197574D01*
X127861Y197049D01*
X128099Y205451D02*
X128624Y204926D01*
X129673D01*
X130198Y205451D01*
Y205975D01*
X129673Y206500D01*
X128099D01*
Y205451D01*
Y206500D02*
X129149Y207550D01*
X130198Y208074D01*
X148899Y214984D02*
Y218133D01*
X149948D01*
X147849D01*
X150998D02*
X152572D01*
X153097Y217608D01*
Y216558D01*
X152572Y216034D01*
X150998D01*
Y214984D02*
Y218133D01*
X137599Y233926D02*
X136549D01*
X136025Y234451D01*
X134975D02*
X134450Y233926D01*
X133401D01*
X132876Y234451D01*
Y236549D01*
X133401Y237074D01*
X134450D01*
X134975Y236549D01*
X136025D02*
X136549Y237074D01*
X137599D01*
X138124Y236549D01*
Y236025D01*
X137599Y235500D01*
X137074D01*
X137599D01*
X138124Y234975D01*
Y234451D01*
X137599Y233926D01*
X154146Y215509D02*
Y214984D01*
Y215509D02*
X156246Y217608D01*
Y218133D01*
X154146D01*
X169876Y230451D02*
X170401Y229926D01*
X171450D01*
X171975Y230451D01*
Y232550D02*
X171450Y233074D01*
X170401D01*
X169876Y232550D01*
Y230451D01*
X173025Y231500D02*
X175124D01*
X174599Y233074D02*
X173025Y231500D01*
X174599Y233074D02*
Y229926D01*
X174173Y238926D02*
X173124D01*
X172599Y239451D01*
Y241549D01*
X173124Y242074D01*
X174173D01*
X174698Y241549D01*
Y239451D01*
X174173Y238926D01*
X171549D02*
X169450D01*
X171549Y241025D01*
Y241549D01*
X171025Y242074D01*
X169975D01*
X169450Y241549D01*
X168401D02*
Y240500D01*
X167876Y239975D01*
X166302D01*
Y238926D02*
Y242074D01*
X167876D01*
X168401Y241549D01*
X168915Y246590D02*
X167865Y247640D01*
X168390D02*
X166816D01*
Y246590D02*
Y249739D01*
X168390D01*
X168915Y249214D01*
Y248164D01*
X168390Y247640D01*
X169964Y246590D02*
X172063Y248689D01*
Y249214D01*
X171539Y249739D01*
X170489D01*
X169964Y249214D01*
Y246590D02*
X172063D01*
X173113D02*
X174162D01*
X173638D01*
Y249739D01*
X173113Y249214D01*
X167351Y239975D02*
X168401Y238926D01*
X166599Y216074D02*
X167124Y215549D01*
Y215025D01*
X166599Y214500D01*
X166074D01*
X166599D01*
X167124Y213975D01*
Y213451D01*
X166599Y212926D01*
X165550D01*
X165025Y213451D01*
X163975D02*
Y216074D01*
X165025Y215549D02*
X165550Y216074D01*
X166599D01*
X161876D02*
Y213451D01*
X162401Y212926D01*
X163451D01*
X163975Y213451D01*
X164475Y200074D02*
X162901D01*
Y196926D01*
X164475D01*
X165000Y197450D01*
Y199549D01*
X164475Y200074D01*
X166050Y199549D02*
X166574Y200074D01*
Y196926D01*
X167099D01*
X166050D01*
X185351Y190926D02*
Y194074D01*
X186401D01*
X184302D01*
X187451D02*
X189025D01*
X189550Y193550D01*
Y192500D01*
X189025Y191975D01*
X187451D01*
Y190926D02*
Y194074D01*
X190599Y193550D02*
X191124Y194074D01*
X192173D01*
X192698Y193550D01*
Y193025D01*
X192173Y192500D01*
X192698Y191975D01*
Y191451D01*
X192173Y190926D01*
X191124D01*
X190599Y191451D01*
Y191975D01*
X191124Y192500D01*
X190599Y193025D01*
Y193550D01*
X185465Y200426D02*
X185990Y200951D01*
Y201476D01*
X185465Y202000D01*
X183891D01*
Y200951D01*
X184415Y200426D01*
X185465D01*
X182841D02*
X181791Y201476D01*
X182316D02*
X180742D01*
Y200426D02*
Y203575D01*
X182316D01*
X182841Y203050D01*
Y202000D01*
X182316Y201476D01*
X183891Y202000D02*
X184940Y203050D01*
X185990Y203575D01*
X191124Y192500D02*
X192173D01*
X192525Y178074D02*
X191475D01*
X190951Y177550D01*
X189901D02*
Y176500D01*
X189376Y175975D01*
X187802D01*
Y174926D02*
Y178074D01*
X189376D01*
X189901Y177550D01*
X188851Y175975D02*
X189901Y174926D01*
X190951D02*
X193050Y177025D01*
Y177550D01*
X192525Y178074D01*
X194099D02*
X196198D01*
Y177550D01*
X194099Y175451D01*
Y174926D01*
X193050D02*
X190951D01*
X197926Y171673D02*
X199500Y170099D01*
Y172198D01*
X197926Y171673D02*
X201074D01*
X206376Y186951D02*
X206901Y186426D01*
X207950D01*
X208475Y186951D01*
Y189574D01*
X209525Y189049D02*
Y188525D01*
X210050Y188000D01*
X211624D01*
Y186951D02*
Y189049D01*
X211099Y189574D01*
X210050D01*
X209525Y189049D01*
Y186951D02*
X210050Y186426D01*
X211099D01*
X211624Y186951D01*
X206376D02*
Y189574D01*
X201074Y169050D02*
Y166951D01*
X198975Y169050D01*
X198451D01*
X197926Y168525D01*
Y167475D01*
X198451Y166951D01*
Y165901D02*
X199500D01*
X200025Y165376D01*
Y163802D01*
X201074D02*
X197926D01*
Y165376D01*
X198451Y165901D01*
X200025Y164851D02*
X201074Y165901D01*
X267064Y163074D02*
Y160450D01*
X267589Y159926D01*
X268639D01*
X269163Y160450D01*
Y163074D01*
X270213Y162549D02*
X270738Y163074D01*
Y159926D01*
X271262D01*
X270213D01*
X273361D02*
X272837Y160450D01*
Y162549D01*
X273361Y163074D01*
X274411D01*
X274936Y162549D01*
Y160450D01*
X274411Y159926D01*
X273361D01*
X287376Y163451D02*
X287901Y162926D01*
X288950D01*
X289475Y163451D01*
Y165550D01*
X288950Y166074D01*
X287901D01*
X287376Y165550D01*
Y163451D01*
X288426Y163975D02*
X289475Y162926D01*
X291050D02*
X290525Y163451D01*
X291050Y162926D02*
X292099D01*
X292624Y163451D01*
Y163975D01*
X292099Y164500D01*
X291574D01*
X292099D01*
X292624Y165025D01*
Y165550D01*
X292099Y166074D01*
X291050D01*
X290525Y165550D01*
X334376Y206950D02*
X334901Y206426D01*
X335950D01*
X336475Y206950D01*
X337525D02*
X338050Y206426D01*
X339099D01*
X339624Y206950D01*
Y209050D01*
X339099Y209574D01*
X338050D01*
X337525Y209050D01*
Y208525D01*
X338050Y208000D01*
X339624D01*
X336475Y209050D02*
X335950Y209574D01*
X334901D01*
X334376Y209050D01*
Y206950D01*
X336173Y212426D02*
Y215574D01*
X334599Y214000D01*
X336698D01*
X333549D02*
X333025Y213475D01*
X331451D01*
Y212426D02*
Y215574D01*
X333025D01*
X333549Y215050D01*
Y214000D01*
X330401Y215574D02*
X329351D01*
Y212426D01*
X328302Y215574D02*
X330401D01*
X363930Y193075D02*
X365504D01*
X366029Y192550D01*
Y191500D01*
X365504Y190976D01*
X363930D01*
Y189926D02*
Y193075D01*
X364980Y190976D02*
X366029Y189926D01*
X367079D02*
X368128D01*
X367603D01*
Y193075D01*
X367079Y192550D01*
X367574Y174549D02*
X366525Y173500D01*
Y172450D01*
X367050Y171926D01*
X368099D01*
X368624Y172450D01*
Y172975D01*
X368099Y173500D01*
X366525D01*
X365475Y172450D02*
Y175074D01*
X363376D02*
Y172450D01*
X363901Y171926D01*
X364950D01*
X365475Y172450D01*
X367574Y174549D02*
X368624Y175074D01*
X371302Y162574D02*
X373401D01*
X372351D01*
Y159426D01*
X374450D02*
Y162574D01*
X376025D01*
X376550Y162049D01*
Y161000D01*
X376025Y160475D01*
X374450D01*
X377599Y159950D02*
X378124Y159426D01*
X379173D01*
X379698Y159950D01*
Y160475D01*
X379173Y161000D01*
X378649D01*
X379173D01*
X379698Y161525D01*
Y162049D01*
X379173Y162574D01*
X378124D01*
X377599Y162049D01*
X399800Y175825D02*
X400325Y175300D01*
X401374D01*
X401899Y175825D01*
X402949D02*
Y175300D01*
Y175825D02*
X405048Y177924D01*
Y178449D01*
X402949D01*
X401899Y177924D02*
X401374Y178449D01*
X400325D01*
X399800Y177924D01*
Y175825D01*
X417451Y199426D02*
X417975Y199951D01*
X419025D02*
Y200475D01*
X419550Y201000D01*
X419025Y201525D01*
Y202049D01*
X419550Y202574D01*
X420599D01*
X421124Y202049D01*
Y201525D01*
X420599Y201000D01*
X421124Y200475D01*
Y199951D01*
X420599Y199426D01*
X419550D01*
X419025Y199951D01*
X419550Y201000D02*
X420599D01*
X417975Y202049D02*
X417451Y202574D01*
X416401D01*
X415876Y202049D01*
Y199951D01*
X416401Y199426D01*
X417451D01*
X428376Y200074D02*
Y197450D01*
X428901Y196926D01*
X429951D01*
X430475Y197450D01*
Y200074D01*
X431525D02*
Y198500D01*
X432574Y199025D01*
X433099D01*
X433624Y198500D01*
Y197450D01*
X433099Y196926D01*
X432050D01*
X431525Y197450D01*
Y200074D02*
X433624D01*
X397099Y213926D02*
X397624Y214451D01*
Y214975D01*
X397099Y215500D01*
X395525D01*
Y214451D01*
X396049Y213926D01*
X397099D01*
X396574Y216549D02*
X395525Y215500D01*
X396574Y216549D02*
X397624Y217074D01*
X394475D02*
X393426D01*
X393951D01*
Y214451D01*
X393426Y213926D01*
X392901D01*
X392376Y214451D01*
X371801Y192550D02*
X371277Y193075D01*
X370227D01*
X369703Y192550D01*
Y192025D01*
X370227Y191500D01*
X371801D01*
Y190451D02*
Y192550D01*
Y190451D02*
X371277Y189926D01*
X370227D01*
X369703Y190451D01*
X372564Y182574D02*
X374138D01*
X374663Y182050D01*
Y181000D01*
X374138Y180475D01*
X372564D01*
Y179426D02*
Y182574D01*
X373614Y180475D02*
X374663Y179426D01*
X375713D02*
X376762D01*
X376238D01*
Y182574D01*
X375713Y182050D01*
X378337D02*
X378861Y182574D01*
X379911D01*
X380436Y182050D01*
Y181525D01*
X379911Y181000D01*
X379386D01*
X379911D01*
X380436Y180475D01*
Y179950D01*
X379911Y179426D01*
X378861D01*
X378337Y179950D01*
Y172549D02*
X378861Y173074D01*
X379911D01*
X380436Y172549D01*
Y172025D01*
X378337Y169926D01*
X380436D01*
X376762D02*
X376238D01*
Y173074D01*
X375713Y172549D01*
X374663D02*
Y171500D01*
X374138Y170975D01*
X372564D01*
Y169926D02*
Y173074D01*
X374138D01*
X374663Y172549D01*
X373614Y170975D02*
X374663Y169926D01*
X375713D02*
X376762D01*
X376040Y238926D02*
Y242074D01*
X377089D01*
X374990D01*
X378138D02*
X379713D01*
X380238Y241549D01*
Y240500D01*
X379713Y239975D01*
X378138D01*
Y238926D02*
Y242074D01*
X381287Y241549D02*
X381812Y242074D01*
Y238926D01*
X382337D01*
X381287D01*
X384436D02*
X383911Y239451D01*
X384436Y238926D02*
X385485D01*
X386010Y239451D01*
Y239975D01*
X385485Y240500D01*
X384961D01*
X385485D01*
X386010Y241025D01*
Y241549D01*
X385485Y242074D01*
X384436D01*
X383911Y241549D01*
X398426Y263926D02*
Y264451D01*
X401050D01*
X401574Y263926D01*
Y263401D01*
X401050Y262876D01*
X398426Y263926D02*
Y264975D01*
Y266025D02*
Y268124D01*
X398951D01*
X401050Y266025D01*
X401574D01*
X365099Y276926D02*
X364050D01*
X363525Y277450D01*
Y278500D02*
X364574Y279025D01*
X365099D01*
X365624Y278500D01*
Y277450D01*
X365099Y276926D01*
X363525Y278500D02*
Y280074D01*
X365624D01*
X362475D02*
X361426D01*
X361950D01*
Y277450D01*
X361426Y276926D01*
X360901D01*
X360376Y277450D01*
X350698Y259050D02*
X350173Y259574D01*
X349124D01*
X348599Y259050D01*
X347550D02*
X347025Y259574D01*
X345975D01*
X345450Y259050D01*
X347550D02*
Y258525D01*
X345450Y256426D01*
X347550D01*
X348599D02*
X350698Y258525D01*
Y259050D01*
Y256426D02*
X348599D01*
X349564Y229574D02*
X351138D01*
X351663Y229049D01*
Y228000D01*
X351138Y227475D01*
X349564D01*
Y226426D02*
Y229574D01*
X350614Y227475D02*
X351663Y226426D01*
X352713D02*
X353762D01*
X353238D01*
Y229574D01*
X352713Y229049D01*
X355337Y229574D02*
Y228000D01*
X356386Y228525D01*
X356911D01*
X357436Y228000D01*
Y226951D01*
X356911Y226426D01*
X355861D01*
X355337Y226951D01*
Y229574D02*
X357436D01*
X344401Y256426D02*
X343351Y257475D01*
X343876D02*
X342302D01*
Y256426D02*
Y259574D01*
X343876D01*
X344401Y259050D01*
Y258000D01*
X343876Y257475D01*
X340173Y239074D02*
X340698Y238549D01*
Y238025D01*
X340173Y237500D01*
X339649D01*
X340173D01*
X340698Y236975D01*
Y236451D01*
X340173Y235926D01*
X339124D01*
X338599Y236451D01*
X337549Y235926D02*
X335451D01*
X337549Y238025D01*
Y238549D01*
X337025Y239074D01*
X335975D01*
X335451Y238549D01*
X334401D02*
Y237500D01*
X333876Y236975D01*
X332302D01*
Y235926D02*
Y239074D01*
X333876D01*
X334401Y238549D01*
X333351Y236975D02*
X334401Y235926D01*
X338599Y238549D02*
X339124Y239074D01*
X340173D01*
X328025Y280426D02*
Y280950D01*
X330124Y283050D01*
Y283574D01*
X328025D01*
X326975D02*
Y280950D01*
X326450Y280426D01*
X325401D01*
X324876Y280950D01*
Y283574D01*
X278173Y199574D02*
X278698Y199049D01*
Y198525D01*
X278173Y198000D01*
X278698Y197475D01*
Y196950D01*
X278173Y196426D01*
X277124D01*
X276599Y196950D01*
Y197475D01*
X277124Y198000D01*
X276599Y198525D01*
Y199049D01*
X277124Y199574D01*
X278173D01*
Y198000D02*
X277124D01*
X275550Y198525D02*
Y199049D01*
X275025Y199574D01*
X273975D01*
X273450Y199049D01*
X272401D02*
Y198000D01*
X271876Y197475D01*
X270302D01*
Y196426D02*
Y199574D01*
X271876D01*
X272401Y199049D01*
Y196426D02*
X271351Y197475D01*
X273450Y196426D02*
X275550Y198525D01*
Y196426D02*
X273450D01*
X225010Y200426D02*
X222911D01*
X225010Y202525D01*
Y203049D01*
X224485Y203574D01*
X223436D01*
X222911Y203049D01*
X220812Y203574D02*
X220287Y203049D01*
X219238D02*
Y202000D01*
X218713Y201475D01*
X217139D01*
Y200426D02*
Y203574D01*
X218713D01*
X219238Y203049D01*
X220812Y203574D02*
Y200426D01*
X221337D01*
X220287D01*
X215039D02*
Y203574D01*
X216089D01*
X213990D01*
X213302Y207426D02*
Y210574D01*
X214876D01*
X215401Y210050D01*
Y209000D01*
X214876Y208475D01*
X213302D01*
X214351D02*
X215401Y207426D01*
X216451D02*
X218549Y209525D01*
Y210050D01*
X218025Y210574D01*
X216975D01*
X216451Y210050D01*
Y207426D02*
X218549D01*
X220124D02*
X219599Y207950D01*
Y209000D02*
X220649Y209525D01*
X221173D01*
X221698Y209000D01*
Y207950D01*
X221173Y207426D01*
X220124D01*
X219599Y209000D02*
Y210574D01*
X221698D01*
X221350Y216024D02*
X221874Y216549D01*
Y217073D01*
X221350Y217598D01*
X219775D01*
Y216549D01*
X220300Y216024D01*
X221350D01*
X218201D02*
X217676D01*
Y219172D01*
X217152Y218648D01*
X216102D02*
Y217598D01*
X215577Y217073D01*
X214003D01*
Y216024D02*
Y219172D01*
X215577D01*
X216102Y218648D01*
X220825D02*
X219775Y217598D01*
X220825Y218648D02*
X221874Y219172D01*
X219293Y234390D02*
Y234915D01*
X221392Y237014D01*
Y237539D01*
X219293D01*
X217194D02*
X216669Y237014D01*
X215620D02*
Y235965D01*
X215095Y235440D01*
X213521D01*
Y234390D02*
Y237539D01*
X215095D01*
X215620Y237014D01*
X217194Y237539D02*
Y234390D01*
X217719D01*
X216669D01*
X215620D02*
X214570Y235440D01*
X215053Y217073D02*
X216102Y216024D01*
X217152D02*
X218201D01*
X218262Y243926D02*
X217738D01*
Y247074D01*
X217213Y246550D01*
X216163D02*
X215638Y247074D01*
X214589D01*
X214064Y246550D01*
Y244450D01*
X214589Y243926D01*
X215638D01*
X216163Y244450D01*
X217213Y243926D02*
X218262D01*
X219837D02*
X221936Y246025D01*
Y246550D01*
X221411Y247074D01*
X220361D01*
X219837Y246550D01*
Y243926D02*
X221936D01*
X217911Y257426D02*
X216861D01*
X216337Y257950D01*
Y260050D01*
X216861Y260574D01*
X217911D01*
X218436Y260050D01*
Y257950D01*
X217911Y257426D01*
X214762D02*
X214238D01*
Y260574D01*
X213713Y260050D01*
X212663D02*
X212139Y260574D01*
X211089D01*
X210564Y260050D01*
Y257950D01*
X211089Y257426D01*
X212139D01*
X212663Y257950D01*
X213713Y257426D02*
X214762D01*
X214287Y269926D02*
X213762D01*
Y273074D01*
X213238Y272550D01*
X212188D02*
X211663Y273074D01*
X210614D01*
X210089Y272550D01*
Y270450D01*
X210614Y269926D01*
X211663D01*
X212188Y270450D01*
X213238Y269926D02*
X214287D01*
X215861D02*
X216911D01*
X216386D01*
Y273074D01*
X215861Y272550D01*
X180747Y286100D02*
X180222D01*
Y289249D01*
X179697Y288724D01*
X178648Y289249D02*
Y286100D01*
X177598Y287150D01*
X176549Y286100D01*
Y289249D01*
X179697Y286100D02*
X180747D01*
X174974D02*
X173925D01*
X173400Y286625D01*
Y288199D02*
X173925Y287674D01*
X174974D01*
X175499Y287150D01*
Y286625D01*
X174974Y286100D01*
X175499Y288724D02*
X174974Y289249D01*
X173925D01*
X173400Y288724D01*
Y288199D01*
X126223Y282449D02*
X124649Y280874D01*
X126748D01*
X126223Y282449D02*
Y279300D01*
X123074Y279825D02*
X122549Y279300D01*
X122025D01*
X121500Y279825D01*
X123074D02*
Y282449D01*
X122549D01*
X123599D01*
X115846Y253549D02*
X115321Y253024D01*
X115846Y253549D02*
Y250400D01*
X116370D01*
X115321D01*
X113747D02*
X113222D01*
Y253549D01*
X112697Y253024D01*
X111648D02*
Y251974D01*
X111123Y251449D01*
X109549D01*
Y250400D02*
Y253549D01*
X111123D01*
X111648Y253024D01*
X108499Y253549D02*
X107449D01*
Y250400D01*
X106400Y253549D02*
X108499D01*
X112697Y250400D02*
X113747D01*
X113540Y235074D02*
Y231926D01*
X115639D02*
Y235074D01*
X117213D01*
X117738Y234549D01*
Y233500D01*
X117213Y232975D01*
X115639D01*
X114589Y235074D02*
X113540D01*
X112490D02*
X114589D01*
X118787Y234549D02*
X119312Y235074D01*
Y231926D01*
X119837D01*
X118787D01*
X121936D02*
X121411Y232451D01*
Y234549D01*
X121936Y235074D01*
X122985D01*
X123510Y234549D01*
Y232451D01*
X122985Y231926D01*
X121936D01*
X119391Y222242D02*
X118866Y222767D01*
X117817D01*
X117292Y222242D01*
Y221718D01*
X117817Y221193D01*
X119391D01*
Y220143D02*
Y222242D01*
Y220143D02*
X118866Y219619D01*
X117817D01*
X117292Y220143D01*
X115718Y220668D02*
X114143D01*
Y219619D02*
Y222767D01*
X115718D01*
X116242Y222242D01*
Y221193D01*
X115718Y220668D01*
X113094Y222767D02*
X112044D01*
Y219619D01*
X110995Y222767D02*
X113094D01*
X121802Y208074D02*
X123376D01*
X123901Y207550D01*
Y206500D01*
X123376Y205975D01*
X121802D01*
Y204926D02*
Y208074D01*
X122851Y205975D02*
X123901Y204926D01*
X124951D02*
X127050Y207025D01*
Y207550D01*
X126525Y208074D01*
X125475D01*
X124951Y207550D01*
Y204926D02*
X127050D01*
X125762Y197574D02*
X125238Y197049D01*
X124188D02*
Y196000D01*
X123663Y195475D01*
X122089D01*
Y194426D02*
Y197574D01*
X123663D01*
X124188Y197049D01*
X125762Y197574D02*
Y194426D01*
X126287D01*
X125238D01*
X124188D02*
X123139Y195475D01*
X163451Y168124D02*
X162926Y167599D01*
Y166550D01*
X163451Y166025D01*
Y164975D02*
X162926Y164451D01*
Y163401D01*
X163451Y162876D01*
X165550D01*
X166074Y163401D01*
Y164451D01*
X165550Y164975D01*
X163451D01*
X165025Y163926D02*
X166074Y164975D01*
Y166025D02*
X163975Y168124D01*
X163451D01*
X166074D02*
Y166025D01*
X286169Y12793D02*
X286694Y13318D01*
X287744D01*
X288268Y12793D01*
Y10694D01*
X287744Y10169D01*
X286694D01*
X286169Y10694D01*
Y12793D01*
X289318D02*
X289843Y13318D01*
X290892D01*
X291417Y12793D01*
Y10694D01*
X290892Y10169D01*
X289843D01*
X289318Y10694D01*
Y12793D01*
X292466D02*
X292991Y13318D01*
X294041D01*
X294566Y12793D01*
Y10694D01*
X294041Y10169D01*
X292991D01*
X292466Y10694D01*
Y12793D01*
X295615D02*
X296140Y13318D01*
X297189D01*
X297714Y12793D01*
Y10694D01*
X297189Y10169D01*
X296140D01*
X295615Y10694D01*
Y12793D01*
X298764D02*
X299288Y13318D01*
Y10169D01*
X299813D01*
X298764D01*
X301388Y11744D02*
X303486D01*
X304536Y12793D02*
X305061Y13318D01*
X306110D01*
X306635Y12793D01*
Y12268D01*
X304536Y10169D01*
X306635D01*
X307685Y11744D02*
X309784D01*
X310833D02*
X312932D01*
Y13318D01*
Y10169D01*
X313982D02*
Y12268D01*
X315031Y13318D01*
X316081Y12268D01*
Y10169D01*
Y11744D01*
X313982D01*
X310833D02*
Y10169D01*
Y13318D01*
X317130D02*
X318705D01*
X319230Y12793D01*
Y11744D01*
X318705Y11219D01*
X317130D01*
Y10169D02*
Y13318D01*
X318180Y11219D02*
X319230Y10169D01*
X320279Y11744D02*
X322378D01*
X323428D02*
X325527D01*
Y10169D01*
Y12268D01*
X324477Y13318D01*
X323428Y12268D01*
Y10169D01*
X326576Y11744D02*
X328675D01*
X329725Y12793D02*
X330250Y13318D01*
X331299D01*
X331824Y12793D01*
Y10694D01*
X331299Y10169D01*
X330250D01*
X329725Y10694D01*
Y12793D01*
X332873D02*
X333398Y13318D01*
Y10169D01*
X333923D01*
X332873D01*
X368401Y29950D02*
X368926Y29426D01*
X369975D01*
X370500Y29950D01*
Y32574D01*
X371550Y32050D02*
X372074Y32574D01*
Y29426D01*
X372599D01*
X371550D01*
X368401Y29950D02*
Y32574D01*
X463327Y52926D02*
Y56074D01*
X464901D01*
X465426Y55550D01*
Y54500D01*
X464901Y53975D01*
X463327D01*
X464376D02*
X465426Y52926D01*
X466475D02*
X468574D01*
X469624D02*
X470673D01*
X470149D01*
Y56074D01*
X469624Y55550D01*
X466475Y56074D02*
Y52926D01*
X512360Y53198D02*
X512885Y52674D01*
X513410D01*
X513935Y53198D01*
Y55822D01*
X513410D01*
X514460D01*
X515509Y55298D02*
X516034Y55822D01*
X517083D01*
X517608Y55298D01*
Y54773D01*
X515509Y52674D01*
X517608D01*
X531180Y55804D02*
Y58952D01*
X532754D01*
X533279Y58428D01*
Y57378D01*
X532754Y56853D01*
X531180D01*
X532229D02*
X533279Y55804D01*
X534328D02*
X536427D01*
X537477D02*
X539576Y57903D01*
Y58428D01*
X539051Y58952D01*
X538002D01*
X537477Y58428D01*
Y55804D02*
X539576D01*
X534328D02*
Y58952D01*
X484823Y275500D02*
X483773D01*
X483249Y276025D01*
X481674D02*
X481149Y275500D01*
X480625D01*
X480100Y276025D01*
X481674D02*
Y278649D01*
X481149D01*
X482199D01*
X483249Y278124D02*
X483773Y278649D01*
X484823D01*
X485348Y278124D01*
Y277599D01*
X484823Y277074D01*
X484298D01*
X484823D01*
X485348Y276550D01*
Y276025D01*
X484823Y275500D01*
X14123Y293500D02*
X13073D01*
X12549Y294025D01*
Y294549D01*
X13073Y295074D01*
X12549Y295599D01*
Y296124D01*
X13073Y296649D01*
X14123D01*
X14648Y296124D01*
Y295599D01*
X14123Y295074D01*
X14648Y294549D01*
Y294025D01*
X14123Y293500D01*
Y295074D02*
X13073D01*
X11499Y294025D02*
Y296649D01*
X9400D02*
Y294025D01*
X9925Y293500D01*
X10974D01*
X11499Y294025D01*
X18064Y177050D02*
Y174951D01*
X18589Y174426D01*
X19639D01*
X20163Y174951D01*
X21213Y174426D02*
X22262D01*
X21738D01*
Y177574D01*
X21213Y177050D01*
X20163D02*
X19639Y177574D01*
X18589D01*
X18064Y177050D01*
X23837D02*
X24361Y177574D01*
X25411D01*
X25936Y177050D01*
Y176525D01*
X25411Y176000D01*
X24886D01*
X25411D01*
X25936Y175475D01*
Y174951D01*
X25411Y174426D01*
X24361D01*
X23837Y174951D01*
X24089Y166574D02*
X23040D01*
Y163426D01*
X25139D02*
Y166574D01*
X26713D01*
X27238Y166050D01*
Y165000D01*
X26713Y164475D01*
X25139D01*
X24089Y166574D02*
X21990D01*
X28287Y166050D02*
X28812Y166574D01*
Y163426D01*
X29337D01*
X28287D01*
X28099Y149574D02*
X26525Y148000D01*
X28624D01*
X28099Y149574D02*
Y146426D01*
X25475D02*
X24426Y147475D01*
X25475Y146950D02*
Y149049D01*
X24950Y149574D01*
X23901D01*
X23376Y149049D01*
Y146950D01*
X23901Y146426D01*
X24950D01*
X25475Y146950D01*
X6574Y101599D02*
X6050Y102124D01*
X3951D01*
X3426Y101599D01*
Y100549D01*
X3951Y100025D01*
X4475D01*
X5000Y100549D01*
Y102124D01*
X6574Y101599D02*
Y100549D01*
X6050Y100025D01*
X6574Y98975D02*
X5525Y97926D01*
Y98450D02*
Y96876D01*
X6574D02*
X3426D01*
Y98450D01*
X3951Y98975D01*
X5000D01*
X5525Y98450D01*
G54D20*
X286394Y19894D02*
X289018D01*
X287893D02*
Y27766D01*
X287518D02*
Y19894D01*
X287893Y24017D02*
X290142D01*
Y22518D02*
Y25517D01*
X292392D02*
X292017Y27766D01*
X292392D02*
Y25517D01*
Y27766D02*
X286394D01*
X293479D02*
X296103D01*
X294978D02*
Y19894D01*
X294603D02*
Y27766D01*
X293479Y19894D02*
X296103D01*
X297527D02*
X299777D01*
X298652D02*
Y27766D01*
X299027D02*
X303525Y20643D01*
Y19894D02*
X299027Y27016D01*
Y27766D02*
X297527D01*
X302401D02*
X304650D01*
X305625D02*
X307124D01*
X311623Y20643D01*
Y19894D02*
X307124Y27016D01*
X306749Y27766D02*
Y19894D01*
X305625D02*
X307874D01*
X311623D02*
Y27766D01*
X310498D02*
X312747D01*
X313722D02*
X316346D01*
X315221D02*
Y19894D01*
X314847D02*
Y27766D01*
X317771D02*
X320020D01*
X318895D02*
X323769Y19894D01*
X323394D02*
X318520Y27766D01*
X303525D02*
Y19894D01*
X313722D02*
X316346D01*
X317771D02*
X320020D01*
X318520D02*
X323769Y27766D01*
X324518D02*
X322269D01*
Y19894D02*
X324518D01*
M02*
