M48
;Layer_Color=9474304
;FILE_FORMAT=4:4
METRIC,LZ
;TYPE=PLATED
T01F00S00C0.3000
T02F00S00C0.7620
T03F00S00C0.7800
T04F00S00C0.8128
T05F00S00C0.8636
T06F00S00C0.9000
T07F00S00C0.9652
T08F00S00C0.9906
T09F00S00C1.0200
T10F00S00C1.2000
T11F00S00C1.2900
T12F00S00C1.3000
T14F00S00C1.3200
T15F00S00C1.4000
T16F00S00C4.0000
%
T01
X0117221Y0007493
X0118364Y0008001
X0115824Y0009144
X0114681Y001016
X0127381Y0012827
Y0014732
X0125349Y0017526
X0110617Y0014605
X0111506Y0013589
X0112649Y0012573
X0113665Y001143
X0014986Y0004064
Y0003048
X001397
X0013081
X0012954Y0004064
X001397
X0003048Y0016637
X00127619Y0037161
X00260869Y00459598
X00269759
X00278694Y00459529
X00287584
X00295656Y00459628
X00304591Y00459559
X00313481
X0032122Y0052451
X0041021Y005715
X0045212Y0056261
X0045974
Y0055118
X0045212
Y0053975
X0045974
X0046685Y00519464
X00488969Y00529726
X0048895Y0055499
X0047559Y00559545
X0055372Y0051816
X0061976Y0051308
X005969Y0056261
X0060833Y0041275
X0055753Y004191
X0052578Y0040513
X00476589Y00427651
X0070551Y0046675
X00716737Y0050546
X00773659Y00562381
Y00575081
X0082169Y0053721
X00917282Y0056134
X00939459Y0057531
X00999831Y00502579
X0104332Y0049849
X0111252Y0050165
X01113511Y0048768
X0112903Y0050165
X0111125Y0045339
X011049Y0043307
X0112522Y0043815
X0112141Y0042164
Y0039624
Y0037592
X0104328Y0040325
X0102428Y00402251
X0115189Y0048514
X0116586Y0048768
X011811Y0048387
X0119507Y0049784
X0120904Y0051308
X0117856Y005207
X0118745Y0053086
X0116586Y0050927
X0114935Y0050165
X012954Y004953
Y0052197
Y0054737
Y005715
X0129413Y0046863
Y0043688
Y0040513
Y0037592
X012954Y0061976
X00920749Y00636269
X00858519
X0081915Y0065151
Y0066421
X0081661Y0070231
X00818979Y00613238
Y00600538
X00877229Y00585811
X00716229Y00610845
X0071628Y0063881
X00700192Y00624898
X0069342Y006477
X0067056Y00638886
Y00624891
Y00610895
X00693369Y00602031
X00571271Y00600481
X0056261Y0058801
X0056708Y0064328
X0058608Y006445
X0056708Y0071054
X00635229Y00702081
X00476563Y00653737
X0039878Y0062992
X00400739Y00604938
X0036576Y0060071
X00509581Y00580701
X0032976Y0058083
T02
X003683Y0011938
X0038735
X0040685Y0011904
X004259
X0044495
X0021844Y0012573
X00198374
X0036957Y0034417
X0038862
X0041656Y0034544
X0043688
X004572
T03
X0006223Y0014986
Y0017526
X0014163
Y0014986
Y0020066
Y0022606
Y0025146
Y0027686
Y0030226
Y0032766
X0006223
Y0030226
Y0027686
Y0025146
Y0022606
Y0020066
T04
X0018542Y0016704
Y0019304
Y0021904
X004445Y0041977
Y0044577
Y0047177
T05
X0026924Y0019304
X0031924
T06
X0023241Y0003683
X0032131Y0009144
X0018669Y0031242
X0003048Y0030226
X0009906Y004191
X0009906Y0050419
X0012446
X0014986
X0017526
X0020066
X0028575Y0052832
X0030734Y0056515
X0007366Y0050419
X0048895Y0048641
X00589598Y00523558
X0075311Y0046355
X0085217Y0042799
X0087757
X0090297
Y0050419
X0087757
X0085217
X0083693Y0056134
X00939801Y00609601
X002794Y0061849
Y0058039
X0022606Y0072289
X0020066
X0017526
X0014986
X0012446
X0009906
T07
X0037084Y0003302
X0039624
X0034544
T08
X009271Y005334
X009525
X009779
X0051458Y0065477
Y0069977
X0044958
Y0065477
T09
X0102743Y0057404
Y0059944
Y0062484
Y0065024
T10
X0005755Y0003429
X0008255
X0094869Y0068326
X0098369
X0036901Y0066929
X0033401
T11
X0112141Y0033627
X012954
T12
X00495979Y00120385
Y00346385
X00920979Y00272385
Y00194385
T14
X0106141Y0019427
Y0031627
X0118141
X012354
X013554
Y0019427
X012354
X0118141
T15
X0121873Y000635
X0126873
X012454Y0065024
X012954
T16
X0029718Y0004318
X0135763Y0074422
M30
