G04*
G04 #@! TF.GenerationSoftware,Altium Limited,Altium Designer,24.5.2 (23)*
G04*
G04 Layer_Physical_Order=4*
G04 Layer_Color=16711680*
%FSLAX25Y25*%
%MOIN*%
G70*
G04*
G04 #@! TF.SameCoordinates,5A7CA482-B8EE-4E14-9011-BDAD66A85337*
G04*
G04*
G04 #@! TF.FilePolarity,Positive*
G04*
G01*
G75*
%ADD11C,0.00787*%
%ADD15C,0.01181*%
%ADD19C,0.01968*%
%ADD26R,0.05906X0.04528*%
%ADD29C,0.06000*%
%ADD44O,0.07087X0.05200*%
%ADD45R,0.07087X0.05200*%
%ADD53R,0.05900X0.05900*%
%ADD57R,0.06181X0.06181*%
%ADD58C,0.06181*%
%ADD66C,0.05800*%
%ADD67C,0.05400*%
%ADD69R,0.05000X0.05000*%
%ADD70C,0.05000*%
%ADD72C,0.07874*%
%ADD73C,0.01575*%
%ADD74C,0.02362*%
%ADD75C,0.03937*%
%ADD81C,0.07874*%
%ADD82C,0.09843*%
%ADD83R,0.09843X0.09843*%
%ADD84R,0.06693X0.06693*%
%ADD85C,0.06693*%
%ADD86O,0.07087X0.04449*%
%ADD87R,0.07087X0.04449*%
%ADD88C,0.07480*%
%ADD89C,0.08268*%
%ADD90R,0.08268X0.08268*%
%ADD91C,0.05900*%
%ADD92R,0.07087X0.09843*%
%ADD93O,0.07087X0.09843*%
%ADD94C,0.07677*%
%ADD95R,0.07677X0.07677*%
%ADD96R,0.07795X0.07795*%
%ADD97C,0.07618*%
%ADD98C,0.07795*%
%ADD99C,0.05512*%
%ADD100R,0.05512X0.05512*%
%ADD101C,0.02362*%
%ADD134R,0.13400X0.17700*%
%ADD135R,0.15000X0.10500*%
%ADD136O,0.05900X0.07874*%
G36*
X414500Y156500D02*
X415500Y155500D01*
X406000Y146000D01*
X392000D01*
X357000Y181000D01*
Y181500D01*
X308500D01*
X304500Y177500D01*
X298399D01*
X298347Y177900D01*
X298399Y177914D01*
X299522Y178562D01*
X300438Y179478D01*
X301086Y180601D01*
X301421Y181852D01*
Y183148D01*
X301086Y184399D01*
X300438Y185522D01*
X299522Y186438D01*
X298399Y187086D01*
X297148Y187421D01*
X295852D01*
X294601Y187086D01*
X293478Y186438D01*
X292562Y185522D01*
X291914Y184399D01*
X291579Y183148D01*
Y181852D01*
X291914Y180601D01*
X292562Y179478D01*
X293478Y178562D01*
X294601Y177914D01*
X294653Y177900D01*
X294601Y177500D01*
X261500D01*
Y173000D01*
X277500Y157000D01*
Y2978D01*
X124950D01*
X124841Y3363D01*
X126271Y4239D01*
X128153Y5847D01*
X129761Y7729D01*
X131054Y9839D01*
X131878Y11830D01*
X132300Y11802D01*
X132380Y11501D01*
X132892Y10615D01*
X133615Y9892D01*
X134501Y9381D01*
X135489Y9116D01*
X136511D01*
X137499Y9381D01*
X138385Y9892D01*
X139108Y10615D01*
X139620Y11501D01*
X139884Y12489D01*
Y13511D01*
X139620Y14499D01*
X139108Y15385D01*
X138385Y16108D01*
X137499Y16620D01*
X136511Y16884D01*
X135489D01*
X134501Y16620D01*
X133615Y16108D01*
X133060Y15553D01*
X132673Y15732D01*
X132773Y17000D01*
X132579Y19467D01*
X132001Y21874D01*
X131054Y24161D01*
X129761Y26271D01*
X128153Y28153D01*
X126271Y29761D01*
X124161Y31054D01*
X121874Y32001D01*
X119467Y32579D01*
X117000Y32773D01*
X114533Y32579D01*
X112126Y32001D01*
X109839Y31054D01*
X107729Y29761D01*
X105847Y28153D01*
X104239Y26271D01*
X102946Y24161D01*
X101999Y21874D01*
X101421Y19467D01*
X101227Y17000D01*
X101421Y14533D01*
X101999Y12126D01*
X102946Y9839D01*
X104239Y7729D01*
X105847Y5847D01*
X107729Y4239D01*
X109159Y3363D01*
X109050Y2978D01*
X2978D01*
X2978Y305022D01*
X234500D01*
Y281500D01*
X242446D01*
X242523Y281116D01*
X242740Y280790D01*
X243066Y280573D01*
X243450Y280497D01*
X314350D01*
X314734Y280573D01*
X315060Y280790D01*
X315277Y281116D01*
X315353Y281500D01*
X323000D01*
Y305022D01*
X414500D01*
Y156500D01*
D02*
G37*
G36*
X332756Y165756D02*
X332717Y165903D01*
X332599Y166035D01*
X332402Y166151D01*
X332126Y166252D01*
X331772Y166338D01*
X331339Y166407D01*
X330827Y166462D01*
X329567Y166524D01*
X328819Y166532D01*
Y170468D01*
X329567Y170476D01*
X331339Y170593D01*
X331772Y170662D01*
X332126Y170748D01*
X332402Y170849D01*
X332599Y170965D01*
X332717Y171097D01*
X332756Y171244D01*
Y165756D01*
D02*
G37*
G36*
X318988Y149525D02*
X319047Y148853D01*
X319146Y148261D01*
X319284Y147748D01*
X319461Y147313D01*
X319677Y146958D01*
X319933Y146681D01*
X320228Y146484D01*
X320563Y146365D01*
X320937Y146326D01*
X313063D01*
X313437Y146365D01*
X313772Y146484D01*
X314067Y146681D01*
X314323Y146958D01*
X314539Y147313D01*
X314717Y147748D01*
X314854Y148261D01*
X314953Y148853D01*
X315012Y149525D01*
X315032Y150275D01*
X318969D01*
X318988Y149525D01*
D02*
G37*
G36*
X323767Y83656D02*
X324003Y82986D01*
X324397Y82396D01*
X324948Y81884D01*
X325657Y81451D01*
X326523Y81097D01*
X327546Y80821D01*
X328727Y80624D01*
X330066Y80506D01*
X331562Y80467D01*
Y72593D01*
X330066Y72553D01*
X328727Y72435D01*
X327546Y72238D01*
X326523Y71963D01*
X325657Y71608D01*
X324948Y71175D01*
X324397Y70663D01*
X324003Y70073D01*
X323767Y69404D01*
X323688Y68656D01*
Y84404D01*
X323767Y83656D01*
D02*
G37*
%LPC*%
G36*
X89622Y289327D02*
X88378D01*
X87176Y289005D01*
X86099Y288383D01*
X85220Y287503D01*
X84598Y286426D01*
X84276Y285224D01*
Y283980D01*
X84598Y282779D01*
X85220Y281701D01*
X86099Y280822D01*
X87176Y280200D01*
X88378Y279878D01*
X89622D01*
X90824Y280200D01*
X91901Y280822D01*
X92781Y281701D01*
X93402Y282779D01*
X93724Y283980D01*
Y285224D01*
X93402Y286426D01*
X92781Y287503D01*
X91901Y288383D01*
X90824Y289005D01*
X89622Y289327D01*
D02*
G37*
G36*
X79622D02*
X78378D01*
X77176Y289005D01*
X76099Y288383D01*
X75220Y287503D01*
X74598Y286426D01*
X74276Y285224D01*
Y283980D01*
X74598Y282779D01*
X75220Y281701D01*
X76099Y280822D01*
X77176Y280200D01*
X78378Y279878D01*
X79622D01*
X80824Y280200D01*
X81901Y280822D01*
X82780Y281701D01*
X83402Y282779D01*
X83724Y283980D01*
Y285224D01*
X83402Y286426D01*
X82780Y287503D01*
X81901Y288383D01*
X80824Y289005D01*
X79622Y289327D01*
D02*
G37*
G36*
X69622D02*
X68378D01*
X67176Y289005D01*
X66099Y288383D01*
X65219Y287503D01*
X64598Y286426D01*
X64276Y285224D01*
Y283980D01*
X64598Y282779D01*
X65219Y281701D01*
X66099Y280822D01*
X67176Y280200D01*
X68378Y279878D01*
X69622D01*
X70824Y280200D01*
X71901Y280822D01*
X72781Y281701D01*
X73402Y282779D01*
X73724Y283980D01*
Y285224D01*
X73402Y286426D01*
X72781Y287503D01*
X71901Y288383D01*
X70824Y289005D01*
X69622Y289327D01*
D02*
G37*
G36*
X59622D02*
X58378D01*
X57176Y289005D01*
X56099Y288383D01*
X55220Y287503D01*
X54598Y286426D01*
X54276Y285224D01*
Y283980D01*
X54598Y282779D01*
X55220Y281701D01*
X56099Y280822D01*
X57176Y280200D01*
X58378Y279878D01*
X59622D01*
X60824Y280200D01*
X61901Y280822D01*
X62780Y281701D01*
X63402Y282779D01*
X63724Y283980D01*
Y285224D01*
X63402Y286426D01*
X62780Y287503D01*
X61901Y288383D01*
X60824Y289005D01*
X59622Y289327D01*
D02*
G37*
G36*
X49622D02*
X48378D01*
X47176Y289005D01*
X46099Y288383D01*
X45219Y287503D01*
X44598Y286426D01*
X44276Y285224D01*
Y283980D01*
X44598Y282779D01*
X45219Y281701D01*
X46099Y280822D01*
X47176Y280200D01*
X48378Y279878D01*
X49622D01*
X50824Y280200D01*
X51901Y280822D01*
X52780Y281701D01*
X53402Y282779D01*
X53724Y283980D01*
Y285224D01*
X53402Y286426D01*
X52780Y287503D01*
X51901Y288383D01*
X50824Y289005D01*
X49622Y289327D01*
D02*
G37*
G36*
X39622D02*
X38378D01*
X37176Y289005D01*
X36099Y288383D01*
X35219Y287503D01*
X34598Y286426D01*
X34276Y285224D01*
Y283980D01*
X34598Y282779D01*
X35219Y281701D01*
X36099Y280822D01*
X37176Y280200D01*
X38378Y279878D01*
X39622D01*
X40824Y280200D01*
X41901Y280822D01*
X42781Y281701D01*
X43402Y282779D01*
X43724Y283980D01*
Y285224D01*
X43402Y286426D01*
X42781Y287503D01*
X41901Y288383D01*
X40824Y289005D01*
X39622Y289327D01*
D02*
G37*
G36*
X203776Y278651D02*
Y276685D01*
X205741D01*
X205712Y276793D01*
X205271Y277557D01*
X204647Y278181D01*
X203884Y278622D01*
X203776Y278651D01*
D02*
G37*
G36*
X201406D02*
X201297Y278622D01*
X200534Y278181D01*
X199910Y277557D01*
X199469Y276793D01*
X199440Y276685D01*
X201406D01*
Y278651D01*
D02*
G37*
G36*
X180350Y278850D02*
X178185D01*
Y276685D01*
X180350D01*
Y278850D01*
D02*
G37*
G36*
X175815D02*
X173650D01*
Y276685D01*
X175815D01*
Y278850D01*
D02*
G37*
G36*
X205741Y274315D02*
X203776D01*
Y272349D01*
X203884Y272378D01*
X204647Y272819D01*
X205271Y273443D01*
X205712Y274207D01*
X205741Y274315D01*
D02*
G37*
G36*
X201406D02*
X199440D01*
X199469Y274207D01*
X199910Y273443D01*
X200534Y272819D01*
X201297Y272378D01*
X201406Y272349D01*
Y274315D01*
D02*
G37*
G36*
X180350D02*
X178185D01*
Y272150D01*
X180350D01*
Y274315D01*
D02*
G37*
G36*
X175815D02*
X173650D01*
Y272150D01*
X175815D01*
Y274315D01*
D02*
G37*
G36*
X378028Y274905D02*
X368972D01*
Y263094D01*
X378028D01*
Y274905D01*
D02*
G37*
G36*
X387280Y274945D02*
X386098Y274789D01*
X384996Y274333D01*
X384050Y273607D01*
X383325Y272661D01*
X382869Y271560D01*
X382713Y270378D01*
Y267622D01*
X382869Y266440D01*
X383325Y265339D01*
X384050Y264393D01*
X384996Y263667D01*
X386098Y263211D01*
X387280Y263055D01*
X388461Y263211D01*
X389563Y263667D01*
X390509Y264393D01*
X391234Y265339D01*
X391690Y266440D01*
X391846Y267622D01*
Y270378D01*
X391690Y271560D01*
X391234Y272661D01*
X390509Y273607D01*
X389563Y274333D01*
X388461Y274789D01*
X387280Y274945D01*
D02*
G37*
G36*
X322931Y263665D02*
X322069D01*
X321273Y263336D01*
X320664Y262727D01*
X320335Y261931D01*
Y261069D01*
X320664Y260273D01*
X321273Y259664D01*
X322069Y259335D01*
X322931D01*
X323313Y259493D01*
X364669D01*
X365285Y258877D01*
X365132Y258507D01*
X323313D01*
X322931Y258665D01*
X322069D01*
X321273Y258336D01*
X320664Y257727D01*
X320335Y256931D01*
Y256069D01*
X320664Y255273D01*
X321273Y254664D01*
X322069Y254335D01*
X322931D01*
X323313Y254493D01*
X365031D01*
X384943Y234581D01*
X385594Y234146D01*
X386362Y233993D01*
X399992D01*
X400103Y233979D01*
X400289Y233938D01*
X400472Y233881D01*
X400653Y233807D01*
X400835Y233715D01*
X401018Y233603D01*
X401203Y233469D01*
X401389Y233313D01*
X401599Y233112D01*
X401672Y233065D01*
X401998Y232739D01*
X402927Y232203D01*
X403964Y231925D01*
X405036D01*
X406073Y232203D01*
X407002Y232739D01*
X407761Y233498D01*
X408297Y234427D01*
X408575Y235464D01*
Y236537D01*
X408297Y237573D01*
X407761Y238502D01*
X407002Y239261D01*
X406073Y239797D01*
X405036Y240075D01*
X403964D01*
X402927Y239797D01*
X401998Y239261D01*
X401672Y238935D01*
X401599Y238888D01*
X401389Y238687D01*
X401203Y238531D01*
X401018Y238397D01*
X400835Y238285D01*
X400653Y238193D01*
X400472Y238119D01*
X400289Y238062D01*
X400103Y238021D01*
X399992Y238007D01*
X387194D01*
X381577Y243623D01*
X381730Y243993D01*
X399992D01*
X400103Y243979D01*
X400289Y243938D01*
X400472Y243882D01*
X400653Y243808D01*
X400835Y243715D01*
X401018Y243603D01*
X401203Y243469D01*
X401389Y243313D01*
X401599Y243112D01*
X401672Y243065D01*
X401998Y242739D01*
X402927Y242203D01*
X403964Y241925D01*
X405036D01*
X406073Y242203D01*
X407002Y242739D01*
X407761Y243498D01*
X408297Y244427D01*
X408575Y245463D01*
Y246536D01*
X408297Y247573D01*
X407761Y248502D01*
X407002Y249261D01*
X406073Y249797D01*
X405036Y250075D01*
X403964D01*
X402927Y249797D01*
X401998Y249261D01*
X401672Y248935D01*
X401599Y248888D01*
X401389Y248687D01*
X401203Y248531D01*
X401018Y248397D01*
X400835Y248285D01*
X400653Y248193D01*
X400472Y248118D01*
X400289Y248062D01*
X400103Y248021D01*
X399992Y248007D01*
X381831D01*
X366919Y262919D01*
X366268Y263354D01*
X365500Y263507D01*
X323313D01*
X322931Y263665D01*
D02*
G37*
G36*
X136028Y269406D02*
X126972D01*
Y257594D01*
X136028D01*
Y269406D01*
D02*
G37*
G36*
X145280Y269445D02*
X144098Y269289D01*
X142996Y268833D01*
X142050Y268107D01*
X141325Y267161D01*
X140868Y266060D01*
X140713Y264878D01*
Y262122D01*
X140868Y260940D01*
X141325Y259839D01*
X142050Y258893D01*
X142996Y258167D01*
X144098Y257711D01*
X145280Y257555D01*
X146461Y257711D01*
X147563Y258167D01*
X148509Y258893D01*
X149234Y259839D01*
X149690Y260940D01*
X149846Y262122D01*
Y264878D01*
X149690Y266060D01*
X149234Y267161D01*
X148509Y268107D01*
X147563Y268833D01*
X146461Y269289D01*
X145280Y269445D01*
D02*
G37*
G36*
X203109Y261718D02*
X202073D01*
X201072Y261450D01*
X200175Y260932D01*
X199442Y260199D01*
X198924Y259302D01*
X198656Y258301D01*
Y257265D01*
X198924Y256265D01*
X199442Y255368D01*
X199804Y255006D01*
X199639Y254606D01*
X179952D01*
X179786Y255006D01*
X180148Y255368D01*
X180666Y256265D01*
X180934Y257265D01*
Y258301D01*
X180666Y259302D01*
X180148Y260199D01*
X179416Y260932D01*
X178519Y261450D01*
X177518Y261718D01*
X176482D01*
X175481Y261450D01*
X174584Y260932D01*
X173852Y260199D01*
X173334Y259302D01*
X173066Y258301D01*
Y257265D01*
X173334Y256265D01*
X173852Y255368D01*
X174214Y255006D01*
X174048Y254606D01*
X119500D01*
X119500Y254606D01*
X118886Y254483D01*
X118365Y254135D01*
X113213Y248983D01*
X113201Y248973D01*
X113063Y248886D01*
X112871Y248795D01*
X112624Y248707D01*
X112322Y248626D01*
X111967Y248558D01*
X111572Y248505D01*
X110591Y248444D01*
X110033Y248440D01*
X109940Y248421D01*
X109352D01*
X108100Y248086D01*
X106978Y247438D01*
X106062Y246522D01*
X105414Y245399D01*
X105079Y244148D01*
Y242852D01*
X105414Y241600D01*
X106062Y240478D01*
X106978Y239562D01*
X108100Y238914D01*
X109352Y238579D01*
X110648D01*
X111899Y238914D01*
X113022Y239562D01*
X113938Y240478D01*
X114586Y241600D01*
X114921Y242852D01*
Y243440D01*
X114940Y243533D01*
X114944Y244091D01*
X115005Y245072D01*
X115058Y245467D01*
X115126Y245822D01*
X115207Y246124D01*
X115295Y246371D01*
X115386Y246563D01*
X115473Y246701D01*
X115483Y246713D01*
X120165Y251394D01*
X130101D01*
X130254Y251025D01*
X113213Y233983D01*
X113201Y233973D01*
X113063Y233886D01*
X112871Y233795D01*
X112624Y233706D01*
X112322Y233626D01*
X111967Y233558D01*
X111572Y233505D01*
X110591Y233444D01*
X110033Y233440D01*
X109940Y233421D01*
X109352D01*
X108100Y233086D01*
X106978Y232438D01*
X106062Y231522D01*
X105414Y230399D01*
X105079Y229148D01*
Y227852D01*
X105414Y226601D01*
X106062Y225478D01*
X106978Y224562D01*
X108100Y223914D01*
X109352Y223579D01*
X110648D01*
X111899Y223914D01*
X113022Y224562D01*
X113938Y225478D01*
X114586Y226601D01*
X114921Y227852D01*
Y228440D01*
X114940Y228533D01*
X114944Y229091D01*
X115005Y230072D01*
X115058Y230467D01*
X115126Y230822D01*
X115207Y231124D01*
X115295Y231371D01*
X115386Y231562D01*
X115473Y231701D01*
X115483Y231713D01*
X132888Y249117D01*
X154759D01*
X154981Y248785D01*
X154835Y248431D01*
Y247569D01*
X155164Y246773D01*
X155773Y246164D01*
X156156Y246006D01*
X159581Y242581D01*
X160232Y242146D01*
X161000Y241993D01*
X199669D01*
X230036Y211625D01*
X230026Y211585D01*
X229938Y211339D01*
X229820Y211087D01*
X229672Y210827D01*
X229490Y210560D01*
X229275Y210286D01*
X229024Y210007D01*
X228719Y209704D01*
X228718Y209702D01*
X228717Y209701D01*
X228667Y209627D01*
X228187Y209147D01*
X227539Y208025D01*
X227204Y206773D01*
Y205477D01*
X227539Y204225D01*
X228187Y203103D01*
X229103Y202187D01*
X230225Y201539D01*
X231099Y201305D01*
X231047Y200905D01*
X100582D01*
X99263Y202224D01*
X99263Y202224D01*
X93493Y207994D01*
X93038Y208298D01*
X92500Y208405D01*
X67500D01*
X66962Y208298D01*
X66506Y207994D01*
X62200Y203687D01*
X62181Y203672D01*
X62079Y203612D01*
X61910Y203540D01*
X61675Y203467D01*
X61378Y203399D01*
X61041Y203344D01*
X59601Y203245D01*
X59034Y203243D01*
X58940Y203224D01*
X58378D01*
X57176Y202902D01*
X56099Y202280D01*
X55220Y201401D01*
X54598Y200324D01*
X54276Y199122D01*
Y197878D01*
X54598Y196676D01*
X55220Y195599D01*
X56099Y194720D01*
X57176Y194098D01*
X58378Y193776D01*
X59622D01*
X60824Y194098D01*
X61901Y194720D01*
X62780Y195599D01*
X63402Y196676D01*
X63724Y197878D01*
Y198440D01*
X63744Y198534D01*
X63745Y199119D01*
X63762Y199629D01*
X63842Y200531D01*
X63899Y200877D01*
X63967Y201175D01*
X64040Y201410D01*
X64112Y201579D01*
X64171Y201681D01*
X64187Y201700D01*
X68082Y205595D01*
X91918D01*
X97276Y200237D01*
X97276Y200237D01*
X98645Y198868D01*
X98479Y198468D01*
X93070D01*
X86927Y204612D01*
X86471Y204916D01*
X85933Y205023D01*
X74118D01*
X73580Y204916D01*
X73125Y204612D01*
X72200Y203687D01*
X72181Y203672D01*
X72079Y203612D01*
X71910Y203540D01*
X71675Y203467D01*
X71377Y203399D01*
X71041Y203344D01*
X69601Y203245D01*
X69034Y203243D01*
X68940Y203224D01*
X68378D01*
X67176Y202902D01*
X66099Y202280D01*
X65219Y201401D01*
X64598Y200324D01*
X64276Y199122D01*
Y197878D01*
X64598Y196676D01*
X65219Y195599D01*
X66099Y194720D01*
X67176Y194098D01*
X68378Y193776D01*
X69622D01*
X70824Y194098D01*
X71901Y194720D01*
X72781Y195599D01*
X73402Y196676D01*
X73724Y197878D01*
Y198440D01*
X73743Y198534D01*
X73745Y199119D01*
X73762Y199629D01*
X73842Y200531D01*
X73899Y200877D01*
X73966Y201175D01*
X74040Y201410D01*
X74112Y201579D01*
X74172Y201681D01*
X74187Y201700D01*
X74700Y202213D01*
X76378D01*
X76482Y201827D01*
X76458Y201813D01*
X75687Y201042D01*
X75142Y200098D01*
X75031Y199685D01*
X79000D01*
X82969D01*
X82858Y200098D01*
X82313Y201042D01*
X81542Y201813D01*
X81518Y201827D01*
X81622Y202213D01*
X85351D01*
X91495Y196070D01*
X91951Y195765D01*
X92488Y195658D01*
X189133D01*
X189298Y195258D01*
X188562Y194522D01*
X187914Y193400D01*
X187579Y192148D01*
Y190852D01*
X187914Y189601D01*
X188562Y188478D01*
X189478Y187562D01*
X190601Y186914D01*
X191852Y186579D01*
X193148D01*
X194399Y186914D01*
X195522Y187562D01*
X196438Y188478D01*
X197086Y189601D01*
X197421Y190852D01*
Y192148D01*
X197086Y193400D01*
X196438Y194522D01*
X195702Y195258D01*
X195867Y195658D01*
X259012D01*
X259549Y195765D01*
X260005Y196070D01*
X283941Y220005D01*
X302835D01*
X302843Y220003D01*
X302863Y219997D01*
X302883Y219989D01*
X302906Y219978D01*
X302931Y219963D01*
X302960Y219943D01*
X302993Y219915D01*
X303054Y219857D01*
X303127Y219811D01*
X303363Y219574D01*
X304159Y219245D01*
X305021D01*
X305817Y219574D01*
X306426Y220183D01*
X306755Y220979D01*
Y221841D01*
X306426Y222637D01*
X305817Y223246D01*
X305021Y223575D01*
X304159D01*
X303363Y223246D01*
X303127Y223009D01*
X303054Y222963D01*
X302993Y222905D01*
X302960Y222877D01*
X302931Y222857D01*
X302906Y222842D01*
X302883Y222831D01*
X302863Y222823D01*
X302843Y222817D01*
X302835Y222815D01*
X283359D01*
X282821Y222708D01*
X282365Y222404D01*
X258430Y198468D01*
X254521D01*
X254355Y198868D01*
X280492Y225005D01*
X302835D01*
X302843Y225003D01*
X302863Y224997D01*
X302883Y224989D01*
X302906Y224978D01*
X302931Y224963D01*
X302960Y224943D01*
X302993Y224915D01*
X303054Y224857D01*
X303127Y224811D01*
X303363Y224574D01*
X304159Y224245D01*
X305021D01*
X305817Y224574D01*
X306426Y225183D01*
X306755Y225979D01*
Y226841D01*
X306426Y227637D01*
X305817Y228246D01*
X305021Y228575D01*
X304159D01*
X303363Y228246D01*
X303127Y228009D01*
X303054Y227963D01*
X302993Y227905D01*
X302960Y227877D01*
X302931Y227857D01*
X302906Y227841D01*
X302883Y227831D01*
X302863Y227823D01*
X302843Y227817D01*
X302835Y227815D01*
X279910D01*
X279372Y227708D01*
X278917Y227403D01*
X252418Y200905D01*
X246250D01*
X246028Y201238D01*
X246165Y201569D01*
Y202431D01*
X245836Y203227D01*
X245619Y203443D01*
X245614Y203467D01*
X245609Y203498D01*
X245606Y203535D01*
Y207500D01*
X245483Y208115D01*
X245135Y208635D01*
X234836Y218935D01*
X235002Y219335D01*
X235431D01*
X236227Y219664D01*
X236836Y220273D01*
X236994Y220655D01*
X247331Y230993D01*
X335169D01*
X357581Y208581D01*
X358232Y208146D01*
X359000Y207993D01*
X360568D01*
X360741Y207979D01*
X360986Y207942D01*
X361167Y207898D01*
X361210Y207882D01*
X361563Y207029D01*
X362041Y206407D01*
X361843Y206007D01*
X331831D01*
X325494Y212345D01*
X325336Y212727D01*
X324727Y213336D01*
X323931Y213665D01*
X323069D01*
X322273Y213336D01*
X321664Y212727D01*
X321335Y211931D01*
Y211069D01*
X321664Y210273D01*
X322273Y209664D01*
X322656Y209506D01*
X329581Y202581D01*
X330232Y202146D01*
X331000Y201993D01*
X333270D01*
X333377Y201593D01*
X333204Y201493D01*
X332507Y200797D01*
X332015Y199944D01*
X331760Y198992D01*
Y198008D01*
X332015Y197056D01*
X332507Y196203D01*
X333204Y195507D01*
X334056Y195015D01*
X335008Y194760D01*
X335992D01*
X336944Y195015D01*
X337796Y195507D01*
X338493Y196203D01*
X338985Y197056D01*
X339240Y198008D01*
Y198992D01*
X338985Y199944D01*
X338493Y200797D01*
X337796Y201493D01*
X337623Y201593D01*
X337730Y201993D01*
X343270D01*
X343377Y201593D01*
X343203Y201493D01*
X342507Y200797D01*
X342015Y199944D01*
X341760Y198992D01*
Y198008D01*
X342015Y197056D01*
X342507Y196203D01*
X343203Y195507D01*
X344056Y195015D01*
X345008Y194760D01*
X345992D01*
X346944Y195015D01*
X347797Y195507D01*
X348493Y196203D01*
X348985Y197056D01*
X349240Y198008D01*
Y198992D01*
X348985Y199944D01*
X348493Y200797D01*
X347797Y201493D01*
X347623Y201593D01*
X347730Y201993D01*
X354797D01*
X354850Y201593D01*
X354282Y201441D01*
X353562Y201025D01*
X352975Y200438D01*
X352559Y199718D01*
X352550Y199685D01*
X355500D01*
X358450D01*
X358441Y199718D01*
X358025Y200438D01*
X357438Y201025D01*
X356718Y201441D01*
X356151Y201593D01*
X356203Y201993D01*
X379000D01*
X379768Y202146D01*
X380419Y202581D01*
X382877Y205038D01*
X383043Y205183D01*
X383277Y205362D01*
X383378Y205426D01*
X383973Y205180D01*
X385000Y205045D01*
X386027Y205180D01*
X386984Y205576D01*
X387806Y206207D01*
X388437Y207029D01*
X388833Y207986D01*
X388968Y209013D01*
Y210987D01*
X388833Y212014D01*
X388437Y212971D01*
X387806Y213793D01*
X386984Y214424D01*
X386027Y214820D01*
X385000Y214955D01*
X383973Y214820D01*
X383016Y214424D01*
X382194Y213793D01*
X381563Y212971D01*
X381167Y212014D01*
X381032Y210987D01*
Y209088D01*
X380954Y208949D01*
X380800Y208723D01*
X380378Y208216D01*
X378169Y206007D01*
X377243D01*
X377107Y206407D01*
X377389Y206624D01*
X377926Y207324D01*
X378264Y208138D01*
X378353Y208815D01*
X375000D01*
X371647D01*
X371736Y208138D01*
X372074Y207324D01*
X372611Y206624D01*
X372893Y206407D01*
X372757Y206007D01*
X368157D01*
X367959Y206407D01*
X368437Y207029D01*
X368833Y207986D01*
X368968Y209013D01*
Y210987D01*
X368833Y212014D01*
X368437Y212971D01*
X367806Y213793D01*
X366984Y214424D01*
X366027Y214820D01*
X365000Y214955D01*
X363973Y214820D01*
X363016Y214424D01*
X362194Y213793D01*
X361563Y212971D01*
X361210Y212118D01*
X361167Y212102D01*
X360986Y212058D01*
X360741Y212021D01*
X360568Y212007D01*
X359831D01*
X337813Y234025D01*
X337979Y234425D01*
X354932D01*
X355701Y234578D01*
X356352Y235013D01*
X359332Y237993D01*
X364082D01*
X364270Y237963D01*
X364506Y237900D01*
X364753Y237807D01*
X365013Y237684D01*
X365284Y237527D01*
X365554Y237344D01*
X366172Y236833D01*
X366489Y236525D01*
X366565Y236475D01*
X366979Y236062D01*
X368101Y235414D01*
X369352Y235079D01*
X370648D01*
X371900Y235414D01*
X373022Y236062D01*
X373938Y236979D01*
X374586Y238101D01*
X374922Y239352D01*
Y240648D01*
X374586Y241900D01*
X373938Y243022D01*
X373022Y243938D01*
X371900Y244586D01*
X370648Y244922D01*
X369352D01*
X368101Y244586D01*
X366979Y243938D01*
X366565Y243525D01*
X366489Y243476D01*
X366162Y243157D01*
X365860Y242893D01*
X365566Y242665D01*
X365284Y242473D01*
X365013Y242317D01*
X364753Y242193D01*
X364506Y242101D01*
X364270Y242038D01*
X364082Y242007D01*
X358500D01*
X357732Y241855D01*
X357081Y241420D01*
X354101Y238440D01*
X323245D01*
X322863Y238598D01*
X322002D01*
X321206Y238268D01*
X320597Y237659D01*
X320267Y236863D01*
Y236002D01*
X320514Y235407D01*
X320273Y235007D01*
X246500D01*
X245732Y234854D01*
X245081Y234419D01*
X234156Y223494D01*
X233773Y223336D01*
X233164Y222727D01*
X232835Y221931D01*
Y221502D01*
X232435Y221336D01*
X226516Y227255D01*
Y234890D01*
X226517Y234900D01*
X226524Y234943D01*
X226529Y234967D01*
X226746Y235183D01*
X227075Y235979D01*
Y236841D01*
X226746Y237637D01*
X226137Y238246D01*
X225341Y238575D01*
X225034D01*
X225014Y238588D01*
X224988Y238607D01*
X224960Y238630D01*
X209455Y254135D01*
X208934Y254483D01*
X208320Y254606D01*
X208320Y254606D01*
X205542D01*
X205377Y255006D01*
X205739Y255368D01*
X206257Y256265D01*
X206525Y257265D01*
Y258301D01*
X206257Y259302D01*
X205739Y260199D01*
X205006Y260932D01*
X204109Y261450D01*
X203109Y261718D01*
D02*
G37*
G36*
X408575Y260075D02*
X400425D01*
Y251925D01*
X408575D01*
Y260075D01*
D02*
G37*
G36*
X231171Y255906D02*
X230310D01*
X229514Y255576D01*
X228905Y254967D01*
X228575Y254171D01*
Y253309D01*
X228905Y252514D01*
X229514Y251905D01*
X230310Y251575D01*
X231171D01*
X231967Y251905D01*
X232576Y252514D01*
X232906Y253309D01*
Y254171D01*
X232576Y254967D01*
X231967Y255576D01*
X231171Y255906D01*
D02*
G37*
G36*
X338430Y252665D02*
X337569D01*
X336773Y252335D01*
X336164Y251726D01*
X335834Y250930D01*
Y250069D01*
X336164Y249273D01*
X336773Y248664D01*
X337569Y248334D01*
X338430D01*
X339226Y248664D01*
X339835Y249273D01*
X340165Y250069D01*
Y250930D01*
X339835Y251726D01*
X339226Y252335D01*
X338430Y252665D01*
D02*
G37*
G36*
X362930D02*
X362069D01*
X361273Y252335D01*
X360664Y251726D01*
X360506Y251344D01*
X352601Y243440D01*
X323245D01*
X322863Y243598D01*
X322002D01*
X321206Y243268D01*
X320597Y242659D01*
X320267Y241863D01*
Y241002D01*
X320597Y240206D01*
X321206Y239597D01*
X322002Y239267D01*
X322863D01*
X323245Y239425D01*
X353432D01*
X354201Y239578D01*
X354852Y240013D01*
X363344Y248506D01*
X363726Y248664D01*
X364335Y249273D01*
X364665Y250069D01*
Y250930D01*
X364335Y251726D01*
X363726Y252335D01*
X362930Y252665D01*
D02*
G37*
G36*
X144431Y238665D02*
X143569D01*
X142773Y238336D01*
X142164Y237727D01*
X141835Y236931D01*
Y236069D01*
X142164Y235273D01*
X142773Y234664D01*
X143569Y234335D01*
X144431D01*
X145227Y234664D01*
X145836Y235273D01*
X146165Y236069D01*
Y236931D01*
X145836Y237727D01*
X145227Y238336D01*
X144431Y238665D01*
D02*
G37*
G36*
X405685Y229296D02*
Y227185D01*
X407796D01*
X407753Y227347D01*
X407293Y228143D01*
X406643Y228793D01*
X405847Y229253D01*
X405685Y229296D01*
D02*
G37*
G36*
X403315D02*
X403153Y229253D01*
X402357Y228793D01*
X401707Y228143D01*
X401247Y227347D01*
X401204Y227185D01*
X403315D01*
Y229296D01*
D02*
G37*
G36*
X201053Y230788D02*
X200192D01*
X199396Y230458D01*
X198787Y229849D01*
X198457Y229053D01*
Y228192D01*
X198787Y227396D01*
X199396Y226787D01*
X200192Y226457D01*
X201053D01*
X201849Y226787D01*
X202458Y227396D01*
X202788Y228192D01*
Y229053D01*
X202458Y229849D01*
X201849Y230458D01*
X201053Y230788D01*
D02*
G37*
G36*
X370297Y228665D02*
X369435D01*
X368639Y228336D01*
X368030Y227727D01*
X367700Y226931D01*
Y226069D01*
X368030Y225273D01*
X368639Y224664D01*
X369435Y224335D01*
X370297D01*
X371092Y224664D01*
X371702Y225273D01*
X372031Y226069D01*
Y226931D01*
X371702Y227727D01*
X371092Y228336D01*
X370297Y228665D01*
D02*
G37*
G36*
X181431Y223665D02*
X180569D01*
X179773Y223336D01*
X179500Y223062D01*
X179227Y223336D01*
X178431Y223665D01*
X177569D01*
X176773Y223336D01*
X176164Y222727D01*
X175835Y221931D01*
Y221069D01*
X176164Y220273D01*
X176773Y219664D01*
X177251Y219466D01*
Y219034D01*
X176773Y218836D01*
X176164Y218227D01*
X175835Y217431D01*
Y216569D01*
X176164Y215773D01*
X176773Y215164D01*
X177251Y214967D01*
Y214533D01*
X176773Y214336D01*
X176164Y213727D01*
X175835Y212931D01*
Y212069D01*
X176164Y211273D01*
X176773Y210664D01*
X177569Y210335D01*
X178431D01*
X179227Y210664D01*
X179500Y210938D01*
X179773Y210664D01*
X180569Y210335D01*
X181431D01*
X182227Y210664D01*
X182836Y211273D01*
X183165Y212069D01*
Y212931D01*
X182836Y213727D01*
X182227Y214336D01*
X181749Y214533D01*
Y214967D01*
X182227Y215164D01*
X182836Y215773D01*
X183165Y216569D01*
Y217431D01*
X182836Y218227D01*
X182227Y218836D01*
X181749Y219034D01*
Y219466D01*
X182227Y219664D01*
X182836Y220273D01*
X183165Y221069D01*
Y221931D01*
X182836Y222727D01*
X182227Y223336D01*
X181431Y223665D01*
D02*
G37*
G36*
X407796Y224815D02*
X405685D01*
Y222704D01*
X405847Y222747D01*
X406643Y223207D01*
X407293Y223857D01*
X407753Y224653D01*
X407796Y224815D01*
D02*
G37*
G36*
X403315D02*
X401204D01*
X401247Y224653D01*
X401707Y223857D01*
X402357Y223207D01*
X403153Y222747D01*
X403315Y222704D01*
Y224815D01*
D02*
G37*
G36*
X361565Y223165D02*
X360704D01*
X359908Y222836D01*
X359299Y222227D01*
X358969Y221431D01*
Y220569D01*
X359299Y219773D01*
X359908Y219164D01*
X360704Y218835D01*
X361565D01*
X362361Y219164D01*
X362970Y219773D01*
X363300Y220569D01*
Y221431D01*
X362970Y222227D01*
X362361Y222836D01*
X361565Y223165D01*
D02*
G37*
G36*
X121648Y227421D02*
X120352D01*
X119100Y227086D01*
X117978Y226438D01*
X117062Y225522D01*
X116414Y224399D01*
X116079Y223148D01*
Y221852D01*
X116414Y220601D01*
X117062Y219478D01*
X117978Y218562D01*
X119100Y217914D01*
X120352Y217579D01*
X121648D01*
X122899Y217914D01*
X124022Y218562D01*
X124938Y219478D01*
X125586Y220601D01*
X125921Y221852D01*
Y223148D01*
X125586Y224399D01*
X124938Y225522D01*
X124022Y226438D01*
X122899Y227086D01*
X121648Y227421D01*
D02*
G37*
G36*
X192931Y220665D02*
X192069D01*
X191273Y220336D01*
X190664Y219727D01*
X190335Y218931D01*
Y218069D01*
X190664Y217273D01*
X191273Y216664D01*
X192069Y216335D01*
X192931D01*
X193727Y216664D01*
X194336Y217273D01*
X194665Y218069D01*
Y218931D01*
X194336Y219727D01*
X193727Y220336D01*
X192931Y220665D01*
D02*
G37*
G36*
X330148Y225921D02*
X328852D01*
X327601Y225586D01*
X326478Y224938D01*
X325562Y224022D01*
X324914Y222900D01*
X324579Y221648D01*
Y220352D01*
X324914Y219100D01*
X325562Y217978D01*
X326478Y217062D01*
X327601Y216414D01*
X328852Y216079D01*
X330148D01*
X331399Y216414D01*
X332522Y217062D01*
X333438Y217978D01*
X334086Y219100D01*
X334421Y220352D01*
Y221648D01*
X334086Y222900D01*
X333438Y224022D01*
X332522Y224938D01*
X331399Y225586D01*
X330148Y225921D01*
D02*
G37*
G36*
X376185Y214122D02*
Y211185D01*
X378353D01*
X378264Y211861D01*
X377926Y212677D01*
X377389Y213376D01*
X376689Y213913D01*
X376185Y214122D01*
D02*
G37*
G36*
X373815D02*
X373310Y213913D01*
X372611Y213376D01*
X372074Y212677D01*
X371736Y211861D01*
X371647Y211185D01*
X373815D01*
Y214122D01*
D02*
G37*
G36*
X113148Y212921D02*
X111852D01*
X110600Y212586D01*
X109478Y211938D01*
X108562Y211022D01*
X107914Y209899D01*
X107579Y208648D01*
Y207352D01*
X107914Y206101D01*
X108562Y204978D01*
X109478Y204062D01*
X110600Y203414D01*
X111852Y203079D01*
X113148D01*
X114400Y203414D01*
X115522Y204062D01*
X116438Y204978D01*
X117086Y206101D01*
X117421Y207352D01*
Y208648D01*
X117086Y209899D01*
X116438Y211022D01*
X115522Y211938D01*
X114400Y212586D01*
X113148Y212921D01*
D02*
G37*
G36*
X158202Y240330D02*
X157341D01*
X156545Y240000D01*
X155936Y239391D01*
X155606Y238595D01*
Y237734D01*
X155936Y236938D01*
X156545Y236329D01*
X157341Y235999D01*
X158202D01*
X158584Y236158D01*
X182764D01*
X186840Y232081D01*
X187492Y231646D01*
X188260Y231493D01*
X201669D01*
X215993Y217169D01*
Y204813D01*
X215835Y204431D01*
Y203569D01*
X216164Y202773D01*
X216773Y202164D01*
X217569Y201835D01*
X218431D01*
X219227Y202164D01*
X219836Y202773D01*
X220165Y203569D01*
Y204431D01*
X220007Y204813D01*
Y218000D01*
X219854Y218768D01*
X219419Y219419D01*
X203919Y234919D01*
X203268Y235354D01*
X202500Y235507D01*
X189091D01*
X185014Y239584D01*
X184363Y240019D01*
X183595Y240172D01*
X158584D01*
X158202Y240330D01*
D02*
G37*
G36*
X282611Y201165D02*
X281749D01*
X280953Y200836D01*
X280344Y200227D01*
X280015Y199431D01*
Y198569D01*
X280344Y197773D01*
X280953Y197164D01*
X281749Y196835D01*
X282611D01*
X283407Y197164D01*
X284016Y197773D01*
X284345Y198569D01*
Y199431D01*
X284016Y200227D01*
X283407Y200836D01*
X282611Y201165D01*
D02*
G37*
G36*
X358450Y197315D02*
X356685D01*
Y195550D01*
X356718Y195559D01*
X357438Y195975D01*
X358025Y196562D01*
X358441Y197282D01*
X358450Y197315D01*
D02*
G37*
G36*
X354315D02*
X352550D01*
X352559Y197282D01*
X352975Y196562D01*
X353562Y195975D01*
X354282Y195559D01*
X354315Y195550D01*
Y197315D01*
D02*
G37*
G36*
X77815Y197315D02*
X75031D01*
X75142Y196902D01*
X75687Y195958D01*
X76458Y195187D01*
X77402Y194642D01*
X77815Y194531D01*
Y197315D01*
D02*
G37*
G36*
X82969D02*
X80185D01*
Y194531D01*
X80598Y194642D01*
X81542Y195187D01*
X82313Y195958D01*
X82858Y196902D01*
X82969Y197315D01*
D02*
G37*
G36*
X49622Y203224D02*
X48378D01*
X47176Y202902D01*
X46099Y202280D01*
X45219Y201401D01*
X44598Y200324D01*
X44276Y199122D01*
Y197878D01*
X44598Y196676D01*
X45219Y195599D01*
X46099Y194720D01*
X47176Y194098D01*
X48378Y193776D01*
X49622D01*
X50824Y194098D01*
X51901Y194720D01*
X52780Y195599D01*
X53402Y196676D01*
X53724Y197878D01*
Y199122D01*
X53402Y200324D01*
X52780Y201401D01*
X51901Y202280D01*
X50824Y202902D01*
X49622Y203224D01*
D02*
G37*
G36*
X39622D02*
X38378D01*
X37176Y202902D01*
X36099Y202280D01*
X35219Y201401D01*
X34598Y200324D01*
X34276Y199122D01*
Y197878D01*
X34598Y196676D01*
X35219Y195599D01*
X36099Y194720D01*
X37176Y194098D01*
X38378Y193776D01*
X39622D01*
X40824Y194098D01*
X41901Y194720D01*
X42781Y195599D01*
X43402Y196676D01*
X43724Y197878D01*
Y199122D01*
X43402Y200324D01*
X42781Y201401D01*
X41901Y202280D01*
X40824Y202902D01*
X39622Y203224D01*
D02*
G37*
G36*
X29622D02*
X28378D01*
X27176Y202902D01*
X26099Y202280D01*
X25220Y201401D01*
X24598Y200324D01*
X24276Y199122D01*
Y197878D01*
X24598Y196676D01*
X25220Y195599D01*
X26099Y194720D01*
X27176Y194098D01*
X28378Y193776D01*
X29622D01*
X30824Y194098D01*
X31901Y194720D01*
X32781Y195599D01*
X33402Y196676D01*
X33724Y197878D01*
Y199122D01*
X33402Y200324D01*
X32781Y201401D01*
X31901Y202280D01*
X30824Y202902D01*
X29622Y203224D01*
D02*
G37*
G36*
X153091Y189191D02*
Y185185D01*
X157097D01*
X156864Y186054D01*
X156164Y187267D01*
X155173Y188258D01*
X153959Y188959D01*
X153091Y189191D01*
D02*
G37*
G36*
X150721D02*
X149852Y188959D01*
X148638Y188258D01*
X147647Y187267D01*
X146947Y186054D01*
X146714Y185185D01*
X150721D01*
Y189191D01*
D02*
G37*
G36*
X179527Y189321D02*
X170473D01*
Y182152D01*
X179527D01*
Y189321D01*
D02*
G37*
G36*
X278191Y185925D02*
X277329D01*
X276533Y185596D01*
X275924Y184987D01*
X275595Y184191D01*
Y183329D01*
X275924Y182533D01*
X276533Y181924D01*
X277329Y181595D01*
X278191D01*
X278987Y181924D01*
X279596Y182533D01*
X279925Y183329D01*
Y184191D01*
X279596Y184987D01*
X278987Y185596D01*
X278191Y185925D01*
D02*
G37*
G36*
X157097Y182815D02*
X153091D01*
Y178808D01*
X153959Y179041D01*
X155173Y179742D01*
X156164Y180733D01*
X156864Y181946D01*
X157097Y182815D01*
D02*
G37*
G36*
X150721D02*
X146714D01*
X146947Y181946D01*
X147647Y180733D01*
X148638Y179742D01*
X149852Y179041D01*
X150721Y178808D01*
Y182815D01*
D02*
G37*
G36*
X101906Y189906D02*
X90095D01*
Y178094D01*
X101906D01*
Y178571D01*
X102238Y178793D01*
X102273Y178779D01*
X103135D01*
X103931Y179108D01*
X104454Y179632D01*
X104978Y179108D01*
X105773Y178779D01*
X106635D01*
X107431Y179108D01*
X107949Y179627D01*
X108495Y179081D01*
X109291Y178751D01*
X110153D01*
X110949Y179081D01*
X111472Y179604D01*
X111995Y179081D01*
X112791Y178751D01*
X113653D01*
X114448Y179081D01*
X114831Y179463D01*
X115173Y179120D01*
X115969Y178791D01*
X116831D01*
X117627Y179120D01*
X118145Y179639D01*
X118691Y179093D01*
X119487Y178763D01*
X120348D01*
X121144Y179093D01*
X121668Y179616D01*
X122191Y179093D01*
X122987Y178763D01*
X123848D01*
X124644Y179093D01*
X125253Y179702D01*
X125583Y180498D01*
Y181359D01*
X125253Y182155D01*
X124644Y182764D01*
X123848Y183094D01*
X122987D01*
X122191Y182764D01*
X121668Y182241D01*
X121144Y182764D01*
X120348Y183094D01*
X119487D01*
X118691Y182764D01*
X118173Y182246D01*
X117627Y182792D01*
X116831Y183121D01*
X115969D01*
X115173Y182792D01*
X114791Y182410D01*
X114448Y182753D01*
X113653Y183082D01*
X112791D01*
X111995Y182753D01*
X111472Y182229D01*
X110949Y182753D01*
X110153Y183082D01*
X109291D01*
X108495Y182753D01*
X107977Y182234D01*
X107431Y182780D01*
X106635Y183109D01*
X105773D01*
X104978Y182780D01*
X104454Y182256D01*
X103931Y182780D01*
X103135Y183109D01*
X102273D01*
X102238Y183095D01*
X101906Y183317D01*
Y189906D01*
D02*
G37*
G36*
X175943Y179115D02*
X174057D01*
X173121Y178992D01*
X172249Y178631D01*
X171500Y178056D01*
X170926Y177308D01*
X170852Y177129D01*
X170622Y177106D01*
X66500D01*
X65886Y176983D01*
X65365Y176635D01*
X65365Y176635D01*
X39365Y150635D01*
X39017Y150115D01*
X38894Y149500D01*
X38894Y149500D01*
Y130516D01*
X36563D01*
Y124020D01*
X44437D01*
Y130516D01*
X42106D01*
Y148835D01*
X67165Y173894D01*
X89667D01*
X89996Y173500D01*
Y127500D01*
X90073Y127116D01*
X90290Y126790D01*
X95290Y121790D01*
X95616Y121573D01*
X96000Y121496D01*
X110500D01*
X110884Y121573D01*
X111210Y121790D01*
X116710Y127290D01*
X116710Y127290D01*
X140416Y150996D01*
X150500D01*
X150884Y151073D01*
X151210Y151290D01*
X154210Y154290D01*
X154427Y154616D01*
X154504Y155000D01*
Y164500D01*
X154427Y164884D01*
X154210Y165210D01*
X145894Y173525D01*
X146047Y173894D01*
X170661D01*
X170754Y173888D01*
X170851Y173874D01*
X170926Y173692D01*
X171500Y172944D01*
X172249Y172369D01*
X173121Y172008D01*
X174057Y171885D01*
X175943D01*
X176879Y172008D01*
X177751Y172369D01*
X178500Y172944D01*
X179074Y173692D01*
X179435Y174564D01*
X179559Y175500D01*
X179435Y176436D01*
X179074Y177308D01*
X178500Y178056D01*
X177751Y178631D01*
X176879Y178992D01*
X175943Y179115D01*
D02*
G37*
G36*
X188064Y170532D02*
X187203D01*
X186407Y170202D01*
X185798Y169593D01*
X185468Y168797D01*
Y167936D01*
X185798Y167140D01*
X186407Y166531D01*
X187203Y166201D01*
X188064D01*
X188860Y166531D01*
X189469Y167140D01*
X189799Y167936D01*
Y168797D01*
X189469Y169593D01*
X188860Y170202D01*
X188064Y170532D01*
D02*
G37*
G36*
X175943Y168879D02*
X174057D01*
X173121Y168756D01*
X172249Y168395D01*
X171500Y167820D01*
X170926Y167071D01*
X170565Y166200D01*
X170441Y165264D01*
X170565Y164328D01*
X170926Y163456D01*
X171500Y162707D01*
X172249Y162133D01*
X173121Y161772D01*
X174057Y161649D01*
X175943D01*
X176879Y161772D01*
X177751Y162133D01*
X178500Y162707D01*
X179074Y163456D01*
X179435Y164328D01*
X179559Y165264D01*
X179435Y166200D01*
X179074Y167071D01*
X178500Y167820D01*
X177751Y168395D01*
X176879Y168756D01*
X175943Y168879D01*
D02*
G37*
G36*
X39648Y169921D02*
X38352D01*
X37100Y169586D01*
X35978Y168938D01*
X35062Y168022D01*
X34414Y166900D01*
X34079Y165648D01*
Y164352D01*
X34414Y163101D01*
X35062Y161978D01*
X35978Y161062D01*
X37100Y160414D01*
X38352Y160079D01*
X39648D01*
X40900Y160414D01*
X42022Y161062D01*
X42938Y161978D01*
X43586Y163101D01*
X43921Y164352D01*
Y165648D01*
X43586Y166900D01*
X42938Y168022D01*
X42022Y168938D01*
X40900Y169586D01*
X39648Y169921D01*
D02*
G37*
G36*
X207431Y161665D02*
X206569D01*
X205773Y161336D01*
X205164Y160727D01*
X204835Y159931D01*
Y159069D01*
X205164Y158273D01*
X205773Y157664D01*
X206569Y157335D01*
X207431D01*
X208227Y157664D01*
X208836Y158273D01*
X209165Y159069D01*
Y159931D01*
X208836Y160727D01*
X208227Y161336D01*
X207431Y161665D01*
D02*
G37*
G36*
X411171Y160925D02*
X410310D01*
X409514Y160596D01*
X408905Y159986D01*
X408575Y159190D01*
Y158329D01*
X408905Y157533D01*
X409514Y156924D01*
X410310Y156595D01*
X411171D01*
X411967Y156924D01*
X412576Y157533D01*
X412906Y158329D01*
Y159190D01*
X412576Y159986D01*
X411967Y160596D01*
X411171Y160925D01*
D02*
G37*
G36*
X50674Y148468D02*
X49813D01*
X49017Y148139D01*
X48408Y147530D01*
X48078Y146734D01*
Y145872D01*
X48408Y145076D01*
X49017Y144467D01*
X49813Y144138D01*
X50674D01*
X51470Y144467D01*
X52079Y145076D01*
X52409Y145872D01*
Y146734D01*
X52079Y147530D01*
X51470Y148139D01*
X50674Y148468D01*
D02*
G37*
G36*
X153524Y139484D02*
X152476D01*
X151462Y139213D01*
X150554Y138688D01*
X149812Y137946D01*
X149481Y137373D01*
X149019D01*
X148688Y137946D01*
X147946Y138688D01*
X147038Y139213D01*
X146025Y139484D01*
X144975D01*
X143962Y139213D01*
X143054Y138688D01*
X142312Y137946D01*
X141787Y137038D01*
X141516Y136024D01*
Y134976D01*
X141787Y133962D01*
X142312Y133054D01*
X143054Y132312D01*
X143962Y131787D01*
X144975Y131516D01*
X146025D01*
X147038Y131787D01*
X147946Y132312D01*
X148688Y133054D01*
X149019Y133627D01*
X149481D01*
X149812Y133054D01*
X150554Y132312D01*
X151462Y131787D01*
X152476Y131516D01*
X153524D01*
X154538Y131787D01*
X155446Y132312D01*
X156188Y133054D01*
X156713Y133962D01*
X156984Y134976D01*
Y136024D01*
X156713Y137038D01*
X156188Y137946D01*
X155446Y138688D01*
X154538Y139213D01*
X153524Y139484D01*
D02*
G37*
G36*
X180525Y139984D02*
X179475D01*
X178462Y139713D01*
X177554Y139188D01*
X176812Y138446D01*
X176287Y137538D01*
X176207Y137239D01*
X175793D01*
X175713Y137538D01*
X175188Y138446D01*
X174446Y139188D01*
X173538Y139713D01*
X172524Y139984D01*
X171476D01*
X170462Y139713D01*
X169554Y139188D01*
X168812Y138446D01*
X168287Y137538D01*
X168207Y137239D01*
X167793D01*
X167713Y137538D01*
X167188Y138446D01*
X166446Y139188D01*
X165538Y139713D01*
X164524Y139984D01*
X163476D01*
X162462Y139713D01*
X161554Y139188D01*
X160812Y138446D01*
X160287Y137538D01*
X160016Y136524D01*
Y135476D01*
X160287Y134462D01*
X160812Y133554D01*
X161554Y132812D01*
X162462Y132287D01*
X163476Y132016D01*
X164524D01*
X165538Y132287D01*
X166446Y132812D01*
X167188Y133554D01*
X167713Y134462D01*
X167793Y134762D01*
X168207D01*
X168287Y134462D01*
X168812Y133554D01*
X169554Y132812D01*
X170462Y132287D01*
X171476Y132016D01*
X172524D01*
X173538Y132287D01*
X174446Y132812D01*
X175188Y133554D01*
X175713Y134462D01*
X175793Y134762D01*
X176207D01*
X176287Y134462D01*
X176812Y133554D01*
X177554Y132812D01*
X178462Y132287D01*
X179475Y132016D01*
X180525D01*
X181538Y132287D01*
X182446Y132812D01*
X183188Y133554D01*
X183713Y134462D01*
X183984Y135476D01*
Y136524D01*
X183713Y137538D01*
X183188Y138446D01*
X182446Y139188D01*
X181538Y139713D01*
X180525Y139984D01*
D02*
G37*
G36*
X197780Y142001D02*
X192780D01*
X190030Y139251D01*
Y133751D01*
X192780Y131001D01*
X197780D01*
X200530Y133751D01*
Y139251D01*
X197780Y142001D01*
D02*
G37*
G36*
X29028Y132209D02*
X19972D01*
Y125791D01*
X29028D01*
Y132209D01*
D02*
G37*
G36*
X57079Y132236D02*
X54441D01*
X53603Y132126D01*
X52823Y131803D01*
X52153Y131288D01*
X51638Y130618D01*
X51315Y129838D01*
X51205Y129000D01*
X51315Y128162D01*
X51638Y127382D01*
X52153Y126712D01*
X52823Y126197D01*
X53603Y125874D01*
X54441Y125764D01*
X57079D01*
X57916Y125874D01*
X58697Y126197D01*
X59367Y126712D01*
X59882Y127382D01*
X60205Y128162D01*
X60315Y129000D01*
X60205Y129838D01*
X59882Y130618D01*
X59367Y131288D01*
X58697Y131803D01*
X57916Y132126D01*
X57079Y132236D01*
D02*
G37*
G36*
X44437Y122248D02*
X36563D01*
Y120838D01*
X36424Y120815D01*
X36325Y120806D01*
X28987D01*
X28812Y120818D01*
X28568Y120849D01*
X28422Y120878D01*
X28107Y121288D01*
X27437Y121803D01*
X26656Y122126D01*
X25819Y122236D01*
X23181D01*
X22343Y122126D01*
X21563Y121803D01*
X20893Y121288D01*
X20378Y120618D01*
X20055Y119838D01*
X19945Y119000D01*
X20055Y118162D01*
X20378Y117382D01*
X20893Y116712D01*
X21563Y116197D01*
X22343Y115874D01*
X23181Y115764D01*
X25819D01*
X26656Y115874D01*
X27437Y116197D01*
X28107Y116712D01*
X28422Y117122D01*
X28552Y117148D01*
X29035Y117194D01*
X36325D01*
X36424Y117185D01*
X36563Y117162D01*
Y115752D01*
X44437D01*
Y122248D01*
D02*
G37*
G36*
X74148Y127921D02*
X72852D01*
X71601Y127586D01*
X70478Y126938D01*
X69562Y126022D01*
X68914Y124899D01*
X68579Y123648D01*
Y122352D01*
X68914Y121100D01*
X69562Y119978D01*
X70478Y119062D01*
X71601Y118414D01*
X72852Y118079D01*
X74148D01*
X75400Y118414D01*
X76522Y119062D01*
X77438Y119978D01*
X78086Y121100D01*
X78421Y122352D01*
Y123648D01*
X78086Y124899D01*
X77438Y126022D01*
X76522Y126938D01*
X75400Y127586D01*
X74148Y127921D01*
D02*
G37*
G36*
X57079Y122236D02*
X54441D01*
X53603Y122126D01*
X52823Y121803D01*
X52153Y121288D01*
X51638Y120618D01*
X51315Y119838D01*
X51205Y119000D01*
X51315Y118162D01*
X51638Y117382D01*
X52153Y116712D01*
X52823Y116197D01*
X53603Y115874D01*
X54441Y115764D01*
X57079D01*
X57916Y115874D01*
X58697Y116197D01*
X59367Y116712D01*
X59882Y117382D01*
X60205Y118162D01*
X60315Y119000D01*
X60205Y119838D01*
X59882Y120618D01*
X59367Y121288D01*
X58697Y121803D01*
X57916Y122126D01*
X57079Y122236D01*
D02*
G37*
G36*
X12648Y123921D02*
X11352D01*
X10100Y123586D01*
X8978Y122938D01*
X8062Y122022D01*
X7414Y120899D01*
X7079Y119648D01*
Y118352D01*
X7414Y117101D01*
X8062Y115978D01*
X8978Y115062D01*
X10100Y114414D01*
X11352Y114079D01*
X12648D01*
X13900Y114414D01*
X15022Y115062D01*
X15938Y115978D01*
X16586Y117101D01*
X16921Y118352D01*
Y119648D01*
X16586Y120899D01*
X15938Y122022D01*
X15022Y122938D01*
X13900Y123586D01*
X12648Y123921D01*
D02*
G37*
G36*
X25819Y112236D02*
X23181D01*
X22343Y112126D01*
X21563Y111803D01*
X20893Y111288D01*
X20378Y110618D01*
X20055Y109838D01*
X19945Y109000D01*
X20055Y108162D01*
X20378Y107382D01*
X20893Y106712D01*
X21563Y106197D01*
X22343Y105874D01*
X23181Y105764D01*
X25819D01*
X26656Y105874D01*
X27437Y106197D01*
X28107Y106712D01*
X28622Y107382D01*
X28945Y108162D01*
X29055Y109000D01*
X28945Y109838D01*
X28622Y110618D01*
X28107Y111288D01*
X27437Y111803D01*
X26656Y112126D01*
X25819Y112236D01*
D02*
G37*
G36*
X57079Y101647D02*
X56945D01*
Y100185D01*
X59429D01*
X59371Y100323D01*
X58951Y100872D01*
X58402Y101292D01*
X57764Y101557D01*
X57079Y101647D01*
D02*
G37*
G36*
X54575D02*
X54441D01*
X53756Y101557D01*
X53117Y101292D01*
X52569Y100872D01*
X52148Y100323D01*
X52091Y100185D01*
X54575D01*
Y101647D01*
D02*
G37*
G36*
X153685Y101790D02*
Y97783D01*
X157692D01*
X157459Y98652D01*
X156758Y99866D01*
X155767Y100856D01*
X154554Y101557D01*
X153685Y101790D01*
D02*
G37*
G36*
X151315D02*
X150446Y101557D01*
X149233Y100856D01*
X148242Y99866D01*
X147541Y98652D01*
X147309Y97783D01*
X151315D01*
Y101790D01*
D02*
G37*
G36*
X59429Y97815D02*
X56945D01*
Y96353D01*
X57079D01*
X57764Y96443D01*
X58402Y96708D01*
X58951Y97128D01*
X59371Y97676D01*
X59429Y97815D01*
D02*
G37*
G36*
X54575D02*
X52091D01*
X52148Y97676D01*
X52569Y97128D01*
X53117Y96708D01*
X53756Y96443D01*
X54441Y96353D01*
X54575D01*
Y97815D01*
D02*
G37*
G36*
X25819Y102236D02*
X23181D01*
X22343Y102126D01*
X21563Y101803D01*
X20893Y101288D01*
X20378Y100618D01*
X20055Y99838D01*
X19945Y99000D01*
X20055Y98162D01*
X20378Y97382D01*
X20893Y96711D01*
X21563Y96197D01*
X22343Y95874D01*
X23181Y95764D01*
X25819D01*
X26656Y95874D01*
X27437Y96197D01*
X28107Y96711D01*
X28622Y97382D01*
X28945Y98162D01*
X29055Y99000D01*
X28945Y99838D01*
X28622Y100618D01*
X28107Y101288D01*
X27437Y101803D01*
X26656Y102126D01*
X25819Y102236D01*
D02*
G37*
G36*
X157692Y95413D02*
X153685D01*
Y91407D01*
X154554Y91640D01*
X155767Y92340D01*
X156758Y93331D01*
X157459Y94545D01*
X157692Y95413D01*
D02*
G37*
G36*
X151315D02*
X147309D01*
X147541Y94545D01*
X148242Y93331D01*
X149233Y92340D01*
X150446Y91640D01*
X151315Y91407D01*
Y95413D01*
D02*
G37*
G36*
X101906Y102504D02*
X90095D01*
Y90693D01*
X101906D01*
Y102504D01*
D02*
G37*
G36*
X57079Y92236D02*
X54441D01*
X53603Y92126D01*
X52823Y91803D01*
X52153Y91289D01*
X51638Y90618D01*
X51315Y89838D01*
X51205Y89000D01*
X51315Y88162D01*
X51638Y87382D01*
X52153Y86712D01*
X52823Y86197D01*
X53603Y85874D01*
X54441Y85764D01*
X57079D01*
X57916Y85874D01*
X58697Y86197D01*
X59367Y86712D01*
X59882Y87382D01*
X60205Y88162D01*
X60315Y89000D01*
X60205Y89838D01*
X59882Y90618D01*
X59367Y91289D01*
X58697Y91803D01*
X57916Y92126D01*
X57079Y92236D01*
D02*
G37*
G36*
X25819D02*
X23181D01*
X22343Y92126D01*
X21563Y91803D01*
X20893Y91289D01*
X20378Y90618D01*
X20055Y89838D01*
X19945Y89000D01*
X20055Y88162D01*
X20378Y87382D01*
X20893Y86712D01*
X21563Y86197D01*
X22343Y85874D01*
X23181Y85764D01*
X25819D01*
X26656Y85874D01*
X27437Y86197D01*
X28107Y86712D01*
X28622Y87382D01*
X28945Y88162D01*
X29055Y89000D01*
X28945Y89838D01*
X28622Y90618D01*
X28107Y91289D01*
X27437Y91803D01*
X26656Y92126D01*
X25819Y92236D01*
D02*
G37*
G36*
X57079Y112236D02*
X54441D01*
X53603Y112126D01*
X52823Y111803D01*
X52153Y111288D01*
X51638Y110618D01*
X51315Y109838D01*
X51205Y109000D01*
X51315Y108162D01*
X51638Y107382D01*
X52153Y106712D01*
X52823Y106197D01*
X53603Y105874D01*
X54441Y105764D01*
X56957D01*
X57045Y105714D01*
X57341Y105510D01*
X58003Y104954D01*
X70792Y92164D01*
Y90534D01*
X70774Y90285D01*
X70725Y89943D01*
X70665Y89677D01*
X70609Y89516D01*
X70249Y89367D01*
X69500Y88793D01*
X68926Y88044D01*
X68565Y87172D01*
X68441Y86236D01*
X68565Y85300D01*
X68926Y84429D01*
X69500Y83680D01*
X70249Y83105D01*
X71121Y82744D01*
X72057Y82621D01*
X73943D01*
X74879Y82744D01*
X75751Y83105D01*
X76500Y83680D01*
X77074Y84429D01*
X77435Y85300D01*
X77558Y86236D01*
X77435Y87172D01*
X77074Y88044D01*
X76500Y88793D01*
X75751Y89367D01*
X75391Y89516D01*
X75335Y89677D01*
X75279Y89926D01*
X75208Y90594D01*
Y93079D01*
X75040Y93924D01*
X74561Y94640D01*
X61232Y107969D01*
X60912Y108344D01*
X60741Y108575D01*
X60592Y108803D01*
X60470Y109017D01*
X60375Y109215D01*
X60305Y109396D01*
X60258Y109560D01*
X60221Y109760D01*
X60212Y109782D01*
X60205Y109838D01*
X60190Y109873D01*
X60188Y109889D01*
X60170Y109921D01*
X59882Y110618D01*
X59367Y111288D01*
X58697Y111803D01*
X57916Y112126D01*
X57079Y112236D01*
D02*
G37*
G36*
X126870Y78892D02*
Y77185D01*
X128577D01*
X128574Y77197D01*
X128166Y77903D01*
X127588Y78481D01*
X126882Y78889D01*
X126870Y78892D01*
D02*
G37*
G36*
X124500D02*
X124488Y78889D01*
X123782Y78481D01*
X123204Y77903D01*
X122796Y77197D01*
X122793Y77185D01*
X124500D01*
Y78892D01*
D02*
G37*
G36*
X57079Y82236D02*
X54441D01*
X53603Y82126D01*
X52823Y81803D01*
X52153Y81288D01*
X51638Y80618D01*
X51315Y79838D01*
X51205Y79000D01*
X51315Y78162D01*
X51638Y77382D01*
X52153Y76711D01*
X52823Y76197D01*
X53603Y75874D01*
X54441Y75764D01*
X57079D01*
X57916Y75874D01*
X58697Y76197D01*
X59367Y76711D01*
X59882Y77382D01*
X60205Y78162D01*
X60315Y79000D01*
X60205Y79838D01*
X59882Y80618D01*
X59367Y81288D01*
X58697Y81803D01*
X57916Y82126D01*
X57079Y82236D01*
D02*
G37*
G36*
X25819D02*
X23181D01*
X22343Y82126D01*
X21563Y81803D01*
X20893Y81288D01*
X20378Y80618D01*
X20055Y79838D01*
X19945Y79000D01*
X20055Y78162D01*
X20378Y77382D01*
X20893Y76711D01*
X21563Y76197D01*
X22343Y75874D01*
X23181Y75764D01*
X25819D01*
X26656Y75874D01*
X27437Y76197D01*
X28107Y76711D01*
X28622Y77382D01*
X28945Y78162D01*
X29055Y79000D01*
X28945Y79838D01*
X28622Y80618D01*
X28107Y81288D01*
X27437Y81803D01*
X26656Y82126D01*
X25819Y82236D01*
D02*
G37*
G36*
X128577Y74815D02*
X126870D01*
Y73108D01*
X126882Y73111D01*
X127588Y73519D01*
X128166Y74097D01*
X128574Y74803D01*
X128577Y74815D01*
D02*
G37*
G36*
X124500D02*
X122793D01*
X122796Y74803D01*
X123204Y74097D01*
X123782Y73519D01*
X124488Y73111D01*
X124500Y73108D01*
Y74815D01*
D02*
G37*
G36*
X73943Y79615D02*
X72057D01*
X71121Y79492D01*
X70249Y79131D01*
X69500Y78556D01*
X68926Y77808D01*
X68565Y76936D01*
X68441Y76000D01*
X68565Y75064D01*
X68926Y74192D01*
X69500Y73444D01*
X70249Y72869D01*
X71121Y72508D01*
X72057Y72385D01*
X73943D01*
X74879Y72508D01*
X75751Y72869D01*
X76500Y73444D01*
X77074Y74192D01*
X77435Y75064D01*
X77558Y76000D01*
X77435Y76936D01*
X77074Y77808D01*
X76500Y78556D01*
X75751Y79131D01*
X74879Y79492D01*
X73943Y79615D01*
D02*
G37*
G36*
X106485Y79684D02*
X105515D01*
X104578Y79433D01*
X103738Y78948D01*
X103052Y78262D01*
X102567Y77422D01*
X102316Y76485D01*
Y75515D01*
X102567Y74578D01*
X103052Y73738D01*
X103738Y73052D01*
X104578Y72567D01*
X105515Y72316D01*
X106485D01*
X107422Y72567D01*
X108262Y73052D01*
X108948Y73738D01*
X109433Y74578D01*
X109684Y75515D01*
Y76485D01*
X109433Y77422D01*
X108948Y78262D01*
X108262Y78948D01*
X107422Y79433D01*
X106485Y79684D01*
D02*
G37*
G36*
X57079Y72236D02*
X54441D01*
X53603Y72126D01*
X52823Y71803D01*
X52153Y71289D01*
X51638Y70618D01*
X51315Y69838D01*
X51205Y69000D01*
X51315Y68162D01*
X51638Y67382D01*
X52153Y66711D01*
X52823Y66197D01*
X53603Y65874D01*
X54441Y65764D01*
X57079D01*
X57916Y65874D01*
X58697Y66197D01*
X59367Y66711D01*
X59882Y67382D01*
X60205Y68162D01*
X60315Y69000D01*
X60205Y69838D01*
X59882Y70618D01*
X59367Y71289D01*
X58697Y71803D01*
X57916Y72126D01*
X57079Y72236D01*
D02*
G37*
G36*
X25819D02*
X23181D01*
X22343Y72126D01*
X21563Y71803D01*
X20893Y71289D01*
X20378Y70618D01*
X20055Y69838D01*
X19945Y69000D01*
X20055Y68162D01*
X20378Y67382D01*
X20893Y66711D01*
X21563Y66197D01*
X22343Y65874D01*
X23181Y65764D01*
X25819D01*
X26656Y65874D01*
X27437Y66197D01*
X28107Y66711D01*
X28622Y67382D01*
X28945Y68162D01*
X29055Y69000D01*
X28945Y69838D01*
X28622Y70618D01*
X28107Y71289D01*
X27437Y71803D01*
X26656Y72126D01*
X25819Y72236D01*
D02*
G37*
G36*
X77527Y69348D02*
X68472D01*
Y62179D01*
X77527D01*
Y69348D01*
D02*
G37*
G36*
X25819Y61647D02*
X25685D01*
Y60185D01*
X28169D01*
X28111Y60324D01*
X27691Y60872D01*
X27142Y61292D01*
X26504Y61557D01*
X25819Y61647D01*
D02*
G37*
G36*
X23315D02*
X23181D01*
X22496Y61557D01*
X21858Y61292D01*
X21309Y60872D01*
X20889Y60324D01*
X20831Y60185D01*
X23315D01*
Y61647D01*
D02*
G37*
G36*
X28169Y57815D02*
X25685D01*
Y56353D01*
X25819D01*
X26504Y56443D01*
X27142Y56708D01*
X27691Y57128D01*
X28111Y57677D01*
X28169Y57815D01*
D02*
G37*
G36*
X23315D02*
X20831D01*
X20889Y57677D01*
X21309Y57128D01*
X21858Y56708D01*
X22496Y56443D01*
X23181Y56353D01*
X23315D01*
Y57815D01*
D02*
G37*
G36*
X57079Y62236D02*
X54441D01*
X53603Y62126D01*
X52823Y61803D01*
X52153Y61288D01*
X51638Y60618D01*
X51315Y59838D01*
X51205Y59000D01*
X51315Y58162D01*
X51638Y57382D01*
X52153Y56712D01*
X52823Y56197D01*
X53603Y55874D01*
X54441Y55764D01*
X57079D01*
X57916Y55874D01*
X58697Y56197D01*
X59367Y56712D01*
X59882Y57382D01*
X60205Y58162D01*
X60315Y59000D01*
X60205Y59838D01*
X59882Y60618D01*
X59367Y61288D01*
X58697Y61803D01*
X57916Y62126D01*
X57079Y62236D01*
D02*
G37*
G36*
X153685Y50202D02*
Y48185D01*
X155702D01*
X155668Y48312D01*
X155221Y49088D01*
X154588Y49721D01*
X153812Y50168D01*
X153685Y50202D01*
D02*
G37*
G36*
X146185D02*
Y48185D01*
X148202D01*
X148168Y48312D01*
X147721Y49088D01*
X147088Y49721D01*
X146312Y50168D01*
X146185Y50202D01*
D02*
G37*
G36*
X151315D02*
X151188Y50168D01*
X150412Y49721D01*
X149779Y49088D01*
X149332Y48312D01*
X149298Y48185D01*
X151315D01*
Y50202D01*
D02*
G37*
G36*
X143815D02*
X143688Y50168D01*
X142912Y49721D01*
X142279Y49088D01*
X141832Y48312D01*
X141798Y48185D01*
X143815D01*
Y50202D01*
D02*
G37*
G36*
X176362Y50068D02*
Y48051D01*
X178380D01*
X178346Y48178D01*
X177898Y48954D01*
X177265Y49587D01*
X176489Y50034D01*
X176362Y50068D01*
D02*
G37*
G36*
X168862D02*
Y48051D01*
X170880D01*
X170845Y48178D01*
X170398Y48954D01*
X169765Y49587D01*
X168990Y50034D01*
X168862Y50068D01*
D02*
G37*
G36*
X161362D02*
Y48051D01*
X163380D01*
X163346Y48178D01*
X162898Y48954D01*
X162265Y49587D01*
X161489Y50034D01*
X161362Y50068D01*
D02*
G37*
G36*
X173992D02*
X173865Y50034D01*
X173090Y49587D01*
X172457Y48954D01*
X172009Y48178D01*
X171975Y48051D01*
X173992D01*
Y50068D01*
D02*
G37*
G36*
X166492D02*
X166365Y50034D01*
X165589Y49587D01*
X164956Y48954D01*
X164509Y48178D01*
X164475Y48051D01*
X166492D01*
Y50068D01*
D02*
G37*
G36*
X158992D02*
X158865Y50034D01*
X158089Y49587D01*
X157457Y48954D01*
X157009Y48178D01*
X156975Y48051D01*
X158992D01*
Y50068D01*
D02*
G37*
G36*
X86459Y52984D02*
X85541D01*
X84655Y52747D01*
X83861Y52288D01*
X83212Y51639D01*
X82753Y50845D01*
X82516Y49959D01*
Y49041D01*
X82753Y48155D01*
X83212Y47361D01*
X83861Y46712D01*
X84655Y46253D01*
X85541Y46016D01*
X86459D01*
X87345Y46253D01*
X88139Y46712D01*
X88788Y47361D01*
X89247Y48155D01*
X89484Y49041D01*
Y49959D01*
X89247Y50845D01*
X88788Y51639D01*
X88139Y52288D01*
X87345Y52747D01*
X86459Y52984D01*
D02*
G37*
G36*
X81584D02*
X74616D01*
Y46016D01*
X81584D01*
Y52984D01*
D02*
G37*
G36*
X155702Y45815D02*
X153685D01*
Y43798D01*
X153812Y43832D01*
X154588Y44279D01*
X155221Y44912D01*
X155668Y45688D01*
X155702Y45815D01*
D02*
G37*
G36*
X148202D02*
X146185D01*
Y43798D01*
X146312Y43832D01*
X147088Y44279D01*
X147721Y44912D01*
X148168Y45688D01*
X148202Y45815D01*
D02*
G37*
G36*
X151315D02*
X149298D01*
X149332Y45688D01*
X149779Y44912D01*
X150412Y44279D01*
X151188Y43832D01*
X151315Y43798D01*
Y45815D01*
D02*
G37*
G36*
X143815D02*
X141798D01*
X141832Y45688D01*
X142279Y44912D01*
X142912Y44279D01*
X143688Y43832D01*
X143815Y43798D01*
Y45815D01*
D02*
G37*
G36*
X178380Y45681D02*
X176362D01*
Y43664D01*
X176489Y43698D01*
X177265Y44146D01*
X177898Y44778D01*
X178346Y45554D01*
X178380Y45681D01*
D02*
G37*
G36*
X170880D02*
X168862D01*
Y43664D01*
X168990Y43698D01*
X169765Y44146D01*
X170398Y44778D01*
X170845Y45554D01*
X170880Y45681D01*
D02*
G37*
G36*
X163380D02*
X161362D01*
Y43664D01*
X161489Y43698D01*
X162265Y44146D01*
X162898Y44778D01*
X163346Y45554D01*
X163380Y45681D01*
D02*
G37*
G36*
X173992D02*
X171975D01*
X172009Y45554D01*
X172457Y44778D01*
X173090Y44146D01*
X173865Y43698D01*
X173992Y43664D01*
Y45681D01*
D02*
G37*
G36*
X166492D02*
X164475D01*
X164509Y45554D01*
X164956Y44778D01*
X165589Y44146D01*
X166365Y43698D01*
X166492Y43664D01*
Y45681D01*
D02*
G37*
G36*
X158992D02*
X156975D01*
X157009Y45554D01*
X157457Y44778D01*
X158089Y44146D01*
X158865Y43698D01*
X158992Y43664D01*
Y45681D01*
D02*
G37*
G36*
X198000Y52500D02*
X192500D01*
X189750Y49750D01*
Y44750D01*
X192500Y42000D01*
X198000D01*
X200750Y44750D01*
Y49750D01*
X198000Y52500D01*
D02*
G37*
G36*
X127148Y40921D02*
X125852D01*
X124601Y40586D01*
X123478Y39938D01*
X122562Y39022D01*
X121914Y37900D01*
X121579Y36648D01*
Y35352D01*
X121914Y34100D01*
X122562Y32978D01*
X123478Y32062D01*
X124601Y31414D01*
X125852Y31079D01*
X127148D01*
X128400Y31414D01*
X129522Y32062D01*
X130438Y32978D01*
X131086Y34100D01*
X131421Y35352D01*
Y36648D01*
X131086Y37900D01*
X130438Y39022D01*
X129522Y39938D01*
X128400Y40586D01*
X127148Y40921D01*
D02*
G37*
G36*
X23843Y17061D02*
Y14685D01*
X26219D01*
X26149Y14946D01*
X25655Y15800D01*
X24958Y16498D01*
X24104Y16991D01*
X23843Y17061D01*
D02*
G37*
G36*
X21472D02*
X21211Y16991D01*
X20357Y16498D01*
X19660Y15800D01*
X19166Y14946D01*
X19096Y14685D01*
X21472D01*
Y17061D01*
D02*
G37*
G36*
X147185Y16099D02*
Y14185D01*
X149099D01*
X149075Y14274D01*
X148641Y15026D01*
X148026Y15641D01*
X147274Y16075D01*
X147185Y16099D01*
D02*
G37*
G36*
X144815D02*
X144726Y16075D01*
X143974Y15641D01*
X143359Y15026D01*
X142925Y14274D01*
X142901Y14185D01*
X144815D01*
Y16099D01*
D02*
G37*
G36*
X26219Y12315D02*
X23843D01*
Y9939D01*
X24104Y10009D01*
X24958Y10502D01*
X25655Y11200D01*
X26149Y12054D01*
X26219Y12315D01*
D02*
G37*
G36*
X21472D02*
X19096D01*
X19166Y12054D01*
X19660Y11200D01*
X20357Y10502D01*
X21211Y10009D01*
X21472Y9939D01*
Y12315D01*
D02*
G37*
G36*
X149099Y11815D02*
X147185D01*
Y9901D01*
X147274Y9925D01*
X148026Y10359D01*
X148641Y10974D01*
X149075Y11726D01*
X149099Y11815D01*
D02*
G37*
G36*
X144815D02*
X142901D01*
X142925Y11726D01*
X143359Y10974D01*
X143974Y10359D01*
X144726Y9925D01*
X144815Y9901D01*
Y11815D01*
D02*
G37*
G36*
X48500Y20004D02*
X33500D01*
X33116Y19927D01*
X32790Y19710D01*
X32573Y19384D01*
X32497Y19000D01*
Y17831D01*
X28169D01*
Y9169D01*
X32497D01*
Y8500D01*
X32573Y8116D01*
X32790Y7790D01*
X33116Y7573D01*
X33500Y7497D01*
X48500D01*
X48884Y7573D01*
X49210Y7790D01*
X49427Y8116D01*
X49503Y8500D01*
Y10368D01*
X49904Y10534D01*
X50273Y10164D01*
X51069Y9835D01*
X51931D01*
X52727Y10164D01*
X53250Y10688D01*
X53773Y10164D01*
X54569Y9835D01*
X55431D01*
X56227Y10164D01*
X56762Y10700D01*
X57000Y10743D01*
X57238Y10700D01*
X57773Y10164D01*
X58569Y9835D01*
X59431D01*
X60227Y10164D01*
X60836Y10773D01*
X61165Y11569D01*
Y12431D01*
X60836Y13227D01*
X60300Y13762D01*
X60257Y14000D01*
X60300Y14238D01*
X60836Y14773D01*
X61165Y15569D01*
Y16431D01*
X60836Y17227D01*
X60227Y17836D01*
X59431Y18165D01*
X58569D01*
X57773Y17836D01*
X57238Y17300D01*
X57000Y17257D01*
X56762Y17300D01*
X56227Y17836D01*
X55431Y18165D01*
X54569D01*
X53773Y17836D01*
X53238Y17300D01*
X53000Y17257D01*
X52762Y17300D01*
X52227Y17836D01*
X51431Y18165D01*
X50569D01*
X49904Y17890D01*
X49503Y18088D01*
Y19000D01*
X49427Y19384D01*
X49210Y19710D01*
X48884Y19927D01*
X48500Y20004D01*
D02*
G37*
G36*
X92148Y19421D02*
X90852D01*
X89600Y19086D01*
X88478Y18438D01*
X87562Y17522D01*
X86914Y16399D01*
X86579Y15148D01*
Y13852D01*
X86914Y12600D01*
X87562Y11478D01*
X88478Y10562D01*
X89600Y9914D01*
X90852Y9579D01*
X92148D01*
X93400Y9914D01*
X94522Y10562D01*
X95438Y11478D01*
X96086Y12600D01*
X96421Y13852D01*
Y15148D01*
X96086Y16399D01*
X95438Y17522D01*
X94522Y18438D01*
X93400Y19086D01*
X92148Y19421D01*
D02*
G37*
G36*
X156511Y16884D02*
X155489D01*
X154501Y16620D01*
X153615Y16108D01*
X152892Y15385D01*
X152380Y14499D01*
X152116Y13511D01*
Y12489D01*
X152380Y11501D01*
X152892Y10615D01*
X153615Y9892D01*
X154501Y9381D01*
X155489Y9116D01*
X156511D01*
X157499Y9381D01*
X158385Y9892D01*
X159108Y10615D01*
X159619Y11501D01*
X159884Y12489D01*
Y13511D01*
X159619Y14499D01*
X159108Y15385D01*
X158385Y16108D01*
X157499Y16620D01*
X156511Y16884D01*
D02*
G37*
%LPD*%
G36*
X402293Y243837D02*
X402059Y244061D01*
X401820Y244261D01*
X401576Y244438D01*
X401326Y244591D01*
X401071Y244721D01*
X400810Y244827D01*
X400545Y244910D01*
X400274Y244969D01*
X399998Y245004D01*
X399716Y245016D01*
Y246984D01*
X399998Y246996D01*
X400274Y247031D01*
X400545Y247090D01*
X400810Y247173D01*
X401071Y247279D01*
X401326Y247409D01*
X401576Y247562D01*
X401820Y247739D01*
X402059Y247939D01*
X402293Y248163D01*
Y243837D01*
D02*
G37*
G36*
Y233837D02*
X402059Y234061D01*
X401820Y234261D01*
X401576Y234438D01*
X401326Y234591D01*
X401071Y234721D01*
X400810Y234827D01*
X400545Y234910D01*
X400274Y234969D01*
X399998Y235004D01*
X399716Y235016D01*
Y236984D01*
X399998Y236996D01*
X400274Y237031D01*
X400545Y237090D01*
X400810Y237173D01*
X401071Y237279D01*
X401326Y237409D01*
X401576Y237562D01*
X401820Y237739D01*
X402059Y237939D01*
X402293Y238163D01*
Y233837D01*
D02*
G37*
G36*
X114840Y247505D02*
X114663Y247297D01*
X114505Y247048D01*
X114367Y246756D01*
X114248Y246422D01*
X114147Y246047D01*
X114067Y245629D01*
X114005Y245170D01*
X113940Y244125D01*
X113937Y243539D01*
X110039Y247437D01*
X110625Y247440D01*
X111670Y247505D01*
X112129Y247567D01*
X112547Y247648D01*
X112922Y247747D01*
X113256Y247867D01*
X113548Y248005D01*
X113797Y248163D01*
X114005Y248340D01*
X114840Y247505D01*
D02*
G37*
G36*
X367189Y237244D02*
X366843Y237581D01*
X366157Y238148D01*
X365817Y238378D01*
X365480Y238573D01*
X365145Y238733D01*
X364812Y238857D01*
X364481Y238945D01*
X364152Y238998D01*
X363826Y239016D01*
Y240985D01*
X364152Y241002D01*
X364481Y241055D01*
X364812Y241144D01*
X365145Y241268D01*
X365480Y241427D01*
X365817Y241622D01*
X366157Y241853D01*
X366498Y242118D01*
X366843Y242420D01*
X367189Y242756D01*
Y237244D01*
D02*
G37*
G36*
X224195Y237964D02*
X224370Y237815D01*
X224453Y237755D01*
X224534Y237705D01*
X224612Y237663D01*
X224688Y237631D01*
X224761Y237608D01*
X224831Y237595D01*
X224898Y237591D01*
X223729Y236422D01*
X223725Y236489D01*
X223712Y236560D01*
X223689Y236632D01*
X223657Y236708D01*
X223615Y236786D01*
X223565Y236867D01*
X223504Y236950D01*
X223435Y237036D01*
X223268Y237217D01*
X224103Y238052D01*
X224195Y237964D01*
D02*
G37*
G36*
X225692Y235516D02*
X225652Y235457D01*
X225616Y235389D01*
X225586Y235313D01*
X225560Y235229D01*
X225538Y235136D01*
X225522Y235034D01*
X225510Y234924D01*
X225500Y234679D01*
X224319D01*
X224317Y234805D01*
X224298Y235034D01*
X224282Y235136D01*
X224260Y235229D01*
X224234Y235313D01*
X224204Y235389D01*
X224168Y235457D01*
X224128Y235516D01*
X224083Y235566D01*
X225737D01*
X225692Y235516D01*
D02*
G37*
G36*
X220785Y233054D02*
X220960Y232906D01*
X221043Y232845D01*
X221124Y232795D01*
X221202Y232753D01*
X221278Y232721D01*
X221351Y232698D01*
X221421Y232685D01*
X221488Y232681D01*
X220319Y231512D01*
X220315Y231579D01*
X220302Y231649D01*
X220279Y231722D01*
X220247Y231798D01*
X220205Y231876D01*
X220155Y231957D01*
X220094Y232040D01*
X220025Y232126D01*
X219858Y232307D01*
X220693Y233142D01*
X220785Y233054D01*
D02*
G37*
G36*
X114840Y232505D02*
X114663Y232297D01*
X114505Y232048D01*
X114367Y231756D01*
X114248Y231422D01*
X114147Y231047D01*
X114067Y230629D01*
X114005Y230170D01*
X113940Y229125D01*
X113937Y228539D01*
X110039Y232437D01*
X110625Y232440D01*
X111670Y232505D01*
X112129Y232567D01*
X112547Y232647D01*
X112922Y232748D01*
X113256Y232867D01*
X113548Y233005D01*
X113797Y233163D01*
X114005Y233340D01*
X114840Y232505D01*
D02*
G37*
G36*
X303747Y225583D02*
X303660Y225665D01*
X303572Y225739D01*
X303480Y225804D01*
X303386Y225860D01*
X303290Y225908D01*
X303190Y225947D01*
X303089Y225977D01*
X302984Y225999D01*
X302877Y226012D01*
X302768Y226016D01*
Y226804D01*
X302877Y226808D01*
X302984Y226821D01*
X303089Y226843D01*
X303190Y226873D01*
X303290Y226912D01*
X303386Y226960D01*
X303480Y227016D01*
X303572Y227081D01*
X303660Y227154D01*
X303747Y227237D01*
Y225583D01*
D02*
G37*
G36*
Y220583D02*
X303660Y220666D01*
X303572Y220739D01*
X303480Y220804D01*
X303386Y220860D01*
X303290Y220908D01*
X303190Y220947D01*
X303089Y220977D01*
X302984Y220999D01*
X302877Y221012D01*
X302768Y221016D01*
Y221804D01*
X302877Y221808D01*
X302984Y221821D01*
X303089Y221843D01*
X303190Y221873D01*
X303290Y221912D01*
X303386Y221960D01*
X303480Y222016D01*
X303572Y222081D01*
X303660Y222154D01*
X303747Y222237D01*
Y220583D01*
D02*
G37*
G36*
X233126Y211961D02*
X233178Y211625D01*
X233263Y211290D01*
X233383Y210957D01*
X233538Y210625D01*
X233726Y210296D01*
X233949Y209967D01*
X234206Y209640D01*
X234498Y209315D01*
X234823Y208992D01*
X229427D01*
X229752Y209315D01*
X230044Y209640D01*
X230301Y209967D01*
X230524Y210296D01*
X230712Y210625D01*
X230867Y210957D01*
X230986Y211290D01*
X231072Y211625D01*
X231124Y211961D01*
X231141Y212299D01*
X233109D01*
X233126Y211961D01*
D02*
G37*
G36*
X362239Y208035D02*
X362217Y208221D01*
X362153Y208388D01*
X362045Y208535D01*
X361893Y208663D01*
X361699Y208771D01*
X361461Y208859D01*
X361181Y208927D01*
X360857Y208977D01*
X360490Y209006D01*
X360079Y209016D01*
Y210984D01*
X360490Y210994D01*
X360857Y211023D01*
X361181Y211072D01*
X361461Y211141D01*
X361699Y211229D01*
X361893Y211337D01*
X362045Y211465D01*
X362153Y211612D01*
X362217Y211779D01*
X362239Y211965D01*
Y208035D01*
D02*
G37*
G36*
X384027Y206251D02*
X383915Y206402D01*
X383778Y206501D01*
X383615Y206545D01*
X383426Y206536D01*
X383210Y206472D01*
X382969Y206356D01*
X382701Y206185D01*
X382408Y205961D01*
X382088Y205683D01*
X381743Y205351D01*
X380707Y207099D01*
X381052Y207458D01*
X381603Y208119D01*
X381808Y208420D01*
X381966Y208703D01*
X382078Y208967D01*
X382143Y209212D01*
X382162Y209437D01*
X382134Y209644D01*
X382060Y209832D01*
X384027Y206251D01*
D02*
G37*
G36*
X244593Y203605D02*
X244612Y203376D01*
X244628Y203274D01*
X244650Y203181D01*
X244676Y203097D01*
X244706Y203021D01*
X244742Y202953D01*
X244782Y202894D01*
X244827Y202843D01*
X243173D01*
X243218Y202894D01*
X243258Y202953D01*
X243294Y203021D01*
X243324Y203097D01*
X243350Y203181D01*
X243372Y203274D01*
X243388Y203376D01*
X243400Y203486D01*
X243409Y203731D01*
X244590D01*
X244593Y203605D01*
D02*
G37*
G36*
X63495Y202438D02*
X63346Y202258D01*
X63213Y202031D01*
X63097Y201757D01*
X62997Y201437D01*
X62913Y201070D01*
X62846Y200657D01*
X62760Y199690D01*
X62742Y199137D01*
X62740Y198537D01*
X59037Y202240D01*
X59637Y202242D01*
X61157Y202346D01*
X61570Y202413D01*
X61937Y202497D01*
X62257Y202597D01*
X62531Y202713D01*
X62758Y202846D01*
X62938Y202995D01*
X63495Y202438D01*
D02*
G37*
G36*
X73495Y202438D02*
X73346Y202258D01*
X73213Y202031D01*
X73097Y201757D01*
X72997Y201437D01*
X72913Y201070D01*
X72846Y200657D01*
X72760Y199690D01*
X72742Y199137D01*
X72740Y198537D01*
X69037Y202240D01*
X69637Y202242D01*
X71157Y202346D01*
X71570Y202413D01*
X71937Y202497D01*
X72257Y202597D01*
X72531Y202713D01*
X72758Y202846D01*
X72938Y202995D01*
X73495Y202438D01*
D02*
G37*
G36*
X171764Y174325D02*
X171750Y174436D01*
X171707Y174535D01*
X171637Y174623D01*
X171538Y174699D01*
X171411Y174763D01*
X171255Y174816D01*
X171071Y174857D01*
X170859Y174886D01*
X170619Y174904D01*
X170350Y174909D01*
Y176091D01*
X170619Y176096D01*
X171071Y176143D01*
X171255Y176184D01*
X171411Y176237D01*
X171538Y176301D01*
X171637Y176377D01*
X171707Y176465D01*
X171750Y176564D01*
X171764Y176675D01*
Y174325D01*
D02*
G37*
G36*
X41096Y130474D02*
X41114Y130271D01*
X41144Y130092D01*
X41185Y129937D01*
X41238Y129806D01*
X41303Y129698D01*
X41380Y129615D01*
X41469Y129555D01*
X41569Y129519D01*
X41681Y129508D01*
X39319D01*
X39431Y129519D01*
X39531Y129555D01*
X39620Y129615D01*
X39697Y129698D01*
X39762Y129806D01*
X39815Y129937D01*
X39856Y130092D01*
X39886Y130271D01*
X39904Y130474D01*
X39909Y130701D01*
X41091D01*
X41096Y130474D01*
D02*
G37*
G36*
X27410Y120419D02*
X27473Y120287D01*
X27576Y120170D01*
X27721Y120068D01*
X27908Y119982D01*
X28136Y119912D01*
X28405Y119858D01*
X28716Y119819D01*
X29068Y119795D01*
X29462Y119787D01*
Y118213D01*
X29068Y118205D01*
X28405Y118142D01*
X28136Y118088D01*
X27908Y118018D01*
X27721Y117932D01*
X27576Y117830D01*
X27473Y117713D01*
X27410Y117581D01*
X27390Y117432D01*
Y120568D01*
X27410Y120419D01*
D02*
G37*
G36*
X37559Y117425D02*
X37543Y117575D01*
X37496Y117709D01*
X37418Y117827D01*
X37307Y117929D01*
X37166Y118016D01*
X36992Y118087D01*
X36788Y118142D01*
X36551Y118181D01*
X36284Y118205D01*
X35984Y118213D01*
Y119787D01*
X36284Y119795D01*
X36551Y119819D01*
X36788Y119858D01*
X36992Y119913D01*
X37166Y119984D01*
X37307Y120071D01*
X37418Y120173D01*
X37496Y120291D01*
X37543Y120425D01*
X37559Y120575D01*
Y117425D01*
D02*
G37*
G36*
X59280Y109330D02*
X59353Y109076D01*
X59453Y108817D01*
X59580Y108551D01*
X59735Y108280D01*
X59917Y108002D01*
X60126Y107719D01*
X60625Y107135D01*
X60915Y106834D01*
X59245Y105164D01*
X58783Y105608D01*
X57950Y106309D01*
X57577Y106566D01*
X57235Y106759D01*
X56922Y106889D01*
X56639Y106956D01*
X56386Y106961D01*
X56163Y106902D01*
X55970Y106781D01*
X59234Y109578D01*
X59280Y109330D01*
D02*
G37*
G36*
X74193Y90649D02*
X74287Y89761D01*
X74369Y89400D01*
X74475Y89095D01*
X74604Y88845D01*
X74757Y88651D01*
X74933Y88513D01*
X75133Y88429D01*
X75357Y88402D01*
X70644D01*
X70867Y88429D01*
X71067Y88513D01*
X71243Y88651D01*
X71396Y88845D01*
X71525Y89095D01*
X71631Y89400D01*
X71713Y89761D01*
X71772Y90177D01*
X71807Y90649D01*
X71819Y91176D01*
X74181D01*
X74193Y90649D01*
D02*
G37*
G54D11*
X92488Y197063D02*
X259012D01*
X283359Y221410D01*
X304590D01*
Y226410D02*
X279910D01*
X253000Y199500D01*
X100000D01*
X98269Y201231D01*
X98269D01*
X92500Y207000D01*
X67500D01*
X59000Y198500D01*
X69000D02*
X74118Y203618D01*
X85933D01*
X92488Y197063D01*
G54D15*
X40500Y127268D02*
Y149500D01*
X66500Y175500D01*
X175000D01*
X212106Y240894D02*
X221500Y231500D01*
X212106Y240894D02*
Y241394D01*
X202777Y250723D01*
X132223D01*
X110000Y228500D01*
Y243500D02*
X119500Y253000D01*
X208320D01*
X224910Y236410D01*
Y226590D01*
X244000Y207500D01*
Y202000D01*
G54D19*
X157771Y238165D02*
X183595D01*
X188260Y233500D01*
X202500D01*
X218000Y218000D01*
Y204000D01*
X232125Y206125D02*
Y212375D01*
X200500Y244000D01*
X161000D01*
X157000Y248000D01*
X234000Y208000D02*
X234500D01*
X235000Y221500D02*
X246500Y233000D01*
X336000D01*
X359000Y210000D01*
X365000D01*
X379000Y204000D02*
X385000Y210000D01*
X379000Y204000D02*
X331000D01*
X323500Y211500D01*
X354932Y236433D02*
X358500Y240000D01*
X370000D01*
X386362Y236000D02*
X404500D01*
Y246000D02*
X381000D01*
X365500Y261500D01*
X322500D01*
Y256500D02*
X365862D01*
X386362Y236000D01*
X362500Y250500D02*
X353432Y241432D01*
X322432D01*
Y236433D02*
X354932D01*
G54D26*
X40500Y119000D02*
D03*
Y127268D02*
D03*
G54D29*
X145000Y47000D02*
D03*
X152500D02*
D03*
X160177Y46866D02*
D03*
X167677D02*
D03*
X175177D02*
D03*
X180000Y136000D02*
D03*
X172000D02*
D03*
X164000D02*
D03*
X153000Y135500D02*
D03*
X145500D02*
D03*
G54D44*
X73000Y76000D02*
D03*
Y86236D02*
D03*
X175000Y165264D02*
D03*
Y175500D02*
D03*
G54D45*
X73000Y65764D02*
D03*
X175000Y185736D02*
D03*
G54D53*
X177000Y275500D02*
D03*
G54D57*
X404500Y256000D02*
D03*
G54D58*
X404500Y226000D02*
D03*
Y236000D02*
D03*
Y246000D02*
D03*
G54D66*
X136000Y13000D02*
D03*
X146000D02*
D03*
X156000D02*
D03*
G54D67*
X106000Y76000D02*
D03*
X125685D02*
D03*
G54D69*
X78100Y49500D02*
D03*
G54D70*
X86000Y49500D02*
D03*
G54D72*
X317000Y76500D02*
X317030Y76530D01*
X362590D01*
G54D73*
X24500Y119000D02*
X40500D01*
G54D74*
X70750Y86236D02*
X71689D01*
X73000Y87547D01*
Y93079D01*
X57079Y109000D01*
X55760D01*
X55493D01*
G54D75*
X317000Y137500D02*
Y158500D01*
X327000Y168500D01*
X335500D01*
G54D81*
X12000Y119000D02*
D03*
X73500Y123000D02*
D03*
X39000Y165000D02*
D03*
X112500Y208000D02*
D03*
X121000Y222500D02*
D03*
X110000Y228500D02*
D03*
Y243500D02*
D03*
X192500Y191500D02*
D03*
X232125Y206125D02*
D03*
X296500Y182500D02*
D03*
X329500Y221000D02*
D03*
X370000Y240000D02*
D03*
X126500Y36000D02*
D03*
X91500Y14500D02*
D03*
G54D82*
X152500Y96598D02*
D03*
X151906Y184000D02*
D03*
G54D83*
X96000Y96598D02*
D03*
Y184000D02*
D03*
G54D84*
X32500Y13500D02*
D03*
G54D85*
X22658Y13500D02*
D03*
G54D86*
X24500Y59000D02*
D03*
Y69000D02*
D03*
Y79000D02*
D03*
Y89000D02*
D03*
Y99000D02*
D03*
Y109000D02*
D03*
Y119000D02*
D03*
X55760Y69000D02*
D03*
Y59000D02*
D03*
Y79000D02*
D03*
Y89000D02*
D03*
Y99000D02*
D03*
Y109000D02*
D03*
Y119000D02*
D03*
Y129000D02*
D03*
G54D87*
X24500Y129000D02*
D03*
G54D88*
X59000Y198500D02*
D03*
X69000D02*
D03*
X79000D02*
D03*
X49000D02*
D03*
X39000D02*
D03*
X29000D02*
D03*
X89000Y284602D02*
D03*
X79000D02*
D03*
X69000D02*
D03*
X59000D02*
D03*
X49000D02*
D03*
X39000D02*
D03*
G54D89*
X499500Y25000D02*
D03*
X490315Y256000D02*
D03*
G54D90*
X479815Y25000D02*
D03*
X510000Y256000D02*
D03*
G54D91*
X177000Y257784D02*
D03*
X202591D02*
D03*
Y275500D02*
D03*
G54D92*
X131500Y263500D02*
D03*
X373500Y269000D02*
D03*
G54D93*
X145280Y263500D02*
D03*
X387280Y269000D02*
D03*
G54D94*
X195267Y47396D02*
D03*
Y136372D02*
D03*
X362590Y107238D02*
D03*
G54D95*
X362590Y76530D02*
D03*
G54D96*
X465122Y124516D02*
D03*
X533622D02*
D03*
G54D97*
X441500Y132390D02*
D03*
X510000D02*
D03*
G54D98*
X417878Y76484D02*
D03*
X465122D02*
D03*
X486378D02*
D03*
X533622D02*
D03*
X486378Y124516D02*
D03*
X417878D02*
D03*
G54D99*
X335500Y198500D02*
D03*
X345500D02*
D03*
X355500D02*
D03*
Y168500D02*
D03*
X345500D02*
D03*
G54D100*
X335500Y168500D02*
D03*
G54D101*
X12000Y65500D02*
D03*
X51000Y16000D02*
D03*
X51500Y12000D02*
D03*
X55000D02*
D03*
X59000D02*
D03*
Y16000D02*
D03*
X55000D02*
D03*
X207000Y159500D02*
D03*
X219500Y165000D02*
D03*
X239500Y162500D02*
D03*
X277760Y183760D02*
D03*
X282180Y199000D02*
D03*
X304590Y221410D02*
D03*
Y226410D02*
D03*
X323500Y211500D02*
D03*
X345366Y230634D02*
D03*
X361135Y221000D02*
D03*
X369866Y226500D02*
D03*
X393634Y197866D02*
D03*
X410756Y196256D02*
D03*
X438390Y192000D02*
D03*
X437500Y178500D02*
D03*
X435000Y170500D02*
D03*
X441500Y166000D02*
D03*
Y156000D02*
D03*
Y148000D02*
D03*
X443000Y172500D02*
D03*
X453500Y191000D02*
D03*
X459000Y192000D02*
D03*
X465000Y190500D02*
D03*
X470500Y196000D02*
D03*
X476000Y202000D02*
D03*
X467500Y209000D02*
D03*
X509500Y184500D02*
D03*
Y172000D02*
D03*
Y159500D02*
D03*
Y148000D02*
D03*
X510000Y195000D02*
D03*
Y205500D02*
D03*
Y215500D02*
D03*
Y225000D02*
D03*
Y244000D02*
D03*
X464000Y205000D02*
D03*
X459000Y200500D02*
D03*
X452500Y197500D02*
D03*
X444500D02*
D03*
X438000D02*
D03*
X410740Y158760D02*
D03*
X403260Y158366D02*
D03*
X322432Y236433D02*
D03*
Y241432D02*
D03*
X362500Y250500D02*
D03*
X321500Y276500D02*
D03*
X322500Y261500D02*
D03*
Y256500D02*
D03*
X338000Y250500D02*
D03*
X282000Y251500D02*
D03*
X275666Y246023D02*
D03*
X273000Y255000D02*
D03*
X272980Y237020D02*
D03*
X281980Y240490D02*
D03*
X264000Y246020D02*
D03*
Y251530D02*
D03*
Y240510D02*
D03*
X230740Y253740D02*
D03*
X224910Y236410D02*
D03*
X235000Y221500D02*
D03*
X244000Y202000D02*
D03*
X221500Y231500D02*
D03*
X200623Y228623D02*
D03*
X218000Y204000D02*
D03*
X192500Y218500D02*
D03*
X187240Y220293D02*
D03*
X181000Y221500D02*
D03*
X178000D02*
D03*
Y217000D02*
D03*
X181000D02*
D03*
Y212500D02*
D03*
X178000D02*
D03*
X183799Y204514D02*
D03*
X192507Y208554D02*
D03*
X161500Y225000D02*
D03*
X157771Y238165D02*
D03*
X187623Y257377D02*
D03*
X223260Y253260D02*
D03*
Y279740D02*
D03*
X250090Y276410D02*
D03*
X157000Y248000D02*
D03*
X144000Y236500D02*
D03*
X129827Y228673D02*
D03*
X126464Y206500D02*
D03*
X123418Y180929D02*
D03*
X119918D02*
D03*
X116400Y180956D02*
D03*
X113222Y180917D02*
D03*
X109722D02*
D03*
X106204Y180944D02*
D03*
X102704D02*
D03*
X50244Y146303D02*
D03*
X187634Y168366D02*
D03*
X435500Y57500D02*
D03*
X439000Y53500D02*
D03*
X447500Y45000D02*
D03*
X451500Y40000D02*
D03*
X456000Y36000D02*
D03*
X461500Y29500D02*
D03*
X466000Y31500D02*
D03*
X501500Y50500D02*
D03*
Y58000D02*
D03*
X493500Y69000D02*
D03*
X443500Y49500D02*
D03*
G54D134*
X317000Y76500D02*
D03*
Y137500D02*
D03*
G54D135*
X41000Y13750D02*
D03*
G54D136*
X365000Y210000D02*
D03*
X375000D02*
D03*
X385000D02*
D03*
M02*
