G04*
G04 #@! TF.GenerationSoftware,Altium Limited,Altium Designer,24.5.2 (23)*
G04*
G04 Layer_Color=128*
%FSLAX25Y25*%
%MOIN*%
G70*
G04*
G04 #@! TF.SameCoordinates,B8CE7D74-02EB-4A57-BDCD-CCA5CBEBB7DD*
G04*
G04*
G04 #@! TF.FilePolarity,Positive*
G04*
G01*
G75*
%ADD142C,0.00200*%
G54D142*
X30516Y24000D02*
X32484D01*
X31500Y23016D02*
Y24984D01*
X36421D02*
Y23016D01*
X35437Y24000D02*
X37405D01*
X53000Y14500D02*
X56000D01*
X63630D02*
X66630D01*
X65130Y13000D02*
Y16000D01*
X89728Y14500D02*
X93272D01*
X91500Y12728D02*
Y16272D01*
X124728Y36000D02*
X128272D01*
X143500Y47000D02*
X146500D01*
X145000Y45500D02*
Y48500D01*
X151000Y47000D02*
X154000D01*
X152500Y45500D02*
Y48500D01*
X160177Y48366D02*
Y45366D01*
X158677Y46866D02*
X161677D01*
X166177D02*
X169177D01*
X167677Y45366D02*
Y48366D01*
X175177D02*
Y45366D01*
X173677Y46866D02*
X176677D01*
X192708Y47396D02*
X197827D01*
X195267Y44837D02*
Y49955D01*
X157900Y13000D02*
X154100D01*
X156000Y11100D02*
Y14900D01*
X147900Y13000D02*
X144100D01*
X146000Y11100D02*
Y14900D01*
X137900Y13000D02*
X134100D01*
X136000Y11100D02*
Y14900D01*
X126500Y34228D02*
Y37772D01*
X87500Y49500D02*
X84500D01*
X86000Y51000D02*
Y48000D01*
X79600Y49500D02*
X76600D01*
X78100Y51000D02*
Y48000D01*
X56050Y59000D02*
X52950D01*
X54500Y57450D02*
Y60550D01*
Y67450D02*
Y70550D01*
X52950Y69000D02*
X56050D01*
X84136Y88000D02*
X87336D01*
X85736Y86400D02*
Y89600D01*
X104300Y76000D02*
X107700D01*
X106000Y74300D02*
Y77700D01*
X123985Y76000D02*
X127385D01*
X125685Y74300D02*
Y77700D01*
X98232Y117677D02*
Y118858D01*
X97642Y118268D02*
X98823D01*
X106846Y141579D02*
X110783D01*
X108815Y139610D02*
Y143547D01*
X116846Y141579D02*
X120783D01*
X118815Y139610D02*
Y143547D01*
X144000Y135500D02*
X147000D01*
X145500Y134000D02*
Y137000D01*
X151500Y135500D02*
X154500D01*
X153000Y134000D02*
Y137000D01*
X158854Y135709D02*
X161854D01*
X160354Y134209D02*
Y137209D01*
X166354Y135709D02*
X169354D01*
X167854Y134209D02*
Y137209D01*
X173854Y135709D02*
X176854D01*
X192708Y136372D02*
X197827D01*
X195267Y133813D02*
Y138931D01*
X175354Y137209D02*
Y134209D01*
X128083Y166799D02*
Y167980D01*
X127492Y167390D02*
X128673D01*
X162664Y171500D02*
X165864D01*
X164264Y169900D02*
Y173100D01*
X172900Y171500D02*
X176100D01*
X183136D02*
X186336D01*
X184736Y169900D02*
Y173100D01*
X197228Y193000D02*
X200772D01*
X220882Y191740D02*
X222063D01*
X221472Y191149D02*
Y192331D01*
X228228Y206500D02*
X231772D01*
X230000Y204728D02*
Y208272D01*
X224500Y210910D02*
Y212090D01*
X225091Y211500D02*
X223909D01*
X234409Y221500D02*
X235591D01*
X235000Y220910D02*
Y222091D01*
X227410Y230820D02*
Y232001D01*
X226819Y231410D02*
X228000D01*
X224910Y235820D02*
Y237001D01*
X224319Y236410D02*
X225500D01*
X263409Y240510D02*
X264591D01*
X264000Y239919D02*
Y241101D01*
X272389Y237020D02*
X273570D01*
X272980Y236429D02*
Y237611D01*
X281389Y240490D02*
X282571D01*
X281980Y239899D02*
Y241080D01*
X303999Y226410D02*
X305181D01*
X304590Y225819D02*
Y227001D01*
Y222001D02*
Y220819D01*
X303999Y221410D02*
X305181D01*
X322909Y211500D02*
X324091D01*
X323500Y210910D02*
Y212090D01*
X333728Y198500D02*
X337272D01*
X335500Y196728D02*
Y200272D01*
X343728Y198500D02*
X347272D01*
X345500Y196728D02*
Y200272D01*
X353728Y198500D02*
X357272D01*
X355500Y196728D02*
Y200272D01*
X363050Y210000D02*
X366950D01*
X365000Y208050D02*
Y211950D01*
X355500Y170272D02*
Y166728D01*
X353728Y168500D02*
X357272D01*
X347272D02*
X343728D01*
X337272D02*
X333728D01*
X335500Y166728D02*
Y170272D01*
X345500Y166728D02*
Y170272D01*
X383728Y161000D02*
X387272D01*
X385500Y159228D02*
Y162772D01*
X415279Y124516D02*
X420476D01*
X417878Y121917D02*
Y127114D01*
X438961Y132390D02*
X444039D01*
X441500Y129850D02*
Y134929D01*
X441910Y141500D02*
X443090D01*
X442500Y140909D02*
Y142091D01*
X462524Y124516D02*
X467721D01*
X483779D02*
X488976D01*
X486378Y121917D02*
Y127114D01*
X507461Y132390D02*
X512539D01*
X510000Y129850D02*
Y134929D01*
X531024Y124516D02*
X536221D01*
X533622Y121917D02*
Y127114D01*
X509500Y147409D02*
Y148591D01*
X508910Y148000D02*
X510091D01*
X509500Y158909D02*
Y160091D01*
X508910Y159500D02*
X510091D01*
X509500Y171409D02*
Y172591D01*
X508910Y172000D02*
X510091D01*
X509500Y183909D02*
Y185091D01*
X508910Y184500D02*
X510091D01*
X510000Y194410D02*
Y195591D01*
X509410Y195000D02*
X510591D01*
X510000Y204909D02*
Y206091D01*
X509410Y205500D02*
X510591D01*
X510000Y214910D02*
Y216091D01*
X509410Y215500D02*
X510591D01*
X510000Y224410D02*
Y225591D01*
X509410Y225000D02*
X510591D01*
X510000Y234409D02*
Y235591D01*
X509410Y235000D02*
X510591D01*
X510000Y243409D02*
Y244591D01*
X509410Y244000D02*
X510591D01*
X510000Y253244D02*
Y258756D01*
X507244Y256000D02*
X512756D01*
X493071D02*
X487559D01*
X490315Y253244D02*
Y258756D01*
X476590Y202000D02*
X475410D01*
X476000Y201409D02*
Y202591D01*
X474090Y199500D02*
X472909D01*
X473500Y198909D02*
Y200091D01*
X471091Y196000D02*
X469909D01*
X470500Y195409D02*
Y196591D01*
X468090Y193500D02*
X466910D01*
X467500Y194091D02*
Y192909D01*
X465590Y190500D02*
X464409D01*
X465000Y189909D02*
Y191091D01*
X459000Y191409D02*
Y192591D01*
X458410Y192000D02*
X459590D01*
X454090Y191000D02*
X452910D01*
X453500Y190409D02*
Y191591D01*
X442091Y174500D02*
X440909D01*
X437500Y177909D02*
Y179091D01*
X436909Y178500D02*
X438091D01*
X435591Y170500D02*
X434410D01*
X435000Y169909D02*
Y171091D01*
X437800Y192000D02*
X438981D01*
X438390Y191409D02*
Y192591D01*
X438409Y166500D02*
X439591D01*
X439000Y165910D02*
Y167091D01*
X439500Y162091D02*
Y160909D01*
X438909Y161500D02*
X440091D01*
X440086Y153891D02*
X438905D01*
X439495Y153300D02*
Y154481D01*
X440000Y147091D02*
Y145909D01*
X439409Y146500D02*
X440590D01*
X465122Y127114D02*
Y121917D01*
X442610Y150225D02*
Y151406D01*
X442019Y150816D02*
X443200D01*
X443500Y156910D02*
Y158091D01*
X442909Y157500D02*
X444091D01*
X441500Y173909D02*
Y175091D01*
X465590Y206500D02*
X464409D01*
X465000Y205909D02*
Y207090D01*
X462591Y203000D02*
X461410D01*
X462000Y202409D02*
Y203591D01*
X459590Y200500D02*
X458410D01*
X459000Y199909D02*
Y201091D01*
X457091Y197500D02*
X455909D01*
X456500Y196909D02*
Y198091D01*
X453090Y197500D02*
X451909D01*
X452500Y196909D02*
Y198091D01*
X449090Y197500D02*
X447909D01*
X448500Y196909D02*
Y198091D01*
X445090Y197500D02*
X443910D01*
X444500Y196909D02*
Y198091D01*
X466910Y209000D02*
X468090D01*
X467500Y208410D02*
Y209591D01*
X441090Y197500D02*
X439910D01*
X440500Y196909D02*
Y198091D01*
X437090Y197500D02*
X435910D01*
X436500Y196909D02*
Y198091D01*
X404500Y223992D02*
Y228008D01*
X402492Y226000D02*
X406508D01*
X404500Y233992D02*
Y238008D01*
X402492Y236000D02*
X406508D01*
X410165Y196256D02*
X411346D01*
X410756Y195665D02*
Y196846D01*
X394225Y188259D02*
X393044D01*
X393634Y187669D02*
Y188850D01*
X402669Y161740D02*
X403850D01*
X403260Y161150D02*
Y162331D01*
X410150Y158760D02*
X411331D01*
X410740Y158169D02*
Y159350D01*
X385000Y208050D02*
Y211950D01*
X383050Y210000D02*
X386950D01*
X376950D02*
X373050D01*
X375000Y208050D02*
Y211950D01*
X370456Y198000D02*
X369275D01*
X369866Y197410D02*
Y198591D01*
X370000Y238229D02*
Y241772D01*
X371772Y240000D02*
X368229D01*
X361725Y221000D02*
X360544D01*
X361135Y220409D02*
Y221590D01*
X345366Y230044D02*
Y231225D01*
X344775Y230634D02*
X345956D01*
X361909Y250500D02*
X363090D01*
X362500Y249909D02*
Y251090D01*
X371138Y269000D02*
X375862D01*
X373500Y266638D02*
Y271362D01*
X384917Y269000D02*
X389642D01*
X387280Y266638D02*
Y271362D01*
X402492Y256000D02*
X406508D01*
X404500Y253992D02*
Y258008D01*
Y248008D02*
Y243992D01*
X402492Y246000D02*
X406508D01*
X321500Y275909D02*
Y277091D01*
X320909Y276500D02*
X322091D01*
X322500Y262090D02*
Y260910D01*
X321909Y261500D02*
X323091D01*
Y256500D02*
X321909D01*
X322500Y255909D02*
Y257090D01*
X322432Y242023D02*
Y240842D01*
X321842Y241432D02*
X323023D01*
Y236433D02*
X321842D01*
X322432Y235842D02*
Y237023D01*
X332728Y221000D02*
X336272D01*
X334500Y219228D02*
Y222772D01*
X337409Y250500D02*
X338590D01*
X338000Y249909D02*
Y251090D01*
X282591Y251500D02*
X281409D01*
X282000Y250909D02*
Y252091D01*
X273000Y254410D02*
Y255591D01*
X272409Y255000D02*
X273590D01*
X275076Y246023D02*
X276257D01*
X275666Y245432D02*
Y246614D01*
X250090Y275819D02*
Y277001D01*
X249499Y276410D02*
X250680D01*
X263409Y251530D02*
X264591D01*
X264000Y250939D02*
Y252121D01*
Y246611D02*
Y245429D01*
X263409Y246020D02*
X264591D01*
X230740Y253150D02*
Y254331D01*
X230150Y253740D02*
X231331D01*
X215020Y270910D02*
Y272091D01*
X214429Y271500D02*
X215610D01*
X202591Y273550D02*
Y277450D01*
X200641Y275500D02*
X204541D01*
Y257784D02*
X200641D01*
X202591Y255834D02*
Y259734D01*
X222669Y253260D02*
X223850D01*
X223260Y252669D02*
Y253850D01*
X177000Y273550D02*
Y277450D01*
X178950Y275500D02*
X175050D01*
Y257784D02*
X178950D01*
X177000Y255834D02*
Y259734D01*
X193863Y248200D02*
X195044D01*
X194454Y247609D02*
Y248791D01*
X194123Y238755D02*
Y237574D01*
X193532Y238165D02*
X194713D01*
X194713Y228350D02*
X193532D01*
X194123Y227760D02*
Y228941D01*
X194105Y219074D02*
Y217893D01*
X193514Y218484D02*
X194695D01*
X187240Y221410D02*
Y222590D01*
X186650Y222000D02*
X187831D01*
X181590Y221500D02*
X180409D01*
X181000Y220910D02*
Y222091D01*
X178591Y221500D02*
X177409D01*
X178000Y220910D02*
Y222091D01*
Y217590D02*
Y216409D01*
X177409Y217000D02*
X178591D01*
X180409D02*
X181590D01*
X181000Y216409D02*
Y217590D01*
Y213090D02*
Y211910D01*
X180409Y212500D02*
X181590D01*
X178591D02*
X177409D01*
X178000Y211910D02*
Y213090D01*
X176737Y196835D02*
X175556D01*
X174500Y173100D02*
Y169900D01*
X199000Y191228D02*
Y194772D01*
X194112Y207947D02*
Y209128D01*
X193522Y208537D02*
X194703D01*
X176147Y197425D02*
Y196244D01*
X164500Y237580D02*
Y238761D01*
X163909Y238170D02*
X165091D01*
X164500Y247573D02*
Y248755D01*
X163909Y248164D02*
X165091D01*
X145280Y265862D02*
Y261138D01*
X142917Y263500D02*
X147642D01*
X133862D02*
X129138D01*
X131500Y261138D02*
Y265862D01*
X111772Y243500D02*
X108228D01*
X110000Y241728D02*
Y245272D01*
Y230272D02*
Y226728D01*
X108228Y228500D02*
X111772D01*
X122921Y221193D02*
X126464D01*
X124693Y219421D02*
Y222965D01*
X134142Y214768D02*
X135323D01*
X134732Y214177D02*
Y215358D01*
X141181Y185445D02*
X144724D01*
X142953Y183674D02*
Y187217D01*
X121783Y185579D02*
X117846D01*
X119815Y183610D02*
Y187547D01*
X111783Y185579D02*
X107846D01*
X109815Y183610D02*
Y187547D01*
X105040Y172213D02*
X103859D01*
X104449Y171622D02*
Y172803D01*
X96166Y176547D02*
Y177728D01*
X95575Y177138D02*
X96756D01*
X80772Y193000D02*
X77228D01*
X79000Y191228D02*
Y194772D01*
X69000D02*
Y191228D01*
X67228Y193000D02*
X70772D01*
X60772D02*
X57228D01*
X59000Y191228D02*
Y194772D01*
X60011Y169094D02*
X61192D01*
X60601Y169685D02*
Y168504D01*
X63529Y169067D02*
X64710D01*
X64119Y168476D02*
Y169657D01*
X66707Y169106D02*
X67888D01*
X67297Y169697D02*
Y168516D01*
X70797D02*
Y169697D01*
X70207Y169106D02*
X71388D01*
X73724Y169079D02*
X74906D01*
X74315Y169669D02*
Y168488D01*
X77815D02*
Y169669D01*
X77224Y169079D02*
X78405D01*
X57692Y169094D02*
X56511D01*
X57101Y169685D02*
Y168504D01*
X74522Y153293D02*
X75703D01*
X75112Y152702D02*
Y153883D01*
X56050Y129000D02*
X52950D01*
X54500Y127450D02*
Y130550D01*
X42803Y137327D02*
Y138508D01*
X42212Y137917D02*
X43393D01*
X52950Y119000D02*
X56050D01*
Y109000D02*
X52950D01*
X54500Y107450D02*
Y110550D01*
Y117450D02*
Y120550D01*
Y100550D02*
Y97450D01*
X52950Y99000D02*
X56050D01*
Y89000D02*
X52950D01*
X54500Y87450D02*
Y90550D01*
Y80550D02*
Y77450D01*
X52950Y79000D02*
X56050D01*
X63664Y88000D02*
X66864D01*
X65264Y86400D02*
Y89600D01*
X73900Y88000D02*
X77100D01*
X75500Y86400D02*
Y89600D01*
X48090Y30500D02*
X46909D01*
X47500Y29909D02*
Y31091D01*
Y27091D02*
Y25909D01*
X46909Y26500D02*
X48090D01*
X44091D02*
X42909D01*
X43500Y25909D02*
Y27091D01*
Y29909D02*
Y31091D01*
X42909Y30500D02*
X44091D01*
X40091D02*
X38909D01*
X39500Y29909D02*
Y31091D01*
X40000Y27091D02*
Y25909D01*
X39409Y26500D02*
X40591D01*
X54500Y16000D02*
Y13000D01*
X24500Y57450D02*
Y60550D01*
X22950Y59000D02*
X26050D01*
X24500Y67450D02*
Y70550D01*
X22950Y69000D02*
X26050D01*
X24500Y77450D02*
Y80550D01*
X22950Y79000D02*
X26050D01*
X24500Y87450D02*
Y90550D01*
X22950Y89000D02*
X26050D01*
X12591Y76500D02*
X11409D01*
X12000Y75910D02*
Y77091D01*
X22950Y99000D02*
X26050D01*
X24500Y97450D02*
Y100550D01*
Y107450D02*
Y110550D01*
X22950Y109000D02*
X26050D01*
X24500Y117450D02*
Y120550D01*
X22950Y119000D02*
X26050D01*
X13772D02*
X10228D01*
X12000Y117228D02*
Y120772D01*
X22950Y129000D02*
X26050D01*
X24500Y127450D02*
Y130550D01*
X37228Y165000D02*
X40772D01*
X39000Y163228D02*
Y166772D01*
Y191228D02*
Y194772D01*
X49000D02*
Y191228D01*
X47228Y193000D02*
X50772D01*
X40772D02*
X37228D01*
X29000Y194772D02*
Y191228D01*
X27228Y193000D02*
X30772D01*
X80753Y131579D02*
X84296D01*
X82525Y129807D02*
Y133350D01*
X101409Y127500D02*
X102591D01*
X102000Y126909D02*
Y128091D01*
X99315Y148679D02*
Y149479D01*
X98915Y149079D02*
X99715D01*
X95384D02*
X94584D01*
X94984Y148679D02*
Y149479D01*
X129236Y228673D02*
X130417D01*
X129827Y228083D02*
Y229264D01*
X143409Y235000D02*
X144590D01*
X144000Y234409D02*
Y235591D01*
X148943Y224967D02*
X150124D01*
X149533Y224376D02*
Y225557D01*
X89000Y277331D02*
Y280874D01*
X87228Y279102D02*
X90772D01*
X80772D02*
X77228D01*
X79000Y277331D02*
Y280874D01*
X70772Y279102D02*
X67228D01*
X69000Y277331D02*
Y280874D01*
X60772Y279102D02*
X57228D01*
X59000Y277331D02*
Y280874D01*
X50772Y279102D02*
X47228D01*
X49000Y277331D02*
Y280874D01*
X40772Y279102D02*
X37228D01*
X39000Y277331D02*
Y280874D01*
X254972Y178240D02*
X256153D01*
X255563Y177649D02*
Y178831D01*
X360031Y76530D02*
X365149D01*
X362590Y73971D02*
Y79089D01*
Y104679D02*
Y109797D01*
X360031Y107238D02*
X365149D01*
X415279Y76484D02*
X420476D01*
X417878Y73886D02*
Y79083D01*
X421487Y70781D02*
X422668D01*
X422077Y70191D02*
Y71372D01*
X425910Y70500D02*
X427091D01*
X426500Y69910D02*
Y71091D01*
Y66590D02*
Y65409D01*
X425910Y66000D02*
X427091D01*
X430409D02*
X431591D01*
X431000Y65409D02*
Y66590D01*
Y62090D02*
Y60909D01*
X430409Y61500D02*
X431591D01*
X434909Y62000D02*
X436091D01*
X435500Y61409D02*
Y62590D01*
Y58091D02*
Y56910D01*
X434909Y57500D02*
X436091D01*
X438410D02*
X439591D01*
X439000Y56910D02*
Y58091D01*
Y54090D02*
Y52909D01*
X438410Y53500D02*
X439591D01*
X446910Y45000D02*
X448091D01*
X447500Y44409D02*
Y45591D01*
X450910Y45000D02*
X452091D01*
X451500Y44409D02*
Y45591D01*
Y40591D02*
Y39409D01*
X450910Y40000D02*
X452091D01*
X455409Y41000D02*
X456591D01*
X456000Y40409D02*
Y41591D01*
Y36591D02*
Y35409D01*
X455409Y36000D02*
X456591D01*
X460910Y34500D02*
X462090D01*
X461500Y33909D02*
Y35091D01*
Y30091D02*
Y28909D01*
X460910Y29500D02*
X462090D01*
X479815Y22244D02*
Y27756D01*
X477059Y25000D02*
X482571D01*
X472000Y26409D02*
Y27591D01*
X471410Y27000D02*
X472590D01*
X467591Y25500D02*
X466409D01*
X467000Y24909D02*
Y26091D01*
X466000Y30909D02*
Y32091D01*
X465410Y31500D02*
X466590D01*
X499500Y22244D02*
Y27756D01*
X496744Y25000D02*
X502256D01*
X501000Y33409D02*
Y34591D01*
X500410Y34000D02*
X501590D01*
X497644Y37338D02*
Y38519D01*
X497053Y37928D02*
X498234D01*
X500910Y42000D02*
X502091D01*
X501500Y41409D02*
Y42591D01*
X498000Y45409D02*
Y46591D01*
X497409Y46000D02*
X498591D01*
X500910Y50500D02*
X502091D01*
X501500Y49909D02*
Y51091D01*
X498000Y52909D02*
Y54090D01*
X497409Y53500D02*
X498591D01*
X500910Y58000D02*
X502091D01*
X501500Y57410D02*
Y58591D01*
X497500Y60909D02*
Y62090D01*
X496910Y61500D02*
X498091D01*
X498500Y66909D02*
Y68090D01*
X497909Y67500D02*
X499090D01*
X494591Y67000D02*
X493409D01*
X494000Y66409D02*
Y67590D01*
X531024Y76484D02*
X536221D01*
X533622Y73886D02*
Y79083D01*
X488976Y76484D02*
X483779D01*
X486378Y73886D02*
Y79083D01*
X467721Y76484D02*
X462524D01*
X465122Y73886D02*
Y79083D01*
X444091Y54000D02*
X442909D01*
X443500Y53409D02*
Y54590D01*
Y50091D02*
Y48909D01*
X442909Y49500D02*
X444091D01*
X446910D02*
X448091D01*
X447500Y48909D02*
Y50091D01*
M02*
