G04*
G04 #@! TF.GenerationSoftware,Altium Limited,Altium Designer,24.5.2 (23)*
G04*
G04 Layer_Physical_Order=4*
G04 Layer_Color=16711680*
%FSLAX25Y25*%
%MOIN*%
G70*
G04*
G04 #@! TF.SameCoordinates,965667D9-A914-4C8D-9D07-D793B6B6F1C8*
G04*
G04*
G04 #@! TF.FilePolarity,Positive*
G04*
G01*
G75*
%ADD11C,0.00787*%
%ADD15C,0.01181*%
%ADD18C,0.01968*%
%ADD21C,0.06000*%
%ADD22R,0.04528X0.05906*%
%ADD43O,0.07087X0.05200*%
%ADD44R,0.07087X0.05200*%
%ADD52R,0.05900X0.05900*%
%ADD57R,0.06181X0.06181*%
%ADD58C,0.06181*%
%ADD66C,0.05800*%
%ADD67C,0.05400*%
%ADD69R,0.05000X0.05000*%
%ADD70C,0.05000*%
%ADD72C,0.02362*%
%ADD73C,0.01575*%
%ADD74C,0.07874*%
%ADD75C,0.03937*%
%ADD76R,0.15000X0.10500*%
%ADD81C,0.09843*%
%ADD82R,0.09843X0.09843*%
%ADD83R,0.06693X0.06693*%
%ADD84C,0.06693*%
%ADD85O,0.07087X0.04449*%
%ADD86R,0.07087X0.04449*%
%ADD87C,0.07480*%
%ADD88C,0.08268*%
%ADD89R,0.08268X0.08268*%
%ADD90C,0.05900*%
%ADD91C,0.07874*%
%ADD92R,0.07087X0.09843*%
%ADD93O,0.07087X0.09843*%
%ADD94C,0.07677*%
%ADD95R,0.07677X0.07677*%
%ADD96R,0.07795X0.07795*%
%ADD97C,0.07618*%
%ADD98C,0.07795*%
%ADD99C,0.05512*%
%ADD100R,0.05512X0.05512*%
%ADD101C,0.02362*%
%ADD134R,0.13400X0.17700*%
%ADD135O,0.05900X0.07874*%
G36*
X414500Y156500D02*
X415500Y155500D01*
X406000Y146000D01*
X392000D01*
X357000Y181000D01*
Y181500D01*
X308500D01*
X304500Y177500D01*
X261500D01*
Y173000D01*
X277500Y157000D01*
Y2780D01*
X124271D01*
X124165Y3180D01*
X126155Y4399D01*
X128014Y5987D01*
X129601Y7845D01*
X130878Y9929D01*
X131813Y12187D01*
X131913Y12601D01*
X132313Y12554D01*
Y12515D01*
X132564Y11577D01*
X133049Y10736D01*
X133736Y10049D01*
X134577Y9564D01*
X135514Y9313D01*
X136485D01*
X137423Y9564D01*
X138264Y10049D01*
X138951Y10736D01*
X139436Y11577D01*
X139687Y12515D01*
Y13486D01*
X139436Y14423D01*
X138951Y15264D01*
X138264Y15951D01*
X137423Y16436D01*
X136485Y16687D01*
X135514D01*
X134577Y16436D01*
X133736Y15951D01*
X133049Y15264D01*
X132807Y14844D01*
X132415Y14966D01*
X132576Y17000D01*
X132384Y19436D01*
X131813Y21813D01*
X130878Y24071D01*
X129601Y26155D01*
X128014Y28014D01*
X126155Y29601D01*
X124071Y30878D01*
X121813Y31813D01*
X119437Y32384D01*
X117000Y32576D01*
X114564Y32384D01*
X112187Y31813D01*
X109929Y30878D01*
X107845Y29601D01*
X105986Y28014D01*
X104399Y26155D01*
X103122Y24071D01*
X102187Y21813D01*
X101616Y19436D01*
X101425Y17000D01*
X101616Y14563D01*
X102187Y12187D01*
X103122Y9929D01*
X104399Y7845D01*
X105986Y5987D01*
X107845Y4399D01*
X109835Y3180D01*
X109729Y2780D01*
X2780D01*
X2780Y305220D01*
X234500D01*
Y281500D01*
X242647D01*
X242708Y281193D01*
X242882Y280932D01*
X243143Y280758D01*
X243450Y280697D01*
X314350D01*
X314657Y280758D01*
X314918Y280932D01*
X315092Y281193D01*
X315153Y281500D01*
X323000D01*
Y305220D01*
X414500D01*
Y156500D01*
D02*
G37*
G36*
X332756Y165756D02*
X332717Y165903D01*
X332599Y166035D01*
X332402Y166151D01*
X332126Y166252D01*
X331772Y166338D01*
X331339Y166407D01*
X330827Y166462D01*
X329567Y166524D01*
X328819Y166532D01*
Y170468D01*
X329567Y170476D01*
X331339Y170593D01*
X331772Y170662D01*
X332126Y170748D01*
X332402Y170849D01*
X332599Y170965D01*
X332717Y171097D01*
X332756Y171244D01*
Y165756D01*
D02*
G37*
G36*
X318988Y149525D02*
X319047Y148853D01*
X319146Y148261D01*
X319284Y147748D01*
X319461Y147313D01*
X319677Y146958D01*
X319933Y146681D01*
X320228Y146484D01*
X320563Y146365D01*
X320937Y146326D01*
X313063D01*
X313437Y146365D01*
X313772Y146484D01*
X314067Y146681D01*
X314323Y146958D01*
X314539Y147313D01*
X314717Y147748D01*
X314854Y148261D01*
X314953Y148853D01*
X315012Y149525D01*
X315032Y150275D01*
X318969D01*
X318988Y149525D01*
D02*
G37*
G36*
X323767Y83656D02*
X324003Y82986D01*
X324397Y82396D01*
X324948Y81884D01*
X325657Y81451D01*
X326523Y81097D01*
X327546Y80821D01*
X328727Y80624D01*
X330066Y80506D01*
X331562Y80467D01*
Y72593D01*
X330066Y72553D01*
X328727Y72435D01*
X327546Y72238D01*
X326523Y71963D01*
X325657Y71608D01*
X324948Y71175D01*
X324397Y70663D01*
X324003Y70073D01*
X323767Y69404D01*
X323688Y68656D01*
Y84404D01*
X323767Y83656D01*
D02*
G37*
%LPC*%
G36*
X89596Y289130D02*
X88404D01*
X87252Y288821D01*
X86220Y288225D01*
X85377Y287382D01*
X84781Y286350D01*
X84473Y285198D01*
Y284006D01*
X84781Y282855D01*
X85377Y281822D01*
X86220Y280979D01*
X87252Y280383D01*
X88404Y280075D01*
X89596D01*
X90748Y280383D01*
X91780Y280979D01*
X92623Y281822D01*
X93219Y282855D01*
X93528Y284006D01*
Y285198D01*
X93219Y286350D01*
X92623Y287382D01*
X91780Y288225D01*
X90748Y288821D01*
X89596Y289130D01*
D02*
G37*
G36*
X79596D02*
X78404D01*
X77252Y288821D01*
X76220Y288225D01*
X75377Y287382D01*
X74781Y286350D01*
X74472Y285198D01*
Y284006D01*
X74781Y282855D01*
X75377Y281822D01*
X76220Y280979D01*
X77252Y280383D01*
X78404Y280075D01*
X79596D01*
X80748Y280383D01*
X81780Y280979D01*
X82623Y281822D01*
X83219Y282855D01*
X83527Y284006D01*
Y285198D01*
X83219Y286350D01*
X82623Y287382D01*
X81780Y288225D01*
X80748Y288821D01*
X79596Y289130D01*
D02*
G37*
G36*
X69596D02*
X68404D01*
X67252Y288821D01*
X66220Y288225D01*
X65377Y287382D01*
X64781Y286350D01*
X64473Y285198D01*
Y284006D01*
X64781Y282855D01*
X65377Y281822D01*
X66220Y280979D01*
X67252Y280383D01*
X68404Y280075D01*
X69596D01*
X70748Y280383D01*
X71780Y280979D01*
X72623Y281822D01*
X73219Y282855D01*
X73527Y284006D01*
Y285198D01*
X73219Y286350D01*
X72623Y287382D01*
X71780Y288225D01*
X70748Y288821D01*
X69596Y289130D01*
D02*
G37*
G36*
X59596D02*
X58404D01*
X57252Y288821D01*
X56220Y288225D01*
X55377Y287382D01*
X54781Y286350D01*
X54473Y285198D01*
Y284006D01*
X54781Y282855D01*
X55377Y281822D01*
X56220Y280979D01*
X57252Y280383D01*
X58404Y280075D01*
X59596D01*
X60748Y280383D01*
X61780Y280979D01*
X62623Y281822D01*
X63219Y282855D01*
X63528Y284006D01*
Y285198D01*
X63219Y286350D01*
X62623Y287382D01*
X61780Y288225D01*
X60748Y288821D01*
X59596Y289130D01*
D02*
G37*
G36*
X49596D02*
X48404D01*
X47252Y288821D01*
X46220Y288225D01*
X45377Y287382D01*
X44781Y286350D01*
X44472Y285198D01*
Y284006D01*
X44781Y282855D01*
X45377Y281822D01*
X46220Y280979D01*
X47252Y280383D01*
X48404Y280075D01*
X49596D01*
X50748Y280383D01*
X51780Y280979D01*
X52623Y281822D01*
X53219Y282855D01*
X53527Y284006D01*
Y285198D01*
X53219Y286350D01*
X52623Y287382D01*
X51780Y288225D01*
X50748Y288821D01*
X49596Y289130D01*
D02*
G37*
G36*
X39596D02*
X38404D01*
X37252Y288821D01*
X36220Y288225D01*
X35377Y287382D01*
X34781Y286350D01*
X34472Y285198D01*
Y284006D01*
X34781Y282855D01*
X35377Y281822D01*
X36220Y280979D01*
X37252Y280383D01*
X38404Y280075D01*
X39596D01*
X40748Y280383D01*
X41780Y280979D01*
X42623Y281822D01*
X43219Y282855D01*
X43528Y284006D01*
Y285198D01*
X43219Y286350D01*
X42623Y287382D01*
X41780Y288225D01*
X40748Y288821D01*
X39596Y289130D01*
D02*
G37*
G36*
X203776Y278651D02*
Y276685D01*
X205741D01*
X205712Y276793D01*
X205271Y277557D01*
X204647Y278181D01*
X203884Y278622D01*
X203776Y278651D01*
D02*
G37*
G36*
X201406D02*
X201297Y278622D01*
X200534Y278181D01*
X199910Y277557D01*
X199469Y276793D01*
X199440Y276685D01*
X201406D01*
Y278651D01*
D02*
G37*
G36*
X180350Y278850D02*
X178185D01*
Y276685D01*
X180350D01*
Y278850D01*
D02*
G37*
G36*
X175815D02*
X173650D01*
Y276685D01*
X175815D01*
Y278850D01*
D02*
G37*
G36*
X205741Y274315D02*
X203776D01*
Y272349D01*
X203884Y272378D01*
X204647Y272819D01*
X205271Y273443D01*
X205712Y274207D01*
X205741Y274315D01*
D02*
G37*
G36*
X201406D02*
X199440D01*
X199469Y274207D01*
X199910Y273443D01*
X200534Y272819D01*
X201297Y272378D01*
X201406Y272349D01*
Y274315D01*
D02*
G37*
G36*
X180350D02*
X178185D01*
Y272150D01*
X180350D01*
Y274315D01*
D02*
G37*
G36*
X175815D02*
X173650D01*
Y272150D01*
X175815D01*
Y274315D01*
D02*
G37*
G36*
X377831Y274709D02*
X369169D01*
Y263291D01*
X377831D01*
Y274709D01*
D02*
G37*
G36*
X387280Y274746D02*
X386149Y274597D01*
X385096Y274161D01*
X384191Y273467D01*
X383497Y272562D01*
X383060Y271509D01*
X382911Y270378D01*
Y267622D01*
X383060Y266492D01*
X383497Y265438D01*
X384191Y264533D01*
X385096Y263839D01*
X386149Y263403D01*
X387280Y263254D01*
X388410Y263403D01*
X389463Y263839D01*
X390368Y264533D01*
X391062Y265438D01*
X391499Y266492D01*
X391648Y267622D01*
Y270378D01*
X391499Y271509D01*
X391062Y272562D01*
X390368Y273467D01*
X389463Y274161D01*
X388410Y274597D01*
X387280Y274746D01*
D02*
G37*
G36*
X322892Y263469D02*
X322108D01*
X321385Y263169D01*
X320831Y262615D01*
X320532Y261892D01*
Y261108D01*
X320831Y260385D01*
X321385Y259831D01*
X322108Y259531D01*
X322892D01*
X323283Y259694D01*
X364752D01*
X365739Y258706D01*
X365573Y258306D01*
X323283D01*
X322892Y258469D01*
X322108D01*
X321385Y258169D01*
X320831Y257615D01*
X320532Y256892D01*
Y256108D01*
X320831Y255385D01*
X321385Y254831D01*
X322108Y254532D01*
X322892D01*
X323283Y254694D01*
X365114D01*
X385085Y234723D01*
X385671Y234331D01*
X386362Y234194D01*
X400005D01*
X400137Y234177D01*
X400340Y234133D01*
X400539Y234071D01*
X400737Y233990D01*
X400933Y233890D01*
X401130Y233770D01*
X401326Y233628D01*
X401523Y233463D01*
X401737Y233257D01*
X401796Y233219D01*
X402119Y232897D01*
X403003Y232386D01*
X403989Y232122D01*
X405011D01*
X405997Y232386D01*
X406881Y232897D01*
X407603Y233619D01*
X408114Y234503D01*
X408378Y235490D01*
Y236510D01*
X408114Y237497D01*
X407603Y238381D01*
X406881Y239103D01*
X405997Y239614D01*
X405011Y239878D01*
X403989D01*
X403003Y239614D01*
X402119Y239103D01*
X401796Y238781D01*
X401737Y238743D01*
X401523Y238538D01*
X401326Y238372D01*
X401130Y238230D01*
X400933Y238110D01*
X400737Y238010D01*
X400539Y237929D01*
X400340Y237867D01*
X400137Y237823D01*
X400005Y237806D01*
X387110D01*
X381123Y243794D01*
X381289Y244194D01*
X400005D01*
X400137Y244177D01*
X400340Y244133D01*
X400539Y244071D01*
X400737Y243990D01*
X400933Y243890D01*
X401130Y243770D01*
X401326Y243628D01*
X401523Y243463D01*
X401737Y243257D01*
X401796Y243219D01*
X402119Y242897D01*
X403003Y242386D01*
X403989Y242122D01*
X405011D01*
X405997Y242386D01*
X406881Y242897D01*
X407603Y243619D01*
X408114Y244503D01*
X408378Y245490D01*
Y246511D01*
X408114Y247497D01*
X407603Y248381D01*
X406881Y249103D01*
X405997Y249614D01*
X405011Y249878D01*
X403989D01*
X403003Y249614D01*
X402119Y249103D01*
X401796Y248781D01*
X401737Y248743D01*
X401523Y248537D01*
X401326Y248373D01*
X401130Y248230D01*
X400933Y248110D01*
X400737Y248010D01*
X400539Y247929D01*
X400340Y247867D01*
X400137Y247823D01*
X400005Y247806D01*
X381748D01*
X366777Y262777D01*
X366191Y263169D01*
X365500Y263306D01*
X323283D01*
X322892Y263469D01*
D02*
G37*
G36*
X135831Y269209D02*
X127169D01*
Y257791D01*
X135831D01*
Y269209D01*
D02*
G37*
G36*
X145280Y269246D02*
X144149Y269097D01*
X143096Y268661D01*
X142191Y267967D01*
X141497Y267062D01*
X141060Y266008D01*
X140911Y264878D01*
Y262122D01*
X141060Y260992D01*
X141497Y259938D01*
X142191Y259033D01*
X143096Y258339D01*
X144149Y257903D01*
X145280Y257754D01*
X146410Y257903D01*
X147464Y258339D01*
X148368Y259033D01*
X149062Y259938D01*
X149499Y260992D01*
X149648Y262122D01*
Y264878D01*
X149499Y266008D01*
X149062Y267062D01*
X148368Y267967D01*
X147464Y268661D01*
X146410Y269097D01*
X145280Y269246D01*
D02*
G37*
G36*
X203083Y261521D02*
X202098D01*
X201148Y261266D01*
X200296Y260774D01*
X199600Y260078D01*
X199108Y259226D01*
X198853Y258276D01*
Y257291D01*
X199108Y256341D01*
X199600Y255489D01*
X199814Y255275D01*
X199661Y254905D01*
X179930D01*
X179777Y255275D01*
X179991Y255489D01*
X180483Y256341D01*
X180737Y257291D01*
Y258276D01*
X180483Y259226D01*
X179991Y260078D01*
X179295Y260774D01*
X178443Y261266D01*
X177492Y261521D01*
X176508D01*
X175557Y261266D01*
X174705Y260774D01*
X174009Y260078D01*
X173517Y259226D01*
X173263Y258276D01*
Y257291D01*
X173517Y256341D01*
X174009Y255489D01*
X174223Y255275D01*
X174070Y254905D01*
X120000D01*
X119462Y254798D01*
X119007Y254493D01*
X113349Y248836D01*
X113320Y248811D01*
X113160Y248710D01*
X112948Y248609D01*
X112683Y248515D01*
X112367Y248430D01*
X112000Y248359D01*
X111591Y248305D01*
X110597Y248243D01*
X110034Y248240D01*
X109960Y248224D01*
X109378D01*
X108176Y247902D01*
X107099Y247281D01*
X106219Y246401D01*
X105597Y245324D01*
X105276Y244122D01*
Y242878D01*
X105597Y241676D01*
X106219Y240599D01*
X107099Y239720D01*
X108176Y239098D01*
X109378Y238776D01*
X110622D01*
X111824Y239098D01*
X112901Y239720D01*
X113780Y240599D01*
X114402Y241676D01*
X114724Y242878D01*
Y243460D01*
X114740Y243534D01*
X114743Y244097D01*
X114805Y245092D01*
X114859Y245500D01*
X114930Y245867D01*
X115015Y246184D01*
X115109Y246448D01*
X115210Y246659D01*
X115311Y246820D01*
X115336Y246849D01*
X120582Y252095D01*
X131156D01*
X131277Y251695D01*
X131069Y251556D01*
X113349Y233836D01*
X113320Y233811D01*
X113160Y233710D01*
X112948Y233609D01*
X112683Y233515D01*
X112367Y233431D01*
X112000Y233360D01*
X111591Y233305D01*
X110597Y233243D01*
X110034Y233240D01*
X109960Y233224D01*
X109378D01*
X108176Y232902D01*
X107099Y232280D01*
X106219Y231401D01*
X105597Y230324D01*
X105276Y229122D01*
Y227878D01*
X105597Y226676D01*
X106219Y225599D01*
X107099Y224720D01*
X108176Y224098D01*
X109378Y223776D01*
X110622D01*
X111824Y224098D01*
X112901Y224720D01*
X113780Y225599D01*
X114402Y226676D01*
X114724Y227878D01*
Y228460D01*
X114740Y228535D01*
X114743Y229097D01*
X114805Y230092D01*
X114859Y230500D01*
X114930Y230867D01*
X115015Y231184D01*
X115109Y231448D01*
X115210Y231660D01*
X115311Y231820D01*
X115336Y231849D01*
X132644Y249157D01*
X162421D01*
X162643Y248825D01*
X162531Y248556D01*
Y247772D01*
X162831Y247049D01*
X163385Y246495D01*
X164108Y246196D01*
X164892D01*
X165283Y246358D01*
X182588D01*
X186223Y242723D01*
X186809Y242331D01*
X187500Y242194D01*
X197252D01*
X227996Y211449D01*
X227987Y211399D01*
X227936Y211202D01*
X227873Y211032D01*
X227802Y210886D01*
X227723Y210763D01*
X227635Y210656D01*
X227538Y210564D01*
X227388Y210454D01*
X227376Y210440D01*
X227099Y210280D01*
X226220Y209401D01*
X225598Y208324D01*
X225276Y207122D01*
Y205878D01*
X225598Y204676D01*
X226220Y203599D01*
X227099Y202719D01*
X227322Y202591D01*
X227219Y202204D01*
X90999Y202204D01*
X85352Y207852D01*
X84961Y208113D01*
X84500Y208204D01*
X84500Y208204D01*
X67500Y208204D01*
X67500Y208204D01*
X67039Y208113D01*
X66649Y207852D01*
X66648Y207852D01*
X61235Y202438D01*
X60748Y202719D01*
X59596Y203028D01*
X58404D01*
X57252Y202719D01*
X56220Y202123D01*
X55377Y201280D01*
X54781Y200248D01*
X54473Y199096D01*
Y197904D01*
X54781Y196752D01*
X55377Y195720D01*
X56220Y194877D01*
X57252Y194281D01*
X58404Y193973D01*
X59596D01*
X60748Y194281D01*
X61780Y194877D01*
X62623Y195720D01*
X63219Y196752D01*
X63528Y197904D01*
Y199096D01*
X63219Y200248D01*
X62938Y200735D01*
X67999Y205796D01*
X84001Y205796D01*
X84999Y204798D01*
X84846Y204429D01*
X73724D01*
X73264Y204337D01*
X72873Y204076D01*
X72873Y204076D01*
X71235Y202438D01*
X70748Y202719D01*
X69596Y203028D01*
X68404D01*
X67252Y202719D01*
X66220Y202123D01*
X65377Y201280D01*
X64781Y200248D01*
X64473Y199096D01*
Y197904D01*
X64781Y196752D01*
X65377Y195720D01*
X66220Y194877D01*
X67252Y194281D01*
X68404Y193973D01*
X69596D01*
X70748Y194281D01*
X71780Y194877D01*
X72623Y195720D01*
X73219Y196752D01*
X73527Y197904D01*
Y199096D01*
X73219Y200248D01*
X72938Y200735D01*
X74223Y202020D01*
X76099D01*
X76265Y201620D01*
X75687Y201042D01*
X75142Y200098D01*
X75031Y199685D01*
X79000D01*
X82969D01*
X82858Y200098D01*
X82313Y201042D01*
X81735Y201620D01*
X81901Y202020D01*
X85828D01*
X89078Y198770D01*
X89468Y198510D01*
X89929Y198418D01*
X261571D01*
X261571Y198418D01*
X262032Y198510D01*
X262422Y198770D01*
X283857Y220206D01*
X303010D01*
X303475Y219741D01*
X304198Y219442D01*
X304982D01*
X305705Y219741D01*
X306259Y220295D01*
X306558Y221018D01*
Y221802D01*
X306259Y222525D01*
X305705Y223079D01*
X304982Y223378D01*
X304198D01*
X303475Y223079D01*
X303010Y222614D01*
X284840D01*
X284687Y222984D01*
X286909Y225206D01*
X302855D01*
X302892Y225198D01*
X302928Y225187D01*
X302965Y225173D01*
X303002Y225155D01*
X303041Y225132D01*
X303082Y225102D01*
X303126Y225065D01*
X303192Y225003D01*
X303251Y224965D01*
X303475Y224741D01*
X304198Y224442D01*
X304982D01*
X305705Y224741D01*
X306259Y225295D01*
X306558Y226018D01*
Y226802D01*
X306259Y227525D01*
X305705Y228079D01*
X304982Y228379D01*
X304198D01*
X303475Y228079D01*
X303251Y227855D01*
X303192Y227818D01*
X303126Y227755D01*
X303082Y227718D01*
X303041Y227689D01*
X303002Y227665D01*
X302965Y227647D01*
X302928Y227633D01*
X302892Y227622D01*
X302855Y227614D01*
X286410D01*
X286410Y227614D01*
X285949Y227523D01*
X285559Y227261D01*
X285558Y227261D01*
X260501Y202204D01*
X239647D01*
X239567Y202604D01*
X240115Y202831D01*
X240669Y203385D01*
X240968Y204108D01*
Y204892D01*
X240669Y205615D01*
X240455Y205829D01*
X240447Y205842D01*
X240446Y205845D01*
X240442Y205850D01*
X240432Y205868D01*
X240426Y205889D01*
X240417Y205928D01*
X240409Y205974D01*
X240405Y206026D01*
Y208000D01*
X240298Y208538D01*
X239993Y208993D01*
X226315Y222672D01*
Y234901D01*
X226318Y234927D01*
X226327Y234982D01*
X226336Y235021D01*
X226342Y235042D01*
X226352Y235060D01*
X226356Y235065D01*
X226357Y235068D01*
X226365Y235081D01*
X226579Y235295D01*
X226878Y236018D01*
Y236802D01*
X226579Y237525D01*
X226025Y238079D01*
X225302Y238379D01*
X224999D01*
X224984Y238383D01*
X224981Y238384D01*
X224975Y238385D01*
X224955Y238390D01*
X224936Y238400D01*
X224902Y238422D01*
X224865Y238449D01*
X224824Y238483D01*
X208813Y254493D01*
X208358Y254798D01*
X207820Y254905D01*
X205520D01*
X205367Y255275D01*
X205581Y255489D01*
X206073Y256341D01*
X206328Y257291D01*
Y258276D01*
X206073Y259226D01*
X205581Y260078D01*
X204885Y260774D01*
X204033Y261266D01*
X203083Y261521D01*
D02*
G37*
G36*
X408378Y259878D02*
X400622D01*
Y252122D01*
X408378D01*
Y259878D01*
D02*
G37*
G36*
X231132Y255709D02*
X230349D01*
X229625Y255409D01*
X229071Y254855D01*
X228772Y254132D01*
Y253349D01*
X229071Y252625D01*
X229625Y252071D01*
X230349Y251772D01*
X231132D01*
X231855Y252071D01*
X232409Y252625D01*
X232709Y253349D01*
Y254132D01*
X232409Y254855D01*
X231855Y255409D01*
X231132Y255709D01*
D02*
G37*
G36*
X338391Y252468D02*
X337608D01*
X336885Y252168D01*
X336331Y251615D01*
X336031Y250891D01*
Y250108D01*
X336331Y249385D01*
X336885Y248831D01*
X337608Y248531D01*
X338391D01*
X339115Y248831D01*
X339668Y249385D01*
X339968Y250108D01*
Y250891D01*
X339668Y251615D01*
X339115Y252168D01*
X338391Y252468D01*
D02*
G37*
G36*
X362891D02*
X362108D01*
X361385Y252168D01*
X360831Y251615D01*
X360669Y251223D01*
X352684Y243239D01*
X323216D01*
X322824Y243401D01*
X322041D01*
X321317Y243101D01*
X320764Y242548D01*
X320464Y241824D01*
Y241041D01*
X320764Y240317D01*
X321317Y239764D01*
X322041Y239464D01*
X322824D01*
X323216Y239626D01*
X353432D01*
X354124Y239764D01*
X354710Y240155D01*
X363223Y248669D01*
X363615Y248831D01*
X364169Y249385D01*
X364468Y250108D01*
Y250891D01*
X364169Y251615D01*
X363615Y252168D01*
X362891Y252468D01*
D02*
G37*
G36*
X370622Y244725D02*
X369378D01*
X368177Y244403D01*
X367099Y243781D01*
X366690Y243371D01*
X366629Y243332D01*
X366298Y243010D01*
X365987Y242738D01*
X365685Y242502D01*
X365390Y242303D01*
X365106Y242139D01*
X364831Y242008D01*
X364567Y241910D01*
X364313Y241842D01*
X364097Y241807D01*
X358500D01*
X357809Y241669D01*
X357223Y241278D01*
X354184Y238239D01*
X323216D01*
X322824Y238401D01*
X322041D01*
X321317Y238101D01*
X320764Y237548D01*
X320464Y236824D01*
Y236041D01*
X320764Y235317D01*
X320905Y235176D01*
X320752Y234806D01*
X246500D01*
X245809Y234669D01*
X245223Y234277D01*
X234276Y223331D01*
X233885Y223169D01*
X233331Y222615D01*
X233032Y221892D01*
Y221108D01*
X233331Y220385D01*
X233885Y219831D01*
X234608Y219531D01*
X235392D01*
X236115Y219831D01*
X236669Y220385D01*
X236831Y220776D01*
X247248Y231194D01*
X335252D01*
X357723Y208723D01*
X358309Y208331D01*
X359000Y208194D01*
X360576D01*
X360764Y208178D01*
X361025Y208139D01*
X361226Y208090D01*
X361358Y208041D01*
X361359Y208037D01*
X361735Y207128D01*
X362334Y206347D01*
X362546Y206185D01*
X362417Y205806D01*
X331748D01*
X325331Y212224D01*
X325169Y212615D01*
X324615Y213169D01*
X323892Y213469D01*
X323108D01*
X322385Y213169D01*
X321831Y212615D01*
X321532Y211892D01*
Y211108D01*
X321831Y210385D01*
X322385Y209831D01*
X322776Y209669D01*
X329723Y202723D01*
X330309Y202331D01*
X331000Y202194D01*
X334049D01*
X334132Y201802D01*
X333324Y201335D01*
X332665Y200676D01*
X332198Y199868D01*
X331957Y198967D01*
Y198033D01*
X332198Y197132D01*
X332665Y196324D01*
X333324Y195665D01*
X334132Y195198D01*
X335033Y194957D01*
X335966D01*
X336868Y195198D01*
X337676Y195665D01*
X338335Y196324D01*
X338802Y197132D01*
X339043Y198033D01*
Y198967D01*
X338802Y199868D01*
X338335Y200676D01*
X337676Y201335D01*
X336868Y201802D01*
X336951Y202194D01*
X344049D01*
X344132Y201802D01*
X343324Y201335D01*
X342665Y200676D01*
X342198Y199868D01*
X341957Y198967D01*
Y198033D01*
X342198Y197132D01*
X342665Y196324D01*
X343324Y195665D01*
X344132Y195198D01*
X345034Y194957D01*
X345967D01*
X346868Y195198D01*
X347676Y195665D01*
X348335Y196324D01*
X348802Y197132D01*
X349043Y198033D01*
Y198967D01*
X348802Y199868D01*
X348335Y200676D01*
X347676Y201335D01*
X346868Y201802D01*
X346951Y202194D01*
X379000D01*
X379691Y202331D01*
X380277Y202723D01*
X382740Y205185D01*
X382916Y205338D01*
X383162Y205526D01*
X383354Y205649D01*
X384024Y205372D01*
X385000Y205243D01*
X385976Y205372D01*
X386885Y205748D01*
X387666Y206347D01*
X388265Y207128D01*
X388641Y208037D01*
X388770Y209013D01*
Y210987D01*
X388641Y211963D01*
X388265Y212872D01*
X387666Y213653D01*
X386885Y214252D01*
X385976Y214628D01*
X385000Y214757D01*
X384024Y214628D01*
X383115Y214252D01*
X382334Y213653D01*
X381735Y212872D01*
X381359Y211963D01*
X381230Y210987D01*
Y209032D01*
X381124Y208843D01*
X380961Y208602D01*
X380526Y208080D01*
X378252Y205806D01*
X376981D01*
X376845Y206206D01*
X377389Y206624D01*
X377926Y207324D01*
X378264Y208138D01*
X378353Y208815D01*
X375000D01*
X371647D01*
X371736Y208138D01*
X372074Y207324D01*
X372611Y206624D01*
X373155Y206206D01*
X373019Y205806D01*
X367583D01*
X367454Y206185D01*
X367666Y206347D01*
X368265Y207128D01*
X368641Y208037D01*
X368770Y209013D01*
Y210987D01*
X368641Y211963D01*
X368265Y212872D01*
X367666Y213653D01*
X366885Y214252D01*
X365976Y214628D01*
X365000Y214757D01*
X364024Y214628D01*
X363115Y214252D01*
X362334Y213653D01*
X361735Y212872D01*
X361359Y211963D01*
X361358Y211959D01*
X361226Y211910D01*
X361025Y211861D01*
X360765Y211822D01*
X360576Y211806D01*
X359748D01*
X337328Y234226D01*
X337401Y234626D01*
X354932D01*
X355624Y234764D01*
X356210Y235155D01*
X359248Y238194D01*
X364097D01*
X364313Y238159D01*
X364567Y238091D01*
X364831Y237993D01*
X365106Y237862D01*
X365390Y237698D01*
X365674Y237505D01*
X366306Y236983D01*
X366629Y236669D01*
X366690Y236629D01*
X367099Y236220D01*
X368177Y235598D01*
X369378Y235276D01*
X370622D01*
X371824Y235598D01*
X372901Y236220D01*
X373781Y237100D01*
X374403Y238177D01*
X374725Y239378D01*
Y240622D01*
X374403Y241824D01*
X373781Y242901D01*
X372901Y243781D01*
X371824Y244403D01*
X370622Y244725D01*
D02*
G37*
G36*
X194514Y240133D02*
X193731D01*
X193008Y239833D01*
X192454Y239280D01*
X192154Y238556D01*
Y237773D01*
X192454Y237050D01*
X193008Y236496D01*
X193731Y236196D01*
X194514D01*
X195238Y236496D01*
X195791Y237050D01*
X196091Y237773D01*
Y238556D01*
X195791Y239280D01*
X195238Y239833D01*
X194514Y240133D01*
D02*
G37*
G36*
X144392Y236968D02*
X143608D01*
X142885Y236669D01*
X142331Y236115D01*
X142032Y235392D01*
Y234608D01*
X142331Y233885D01*
X142885Y233331D01*
X143608Y233032D01*
X144392D01*
X145115Y233331D01*
X145669Y233885D01*
X145968Y234608D01*
Y235392D01*
X145669Y236115D01*
X145115Y236669D01*
X144392Y236968D01*
D02*
G37*
G36*
X405685Y229296D02*
Y227185D01*
X407796D01*
X407753Y227347D01*
X407293Y228143D01*
X406643Y228793D01*
X405847Y229253D01*
X405685Y229296D01*
D02*
G37*
G36*
X403315D02*
X403153Y229253D01*
X402357Y228793D01*
X401707Y228143D01*
X401247Y227347D01*
X401204Y227185D01*
X403315D01*
Y229296D01*
D02*
G37*
G36*
X181392Y223468D02*
X180608D01*
X179885Y223169D01*
X179500Y222784D01*
X179115Y223169D01*
X178392Y223468D01*
X177608D01*
X176885Y223169D01*
X176331Y222615D01*
X176031Y221892D01*
Y221108D01*
X176331Y220385D01*
X176885Y219831D01*
X177608Y219531D01*
X178392D01*
X179115Y219831D01*
X179500Y220216D01*
X179885Y219831D01*
X180608Y219531D01*
X181392D01*
X182115Y219831D01*
X182669Y220385D01*
X182968Y221108D01*
Y221892D01*
X182669Y222615D01*
X182115Y223169D01*
X181392Y223468D01*
D02*
G37*
G36*
X407796Y224815D02*
X405685D01*
Y222704D01*
X405847Y222747D01*
X406643Y223207D01*
X407293Y223857D01*
X407753Y224653D01*
X407796Y224815D01*
D02*
G37*
G36*
X403315D02*
X401204D01*
X401247Y224653D01*
X401707Y223857D01*
X402357Y223207D01*
X403153Y222747D01*
X403315Y222704D01*
Y224815D01*
D02*
G37*
G36*
X361526Y222969D02*
X360743D01*
X360019Y222669D01*
X359466Y222115D01*
X359166Y221392D01*
Y220608D01*
X359466Y219885D01*
X360019Y219331D01*
X360743Y219032D01*
X361526D01*
X362250Y219331D01*
X362803Y219885D01*
X363103Y220608D01*
Y221392D01*
X362803Y222115D01*
X362250Y222669D01*
X361526Y222969D01*
D02*
G37*
G36*
X181392Y218969D02*
X180608D01*
X179885Y218669D01*
X179500Y218284D01*
X179115Y218669D01*
X178392Y218969D01*
X177608D01*
X176885Y218669D01*
X176331Y218115D01*
X176031Y217392D01*
Y216608D01*
X176331Y215885D01*
X176885Y215331D01*
X177608Y215032D01*
X178392D01*
X179115Y215331D01*
X179500Y215716D01*
X179885Y215331D01*
X180608Y215032D01*
X181392D01*
X182115Y215331D01*
X182669Y215885D01*
X182968Y216608D01*
Y217392D01*
X182669Y218115D01*
X182115Y218669D01*
X181392Y218969D01*
D02*
G37*
G36*
X194496Y220452D02*
X193713D01*
X192990Y220153D01*
X192436Y219599D01*
X192136Y218875D01*
Y218092D01*
X192436Y217369D01*
X192990Y216815D01*
X193713Y216515D01*
X194496D01*
X195220Y216815D01*
X195774Y217369D01*
X196073Y218092D01*
Y218875D01*
X195774Y219599D01*
X195220Y220153D01*
X194496Y220452D01*
D02*
G37*
G36*
X125315Y225917D02*
X124071D01*
X122869Y225595D01*
X121792Y224973D01*
X120912Y224094D01*
X120290Y223016D01*
X119968Y221815D01*
Y220571D01*
X120290Y219369D01*
X120912Y218292D01*
X121792Y217412D01*
X122869Y216790D01*
X124071Y216469D01*
X125315D01*
X126516Y216790D01*
X127594Y217412D01*
X128473Y218292D01*
X129095Y219369D01*
X129417Y220571D01*
Y221815D01*
X129095Y223016D01*
X128473Y224094D01*
X127594Y224973D01*
X126516Y225595D01*
X125315Y225917D01*
D02*
G37*
G36*
X335122Y225724D02*
X333878D01*
X332676Y225402D01*
X331599Y224781D01*
X330719Y223901D01*
X330098Y222824D01*
X329776Y221622D01*
Y220378D01*
X330098Y219176D01*
X330719Y218099D01*
X331599Y217219D01*
X332676Y216598D01*
X333878Y216276D01*
X335122D01*
X336323Y216598D01*
X337401Y217219D01*
X338281Y218099D01*
X338902Y219176D01*
X339224Y220378D01*
Y221622D01*
X338902Y222824D01*
X338281Y223901D01*
X337401Y224781D01*
X336323Y225402D01*
X335122Y225724D01*
D02*
G37*
G36*
X181392Y214469D02*
X180608D01*
X179885Y214169D01*
X179500Y213784D01*
X179115Y214169D01*
X178392Y214469D01*
X177608D01*
X176885Y214169D01*
X176331Y213615D01*
X176031Y212892D01*
Y212108D01*
X176331Y211385D01*
X176885Y210831D01*
X177608Y210531D01*
X178392D01*
X179115Y210831D01*
X179500Y211216D01*
X179885Y210831D01*
X180608Y210531D01*
X181392D01*
X182115Y210831D01*
X182669Y211385D01*
X182968Y212108D01*
Y212892D01*
X182669Y213615D01*
X182115Y214169D01*
X181392Y214469D01*
D02*
G37*
G36*
X143622Y221728D02*
X142378D01*
X141176Y221406D01*
X140099Y220784D01*
X139219Y219904D01*
X138598Y218827D01*
X138276Y217626D01*
Y216382D01*
X138598Y215180D01*
X139219Y214103D01*
X140099Y213223D01*
X141176Y212601D01*
X142378Y212279D01*
X143622D01*
X144824Y212601D01*
X145901Y213223D01*
X146781Y214103D01*
X147402Y215180D01*
X147724Y216382D01*
Y217626D01*
X147402Y218827D01*
X146781Y219904D01*
X145901Y220784D01*
X144824Y221406D01*
X143622Y221728D01*
D02*
G37*
G36*
X376185Y214122D02*
Y211185D01*
X378353D01*
X378264Y211861D01*
X377926Y212677D01*
X377389Y213376D01*
X376689Y213913D01*
X376185Y214122D01*
D02*
G37*
G36*
X373815D02*
X373310Y213913D01*
X372611Y213376D01*
X372074Y212677D01*
X371736Y211861D01*
X371647Y211185D01*
X373815D01*
Y214122D01*
D02*
G37*
G36*
X164892Y240139D02*
X164108D01*
X163385Y239839D01*
X162831Y239285D01*
X162531Y238562D01*
Y237779D01*
X162831Y237055D01*
X163385Y236501D01*
X164108Y236202D01*
X164892D01*
X165283Y236364D01*
X179327D01*
X179355Y236358D01*
X182847D01*
X186982Y232223D01*
X187568Y231831D01*
X188260Y231694D01*
X201752D01*
X222669Y210776D01*
X222831Y210385D01*
X223385Y209831D01*
X224108Y209531D01*
X224892D01*
X225615Y209831D01*
X226169Y210385D01*
X226468Y211108D01*
Y211892D01*
X226169Y212615D01*
X225615Y213169D01*
X225224Y213331D01*
X203777Y234777D01*
X203191Y235169D01*
X202500Y235306D01*
X189008D01*
X184872Y239442D01*
X184286Y239833D01*
X183595Y239971D01*
X179377D01*
X179349Y239977D01*
X165283D01*
X164892Y240139D01*
D02*
G37*
G36*
X356685Y201450D02*
Y199685D01*
X358450D01*
X358441Y199718D01*
X358025Y200438D01*
X357438Y201025D01*
X356718Y201441D01*
X356685Y201450D01*
D02*
G37*
G36*
X354315D02*
X354282Y201441D01*
X353562Y201025D01*
X352975Y200438D01*
X352559Y199718D01*
X352550Y199685D01*
X354315D01*
Y201450D01*
D02*
G37*
G36*
X282572Y200969D02*
X281788D01*
X281065Y200669D01*
X280511Y200115D01*
X280211Y199392D01*
Y198608D01*
X280511Y197885D01*
X281065Y197331D01*
X281788Y197031D01*
X282572D01*
X283295Y197331D01*
X283849Y197885D01*
X284149Y198608D01*
Y199392D01*
X283849Y200115D01*
X283295Y200669D01*
X282572Y200969D01*
D02*
G37*
G36*
X370257Y199969D02*
X369474D01*
X368751Y199669D01*
X368197Y199115D01*
X367897Y198392D01*
Y197609D01*
X368197Y196885D01*
X368751Y196332D01*
X369474Y196032D01*
X370257D01*
X370981Y196332D01*
X371535Y196885D01*
X371834Y197609D01*
Y198392D01*
X371535Y199115D01*
X370981Y199669D01*
X370257Y199969D01*
D02*
G37*
G36*
X358450Y197315D02*
X356685D01*
Y195550D01*
X356718Y195559D01*
X357438Y195975D01*
X358025Y196562D01*
X358441Y197282D01*
X358450Y197315D01*
D02*
G37*
G36*
X354315D02*
X352550D01*
X352559Y197282D01*
X352975Y196562D01*
X353562Y195975D01*
X354282Y195559D01*
X354315Y195550D01*
Y197315D01*
D02*
G37*
G36*
X77815Y197315D02*
X75031D01*
X75142Y196902D01*
X75687Y195958D01*
X76458Y195187D01*
X77402Y194642D01*
X77815Y194531D01*
Y197315D01*
D02*
G37*
G36*
X82969D02*
X80185D01*
Y194531D01*
X80598Y194642D01*
X81542Y195187D01*
X82313Y195958D01*
X82858Y196902D01*
X82969Y197315D01*
D02*
G37*
G36*
X49596Y203028D02*
X48404D01*
X47252Y202719D01*
X46220Y202123D01*
X45377Y201280D01*
X44781Y200248D01*
X44472Y199096D01*
Y197904D01*
X44781Y196752D01*
X45377Y195720D01*
X46220Y194877D01*
X47252Y194281D01*
X48404Y193973D01*
X49596D01*
X50748Y194281D01*
X51780Y194877D01*
X52623Y195720D01*
X53219Y196752D01*
X53527Y197904D01*
Y199096D01*
X53219Y200248D01*
X52623Y201280D01*
X51780Y202123D01*
X50748Y202719D01*
X49596Y203028D01*
D02*
G37*
G36*
X39596D02*
X38404D01*
X37252Y202719D01*
X36220Y202123D01*
X35377Y201280D01*
X34781Y200248D01*
X34472Y199096D01*
Y197904D01*
X34781Y196752D01*
X35377Y195720D01*
X36220Y194877D01*
X37252Y194281D01*
X38404Y193973D01*
X39596D01*
X40748Y194281D01*
X41780Y194877D01*
X42623Y195720D01*
X43219Y196752D01*
X43528Y197904D01*
Y199096D01*
X43219Y200248D01*
X42623Y201280D01*
X41780Y202123D01*
X40748Y202719D01*
X39596Y203028D01*
D02*
G37*
G36*
X29596D02*
X28404D01*
X27252Y202719D01*
X26220Y202123D01*
X25377Y201280D01*
X24781Y200248D01*
X24473Y199096D01*
Y197904D01*
X24781Y196752D01*
X25377Y195720D01*
X26220Y194877D01*
X27252Y194281D01*
X28404Y193973D01*
X29596D01*
X30748Y194281D01*
X31780Y194877D01*
X32623Y195720D01*
X33219Y196752D01*
X33528Y197904D01*
Y199096D01*
X33219Y200248D01*
X32623Y201280D01*
X31780Y202123D01*
X30748Y202719D01*
X29596Y203028D01*
D02*
G37*
G36*
X199622Y197724D02*
X198378D01*
X197176Y197402D01*
X196099Y196781D01*
X195220Y195901D01*
X194597Y194824D01*
X194276Y193622D01*
Y192378D01*
X194597Y191176D01*
X195220Y190099D01*
X196099Y189219D01*
X197176Y188598D01*
X198378Y188276D01*
X199622D01*
X200824Y188598D01*
X201901Y189219D01*
X202781Y190099D01*
X203402Y191176D01*
X203724Y192378D01*
Y193622D01*
X203402Y194824D01*
X202781Y195901D01*
X201901Y196781D01*
X200824Y197402D01*
X199622Y197724D01*
D02*
G37*
G36*
X153091Y189191D02*
Y185185D01*
X157097D01*
X156864Y186054D01*
X156164Y187267D01*
X155173Y188258D01*
X153959Y188959D01*
X153091Y189191D01*
D02*
G37*
G36*
X150721D02*
X149852Y188959D01*
X148638Y188258D01*
X147647Y187267D01*
X146947Y186054D01*
X146714Y185185D01*
X150721D01*
Y189191D01*
D02*
G37*
G36*
X179331Y189124D02*
X170669D01*
Y182349D01*
X179331D01*
Y189124D01*
D02*
G37*
G36*
X278152Y185729D02*
X277368D01*
X276645Y185429D01*
X276091Y184875D01*
X275792Y184152D01*
Y183368D01*
X276091Y182645D01*
X276645Y182091D01*
X277368Y181791D01*
X278152D01*
X278875Y182091D01*
X279429Y182645D01*
X279729Y183368D01*
Y184152D01*
X279429Y184875D01*
X278875Y185429D01*
X278152Y185729D01*
D02*
G37*
G36*
X101709Y189709D02*
X90291D01*
Y178291D01*
X101709D01*
Y178866D01*
X102041Y179088D01*
X102313Y178976D01*
X103096D01*
X103819Y179275D01*
X104193Y179649D01*
X104454Y179786D01*
X104716Y179649D01*
X105089Y179275D01*
X105813Y178976D01*
X106596D01*
X107319Y179275D01*
X107688Y179644D01*
X107980Y179770D01*
X108211Y179644D01*
X108607Y179248D01*
X109330Y178948D01*
X110113D01*
X110837Y179248D01*
X111211Y179622D01*
X111472Y179759D01*
X111733Y179622D01*
X112107Y179248D01*
X112830Y178948D01*
X113613D01*
X114337Y179248D01*
X114831Y179742D01*
X115285Y179287D01*
X116008Y178988D01*
X116791D01*
X117515Y179287D01*
X117884Y179656D01*
X118176Y179782D01*
X118406Y179656D01*
X118803Y179260D01*
X119526Y178960D01*
X120309D01*
X121033Y179260D01*
X121406Y179633D01*
X121668Y179771D01*
X121929Y179633D01*
X122303Y179260D01*
X123026Y178960D01*
X123809D01*
X124533Y179260D01*
X125086Y179814D01*
X125386Y180537D01*
Y181320D01*
X125086Y182044D01*
X124533Y182597D01*
X123809Y182897D01*
X123026D01*
X122303Y182597D01*
X121929Y182224D01*
X121668Y182087D01*
X121406Y182224D01*
X121033Y182597D01*
X120309Y182897D01*
X119526D01*
X118803Y182597D01*
X118434Y182229D01*
X118142Y182103D01*
X117911Y182229D01*
X117515Y182625D01*
X116791Y182925D01*
X116008D01*
X115285Y182625D01*
X114791Y182131D01*
X114337Y182586D01*
X113613Y182885D01*
X112830D01*
X112107Y182586D01*
X111733Y182212D01*
X111472Y182074D01*
X111211Y182212D01*
X110837Y182586D01*
X110113Y182885D01*
X109330D01*
X108607Y182586D01*
X108238Y182217D01*
X107946Y182091D01*
X107715Y182217D01*
X107319Y182613D01*
X106596Y182913D01*
X105813D01*
X105089Y182613D01*
X104716Y182239D01*
X104454Y182102D01*
X104193Y182239D01*
X103819Y182613D01*
X103096Y182913D01*
X102313D01*
X102041Y182800D01*
X101709Y183022D01*
Y189709D01*
D02*
G37*
G36*
X157097Y182815D02*
X153091D01*
Y178808D01*
X153959Y179041D01*
X155173Y179742D01*
X156164Y180733D01*
X156864Y181946D01*
X157097Y182815D01*
D02*
G37*
G36*
X150721D02*
X146714D01*
X146947Y181946D01*
X147647Y180733D01*
X148638Y179742D01*
X149852Y179041D01*
X150721Y178808D01*
Y182815D01*
D02*
G37*
G36*
X175943Y178917D02*
X174057D01*
X173172Y178800D01*
X172348Y178459D01*
X171641Y177916D01*
X171098Y177208D01*
X170972Y176905D01*
X66500D01*
X65962Y176798D01*
X65507Y176494D01*
X42641Y153628D01*
X42336Y153172D01*
X42229Y152634D01*
Y122740D01*
X40583D01*
Y115260D01*
X46685D01*
Y122740D01*
X45039D01*
Y152052D01*
X67082Y174095D01*
X89969D01*
X90055Y174010D01*
X90236Y173695D01*
X90197Y173500D01*
Y127500D01*
X90197Y127500D01*
X90258Y127193D01*
X90432Y126932D01*
X90432Y126932D01*
X95432Y121932D01*
X95693Y121758D01*
X96000Y121697D01*
X110500D01*
X110807Y121758D01*
X111068Y121932D01*
X111068Y121932D01*
X116568Y127432D01*
X116568Y127432D01*
X140332Y151197D01*
X150500D01*
X150807Y151258D01*
X151068Y151432D01*
X154068Y154432D01*
X154242Y154693D01*
X154303Y155000D01*
Y164500D01*
X154242Y164807D01*
X154068Y165068D01*
X145440Y173695D01*
X145606Y174095D01*
X170972D01*
X171098Y173792D01*
X171641Y173084D01*
X172348Y172541D01*
X173172Y172200D01*
X174057Y172083D01*
X175943D01*
X176828Y172200D01*
X177652Y172541D01*
X178359Y173084D01*
X178902Y173792D01*
X179244Y174616D01*
X179360Y175500D01*
X179244Y176384D01*
X178902Y177208D01*
X178359Y177916D01*
X177652Y178459D01*
X176828Y178800D01*
X175943Y178917D01*
D02*
G37*
G36*
Y168680D02*
X174057D01*
X173172Y168564D01*
X172348Y168223D01*
X171641Y167680D01*
X171098Y166972D01*
X170756Y166148D01*
X170640Y165264D01*
X170756Y164380D01*
X171098Y163556D01*
X171641Y162848D01*
X172348Y162305D01*
X173172Y161964D01*
X174057Y161847D01*
X175943D01*
X176828Y161964D01*
X177652Y162305D01*
X178359Y162848D01*
X178902Y163556D01*
X179244Y164380D01*
X179360Y165264D01*
X179244Y166148D01*
X178902Y166972D01*
X178359Y167680D01*
X177652Y168223D01*
X176828Y168564D01*
X175943Y168680D01*
D02*
G37*
G36*
X39622Y169724D02*
X38378D01*
X37176Y169402D01*
X36099Y168781D01*
X35219Y167901D01*
X34598Y166824D01*
X34276Y165622D01*
Y164378D01*
X34598Y163176D01*
X35219Y162099D01*
X36099Y161220D01*
X37176Y160598D01*
X38378Y160276D01*
X39622D01*
X40824Y160598D01*
X41901Y161220D01*
X42781Y162099D01*
X43402Y163176D01*
X43724Y164378D01*
Y165622D01*
X43402Y166824D01*
X42781Y167901D01*
X41901Y168781D01*
X40824Y169402D01*
X39622Y169724D01*
D02*
G37*
G36*
X207392Y161469D02*
X206608D01*
X205885Y161169D01*
X205331Y160615D01*
X205031Y159892D01*
Y159108D01*
X205331Y158385D01*
X205885Y157831D01*
X206608Y157531D01*
X207392D01*
X208115Y157831D01*
X208669Y158385D01*
X208968Y159108D01*
Y159892D01*
X208669Y160615D01*
X208115Y161169D01*
X207392Y161469D01*
D02*
G37*
G36*
X411132Y160728D02*
X410349D01*
X409625Y160429D01*
X409071Y159875D01*
X408772Y159151D01*
Y158368D01*
X409071Y157645D01*
X409625Y157091D01*
X410349Y156791D01*
X411132D01*
X411855Y157091D01*
X412409Y157645D01*
X412709Y158368D01*
Y159151D01*
X412409Y159875D01*
X411855Y160429D01*
X411132Y160728D01*
D02*
G37*
G36*
X386122Y165724D02*
X384878D01*
X383676Y165402D01*
X382599Y164780D01*
X381719Y163901D01*
X381098Y162824D01*
X380776Y161622D01*
Y160378D01*
X381098Y159176D01*
X381719Y158099D01*
X382599Y157220D01*
X383676Y156598D01*
X384878Y156276D01*
X386122D01*
X387323Y156598D01*
X388401Y157220D01*
X389281Y158099D01*
X389902Y159176D01*
X390224Y160378D01*
Y161622D01*
X389902Y162824D01*
X389281Y163901D01*
X388401Y164780D01*
X387323Y165402D01*
X386122Y165724D01*
D02*
G37*
G36*
X50635Y148272D02*
X49852D01*
X49129Y147972D01*
X48575Y147418D01*
X48275Y146695D01*
Y145911D01*
X48575Y145188D01*
X49129Y144634D01*
X49852Y144334D01*
X50635D01*
X51359Y144634D01*
X51913Y145188D01*
X52212Y145911D01*
Y146695D01*
X51913Y147418D01*
X51359Y147972D01*
X50635Y148272D01*
D02*
G37*
G36*
X153499Y139287D02*
X152501D01*
X151538Y139029D01*
X150674Y138531D01*
X149969Y137826D01*
X149471Y136962D01*
X149450Y136885D01*
X149050D01*
X149029Y136962D01*
X148531Y137826D01*
X147826Y138531D01*
X146962Y139029D01*
X145999Y139287D01*
X145001D01*
X144038Y139029D01*
X143175Y138531D01*
X142469Y137826D01*
X141971Y136962D01*
X141713Y135999D01*
Y135001D01*
X141971Y134038D01*
X142469Y133175D01*
X143175Y132469D01*
X144038Y131971D01*
X145001Y131713D01*
X145999D01*
X146962Y131971D01*
X147826Y132469D01*
X148531Y133175D01*
X149029Y134038D01*
X149050Y134115D01*
X149450D01*
X149471Y134038D01*
X149969Y133175D01*
X150674Y132469D01*
X151538Y131971D01*
X152501Y131713D01*
X153499D01*
X154462Y131971D01*
X155325Y132469D01*
X156031Y133175D01*
X156529Y134038D01*
X156787Y135001D01*
Y135999D01*
X156529Y136962D01*
X156031Y137826D01*
X155325Y138531D01*
X154462Y139029D01*
X153499Y139287D01*
D02*
G37*
G36*
X180499Y139787D02*
X179501D01*
X178538Y139529D01*
X177674Y139031D01*
X176969Y138326D01*
X176471Y137462D01*
X176213Y136499D01*
Y135501D01*
X176471Y134538D01*
X176969Y133675D01*
X177674Y132969D01*
X178538Y132471D01*
X179501Y132213D01*
X180499D01*
X181462Y132471D01*
X182325Y132969D01*
X183031Y133675D01*
X183529Y134538D01*
X183787Y135501D01*
Y136499D01*
X183529Y137462D01*
X183031Y138326D01*
X182325Y139031D01*
X181462Y139529D01*
X180499Y139787D01*
D02*
G37*
G36*
X172499D02*
X171501D01*
X170538Y139529D01*
X169675Y139031D01*
X168969Y138326D01*
X168471Y137462D01*
X168213Y136499D01*
Y135501D01*
X168471Y134538D01*
X168969Y133675D01*
X169675Y132969D01*
X170538Y132471D01*
X171501Y132213D01*
X172499D01*
X173462Y132471D01*
X174326Y132969D01*
X175031Y133675D01*
X175529Y134538D01*
X175787Y135501D01*
Y136499D01*
X175529Y137462D01*
X175031Y138326D01*
X174326Y139031D01*
X173462Y139529D01*
X172499Y139787D01*
D02*
G37*
G36*
X164499D02*
X163501D01*
X162538Y139529D01*
X161674Y139031D01*
X160969Y138326D01*
X160471Y137462D01*
X160213Y136499D01*
Y135501D01*
X160471Y134538D01*
X160969Y133675D01*
X161674Y132969D01*
X162538Y132471D01*
X163501Y132213D01*
X164499D01*
X165462Y132471D01*
X166325Y132969D01*
X167031Y133675D01*
X167529Y134538D01*
X167787Y135501D01*
Y136499D01*
X167529Y137462D01*
X167031Y138326D01*
X166325Y139031D01*
X165462Y139529D01*
X164499Y139787D01*
D02*
G37*
G36*
X197780Y142001D02*
X192780D01*
X190030Y139251D01*
Y133751D01*
X192780Y131001D01*
X197780D01*
X200530Y133751D01*
Y139251D01*
X197780Y142001D01*
D02*
G37*
G36*
X28831Y132012D02*
X20169D01*
Y125988D01*
X28831D01*
Y132012D01*
D02*
G37*
G36*
X57079Y132038D02*
X54441D01*
X53655Y131934D01*
X52922Y131631D01*
X52293Y131148D01*
X51810Y130519D01*
X51507Y129786D01*
X51403Y129000D01*
X51507Y128214D01*
X51810Y127481D01*
X52293Y126852D01*
X52922Y126369D01*
X53655Y126066D01*
X54441Y125962D01*
X57079D01*
X57865Y126066D01*
X58598Y126369D01*
X59227Y126852D01*
X59710Y127481D01*
X60013Y128214D01*
X60116Y129000D01*
X60013Y129786D01*
X59710Y130519D01*
X59227Y131148D01*
X58598Y131631D01*
X57865Y131934D01*
X57079Y132038D01*
D02*
G37*
G36*
X38418Y122740D02*
X32315D01*
Y120682D01*
X32300Y120676D01*
X32180Y120644D01*
X32010Y120616D01*
X31892Y120606D01*
X28980D01*
X28793Y120618D01*
X28535Y120650D01*
X28334Y120691D01*
X28312Y120698D01*
X27967Y121148D01*
X27338Y121631D01*
X26605Y121934D01*
X25819Y122038D01*
X23181D01*
X22395Y121934D01*
X21662Y121631D01*
X21033Y121148D01*
X20550Y120519D01*
X20247Y119786D01*
X20143Y119000D01*
X20247Y118214D01*
X20550Y117481D01*
X21033Y116852D01*
X21662Y116369D01*
X22395Y116066D01*
X23181Y115962D01*
X25819D01*
X26605Y116066D01*
X27338Y116369D01*
X27967Y116852D01*
X28312Y117302D01*
X28334Y117309D01*
X28523Y117347D01*
X29025Y117394D01*
X31892D01*
X32010Y117384D01*
X32180Y117356D01*
X32300Y117324D01*
X32315Y117318D01*
Y115260D01*
X38418D01*
Y122740D01*
D02*
G37*
G36*
X57079Y122038D02*
X54441D01*
X53655Y121934D01*
X52922Y121631D01*
X52293Y121148D01*
X51810Y120519D01*
X51507Y119786D01*
X51403Y119000D01*
X51507Y118214D01*
X51810Y117481D01*
X52293Y116852D01*
X52922Y116369D01*
X53655Y116066D01*
X54441Y115962D01*
X57079D01*
X57865Y116066D01*
X58598Y116369D01*
X59227Y116852D01*
X59710Y117481D01*
X60013Y118214D01*
X60116Y119000D01*
X60013Y119786D01*
X59710Y120519D01*
X59227Y121148D01*
X58598Y121631D01*
X57865Y121934D01*
X57079Y122038D01*
D02*
G37*
G36*
X12622Y123724D02*
X11378D01*
X10176Y123402D01*
X9099Y122781D01*
X8219Y121901D01*
X7598Y120824D01*
X7276Y119622D01*
Y118378D01*
X7598Y117176D01*
X8219Y116099D01*
X9099Y115219D01*
X10176Y114598D01*
X11378Y114276D01*
X12622D01*
X13824Y114598D01*
X14901Y115219D01*
X15780Y116099D01*
X16402Y117176D01*
X16724Y118378D01*
Y119622D01*
X16402Y120824D01*
X15780Y121901D01*
X14901Y122781D01*
X13824Y123402D01*
X12622Y123724D01*
D02*
G37*
G36*
X79622Y116224D02*
X78378D01*
X77176Y115902D01*
X76099Y115280D01*
X75220Y114401D01*
X74598Y113324D01*
X74276Y112122D01*
Y110878D01*
X74598Y109676D01*
X75220Y108599D01*
X76099Y107720D01*
X77176Y107098D01*
X78378Y106776D01*
X79622D01*
X80824Y107098D01*
X81901Y107720D01*
X82780Y108599D01*
X83402Y109676D01*
X83724Y110878D01*
Y112122D01*
X83402Y113324D01*
X82780Y114401D01*
X81901Y115280D01*
X80824Y115902D01*
X79622Y116224D01*
D02*
G37*
G36*
X25819Y112038D02*
X23181D01*
X22395Y111934D01*
X21662Y111631D01*
X21033Y111148D01*
X20550Y110519D01*
X20247Y109786D01*
X20143Y109000D01*
X20247Y108214D01*
X20550Y107481D01*
X21033Y106852D01*
X21662Y106369D01*
X22395Y106066D01*
X23181Y105962D01*
X25819D01*
X26605Y106066D01*
X27338Y106369D01*
X27967Y106852D01*
X28450Y107481D01*
X28753Y108214D01*
X28857Y109000D01*
X28753Y109786D01*
X28450Y110519D01*
X27967Y111148D01*
X27338Y111631D01*
X26605Y111934D01*
X25819Y112038D01*
D02*
G37*
G36*
X57079Y101647D02*
X56945D01*
Y100185D01*
X59429D01*
X59371Y100323D01*
X58951Y100872D01*
X58402Y101292D01*
X57764Y101557D01*
X57079Y101647D01*
D02*
G37*
G36*
X54575D02*
X54441D01*
X53756Y101557D01*
X53117Y101292D01*
X52569Y100872D01*
X52148Y100323D01*
X52091Y100185D01*
X54575D01*
Y101647D01*
D02*
G37*
G36*
X153685Y101790D02*
Y97783D01*
X157692D01*
X157459Y98652D01*
X156758Y99866D01*
X155767Y100856D01*
X154554Y101557D01*
X153685Y101790D01*
D02*
G37*
G36*
X151315D02*
X150446Y101557D01*
X149233Y100856D01*
X148242Y99866D01*
X147541Y98652D01*
X147309Y97783D01*
X151315D01*
Y101790D01*
D02*
G37*
G36*
X59429Y97815D02*
X56945D01*
Y96353D01*
X57079D01*
X57764Y96443D01*
X58402Y96708D01*
X58951Y97128D01*
X59371Y97676D01*
X59429Y97815D01*
D02*
G37*
G36*
X54575D02*
X52091D01*
X52148Y97676D01*
X52569Y97128D01*
X53117Y96708D01*
X53756Y96443D01*
X54441Y96353D01*
X54575D01*
Y97815D01*
D02*
G37*
G36*
X25819Y102038D02*
X23181D01*
X22395Y101934D01*
X21662Y101631D01*
X21033Y101148D01*
X20550Y100519D01*
X20247Y99786D01*
X20143Y99000D01*
X20247Y98214D01*
X20550Y97481D01*
X21033Y96852D01*
X21662Y96369D01*
X22395Y96066D01*
X23181Y95962D01*
X25819D01*
X26605Y96066D01*
X27338Y96369D01*
X27967Y96852D01*
X28450Y97481D01*
X28753Y98214D01*
X28857Y99000D01*
X28753Y99786D01*
X28450Y100519D01*
X27967Y101148D01*
X27338Y101631D01*
X26605Y101934D01*
X25819Y102038D01*
D02*
G37*
G36*
X157692Y95413D02*
X153685D01*
Y91407D01*
X154554Y91640D01*
X155767Y92340D01*
X156758Y93331D01*
X157459Y94545D01*
X157692Y95413D01*
D02*
G37*
G36*
X151315D02*
X147309D01*
X147541Y94545D01*
X148242Y93331D01*
X149233Y92340D01*
X150446Y91640D01*
X151315Y91407D01*
Y95413D01*
D02*
G37*
G36*
X101709Y102307D02*
X90291D01*
Y90890D01*
X101709D01*
Y102307D01*
D02*
G37*
G36*
X57079Y92038D02*
X54441D01*
X53655Y91934D01*
X52922Y91631D01*
X52293Y91148D01*
X51810Y90519D01*
X51507Y89786D01*
X51403Y89000D01*
X51507Y88214D01*
X51810Y87481D01*
X52293Y86852D01*
X52922Y86369D01*
X53655Y86066D01*
X54441Y85962D01*
X57079D01*
X57865Y86066D01*
X58598Y86369D01*
X59227Y86852D01*
X59710Y87481D01*
X60013Y88214D01*
X60116Y89000D01*
X60013Y89786D01*
X59710Y90519D01*
X59227Y91148D01*
X58598Y91631D01*
X57865Y91934D01*
X57079Y92038D01*
D02*
G37*
G36*
X25819D02*
X23181D01*
X22395Y91934D01*
X21662Y91631D01*
X21033Y91148D01*
X20550Y90519D01*
X20247Y89786D01*
X20143Y89000D01*
X20247Y88214D01*
X20550Y87481D01*
X21033Y86852D01*
X21662Y86369D01*
X22395Y86066D01*
X23181Y85962D01*
X25819D01*
X26605Y86066D01*
X27338Y86369D01*
X27967Y86852D01*
X28450Y87481D01*
X28753Y88214D01*
X28857Y89000D01*
X28753Y89786D01*
X28450Y90519D01*
X27967Y91148D01*
X27338Y91631D01*
X26605Y91934D01*
X25819Y92038D01*
D02*
G37*
G36*
X57079Y112038D02*
X54441D01*
X53655Y111934D01*
X52922Y111631D01*
X52293Y111148D01*
X51810Y110519D01*
X51507Y109786D01*
X51403Y109000D01*
X51507Y108214D01*
X51810Y107481D01*
X52293Y106852D01*
X52922Y106369D01*
X53655Y106066D01*
X54441Y105962D01*
X57079D01*
X57255Y105985D01*
X70993Y92247D01*
Y89462D01*
X70348Y89195D01*
X69641Y88652D01*
X69098Y87945D01*
X68757Y87120D01*
X68640Y86236D01*
X68757Y85352D01*
X69098Y84528D01*
X69641Y83820D01*
X70348Y83277D01*
X71172Y82936D01*
X72057Y82820D01*
X73943D01*
X74828Y82936D01*
X75652Y83277D01*
X76359Y83820D01*
X76902Y84528D01*
X77244Y85352D01*
X77360Y86236D01*
X77244Y87120D01*
X76902Y87945D01*
X76359Y88652D01*
X75652Y89195D01*
X75007Y89462D01*
Y93079D01*
X74854Y93847D01*
X74419Y94498D01*
X60093Y108824D01*
X60116Y109000D01*
X60013Y109786D01*
X59710Y110519D01*
X59227Y111148D01*
X58598Y111631D01*
X57865Y111934D01*
X57079Y112038D01*
D02*
G37*
G36*
X126870Y78892D02*
Y77185D01*
X128577D01*
X128574Y77197D01*
X128166Y77903D01*
X127588Y78481D01*
X126882Y78889D01*
X126870Y78892D01*
D02*
G37*
G36*
X124500D02*
X124488Y78889D01*
X123782Y78481D01*
X123204Y77903D01*
X122796Y77197D01*
X122793Y77185D01*
X124500D01*
Y78892D01*
D02*
G37*
G36*
X57079Y82038D02*
X54441D01*
X53655Y81934D01*
X52922Y81631D01*
X52293Y81148D01*
X51810Y80519D01*
X51507Y79786D01*
X51403Y79000D01*
X51507Y78214D01*
X51810Y77481D01*
X52293Y76852D01*
X52922Y76369D01*
X53655Y76066D01*
X54441Y75962D01*
X57079D01*
X57865Y76066D01*
X58598Y76369D01*
X59227Y76852D01*
X59710Y77481D01*
X60013Y78214D01*
X60116Y79000D01*
X60013Y79786D01*
X59710Y80519D01*
X59227Y81148D01*
X58598Y81631D01*
X57865Y81934D01*
X57079Y82038D01*
D02*
G37*
G36*
X25819D02*
X23181D01*
X22395Y81934D01*
X21662Y81631D01*
X21033Y81148D01*
X20550Y80519D01*
X20247Y79786D01*
X20143Y79000D01*
X20247Y78214D01*
X20550Y77481D01*
X21033Y76852D01*
X21662Y76369D01*
X22395Y76066D01*
X23181Y75962D01*
X25819D01*
X26605Y76066D01*
X27338Y76369D01*
X27967Y76852D01*
X28450Y77481D01*
X28753Y78214D01*
X28857Y79000D01*
X28753Y79786D01*
X28450Y80519D01*
X27967Y81148D01*
X27338Y81631D01*
X26605Y81934D01*
X25819Y82038D01*
D02*
G37*
G36*
X128577Y74815D02*
X126870D01*
Y73108D01*
X126882Y73111D01*
X127588Y73519D01*
X128166Y74097D01*
X128574Y74803D01*
X128577Y74815D01*
D02*
G37*
G36*
X124500D02*
X122793D01*
X122796Y74803D01*
X123204Y74097D01*
X123782Y73519D01*
X124488Y73111D01*
X124500Y73108D01*
Y74815D01*
D02*
G37*
G36*
X73943Y79417D02*
X72057D01*
X71172Y79300D01*
X70348Y78959D01*
X69641Y78416D01*
X69098Y77708D01*
X68757Y76884D01*
X68640Y76000D01*
X68757Y75116D01*
X69098Y74292D01*
X69641Y73584D01*
X70348Y73041D01*
X71172Y72700D01*
X72057Y72583D01*
X73943D01*
X74828Y72700D01*
X75652Y73041D01*
X76359Y73584D01*
X76902Y74292D01*
X77244Y75116D01*
X77360Y76000D01*
X77244Y76884D01*
X76902Y77708D01*
X76359Y78416D01*
X75652Y78959D01*
X74828Y79300D01*
X73943Y79417D01*
D02*
G37*
G36*
X106459Y79487D02*
X105541D01*
X104654Y79250D01*
X103859Y78791D01*
X103209Y78141D01*
X102750Y77346D01*
X102513Y76459D01*
Y75541D01*
X102750Y74654D01*
X103209Y73859D01*
X103859Y73209D01*
X104654Y72750D01*
X105541Y72513D01*
X106459D01*
X107346Y72750D01*
X108141Y73209D01*
X108791Y73859D01*
X109250Y74654D01*
X109487Y75541D01*
Y76459D01*
X109250Y77346D01*
X108791Y78141D01*
X108141Y78791D01*
X107346Y79250D01*
X106459Y79487D01*
D02*
G37*
G36*
X57079Y72038D02*
X54441D01*
X53655Y71934D01*
X52922Y71631D01*
X52293Y71148D01*
X51810Y70519D01*
X51507Y69786D01*
X51403Y69000D01*
X51507Y68214D01*
X51810Y67481D01*
X52293Y66852D01*
X52922Y66369D01*
X53655Y66066D01*
X54441Y65962D01*
X57079D01*
X57865Y66066D01*
X58598Y66369D01*
X59227Y66852D01*
X59710Y67481D01*
X60013Y68214D01*
X60116Y69000D01*
X60013Y69786D01*
X59710Y70519D01*
X59227Y71148D01*
X58598Y71631D01*
X57865Y71934D01*
X57079Y72038D01*
D02*
G37*
G36*
X25819D02*
X23181D01*
X22395Y71934D01*
X21662Y71631D01*
X21033Y71148D01*
X20550Y70519D01*
X20247Y69786D01*
X20143Y69000D01*
X20247Y68214D01*
X20550Y67481D01*
X21033Y66852D01*
X21662Y66369D01*
X22395Y66066D01*
X23181Y65962D01*
X25819D01*
X26605Y66066D01*
X27338Y66369D01*
X27967Y66852D01*
X28450Y67481D01*
X28753Y68214D01*
X28857Y69000D01*
X28753Y69786D01*
X28450Y70519D01*
X27967Y71148D01*
X27338Y71631D01*
X26605Y71934D01*
X25819Y72038D01*
D02*
G37*
G36*
X77331Y69151D02*
X68669D01*
Y62376D01*
X77331D01*
Y69151D01*
D02*
G37*
G36*
X25819Y61647D02*
X25685D01*
Y60185D01*
X28169D01*
X28111Y60324D01*
X27691Y60872D01*
X27142Y61292D01*
X26504Y61557D01*
X25819Y61647D01*
D02*
G37*
G36*
X23315D02*
X23181D01*
X22496Y61557D01*
X21858Y61292D01*
X21309Y60872D01*
X20889Y60324D01*
X20831Y60185D01*
X23315D01*
Y61647D01*
D02*
G37*
G36*
X28169Y57815D02*
X25685D01*
Y56353D01*
X25819D01*
X26504Y56443D01*
X27142Y56708D01*
X27691Y57128D01*
X28111Y57677D01*
X28169Y57815D01*
D02*
G37*
G36*
X23315D02*
X20831D01*
X20889Y57677D01*
X21309Y57128D01*
X21858Y56708D01*
X22496Y56443D01*
X23181Y56353D01*
X23315D01*
Y57815D01*
D02*
G37*
G36*
X57079Y62038D02*
X54441D01*
X53655Y61934D01*
X52922Y61631D01*
X52293Y61148D01*
X51810Y60519D01*
X51507Y59786D01*
X51403Y59000D01*
X51507Y58214D01*
X51810Y57481D01*
X52293Y56852D01*
X52922Y56369D01*
X53655Y56066D01*
X54441Y55962D01*
X57079D01*
X57865Y56066D01*
X58598Y56369D01*
X59227Y56852D01*
X59710Y57481D01*
X60013Y58214D01*
X60116Y59000D01*
X60013Y59786D01*
X59710Y60519D01*
X59227Y61148D01*
X58598Y61631D01*
X57865Y61934D01*
X57079Y62038D01*
D02*
G37*
G36*
X153685Y50202D02*
Y48185D01*
X155702D01*
X155668Y48312D01*
X155221Y49088D01*
X154588Y49721D01*
X153812Y50168D01*
X153685Y50202D01*
D02*
G37*
G36*
X146185D02*
Y48185D01*
X148202D01*
X148168Y48312D01*
X147721Y49088D01*
X147088Y49721D01*
X146312Y50168D01*
X146185Y50202D01*
D02*
G37*
G36*
X151315D02*
X151188Y50168D01*
X150412Y49721D01*
X149779Y49088D01*
X149332Y48312D01*
X149298Y48185D01*
X151315D01*
Y50202D01*
D02*
G37*
G36*
X143815D02*
X143688Y50168D01*
X142912Y49721D01*
X142279Y49088D01*
X141832Y48312D01*
X141798Y48185D01*
X143815D01*
Y50202D01*
D02*
G37*
G36*
X176362Y50068D02*
Y48051D01*
X178380D01*
X178346Y48178D01*
X177898Y48954D01*
X177265Y49587D01*
X176489Y50034D01*
X176362Y50068D01*
D02*
G37*
G36*
X168862D02*
Y48051D01*
X170880D01*
X170845Y48178D01*
X170398Y48954D01*
X169765Y49587D01*
X168990Y50034D01*
X168862Y50068D01*
D02*
G37*
G36*
X161362D02*
Y48051D01*
X163380D01*
X163346Y48178D01*
X162898Y48954D01*
X162265Y49587D01*
X161489Y50034D01*
X161362Y50068D01*
D02*
G37*
G36*
X173992D02*
X173865Y50034D01*
X173090Y49587D01*
X172457Y48954D01*
X172009Y48178D01*
X171975Y48051D01*
X173992D01*
Y50068D01*
D02*
G37*
G36*
X166492D02*
X166365Y50034D01*
X165589Y49587D01*
X164956Y48954D01*
X164509Y48178D01*
X164475Y48051D01*
X166492D01*
Y50068D01*
D02*
G37*
G36*
X158992D02*
X158865Y50034D01*
X158089Y49587D01*
X157457Y48954D01*
X157009Y48178D01*
X156975Y48051D01*
X158992D01*
Y50068D01*
D02*
G37*
G36*
X86433Y52787D02*
X85567D01*
X84731Y52563D01*
X83982Y52131D01*
X83369Y51518D01*
X82937Y50769D01*
X82713Y49933D01*
Y49067D01*
X82937Y48231D01*
X83369Y47482D01*
X83982Y46869D01*
X84731Y46437D01*
X85567Y46213D01*
X86433D01*
X87269Y46437D01*
X88019Y46869D01*
X88631Y47482D01*
X89063Y48231D01*
X89287Y49067D01*
Y49933D01*
X89063Y50769D01*
X88631Y51518D01*
X88019Y52131D01*
X87269Y52563D01*
X86433Y52787D01*
D02*
G37*
G36*
X81387D02*
X74813D01*
Y46213D01*
X81387D01*
Y52787D01*
D02*
G37*
G36*
X155702Y45815D02*
X153685D01*
Y43798D01*
X153812Y43832D01*
X154588Y44279D01*
X155221Y44912D01*
X155668Y45688D01*
X155702Y45815D01*
D02*
G37*
G36*
X148202D02*
X146185D01*
Y43798D01*
X146312Y43832D01*
X147088Y44279D01*
X147721Y44912D01*
X148168Y45688D01*
X148202Y45815D01*
D02*
G37*
G36*
X151315D02*
X149298D01*
X149332Y45688D01*
X149779Y44912D01*
X150412Y44279D01*
X151188Y43832D01*
X151315Y43798D01*
Y45815D01*
D02*
G37*
G36*
X143815D02*
X141798D01*
X141832Y45688D01*
X142279Y44912D01*
X142912Y44279D01*
X143688Y43832D01*
X143815Y43798D01*
Y45815D01*
D02*
G37*
G36*
X178380Y45681D02*
X176362D01*
Y43664D01*
X176489Y43698D01*
X177265Y44146D01*
X177898Y44778D01*
X178346Y45554D01*
X178380Y45681D01*
D02*
G37*
G36*
X170880D02*
X168862D01*
Y43664D01*
X168990Y43698D01*
X169765Y44146D01*
X170398Y44778D01*
X170845Y45554D01*
X170880Y45681D01*
D02*
G37*
G36*
X163380D02*
X161362D01*
Y43664D01*
X161489Y43698D01*
X162265Y44146D01*
X162898Y44778D01*
X163346Y45554D01*
X163380Y45681D01*
D02*
G37*
G36*
X173992D02*
X171975D01*
X172009Y45554D01*
X172457Y44778D01*
X173090Y44146D01*
X173865Y43698D01*
X173992Y43664D01*
Y45681D01*
D02*
G37*
G36*
X166492D02*
X164475D01*
X164509Y45554D01*
X164956Y44778D01*
X165589Y44146D01*
X166365Y43698D01*
X166492Y43664D01*
Y45681D01*
D02*
G37*
G36*
X158992D02*
X156975D01*
X157009Y45554D01*
X157457Y44778D01*
X158089Y44146D01*
X158865Y43698D01*
X158992Y43664D01*
Y45681D01*
D02*
G37*
G36*
X198000Y52500D02*
X192500D01*
X189750Y49750D01*
Y44750D01*
X192500Y42000D01*
X198000D01*
X200750Y44750D01*
Y49750D01*
X198000Y52500D01*
D02*
G37*
G36*
X127122Y40724D02*
X125878D01*
X124676Y40402D01*
X123599Y39781D01*
X122720Y38901D01*
X122098Y37824D01*
X121776Y36622D01*
Y35378D01*
X122098Y34176D01*
X122720Y33099D01*
X123599Y32219D01*
X124676Y31598D01*
X125878Y31276D01*
X127122D01*
X128324Y31598D01*
X129401Y32219D01*
X130280Y33099D01*
X130902Y34176D01*
X131224Y35378D01*
Y36622D01*
X130902Y37824D01*
X130280Y38901D01*
X129401Y39781D01*
X128324Y40402D01*
X127122Y40724D01*
D02*
G37*
G36*
X23843Y17061D02*
Y14685D01*
X26219D01*
X26149Y14946D01*
X25655Y15800D01*
X24958Y16498D01*
X24104Y16991D01*
X23843Y17061D01*
D02*
G37*
G36*
X21472D02*
X21211Y16991D01*
X20357Y16498D01*
X19660Y15800D01*
X19166Y14946D01*
X19096Y14685D01*
X21472D01*
Y17061D01*
D02*
G37*
G36*
X147185Y16099D02*
Y14185D01*
X149099D01*
X149075Y14274D01*
X148641Y15026D01*
X148026Y15641D01*
X147274Y16075D01*
X147185Y16099D01*
D02*
G37*
G36*
X144815D02*
X144726Y16075D01*
X143974Y15641D01*
X143359Y15026D01*
X142925Y14274D01*
X142901Y14185D01*
X144815D01*
Y16099D01*
D02*
G37*
G36*
X26219Y12315D02*
X23843D01*
Y9939D01*
X24104Y10009D01*
X24958Y10502D01*
X25655Y11200D01*
X26149Y12054D01*
X26219Y12315D01*
D02*
G37*
G36*
X21472D02*
X19096D01*
X19166Y12054D01*
X19660Y11200D01*
X20357Y10502D01*
X21211Y10009D01*
X21472Y9939D01*
Y12315D01*
D02*
G37*
G36*
X149099Y11815D02*
X147185D01*
Y9901D01*
X147274Y9925D01*
X148026Y10359D01*
X148641Y10974D01*
X149075Y11726D01*
X149099Y11815D01*
D02*
G37*
G36*
X144815D02*
X142901D01*
X142925Y11726D01*
X143359Y10974D01*
X143974Y10359D01*
X144726Y9925D01*
X144815Y9901D01*
Y11815D01*
D02*
G37*
G36*
X92122Y19224D02*
X90878D01*
X89676Y18902D01*
X88599Y18281D01*
X87720Y17401D01*
X87098Y16324D01*
X86776Y15122D01*
Y13878D01*
X87098Y12676D01*
X87720Y11599D01*
X88599Y10719D01*
X89676Y10097D01*
X90878Y9776D01*
X92122D01*
X93324Y10097D01*
X94401Y10719D01*
X95280Y11599D01*
X95902Y12676D01*
X96224Y13878D01*
Y15122D01*
X95902Y16324D01*
X95280Y17401D01*
X94401Y18281D01*
X93324Y18902D01*
X92122Y19224D01*
D02*
G37*
G36*
X156485Y16687D02*
X155515D01*
X154577Y16436D01*
X153736Y15951D01*
X153049Y15264D01*
X152564Y14423D01*
X152313Y13486D01*
Y12515D01*
X152564Y11577D01*
X153049Y10736D01*
X153736Y10049D01*
X154577Y9564D01*
X155515Y9313D01*
X156485D01*
X157423Y9564D01*
X158264Y10049D01*
X158951Y10736D01*
X159436Y11577D01*
X159687Y12515D01*
Y13486D01*
X159436Y14423D01*
X158951Y15264D01*
X158264Y15951D01*
X157423Y16436D01*
X156485Y16687D01*
D02*
G37*
G36*
X48500Y19803D02*
X33500D01*
X33193Y19742D01*
X32932Y19568D01*
X32758Y19307D01*
X32697Y19000D01*
Y17634D01*
X28366D01*
Y9366D01*
X32697D01*
Y8500D01*
X32758Y8193D01*
X32932Y7932D01*
X33193Y7758D01*
X33500Y7697D01*
X48500D01*
X48807Y7758D01*
X49068Y7932D01*
X49242Y8193D01*
X49303Y8500D01*
Y19000D01*
X49242Y19307D01*
X49068Y19568D01*
X48807Y19742D01*
X48500Y19803D01*
D02*
G37*
%LPD*%
G36*
X402293Y243837D02*
X402059Y244061D01*
X401820Y244261D01*
X401576Y244438D01*
X401326Y244591D01*
X401071Y244721D01*
X400810Y244827D01*
X400545Y244910D01*
X400274Y244969D01*
X399998Y245004D01*
X399716Y245016D01*
Y246984D01*
X399998Y246996D01*
X400274Y247031D01*
X400545Y247090D01*
X400810Y247173D01*
X401071Y247279D01*
X401326Y247409D01*
X401576Y247562D01*
X401820Y247739D01*
X402059Y247939D01*
X402293Y248163D01*
Y243837D01*
D02*
G37*
G36*
Y233837D02*
X402059Y234061D01*
X401820Y234261D01*
X401576Y234438D01*
X401326Y234591D01*
X401071Y234721D01*
X400810Y234827D01*
X400545Y234910D01*
X400274Y234969D01*
X399998Y235004D01*
X399716Y235016D01*
Y236984D01*
X399998Y236996D01*
X400274Y237031D01*
X400545Y237090D01*
X400810Y237173D01*
X401071Y237279D01*
X401326Y237409D01*
X401576Y237562D01*
X401820Y237739D01*
X402059Y237939D01*
X402293Y238163D01*
Y233837D01*
D02*
G37*
G36*
X114840Y247505D02*
X114663Y247297D01*
X114505Y247048D01*
X114367Y246756D01*
X114248Y246422D01*
X114147Y246047D01*
X114067Y245629D01*
X114005Y245170D01*
X113940Y244125D01*
X113937Y243539D01*
X110039Y247437D01*
X110625Y247440D01*
X111670Y247505D01*
X112129Y247567D01*
X112547Y247648D01*
X112922Y247747D01*
X113256Y247867D01*
X113548Y248005D01*
X113797Y248163D01*
X114005Y248340D01*
X114840Y247505D01*
D02*
G37*
G36*
X224195Y237964D02*
X224370Y237815D01*
X224453Y237755D01*
X224534Y237705D01*
X224612Y237663D01*
X224688Y237631D01*
X224761Y237608D01*
X224831Y237595D01*
X224898Y237591D01*
X223729Y236422D01*
X223725Y236489D01*
X223712Y236560D01*
X223689Y236632D01*
X223657Y236708D01*
X223615Y236786D01*
X223565Y236867D01*
X223504Y236950D01*
X223435Y237036D01*
X223268Y237217D01*
X224103Y238052D01*
X224195Y237964D01*
D02*
G37*
G36*
X225692Y235516D02*
X225652Y235457D01*
X225616Y235389D01*
X225586Y235313D01*
X225560Y235229D01*
X225538Y235136D01*
X225522Y235034D01*
X225510Y234924D01*
X225500Y234679D01*
X224319D01*
X224317Y234805D01*
X224298Y235034D01*
X224282Y235136D01*
X224260Y235229D01*
X224234Y235313D01*
X224204Y235389D01*
X224168Y235457D01*
X224128Y235516D01*
X224083Y235566D01*
X225737D01*
X225692Y235516D01*
D02*
G37*
G36*
X220785Y233054D02*
X220960Y232906D01*
X221043Y232845D01*
X221124Y232795D01*
X221202Y232753D01*
X221278Y232721D01*
X221351Y232698D01*
X221421Y232685D01*
X221488Y232681D01*
X220319Y231512D01*
X220315Y231579D01*
X220302Y231649D01*
X220279Y231722D01*
X220247Y231798D01*
X220205Y231876D01*
X220155Y231957D01*
X220094Y232040D01*
X220025Y232126D01*
X219858Y232307D01*
X220693Y233142D01*
X220785Y233054D01*
D02*
G37*
G36*
X114840Y232505D02*
X114663Y232297D01*
X114505Y232048D01*
X114367Y231756D01*
X114248Y231422D01*
X114147Y231047D01*
X114067Y230629D01*
X114005Y230170D01*
X113940Y229125D01*
X113937Y228539D01*
X110039Y232437D01*
X110625Y232440D01*
X111670Y232505D01*
X112129Y232567D01*
X112547Y232647D01*
X112922Y232748D01*
X113256Y232867D01*
X113548Y233005D01*
X113797Y233163D01*
X114005Y233340D01*
X114840Y232505D01*
D02*
G37*
G36*
X303747Y225583D02*
X303660Y225665D01*
X303572Y225739D01*
X303480Y225804D01*
X303386Y225860D01*
X303290Y225908D01*
X303190Y225947D01*
X303089Y225977D01*
X302984Y225999D01*
X302877Y226012D01*
X302768Y226016D01*
Y226804D01*
X302877Y226808D01*
X302984Y226821D01*
X303089Y226843D01*
X303190Y226873D01*
X303290Y226912D01*
X303386Y226960D01*
X303480Y227016D01*
X303572Y227081D01*
X303660Y227154D01*
X303747Y227237D01*
Y225583D01*
D02*
G37*
G36*
X210721Y240792D02*
X210808Y240356D01*
X211112Y239901D01*
X219440Y231574D01*
X219456Y231553D01*
X219488Y231508D01*
X219510Y231474D01*
X219520Y231455D01*
X219525Y231435D01*
X219526Y231429D01*
X219528Y231426D01*
X219531Y231411D01*
Y231108D01*
X219831Y230385D01*
X220385Y229831D01*
X221108Y229532D01*
X221892D01*
X222615Y229831D01*
X223105Y230321D01*
X223407Y230253D01*
X223505Y230199D01*
Y222090D01*
X223612Y221552D01*
X223701Y221420D01*
X223390Y221164D01*
X199277Y245277D01*
X198691Y245669D01*
X198000Y245806D01*
X188248D01*
X185267Y248788D01*
X185420Y249157D01*
X202356D01*
X210721Y240792D01*
D02*
G37*
G36*
X230841Y211839D02*
X230873Y211545D01*
X230925Y211273D01*
X230998Y211022D01*
X231091Y210792D01*
X231206Y210584D01*
X231341Y210397D01*
X231498Y210231D01*
X231675Y210086D01*
X231872Y209963D01*
X227864Y209807D01*
X228053Y209947D01*
X228223Y210107D01*
X228373Y210289D01*
X228503Y210492D01*
X228613Y210716D01*
X228703Y210961D01*
X228773Y211228D01*
X228822Y211515D01*
X228853Y211824D01*
X228863Y212153D01*
X230831D01*
X230841Y211839D01*
D02*
G37*
G36*
X239593Y206104D02*
X239612Y205876D01*
X239628Y205774D01*
X239650Y205681D01*
X239676Y205597D01*
X239706Y205521D01*
X239742Y205453D01*
X239782Y205394D01*
X239827Y205344D01*
X238173D01*
X238218Y205394D01*
X238258Y205453D01*
X238294Y205521D01*
X238324Y205597D01*
X238350Y205681D01*
X238372Y205774D01*
X238388Y205876D01*
X238400Y205986D01*
X238409Y206231D01*
X239591D01*
X239593Y206104D01*
D02*
G37*
G36*
X367189Y237244D02*
X366843Y237581D01*
X366157Y238148D01*
X365817Y238378D01*
X365480Y238573D01*
X365145Y238733D01*
X364812Y238857D01*
X364481Y238945D01*
X364152Y238998D01*
X363826Y239016D01*
Y240985D01*
X364152Y241002D01*
X364481Y241055D01*
X364812Y241144D01*
X365145Y241268D01*
X365480Y241427D01*
X365817Y241622D01*
X366157Y241853D01*
X366498Y242118D01*
X366843Y242420D01*
X367189Y242756D01*
Y237244D01*
D02*
G37*
G36*
X362239Y208035D02*
X362217Y208221D01*
X362153Y208388D01*
X362045Y208535D01*
X361893Y208663D01*
X361699Y208771D01*
X361461Y208859D01*
X361181Y208927D01*
X360857Y208977D01*
X360490Y209006D01*
X360079Y209016D01*
Y210984D01*
X360490Y210994D01*
X360857Y211023D01*
X361181Y211072D01*
X361461Y211141D01*
X361699Y211229D01*
X361893Y211337D01*
X362045Y211465D01*
X362153Y211612D01*
X362217Y211779D01*
X362239Y211965D01*
Y208035D01*
D02*
G37*
G36*
X384027Y206251D02*
X383915Y206402D01*
X383778Y206501D01*
X383615Y206545D01*
X383426Y206536D01*
X383210Y206472D01*
X382969Y206356D01*
X382701Y206185D01*
X382408Y205961D01*
X382088Y205683D01*
X381743Y205351D01*
X380707Y207099D01*
X381052Y207458D01*
X381603Y208119D01*
X381808Y208420D01*
X381966Y208703D01*
X382078Y208967D01*
X382143Y209212D01*
X382162Y209437D01*
X382134Y209644D01*
X382060Y209832D01*
X384027Y206251D01*
D02*
G37*
G36*
X27410Y120419D02*
X27473Y120287D01*
X27576Y120170D01*
X27721Y120068D01*
X27908Y119982D01*
X28136Y119912D01*
X28405Y119858D01*
X28716Y119819D01*
X29068Y119795D01*
X29462Y119787D01*
Y118213D01*
X29068Y118205D01*
X28405Y118142D01*
X28136Y118088D01*
X27908Y118018D01*
X27721Y117932D01*
X27576Y117830D01*
X27473Y117713D01*
X27410Y117581D01*
X27390Y117432D01*
Y120568D01*
X27410Y120419D01*
D02*
G37*
G36*
X33127Y117425D02*
X33111Y117575D01*
X33063Y117709D01*
X32984Y117827D01*
X32873Y117929D01*
X32730Y118016D01*
X32555Y118087D01*
X32349Y118142D01*
X32111Y118181D01*
X31841Y118205D01*
X31540Y118213D01*
Y119787D01*
X31841Y119795D01*
X32111Y119819D01*
X32349Y119858D01*
X32555Y119913D01*
X32730Y119984D01*
X32873Y120071D01*
X32984Y120173D01*
X33063Y120291D01*
X33111Y120425D01*
X33127Y120575D01*
Y117425D01*
D02*
G37*
G54D11*
X86327Y203224D02*
X89929Y199622D01*
X261571D01*
X283359Y221410D01*
X304590D01*
Y226410D02*
X286410D01*
X261000Y201000D01*
X90500Y201000D01*
X84500Y207000D01*
X67500Y207000D01*
X59000Y198500D01*
X69000D02*
X73724Y203224D01*
X86327D01*
G54D15*
X43634Y119000D02*
Y152634D01*
X66500Y175500D01*
X175000D01*
X212106Y240894D02*
Y241394D01*
X202938Y250562D01*
X132062D01*
X110000Y228500D01*
Y243500D02*
X120000Y253500D01*
X207820D01*
X224910Y236410D01*
Y222090D01*
X239000Y208000D01*
Y204500D01*
X221500Y231500D02*
X212106Y240894D01*
G54D18*
X164500Y238170D02*
X179349D01*
X179355Y238165D01*
X183595D01*
X188260Y233500D01*
X202500D01*
X224500Y211500D01*
X229847Y212153D02*
X198000Y244000D01*
X187500D01*
X183336Y248164D01*
X164500D01*
X229847Y212153D02*
Y206653D01*
X230000Y206500D01*
X235000Y221500D02*
X246500Y233000D01*
X336000D01*
X359000Y210000D01*
X365000D01*
X379000Y204000D02*
X385000Y210000D01*
X379000Y204000D02*
X331000D01*
X323500Y211500D01*
X354932Y236433D02*
X358500Y240000D01*
X370000D01*
X386362Y236000D02*
X404500D01*
Y246000D02*
X381000D01*
X365500Y261500D01*
X322500D01*
Y256500D02*
X365862D01*
X386362Y236000D01*
X362500Y250500D02*
X353432Y241432D01*
X322432D01*
Y236433D02*
X354932D01*
G54D21*
X145000Y47000D02*
D03*
X152500D02*
D03*
X160177Y46866D02*
D03*
X167677D02*
D03*
X175177D02*
D03*
X180000Y136000D02*
D03*
X172000D02*
D03*
X164000D02*
D03*
X153000Y135500D02*
D03*
X145500D02*
D03*
G54D22*
X35366Y119000D02*
D03*
X43634D02*
D03*
G54D43*
X73000Y76000D02*
D03*
Y86236D02*
D03*
X175000Y165264D02*
D03*
Y175500D02*
D03*
G54D44*
X73000Y65764D02*
D03*
X175000Y185736D02*
D03*
G54D52*
X177000Y275500D02*
D03*
G54D57*
X404500Y256000D02*
D03*
G54D58*
X404500Y226000D02*
D03*
Y236000D02*
D03*
Y246000D02*
D03*
G54D66*
X136000Y13000D02*
D03*
X146000D02*
D03*
X156000D02*
D03*
G54D67*
X106000Y76000D02*
D03*
X125685D02*
D03*
G54D69*
X78100Y49500D02*
D03*
G54D70*
X86000Y49500D02*
D03*
G54D72*
X70750Y86236D02*
X71689D01*
X73000Y87547D01*
Y93079D01*
X57079Y109000D01*
X55493D01*
G54D73*
X24500Y119000D02*
X35366D01*
G54D74*
X317000Y76500D02*
X317030Y76530D01*
X362590D01*
G54D75*
X317000Y137500D02*
Y158500D01*
X327000Y168500D01*
X335500D01*
G54D76*
X41000Y13750D02*
D03*
G54D81*
X152500Y96598D02*
D03*
X151906Y184000D02*
D03*
G54D82*
X96000Y96598D02*
D03*
Y184000D02*
D03*
G54D83*
X32500Y13500D02*
D03*
G54D84*
X22658Y13500D02*
D03*
G54D85*
X24500Y59000D02*
D03*
Y69000D02*
D03*
Y79000D02*
D03*
Y89000D02*
D03*
Y99000D02*
D03*
Y109000D02*
D03*
Y119000D02*
D03*
X55760Y69000D02*
D03*
Y59000D02*
D03*
Y79000D02*
D03*
Y89000D02*
D03*
Y99000D02*
D03*
Y109000D02*
D03*
Y119000D02*
D03*
Y129000D02*
D03*
G54D86*
X24500Y129000D02*
D03*
G54D87*
X59000Y198500D02*
D03*
X69000D02*
D03*
X79000D02*
D03*
X49000D02*
D03*
X39000D02*
D03*
X29000D02*
D03*
X89000Y284602D02*
D03*
X79000D02*
D03*
X69000D02*
D03*
X59000D02*
D03*
X49000D02*
D03*
X39000D02*
D03*
G54D88*
X499500Y25000D02*
D03*
X490315Y256000D02*
D03*
G54D89*
X479815Y25000D02*
D03*
X510000Y256000D02*
D03*
G54D90*
X177000Y257784D02*
D03*
X202591D02*
D03*
Y275500D02*
D03*
G54D91*
X12000Y119000D02*
D03*
X79000Y111500D02*
D03*
X39000Y165000D02*
D03*
X110000Y228500D02*
D03*
X124693Y221193D02*
D03*
X143000Y217004D02*
D03*
X199000Y193000D02*
D03*
X230000Y206500D02*
D03*
X334500Y221000D02*
D03*
X370000Y240000D02*
D03*
X385500Y161000D02*
D03*
X110000Y243500D02*
D03*
X126500Y36000D02*
D03*
X91500Y14500D02*
D03*
G54D92*
X131500Y263500D02*
D03*
X373500Y269000D02*
D03*
G54D93*
X145280Y263500D02*
D03*
X387280Y269000D02*
D03*
G54D94*
X195267Y47396D02*
D03*
Y136372D02*
D03*
X362590Y107238D02*
D03*
G54D95*
X362590Y76530D02*
D03*
G54D96*
X465122Y124516D02*
D03*
X533622D02*
D03*
G54D97*
X441500Y132390D02*
D03*
X510000D02*
D03*
G54D98*
X417878Y76484D02*
D03*
X465122D02*
D03*
X486378D02*
D03*
X533622D02*
D03*
X486378Y124516D02*
D03*
X417878D02*
D03*
G54D99*
X335500Y198500D02*
D03*
X345500D02*
D03*
X355500D02*
D03*
Y168500D02*
D03*
X345500D02*
D03*
G54D100*
X335500Y168500D02*
D03*
G54D101*
X12000Y76500D02*
D03*
X38000Y16500D02*
D03*
X42000D02*
D03*
X46000D02*
D03*
Y12500D02*
D03*
X42000D02*
D03*
X38500D02*
D03*
X50244Y146303D02*
D03*
X102704Y180944D02*
D03*
X106204D02*
D03*
X109722Y180917D02*
D03*
X113222D02*
D03*
X116400Y180956D02*
D03*
X119918Y180929D02*
D03*
X123418D02*
D03*
X134732Y214768D02*
D03*
X164500Y238170D02*
D03*
X178000Y217000D02*
D03*
X181000D02*
D03*
Y212500D02*
D03*
X178000D02*
D03*
X183799Y204514D02*
D03*
X194112Y208537D02*
D03*
X221500Y231500D02*
D03*
X224500Y211500D02*
D03*
X239000Y204500D02*
D03*
X264000Y240510D02*
D03*
X282180Y199000D02*
D03*
X277760Y183760D02*
D03*
X323500Y211500D02*
D03*
X345366Y230634D02*
D03*
X361135Y221000D02*
D03*
X369866Y198000D02*
D03*
X393634Y188259D02*
D03*
X403260Y161740D02*
D03*
X410740Y158760D02*
D03*
X439500Y161500D02*
D03*
X439000Y166500D02*
D03*
X439495Y153891D02*
D03*
X440000Y146500D02*
D03*
X442500Y141500D02*
D03*
X442610Y150816D02*
D03*
X443500Y157500D02*
D03*
X441500Y174500D02*
D03*
X453500Y191000D02*
D03*
X459000Y192000D02*
D03*
X465000Y190500D02*
D03*
X467500Y193500D02*
D03*
X470500Y196000D02*
D03*
X473500Y199500D02*
D03*
X476000Y202000D02*
D03*
X467500Y209000D02*
D03*
X509500Y184500D02*
D03*
Y172000D02*
D03*
Y159500D02*
D03*
Y148000D02*
D03*
X510000Y195000D02*
D03*
Y205500D02*
D03*
Y215500D02*
D03*
Y225000D02*
D03*
Y235000D02*
D03*
Y244000D02*
D03*
X465000Y206500D02*
D03*
X462000Y203000D02*
D03*
X459000Y200500D02*
D03*
X456500Y197500D02*
D03*
X452500D02*
D03*
X448500D02*
D03*
X444500D02*
D03*
X440500D02*
D03*
X436500D02*
D03*
X438390Y192000D02*
D03*
X437500Y178500D02*
D03*
X435000Y170500D02*
D03*
X410756Y196256D02*
D03*
X362500Y250500D02*
D03*
X321500Y276500D02*
D03*
X322500Y261500D02*
D03*
Y256500D02*
D03*
X338000Y250500D02*
D03*
X322432Y241432D02*
D03*
Y236433D02*
D03*
X304590Y226410D02*
D03*
Y221410D02*
D03*
X282000Y251500D02*
D03*
X275666Y246023D02*
D03*
X273000Y255000D02*
D03*
X272980Y237020D02*
D03*
X281980Y240490D02*
D03*
X264000Y246020D02*
D03*
Y251530D02*
D03*
X250090Y276410D02*
D03*
X230740Y253740D02*
D03*
X224910Y236410D02*
D03*
X235000Y221500D02*
D03*
X223260Y253260D02*
D03*
X215020Y271500D02*
D03*
X194454Y248200D02*
D03*
X194123Y238165D02*
D03*
X194105Y218484D02*
D03*
X187240Y222000D02*
D03*
X181000Y221500D02*
D03*
X178000D02*
D03*
X164500Y248164D02*
D03*
X144000Y235000D02*
D03*
X149533Y224967D02*
D03*
X129827Y228673D02*
D03*
X207000Y159500D02*
D03*
X219500Y165000D02*
D03*
X239500Y162500D02*
D03*
X422077Y70781D02*
D03*
X426500Y70500D02*
D03*
Y66000D02*
D03*
X431000D02*
D03*
Y61500D02*
D03*
X435500Y62000D02*
D03*
Y57500D02*
D03*
X439000D02*
D03*
Y53500D02*
D03*
X447500Y45000D02*
D03*
X451500D02*
D03*
Y40000D02*
D03*
X456000Y41000D02*
D03*
Y36000D02*
D03*
X461500Y34500D02*
D03*
Y29500D02*
D03*
X466000Y31500D02*
D03*
X467000Y25500D02*
D03*
X472000Y27000D02*
D03*
X501000Y34000D02*
D03*
X497644Y37928D02*
D03*
X501500Y42000D02*
D03*
X498000Y46000D02*
D03*
Y53500D02*
D03*
X501500Y50500D02*
D03*
Y58000D02*
D03*
X497500Y61500D02*
D03*
X498500Y67500D02*
D03*
X494000Y67000D02*
D03*
X443500Y54000D02*
D03*
Y49500D02*
D03*
X447500D02*
D03*
G54D134*
X317000Y76500D02*
D03*
Y137500D02*
D03*
G54D135*
X365000Y210000D02*
D03*
X375000D02*
D03*
X385000D02*
D03*
M02*
