G04*
G04 #@! TF.GenerationSoftware,Altium Limited,Altium Designer,24.5.2 (23)*
G04*
G04 Layer_Color=255*
%FSLAX25Y25*%
%MOIN*%
G70*
G04*
G04 #@! TF.SameCoordinates,5A7CA482-B8EE-4E14-9011-BDAD66A85337*
G04*
G04*
G04 #@! TF.FilePolarity,Positive*
G04*
G01*
G75*
%ADD26R,0.05906X0.04528*%
%ADD29C,0.06000*%
%ADD44O,0.07087X0.05200*%
%ADD45R,0.07087X0.05200*%
%ADD53R,0.05900X0.05900*%
%ADD57R,0.06181X0.06181*%
%ADD58C,0.06181*%
%ADD66C,0.05800*%
%ADD67C,0.05400*%
%ADD69R,0.05000X0.05000*%
%ADD70C,0.05000*%
%ADD81C,0.07874*%
%ADD82C,0.09843*%
%ADD83R,0.09843X0.09843*%
%ADD84R,0.06693X0.06693*%
%ADD85C,0.06693*%
%ADD86O,0.07087X0.04449*%
%ADD87R,0.07087X0.04449*%
%ADD88C,0.07480*%
%ADD89C,0.08268*%
%ADD90R,0.08268X0.08268*%
%ADD91C,0.05900*%
%ADD92R,0.07087X0.09843*%
%ADD93O,0.07087X0.09843*%
%ADD94C,0.07677*%
%ADD95R,0.07677X0.07677*%
%ADD96R,0.07795X0.07795*%
%ADD97C,0.07618*%
%ADD98C,0.07795*%
%ADD99C,0.05512*%
%ADD100R,0.05512X0.05512*%
%ADD134R,0.13400X0.17700*%
%ADD136O,0.05900X0.07874*%
G54D26*
X40500Y119000D02*
D03*
Y127268D02*
D03*
G54D29*
X145000Y47000D02*
D03*
X152500D02*
D03*
X160177Y46866D02*
D03*
X167677D02*
D03*
X175177D02*
D03*
X180000Y136000D02*
D03*
X172000D02*
D03*
X164000D02*
D03*
X153000Y135500D02*
D03*
X145500D02*
D03*
G54D44*
X73000Y76000D02*
D03*
Y86236D02*
D03*
X175000Y165264D02*
D03*
Y175500D02*
D03*
G54D45*
X73000Y65764D02*
D03*
X175000Y185736D02*
D03*
G54D53*
X177000Y275500D02*
D03*
G54D57*
X404500Y256000D02*
D03*
G54D58*
X404500Y226000D02*
D03*
Y236000D02*
D03*
Y246000D02*
D03*
G54D66*
X136000Y13000D02*
D03*
X146000D02*
D03*
X156000D02*
D03*
G54D67*
X106000Y76000D02*
D03*
X125685D02*
D03*
G54D69*
X78100Y49500D02*
D03*
G54D70*
X86000Y49500D02*
D03*
G54D81*
X12000Y119000D02*
D03*
X73500Y123000D02*
D03*
X39000Y165000D02*
D03*
X112500Y208000D02*
D03*
X121000Y222500D02*
D03*
X110000Y228500D02*
D03*
Y243500D02*
D03*
X192500Y191500D02*
D03*
X232125Y206125D02*
D03*
X296500Y182500D02*
D03*
X329500Y221000D02*
D03*
X370000Y240000D02*
D03*
X126500Y36000D02*
D03*
X91500Y14500D02*
D03*
G54D82*
X152500Y96598D02*
D03*
X151906Y184000D02*
D03*
G54D83*
X96000Y96598D02*
D03*
Y184000D02*
D03*
G54D84*
X32500Y13500D02*
D03*
G54D85*
X22658Y13500D02*
D03*
G54D86*
X24500Y59000D02*
D03*
Y69000D02*
D03*
Y79000D02*
D03*
Y89000D02*
D03*
Y99000D02*
D03*
Y109000D02*
D03*
Y119000D02*
D03*
X55760Y69000D02*
D03*
Y59000D02*
D03*
Y79000D02*
D03*
Y89000D02*
D03*
Y99000D02*
D03*
Y109000D02*
D03*
Y119000D02*
D03*
Y129000D02*
D03*
G54D87*
X24500Y129000D02*
D03*
G54D88*
X59000Y198500D02*
D03*
X69000D02*
D03*
X79000D02*
D03*
X49000D02*
D03*
X39000D02*
D03*
X29000D02*
D03*
X89000Y284602D02*
D03*
X79000D02*
D03*
X69000D02*
D03*
X59000D02*
D03*
X49000D02*
D03*
X39000D02*
D03*
G54D89*
X499500Y25000D02*
D03*
X490315Y256000D02*
D03*
G54D90*
X479815Y25000D02*
D03*
X510000Y256000D02*
D03*
G54D91*
X177000Y257784D02*
D03*
X202591D02*
D03*
Y275500D02*
D03*
G54D92*
X131500Y263500D02*
D03*
X373500Y269000D02*
D03*
G54D93*
X145280Y263500D02*
D03*
X387280Y269000D02*
D03*
G54D94*
X195267Y47396D02*
D03*
Y136372D02*
D03*
X362590Y107238D02*
D03*
G54D95*
X362590Y76530D02*
D03*
G54D96*
X465122Y124516D02*
D03*
X533622D02*
D03*
G54D97*
X441500Y132390D02*
D03*
X510000D02*
D03*
G54D98*
X417878Y76484D02*
D03*
X465122D02*
D03*
X486378D02*
D03*
X533622D02*
D03*
X486378Y124516D02*
D03*
X417878D02*
D03*
G54D99*
X335500Y198500D02*
D03*
X345500D02*
D03*
X355500D02*
D03*
Y168500D02*
D03*
X345500D02*
D03*
G54D100*
X335500Y168500D02*
D03*
G54D134*
X317000Y76500D02*
D03*
Y137500D02*
D03*
G54D136*
X365000Y210000D02*
D03*
X375000D02*
D03*
X385000D02*
D03*
M02*
