G04*
G04 #@! TF.GenerationSoftware,Altium Limited,Altium Designer,24.5.2 (23)*
G04*
G04 Layer_Color=255*
%FSLAX25Y25*%
%MOIN*%
G70*
G04*
G04 #@! TF.SameCoordinates,B8CE7D74-02EB-4A57-BDCD-CCA5CBEBB7DD*
G04*
G04*
G04 #@! TF.FilePolarity,Positive*
G04*
G01*
G75*
%ADD25R,0.02000X0.05200*%
%ADD26R,0.05900X0.03500*%
%ADD27R,0.03500X0.05900*%
%ADD28R,0.03500X0.03500*%
%ADD29R,0.00984X0.01968*%
%ADD30R,0.04528X0.05906*%
%ADD31R,0.05118X0.05906*%
%ADD32R,0.03500X0.03200*%
G04:AMPARAMS|DCode=33|XSize=77.56mil|YSize=23.62mil|CornerRadius=2.95mil|HoleSize=0mil|Usage=FLASHONLY|Rotation=180.000|XOffset=0mil|YOffset=0mil|HoleType=Round|Shape=RoundedRectangle|*
%AMROUNDEDRECTD33*
21,1,0.07756,0.01772,0,0,180.0*
21,1,0.07165,0.02362,0,0,180.0*
1,1,0.00591,-0.03583,0.00886*
1,1,0.00591,0.03583,0.00886*
1,1,0.00591,0.03583,-0.00886*
1,1,0.00591,-0.03583,-0.00886*
%
%ADD33ROUNDEDRECTD33*%
%ADD34R,0.03200X0.03500*%
%ADD35R,0.04750X0.02000*%
%ADD36R,0.05906X0.04528*%
%ADD37R,0.03740X0.04724*%
%ADD46O,0.05200X0.07087*%
%ADD47R,0.05200X0.07087*%
%ADD52R,0.05900X0.05900*%
%ADD56O,0.05906X0.07874*%
%ADD57R,0.06181X0.06181*%
%ADD58C,0.06181*%
%ADD66C,0.05800*%
%ADD67R,0.05000X0.05000*%
%ADD68C,0.05000*%
%ADD72C,0.05400*%
%ADD75R,0.06299X0.03543*%
%ADD85C,0.07480*%
%ADD86O,0.05906X0.07874*%
%ADD87C,0.08268*%
%ADD88R,0.08268X0.08268*%
%ADD89C,0.05900*%
%ADD90C,0.07874*%
%ADD91R,0.07087X0.09843*%
%ADD92O,0.07087X0.09843*%
%ADD93C,0.07677*%
%ADD94R,0.07677X0.07677*%
%ADD95R,0.07795X0.07795*%
%ADD96C,0.07618*%
%ADD97C,0.07795*%
%ADD98C,0.05512*%
%ADD99R,0.05512X0.05512*%
%ADD100O,0.07087X0.05100*%
%ADD101R,0.07087X0.05100*%
%ADD102R,0.03347X0.03347*%
%ADD103C,0.03347*%
%ADD104C,0.01968*%
%ADD105C,0.06000*%
G54D25*
X152949Y195949D02*
D03*
X158067D02*
D03*
X155508Y204649D02*
D03*
G54D26*
X244450Y211410D02*
D03*
Y216410D02*
D03*
Y221410D02*
D03*
Y226410D02*
D03*
Y231410D02*
D03*
Y236410D02*
D03*
Y241410D02*
D03*
Y246410D02*
D03*
Y251410D02*
D03*
Y256410D02*
D03*
Y261410D02*
D03*
Y266410D02*
D03*
Y271410D02*
D03*
Y276410D02*
D03*
X313350Y216410D02*
D03*
Y211410D02*
D03*
Y221410D02*
D03*
Y226410D02*
D03*
Y231410D02*
D03*
Y236410D02*
D03*
Y241410D02*
D03*
Y246410D02*
D03*
Y251410D02*
D03*
Y256410D02*
D03*
Y261410D02*
D03*
Y266410D02*
D03*
Y271410D02*
D03*
Y276410D02*
D03*
G54D27*
X256400Y206485D02*
D03*
X261400D02*
D03*
X266400D02*
D03*
X271400D02*
D03*
X276400D02*
D03*
X281400D02*
D03*
X286400D02*
D03*
X291400D02*
D03*
X296400D02*
D03*
X301400D02*
D03*
G54D28*
X267480Y240500D02*
D03*
X272990D02*
D03*
X278500D02*
D03*
Y246010D02*
D03*
Y251520D02*
D03*
X272990D02*
D03*
Y246010D02*
D03*
X267480D02*
D03*
Y251520D02*
D03*
G54D29*
X94197Y145339D02*
D03*
X96165D02*
D03*
X98134D02*
D03*
X100102D02*
D03*
Y152819D02*
D03*
X98134D02*
D03*
X96165D02*
D03*
X94197D02*
D03*
G54D30*
X93681Y134078D02*
D03*
X101949D02*
D03*
X104449Y164578D02*
D03*
X96181D02*
D03*
X134685Y195949D02*
D03*
X142953D02*
D03*
X143000Y206500D02*
D03*
X134732D02*
D03*
X167866Y204500D02*
D03*
X176134D02*
D03*
X200612Y208537D02*
D03*
X208880D02*
D03*
X227972Y191740D02*
D03*
X236240D02*
D03*
X208873Y218484D02*
D03*
X200605D02*
D03*
X200623Y228350D02*
D03*
X208890D02*
D03*
X208890Y238165D02*
D03*
X200623D02*
D03*
X187623Y248164D02*
D03*
X179356D02*
D03*
X179355Y238165D02*
D03*
X187623D02*
D03*
X114268Y49500D02*
D03*
X106000D02*
D03*
X345500Y221000D02*
D03*
X353768D02*
D03*
X353634Y240000D02*
D03*
X345366D02*
D03*
X376732Y198000D02*
D03*
X385000D02*
D03*
X385366Y182000D02*
D03*
Y171500D02*
D03*
X393634D02*
D03*
Y182000D02*
D03*
X353634Y250500D02*
D03*
X345366D02*
D03*
G54D31*
X75112Y145339D02*
D03*
X75075Y160079D02*
D03*
X82555D02*
D03*
X82593Y145339D02*
D03*
X39000Y178500D02*
D03*
X31520D02*
D03*
X136520Y228673D02*
D03*
X144000D02*
D03*
X179760Y228500D02*
D03*
X187240D02*
D03*
X200954Y248200D02*
D03*
X208434D02*
D03*
X223260Y261500D02*
D03*
X230740D02*
D03*
Y271500D02*
D03*
X223260D02*
D03*
X345500Y210000D02*
D03*
X352980D02*
D03*
X403260Y168000D02*
D03*
X410740D02*
D03*
X410756Y202516D02*
D03*
X403275D02*
D03*
G54D32*
X35323Y146303D02*
D03*
X42803D02*
D03*
X39063Y154177D02*
D03*
G54D33*
X410756Y177000D02*
D03*
Y182000D02*
D03*
Y187000D02*
D03*
Y192000D02*
D03*
X430244D02*
D03*
Y187000D02*
D03*
Y182000D02*
D03*
Y177000D02*
D03*
G54D34*
X255563Y184260D02*
D03*
Y191740D02*
D03*
X263437Y188000D02*
D03*
G54D35*
X155508Y221193D02*
D03*
Y224933D02*
D03*
Y228673D02*
D03*
X167358D02*
D03*
Y221193D02*
D03*
G54D36*
X12000Y100232D02*
D03*
Y108500D02*
D03*
X65500Y109000D02*
D03*
Y100732D02*
D03*
G54D37*
X12000Y82233D02*
D03*
Y90500D02*
D03*
G54D46*
X65264Y88000D02*
D03*
X75500D02*
D03*
X164264Y171500D02*
D03*
X174500D02*
D03*
G54D47*
X85736Y88000D02*
D03*
X184736Y171500D02*
D03*
G54D52*
X177000Y275500D02*
D03*
G54D56*
X365000Y210000D02*
D03*
X375000D02*
D03*
X385000D02*
D03*
G54D57*
X404500Y256000D02*
D03*
G54D58*
X404500Y226000D02*
D03*
Y236000D02*
D03*
Y246000D02*
D03*
G54D66*
X136000Y13000D02*
D03*
X146000D02*
D03*
X156000D02*
D03*
G54D67*
X65130Y14500D02*
D03*
X78100Y49500D02*
D03*
G54D68*
X54500Y14500D02*
D03*
X86000Y49500D02*
D03*
G54D72*
X106000Y76000D02*
D03*
X125685D02*
D03*
G54D75*
X97150Y149079D02*
D03*
G54D85*
X59000Y193000D02*
D03*
X69000D02*
D03*
X79000D02*
D03*
X49000D02*
D03*
X39000D02*
D03*
X29000D02*
D03*
X89000Y279102D02*
D03*
X79000D02*
D03*
X69000D02*
D03*
X59000D02*
D03*
X49000D02*
D03*
X39000D02*
D03*
G54D86*
X108815Y141579D02*
D03*
X118815D02*
D03*
X119815Y185579D02*
D03*
X109815D02*
D03*
G54D87*
X499500Y25000D02*
D03*
X490315Y256000D02*
D03*
G54D88*
X479815Y25000D02*
D03*
X510000Y256000D02*
D03*
G54D89*
X177000Y257784D02*
D03*
X202591D02*
D03*
Y275500D02*
D03*
G54D90*
X12000Y119000D02*
D03*
X39000Y165000D02*
D03*
X82525Y131579D02*
D03*
X142953Y185445D02*
D03*
X199000Y193000D02*
D03*
X230000Y206500D02*
D03*
X334500Y221000D02*
D03*
X370000Y240000D02*
D03*
X385500Y161000D02*
D03*
X110000Y243500D02*
D03*
Y228500D02*
D03*
X124693Y221193D02*
D03*
X126500Y36000D02*
D03*
X91500Y14500D02*
D03*
G54D91*
X131500Y263500D02*
D03*
X373500Y269000D02*
D03*
G54D92*
X145280Y263500D02*
D03*
X387280Y269000D02*
D03*
G54D93*
X195267Y47396D02*
D03*
Y136372D02*
D03*
X362590Y107238D02*
D03*
G54D94*
X362590Y76530D02*
D03*
G54D95*
X465122Y124516D02*
D03*
X533622D02*
D03*
G54D96*
X441500Y132390D02*
D03*
X510000D02*
D03*
G54D97*
X417878Y76484D02*
D03*
X465122D02*
D03*
X486378D02*
D03*
X533622D02*
D03*
X486378Y124516D02*
D03*
X417878D02*
D03*
G54D98*
X335500Y198500D02*
D03*
X345500D02*
D03*
X355500D02*
D03*
Y168500D02*
D03*
X345500D02*
D03*
G54D99*
X335500Y168500D02*
D03*
G54D100*
X24500Y59000D02*
D03*
Y69000D02*
D03*
X54500D02*
D03*
Y59000D02*
D03*
Y79000D02*
D03*
Y89000D02*
D03*
Y99000D02*
D03*
Y109000D02*
D03*
Y119000D02*
D03*
Y129000D02*
D03*
X24500Y119000D02*
D03*
Y109000D02*
D03*
Y99000D02*
D03*
Y89000D02*
D03*
Y79000D02*
D03*
G54D101*
X24500Y129000D02*
D03*
G54D102*
X36421Y24000D02*
D03*
G54D103*
X31500Y24000D02*
D03*
G54D104*
X94984Y149079D02*
D03*
X99315D02*
D03*
G54D105*
X145000Y47000D02*
D03*
X152500D02*
D03*
X160177Y46866D02*
D03*
X167677D02*
D03*
X175177D02*
D03*
X175354Y135709D02*
D03*
X167854D02*
D03*
X160354D02*
D03*
X153000Y135500D02*
D03*
X145500D02*
D03*
M02*
