G04*
G04 #@! TF.GenerationSoftware,Altium Limited,Altium Designer,24.5.2 (23)*
G04*
G04 Layer_Physical_Order=1*
G04 Layer_Color=255*
%FSLAX25Y25*%
%MOIN*%
G70*
G04*
G04 #@! TF.SameCoordinates,0F2894EB-3285-49A2-9E44-C4C41DE54E67*
G04*
G04*
G04 #@! TF.FilePolarity,Positive*
G04*
G01*
G75*
%ADD10C,0.00787*%
%ADD16C,0.01181*%
%ADD21C,0.01968*%
%ADD25R,0.02000X0.05200*%
%ADD26R,0.05900X0.03500*%
%ADD27R,0.03500X0.05900*%
%ADD28R,0.03500X0.03500*%
%ADD29R,0.00984X0.01968*%
%ADD30R,0.04528X0.05906*%
%ADD31R,0.05118X0.05906*%
%ADD32R,0.03500X0.03200*%
G04:AMPARAMS|DCode=33|XSize=77.56mil|YSize=23.62mil|CornerRadius=2.95mil|HoleSize=0mil|Usage=FLASHONLY|Rotation=180.000|XOffset=0mil|YOffset=0mil|HoleType=Round|Shape=RoundedRectangle|*
%AMROUNDEDRECTD33*
21,1,0.07756,0.01772,0,0,180.0*
21,1,0.07165,0.02362,0,0,180.0*
1,1,0.00591,-0.03583,0.00886*
1,1,0.00591,0.03583,0.00886*
1,1,0.00591,0.03583,-0.00886*
1,1,0.00591,-0.03583,-0.00886*
%
%ADD33ROUNDEDRECTD33*%
%ADD34R,0.03200X0.03500*%
%ADD35R,0.04750X0.02000*%
%ADD36R,0.05906X0.04528*%
%ADD37R,0.03740X0.04724*%
%ADD48O,0.05200X0.07087*%
%ADD49R,0.05200X0.07087*%
%ADD54R,0.05900X0.05900*%
%ADD58O,0.05906X0.07874*%
%ADD59R,0.06181X0.06181*%
%ADD60C,0.06181*%
%ADD68C,0.05800*%
%ADD69R,0.05000X0.05000*%
%ADD70C,0.05000*%
%ADD74C,0.05400*%
%ADD77R,0.06299X0.03543*%
%ADD78C,0.03937*%
%ADD79C,0.02362*%
%ADD80C,0.07874*%
%ADD81C,0.01575*%
%ADD82R,0.06000X0.21000*%
%ADD83R,0.62177X0.20500*%
%ADD84R,0.61354X0.20500*%
%ADD85R,0.13056X0.05952*%
%ADD86R,0.15000X0.10500*%
%ADD87R,0.07087X0.04449*%
%ADD88O,0.07087X0.04449*%
%ADD89C,0.07480*%
%ADD90O,0.05906X0.07874*%
%ADD91C,0.08268*%
%ADD92R,0.08268X0.08268*%
%ADD93C,0.05900*%
%ADD94C,0.07874*%
%ADD95R,0.07087X0.09843*%
%ADD96O,0.07087X0.09843*%
%ADD97C,0.07677*%
%ADD98R,0.07677X0.07677*%
%ADD99R,0.07795X0.07795*%
%ADD100C,0.07618*%
%ADD101C,0.07795*%
%ADD102C,0.05512*%
%ADD103R,0.05512X0.05512*%
%ADD104R,0.03347X0.03347*%
%ADD105C,0.03347*%
%ADD106C,0.01968*%
%ADD107C,0.06000*%
%ADD108C,0.02362*%
G36*
X414500Y193727D02*
X414339Y193595D01*
X412361D01*
Y196256D01*
Y199163D01*
X413715D01*
Y201331D01*
X407797D01*
Y199163D01*
X409150D01*
Y196256D01*
Y193595D01*
X407173D01*
X406902Y193541D01*
X406672Y193387D01*
X406537Y193185D01*
X410756D01*
Y190815D01*
X406537D01*
X406672Y190613D01*
X406902Y190459D01*
X407173Y190405D01*
X410701D01*
X410756Y190394D01*
X410811Y190405D01*
X414339D01*
X414500Y190273D01*
Y189122D01*
X414339Y188990D01*
X407173D01*
X406751Y188906D01*
X406602Y188806D01*
X406248D01*
X405082Y189973D01*
Y198776D01*
X406622D01*
Y206256D01*
X399929D01*
Y198776D01*
X401469D01*
Y189225D01*
X401607Y188533D01*
X401998Y187947D01*
X404223Y185723D01*
X404809Y185331D01*
X405500Y185194D01*
X406602D01*
X406751Y185094D01*
X407173Y185010D01*
X414339D01*
X414500Y184878D01*
Y184122D01*
X414339Y183990D01*
X407173D01*
X406751Y183906D01*
X406393Y183666D01*
X406352Y183606D01*
X403000D01*
X403000Y183606D01*
X402386Y183483D01*
X401865Y183135D01*
X401865Y183135D01*
X398365Y179635D01*
X398017Y179114D01*
X397894Y178500D01*
X397894Y178500D01*
Y174165D01*
X397085Y173356D01*
X396685Y173522D01*
Y175240D01*
X390583D01*
Y167760D01*
X396685D01*
Y169894D01*
X397500D01*
X397500Y169894D01*
X398114Y170016D01*
X398635Y170364D01*
X400635Y172365D01*
X400983Y172886D01*
X401106Y173500D01*
X401106Y173500D01*
Y177835D01*
X403665Y180394D01*
X406352D01*
X406393Y180334D01*
X406751Y180094D01*
X407173Y180010D01*
X414339D01*
X414500Y179878D01*
Y179122D01*
X414339Y178990D01*
X407173D01*
X406751Y178906D01*
X406393Y178666D01*
X406153Y178308D01*
X406069Y177886D01*
Y176114D01*
X406153Y175692D01*
X406393Y175334D01*
X406751Y175094D01*
X407173Y175010D01*
X408934D01*
Y171740D01*
X407394D01*
Y164260D01*
X408934D01*
Y159543D01*
X408772Y159151D01*
Y158368D01*
X409071Y157645D01*
X409625Y157091D01*
X410349Y156791D01*
X411132D01*
X411855Y157091D01*
X412409Y157645D01*
X412709Y158368D01*
Y159151D01*
X412546Y159543D01*
Y164260D01*
X414087D01*
Y171740D01*
X412546D01*
Y175010D01*
X414339D01*
X414500Y174878D01*
Y156500D01*
X415500Y155500D01*
X410277Y150277D01*
X406777Y153777D01*
X406191Y154169D01*
X405500Y154306D01*
X383694D01*
X358176Y179824D01*
X358329Y180193D01*
X382315D01*
Y178260D01*
X383560D01*
Y175240D01*
X382315D01*
Y167760D01*
X383627D01*
Y165374D01*
X382599Y164780D01*
X381719Y163901D01*
X381098Y162824D01*
X380776Y161622D01*
Y160378D01*
X381098Y159176D01*
X381719Y158099D01*
X382599Y157220D01*
X383676Y156598D01*
X384878Y156276D01*
X386122D01*
X387323Y156598D01*
X388401Y157220D01*
X389281Y158099D01*
X389902Y159176D01*
X390224Y160378D01*
Y161622D01*
X389902Y162824D01*
X389281Y163901D01*
X388401Y164780D01*
X387323Y165402D01*
X387240Y165425D01*
Y167760D01*
X388418D01*
Y175240D01*
X387173D01*
Y178260D01*
X388418D01*
Y185740D01*
X382315D01*
Y183806D01*
X313749D01*
X298206Y199348D01*
Y202748D01*
X303937D01*
Y209332D01*
X304307Y209485D01*
X324570Y189223D01*
X325156Y188831D01*
X325847Y188694D01*
X337500D01*
X338191Y188831D01*
X338777Y189223D01*
X344622Y195067D01*
X345034Y194957D01*
X345967D01*
X346868Y195198D01*
X347676Y195665D01*
X348335Y196324D01*
X348802Y197132D01*
X349043Y198033D01*
Y198967D01*
X348802Y199868D01*
X348335Y200676D01*
X347676Y201335D01*
X347306Y201549D01*
Y206260D01*
X348846D01*
Y213740D01*
X347306D01*
Y217260D01*
X348551D01*
Y224740D01*
X342449D01*
Y222806D01*
X338907D01*
X338902Y222824D01*
X338281Y223901D01*
X337401Y224781D01*
X336323Y225402D01*
X335122Y225724D01*
X333878D01*
X332676Y225402D01*
X331599Y224781D01*
X330719Y223901D01*
X330098Y222824D01*
X329776Y221622D01*
Y220378D01*
X330098Y219176D01*
X330719Y218099D01*
X331599Y217219D01*
X332676Y216598D01*
X333878Y216276D01*
X335122D01*
X336323Y216598D01*
X337401Y217219D01*
X338281Y218099D01*
X338902Y219176D01*
X338907Y219194D01*
X342449D01*
Y217260D01*
X343694D01*
Y213740D01*
X342154D01*
Y206260D01*
X343694D01*
Y201549D01*
X343324Y201335D01*
X342665Y200676D01*
X342198Y199868D01*
X341957Y198967D01*
Y198033D01*
X342067Y197622D01*
X336752Y192306D01*
X326595D01*
X310398Y208503D01*
X310552Y208873D01*
X317087D01*
Y209649D01*
X322826D01*
X323108Y209531D01*
X323892D01*
X324615Y209831D01*
X325169Y210385D01*
X325468Y211108D01*
Y211892D01*
X325169Y212615D01*
X324615Y213169D01*
X323892Y213469D01*
X323108D01*
X322608Y213261D01*
X317087D01*
Y218873D01*
Y223873D01*
Y228873D01*
Y234626D01*
X321650D01*
X322041Y234464D01*
X322824D01*
X323548Y234764D01*
X324101Y235317D01*
X324401Y236041D01*
Y236824D01*
X324101Y237548D01*
X323548Y238101D01*
X322824Y238401D01*
X322041D01*
X321650Y238239D01*
X317087D01*
Y239626D01*
X321650D01*
X322041Y239464D01*
X322824D01*
X323548Y239764D01*
X324101Y240317D01*
X324401Y241041D01*
Y241824D01*
X324101Y242548D01*
X323548Y243101D01*
X322824Y243401D01*
X322041D01*
X321650Y243239D01*
X317087D01*
Y248873D01*
Y254649D01*
X321826D01*
X322108Y254532D01*
X322892D01*
X323615Y254831D01*
X324169Y255385D01*
X324468Y256108D01*
Y256892D01*
X324169Y257615D01*
X323615Y258169D01*
X322892Y258469D01*
X322108D01*
X321608Y258261D01*
X317087D01*
Y259604D01*
X321934D01*
X322108Y259531D01*
X322892D01*
X323615Y259831D01*
X324169Y260385D01*
X324468Y261108D01*
Y261892D01*
X324169Y262615D01*
X323615Y263169D01*
X322892Y263469D01*
X322108D01*
X321500Y263216D01*
X317087D01*
Y268873D01*
Y273947D01*
X317007D01*
X316761Y274285D01*
X316780Y274354D01*
X316994Y274604D01*
X321410D01*
X322101Y274741D01*
X322687Y275133D01*
X322777Y275223D01*
X323169Y275809D01*
X323306Y276500D01*
X323169Y277191D01*
X322777Y277777D01*
X322191Y278169D01*
X321500Y278306D01*
X321047Y278216D01*
X316700D01*
Y278560D01*
X314535D01*
Y276410D01*
X313350D01*
Y275225D01*
X310000D01*
Y274347D01*
X310000Y274260D01*
X309789Y273947D01*
X309613D01*
Y268873D01*
Y263873D01*
Y258873D01*
Y253873D01*
Y248873D01*
Y243873D01*
Y238873D01*
Y233873D01*
Y228216D01*
X305373D01*
X304982Y228379D01*
X304198D01*
X303475Y228079D01*
X302921Y227525D01*
X302622Y226802D01*
Y226018D01*
X302921Y225295D01*
X303475Y224741D01*
X304198Y224442D01*
X304982D01*
X305373Y224604D01*
X309613D01*
Y223216D01*
X305373D01*
X304982Y223378D01*
X304198D01*
X303475Y223079D01*
X302921Y222525D01*
X302622Y221802D01*
Y221018D01*
X302921Y220295D01*
X303475Y219741D01*
X304198Y219442D01*
X304982D01*
X305373Y219604D01*
X309613D01*
Y213873D01*
Y209811D01*
X309243Y209658D01*
X302624Y216277D01*
X302038Y216669D01*
X301347Y216806D01*
X265000D01*
X264309Y216669D01*
X263723Y216277D01*
X260123Y212677D01*
X259731Y212091D01*
X259594Y211400D01*
Y210222D01*
X254306D01*
Y239500D01*
X254169Y240191D01*
X253777Y240777D01*
X251777Y242777D01*
X251191Y243169D01*
X250500Y243306D01*
X248187D01*
Y248873D01*
Y253873D01*
Y258873D01*
Y263873D01*
Y268873D01*
Y273947D01*
X248107D01*
X247861Y274285D01*
X247880Y274354D01*
X248094Y274604D01*
X250090D01*
X250781Y274741D01*
X251367Y275133D01*
X251759Y275719D01*
X251896Y276410D01*
X251759Y277101D01*
X251367Y277687D01*
X250781Y278079D01*
X250090Y278216D01*
X247800D01*
Y278560D01*
X245635D01*
Y276410D01*
X244450D01*
Y275225D01*
X241100D01*
Y274347D01*
X241100Y274260D01*
X240889Y273947D01*
X240713D01*
Y273216D01*
X234087D01*
Y275240D01*
X227394D01*
Y267760D01*
X228934D01*
Y265240D01*
X227394D01*
Y257760D01*
X228934D01*
Y254523D01*
X228772Y254132D01*
Y253349D01*
X229071Y252625D01*
X229625Y252071D01*
X230349Y251772D01*
X231132D01*
X231165Y251786D01*
X231392Y251447D01*
X229952Y250006D01*
X211780D01*
Y251940D01*
X210240D01*
Y256566D01*
X210103Y257257D01*
X209711Y257843D01*
X208494Y259061D01*
X207908Y259452D01*
X207217Y259590D01*
X205863D01*
X205581Y260078D01*
X204885Y260774D01*
X204033Y261266D01*
X203083Y261521D01*
X202098D01*
X201148Y261266D01*
X200296Y260774D01*
X199600Y260078D01*
X199318Y259590D01*
X180273D01*
X179991Y260078D01*
X179295Y260774D01*
X178443Y261266D01*
X177492Y261521D01*
X176508D01*
X175557Y261266D01*
X174705Y260774D01*
X174009Y260078D01*
X173517Y259226D01*
X173263Y258276D01*
Y257291D01*
X173517Y256341D01*
X174009Y255489D01*
X174705Y254793D01*
X175557Y254301D01*
X176508Y254046D01*
X177492D01*
X178443Y254301D01*
X179295Y254793D01*
X179991Y255489D01*
X180273Y255977D01*
X199318D01*
X199600Y255489D01*
X200296Y254793D01*
X201148Y254301D01*
X202098Y254046D01*
X203083D01*
X204033Y254301D01*
X204885Y254793D01*
X205581Y255489D01*
X205863Y255977D01*
X206468D01*
X206627Y255818D01*
Y251940D01*
X205087D01*
Y244460D01*
X206856D01*
Y241905D01*
X205839D01*
Y234424D01*
X211942D01*
Y241905D01*
X210469D01*
Y244460D01*
X211780D01*
Y246394D01*
X230700D01*
X231391Y246531D01*
X231977Y246923D01*
X238277Y253223D01*
X238669Y253809D01*
X238806Y254500D01*
Y262752D01*
X240313Y264258D01*
X240713Y264092D01*
Y258873D01*
Y253873D01*
Y248873D01*
Y243873D01*
Y238216D01*
X225693D01*
X225302Y238379D01*
X224518D01*
X223795Y238079D01*
X223241Y237525D01*
X223079Y237134D01*
X216102Y230157D01*
X211942D01*
Y232090D01*
X205839D01*
Y224610D01*
X211942D01*
Y226544D01*
X216850D01*
X217542Y226681D01*
X218128Y227073D01*
X225634Y234579D01*
X225693Y234604D01*
X240713D01*
Y233216D01*
X228193D01*
X227801Y233379D01*
X227018D01*
X226295Y233079D01*
X225741Y232525D01*
X225579Y232134D01*
X213752Y220306D01*
X211924D01*
Y222224D01*
X205821D01*
Y214744D01*
X211924D01*
Y216694D01*
X214500D01*
X215191Y216831D01*
X215777Y217223D01*
X228134Y229579D01*
X228193Y229604D01*
X240713D01*
Y228216D01*
X231910D01*
X231219Y228079D01*
X230633Y227687D01*
X213252Y210306D01*
X211931D01*
Y212278D01*
X205829D01*
Y204797D01*
X207111D01*
Y203665D01*
X200839Y197394D01*
X200824Y197402D01*
X199622Y197724D01*
X198378D01*
X197176Y197402D01*
X196099Y196781D01*
X195220Y195901D01*
X194597Y194824D01*
X194593Y194806D01*
X176965D01*
X176916Y194945D01*
X176899Y195206D01*
X177424Y195557D01*
X177816Y196143D01*
X177953Y196835D01*
X177940Y196901D01*
Y201148D01*
X178797D01*
Y203315D01*
X173470D01*
Y201148D01*
X174327D01*
Y196848D01*
X174465Y196157D01*
X174856Y195571D01*
X174870Y195557D01*
X175395Y195206D01*
X175377Y194945D01*
X175328Y194806D01*
X166248D01*
X163828Y197226D01*
X163242Y197618D01*
X162551Y197755D01*
X159854D01*
Y199336D01*
X156280D01*
Y196044D01*
X156261Y195949D01*
X156280Y195854D01*
Y192562D01*
X159854D01*
Y194143D01*
X161803D01*
X164223Y191723D01*
X164809Y191331D01*
X165500Y191194D01*
X194593D01*
X194597Y191176D01*
X195220Y190099D01*
X196099Y189219D01*
X197176Y188598D01*
X198378Y188276D01*
X199622D01*
X200824Y188598D01*
X201901Y189219D01*
X202781Y190099D01*
X203402Y191176D01*
X203724Y192378D01*
Y193622D01*
X203402Y194824D01*
X203394Y194839D01*
X210195Y201640D01*
X210586Y202226D01*
X210724Y202917D01*
Y204797D01*
X211931D01*
Y206694D01*
X214000D01*
X214691Y206831D01*
X215277Y207223D01*
X232658Y224604D01*
X240713D01*
Y223216D01*
X236000D01*
X235392Y223468D01*
X234608D01*
X233885Y223169D01*
X233331Y222615D01*
X233032Y221892D01*
Y221108D01*
X233331Y220385D01*
X233885Y219831D01*
X234608Y219531D01*
X235392D01*
X235566Y219604D01*
X240713D01*
Y218216D01*
X229410D01*
X228719Y218079D01*
X228133Y217687D01*
X223776Y213331D01*
X223385Y213169D01*
X222831Y212615D01*
X222532Y211892D01*
Y211108D01*
X222831Y210385D01*
X223385Y209831D01*
X224108Y209531D01*
X224892D01*
X225615Y209831D01*
X226169Y210385D01*
X226331Y210776D01*
X230158Y214604D01*
X240713D01*
Y213216D01*
X238910D01*
X238219Y213079D01*
X237633Y212687D01*
X234251Y209306D01*
X233812Y209347D01*
X233781Y209401D01*
X232901Y210280D01*
X231823Y210902D01*
X230622Y211224D01*
X229378D01*
X228176Y210902D01*
X227099Y210280D01*
X226220Y209401D01*
X225598Y208324D01*
X225276Y207122D01*
Y205878D01*
X225598Y204676D01*
X226220Y203599D01*
X227099Y202719D01*
X228176Y202098D01*
X229378Y201776D01*
X230622D01*
X231823Y202098D01*
X232901Y202719D01*
X233781Y203599D01*
X234402Y204676D01*
X234649Y205597D01*
X234903D01*
X235595Y205734D01*
X236181Y206126D01*
X239658Y209604D01*
X240713D01*
Y208873D01*
X248187D01*
Y213873D01*
Y218873D01*
Y223873D01*
Y228873D01*
Y233873D01*
Y239694D01*
X249752D01*
X250694Y238752D01*
Y207748D01*
X245752Y202806D01*
X240000D01*
X239309Y202669D01*
X238723Y202277D01*
X234963Y198517D01*
X234571Y197931D01*
X234434Y197240D01*
Y195480D01*
X233189D01*
Y188000D01*
X239291D01*
Y189934D01*
X253176D01*
Y189203D01*
X257950D01*
Y194277D01*
X253176D01*
Y193546D01*
X239291D01*
Y195480D01*
X238046D01*
Y196492D01*
X240748Y199194D01*
X246500D01*
X247191Y199331D01*
X247777Y199723D01*
X253463Y205408D01*
X253863Y205242D01*
Y202748D01*
X294594D01*
Y198600D01*
X294731Y197909D01*
X295123Y197323D01*
X310576Y181870D01*
X310423Y181500D01*
X308500D01*
X304806Y177806D01*
X287248D01*
X275777Y189277D01*
X275191Y189669D01*
X274500Y189806D01*
X265824D01*
Y190537D01*
X261050D01*
Y185463D01*
X265824D01*
Y186194D01*
X273752D01*
X282076Y177870D01*
X281923Y177500D01*
X261500D01*
Y173000D01*
X277500Y157000D01*
Y2780D01*
X2780D01*
X2780Y305220D01*
X234500D01*
Y281500D01*
X242647D01*
X242708Y281193D01*
X242882Y280932D01*
X243143Y280758D01*
X243450Y280697D01*
X314350D01*
X314657Y280758D01*
X314918Y280932D01*
X315092Y281193D01*
X315153Y281500D01*
X323000D01*
Y305220D01*
X414500D01*
Y193727D01*
D02*
G37*
G36*
X477000Y200500D02*
X462500Y186000D01*
X426500D01*
Y199500D01*
X455500D01*
X466000Y210000D01*
X477000D01*
Y200500D01*
D02*
G37*
G36*
X445500Y173000D02*
Y164500D01*
X426500Y176500D01*
Y183000D01*
X426495Y183005D01*
Y183220D01*
X435280D01*
X445500Y173000D01*
D02*
G37*
%LPC*%
G36*
X243265Y278560D02*
X241100D01*
Y277595D01*
X243265D01*
Y278560D01*
D02*
G37*
G36*
X312165D02*
X310000D01*
Y277595D01*
X312165D01*
Y278560D01*
D02*
G37*
G36*
X203776Y278651D02*
Y276685D01*
X205741D01*
X205712Y276793D01*
X205271Y277557D01*
X204647Y278181D01*
X203884Y278622D01*
X203776Y278651D01*
D02*
G37*
G36*
X201406D02*
X201297Y278622D01*
X200534Y278181D01*
X199910Y277557D01*
X199469Y276793D01*
X199440Y276685D01*
X201406D01*
Y278651D01*
D02*
G37*
G36*
X180350Y278850D02*
X178185D01*
Y276685D01*
X180350D01*
Y278850D01*
D02*
G37*
G36*
X175815D02*
X173650D01*
Y276685D01*
X175815D01*
Y278850D01*
D02*
G37*
G36*
X89596Y283630D02*
X88404D01*
X87252Y283321D01*
X86220Y282725D01*
X85377Y281882D01*
X84781Y280850D01*
X84472Y279698D01*
Y278506D01*
X84781Y277355D01*
X85377Y276322D01*
X86220Y275479D01*
X87252Y274883D01*
X88404Y274575D01*
X89596D01*
X90748Y274883D01*
X91780Y275479D01*
X92623Y276322D01*
X93219Y277355D01*
X93528Y278506D01*
Y279698D01*
X93219Y280850D01*
X92623Y281882D01*
X91780Y282725D01*
X90748Y283321D01*
X89596Y283630D01*
D02*
G37*
G36*
X79596D02*
X78404D01*
X77252Y283321D01*
X76220Y282725D01*
X75377Y281882D01*
X74781Y280850D01*
X74472Y279698D01*
Y278506D01*
X74781Y277355D01*
X75377Y276322D01*
X76220Y275479D01*
X77252Y274883D01*
X78404Y274575D01*
X79596D01*
X80748Y274883D01*
X81780Y275479D01*
X82623Y276322D01*
X83219Y277355D01*
X83527Y278506D01*
Y279698D01*
X83219Y280850D01*
X82623Y281882D01*
X81780Y282725D01*
X80748Y283321D01*
X79596Y283630D01*
D02*
G37*
G36*
X69596D02*
X68404D01*
X67252Y283321D01*
X66220Y282725D01*
X65377Y281882D01*
X64781Y280850D01*
X64472Y279698D01*
Y278506D01*
X64781Y277355D01*
X65377Y276322D01*
X66220Y275479D01*
X67252Y274883D01*
X68404Y274575D01*
X69596D01*
X70748Y274883D01*
X71780Y275479D01*
X72623Y276322D01*
X73219Y277355D01*
X73527Y278506D01*
Y279698D01*
X73219Y280850D01*
X72623Y281882D01*
X71780Y282725D01*
X70748Y283321D01*
X69596Y283630D01*
D02*
G37*
G36*
X59596D02*
X58404D01*
X57252Y283321D01*
X56220Y282725D01*
X55377Y281882D01*
X54781Y280850D01*
X54472Y279698D01*
Y278506D01*
X54781Y277355D01*
X55377Y276322D01*
X56220Y275479D01*
X57252Y274883D01*
X58404Y274575D01*
X59596D01*
X60748Y274883D01*
X61780Y275479D01*
X62623Y276322D01*
X63219Y277355D01*
X63528Y278506D01*
Y279698D01*
X63219Y280850D01*
X62623Y281882D01*
X61780Y282725D01*
X60748Y283321D01*
X59596Y283630D01*
D02*
G37*
G36*
X49596D02*
X48404D01*
X47252Y283321D01*
X46220Y282725D01*
X45377Y281882D01*
X44781Y280850D01*
X44472Y279698D01*
Y278506D01*
X44781Y277355D01*
X45377Y276322D01*
X46220Y275479D01*
X47252Y274883D01*
X48404Y274575D01*
X49596D01*
X50748Y274883D01*
X51780Y275479D01*
X52623Y276322D01*
X53219Y277355D01*
X53527Y278506D01*
Y279698D01*
X53219Y280850D01*
X52623Y281882D01*
X51780Y282725D01*
X50748Y283321D01*
X49596Y283630D01*
D02*
G37*
G36*
X39596D02*
X38404D01*
X37252Y283321D01*
X36220Y282725D01*
X35377Y281882D01*
X34781Y280850D01*
X34472Y279698D01*
Y278506D01*
X34781Y277355D01*
X35377Y276322D01*
X36220Y275479D01*
X37252Y274883D01*
X38404Y274575D01*
X39596D01*
X40748Y274883D01*
X41780Y275479D01*
X42623Y276322D01*
X43219Y277355D01*
X43527Y278506D01*
Y279698D01*
X43219Y280850D01*
X42623Y281882D01*
X41780Y282725D01*
X40748Y283321D01*
X39596Y283630D01*
D02*
G37*
G36*
X226219Y274853D02*
X224445D01*
Y272685D01*
X226219D01*
Y274853D01*
D02*
G37*
G36*
X205741Y274315D02*
X203776D01*
Y272349D01*
X203884Y272378D01*
X204647Y272819D01*
X205271Y273443D01*
X205712Y274207D01*
X205741Y274315D01*
D02*
G37*
G36*
X201406D02*
X199440D01*
X199469Y274207D01*
X199910Y273443D01*
X200534Y272819D01*
X201297Y272378D01*
X201406Y272349D01*
Y274315D01*
D02*
G37*
G36*
X180350D02*
X178185D01*
Y272150D01*
X180350D01*
Y274315D01*
D02*
G37*
G36*
X175815D02*
X173650D01*
Y272150D01*
X175815D01*
Y274315D01*
D02*
G37*
G36*
X226219Y270315D02*
X224445D01*
Y268147D01*
X226219D01*
Y270315D01*
D02*
G37*
G36*
X222075Y274853D02*
X220301D01*
Y273106D01*
X215020D01*
X214405Y272983D01*
X213884Y272635D01*
X213536Y272114D01*
X213414Y271500D01*
X213536Y270885D01*
X213884Y270365D01*
X214405Y270017D01*
X215020Y269894D01*
X220301D01*
Y268147D01*
X222075D01*
Y271500D01*
Y274853D01*
D02*
G37*
G36*
X226219Y264853D02*
X224445D01*
Y262685D01*
X226219D01*
Y264853D01*
D02*
G37*
G36*
X222075D02*
X220301D01*
Y262685D01*
X222075D01*
Y264853D01*
D02*
G37*
G36*
X273000Y256606D02*
X272386Y256483D01*
X271865Y256135D01*
X271855Y256125D01*
X271507Y255605D01*
X271384Y254990D01*
X271384Y254990D01*
Y253670D01*
X270840D01*
Y253126D01*
X269630D01*
Y253670D01*
X268665D01*
Y251520D01*
X266295D01*
Y253670D01*
X265330D01*
Y253126D01*
X264010D01*
X263396Y253003D01*
X262875Y252655D01*
X262527Y252134D01*
X262404Y251520D01*
X262527Y250905D01*
X262875Y250385D01*
X263396Y250037D01*
X264010Y249914D01*
X265330D01*
Y249370D01*
X265874D01*
Y248160D01*
X265330D01*
Y247616D01*
X264010D01*
X263396Y247493D01*
X262875Y247145D01*
X262527Y246624D01*
X262404Y246010D01*
X262527Y245395D01*
X262875Y244875D01*
X263396Y244527D01*
X264010Y244404D01*
X265330D01*
Y243860D01*
X265874D01*
Y242650D01*
X265330D01*
Y242106D01*
X264010D01*
X263396Y241983D01*
X262875Y241635D01*
X262527Y241114D01*
X262404Y240500D01*
X262527Y239885D01*
X262875Y239365D01*
X263396Y239017D01*
X264010Y238894D01*
X265330D01*
Y238350D01*
X266295D01*
Y240500D01*
X268665D01*
Y238350D01*
X269630D01*
Y238894D01*
X270840D01*
Y238350D01*
X271384D01*
Y237030D01*
X271507Y236416D01*
X271855Y235895D01*
X272375Y235547D01*
X272990Y235424D01*
X273604Y235547D01*
X274125Y235895D01*
X274473Y236416D01*
X274596Y237030D01*
Y238350D01*
X275140D01*
Y238894D01*
X276350D01*
Y238350D01*
X277315D01*
Y240500D01*
X279685D01*
Y238350D01*
X280650D01*
Y238894D01*
X281970D01*
X282585Y239017D01*
X283105Y239365D01*
X283453Y239885D01*
X283576Y240500D01*
X283453Y241114D01*
X283105Y241635D01*
X282585Y241983D01*
X281970Y242106D01*
X280650D01*
Y242650D01*
X280106D01*
Y243860D01*
X280650D01*
Y244825D01*
X278500D01*
Y246010D01*
X277315D01*
Y248160D01*
X276350D01*
Y247622D01*
X275699D01*
X275666Y247629D01*
X275633Y247622D01*
X275140D01*
Y248160D01*
X274175D01*
Y246010D01*
Y243860D01*
X275140D01*
Y244411D01*
X275660D01*
X275660Y244411D01*
X275666Y244412D01*
X275673Y244411D01*
X275673Y244411D01*
X276350D01*
Y243860D01*
X276894D01*
Y242650D01*
X276350D01*
Y242106D01*
X275140D01*
Y242650D01*
X274175D01*
Y240500D01*
X271805D01*
Y242650D01*
X270840D01*
Y242106D01*
X269630D01*
Y242650D01*
X269086D01*
Y243860D01*
X269630D01*
Y244825D01*
X267480D01*
Y247195D01*
X269630D01*
Y248160D01*
X269086D01*
Y249370D01*
X269630D01*
Y249914D01*
X270840D01*
Y249370D01*
X271805D01*
Y251520D01*
X274175D01*
Y249370D01*
X275140D01*
Y249914D01*
X276350D01*
Y249370D01*
X277315D01*
Y251520D01*
Y253670D01*
X276350D01*
Y253126D01*
X275140D01*
Y253670D01*
X274596D01*
Y254950D01*
X274606Y255000D01*
X274483Y255614D01*
X274135Y256135D01*
X273614Y256483D01*
X273000Y256606D01*
D02*
G37*
G36*
X377831Y274709D02*
X369169D01*
Y263291D01*
X371694D01*
Y262248D01*
X361776Y252331D01*
X361717Y252306D01*
X356685D01*
Y254240D01*
X350583D01*
Y246760D01*
X356685D01*
Y248693D01*
X361717D01*
X362108Y248531D01*
X362891D01*
X363615Y248831D01*
X364169Y249385D01*
X364331Y249776D01*
X374777Y260223D01*
X375169Y260809D01*
X375306Y261500D01*
Y263291D01*
X377831D01*
Y274709D01*
D02*
G37*
G36*
X348418Y254240D02*
X342315D01*
Y252306D01*
X338783D01*
X338391Y252468D01*
X337608D01*
X336885Y252168D01*
X336331Y251615D01*
X336031Y250891D01*
Y250108D01*
X336331Y249385D01*
X336885Y248831D01*
X337608Y248531D01*
X338391D01*
X338783Y248693D01*
X342315D01*
Y246760D01*
X348418D01*
Y254240D01*
D02*
G37*
G36*
X408378Y259878D02*
X400622D01*
Y252122D01*
X408378D01*
Y259878D01*
D02*
G37*
G36*
X226219Y260315D02*
X223260D01*
X220301D01*
Y258147D01*
X221654D01*
Y253260D01*
X221776Y252645D01*
X222124Y252124D01*
X222645Y251776D01*
X223260Y251654D01*
X223874Y251776D01*
X224395Y252124D01*
X224743Y252645D01*
X224866Y253260D01*
Y258147D01*
X226219D01*
Y260315D01*
D02*
G37*
G36*
X199768Y251553D02*
X197994D01*
Y250006D01*
X194454D01*
X194198Y249956D01*
X194123Y249970D01*
X190287D01*
Y251517D01*
X188808D01*
Y248164D01*
Y244811D01*
X190287D01*
Y246358D01*
X194123D01*
X194379Y246409D01*
X194454Y246394D01*
X197994D01*
Y244847D01*
X199768D01*
Y248200D01*
Y251553D01*
D02*
G37*
G36*
X280650Y253670D02*
X279685D01*
Y251520D01*
Y249370D01*
X280650D01*
Y249914D01*
X281899D01*
X282000Y249894D01*
X282614Y250017D01*
X283135Y250365D01*
X283483Y250886D01*
X283606Y251500D01*
X283483Y252115D01*
X283135Y252635D01*
X283115Y252655D01*
X282594Y253003D01*
X281980Y253126D01*
X281980Y253126D01*
X280650D01*
Y253670D01*
D02*
G37*
G36*
X203913Y251553D02*
X202139D01*
Y249385D01*
X203913D01*
Y251553D01*
D02*
G37*
G36*
X186438Y251517D02*
X184959D01*
Y249349D01*
X186438D01*
Y251517D01*
D02*
G37*
G36*
X280650Y248160D02*
X279685D01*
Y247195D01*
X280650D01*
Y248160D01*
D02*
G37*
G36*
X271805D02*
X270840D01*
Y247195D01*
X271805D01*
Y248160D01*
D02*
G37*
G36*
X203913Y247015D02*
X202139D01*
Y244847D01*
X203913D01*
Y247015D01*
D02*
G37*
G36*
X186438Y246979D02*
X184959D01*
Y244811D01*
X186438D01*
Y246979D01*
D02*
G37*
G36*
X145280Y269246D02*
X144149Y269097D01*
X143096Y268661D01*
X142191Y267967D01*
X141497Y267062D01*
X141060Y266008D01*
X140911Y264878D01*
Y262122D01*
X141060Y260992D01*
X141497Y259938D01*
X142191Y259033D01*
X143096Y258339D01*
X143473Y258183D01*
Y255720D01*
X143611Y255029D01*
X144002Y254443D01*
X151559Y246887D01*
X152145Y246495D01*
X152836Y246358D01*
X163717D01*
X164108Y246196D01*
X164892D01*
X165283Y246358D01*
X176304D01*
Y244424D01*
X182407D01*
Y251904D01*
X176304D01*
Y249970D01*
X165283D01*
X164892Y250132D01*
X164108D01*
X163717Y249970D01*
X153584D01*
X147086Y256469D01*
Y258183D01*
X147464Y258339D01*
X148368Y259033D01*
X149062Y259938D01*
X149499Y260992D01*
X149648Y262122D01*
Y264878D01*
X149499Y266008D01*
X149062Y267062D01*
X148368Y267967D01*
X147464Y268661D01*
X146410Y269097D01*
X145280Y269246D01*
D02*
G37*
G36*
X387280Y274746D02*
X386149Y274597D01*
X385096Y274161D01*
X384191Y273467D01*
X383497Y272562D01*
X383060Y271509D01*
X382911Y270378D01*
Y267622D01*
X383060Y266492D01*
X383497Y265438D01*
X384191Y264533D01*
X385096Y263839D01*
X385473Y263683D01*
Y258028D01*
X371839Y244394D01*
X371824Y244403D01*
X370622Y244725D01*
X369378D01*
X368177Y244403D01*
X367099Y243781D01*
X366220Y242901D01*
X365598Y241824D01*
X365593Y241807D01*
X356685D01*
Y243741D01*
X350582D01*
Y236260D01*
X356685D01*
Y238194D01*
X365593D01*
X365598Y238177D01*
X366220Y237100D01*
X367099Y236220D01*
X368177Y235598D01*
X369378Y235276D01*
X370622D01*
X371824Y235598D01*
X372901Y236220D01*
X373781Y237100D01*
X374403Y238177D01*
X374725Y239378D01*
Y240622D01*
X374403Y241824D01*
X374394Y241839D01*
X388557Y256002D01*
X388948Y256588D01*
X389086Y257279D01*
Y263683D01*
X389463Y263839D01*
X390368Y264533D01*
X391062Y265438D01*
X391499Y266492D01*
X391648Y267622D01*
Y270378D01*
X391499Y271509D01*
X391062Y272562D01*
X390368Y273467D01*
X389463Y274161D01*
X388410Y274597D01*
X387280Y274746D01*
D02*
G37*
G36*
X271805Y244825D02*
X270840D01*
Y243860D01*
X271805D01*
Y244825D01*
D02*
G37*
G36*
X405011Y249878D02*
X403989D01*
X403003Y249614D01*
X402119Y249103D01*
X401397Y248381D01*
X400886Y247497D01*
X400622Y246511D01*
Y245490D01*
X400886Y244503D01*
X401397Y243619D01*
X402119Y242897D01*
X403003Y242386D01*
X403989Y242122D01*
X405011D01*
X405997Y242386D01*
X406881Y242897D01*
X407603Y243619D01*
X408114Y244503D01*
X408378Y245490D01*
Y246511D01*
X408114Y247497D01*
X407603Y248381D01*
X406881Y249103D01*
X405997Y249614D01*
X405011Y249878D01*
D02*
G37*
G36*
X348030Y243353D02*
X346551D01*
Y241185D01*
X348030D01*
Y243353D01*
D02*
G37*
G36*
X344181D02*
X342702D01*
Y241185D01*
X344181D01*
Y243353D01*
D02*
G37*
G36*
X203674Y241905D02*
X197571D01*
Y239971D01*
X194906D01*
X194514Y240133D01*
X193731D01*
X193340Y239971D01*
X190674D01*
Y241905D01*
X184571D01*
Y234424D01*
X190674D01*
Y236358D01*
X193340D01*
X193731Y236196D01*
X194514D01*
X194906Y236358D01*
X197571D01*
Y234424D01*
X203674D01*
Y241905D01*
D02*
G37*
G36*
X135831Y269209D02*
X127169D01*
Y257791D01*
X129694D01*
Y249500D01*
X129831Y248809D01*
X130223Y248223D01*
X141558Y236887D01*
X142144Y236496D01*
X142146Y236495D01*
X142251Y236280D01*
X142306Y236056D01*
X142255Y235932D01*
X142146Y235768D01*
X142107Y235574D01*
X142032Y235392D01*
Y235194D01*
X141993Y235000D01*
Y232413D01*
X140654D01*
Y224933D01*
X147346D01*
Y226666D01*
X148523D01*
X148644Y226266D01*
X148398Y226102D01*
X148050Y225581D01*
X147928Y224967D01*
X148050Y224352D01*
X148398Y223831D01*
X148919Y223483D01*
X149533Y223361D01*
X151942D01*
X152144Y222961D01*
X152031Y222809D01*
X152013Y222798D01*
X129154D01*
X129095Y223016D01*
X128473Y224094D01*
X127594Y224973D01*
X126516Y225595D01*
X125315Y225917D01*
X124071D01*
X122869Y225595D01*
X121792Y224973D01*
X120912Y224094D01*
X120290Y223016D01*
X119968Y221815D01*
Y220571D01*
X120290Y219369D01*
X120912Y218292D01*
X121792Y217412D01*
X122869Y216790D01*
X124071Y216469D01*
X125315D01*
X126516Y216790D01*
X127594Y217412D01*
X128473Y218292D01*
X129095Y219369D01*
X129154Y219587D01*
X152346D01*
Y219406D01*
X153902D01*
Y208036D01*
X153721D01*
Y201262D01*
X157295D01*
Y203043D01*
X164815D01*
Y200760D01*
X170917D01*
Y208241D01*
X164815D01*
Y206255D01*
X157295D01*
Y208036D01*
X157114D01*
Y219406D01*
X158670D01*
Y222980D01*
X155813D01*
X155774Y223380D01*
X156123Y223450D01*
X156247Y223533D01*
X158283D01*
Y223748D01*
X155508D01*
Y226118D01*
X158283D01*
Y226333D01*
X156560D01*
X156424Y226472D01*
X156420Y226509D01*
X156579Y226886D01*
X158670D01*
Y230461D01*
X156376D01*
X156276Y230527D01*
X155508Y230680D01*
X147346D01*
Y232413D01*
X146007D01*
Y235000D01*
X145968Y235194D01*
Y235392D01*
X145893Y235574D01*
X145854Y235768D01*
X145745Y235932D01*
X145734Y235958D01*
X145933Y236330D01*
X145968Y236358D01*
X163731D01*
X164108Y236202D01*
X164892D01*
X165269Y236358D01*
X176304D01*
Y234424D01*
X182406D01*
Y241905D01*
X176304D01*
Y239971D01*
X165296D01*
X164892Y240139D01*
X164108D01*
X163704Y239971D01*
X143584D01*
X133306Y250248D01*
Y257791D01*
X135831D01*
Y269209D01*
D02*
G37*
G36*
X405011Y239878D02*
X403989D01*
X403003Y239614D01*
X402119Y239103D01*
X401397Y238381D01*
X400886Y237497D01*
X400622Y236510D01*
Y235490D01*
X400886Y234503D01*
X401397Y233619D01*
X402119Y232897D01*
X403003Y232386D01*
X403989Y232122D01*
X405011D01*
X405997Y232386D01*
X406881Y232897D01*
X407603Y233619D01*
X408114Y234503D01*
X408378Y235490D01*
Y236510D01*
X408114Y237497D01*
X407603Y238381D01*
X406881Y239103D01*
X405997Y239614D01*
X405011Y239878D01*
D02*
G37*
G36*
X110622Y248224D02*
X109378D01*
X108176Y247902D01*
X107099Y247281D01*
X106219Y246401D01*
X105597Y245324D01*
X105276Y244122D01*
Y242878D01*
X105597Y241676D01*
X106219Y240599D01*
X107099Y239720D01*
X108176Y239098D01*
X109378Y238776D01*
X110622D01*
X111824Y239098D01*
X112199Y239314D01*
X114095Y237418D01*
Y231607D01*
X113695Y231486D01*
X112901Y232280D01*
X111824Y232902D01*
X110622Y233224D01*
X109378D01*
X108176Y232902D01*
X107099Y232280D01*
X106219Y231401D01*
X105597Y230324D01*
X105276Y229122D01*
Y227878D01*
X105597Y226676D01*
X105814Y226301D01*
X93418Y213905D01*
X68500D01*
X67962Y213798D01*
X67506Y213493D01*
X51055Y197042D01*
X50748Y197219D01*
X49596Y197528D01*
X48404D01*
X47252Y197219D01*
X46220Y196623D01*
X45377Y195780D01*
X44781Y194748D01*
X44472Y193596D01*
Y192404D01*
X44781Y191252D01*
X45377Y190220D01*
X46220Y189377D01*
X47252Y188781D01*
X48404Y188472D01*
X49596D01*
X50748Y188781D01*
X51780Y189377D01*
X52623Y190220D01*
X53219Y191252D01*
X53527Y192404D01*
Y193596D01*
X53219Y194748D01*
X53042Y195055D01*
X69082Y211095D01*
X94000D01*
X94538Y211202D01*
X94993Y211507D01*
X107801Y224314D01*
X108176Y224098D01*
X109378Y223776D01*
X110622D01*
X111824Y224098D01*
X112901Y224720D01*
X113695Y225514D01*
X114095Y225393D01*
Y214582D01*
X79418Y179905D01*
X57500D01*
X56962Y179798D01*
X56507Y179493D01*
X49007Y171994D01*
X48702Y171538D01*
X48595Y171000D01*
Y157082D01*
X44314Y152801D01*
X41600D01*
Y156564D01*
X40806D01*
Y160593D01*
X40824Y160598D01*
X41901Y161220D01*
X42781Y162099D01*
X43402Y163176D01*
X43724Y164378D01*
Y165622D01*
X43402Y166824D01*
X42781Y167901D01*
X41901Y168781D01*
X40869Y169376D01*
Y174760D01*
X42346D01*
Y182240D01*
X40806D01*
Y188815D01*
X41780Y189377D01*
X42623Y190220D01*
X43219Y191252D01*
X43527Y192404D01*
Y193596D01*
X43219Y194748D01*
X42623Y195780D01*
X41780Y196623D01*
X40748Y197219D01*
X39596Y197528D01*
X38404D01*
X37252Y197219D01*
X36220Y196623D01*
X35377Y195780D01*
X34781Y194748D01*
X34472Y193596D01*
Y192404D01*
X34781Y191252D01*
X35377Y190220D01*
X36220Y189377D01*
X37194Y188815D01*
Y182240D01*
X35653D01*
Y174760D01*
X37257D01*
Y169424D01*
X37176Y169402D01*
X36099Y168781D01*
X35219Y167901D01*
X34598Y166824D01*
X34276Y165622D01*
Y164378D01*
X34598Y163176D01*
X35219Y162099D01*
X36099Y161220D01*
X37176Y160598D01*
X37194Y160593D01*
Y156564D01*
X36526D01*
Y152013D01*
X34489Y149976D01*
X34185Y149520D01*
X34078Y148983D01*
Y148690D01*
X32786D01*
Y143916D01*
X37860D01*
Y148690D01*
X37700D01*
X37547Y149060D01*
X38478Y149991D01*
X44896D01*
X45434Y150098D01*
X45889Y150402D01*
X50993Y155507D01*
X51298Y155962D01*
X51405Y156500D01*
Y170418D01*
X58082Y177095D01*
X80000D01*
X80538Y177202D01*
X80993Y177506D01*
X116493Y213007D01*
X116798Y213462D01*
X116905Y214000D01*
Y238000D01*
X116798Y238538D01*
X116493Y238993D01*
X114186Y241301D01*
X114402Y241676D01*
X114724Y242878D01*
Y244122D01*
X114402Y245324D01*
X113780Y246401D01*
X112901Y247281D01*
X111824Y247902D01*
X110622Y248224D01*
D02*
G37*
G36*
X203674Y232090D02*
X197571D01*
Y230157D01*
X194906D01*
X194514Y230319D01*
X193731D01*
X193008Y230019D01*
X192454Y229465D01*
X192154Y228742D01*
Y227959D01*
X192454Y227235D01*
X193008Y226681D01*
X193731Y226382D01*
X194514D01*
X194906Y226544D01*
X197571D01*
Y224610D01*
X203674D01*
Y232090D01*
D02*
G37*
G36*
X139479Y232026D02*
X137705D01*
Y229858D01*
X139479D01*
Y232026D01*
D02*
G37*
G36*
X190199Y231853D02*
X188425D01*
Y229685D01*
X190199D01*
Y231853D01*
D02*
G37*
G36*
X186055D02*
X184281D01*
Y229685D01*
X186055D01*
Y231853D01*
D02*
G37*
G36*
X348030Y238815D02*
X342702D01*
Y236648D01*
X343559D01*
Y230634D01*
X343697Y229943D01*
X344089Y229357D01*
X344674Y228965D01*
X345366Y228828D01*
X346057Y228965D01*
X346643Y229357D01*
X347035Y229943D01*
X347172Y230634D01*
Y236648D01*
X348030D01*
Y238815D01*
D02*
G37*
G36*
X405685Y229296D02*
Y227185D01*
X407796D01*
X407753Y227347D01*
X407293Y228143D01*
X406643Y228793D01*
X405847Y229253D01*
X405685Y229296D01*
D02*
G37*
G36*
X403315D02*
X403153Y229253D01*
X402357Y228793D01*
X401707Y228143D01*
X401247Y227347D01*
X401204Y227185D01*
X403315D01*
Y229296D01*
D02*
G37*
G36*
X139479Y227488D02*
X137705D01*
Y225320D01*
X139479D01*
Y227488D01*
D02*
G37*
G36*
X135335Y232026D02*
X133561D01*
Y230279D01*
X129827D01*
X129212Y230157D01*
X128691Y229809D01*
X128343Y229288D01*
X128221Y228673D01*
X128343Y228059D01*
X128691Y227538D01*
X129212Y227190D01*
X129827Y227067D01*
X133561D01*
Y225320D01*
X135335D01*
Y228673D01*
Y232026D01*
D02*
G37*
G36*
X407796Y224815D02*
X405685D01*
Y222704D01*
X405847Y222747D01*
X406643Y223207D01*
X407293Y223857D01*
X407753Y224653D01*
X407796Y224815D01*
D02*
G37*
G36*
X403315D02*
X401204D01*
X401247Y224653D01*
X401707Y223857D01*
X402357Y223207D01*
X403153Y222747D01*
X403315Y222704D01*
Y224815D01*
D02*
G37*
G36*
X203656Y222224D02*
X197554D01*
Y220290D01*
X194888D01*
X194496Y220452D01*
X193713D01*
X192990Y220153D01*
X192436Y219599D01*
X192136Y218875D01*
Y218092D01*
X192436Y217369D01*
X192990Y216815D01*
X193713Y216515D01*
X194496D01*
X194888Y216677D01*
X197554D01*
Y214744D01*
X203656D01*
Y222224D01*
D02*
G37*
G36*
X190199Y227315D02*
X184281D01*
Y225147D01*
X185434D01*
Y222000D01*
X185571Y221309D01*
X185963Y220723D01*
X186549Y220331D01*
X187240Y220194D01*
X187931Y220331D01*
X188517Y220723D01*
X188909Y221309D01*
X189047Y222000D01*
Y225147D01*
X190199D01*
Y227315D01*
D02*
G37*
G36*
X170520Y222980D02*
X164196D01*
Y219406D01*
X170520D01*
Y222980D01*
D02*
G37*
G36*
X356819Y224740D02*
X350717D01*
Y217260D01*
X356819D01*
Y219194D01*
X360351D01*
X360743Y219032D01*
X361526D01*
X362250Y219331D01*
X362803Y219885D01*
X363103Y220608D01*
Y221392D01*
X362803Y222115D01*
X362250Y222669D01*
X361526Y222969D01*
X360743D01*
X360351Y222806D01*
X356819D01*
Y224740D01*
D02*
G37*
G36*
X376185Y214122D02*
Y211185D01*
X378355D01*
X378266Y211859D01*
X377929Y212675D01*
X377391Y213375D01*
X376691Y213913D01*
X376185Y214122D01*
D02*
G37*
G36*
X355939Y213353D02*
X354165D01*
Y211185D01*
X355939D01*
Y213353D01*
D02*
G37*
G36*
X351795D02*
X350021D01*
Y211185D01*
X351795D01*
Y213353D01*
D02*
G37*
G36*
X373815Y214122D02*
X373309Y213913D01*
X372609Y213375D01*
X372071Y212675D01*
X371733Y211859D01*
X371645Y211185D01*
X373815D01*
Y214122D01*
D02*
G37*
G36*
X182500Y232803D02*
X176500D01*
X176193Y232742D01*
X175932Y232568D01*
X175758Y232307D01*
X175757Y232303D01*
X164945D01*
X164637Y232242D01*
X164377Y232068D01*
X164203Y231807D01*
X164142Y231500D01*
Y225548D01*
X164203Y225241D01*
X164377Y224980D01*
X164637Y224806D01*
X164945Y224745D01*
X175697D01*
Y211000D01*
X175758Y210693D01*
X175932Y210432D01*
X176193Y210258D01*
X176500Y210197D01*
X182500D01*
X182807Y210258D01*
X183068Y210432D01*
X183242Y210693D01*
X183303Y211000D01*
Y232000D01*
X183242Y232307D01*
X183068Y232568D01*
X182807Y232742D01*
X182500Y232803D01*
D02*
G37*
G36*
X203276Y211890D02*
X201797D01*
Y209722D01*
X203276D01*
Y211890D01*
D02*
G37*
G36*
X134732Y216373D02*
X134118Y216251D01*
X133597Y215903D01*
X133249Y215382D01*
X133127Y214768D01*
Y209853D01*
X132069D01*
Y207685D01*
X137396D01*
Y209853D01*
X136338D01*
Y214768D01*
X136216Y215382D01*
X135868Y215903D01*
X135347Y216251D01*
X134732Y216373D01*
D02*
G37*
G36*
X378355Y208815D02*
X376185D01*
Y205878D01*
X376691Y206087D01*
X377391Y206625D01*
X377929Y207325D01*
X378266Y208140D01*
X378355Y208815D01*
D02*
G37*
G36*
X373815D02*
X371645D01*
X371733Y208140D01*
X372071Y207325D01*
X372609Y206625D01*
X373309Y206087D01*
X373815Y205878D01*
Y208815D01*
D02*
G37*
G36*
X178797Y207853D02*
X177319D01*
Y205685D01*
X178797D01*
Y207853D01*
D02*
G37*
G36*
X174949D02*
X173470D01*
Y205685D01*
X174949D01*
Y207853D01*
D02*
G37*
G36*
X365000Y214757D02*
X364024Y214628D01*
X363114Y214251D01*
X362333Y213652D01*
X361733Y212871D01*
X361356Y211961D01*
X361228Y210984D01*
Y209016D01*
X361356Y208039D01*
X361733Y207130D01*
X362333Y206348D01*
X363114Y205749D01*
X364024Y205372D01*
X365000Y205243D01*
X365976Y205372D01*
X366886Y205749D01*
X367668Y206348D01*
X368267Y207130D01*
X368644Y208039D01*
X368772Y209016D01*
Y210984D01*
X368644Y211961D01*
X368267Y212871D01*
X367668Y213652D01*
X366886Y214251D01*
X365976Y214628D01*
X365000Y214757D01*
D02*
G37*
G36*
X203276Y207352D02*
X201797D01*
Y205185D01*
X203276D01*
Y207352D01*
D02*
G37*
G36*
X199427Y211890D02*
X197948D01*
Y210344D01*
X194112D01*
X193421Y210206D01*
X192835Y209815D01*
X192443Y209229D01*
X192306Y208537D01*
X192443Y207846D01*
X192835Y207260D01*
X193421Y206869D01*
X194112Y206731D01*
X197948D01*
Y205185D01*
X199427D01*
Y208537D01*
Y211890D01*
D02*
G37*
G36*
X413715Y205869D02*
X411941D01*
Y203701D01*
X413715D01*
Y205869D01*
D02*
G37*
G36*
X409571D02*
X407797D01*
Y203701D01*
X409571D01*
Y205869D01*
D02*
G37*
G36*
X137396Y205315D02*
X135917D01*
Y203147D01*
X137396D01*
Y205315D01*
D02*
G37*
G36*
X133547D02*
X132069D01*
Y203147D01*
X133547D01*
Y205315D01*
D02*
G37*
G36*
X379783Y201740D02*
X373681D01*
Y199806D01*
X370650D01*
X370257Y199969D01*
X369474D01*
X368751Y199669D01*
X368197Y199115D01*
X367897Y198392D01*
Y197609D01*
X368197Y196885D01*
X368751Y196332D01*
X369474Y196032D01*
X370257D01*
X370648Y196194D01*
X373681D01*
Y194260D01*
X379783D01*
Y201740D01*
D02*
G37*
G36*
X355939Y208815D02*
X350021D01*
Y206647D01*
X351375D01*
Y205520D01*
X351375Y205520D01*
X351497Y204905D01*
X351845Y204384D01*
X353894Y202335D01*
Y201217D01*
X353562Y201025D01*
X352975Y200438D01*
X352559Y199718D01*
X352550Y199685D01*
X355500D01*
X358450D01*
X358441Y199718D01*
X358025Y200438D01*
X357438Y201025D01*
X357106Y201217D01*
Y203000D01*
X357106Y203000D01*
X356983Y203614D01*
X356635Y204135D01*
X354586Y206185D01*
Y206647D01*
X355939D01*
Y208815D01*
D02*
G37*
G36*
X358450Y197315D02*
X356685D01*
Y195550D01*
X356718Y195559D01*
X357438Y195975D01*
X358025Y196562D01*
X358441Y197282D01*
X358450Y197315D01*
D02*
G37*
G36*
X354315D02*
X352550D01*
X352559Y197282D01*
X352975Y196562D01*
X353562Y195975D01*
X354282Y195559D01*
X354315Y195550D01*
Y197315D01*
D02*
G37*
G36*
X335966Y202043D02*
X335033D01*
X334132Y201802D01*
X333324Y201335D01*
X332665Y200676D01*
X332198Y199868D01*
X331957Y198967D01*
Y198033D01*
X332198Y197132D01*
X332665Y196324D01*
X333324Y195665D01*
X334132Y195198D01*
X335033Y194957D01*
X335966D01*
X336868Y195198D01*
X337676Y195665D01*
X338335Y196324D01*
X338802Y197132D01*
X339043Y198033D01*
Y198967D01*
X338802Y199868D01*
X338335Y200676D01*
X337676Y201335D01*
X336868Y201802D01*
X335966Y202043D01*
D02*
G37*
G36*
X385000Y214757D02*
X384024Y214628D01*
X383114Y214251D01*
X382332Y213652D01*
X381733Y212871D01*
X381356Y211961D01*
X381228Y210984D01*
Y209016D01*
X381356Y208039D01*
X381733Y207130D01*
X382332Y206348D01*
X383114Y205749D01*
X383194Y205716D01*
Y201740D01*
X381949D01*
Y194260D01*
X388051D01*
Y201740D01*
X386806D01*
Y205716D01*
X386886Y205749D01*
X387667Y206348D01*
X388267Y207130D01*
X388644Y208039D01*
X388772Y209016D01*
Y210984D01*
X388644Y211961D01*
X388267Y212871D01*
X387667Y213652D01*
X386886Y214251D01*
X385976Y214628D01*
X385000Y214757D01*
D02*
G37*
G36*
X80185Y196969D02*
Y194185D01*
X82969D01*
X82858Y194598D01*
X82313Y195542D01*
X81542Y196313D01*
X80598Y196858D01*
X80185Y196969D01*
D02*
G37*
G36*
X77815D02*
X77402Y196858D01*
X76458Y196313D01*
X75687Y195542D01*
X75142Y194598D01*
X75031Y194185D01*
X77815D01*
Y196969D01*
D02*
G37*
G36*
X231023Y195480D02*
X224921D01*
Y193546D01*
X222255D01*
X221864Y193709D01*
X221081D01*
X220357Y193409D01*
X219803Y192855D01*
X219504Y192132D01*
Y191348D01*
X219803Y190625D01*
X220357Y190071D01*
X221081Y189771D01*
X221864D01*
X222255Y189934D01*
X224921D01*
Y188000D01*
X231023D01*
Y195480D01*
D02*
G37*
G36*
X146051Y210240D02*
X139949D01*
Y202760D01*
X141347D01*
Y199689D01*
X139901D01*
Y192209D01*
X141347D01*
Y189906D01*
X141129Y189848D01*
X140052Y189226D01*
X139172Y188346D01*
X138550Y187269D01*
X138228Y186067D01*
Y184823D01*
X138550Y183622D01*
X139172Y182545D01*
X140052Y181665D01*
X141129Y181043D01*
X142331Y180721D01*
X143575D01*
X144776Y181043D01*
X145853Y181665D01*
X146733Y182545D01*
X147355Y183622D01*
X147677Y184823D01*
Y186067D01*
X147355Y187269D01*
X146733Y188346D01*
X145853Y189226D01*
X144776Y189848D01*
X144558Y189906D01*
Y192209D01*
X146004D01*
Y194343D01*
X151162D01*
Y192562D01*
X154736D01*
Y199336D01*
X151162D01*
Y197555D01*
X146004D01*
Y199689D01*
X144558D01*
Y202760D01*
X146051D01*
Y210240D01*
D02*
G37*
G36*
X82969Y191815D02*
X80185D01*
Y189031D01*
X80598Y189142D01*
X81542Y189687D01*
X82313Y190458D01*
X82858Y191402D01*
X82969Y191815D01*
D02*
G37*
G36*
X77815D02*
X75031D01*
X75142Y191402D01*
X75687Y190458D01*
X76458Y189687D01*
X77402Y189142D01*
X77815Y189031D01*
Y191815D01*
D02*
G37*
G36*
X69596Y197528D02*
X68404D01*
X67252Y197219D01*
X66220Y196623D01*
X65377Y195780D01*
X64781Y194748D01*
X64472Y193596D01*
Y192404D01*
X64781Y191252D01*
X65377Y190220D01*
X66220Y189377D01*
X67252Y188781D01*
X68404Y188472D01*
X69596D01*
X70748Y188781D01*
X71780Y189377D01*
X72623Y190220D01*
X73219Y191252D01*
X73527Y192404D01*
Y193596D01*
X73219Y194748D01*
X72623Y195780D01*
X71780Y196623D01*
X70748Y197219D01*
X69596Y197528D01*
D02*
G37*
G36*
X59596D02*
X58404D01*
X57252Y197219D01*
X56220Y196623D01*
X55377Y195780D01*
X54781Y194748D01*
X54472Y193596D01*
Y192404D01*
X54781Y191252D01*
X55377Y190220D01*
X56220Y189377D01*
X57252Y188781D01*
X58404Y188472D01*
X59596D01*
X60748Y188781D01*
X61780Y189377D01*
X62623Y190220D01*
X63219Y191252D01*
X63528Y192404D01*
Y193596D01*
X63219Y194748D01*
X62623Y195780D01*
X61780Y196623D01*
X60748Y197219D01*
X59596Y197528D01*
D02*
G37*
G36*
X29596D02*
X28404D01*
X27252Y197219D01*
X26220Y196623D01*
X25377Y195780D01*
X24781Y194748D01*
X24472Y193596D01*
Y192404D01*
X24781Y191252D01*
X25377Y190220D01*
X26220Y189377D01*
X27252Y188781D01*
X28404Y188472D01*
X29596D01*
X30748Y188781D01*
X31780Y189377D01*
X32623Y190220D01*
X33219Y191252D01*
X33527Y192404D01*
Y193596D01*
X33219Y194748D01*
X32623Y195780D01*
X31780Y196623D01*
X30748Y197219D01*
X29596Y197528D01*
D02*
G37*
G36*
X393634Y189865D02*
X393020Y189743D01*
X392499Y189395D01*
X392151Y188874D01*
X392028Y188259D01*
Y185352D01*
X390970D01*
Y183185D01*
X393634D01*
X396298D01*
Y185352D01*
X395240D01*
Y188259D01*
X395118Y188874D01*
X394770Y189395D01*
X394249Y189743D01*
X393634Y189865D01*
D02*
G37*
G36*
X119815Y190335D02*
X118839Y190207D01*
X117929Y189830D01*
X117147Y189231D01*
X116548Y188449D01*
X116171Y187539D01*
X116042Y186563D01*
Y184595D01*
X116171Y183618D01*
X116548Y182708D01*
X117147Y181927D01*
X117929Y181327D01*
X118839Y180951D01*
X119815Y180822D01*
X120791Y180951D01*
X121701Y181327D01*
X122482Y181927D01*
X123082Y182708D01*
X123459Y183618D01*
X123587Y184595D01*
Y186563D01*
X123459Y187539D01*
X123082Y188449D01*
X122482Y189231D01*
X121701Y189830D01*
X120791Y190207D01*
X119815Y190335D01*
D02*
G37*
G36*
X109815D02*
X108839Y190207D01*
X107929Y189830D01*
X107147Y189231D01*
X106548Y188449D01*
X106171Y187539D01*
X106071Y186783D01*
X104315D01*
X103854Y186691D01*
X103463Y186430D01*
X103463Y186430D01*
X99463Y182430D01*
X99202Y182040D01*
X99111Y181579D01*
X99111Y181579D01*
Y168319D01*
X93130D01*
Y162294D01*
X93115Y162216D01*
Y161673D01*
X93109Y161645D01*
X93130Y161539D01*
Y160838D01*
X93583D01*
X94146Y160276D01*
Y158006D01*
X94207Y157699D01*
X94381Y157438D01*
X94442Y157397D01*
X94961Y156878D01*
Y155741D01*
X94831Y155382D01*
X86147D01*
X85917Y155612D01*
Y157269D01*
X85902Y157346D01*
Y163819D01*
X85335D01*
Y166579D01*
X85322Y166676D01*
X85322Y168874D01*
X85322Y168874D01*
X85322Y168874D01*
X85295Y169012D01*
X85261Y169181D01*
X85261Y169181D01*
X85261Y169181D01*
X85184Y169298D01*
X85087Y169442D01*
X85087Y169442D01*
X85087Y169442D01*
X82383Y172146D01*
X82122Y172320D01*
X81815Y172382D01*
X54815D01*
X54508Y172320D01*
X54247Y172146D01*
X54073Y171886D01*
X54012Y171579D01*
Y166579D01*
X54073Y166271D01*
X54247Y166011D01*
X54508Y165837D01*
X54815Y165776D01*
X78698D01*
X79775Y164698D01*
Y163819D01*
X79209D01*
Y157349D01*
X79192Y157265D01*
Y153899D01*
X79192Y153899D01*
X79253Y153592D01*
X79427Y153331D01*
X81471Y151287D01*
X81731Y151113D01*
X82038Y151052D01*
X92917D01*
Y151047D01*
X93600D01*
Y150264D01*
X94984D01*
Y150264D01*
X97150D01*
X100699D01*
Y151047D01*
X101382D01*
Y151615D01*
X103576D01*
X107611Y147580D01*
Y146113D01*
X106929Y145830D01*
X106147Y145230D01*
X105548Y144449D01*
X105171Y143539D01*
X105043Y142563D01*
Y140594D01*
X105171Y139618D01*
X105548Y138708D01*
X106147Y137927D01*
X106929Y137328D01*
X107839Y136951D01*
X108815Y136822D01*
X109791Y136951D01*
X110701Y137328D01*
X111482Y137927D01*
X112082Y138708D01*
X112459Y139618D01*
X112587Y140594D01*
Y142563D01*
X112459Y143539D01*
X112082Y144449D01*
X111482Y145230D01*
X110701Y145830D01*
X110019Y146113D01*
Y148079D01*
X110019Y148079D01*
X109927Y148540D01*
X109667Y148930D01*
X104926Y153670D01*
X104536Y153931D01*
X104075Y154023D01*
X104075Y154023D01*
X101382D01*
Y154591D01*
X99338D01*
Y155899D01*
X101166Y157727D01*
X101427Y158118D01*
X101519Y158579D01*
Y160936D01*
X101785Y161226D01*
X101919Y161226D01*
X103264D01*
Y164578D01*
X105634D01*
Y161226D01*
X107113D01*
Y163808D01*
X107134Y163859D01*
X107229Y164578D01*
Y172213D01*
X107134Y172932D01*
X106856Y173603D01*
X106415Y174179D01*
X105839Y174620D01*
X105169Y174898D01*
X104449Y174993D01*
X103730Y174898D01*
X103059Y174620D01*
X102484Y174179D01*
X102042Y173603D01*
X101919Y173307D01*
X101519Y173386D01*
Y181080D01*
X104814Y184374D01*
X106071D01*
X106171Y183618D01*
X106548Y182708D01*
X107147Y181927D01*
X107929Y181327D01*
X108839Y180951D01*
X109815Y180822D01*
X110791Y180951D01*
X111701Y181327D01*
X112482Y181927D01*
X113082Y182708D01*
X113459Y183618D01*
X113587Y184595D01*
Y186563D01*
X113459Y187539D01*
X113082Y188449D01*
X112482Y189231D01*
X111701Y189830D01*
X110791Y190207D01*
X109815Y190335D01*
D02*
G37*
G36*
X34479Y181853D02*
X32705D01*
Y179685D01*
X34479D01*
Y181853D01*
D02*
G37*
G36*
X30335D02*
X28561D01*
Y179685D01*
X30335D01*
Y181853D01*
D02*
G37*
G36*
X396298Y180815D02*
X394819D01*
Y178647D01*
X396298D01*
Y180815D01*
D02*
G37*
G36*
X392449D02*
X390970D01*
Y178647D01*
X392449D01*
Y180815D01*
D02*
G37*
G36*
X257950Y186797D02*
X253176D01*
Y181723D01*
X253757D01*
Y179023D01*
X253594Y178632D01*
Y177848D01*
X253894Y177125D01*
X254448Y176571D01*
X255171Y176271D01*
X255955D01*
X256678Y176571D01*
X257232Y177125D01*
X257531Y177848D01*
Y178632D01*
X257369Y179023D01*
Y181723D01*
X257950D01*
Y186797D01*
D02*
G37*
G36*
X96557Y179106D02*
X95774D01*
X95051Y178807D01*
X94497Y178253D01*
X94197Y177529D01*
Y176746D01*
X94497Y176023D01*
X95051Y175469D01*
X95774Y175169D01*
X96557D01*
X97281Y175469D01*
X97834Y176023D01*
X98134Y176746D01*
Y177529D01*
X97834Y178253D01*
X97281Y178807D01*
X96557Y179106D01*
D02*
G37*
G36*
X34479Y177315D02*
X32705D01*
Y175147D01*
X34479D01*
Y177315D01*
D02*
G37*
G36*
X30335D02*
X28561D01*
Y175147D01*
X30335D01*
Y177315D01*
D02*
G37*
G36*
X406219Y171353D02*
X404445D01*
Y169185D01*
X406219D01*
Y171353D01*
D02*
G37*
G36*
X402075D02*
X400301D01*
Y169185D01*
X402075D01*
Y171353D01*
D02*
G37*
G36*
X188124Y175831D02*
X181349D01*
Y167169D01*
X188124D01*
Y175831D01*
D02*
G37*
G36*
X174500Y175860D02*
X173616Y175743D01*
X172792Y175402D01*
X172084Y174859D01*
X171541Y174152D01*
X171200Y173328D01*
X171083Y172443D01*
Y170557D01*
X171200Y169672D01*
X171541Y168848D01*
X172084Y168141D01*
X172792Y167598D01*
X173616Y167256D01*
X174500Y167140D01*
X175384Y167256D01*
X176208Y167598D01*
X176916Y168141D01*
X177459Y168848D01*
X177800Y169672D01*
X177917Y170557D01*
Y172443D01*
X177800Y173328D01*
X177459Y174152D01*
X176916Y174859D01*
X176208Y175402D01*
X175384Y175743D01*
X174500Y175860D01*
D02*
G37*
G36*
X137736Y199689D02*
X131634D01*
Y192209D01*
X132678D01*
Y178815D01*
X132831Y178047D01*
X133266Y177396D01*
X140581Y170081D01*
X141232Y169646D01*
X142000Y169493D01*
X161038D01*
X161305Y168848D01*
X161848Y168141D01*
X162555Y167598D01*
X163380Y167256D01*
X164264Y167140D01*
X165148Y167256D01*
X165972Y167598D01*
X166680Y168141D01*
X167223Y168848D01*
X167564Y169672D01*
X167680Y170557D01*
Y172443D01*
X167564Y173328D01*
X167223Y174152D01*
X166680Y174859D01*
X165972Y175402D01*
X165148Y175743D01*
X164264Y175860D01*
X163380Y175743D01*
X162555Y175402D01*
X161848Y174859D01*
X161305Y174152D01*
X161038Y173507D01*
X142831D01*
X136692Y179647D01*
Y192209D01*
X137736D01*
Y199689D01*
D02*
G37*
G36*
X128474Y169358D02*
X127691D01*
X126968Y169059D01*
X126414Y168505D01*
X126114Y167781D01*
Y166998D01*
X126414Y166275D01*
X126968Y165721D01*
X127691Y165421D01*
X128474D01*
X129198Y165721D01*
X129752Y166275D01*
X130051Y166998D01*
Y167781D01*
X129752Y168505D01*
X129198Y169059D01*
X128474Y169358D01*
D02*
G37*
G36*
X78034Y163432D02*
X76260D01*
Y161264D01*
X78034D01*
Y163432D01*
D02*
G37*
G36*
X73890D02*
X72116D01*
Y161264D01*
X73890D01*
Y163432D01*
D02*
G37*
G36*
X406219Y166815D02*
X403260D01*
X400301D01*
Y164647D01*
X401654D01*
Y161740D01*
X401776Y161126D01*
X402124Y160605D01*
X402645Y160257D01*
X403260Y160134D01*
X403874Y160257D01*
X404395Y160605D01*
X404743Y161126D01*
X404866Y161740D01*
Y164647D01*
X406219D01*
Y166815D01*
D02*
G37*
G36*
X78034Y158894D02*
X75075D01*
X72116D01*
Y156726D01*
X72333D01*
Y148691D01*
X72153D01*
Y146524D01*
X75112D01*
X78071D01*
Y148691D01*
X77892D01*
Y156726D01*
X78034D01*
Y158894D01*
D02*
G37*
G36*
X78071Y144153D02*
X76297D01*
Y141986D01*
X78071D01*
Y144153D01*
D02*
G37*
G36*
X73927D02*
X72153D01*
Y141986D01*
X73927D01*
Y144153D01*
D02*
G37*
G36*
X118815Y146335D02*
X117839Y146207D01*
X116929Y145830D01*
X116147Y145230D01*
X115548Y144449D01*
X115171Y143539D01*
X115042Y142563D01*
Y140594D01*
X115171Y139618D01*
X115548Y138708D01*
X116147Y137927D01*
X116929Y137328D01*
X117839Y136951D01*
X118815Y136822D01*
X119791Y136951D01*
X120701Y137328D01*
X121482Y137927D01*
X122082Y138708D01*
X122459Y139618D01*
X122587Y140594D01*
Y142563D01*
X122459Y143539D01*
X122082Y144449D01*
X121482Y145230D01*
X120701Y145830D01*
X119791Y146207D01*
X118815Y146335D01*
D02*
G37*
G36*
X45340Y148690D02*
X40266D01*
Y143916D01*
X40796D01*
Y137917D01*
X40835Y137723D01*
Y137525D01*
X40910Y137343D01*
X40949Y137149D01*
X41058Y136985D01*
X41134Y136802D01*
X41274Y136662D01*
X41384Y136498D01*
X41548Y136388D01*
X41688Y136248D01*
X41871Y136172D01*
X42035Y136063D01*
X42229Y136024D01*
X42411Y135949D01*
X42609D01*
X42803Y135910D01*
X42997Y135949D01*
X43194D01*
X43377Y136024D01*
X43571Y136063D01*
X43735Y136172D01*
X43918Y136248D01*
X44058Y136388D01*
X44222Y136498D01*
X44332Y136662D01*
X44472Y136802D01*
X44547Y136985D01*
X44657Y137149D01*
X44696Y137343D01*
X44772Y137525D01*
Y137723D01*
X44810Y137917D01*
Y143916D01*
X45340D01*
Y148690D01*
D02*
G37*
G36*
X28831Y132012D02*
X20169D01*
Y125988D01*
X28831D01*
Y132012D01*
D02*
G37*
G36*
X57079Y132038D02*
X54441D01*
X53655Y131934D01*
X52922Y131631D01*
X52293Y131148D01*
X51810Y130519D01*
X51507Y129786D01*
X51403Y129000D01*
X51507Y128214D01*
X51810Y127481D01*
X52293Y126852D01*
X52922Y126369D01*
X53655Y126066D01*
X54441Y125962D01*
X57079D01*
X57865Y126066D01*
X58598Y126369D01*
X59227Y126852D01*
X59710Y127481D01*
X60013Y128214D01*
X60116Y129000D01*
X60013Y129786D01*
X59710Y130519D01*
X59227Y131148D01*
X58598Y131631D01*
X57865Y131934D01*
X57079Y132038D01*
D02*
G37*
G36*
X202354Y147011D02*
X141000D01*
X140693Y146950D01*
X140432Y146776D01*
X140258Y146516D01*
X140197Y146209D01*
Y125709D01*
X140258Y125401D01*
X140432Y125141D01*
X140693Y124967D01*
X141000Y124906D01*
X202354D01*
X202661Y124967D01*
X202922Y125141D01*
X203096Y125401D01*
X203157Y125709D01*
Y146209D01*
X203096Y146516D01*
X202922Y146776D01*
X202661Y146950D01*
X202354Y147011D01*
D02*
G37*
G36*
X85852Y149141D02*
X82353D01*
X82223Y149116D01*
X82093Y149098D01*
X82071Y149085D01*
X82045Y149080D01*
X82043Y149079D01*
X79246D01*
Y141598D01*
X79745D01*
Y135429D01*
X79624Y135359D01*
X78744Y134480D01*
X78122Y133402D01*
X77800Y132201D01*
Y130957D01*
X78122Y129755D01*
X78744Y128678D01*
X79624Y127798D01*
X80701Y127176D01*
X81903Y126854D01*
X83147D01*
X84348Y127176D01*
X85426Y127798D01*
X86305Y128678D01*
X86927Y129755D01*
X87249Y130957D01*
Y132201D01*
X86927Y133402D01*
X86305Y134480D01*
X85426Y135359D01*
X85304Y135429D01*
Y141289D01*
X85595D01*
X85903Y141350D01*
X86163Y141524D01*
X86163Y141524D01*
X86836Y142197D01*
X93571D01*
X93724Y141828D01*
X90885Y138989D01*
X90711Y138728D01*
X90650Y138421D01*
Y137838D01*
X90630Y137819D01*
X90630D01*
Y130338D01*
X96733D01*
X97028Y130086D01*
Y119847D01*
X96564Y119383D01*
X96264Y118659D01*
Y117876D01*
X96564Y117153D01*
X97117Y116599D01*
X97841Y116299D01*
X98624D01*
X99347Y116599D01*
X99901Y117153D01*
X100201Y117876D01*
Y118659D01*
X99901Y119383D01*
X99436Y119847D01*
Y125657D01*
X99836Y125793D01*
X100034Y125534D01*
X100610Y125093D01*
X101281Y124815D01*
X102000Y124720D01*
X102719Y124815D01*
X103390Y125093D01*
X103965Y125534D01*
X104407Y126110D01*
X104685Y126781D01*
X104780Y127500D01*
Y134028D01*
X104685Y134747D01*
X104613Y134921D01*
Y137431D01*
X103134D01*
Y134078D01*
X100764D01*
Y137431D01*
X99436D01*
Y143954D01*
X100995D01*
Y144548D01*
X101215Y144878D01*
X101307Y145339D01*
Y147894D01*
X99315D01*
D01*
X97150D01*
X93600D01*
Y147110D01*
X92917D01*
Y147097D01*
X88229D01*
X86420Y148906D01*
X86160Y149080D01*
X85852Y149141D01*
D02*
G37*
G36*
X57079Y122038D02*
X54441D01*
X53655Y121934D01*
X52922Y121631D01*
X52293Y121148D01*
X51810Y120519D01*
X51763Y120405D01*
X49500D01*
X48962Y120298D01*
X48507Y119993D01*
X28918Y100405D01*
X28497D01*
X28450Y100519D01*
X27967Y101148D01*
X27338Y101631D01*
X26605Y101934D01*
X25819Y102038D01*
X23181D01*
X22395Y101934D01*
X21662Y101631D01*
X21033Y101148D01*
X20550Y100519D01*
X20247Y99786D01*
X20143Y99000D01*
X20247Y98214D01*
X20550Y97481D01*
X21033Y96852D01*
X21662Y96369D01*
X22395Y96066D01*
X23181Y95962D01*
X25819D01*
X26605Y96066D01*
X27338Y96369D01*
X27967Y96852D01*
X28450Y97481D01*
X28497Y97595D01*
X29500D01*
X30038Y97702D01*
X30493Y98007D01*
X50082Y117595D01*
X51763D01*
X51810Y117481D01*
X52293Y116852D01*
X52922Y116369D01*
X53655Y116066D01*
X54441Y115962D01*
X57079D01*
X57865Y116066D01*
X58598Y116369D01*
X59227Y116852D01*
X59710Y117481D01*
X60013Y118214D01*
X60116Y119000D01*
X60013Y119786D01*
X59710Y120519D01*
X59227Y121148D01*
X58598Y121631D01*
X57865Y121934D01*
X57079Y122038D01*
D02*
G37*
G36*
X12622Y123724D02*
X11378D01*
X10176Y123402D01*
X9099Y122781D01*
X8219Y121901D01*
X7598Y120824D01*
X7276Y119622D01*
Y118378D01*
X7598Y117176D01*
X8219Y116099D01*
X9099Y115219D01*
X10176Y114598D01*
X10394Y114539D01*
Y111551D01*
X8260D01*
Y105449D01*
X15740D01*
Y111551D01*
X13606D01*
Y114539D01*
X13824Y114598D01*
X14901Y115219D01*
X15780Y116099D01*
X16402Y117176D01*
X16461Y117394D01*
X20617D01*
X21033Y116852D01*
X21662Y116369D01*
X22395Y116066D01*
X23181Y115962D01*
X25819D01*
X26605Y116066D01*
X27338Y116369D01*
X27967Y116852D01*
X28450Y117481D01*
X28753Y118214D01*
X28857Y119000D01*
X28753Y119786D01*
X28450Y120519D01*
X27967Y121148D01*
X27338Y121631D01*
X26605Y121934D01*
X25819Y122038D01*
X23181D01*
X22395Y121934D01*
X21662Y121631D01*
X21033Y121148D01*
X20617Y120606D01*
X16461D01*
X16402Y120824D01*
X15780Y121901D01*
X14901Y122781D01*
X13824Y123402D01*
X12622Y123724D01*
D02*
G37*
G36*
X69240Y112051D02*
X61760D01*
Y111007D01*
X59335D01*
X59227Y111148D01*
X58598Y111631D01*
X57865Y111934D01*
X57079Y112038D01*
X54441D01*
X53655Y111934D01*
X52922Y111631D01*
X52293Y111148D01*
X51810Y110519D01*
X51507Y109786D01*
X51403Y109000D01*
X51507Y108214D01*
X51810Y107481D01*
X52293Y106852D01*
X52922Y106369D01*
X53655Y106066D01*
X54441Y105962D01*
X57079D01*
X57865Y106066D01*
X58598Y106369D01*
X59227Y106852D01*
X59335Y106993D01*
X61760D01*
Y105949D01*
X69240D01*
Y112051D01*
D02*
G37*
G36*
X25819Y112038D02*
X23181D01*
X22395Y111934D01*
X21662Y111631D01*
X21033Y111148D01*
X20550Y110519D01*
X20247Y109786D01*
X20143Y109000D01*
X20247Y108214D01*
X20550Y107481D01*
X21033Y106852D01*
X21662Y106369D01*
X22395Y106066D01*
X23181Y105962D01*
X25819D01*
X26605Y106066D01*
X27338Y106369D01*
X27967Y106852D01*
X28450Y107481D01*
X28753Y108214D01*
X28857Y109000D01*
X28753Y109786D01*
X28450Y110519D01*
X27967Y111148D01*
X27338Y111631D01*
X26605Y111934D01*
X25819Y112038D01*
D02*
G37*
G36*
X68853Y103396D02*
X66685D01*
Y101917D01*
X68853D01*
Y103396D01*
D02*
G37*
G36*
X64315D02*
X62147D01*
Y102739D01*
X61366D01*
X60598Y102586D01*
X59947Y102151D01*
X58802Y101007D01*
X58774D01*
X58402Y101292D01*
X57764Y101557D01*
X57079Y101647D01*
X56945D01*
Y99000D01*
Y96353D01*
X57079D01*
X57764Y96443D01*
X58402Y96708D01*
X58774Y96993D01*
X59634D01*
X60402Y97146D01*
X61053Y97581D01*
X61778Y98305D01*
X62147Y98152D01*
Y98068D01*
X64315D01*
Y100732D01*
Y103396D01*
D02*
G37*
G36*
X54575Y101647D02*
X54441D01*
X53756Y101557D01*
X53117Y101292D01*
X52569Y100872D01*
X52148Y100323D01*
X52091Y100185D01*
X54575D01*
Y101647D01*
D02*
G37*
G36*
X68853Y99547D02*
X66685D01*
Y98068D01*
X68853D01*
Y99547D01*
D02*
G37*
G36*
X54575Y97815D02*
X52091D01*
X52148Y97676D01*
X52569Y97128D01*
X53117Y96708D01*
X53756Y96443D01*
X54441Y96353D01*
X54575D01*
Y97815D01*
D02*
G37*
G36*
X15740Y103283D02*
X8260D01*
Y97181D01*
X10395D01*
Y93650D01*
X9343D01*
Y87351D01*
X14658D01*
Y93650D01*
X13606D01*
Y97181D01*
X15740D01*
Y103283D01*
D02*
G37*
G36*
X57079Y92038D02*
X54441D01*
X53655Y91934D01*
X52922Y91631D01*
X52293Y91148D01*
X51810Y90519D01*
X51507Y89786D01*
X51403Y89000D01*
X51507Y88214D01*
X51810Y87481D01*
X52293Y86852D01*
X52922Y86369D01*
X53655Y86066D01*
X54441Y85962D01*
X57079D01*
X57865Y86066D01*
X58598Y86369D01*
X59227Y86852D01*
X59710Y87481D01*
X60013Y88214D01*
X60116Y89000D01*
X60013Y89786D01*
X59710Y90519D01*
X59227Y91148D01*
X58598Y91631D01*
X57865Y91934D01*
X57079Y92038D01*
D02*
G37*
G36*
X25819D02*
X23181D01*
X22395Y91934D01*
X21662Y91631D01*
X21033Y91148D01*
X20550Y90519D01*
X20247Y89786D01*
X20143Y89000D01*
X20247Y88214D01*
X20550Y87481D01*
X21033Y86852D01*
X21662Y86369D01*
X22395Y86066D01*
X23181Y85962D01*
X25819D01*
X26605Y86066D01*
X27338Y86369D01*
X27967Y86852D01*
X28450Y87481D01*
X28753Y88214D01*
X28857Y89000D01*
X28753Y89786D01*
X28450Y90519D01*
X27967Y91148D01*
X27338Y91631D01*
X26605Y91934D01*
X25819Y92038D01*
D02*
G37*
G36*
X89124Y92331D02*
X82349D01*
Y83669D01*
X89124D01*
Y92331D01*
D02*
G37*
G36*
X65264Y92360D02*
X64380Y92243D01*
X63555Y91902D01*
X62848Y91359D01*
X62305Y90652D01*
X61964Y89828D01*
X61847Y88943D01*
Y87057D01*
X61964Y86172D01*
X62305Y85348D01*
X62848Y84641D01*
X63555Y84098D01*
X64380Y83757D01*
X65264Y83640D01*
X66148Y83757D01*
X66972Y84098D01*
X67680Y84641D01*
X68223Y85348D01*
X68564Y86172D01*
X68680Y87057D01*
Y88943D01*
X68564Y89828D01*
X68223Y90652D01*
X67680Y91359D01*
X66972Y91902D01*
X66148Y92243D01*
X65264Y92360D01*
D02*
G37*
G36*
X14270Y84995D02*
X13185D01*
Y83418D01*
X14270D01*
Y84995D01*
D02*
G37*
G36*
X10815D02*
X9730D01*
Y83418D01*
X10815D01*
Y84995D01*
D02*
G37*
G36*
X126870Y78892D02*
Y77185D01*
X128577D01*
X128574Y77197D01*
X128166Y77903D01*
X127588Y78481D01*
X126882Y78889D01*
X126870Y78892D01*
D02*
G37*
G36*
X124500D02*
X124488Y78889D01*
X123782Y78481D01*
X123204Y77903D01*
X122796Y77197D01*
X122793Y77185D01*
X124500D01*
Y78892D01*
D02*
G37*
G36*
X125685Y76000D02*
D01*
D01*
D01*
D02*
G37*
G36*
X57079Y82038D02*
X54441D01*
X53655Y81934D01*
X52922Y81631D01*
X52293Y81148D01*
X51810Y80519D01*
X51507Y79786D01*
X51403Y79000D01*
X51507Y78214D01*
X51810Y77481D01*
X52293Y76852D01*
X52922Y76369D01*
X53655Y76066D01*
X54441Y75962D01*
X57079D01*
X57865Y76066D01*
X58598Y76369D01*
X59227Y76852D01*
X59710Y77481D01*
X60013Y78214D01*
X60116Y79000D01*
X60013Y79786D01*
X59710Y80519D01*
X59227Y81148D01*
X58598Y81631D01*
X57865Y81934D01*
X57079Y82038D01*
D02*
G37*
G36*
X25819D02*
X23181D01*
X22395Y81934D01*
X21662Y81631D01*
X21033Y81148D01*
X20550Y80519D01*
X20247Y79786D01*
X20143Y79000D01*
X20247Y78214D01*
X20550Y77481D01*
X21033Y76852D01*
X21662Y76369D01*
X22395Y76066D01*
X23181Y75962D01*
X25819D01*
X26605Y76066D01*
X27338Y76369D01*
X27967Y76852D01*
X28450Y77481D01*
X28753Y78214D01*
X28857Y79000D01*
X28753Y79786D01*
X28450Y80519D01*
X27967Y81148D01*
X27338Y81631D01*
X26605Y81934D01*
X25819Y82038D01*
D02*
G37*
G36*
X14270Y81047D02*
X12000D01*
X9730D01*
Y79470D01*
X10395D01*
Y76502D01*
X10394Y76500D01*
X10517Y75886D01*
X10865Y75365D01*
X11385Y75017D01*
X12000Y74894D01*
X12614Y75017D01*
X13135Y75365D01*
X13136Y75365D01*
X13136Y75365D01*
X13484Y75886D01*
X13606Y76500D01*
Y79470D01*
X14270D01*
Y81047D01*
D02*
G37*
G36*
X128577Y74815D02*
X126870D01*
Y73108D01*
X126882Y73111D01*
X127588Y73519D01*
X128166Y74097D01*
X128574Y74803D01*
X128577Y74815D01*
D02*
G37*
G36*
X124500D02*
X122793D01*
X122796Y74803D01*
X123204Y74097D01*
X123782Y73519D01*
X124488Y73111D01*
X124500Y73108D01*
Y74815D01*
D02*
G37*
G36*
X57079Y72038D02*
X54441D01*
X53655Y71934D01*
X52922Y71631D01*
X52293Y71148D01*
X51810Y70519D01*
X51507Y69786D01*
X51403Y69000D01*
X51507Y68214D01*
X51810Y67481D01*
X52293Y66852D01*
X52922Y66369D01*
X53655Y66066D01*
X54441Y65962D01*
X57079D01*
X57865Y66066D01*
X58598Y66369D01*
X59227Y66852D01*
X59710Y67481D01*
X60013Y68214D01*
X60116Y69000D01*
X60013Y69786D01*
X59710Y70519D01*
X59227Y71148D01*
X58598Y71631D01*
X57865Y71934D01*
X57079Y72038D01*
D02*
G37*
G36*
X25819D02*
X23181D01*
X22395Y71934D01*
X21662Y71631D01*
X21033Y71148D01*
X20550Y70519D01*
X20247Y69786D01*
X20143Y69000D01*
X20247Y68214D01*
X20550Y67481D01*
X21033Y66852D01*
X21662Y66369D01*
X22395Y66066D01*
X23181Y65962D01*
X25819D01*
X26605Y66066D01*
X27338Y66369D01*
X27967Y66852D01*
X28450Y67481D01*
X28753Y68214D01*
X28857Y69000D01*
X28753Y69786D01*
X28450Y70519D01*
X27967Y71148D01*
X27338Y71631D01*
X26605Y71934D01*
X25819Y72038D01*
D02*
G37*
G36*
Y61647D02*
X25685D01*
Y60185D01*
X28169D01*
X28111Y60324D01*
X27691Y60872D01*
X27142Y61292D01*
X26504Y61557D01*
X25819Y61647D01*
D02*
G37*
G36*
X23315D02*
X23181D01*
X22496Y61557D01*
X21858Y61292D01*
X21309Y60872D01*
X20889Y60324D01*
X20831Y60185D01*
X23315D01*
Y61647D01*
D02*
G37*
G36*
X28169Y57815D02*
X25685D01*
Y56353D01*
X25819D01*
X26504Y56443D01*
X27142Y56708D01*
X27691Y57128D01*
X28111Y57677D01*
X28169Y57815D01*
D02*
G37*
G36*
X23315D02*
X20831D01*
X20889Y57677D01*
X21309Y57128D01*
X21858Y56708D01*
X22496Y56443D01*
X23181Y56353D01*
X23315D01*
Y57815D01*
D02*
G37*
G36*
X57079Y62038D02*
X54441D01*
X53655Y61934D01*
X52922Y61631D01*
X52293Y61148D01*
X51810Y60519D01*
X51507Y59786D01*
X51403Y59000D01*
X51507Y58214D01*
X51810Y57481D01*
X52293Y56852D01*
X52922Y56369D01*
X53655Y56066D01*
X54441Y55962D01*
X57079D01*
X57865Y56066D01*
X58598Y56369D01*
X59227Y56852D01*
X59710Y57481D01*
X60013Y58214D01*
X60116Y59000D01*
X60013Y59786D01*
X59710Y60519D01*
X59227Y61148D01*
X58598Y61631D01*
X57865Y61934D01*
X57079Y62038D01*
D02*
G37*
G36*
X75500Y92360D02*
X74616Y92243D01*
X73792Y91902D01*
X73084Y91359D01*
X72541Y90652D01*
X72200Y89828D01*
X72083Y88943D01*
Y87057D01*
X72200Y86172D01*
X72541Y85348D01*
X73084Y84641D01*
X73493Y84327D01*
Y80500D01*
X73646Y79732D01*
X74081Y79081D01*
X78581Y74581D01*
X79232Y74146D01*
X80000Y73993D01*
X103132D01*
X103209Y73859D01*
X103859Y73209D01*
X103993Y73132D01*
Y53240D01*
X102949D01*
Y51507D01*
X88637D01*
X88631Y51518D01*
X88019Y52131D01*
X87269Y52563D01*
X86433Y52787D01*
X85567D01*
X84731Y52563D01*
X83982Y52131D01*
X83369Y51518D01*
X82937Y50769D01*
X82713Y49933D01*
Y49067D01*
X82937Y48231D01*
X83369Y47482D01*
X83982Y46869D01*
X84731Y46437D01*
X85567Y46213D01*
X86433D01*
X87269Y46437D01*
X88019Y46869D01*
X88631Y47482D01*
X88637Y47493D01*
X102949D01*
Y45760D01*
X109051D01*
Y53240D01*
X108007D01*
Y73132D01*
X108141Y73209D01*
X108791Y73859D01*
X109250Y74654D01*
X109487Y75541D01*
Y76459D01*
X109250Y77346D01*
X108791Y78141D01*
X108141Y78791D01*
X107346Y79250D01*
X106459Y79487D01*
X105541D01*
X104654Y79250D01*
X103859Y78791D01*
X103209Y78141D01*
X103132Y78007D01*
X80831D01*
X77507Y81331D01*
Y84327D01*
X77916Y84641D01*
X78459Y85348D01*
X78800Y86172D01*
X78917Y87057D01*
Y88943D01*
X78800Y89828D01*
X78459Y90652D01*
X77916Y91359D01*
X77208Y91902D01*
X76384Y92243D01*
X75500Y92360D01*
D02*
G37*
G36*
X81387Y52787D02*
X74813D01*
Y46213D01*
X81387D01*
Y52787D01*
D02*
G37*
G36*
X201677Y58169D02*
X139500D01*
X139193Y58108D01*
X138932Y57934D01*
X138758Y57673D01*
X138697Y57366D01*
Y36866D01*
X138758Y36559D01*
X138932Y36298D01*
X139193Y36124D01*
X139500Y36063D01*
X201677D01*
X201984Y36124D01*
X202245Y36298D01*
X202419Y36559D01*
X202480Y36866D01*
Y57366D01*
X202419Y57673D01*
X202245Y57934D01*
X201984Y58108D01*
X201677Y58169D01*
D02*
G37*
G36*
X30315Y25747D02*
X29753Y25185D01*
X30315D01*
Y25747D01*
D02*
G37*
G36*
X50000Y33803D02*
X35000D01*
X34693Y33742D01*
X34432Y33568D01*
X34258Y33307D01*
X34197Y33000D01*
Y26461D01*
X33961D01*
Y24443D01*
X33573Y24412D01*
X33258Y25174D01*
X32685Y25747D01*
Y24000D01*
Y22253D01*
X33258Y22826D01*
X33573Y23588D01*
X33961Y23557D01*
Y21539D01*
X38882D01*
Y21697D01*
X50000D01*
X50307Y21758D01*
X50568Y21932D01*
X50742Y22193D01*
X50803Y22500D01*
Y33000D01*
X50742Y33307D01*
X50568Y33568D01*
X50307Y33742D01*
X50000Y33803D01*
D02*
G37*
G36*
X30315Y22815D02*
X29753D01*
X30315Y22253D01*
Y22815D01*
D02*
G37*
G36*
X68030Y17400D02*
X66315D01*
Y15685D01*
X68030D01*
Y17400D01*
D02*
G37*
G36*
X63945D02*
X62230D01*
Y15685D01*
X63945D01*
Y17400D01*
D02*
G37*
G36*
X147185Y16099D02*
Y14185D01*
X149099D01*
X149075Y14274D01*
X148641Y15026D01*
X148026Y15641D01*
X147274Y16075D01*
X147185Y16099D01*
D02*
G37*
G36*
X144815D02*
X144726Y16075D01*
X143974Y15641D01*
X143359Y15026D01*
X142925Y14274D01*
X142901Y14185D01*
X144815D01*
Y16099D01*
D02*
G37*
G36*
X68030Y13315D02*
X66315D01*
Y11600D01*
X68030D01*
Y13315D01*
D02*
G37*
G36*
X63945D02*
X62230D01*
Y11600D01*
X63945D01*
Y13315D01*
D02*
G37*
G36*
X54933Y17787D02*
X54067D01*
X53231Y17563D01*
X52482Y17131D01*
X51869Y16519D01*
X51437Y15769D01*
X51213Y14933D01*
Y14067D01*
X51437Y13231D01*
X51869Y12482D01*
X52482Y11869D01*
X53231Y11437D01*
X54067Y11213D01*
X54933D01*
X55769Y11437D01*
X56519Y11869D01*
X57131Y12482D01*
X57563Y13231D01*
X57787Y14067D01*
Y14933D01*
X57563Y15769D01*
X57131Y16519D01*
X56519Y17131D01*
X55769Y17563D01*
X54933Y17787D01*
D02*
G37*
G36*
X149099Y11815D02*
X147185D01*
Y9901D01*
X147274Y9925D01*
X148026Y10359D01*
X148641Y10974D01*
X149075Y11726D01*
X149099Y11815D01*
D02*
G37*
G36*
X144815D02*
X142901D01*
X142925Y11726D01*
X143359Y10974D01*
X143974Y10359D01*
X144726Y9925D01*
X144815Y9901D01*
Y11815D01*
D02*
G37*
G36*
X92122Y19224D02*
X90878D01*
X89676Y18902D01*
X88599Y18281D01*
X87720Y17401D01*
X87098Y16324D01*
X86776Y15122D01*
Y13878D01*
X87098Y12676D01*
X87720Y11599D01*
X88599Y10719D01*
X89676Y10097D01*
X90878Y9776D01*
X92122D01*
X93324Y10097D01*
X94401Y10719D01*
X95280Y11599D01*
X95902Y12676D01*
X96224Y13878D01*
Y15122D01*
X95902Y16324D01*
X95280Y17401D01*
X94401Y18281D01*
X93324Y18902D01*
X92122Y19224D01*
D02*
G37*
G36*
X117319Y53240D02*
X111217D01*
Y45760D01*
X117319D01*
Y47493D01*
X120669D01*
X124493Y43669D01*
Y40297D01*
X123599Y39781D01*
X122720Y38901D01*
X122098Y37824D01*
X121776Y36622D01*
Y35378D01*
X122098Y34176D01*
X122720Y33099D01*
X123599Y32219D01*
X124676Y31598D01*
X125878Y31276D01*
X127122D01*
X128119Y31543D01*
X132081Y27581D01*
X132732Y27146D01*
X133500Y26993D01*
X149669D01*
X153993Y22669D01*
Y16099D01*
X153736Y15951D01*
X153049Y15264D01*
X152564Y14423D01*
X152313Y13486D01*
Y12515D01*
X152564Y11577D01*
X153049Y10736D01*
X153736Y10049D01*
X154577Y9564D01*
X155515Y9313D01*
X156485D01*
X157423Y9564D01*
X158264Y10049D01*
X158951Y10736D01*
X159436Y11577D01*
X159687Y12515D01*
Y13486D01*
X159436Y14423D01*
X158951Y15264D01*
X158264Y15951D01*
X158007Y16099D01*
Y23500D01*
X157854Y24268D01*
X157419Y24919D01*
X151919Y30419D01*
X151268Y30854D01*
X150500Y31007D01*
X134331D01*
X130957Y34381D01*
X131224Y35378D01*
Y36622D01*
X130902Y37824D01*
X130280Y38901D01*
X129401Y39781D01*
X128507Y40297D01*
Y44500D01*
X128354Y45268D01*
X127919Y45919D01*
X122919Y50919D01*
X122268Y51354D01*
X121500Y51507D01*
X117319D01*
Y53240D01*
D02*
G37*
G36*
X136485Y16687D02*
X135514D01*
X134577Y16436D01*
X133736Y15951D01*
X133049Y15264D01*
X132564Y14423D01*
X132313Y13486D01*
Y12515D01*
X132564Y11577D01*
X133049Y10736D01*
X133736Y10049D01*
X134577Y9564D01*
X135514Y9313D01*
X136485D01*
X137423Y9564D01*
X138264Y10049D01*
X138951Y10736D01*
X139436Y11577D01*
X139687Y12515D01*
Y13486D01*
X139436Y14423D01*
X138951Y15264D01*
X138264Y15951D01*
X137423Y16436D01*
X136485Y16687D01*
D02*
G37*
%LPD*%
G36*
X84519Y168874D02*
X84519Y166423D01*
Y165023D01*
X80586D01*
X79031Y166579D01*
X54815D01*
Y171579D01*
X81815D01*
X84519Y168874D01*
D02*
G37*
G36*
X98441Y161630D02*
X97315Y160504D01*
Y157952D01*
X96562Y157199D01*
X96561Y157201D01*
X95774D01*
X94969Y158006D01*
X94949D01*
Y160608D01*
X93912Y161645D01*
X93918Y161651D01*
Y162200D01*
Y162216D01*
X98441D01*
Y161630D01*
D02*
G37*
G36*
X85114Y155280D02*
X85815Y154579D01*
X94831D01*
X94809Y151855D01*
X82038D01*
X79995Y153899D01*
Y157265D01*
X79998Y157269D01*
X85114D01*
Y155280D01*
D02*
G37*
G36*
X87897Y146294D02*
X94707D01*
Y143000D01*
X86503D01*
X85595Y142092D01*
X84487D01*
X82353Y148339D01*
X85852D01*
X87897Y146294D01*
D02*
G37*
G36*
X96165Y140929D02*
X95315Y140079D01*
Y137579D01*
X95815Y137079D01*
Y136579D01*
X91453Y136597D01*
X91453Y138421D01*
X96165Y143134D01*
Y140929D01*
D02*
G37*
G54D10*
X98232Y118268D02*
Y145240D01*
X98134Y145339D01*
X100102D02*
Y147972D01*
X99315Y148759D01*
Y149079D01*
X100102Y152819D02*
X104075D01*
X108815Y148079D01*
Y141579D01*
X96165Y145339D02*
Y140929D01*
X93681Y138445D01*
Y134078D01*
X96165Y152819D02*
Y164562D01*
X96181Y164578D01*
X100315Y158579D02*
Y181579D01*
X104315Y185579D01*
X109815D01*
X100315Y158579D02*
X98134Y156398D01*
Y152819D01*
G54D16*
X24500Y99000D02*
X29500D01*
X49500Y119000D01*
X54500D01*
X82555Y154839D02*
Y160079D01*
Y154839D02*
X84575Y152819D01*
X94197D01*
X80000Y178500D02*
X115500Y214000D01*
Y238000D01*
X110000Y243500D01*
Y228500D02*
X94000Y212500D01*
X68500D01*
X49000Y193000D01*
X50000Y171000D02*
X57500Y178500D01*
X80000D01*
X50000Y171000D02*
Y156500D01*
X44896Y151396D01*
X37896D01*
X35483Y148983D01*
Y146463D01*
X35323Y146303D01*
X39000Y178500D02*
X39063Y178437D01*
G54D21*
X39000Y154240D02*
Y165000D01*
X39063D02*
Y178437D01*
X39000Y178500D02*
Y193000D01*
X142835Y238165D02*
X179355D01*
X187623D02*
X194123D01*
X200623D01*
X208662Y238393D02*
X208890Y238165D01*
X208662Y238393D02*
Y247972D01*
X208434Y248200D01*
Y256566D01*
X207217Y257784D01*
X202591D01*
X177000D01*
X179356Y248164D02*
X164500D01*
X152836D01*
X145280Y255720D01*
Y263500D01*
X131500D02*
Y249500D01*
X142835Y238165D01*
X158067Y195949D02*
X162551D01*
X165500Y193000D01*
X199000D01*
X208917Y202917D01*
Y208500D01*
X214000D01*
X231910Y226410D01*
X244450D01*
Y221410D02*
X235090D01*
X235000Y221500D01*
X227410Y231410D02*
X244450D01*
Y236410D02*
X224910D01*
X216850Y228350D01*
X208890D01*
X200623D02*
X194123D01*
X194105Y228332D01*
X187240Y228500D02*
Y222000D01*
X194105Y218484D02*
X200605D01*
X208873D02*
X208889Y218500D01*
X214500D01*
X227410Y231410D01*
X244450Y241410D02*
X244540Y241500D01*
X250500D01*
X252500Y239500D01*
Y207000D01*
X246500Y201000D01*
X240000D01*
X236240Y197240D01*
Y191740D01*
X255563D01*
Y184260D02*
Y178240D01*
X263437Y188000D02*
X274500D01*
X286500Y176000D01*
X358000D01*
X381500Y152500D01*
X405500D01*
X433500Y124500D01*
X465106D01*
X465122Y124516D01*
Y118378D01*
X468500Y115000D01*
X530000D01*
X533622Y118622D01*
Y124516D01*
X403275Y202516D02*
Y189225D01*
X405500Y187000D01*
X410756D01*
Y177000D02*
X410740Y176984D01*
Y168000D01*
Y158760D01*
X394634Y170500D02*
X394635Y170500D01*
X385000Y198000D02*
Y210000D01*
X376732Y198000D02*
X369866D01*
X369866Y198000D01*
X385366Y182000D02*
Y171500D01*
X385433Y171433D01*
Y161067D01*
X385500Y161000D01*
X385366Y182000D02*
X313000D01*
X296400Y198600D01*
Y206485D01*
X301347Y215000D02*
X325847Y190500D01*
X337500D01*
X345500Y198500D01*
Y210000D01*
Y221000D01*
X334500D01*
X322432Y236433D02*
X313372D01*
Y241432D02*
X322432D01*
X323455Y211455D02*
X323500Y211500D01*
X323455Y211455D02*
X313395D01*
X313350Y211410D01*
X301347Y215000D02*
X265000D01*
X261400Y211400D01*
Y206485D01*
X244450Y211410D02*
X238910D01*
X234903Y207403D01*
X230903D01*
X230000Y206500D01*
X229410Y216410D02*
X244450D01*
X229410D02*
X224500Y211500D01*
X227972Y191740D02*
X221472D01*
X200612Y208537D02*
X194112D01*
X176134Y204500D02*
Y196848D01*
X176147Y196835D01*
X230700Y248200D02*
X237000Y254500D01*
Y263500D01*
X239910Y266410D01*
X244450D01*
Y271410D02*
X230830D01*
X230740Y271320D01*
Y261500D01*
Y253740D01*
X230700Y248200D02*
X208434D01*
X200954D02*
X194454D01*
X194123Y248164D02*
X187623D01*
X244450Y276410D02*
X250090D01*
X304590Y226410D02*
X313350D01*
Y221410D02*
X304590D01*
X322455Y256455D02*
X322500Y256500D01*
X322455Y256455D02*
X313395D01*
X313350Y256410D01*
Y261410D02*
X322410D01*
X322500Y261500D01*
X338000Y250500D02*
X345366D01*
X353634D02*
X362500D01*
X373500Y261500D01*
Y269000D01*
X387280D02*
Y257279D01*
X370000Y240000D01*
X353634D01*
X345366D02*
Y230634D01*
X353768Y221000D02*
X361135D01*
X321410Y276410D02*
X321500Y276500D01*
X321410Y276410D02*
X313350D01*
G54D25*
X152949Y195949D02*
D03*
X158067D02*
D03*
X155508Y204649D02*
D03*
G54D26*
X244450Y211410D02*
D03*
Y216410D02*
D03*
Y221410D02*
D03*
Y226410D02*
D03*
Y231410D02*
D03*
Y236410D02*
D03*
Y241410D02*
D03*
Y246410D02*
D03*
Y251410D02*
D03*
Y256410D02*
D03*
Y261410D02*
D03*
Y266410D02*
D03*
Y271410D02*
D03*
Y276410D02*
D03*
X313350Y216410D02*
D03*
Y211410D02*
D03*
Y221410D02*
D03*
Y226410D02*
D03*
Y231410D02*
D03*
Y236410D02*
D03*
Y241410D02*
D03*
Y246410D02*
D03*
Y251410D02*
D03*
Y256410D02*
D03*
Y261410D02*
D03*
Y266410D02*
D03*
Y271410D02*
D03*
Y276410D02*
D03*
G54D27*
X256400Y206485D02*
D03*
X261400D02*
D03*
X266400D02*
D03*
X271400D02*
D03*
X276400D02*
D03*
X281400D02*
D03*
X286400D02*
D03*
X291400D02*
D03*
X296400D02*
D03*
X301400D02*
D03*
G54D28*
X267480Y240500D02*
D03*
X272990D02*
D03*
X278500D02*
D03*
Y246010D02*
D03*
Y251520D02*
D03*
X272990D02*
D03*
Y246010D02*
D03*
X267480D02*
D03*
Y251520D02*
D03*
G54D29*
X94197Y145339D02*
D03*
X96165D02*
D03*
X98134D02*
D03*
X100102D02*
D03*
Y152819D02*
D03*
X98134D02*
D03*
X96165D02*
D03*
X94197D02*
D03*
G54D30*
X93681Y134078D02*
D03*
X101949D02*
D03*
X104449Y164578D02*
D03*
X96181D02*
D03*
X134685Y195949D02*
D03*
X142953D02*
D03*
X143000Y206500D02*
D03*
X134732D02*
D03*
X167866Y204500D02*
D03*
X176134D02*
D03*
X200612Y208537D02*
D03*
X208880D02*
D03*
X227972Y191740D02*
D03*
X236240D02*
D03*
X208873Y218484D02*
D03*
X200605D02*
D03*
X200623Y228350D02*
D03*
X208890D02*
D03*
X208890Y238165D02*
D03*
X200623D02*
D03*
X187623Y248164D02*
D03*
X179356D02*
D03*
X179355Y238165D02*
D03*
X187623D02*
D03*
X114268Y49500D02*
D03*
X106000D02*
D03*
X345500Y221000D02*
D03*
X353768D02*
D03*
X353634Y240000D02*
D03*
X345366D02*
D03*
X376732Y198000D02*
D03*
X385000D02*
D03*
X385366Y182000D02*
D03*
Y171500D02*
D03*
X393634D02*
D03*
Y182000D02*
D03*
X353634Y250500D02*
D03*
X345366D02*
D03*
G54D31*
X75112Y145339D02*
D03*
X75075Y160079D02*
D03*
X82555D02*
D03*
X82593Y145339D02*
D03*
X39000Y178500D02*
D03*
X31520D02*
D03*
X136520Y228673D02*
D03*
X144000D02*
D03*
X179760Y228500D02*
D03*
X187240D02*
D03*
X200954Y248200D02*
D03*
X208434D02*
D03*
X223260Y261500D02*
D03*
X230740D02*
D03*
Y271500D02*
D03*
X223260D02*
D03*
X345500Y210000D02*
D03*
X352980D02*
D03*
X403260Y168000D02*
D03*
X410740D02*
D03*
X410756Y202516D02*
D03*
X403275D02*
D03*
G54D32*
X35323Y146303D02*
D03*
X42803D02*
D03*
X39063Y154177D02*
D03*
G54D33*
X410756Y177000D02*
D03*
Y182000D02*
D03*
Y187000D02*
D03*
Y192000D02*
D03*
X430244D02*
D03*
Y187000D02*
D03*
Y182000D02*
D03*
Y177000D02*
D03*
G54D34*
X255563Y184260D02*
D03*
Y191740D02*
D03*
X263437Y188000D02*
D03*
G54D35*
X155508Y221193D02*
D03*
Y224933D02*
D03*
Y228673D02*
D03*
X167358D02*
D03*
Y221193D02*
D03*
G54D36*
X12000Y100232D02*
D03*
Y108500D02*
D03*
X65500Y109000D02*
D03*
Y100732D02*
D03*
G54D37*
X12000Y82233D02*
D03*
Y90500D02*
D03*
G54D48*
X65264Y88000D02*
D03*
X75500D02*
D03*
X164264Y171500D02*
D03*
X174500D02*
D03*
G54D49*
X85736Y88000D02*
D03*
X184736Y171500D02*
D03*
G54D54*
X177000Y275500D02*
D03*
G54D58*
X365000Y210000D02*
D03*
X375000D02*
D03*
X385000D02*
D03*
G54D59*
X404500Y256000D02*
D03*
G54D60*
X404500Y226000D02*
D03*
Y236000D02*
D03*
Y246000D02*
D03*
G54D68*
X136000Y13000D02*
D03*
X146000D02*
D03*
X156000D02*
D03*
G54D69*
X65130Y14500D02*
D03*
X78100Y49500D02*
D03*
G54D70*
X54500Y14500D02*
D03*
X86000Y49500D02*
D03*
G54D74*
X106000Y76000D02*
D03*
X125685D02*
D03*
G54D77*
X97150Y149079D02*
D03*
G54D78*
X75112Y145339D02*
Y160079D01*
X82525Y131579D02*
Y145339D01*
X82593D01*
X82555Y160079D02*
Y166579D01*
X101949Y134078D02*
X102000Y134028D01*
Y127500D01*
X104449Y164578D02*
Y172213D01*
X362590Y107238D02*
Y151410D01*
X345500Y168500D01*
G54D79*
X42803Y137917D02*
Y146303D01*
X55760Y109000D02*
X65500D01*
Y100732D02*
X61366D01*
X59634Y99000D01*
X55760D01*
X55685D01*
X75500Y88000D02*
Y80500D01*
X80000Y76000D01*
X106000D01*
Y49500D01*
X86000D01*
X126500Y44500D02*
Y36000D01*
X133500Y29000D01*
X150500D01*
X156000Y23500D01*
Y13000D01*
X121500Y49500D02*
X126500Y44500D01*
X121500Y49500D02*
X114268D01*
X164264Y171500D02*
X142000D01*
X134685Y178815D01*
Y195949D01*
X155508Y228673D02*
X144000D01*
Y235000D01*
G54D80*
X362590Y76530D02*
X362636Y76484D01*
X417878D01*
X469362Y25000D01*
X479815D01*
X499500D02*
Y63362D01*
X466362Y96500D01*
X373328D01*
X362590Y107238D01*
X430244Y177000D02*
X441500Y165744D01*
Y132390D01*
X510000D02*
Y148000D01*
Y159500D01*
Y172000D01*
Y184500D01*
X510000Y195000D01*
Y205500D01*
Y215500D01*
Y225000D01*
Y235000D01*
Y244000D01*
Y256000D01*
X490315D02*
Y223315D01*
X459000Y192000D01*
X453500Y191000D02*
X439390D01*
X438390Y192000D01*
X430244D01*
G54D81*
X12000Y76500D02*
X12000Y76500D01*
Y82233D01*
Y90500D02*
Y100232D01*
X12000Y100232D01*
Y108500D02*
Y119000D01*
X24500D01*
X142953Y185445D02*
Y195949D01*
X152949D01*
X155508Y204649D02*
X167866D01*
X155508D02*
Y221193D01*
X124693D01*
X134732Y214768D02*
Y206500D01*
X142953Y206453D02*
Y195949D01*
X155474Y224967D02*
X155508Y224933D01*
X155474Y224967D02*
X149533D01*
X136520Y228673D02*
X129827D01*
X223260Y253260D02*
Y261500D01*
Y271500D02*
X215020D01*
X264010Y240500D02*
X267480D01*
X272990D01*
X278500D01*
X281970D01*
X278500D02*
Y246010D01*
X278493Y246017D01*
X275673D01*
X275666Y246023D01*
X275660Y246017D01*
X272996D01*
X272990Y246010D01*
Y251520D02*
X278500D01*
X281980D01*
X282000Y251500D01*
X272990Y251520D02*
Y254990D01*
X273000Y255000D01*
X272990Y251520D02*
X267480D01*
X264010D01*
X267480D02*
Y246010D01*
Y240500D01*
X272990D02*
Y237030D01*
X267480Y246010D02*
X264010D01*
X352980Y210000D02*
Y205520D01*
X355500Y203000D01*
Y198500D01*
X403260Y168000D02*
Y161740D01*
X397500Y171500D02*
X399500Y173500D01*
Y178500D01*
X403000Y182000D01*
X410756D01*
Y192000D02*
Y196256D01*
Y202516D01*
X393634Y188259D02*
Y182000D01*
Y171500D02*
X397500D01*
G54D82*
X179500Y221500D02*
D03*
G54D83*
X170589Y47116D02*
D03*
G54D84*
X171677Y135959D02*
D03*
G54D85*
X171472Y228524D02*
D03*
G54D86*
X42500Y27750D02*
D03*
G54D87*
X24500Y129000D02*
D03*
G54D88*
X24500Y59000D02*
D03*
Y69000D02*
D03*
Y79000D02*
D03*
Y89000D02*
D03*
Y99000D02*
D03*
Y109000D02*
D03*
Y119000D02*
D03*
X55760Y69000D02*
D03*
Y59000D02*
D03*
Y79000D02*
D03*
Y89000D02*
D03*
Y99000D02*
D03*
Y109000D02*
D03*
Y119000D02*
D03*
Y129000D02*
D03*
G54D89*
X59000Y193000D02*
D03*
X69000D02*
D03*
X79000D02*
D03*
X49000D02*
D03*
X39000D02*
D03*
X29000D02*
D03*
X89000Y279102D02*
D03*
X79000D02*
D03*
X69000D02*
D03*
X59000D02*
D03*
X49000D02*
D03*
X39000D02*
D03*
G54D90*
X108815Y141579D02*
D03*
X118815D02*
D03*
X119815Y185579D02*
D03*
X109815D02*
D03*
G54D91*
X499500Y25000D02*
D03*
X490315Y256000D02*
D03*
G54D92*
X479815Y25000D02*
D03*
X510000Y256000D02*
D03*
G54D93*
X177000Y257784D02*
D03*
X202591D02*
D03*
Y275500D02*
D03*
G54D94*
X12000Y119000D02*
D03*
X39000Y165000D02*
D03*
X82525Y131579D02*
D03*
X142953Y185445D02*
D03*
X199000Y193000D02*
D03*
X230000Y206500D02*
D03*
X334500Y221000D02*
D03*
X370000Y240000D02*
D03*
X385500Y161000D02*
D03*
X110000Y243500D02*
D03*
Y228500D02*
D03*
X124693Y221193D02*
D03*
X126500Y36000D02*
D03*
X91500Y14500D02*
D03*
G54D95*
X131500Y263500D02*
D03*
X373500Y269000D02*
D03*
G54D96*
X145280Y263500D02*
D03*
X387280Y269000D02*
D03*
G54D97*
X195267Y47396D02*
D03*
Y136372D02*
D03*
X362590Y107238D02*
D03*
G54D98*
X362590Y76530D02*
D03*
G54D99*
X465122Y124516D02*
D03*
X533622D02*
D03*
G54D100*
X441500Y132390D02*
D03*
X510000D02*
D03*
G54D101*
X417878Y76484D02*
D03*
X465122D02*
D03*
X486378D02*
D03*
X533622D02*
D03*
X486378Y124516D02*
D03*
X417878D02*
D03*
G54D102*
X335500Y198500D02*
D03*
X345500D02*
D03*
X355500D02*
D03*
Y168500D02*
D03*
X345500D02*
D03*
G54D103*
X335500Y168500D02*
D03*
G54D104*
X36421Y24000D02*
D03*
G54D105*
X31500Y24000D02*
D03*
G54D106*
X94984Y149079D02*
D03*
X99315D02*
D03*
G54D107*
X145000Y47000D02*
D03*
X152500D02*
D03*
X160177Y46866D02*
D03*
X167677D02*
D03*
X175177D02*
D03*
X175354Y135709D02*
D03*
X167854D02*
D03*
X160354D02*
D03*
X153000Y135500D02*
D03*
X145500D02*
D03*
G54D108*
X12000Y76500D02*
D03*
X39500Y30500D02*
D03*
X43500D02*
D03*
Y26500D02*
D03*
X40000D02*
D03*
X47500D02*
D03*
Y30500D02*
D03*
X98232Y118268D02*
D03*
X102000Y127500D02*
D03*
X75112Y153293D02*
D03*
X64119Y169067D02*
D03*
X96166Y177138D02*
D03*
X104449Y172213D02*
D03*
X128083Y167390D02*
D03*
X176147Y196835D02*
D03*
X178000Y212500D02*
D03*
X181000D02*
D03*
Y217000D02*
D03*
X178000D02*
D03*
X194112Y208537D02*
D03*
X221472Y191740D02*
D03*
X224500Y211500D02*
D03*
X255563Y178240D02*
D03*
X304590Y221410D02*
D03*
Y226410D02*
D03*
X323500Y211500D02*
D03*
X345366Y230634D02*
D03*
X361135Y221000D02*
D03*
X369866Y198000D02*
D03*
X393634Y188259D02*
D03*
X403260Y161740D02*
D03*
X410740Y158760D02*
D03*
X439500Y161500D02*
D03*
X439000Y166500D02*
D03*
X439495Y153891D02*
D03*
X440000Y146500D02*
D03*
X442500Y141500D02*
D03*
X442610Y150816D02*
D03*
X443500Y157500D02*
D03*
X441500Y174500D02*
D03*
X453500Y191000D02*
D03*
X459000Y192000D02*
D03*
X465000Y190500D02*
D03*
X467500Y193500D02*
D03*
X470500Y196000D02*
D03*
X473500Y199500D02*
D03*
X476000Y202000D02*
D03*
X467500Y209000D02*
D03*
X509500Y184500D02*
D03*
Y172000D02*
D03*
Y159500D02*
D03*
Y148000D02*
D03*
X510000Y195000D02*
D03*
Y205500D02*
D03*
Y215500D02*
D03*
Y225000D02*
D03*
Y235000D02*
D03*
Y244000D02*
D03*
X465000Y206500D02*
D03*
X462000Y203000D02*
D03*
X459000Y200500D02*
D03*
X456500Y197500D02*
D03*
X452500D02*
D03*
X448500D02*
D03*
X444500D02*
D03*
X440500D02*
D03*
X436500D02*
D03*
X438390Y192000D02*
D03*
X437500Y178500D02*
D03*
X435000Y170500D02*
D03*
X410756Y196256D02*
D03*
X362500Y250500D02*
D03*
X321500Y276500D02*
D03*
X322500Y261500D02*
D03*
Y256500D02*
D03*
X338000Y250500D02*
D03*
X322432Y241432D02*
D03*
Y236433D02*
D03*
X282000Y251500D02*
D03*
X275666Y246023D02*
D03*
X273000Y255000D02*
D03*
X272980Y237020D02*
D03*
X281980Y240490D02*
D03*
X264000Y246020D02*
D03*
Y251530D02*
D03*
Y240510D02*
D03*
X230740Y253740D02*
D03*
X224910Y236410D02*
D03*
X227410Y231410D02*
D03*
X235000Y221500D02*
D03*
X223260Y253260D02*
D03*
X215020Y271500D02*
D03*
X194454Y248200D02*
D03*
X194123Y238165D02*
D03*
X194123Y228350D02*
D03*
X194105Y218484D02*
D03*
X187240Y222000D02*
D03*
X181000Y221500D02*
D03*
X178000D02*
D03*
X164500Y248164D02*
D03*
Y238170D02*
D03*
X144000Y235000D02*
D03*
X149533Y224967D02*
D03*
X129827Y228673D02*
D03*
X134732Y214768D02*
D03*
X77815Y169079D02*
D03*
X74315D02*
D03*
X70797Y169106D02*
D03*
X67297D02*
D03*
X60601Y169094D02*
D03*
X57101D02*
D03*
X42803Y137917D02*
D03*
X250090Y276410D02*
D03*
X422077Y70781D02*
D03*
X426500Y70500D02*
D03*
Y66000D02*
D03*
X431000D02*
D03*
Y61500D02*
D03*
X435500Y62000D02*
D03*
Y57500D02*
D03*
X439000D02*
D03*
Y53500D02*
D03*
X447500Y45000D02*
D03*
X451500D02*
D03*
Y40000D02*
D03*
X456000Y41000D02*
D03*
Y36000D02*
D03*
X461500Y34500D02*
D03*
Y29500D02*
D03*
X466000Y31500D02*
D03*
X467000Y25500D02*
D03*
X472000Y27000D02*
D03*
X501000Y34000D02*
D03*
X497644Y37928D02*
D03*
X501500Y42000D02*
D03*
X498000Y46000D02*
D03*
Y53500D02*
D03*
X501500Y50500D02*
D03*
Y58000D02*
D03*
X497500Y61500D02*
D03*
X498500Y67500D02*
D03*
X494000Y67000D02*
D03*
X443500Y54000D02*
D03*
Y49500D02*
D03*
X447500D02*
D03*
M02*
