M48
;Layer_Color=9474304
;FILE_FORMAT=2:5
INCH,LZ
;TYPE=PLATED
T01F00S00C0.00800
T02F00S00C0.01181
T03F00S00C0.01968
T04F00S00C0.03000
T05F00S00C0.03100
T06F00S00C0.03200
T07F00S00C0.03400
T08F00S00C0.03543
T09F00S00C0.03800
T10F00S00C0.03900
T11F00S00C0.03937
T12F00S00C0.04016
T13F00S00C0.04724
T14F00S00C0.05079
T15F00S00C0.05118
T16F00S00C0.05197
T17F00S00C0.05512
%
T01
X0094984Y0149079
X0099315
T02
X04615Y00295
Y00345
X0456Y0036
Y0041
X04515Y004
Y0045
X0466Y00315
X0467Y00255
X0472Y0027
X0501Y0034
X0497644Y0037928
X05015Y0042
X0498Y0046
Y00535
X05015Y00505
Y0058
X04975Y00615
X04985Y00675
X0494Y0067
X04355Y0062
Y00575
X0439
Y00535
X04435Y0054
Y00495
X04475
Y0045
X0431Y00615
Y0066
X04265
Y00705
X0422077Y0070781
X00475Y00305
Y00265
X00435
X004
X00395Y00305
X00435
X0012Y00765
X0042803Y0137917
X0057101Y0169094
X0060601
X0064119Y0169067
X0067297Y0169106
X0070797
X0074315Y0169079
X0077815
X0075112Y0153293
X0096166Y0177138
X0104449Y0172213
X0128083Y016739
X0134732Y0214768
X0102Y01275
X0098232Y0118268
X0176147Y0196835
X0178Y02125
X0181
Y0217
X0178
Y02215
X0181
X018724Y0222
X0194105Y0218484
X0194112Y0208537
X02245Y02115
X0235Y02215
X0221472Y019174
X0255563Y017824
X0149533Y0224967
X030459Y022641
Y022141
X03235Y02115
X0361135Y0221
X0369866Y0198
X0393634Y0188259
X0410756Y0196256
X04365Y01975
X04405
X04445
X04485
X043839Y0192
X04375Y01785
X04415Y01745
X0435Y01705
X0439Y01665
X04395Y01615
X0439495Y0153891
X044261Y0150816
X044Y01465
X04425Y01415
X04435Y01575
X041074Y015876
X040326Y016174
X04535Y0191
X0459Y0192
X0465Y01905
X04675Y01935
X04705Y0196
X04735Y01995
X0476Y0202
X0462Y0203
X0459Y02005
X04565Y01975
X04525
X0465Y02065
X04675Y0209
X051Y02055
Y02155
Y0225
Y0195
X05095Y01845
Y0172
Y01595
Y0148
X051Y0235
Y0244
X03625Y02505
X0338
X03225Y02565
Y02615
X03215Y02765
X0322432Y0241432
Y0236433
X0345366Y0230634
X028198Y024049
X0282Y02515
X0275666Y0246023
X0273Y0255
X0264Y025153
Y024602
Y024051
X027298Y023702
X022491Y023641
X022741Y023141
X023074Y025374
X022326Y025326
X021502Y02715
X025009Y027641
X0194454Y02482
X0194123Y0238165
X0194123Y022835
X01645Y023817
Y0248164
X0144Y0235
X0129827Y0228673
T03
X00315Y0024
X0036421
T04
X0145Y0047
X01525
X0160177Y0046866
X0167677
X0175177
X0086Y00495
X00781
X006513Y00145
X00545
X01455Y01355
X0153
X0160354Y0135709
X0167854
X0175354
T05
X00245Y0059
Y0069
X00545
Y0059
Y0079
Y0089
Y0099
Y0109
Y0119
Y0129
X00245
Y0119
Y0109
Y0099
Y0089
Y0079
T06
X0065264Y0088
X00755
X0085736
X0164264Y01715
X01745
X0184736
T07
X0106Y0076
X0125685
T08
X00915Y00145
X01265Y0036
X0082525Y0131579
X0079Y0193
X0069
X0059
X0049
X0039
X0029
X0039Y0165
X0012Y0119
X0124693Y0221193
X0142953Y0185445
X0199Y0193
X023Y02065
X03355Y01985
X03455
X03555
Y01685
X03455
X03355
X03345Y0221
X03855Y0161
X037Y024
X011Y02435
Y02285
X0089Y0279102
X0079
X0069
X0059
X0049
X0039
T09
X0146Y0013
X0156
X0136
T10
X0365Y021
X0375
X0385
X0202591Y0257784
Y02755
X0177
Y0257784
T11
X0108815Y0141579
X0118815
X0119815Y0185579
X0109815
T12
X04045Y0226
Y0236
Y0246
Y0256
T13
X03735Y0269
X038728
X014528Y02635
X01315
T14
X04415Y013239
X051
T15
X0195267Y0047396
Y0136372
X036259Y0107238
Y007653
T16
X0417878Y0076484
Y0124516
X0465122
X0486378
X0533622
Y0076484
X0486378
X0465122
T17
X0479815Y0025
X04995
X0490315Y0256
X051
M30
